<?xml version="1.0" encoding="UTF-8" standalone="no"?>
<!DOCTYPE svg PUBLIC "-//W3C//DTD SVG 1.1//EN"
 "http://www.w3.org/Graphics/SVG/1.1/DTD/svg11.dtd">
<!-- Generated by graphviz version 2.49.3 (20211027.1534)
 -->
<!-- Title: RayLib_SHMUP/include/Shmup/AGraphicObject.h Pages: 1 -->
<svg width="264pt" height="151pt"
 viewBox="0.00 0.00 263.91 151.00" xmlns="http://www.w3.org/2000/svg" xmlns:xlink="http://www.w3.org/1999/xlink">
<g id="graph0" class="graph" transform="scale(1 1) rotate(0) translate(4 147)">
<title>RayLib_SHMUP/include/Shmup/AGraphicObject.h</title>
<polygon fill="white" stroke="transparent" points="-4,4 -4,-147 259.91,-147 259.91,4 -4,4"/>
<!-- Node1 -->
<g id="node1" class="node">
<title>Node1</title>
<g id="a_node1"><a xlink:title=" ">
<polygon fill="#bfbfbf" stroke="black" points="3.91,-112.5 3.91,-142.5 133.91,-142.5 133.91,-112.5 3.91,-112.5"/>
<text text-anchor="start" x="11.91" y="-130.5" font-family="Helvetica,sans-Serif" font-size="10.00">RayLib_SHMUP/include</text>
<text text-anchor="middle" x="68.91" y="-119.5" font-family="Helvetica,sans-Serif" font-size="10.00">/Shmup/AGraphicObject.h</text>
</a>
</g>
</g>
<!-- Node2 -->
<g id="node2" class="node">
<title>Node2</title>
<g id="a_node2"><a xlink:title=" ">
<polygon fill="white" stroke="#bfbfbf" points="22.41,-0.5 22.41,-19.5 69.41,-19.5 69.41,-0.5 22.41,-0.5"/>
<text text-anchor="middle" x="45.91" y="-7.5" font-family="Helvetica,sans-Serif" font-size="10.00">raylib.h</text>
</a>
</g>
</g>
<!-- Node1&#45;&gt;Node2 -->
<g id="edge1" class="edge">
<title>Node1&#45;&gt;Node2</title>
<path fill="none" stroke="midnightblue" d="M40,-112.45C26.06,-103.99 10.7,-91.78 2.91,-76 -6.04,-57.88 10.08,-38.78 25.07,-26.01"/>
<polygon fill="midnightblue" stroke="midnightblue" points="27.47,-28.58 33.12,-19.62 23.11,-23.1 27.47,-28.58"/>
</g>
<!-- Node3 -->
<g id="node3" class="node">
<title>Node3</title>
<g id="a_node3"><a xlink:href="../../dc/d80/_instance_list_8h.html" target="_top" xlink:title=" ">
<polygon fill="white" stroke="black" points="143.91,-56.5 143.91,-75.5 255.91,-75.5 255.91,-56.5 143.91,-56.5"/>
<text text-anchor="middle" x="199.91" y="-63.5" font-family="Helvetica,sans-Serif" font-size="10.00">Shmup/InstanceList.h</text>
</a>
</g>
</g>
<!-- Node1&#45;&gt;Node3 -->
<g id="edge2" class="edge">
<title>Node1&#45;&gt;Node3</title>
<path fill="none" stroke="midnightblue" d="M99.95,-112.4C121.64,-102.55 150.37,-89.5 171.46,-79.92"/>
<polygon fill="midnightblue" stroke="midnightblue" points="173.19,-82.98 180.85,-75.66 170.29,-76.61 173.19,-82.98"/>
</g>
<!-- Node6 -->
<g id="node6" class="node">
<title>Node6</title>
<g id="a_node6"><a xlink:href="../../da/d02/_transform2_d_8h.html" target="_top" xlink:title=" ">
<polygon fill="white" stroke="black" points="11.91,-56.5 11.91,-75.5 125.91,-75.5 125.91,-56.5 11.91,-56.5"/>
<text text-anchor="middle" x="68.91" y="-63.5" font-family="Helvetica,sans-Serif" font-size="10.00">Shmup/Transform2D.h</text>
</a>
</g>
</g>
<!-- Node1&#45;&gt;Node6 -->
<g id="edge5" class="edge">
<title>Node1&#45;&gt;Node6</title>
<path fill="none" stroke="midnightblue" d="M68.91,-112.4C68.91,-104.47 68.91,-94.46 68.91,-85.86"/>
<polygon fill="midnightblue" stroke="midnightblue" points="72.41,-85.66 68.91,-75.66 65.41,-85.66 72.41,-85.66"/>
</g>
<!-- Node4 -->
<g id="node4" class="node">
<title>Node4</title>
<g id="a_node4"><a xlink:title=" ">
<polygon fill="white" stroke="#bfbfbf" points="127.91,-0.5 127.91,-19.5 181.91,-19.5 181.91,-0.5 127.91,-0.5"/>
<text text-anchor="middle" x="154.91" y="-7.5" font-family="Helvetica,sans-Serif" font-size="10.00">iostream</text>
</a>
</g>
</g>
<!-- Node3&#45;&gt;Node4 -->
<g id="edge3" class="edge">
<title>Node3&#45;&gt;Node4</title>
<path fill="none" stroke="midnightblue" d="M192.48,-56.08C186.05,-48.38 176.6,-37.03 168.79,-27.65"/>
<polygon fill="midnightblue" stroke="midnightblue" points="171.29,-25.19 162.2,-19.75 165.91,-29.67 171.29,-25.19"/>
</g>
<!-- Node5 -->
<g id="node5" class="node">
<title>Node5</title>
<g id="a_node5"><a xlink:title=" ">
<polygon fill="white" stroke="#bfbfbf" points="199.91,-0.5 199.91,-19.5 243.91,-19.5 243.91,-0.5 199.91,-0.5"/>
<text text-anchor="middle" x="221.91" y="-7.5" font-family="Helvetica,sans-Serif" font-size="10.00">vector</text>
</a>
</g>
</g>
<!-- Node3&#45;&gt;Node5 -->
<g id="edge4" class="edge">
<title>Node3&#45;&gt;Node5</title>
<path fill="none" stroke="midnightblue" d="M203.54,-56.08C206.52,-48.77 210.83,-38.18 214.53,-29.1"/>
<polygon fill="midnightblue" stroke="midnightblue" points="217.81,-30.33 218.34,-19.75 211.33,-27.69 217.81,-30.33"/>
</g>
<!-- Node6&#45;&gt;Node2 -->
<g id="edge6" class="edge">
<title>Node6&#45;&gt;Node2</title>
<path fill="none" stroke="midnightblue" d="M65.11,-56.08C61.99,-48.77 57.48,-38.18 53.62,-29.1"/>
<polygon fill="midnightblue" stroke="midnightblue" points="56.77,-27.58 49.63,-19.75 50.33,-30.32 56.77,-27.58"/>
</g>
</g>
</svg>
