<?xml version="1.0" encoding="UTF-8" standalone="no"?>
<!DOCTYPE svg PUBLIC "-//W3C//DTD SVG 1.1//EN"
 "http://www.w3.org/Graphics/SVG/1.1/DTD/svg11.dtd">
<!-- Generated by graphviz version 2.49.3 (20211027.1534)
 -->
<!-- Title: RayLib_SHMUP/include/Shmup/Collision/ACollidable.h Pages: 1 -->
<svg width="465pt" height="218pt"
 viewBox="0.00 0.00 464.66 218.00" xmlns="http://www.w3.org/2000/svg" xmlns:xlink="http://www.w3.org/1999/xlink">
<g id="graph0" class="graph" transform="scale(1 1) rotate(0) translate(4 214)">
<title>RayLib_SHMUP/include/Shmup/Collision/ACollidable.h</title>
<polygon fill="white" stroke="transparent" points="-4,4 -4,-214 460.66,-214 460.66,4 -4,4"/>
<!-- Node1 -->
<g id="node1" class="node">
<title>Node1</title>
<g id="a_node1"><a xlink:title=" ">
<polygon fill="#bfbfbf" stroke="black" points="187.16,-179.5 187.16,-209.5 336.16,-209.5 336.16,-179.5 187.16,-179.5"/>
<text text-anchor="start" x="195.16" y="-197.5" font-family="Helvetica,sans-Serif" font-size="10.00">RayLib_SHMUP/include</text>
<text text-anchor="middle" x="261.66" y="-186.5" font-family="Helvetica,sans-Serif" font-size="10.00">/Shmup/Collision/ACollidable.h</text>
</a>
</g>
</g>
<!-- Node2 -->
<g id="node2" class="node">
<title>Node2</title>
<g id="a_node2"><a xlink:href="../../d5/d36/_collider_8h.html" target="_top" xlink:title=" ">
<polygon fill="white" stroke="black" points="84.66,-123.5 84.66,-142.5 214.66,-142.5 214.66,-123.5 84.66,-123.5"/>
<text text-anchor="middle" x="149.66" y="-130.5" font-family="Helvetica,sans-Serif" font-size="10.00">Shmup/Collision/Collider.h</text>
</a>
</g>
</g>
<!-- Node1&#45;&gt;Node2 -->
<g id="edge1" class="edge">
<title>Node1&#45;&gt;Node2</title>
<path fill="none" stroke="midnightblue" d="M235.11,-179.4C216.99,-169.77 193.12,-157.09 175.21,-147.58"/>
<polygon fill="midnightblue" stroke="midnightblue" points="176.43,-144.26 165.95,-142.66 173.14,-150.44 176.43,-144.26"/>
</g>
<!-- Node8 -->
<g id="node8" class="node">
<title>Node8</title>
<g id="a_node8"><a xlink:href="../../dc/d80/_instance_list_8h.html" target="_top" xlink:title=" ">
<polygon fill="white" stroke="black" points="318.66,-123.5 318.66,-142.5 430.66,-142.5 430.66,-123.5 318.66,-123.5"/>
<text text-anchor="middle" x="374.66" y="-130.5" font-family="Helvetica,sans-Serif" font-size="10.00">Shmup/InstanceList.h</text>
</a>
</g>
</g>
<!-- Node1&#45;&gt;Node8 -->
<g id="edge8" class="edge">
<title>Node1&#45;&gt;Node8</title>
<path fill="none" stroke="midnightblue" d="M288.44,-179.4C306.72,-169.77 330.8,-157.09 348.87,-147.58"/>
<polygon fill="midnightblue" stroke="midnightblue" points="351,-150.41 358.21,-142.66 347.74,-144.22 351,-150.41"/>
</g>
<!-- Node3 -->
<g id="node3" class="node">
<title>Node3</title>
<g id="a_node3"><a xlink:title=" ">
<polygon fill="white" stroke="#bfbfbf" points="45.16,-0.5 45.16,-19.5 92.16,-19.5 92.16,-0.5 45.16,-0.5"/>
<text text-anchor="middle" x="68.66" y="-7.5" font-family="Helvetica,sans-Serif" font-size="10.00">raylib.h</text>
</a>
</g>
</g>
<!-- Node2&#45;&gt;Node3 -->
<g id="edge2" class="edge">
<title>Node2&#45;&gt;Node3</title>
<path fill="none" stroke="midnightblue" d="M84.45,-128.44C55.45,-123.21 23.81,-111.69 5.66,-87 -2.5,-75.9 -0.65,-68.25 5.66,-56 12.73,-42.25 26.18,-31.77 38.83,-24.39"/>
<polygon fill="midnightblue" stroke="midnightblue" points="40.66,-27.39 47.81,-19.57 37.34,-21.22 40.66,-27.39"/>
</g>
<!-- Node4 -->
<g id="node4" class="node">
<title>Node4</title>
<g id="a_node4"><a xlink:title=" ">
<polygon fill="white" stroke="#bfbfbf" points="15.16,-62 15.16,-81 74.16,-81 74.16,-62 15.16,-62"/>
<text text-anchor="middle" x="44.66" y="-69" font-family="Helvetica,sans-Serif" font-size="10.00">raymath.h</text>
</a>
</g>
</g>
<!-- Node2&#45;&gt;Node4 -->
<g id="edge3" class="edge">
<title>Node2&#45;&gt;Node4</title>
<path fill="none" stroke="midnightblue" d="M134.61,-123.48C117.38,-113.71 88.92,-97.58 68.62,-86.08"/>
<polygon fill="midnightblue" stroke="midnightblue" points="70.1,-82.89 59.67,-81.01 66.65,-88.98 70.1,-82.89"/>
</g>
<!-- Node5 -->
<g id="node5" class="node">
<title>Node5</title>
<g id="a_node5"><a xlink:href="../../da/d02/_transform2_d_8h.html" target="_top" xlink:title=" ">
<polygon fill="white" stroke="black" points="92.66,-62 92.66,-81 206.66,-81 206.66,-62 92.66,-62"/>
<text text-anchor="middle" x="149.66" y="-69" font-family="Helvetica,sans-Serif" font-size="10.00">Shmup/Transform2D.h</text>
</a>
</g>
</g>
<!-- Node2&#45;&gt;Node5 -->
<g id="edge4" class="edge">
<title>Node2&#45;&gt;Node5</title>
<path fill="none" stroke="midnightblue" d="M149.66,-123.48C149.66,-115.08 149.66,-101.98 149.66,-91.16"/>
<polygon fill="midnightblue" stroke="midnightblue" points="153.16,-91.01 149.66,-81.01 146.16,-91.01 153.16,-91.01"/>
</g>
<!-- Node6 -->
<g id="node6" class="node">
<title>Node6</title>
<g id="a_node6"><a xlink:href="../../de/d60/_collider_settings_8h.html" target="_top" xlink:title=" ">
<polygon fill="white" stroke="black" points="224.66,-56.5 224.66,-86.5 346.66,-86.5 346.66,-56.5 224.66,-56.5"/>
<text text-anchor="start" x="232.66" y="-74.5" font-family="Helvetica,sans-Serif" font-size="10.00">Shmup/Collision/Collider</text>
<text text-anchor="middle" x="285.66" y="-63.5" font-family="Helvetica,sans-Serif" font-size="10.00">Settings.h</text>
</a>
</g>
</g>
<!-- Node2&#45;&gt;Node6 -->
<g id="edge6" class="edge">
<title>Node2&#45;&gt;Node6</title>
<path fill="none" stroke="midnightblue" d="M169.14,-123.48C188.68,-114.93 219.37,-101.5 244.35,-90.57"/>
<polygon fill="midnightblue" stroke="midnightblue" points="245.85,-93.74 253.6,-86.52 243.04,-87.32 245.85,-93.74"/>
</g>
<!-- Node5&#45;&gt;Node3 -->
<g id="edge5" class="edge">
<title>Node5&#45;&gt;Node3</title>
<path fill="none" stroke="midnightblue" d="M138.05,-61.98C125.18,-52.52 104.18,-37.1 88.65,-25.69"/>
<polygon fill="midnightblue" stroke="midnightblue" points="90.37,-22.61 80.24,-19.51 86.23,-28.25 90.37,-22.61"/>
</g>
<!-- Node7 -->
<g id="node7" class="node">
<title>Node7</title>
<g id="a_node7"><a xlink:title=" ">
<polygon fill="white" stroke="#bfbfbf" points="307.66,-0.5 307.66,-19.5 351.66,-19.5 351.66,-0.5 307.66,-0.5"/>
<text text-anchor="middle" x="329.66" y="-7.5" font-family="Helvetica,sans-Serif" font-size="10.00">vector</text>
</a>
</g>
</g>
<!-- Node6&#45;&gt;Node7 -->
<g id="edge7" class="edge">
<title>Node6&#45;&gt;Node7</title>
<path fill="none" stroke="midnightblue" d="M296.08,-56.4C302.41,-47.84 310.53,-36.87 317.19,-27.86"/>
<polygon fill="midnightblue" stroke="midnightblue" points="320.12,-29.78 323.25,-19.66 314.49,-25.62 320.12,-29.78"/>
</g>
<!-- Node8&#45;&gt;Node7 -->
<g id="edge10" class="edge">
<title>Node8&#45;&gt;Node7</title>
<path fill="none" stroke="midnightblue" d="M373.3,-123.32C370.88,-108.94 365.14,-79.45 355.66,-56 351.77,-46.38 346.12,-36.32 341.09,-28.16"/>
<polygon fill="midnightblue" stroke="midnightblue" points="343.94,-26.12 335.6,-19.59 338.05,-29.9 343.94,-26.12"/>
</g>
<!-- Node9 -->
<g id="node9" class="node">
<title>Node9</title>
<g id="a_node9"><a xlink:title=" ">
<polygon fill="white" stroke="#bfbfbf" points="402.66,-62 402.66,-81 456.66,-81 456.66,-62 402.66,-62"/>
<text text-anchor="middle" x="429.66" y="-69" font-family="Helvetica,sans-Serif" font-size="10.00">iostream</text>
</a>
</g>
</g>
<!-- Node8&#45;&gt;Node9 -->
<g id="edge9" class="edge">
<title>Node8&#45;&gt;Node9</title>
<path fill="none" stroke="midnightblue" d="M382.54,-123.48C390.95,-114.37 404.48,-99.74 414.88,-88.48"/>
<polygon fill="midnightblue" stroke="midnightblue" points="417.57,-90.73 421.79,-81.01 412.43,-85.98 417.57,-90.73"/>
</g>
</g>
</svg>
