<?xml version="1.0" encoding="UTF-8" standalone="no"?>
<!DOCTYPE svg PUBLIC "-//W3C//DTD SVG 1.1//EN"
 "http://www.w3.org/Graphics/SVG/1.1/DTD/svg11.dtd">
<!-- Generated by graphviz version 2.49.3 (20211027.1534)
 -->
<!-- Title: RayLib_SHMUP/include/Shmup/Collision/ACollidable.h Pages: 1 -->
<svg width="386pt" height="218pt"
 viewBox="0.00 0.00 386.40 218.00" xmlns="http://www.w3.org/2000/svg" xmlns:xlink="http://www.w3.org/1999/xlink">
<g id="graph0" class="graph" transform="scale(1 1) rotate(0) translate(4 214)">
<title>RayLib_SHMUP/include/Shmup/Collision/ACollidable.h</title>
<polygon fill="white" stroke="transparent" points="-4,4 -4,-214 382.4,-214 382.4,4 -4,4"/>
<!-- Node1 -->
<g id="node1" class="node">
<title>Node1</title>
<g id="a_node1"><a xlink:title=" ">
<polygon fill="#bfbfbf" stroke="black" points="108.9,-179.5 108.9,-209.5 257.9,-209.5 257.9,-179.5 108.9,-179.5"/>
<text text-anchor="start" x="116.9" y="-197.5" font-family="Helvetica,sans-Serif" font-size="10.00">RayLib_SHMUP/include</text>
<text text-anchor="middle" x="183.4" y="-186.5" font-family="Helvetica,sans-Serif" font-size="10.00">/Shmup/Collision/ACollidable.h</text>
</a>
</g>
</g>
<!-- Node2 -->
<g id="node2" class="node">
<title>Node2</title>
<g id="a_node2"><a xlink:href="../../d5/d36/_collider_8h.html" target="_top" xlink:title=" ">
<polygon fill="white" stroke="black" points="49.4,-123.5 49.4,-142.5 179.4,-142.5 179.4,-123.5 49.4,-123.5"/>
<text text-anchor="middle" x="114.4" y="-130.5" font-family="Helvetica,sans-Serif" font-size="10.00">Shmup/Collision/Collider.h</text>
</a>
</g>
</g>
<!-- Node1&#45;&gt;Node2 -->
<g id="edge1" class="edge">
<title>Node1&#45;&gt;Node2</title>
<path fill="none" stroke="midnightblue" d="M167.05,-179.4C156.5,-170.31 142.8,-158.49 132.02,-149.19"/>
<polygon fill="midnightblue" stroke="midnightblue" points="134.3,-146.54 124.44,-142.66 129.73,-151.84 134.3,-146.54"/>
</g>
<!-- Node7 -->
<g id="node7" class="node">
<title>Node7</title>
<g id="a_node7"><a xlink:href="../../dc/d80/_instance_list_8h.html" target="_top" xlink:title=" ">
<polygon fill="white" stroke="black" points="240.4,-123.5 240.4,-142.5 352.4,-142.5 352.4,-123.5 240.4,-123.5"/>
<text text-anchor="middle" x="296.4" y="-130.5" font-family="Helvetica,sans-Serif" font-size="10.00">Shmup/InstanceList.h</text>
</a>
</g>
</g>
<!-- Node1&#45;&gt;Node7 -->
<g id="edge7" class="edge">
<title>Node1&#45;&gt;Node7</title>
<path fill="none" stroke="midnightblue" d="M210.18,-179.4C228.46,-169.77 252.55,-157.09 270.61,-147.58"/>
<polygon fill="midnightblue" stroke="midnightblue" points="272.74,-150.41 279.96,-142.66 269.48,-144.22 272.74,-150.41"/>
</g>
<!-- Node3 -->
<g id="node3" class="node">
<title>Node3</title>
<g id="a_node3"><a xlink:title=" ">
<polygon fill="white" stroke="#bfbfbf" points="5.9,-0.5 5.9,-19.5 52.9,-19.5 52.9,-0.5 5.9,-0.5"/>
<text text-anchor="middle" x="29.4" y="-7.5" font-family="Helvetica,sans-Serif" font-size="10.00">raylib.h</text>
</a>
</g>
</g>
<!-- Node2&#45;&gt;Node3 -->
<g id="edge2" class="edge">
<title>Node2&#45;&gt;Node3</title>
<path fill="none" stroke="midnightblue" d="M62.12,-123.48C40.81,-117.15 18.21,-106.14 5.4,-87 -6.69,-68.93 5.11,-44.4 16.02,-28.16"/>
<polygon fill="midnightblue" stroke="midnightblue" points="19.14,-29.82 22.16,-19.66 13.47,-25.72 19.14,-29.82"/>
</g>
<!-- Node4 -->
<g id="node4" class="node">
<title>Node4</title>
<g id="a_node4"><a xlink:href="../../da/d02/_transform2_d_8h.html" target="_top" xlink:title=" ">
<polygon fill="white" stroke="black" points="14.4,-62 14.4,-81 128.4,-81 128.4,-62 14.4,-62"/>
<text text-anchor="middle" x="71.4" y="-69" font-family="Helvetica,sans-Serif" font-size="10.00">Shmup/Transform2D.h</text>
</a>
</g>
</g>
<!-- Node2&#45;&gt;Node4 -->
<g id="edge3" class="edge">
<title>Node2&#45;&gt;Node4</title>
<path fill="none" stroke="midnightblue" d="M108.24,-123.48C101.79,-114.55 91.5,-100.31 83.43,-89.14"/>
<polygon fill="midnightblue" stroke="midnightblue" points="86.24,-87.06 77.55,-81.01 80.57,-91.16 86.24,-87.06"/>
</g>
<!-- Node5 -->
<g id="node5" class="node">
<title>Node5</title>
<g id="a_node5"><a xlink:href="../../de/d60/_collider_settings_8h.html" target="_top" xlink:title=" ">
<polygon fill="white" stroke="black" points="146.4,-56.5 146.4,-86.5 268.4,-86.5 268.4,-56.5 146.4,-56.5"/>
<text text-anchor="start" x="154.4" y="-74.5" font-family="Helvetica,sans-Serif" font-size="10.00">Shmup/Collision/Collider</text>
<text text-anchor="middle" x="207.4" y="-63.5" font-family="Helvetica,sans-Serif" font-size="10.00">Settings.h</text>
</a>
</g>
</g>
<!-- Node2&#45;&gt;Node5 -->
<g id="edge5" class="edge">
<title>Node2&#45;&gt;Node5</title>
<path fill="none" stroke="midnightblue" d="M127.72,-123.48C140.44,-115.34 160.05,-102.79 176.64,-92.18"/>
<polygon fill="midnightblue" stroke="midnightblue" points="178.94,-94.86 185.48,-86.52 175.17,-88.96 178.94,-94.86"/>
</g>
<!-- Node4&#45;&gt;Node3 -->
<g id="edge4" class="edge">
<title>Node4&#45;&gt;Node3</title>
<path fill="none" stroke="midnightblue" d="M65.38,-61.98C59.14,-53.14 49.23,-39.09 41.38,-27.98"/>
<polygon fill="midnightblue" stroke="midnightblue" points="44.03,-25.66 35.41,-19.51 38.31,-29.7 44.03,-25.66"/>
</g>
<!-- Node6 -->
<g id="node6" class="node">
<title>Node6</title>
<g id="a_node6"><a xlink:title=" ">
<polygon fill="white" stroke="#bfbfbf" points="229.4,-0.5 229.4,-19.5 273.4,-19.5 273.4,-0.5 229.4,-0.5"/>
<text text-anchor="middle" x="251.4" y="-7.5" font-family="Helvetica,sans-Serif" font-size="10.00">vector</text>
</a>
</g>
</g>
<!-- Node5&#45;&gt;Node6 -->
<g id="edge6" class="edge">
<title>Node5&#45;&gt;Node6</title>
<path fill="none" stroke="midnightblue" d="M217.83,-56.4C224.16,-47.84 232.27,-36.87 238.93,-27.86"/>
<polygon fill="midnightblue" stroke="midnightblue" points="241.87,-29.78 245,-19.66 236.24,-25.62 241.87,-29.78"/>
</g>
<!-- Node7&#45;&gt;Node6 -->
<g id="edge9" class="edge">
<title>Node7&#45;&gt;Node6</title>
<path fill="none" stroke="midnightblue" d="M295.04,-123.32C292.62,-108.94 286.89,-79.45 277.4,-56 273.51,-46.38 267.87,-36.32 262.83,-28.16"/>
<polygon fill="midnightblue" stroke="midnightblue" points="265.68,-26.12 257.34,-19.59 259.79,-29.9 265.68,-26.12"/>
</g>
<!-- Node8 -->
<g id="node8" class="node">
<title>Node8</title>
<g id="a_node8"><a xlink:title=" ">
<polygon fill="white" stroke="#bfbfbf" points="324.4,-62 324.4,-81 378.4,-81 378.4,-62 324.4,-62"/>
<text text-anchor="middle" x="351.4" y="-69" font-family="Helvetica,sans-Serif" font-size="10.00">iostream</text>
</a>
</g>
</g>
<!-- Node7&#45;&gt;Node8 -->
<g id="edge8" class="edge">
<title>Node7&#45;&gt;Node8</title>
<path fill="none" stroke="midnightblue" d="M304.28,-123.48C312.69,-114.37 326.22,-99.74 336.63,-88.48"/>
<polygon fill="midnightblue" stroke="midnightblue" points="339.32,-90.73 343.53,-81.01 334.18,-85.98 339.32,-90.73"/>
</g>
</g>
</svg>
