<?xml version="1.0" encoding="UTF-8" standalone="no"?>
<!DOCTYPE svg PUBLIC "-//W3C//DTD SVG 1.1//EN"
 "http://www.w3.org/Graphics/SVG/1.1/DTD/svg11.dtd">
<!-- Generated by graphviz version 2.49.3 (20211027.1534)
 -->
<!-- Title: AOffsetablePatern::IOffserablePaternData Pages: 1 -->
<svg width="302pt" height="139pt"
 viewBox="0.00 0.00 302.00 139.00" xmlns="http://www.w3.org/2000/svg" xmlns:xlink="http://www.w3.org/1999/xlink">
<g id="graph0" class="graph" transform="scale(1 1) rotate(0) translate(4 135)">
<title>AOffsetablePatern::IOffserablePaternData</title>
<polygon fill="white" stroke="transparent" points="-4,4 -4,-135 298,-135 298,4 -4,4"/>
<!-- Node1 -->
<g id="node1" class="node">
<title>Node1</title>
<g id="a_node1"><a xlink:title="Datas for AOffsetablePatern.">
<polygon fill="#bfbfbf" stroke="black" points="94.5,-0.5 94.5,-30.5 207.5,-30.5 207.5,-0.5 94.5,-0.5"/>
<text text-anchor="start" x="102.5" y="-18.5" font-family="Helvetica,sans-Serif" font-size="10.00">AOffsetablePatern::</text>
<text text-anchor="middle" x="151" y="-7.5" font-family="Helvetica,sans-Serif" font-size="10.00">IOffserablePaternData</text>
</a>
</g>
</g>
<!-- Node2 -->
<g id="node2" class="node">
<title>Node2</title>
<g id="a_node2"><a xlink:href="../../da/dd8/struct_a_patern_1_1_i_patern_data.html" target="_top" xlink:title="Datas to pass to the patern. &#160;Overriden by the child classes.">
<polygon fill="white" stroke="black" points="0,-111.5 0,-130.5 108,-130.5 108,-111.5 0,-111.5"/>
<text text-anchor="middle" x="54" y="-118.5" font-family="Helvetica,sans-Serif" font-size="10.00">APatern::IPaternData</text>
</a>
</g>
</g>
<!-- Node2&#45;&gt;Node1 -->
<g id="edge1" class="edge">
<title>Node2&#45;&gt;Node1</title>
<path fill="none" stroke="midnightblue" d="M69.23,-103.75C88.01,-83.71 119.64,-49.96 137.56,-30.84"/>
<polygon fill="midnightblue" stroke="midnightblue" points="66.55,-101.49 62.27,-111.18 71.66,-106.27 66.55,-101.49"/>
</g>
<!-- Node3 -->
<g id="node3" class="node">
<title>Node3</title>
<g id="a_node3"><a xlink:title=" ">
<polygon fill="white" stroke="#bfbfbf" points="126,-111.5 126,-130.5 176,-130.5 176,-111.5 126,-111.5"/>
<text text-anchor="middle" x="151" y="-118.5" font-family="Helvetica,sans-Serif" font-size="10.00">Vector2</text>
</a>
</g>
</g>
<!-- Node3&#45;&gt;Node1 -->
<g id="edge2" class="edge">
<title>Node3&#45;&gt;Node1</title>
<path fill="none" stroke="#9a32cd" stroke-dasharray="5,2" d="M151,-101C151,-80.74 151,-49.11 151,-30.84"/>
<polygon fill="#9a32cd" stroke="#9a32cd" points="147.5,-101.18 151,-111.18 154.5,-101.18 147.5,-101.18"/>
<text text-anchor="middle" x="182.5" y="-85" font-family="Helvetica,sans-Serif" font-size="10.00"> positionOffset</text>
<text text-anchor="middle" x="182.5" y="-74" font-family="Helvetica,sans-Serif" font-size="10.00">rotationCenter</text>
<text text-anchor="middle" x="182.5" y="-63" font-family="Helvetica,sans-Serif" font-size="10.00">scaleCenter</text>
<text text-anchor="middle" x="182.5" y="-52" font-family="Helvetica,sans-Serif" font-size="10.00">scaleOffset</text>
</g>
<!-- Node4 -->
<g id="node4" class="node">
<title>Node4</title>
<g id="a_node4"><a xlink:title=" ">
<polygon fill="white" stroke="#bfbfbf" points="219.5,-111.5 219.5,-130.5 254.5,-130.5 254.5,-111.5 219.5,-111.5"/>
<text text-anchor="middle" x="237" y="-118.5" font-family="Helvetica,sans-Serif" font-size="10.00">float</text>
</a>
</g>
</g>
<!-- Node4&#45;&gt;Node1 -->
<g id="edge3" class="edge">
<title>Node4&#45;&gt;Node1</title>
<path fill="none" stroke="#9a32cd" stroke-dasharray="5,2" d="M235.21,-101.07C232.86,-85.53 227.45,-63.76 215,-49 208.57,-41.38 199.91,-35.35 191.04,-30.66"/>
<polygon fill="#9a32cd" stroke="#9a32cd" points="231.75,-101.59 236.44,-111.09 238.7,-100.74 231.75,-101.59"/>
<text text-anchor="middle" x="263.5" y="-68.5" font-family="Helvetica,sans-Serif" font-size="10.00"> rotationOffset</text>
</g>
</g>
</svg>
