<?xml version="1.0" encoding="UTF-8" standalone="no"?>
<!DOCTYPE svg PUBLIC "-//W3C//DTD SVG 1.1//EN"
 "http://www.w3.org/Graphics/SVG/1.1/DTD/svg11.dtd">
<!-- Generated by graphviz version 2.49.3 (20211027.1534)
 -->
<!-- Title: SequenceMovePatern Pages: 1 -->
<svg width="248pt" height="152pt"
 viewBox="0.00 0.00 248.00 152.00" xmlns="http://www.w3.org/2000/svg" xmlns:xlink="http://www.w3.org/1999/xlink">
<g id="graph0" class="graph" transform="scale(1 1) rotate(0) translate(4 148)">
<title>SequenceMovePatern</title>
<polygon fill="white" stroke="transparent" points="-4,4 -4,-148 244,-148 244,4 -4,4"/>
<!-- Node1 -->
<g id="node1" class="node">
<title>Node1</title>
<g id="a_node1"><a xlink:title="A patern computed by a sequence of rotation and velocity. &#160;This patern can be loaded from a file cont...">
<polygon fill="#bfbfbf" stroke="black" points="31.5,-0.5 31.5,-19.5 144.5,-19.5 144.5,-0.5 31.5,-0.5"/>
<text text-anchor="middle" x="88" y="-7.5" font-family="Helvetica,sans-Serif" font-size="10.00">SequenceMovePatern</text>
</a>
</g>
</g>
<!-- Node2 -->
<g id="node2" class="node">
<title>Node2</title>
<g id="a_node2"><a xlink:href="../../d7/d67/class_a_offsetable_patern.html" target="_top" xlink:title="A patern that can have an offset (rotation, position, rotation)">
<polygon fill="white" stroke="black" points="0,-67.5 0,-86.5 96,-86.5 96,-67.5 0,-67.5"/>
<text text-anchor="middle" x="48" y="-74.5" font-family="Helvetica,sans-Serif" font-size="10.00">AOffsetablePatern</text>
</a>
</g>
</g>
<!-- Node2&#45;&gt;Node1 -->
<g id="edge1" class="edge">
<title>Node2&#45;&gt;Node1</title>
<path fill="none" stroke="midnightblue" d="M58.75,-58.53C66.49,-45.95 76.61,-29.51 82.69,-19.63"/>
<polygon fill="midnightblue" stroke="midnightblue" points="55.65,-56.88 53.39,-67.23 61.62,-60.55 55.65,-56.88"/>
</g>
<!-- Node3 -->
<g id="node3" class="node">
<title>Node3</title>
<g id="a_node3"><a xlink:href="../../dd/d61/class_a_patern.html" target="_top" xlink:title="An util class that contains methods to move a movable.">
<polygon fill="white" stroke="black" points="22,-124.5 22,-143.5 74,-143.5 74,-124.5 22,-124.5"/>
<text text-anchor="middle" x="48" y="-131.5" font-family="Helvetica,sans-Serif" font-size="10.00">APatern</text>
</a>
</g>
</g>
<!-- Node3&#45;&gt;Node2 -->
<g id="edge2" class="edge">
<title>Node3&#45;&gt;Node2</title>
<path fill="none" stroke="midnightblue" d="M48,-114.12C48,-104.82 48,-94.06 48,-86.71"/>
<polygon fill="midnightblue" stroke="midnightblue" points="44.5,-114.41 48,-124.41 51.5,-114.41 44.5,-114.41"/>
</g>
<!-- Node4 -->
<g id="node4" class="node">
<title>Node4</title>
<g id="a_node4"><a xlink:title=" ">
<polygon fill="white" stroke="#bfbfbf" points="114.5,-67.5 114.5,-86.5 143.5,-86.5 143.5,-67.5 114.5,-67.5"/>
<text text-anchor="middle" x="129" y="-74.5" font-family="Helvetica,sans-Serif" font-size="10.00">int</text>
</a>
</g>
</g>
<!-- Node4&#45;&gt;Node1 -->
<g id="edge3" class="edge">
<title>Node4&#45;&gt;Node1</title>
<path fill="none" stroke="#9a32cd" stroke-dasharray="5,2" d="M117.98,-58.53C110.05,-45.95 99.67,-29.51 93.44,-19.63"/>
<polygon fill="#9a32cd" stroke="#9a32cd" points="115.18,-60.64 123.47,-67.23 121.1,-56.91 115.18,-60.64"/>
<text text-anchor="middle" x="175" y="-41" font-family="Helvetica,sans-Serif" font-size="10.00"> SEQUENCE_FIELD_COUNT</text>
</g>
</g>
</svg>
