<?xml version="1.0" encoding="UTF-8" standalone="no"?>
<!DOCTYPE svg PUBLIC "-//W3C//DTD SVG 1.1//EN"
 "http://www.w3.org/Graphics/SVG/1.1/DTD/svg11.dtd">
<!-- Generated by graphviz version 2.49.3 (20211027.1534)
 -->
<!-- Title: RayLib_SHMUP/include/Shmup/Paterns/Enemy/SequenceMovePatern.h Pages: 1 -->
<!--zoomable 184 -->
<svg id="main" version="1.1" xmlns="http://www.w3.org/2000/svg" xmlns:xlink="http://www.w3.org/1999/xlink" xml:space="preserve" onload="init(evt)">
<style type="text/css"><![CDATA[
.edge:hover path { stroke: red; }
.edge:hover polygon { stroke: red; fill: red; }
]]></style>
<script type="text/javascript"><![CDATA[
var edges = document.getElementsByTagName('g');
if (edges && edges.length) {
  for (var i=0;i<edges.length;i++) {
    if (edges[i].id.substr(0,4)=='edge') {
      edges[i].setAttribute('class','edge');
    }
  }
}
]]></script>
        <defs>
                <circle id="rim" cx="0" cy="0" r="7"/>
                <circle id="rim2" cx="0" cy="0" r="3.5"/>
                <g id="zoomPlus">
                        <use xlink:href="#rim" fill="#404040">
                                <set attributeName="fill" to="#808080" begin="zoomplus.mouseover" end="zoomplus.mouseout"/>
                        </use>
                        <path d="M-4,0h8M0,-4v8" fill="none" stroke="white" stroke-width="1.5" pointer-events="none"/>
                </g>
                <g id="zoomMin">
                        <use xlink:href="#rim" fill="#404040">
                                <set attributeName="fill" to="#808080" begin="zoomminus.mouseover" end="zoomminus.mouseout"/>
                        </use>
                        <path d="M-4,0h8" fill="none" stroke="white" stroke-width="1.5" pointer-events="none"/>
                </g>
                <g id="dirArrow">
                        <path fill="none" stroke="white" stroke-width="1.5" d="M0,-3.0v7 M-2.5,-0.5L0,-3.0L2.5,-0.5"/>
                </g>
               <g id="resetDef">
                       <use xlink:href="#rim2" fill="#404040">
                               <set attributeName="fill" to="#808080" begin="reset.mouseover" end="reset.mouseout"/>
                       </use>
               </g>
        </defs>

<script type="text/javascript">
var viewWidth = 1060;
var viewHeight = 184;
var sectionId = 'dynsection-1';
</script>
<script xlink:href="../../svgpan.js"/>
<svg id="graph" class="graph">
<g id="viewport">
<title>RayLib_SHMUP/include/Shmup/Paterns/Enemy/SequenceMovePatern.h</title>
<polygon fill="white" stroke="transparent" points="-4,4 -4,-180 1055.5,-180 1055.5,4 -4,4"/>
<!-- Node1 -->
<g id="node1" class="node">
<title>Node1</title>
<g id="a_node1"><a xlink:title=" ">
<polygon fill="#bfbfbf" stroke="black" points="619.5,-134.5 619.5,-175.5 742.5,-175.5 742.5,-134.5 619.5,-134.5"/>
<text text-anchor="start" x="627.5" y="-163.5" font-family="Helvetica,sans-Serif" font-size="10.00">RayLib_SHMUP/include</text>
<text text-anchor="start" x="627.5" y="-152.5" font-family="Helvetica,sans-Serif" font-size="10.00">/Shmup/Paterns/Enemy</text>
<text text-anchor="middle" x="681" y="-141.5" font-family="Helvetica,sans-Serif" font-size="10.00">/SequenceMovePatern.h</text>
</a>
</g>
</g>
<!-- Node2 -->
<g id="node2" class="node">
<title>Node2</title>
<g id="a_node2"><a xlink:href="../../de/d40/_parser_8h.html" target="_top" xlink:title=" ">
<polygon fill="white" stroke="black" points="277,-67.5 277,-97.5 399,-97.5 399,-67.5 277,-67.5"/>
<text text-anchor="start" x="285" y="-85.5" font-family="Helvetica,sans-Serif" font-size="10.00">RayLib_SHMUP/include</text>
<text text-anchor="middle" x="338" y="-74.5" font-family="Helvetica,sans-Serif" font-size="10.00">/Namespaces/Parser.h</text>
</a>
</g>
</g>
<!-- Node1&#45;&gt;Node2 -->
<g id="edge1" class="edge">
<title>Node1&#45;&gt;Node2</title>
<path fill="none" stroke="midnightblue" d="M609.16,-139.23C546.99,-126.46 458.07,-108.18 399.22,-96.08"/>
<polygon fill="midnightblue" stroke="midnightblue" points="608.78,-142.73 619.28,-141.31 610.19,-135.87 608.78,-142.73"/>
</g>
<!-- Node6 -->
<g id="node6" class="node">
<title>Node6</title>
<g id="a_node6"><a xlink:href="../../d3/d22/_patern_computer_8h.html" target="_top" xlink:title=" ">
<polygon fill="white" stroke="black" points="524,-67.5 524,-97.5 678,-97.5 678,-67.5 524,-67.5"/>
<text text-anchor="start" x="532" y="-85.5" font-family="Helvetica,sans-Serif" font-size="10.00">RayLib_SHMUP/include</text>
<text text-anchor="middle" x="601" y="-74.5" font-family="Helvetica,sans-Serif" font-size="10.00">/PaternEditor/PaternComputer.h</text>
</a>
</g>
</g>
<!-- Node1&#45;&gt;Node6 -->
<g id="edge5" class="edge">
<title>Node1&#45;&gt;Node6</title>
<path fill="none" stroke="midnightblue" d="M650.99,-127.55C639.48,-117.41 626.79,-106.23 617.08,-97.67"/>
<polygon fill="midnightblue" stroke="midnightblue" points="648.9,-130.38 658.72,-134.36 653.53,-125.12 648.9,-130.38"/>
</g>
<!-- Node8 -->
<g id="node8" class="node">
<title>Node8</title>
<g id="a_node8"><a xlink:href="../../d4/d1e/_enemy_8h.html" target="_top" xlink:title=" ">
<polygon fill="white" stroke="black" points="700,-67.5 700,-97.5 830,-97.5 830,-67.5 700,-67.5"/>
<text text-anchor="start" x="708" y="-85.5" font-family="Helvetica,sans-Serif" font-size="10.00">RayLib_SHMUP/include</text>
<text text-anchor="middle" x="765" y="-74.5" font-family="Helvetica,sans-Serif" font-size="10.00">/Shmup/Movable/Enemy.h</text>
</a>
</g>
</g>
<!-- Node1&#45;&gt;Node8 -->
<g id="edge8" class="edge">
<title>Node1&#45;&gt;Node8</title>
<path fill="none" stroke="midnightblue" d="M712.16,-127.84C724.34,-117.62 737.82,-106.31 748.12,-97.67"/>
<polygon fill="midnightblue" stroke="midnightblue" points="709.81,-125.25 704.4,-134.36 714.31,-130.61 709.81,-125.25"/>
</g>
<!-- Node11 -->
<g id="node11" class="node">
<title>Node11</title>
<g id="a_node11"><a xlink:href="../../df/d32/_sequence_move_patern_8cpp.html" target="_top" xlink:title=" ">
<polygon fill="white" stroke="black" points="848.5,-67.5 848.5,-97.5 1051.5,-97.5 1051.5,-67.5 848.5,-67.5"/>
<text text-anchor="start" x="856.5" y="-85.5" font-family="Helvetica,sans-Serif" font-size="10.00">RayLib_SHMUP/src/Shmup</text>
<text text-anchor="middle" x="950" y="-74.5" font-family="Helvetica,sans-Serif" font-size="10.00">/Paterns/Enemy/SequenceMovePatern.cpp</text>
</a>
</g>
</g>
<!-- Node1&#45;&gt;Node11 -->
<g id="edge11" class="edge">
<title>Node1&#45;&gt;Node11</title>
<path fill="none" stroke="midnightblue" d="M752.45,-135.28C797.61,-123.44 855.02,-108.39 896.3,-97.57"/>
<polygon fill="midnightblue" stroke="midnightblue" points="751.5,-131.9 742.71,-137.83 753.27,-138.68 751.5,-131.9"/>
</g>
<!-- Node3 -->
<g id="node3" class="node">
<title>Node3</title>
<g id="a_node3"><a xlink:href="../../de/df6/_parser_8cpp.html" target="_top" xlink:title=" ">
<polygon fill="white" stroke="black" points="0,-0.5 0,-30.5 166,-30.5 166,-0.5 0,-0.5"/>
<text text-anchor="start" x="8" y="-18.5" font-family="Helvetica,sans-Serif" font-size="10.00">RayLib_SHMUP/src/Namespaces</text>
<text text-anchor="middle" x="83" y="-7.5" font-family="Helvetica,sans-Serif" font-size="10.00">/Parser.cpp</text>
</a>
</g>
</g>
<!-- Node2&#45;&gt;Node3 -->
<g id="edge2" class="edge">
<title>Node2&#45;&gt;Node3</title>
<path fill="none" stroke="midnightblue" d="M273.21,-64.98C231.56,-54.37 178.02,-40.72 138.36,-30.61"/>
<polygon fill="midnightblue" stroke="midnightblue" points="272.43,-68.4 282.98,-67.48 274.16,-61.61 272.43,-68.4"/>
</g>
<!-- Node4 -->
<g id="node4" class="node">
<title>Node4</title>
<g id="a_node4"><a xlink:href="../../d5/d58/_patern_editor_main_8cpp.html" target="_top" xlink:title=" ">
<polygon fill="white" stroke="black" points="341.5,-0.5 341.5,-30.5 502.5,-30.5 502.5,-0.5 341.5,-0.5"/>
<text text-anchor="start" x="349.5" y="-18.5" font-family="Helvetica,sans-Serif" font-size="10.00">RayLib_SHMUP/src/PaternEditor</text>
<text text-anchor="middle" x="422" y="-7.5" font-family="Helvetica,sans-Serif" font-size="10.00">Main.cpp</text>
</a>
</g>
</g>
<!-- Node2&#45;&gt;Node4 -->
<g id="edge3" class="edge">
<title>Node2&#45;&gt;Node4</title>
<path fill="none" stroke="midnightblue" d="M364.28,-61.17C377.12,-51.23 392.26,-39.51 403.81,-30.58"/>
<polygon fill="midnightblue" stroke="midnightblue" points="361.99,-58.51 356.23,-67.4 366.28,-64.04 361.99,-58.51"/>
</g>
<!-- Node5 -->
<g id="node5" class="node">
<title>Node5</title>
<g id="a_node5"><a xlink:href="../../df/dd2/_level_manager_8cpp.html" target="_top" xlink:title=" ">
<polygon fill="white" stroke="black" points="184.5,-0.5 184.5,-30.5 323.5,-30.5 323.5,-0.5 184.5,-0.5"/>
<text text-anchor="start" x="192.5" y="-18.5" font-family="Helvetica,sans-Serif" font-size="10.00">RayLib_SHMUP/src/Shmup</text>
<text text-anchor="middle" x="254" y="-7.5" font-family="Helvetica,sans-Serif" font-size="10.00">/LevelManager.cpp</text>
</a>
</g>
</g>
<!-- Node2&#45;&gt;Node5 -->
<g id="edge4" class="edge">
<title>Node2&#45;&gt;Node5</title>
<path fill="none" stroke="midnightblue" d="M311.72,-61.17C298.88,-51.23 283.74,-39.51 272.19,-30.58"/>
<polygon fill="midnightblue" stroke="midnightblue" points="309.72,-64.04 319.77,-67.4 314.01,-58.51 309.72,-64.04"/>
</g>
<!-- Node6&#45;&gt;Node4 -->
<g id="edge7" class="edge">
<title>Node6&#45;&gt;Node4</title>
<path fill="none" stroke="midnightblue" d="M552.68,-63.96C523.85,-53.48 487.72,-40.37 460.76,-30.58"/>
<polygon fill="midnightblue" stroke="midnightblue" points="551.57,-67.27 562.16,-67.4 553.95,-60.69 551.57,-67.27"/>
</g>
<!-- Node7 -->
<g id="node7" class="node">
<title>Node7</title>
<g id="a_node7"><a xlink:href="../../d3/d32/_patern_computer_8cpp.html" target="_top" xlink:title=" ">
<polygon fill="white" stroke="black" points="520.5,-0.5 520.5,-30.5 681.5,-30.5 681.5,-0.5 520.5,-0.5"/>
<text text-anchor="start" x="528.5" y="-18.5" font-family="Helvetica,sans-Serif" font-size="10.00">RayLib_SHMUP/src/PaternEditor</text>
<text text-anchor="middle" x="601" y="-7.5" font-family="Helvetica,sans-Serif" font-size="10.00">/PaternComputer.cpp</text>
</a>
</g>
</g>
<!-- Node6&#45;&gt;Node7 -->
<g id="edge6" class="edge">
<title>Node6&#45;&gt;Node7</title>
<path fill="none" stroke="midnightblue" d="M601,-57.11C601,-48.15 601,-38.32 601,-30.58"/>
<polygon fill="midnightblue" stroke="midnightblue" points="597.5,-57.4 601,-67.4 604.5,-57.4 597.5,-57.4"/>
</g>
<!-- Node9 -->
<g id="node9" class="node">
<title>Node9</title>
<g id="a_node9"><a xlink:href="../../d2/d2e/_game_manager_8cpp.html" target="_top" xlink:title=" ">
<polygon fill="white" stroke="black" points="699.5,-0.5 699.5,-30.5 838.5,-30.5 838.5,-0.5 699.5,-0.5"/>
<text text-anchor="start" x="707.5" y="-18.5" font-family="Helvetica,sans-Serif" font-size="10.00">RayLib_SHMUP/src/Shmup</text>
<text text-anchor="middle" x="769" y="-7.5" font-family="Helvetica,sans-Serif" font-size="10.00">/GameManager.cpp</text>
</a>
</g>
</g>
<!-- Node8&#45;&gt;Node9 -->
<g id="edge9" class="edge">
<title>Node8&#45;&gt;Node9</title>
<path fill="none" stroke="midnightblue" d="M766.48,-57.4C767.04,-48.37 767.65,-38.41 768.13,-30.58"/>
<polygon fill="midnightblue" stroke="midnightblue" points="762.99,-57.2 765.87,-67.4 769.98,-57.63 762.99,-57.2"/>
</g>
<!-- Node10 -->
<g id="node10" class="node">
<title>Node10</title>
<g id="a_node10"><a xlink:href="../../de/d34/_enemy_8cpp.html" target="_top" xlink:title=" ">
<polygon fill="white" stroke="black" points="856.5,-0.5 856.5,-30.5 995.5,-30.5 995.5,-0.5 856.5,-0.5"/>
<text text-anchor="start" x="864.5" y="-18.5" font-family="Helvetica,sans-Serif" font-size="10.00">RayLib_SHMUP/src/Shmup</text>
<text text-anchor="middle" x="926" y="-7.5" font-family="Helvetica,sans-Serif" font-size="10.00">/Movable/Enemy.cpp</text>
</a>
</g>
</g>
<!-- Node8&#45;&gt;Node10 -->
<g id="edge10" class="edge">
<title>Node8&#45;&gt;Node10</title>
<path fill="none" stroke="midnightblue" d="M809.48,-63.54C835.24,-53.14 867.2,-40.24 891.13,-30.58"/>
<polygon fill="midnightblue" stroke="midnightblue" points="807.9,-60.41 799.93,-67.4 810.52,-66.9 807.9,-60.41"/>
</g>
</g>
</svg>
        <g id="navigator" transform="translate(0 0)" fill="#404254">
                <rect fill="#f2f5e9" fill-opacity="0.5" stroke="#606060" stroke-width=".5" x="0" y="0" width="60" height="60"/>
                <use id="zoomplus" xlink:href="#zoomPlus" x="17" y="9" onmousedown="handleZoom(evt,'in')"/>
                <use id="zoomminus" xlink:href="#zoomMin" x="42" y="9" onmousedown="handleZoom(evt,'out')"/>
                <use id="reset" xlink:href="#resetDef" x="30" y="36" onmousedown="handleReset()"/>
                <g id="arrowUp" xlink:href="#dirArrow" transform="translate(30 24)" onmousedown="handlePan(0,-1)">
                  <use xlink:href="#rim" fill="#404040">
                        <set attributeName="fill" to="#808080" begin="arrowUp.mouseover" end="arrowUp.mouseout"/>
                  </use>
                  <path fill="none" stroke="white" stroke-width="1.5" d="M0,-3.0v7 M-2.5,-0.5L0,-3.0L2.5,-0.5"/>
                </g>
                <g id="arrowRight" xlink:href="#dirArrow" transform="rotate(90) translate(36 -43)" onmousedown="handlePan(1,0)">
                  <use xlink:href="#rim" fill="#404040">
                        <set attributeName="fill" to="#808080" begin="arrowRight.mouseover" end="arrowRight.mouseout"/>
                  </use>
                  <path fill="none" stroke="white" stroke-width="1.5" d="M0,-3.0v7 M-2.5,-0.5L0,-3.0L2.5,-0.5"/>
                </g>
                <g id="arrowDown" xlink:href="#dirArrow" transform="rotate(180) translate(-30 -48)" onmousedown="handlePan(0,1)">
                  <use xlink:href="#rim" fill="#404040">
                        <set attributeName="fill" to="#808080" begin="arrowDown.mouseover" end="arrowDown.mouseout"/>
                  </use>
                  <path fill="none" stroke="white" stroke-width="1.5" d="M0,-3.0v7 M-2.5,-0.5L0,-3.0L2.5,-0.5"/>
                </g>
                <g id="arrowLeft" xlink:href="#dirArrow" transform="rotate(270) translate(-36 17)" onmousedown="handlePan(-1,0)">
                  <use xlink:href="#rim" fill="#404040">
                        <set attributeName="fill" to="#808080" begin="arrowLeft.mouseover" end="arrowLeft.mouseout"/>
                  </use>
                  <path fill="none" stroke="white" stroke-width="1.5" d="M0,-3.0v7 M-2.5,-0.5L0,-3.0L2.5,-0.5"/>
                </g>
        </g>
        <svg viewBox="0 0 15 15" width="100%" height="30px" preserveAspectRatio="xMaxYMin meet">
         <g id="arrow_out" transform="scale(0.3 0.3)">
          <a xlink:href="_sequence_move_patern_8h__dep__incl_org.svg" target="_base">
           <rect id="button" ry="5" rx="5" y="6" x="6" height="38" width="38"
                fill="#f2f5e9" fill-opacity="0.5" stroke="#606060" stroke-width="1.0"/>
           <path id="arrow"
             d="M 11.500037,31.436501 C 11.940474,20.09759 22.043105,11.32322 32.158766,21.979434 L 37.068811,17.246167 C 37.068811,17.246167 37.088388,32 37.088388,32 L 22.160133,31.978069 C 22.160133,31.978069 26.997745,27.140456 26.997745,27.140456 C 18.528582,18.264221 13.291696,25.230495 11.500037,31.436501 z"
             style="fill:#404040;"/>
          </a>
         </g>
        </svg>
</svg>
