<?xml version="1.0" encoding="UTF-8" standalone="no"?>
<!DOCTYPE svg PUBLIC "-//W3C//DTD SVG 1.1//EN"
 "http://www.w3.org/Graphics/SVG/1.1/DTD/svg11.dtd">
<!-- Generated by graphviz version 2.49.3 (20211027.1534)
 -->
<!-- Title: RayLib_SHMUP/include/Shmup/Paterns/APatern.h Pages: 1 -->
<svg width="1582pt" height="329pt"
 viewBox="0.00 0.00 1581.60 329.00" xmlns="http://www.w3.org/2000/svg" xmlns:xlink="http://www.w3.org/1999/xlink">
<g id="graph0" class="graph" transform="scale(1 1) rotate(0) translate(4 325)">
<title>RayLib_SHMUP/include/Shmup/Paterns/APatern.h</title>
<polygon fill="white" stroke="transparent" points="-4,4 -4,-325 1577.6,-325 1577.6,4 -4,4"/>
<!-- Node1 -->
<g id="node1" class="node">
<title>Node1</title>
<g id="a_node1"><a xlink:title=" ">
<polygon fill="#bfbfbf" stroke="black" points="575.6,-290.5 575.6,-320.5 708.6,-320.5 708.6,-290.5 575.6,-290.5"/>
<text text-anchor="start" x="583.6" y="-308.5" font-family="Helvetica,sans-Serif" font-size="10.00">RayLib_SHMUP/include</text>
<text text-anchor="middle" x="642.1" y="-297.5" font-family="Helvetica,sans-Serif" font-size="10.00">/Shmup/Paterns/APatern.h</text>
</a>
</g>
</g>
<!-- Node2 -->
<g id="node2" class="node">
<title>Node2</title>
<g id="a_node2"><a xlink:href="../../de/d15/_shoot_8h.html" target="_top" xlink:title=" ">
<polygon fill="white" stroke="black" points="297.1,-218 297.1,-248 423.1,-248 423.1,-218 297.1,-218"/>
<text text-anchor="start" x="305.1" y="-236" font-family="Helvetica,sans-Serif" font-size="10.00">RayLib_SHMUP/include</text>
<text text-anchor="middle" x="360.1" y="-225" font-family="Helvetica,sans-Serif" font-size="10.00">/Shmup/Movable/Shoot.h</text>
</a>
</g>
</g>
<!-- Node1&#45;&gt;Node2 -->
<g id="edge1" class="edge">
<title>Node1&#45;&gt;Node2</title>
<path fill="none" stroke="midnightblue" d="M571.46,-288.16C530.65,-278.56 478.38,-265.99 432.1,-254 424.94,-252.15 417.4,-250.13 410.01,-248.11"/>
<polygon fill="midnightblue" stroke="midnightblue" points="570.78,-291.6 581.31,-290.47 572.38,-284.78 570.78,-291.6"/>
</g>
<!-- Node10 -->
<g id="node10" class="node">
<title>Node10</title>
<g id="a_node10"><a xlink:href="../../dc/d8f/_a_offsetable_patern_8h.html" target="_top" xlink:title=" ">
<polygon fill="white" stroke="black" points="965.6,-218 965.6,-248 1142.6,-248 1142.6,-218 965.6,-218"/>
<text text-anchor="start" x="973.6" y="-236" font-family="Helvetica,sans-Serif" font-size="10.00">RayLib_SHMUP/include</text>
<text text-anchor="middle" x="1054.1" y="-225" font-family="Helvetica,sans-Serif" font-size="10.00">/Shmup/Paterns/AOffsetablePatern.h</text>
</a>
</g>
</g>
<!-- Node1&#45;&gt;Node10 -->
<g id="edge10" class="edge">
<title>Node1&#45;&gt;Node10</title>
<path fill="none" stroke="midnightblue" d="M718.67,-291.4C790.68,-279.08 898.15,-260.69 971.93,-248.06"/>
<polygon fill="midnightblue" stroke="midnightblue" points="718.02,-287.96 708.76,-293.09 719.2,-294.86 718.02,-287.96"/>
</g>
<!-- Node23 -->
<g id="node23" class="node">
<title>Node23</title>
<g id="a_node23"><a xlink:href="../../d3/dff/_patern_linear_8h.html" target="_top" xlink:title=" ">
<polygon fill="white" stroke="black" points="441.1,-212.5 441.1,-253.5 563.1,-253.5 563.1,-212.5 441.1,-212.5"/>
<text text-anchor="start" x="449.1" y="-241.5" font-family="Helvetica,sans-Serif" font-size="10.00">RayLib_SHMUP/include</text>
<text text-anchor="start" x="449.1" y="-230.5" font-family="Helvetica,sans-Serif" font-size="10.00">/Shmup/Paterns/Shoot</text>
<text text-anchor="middle" x="502.1" y="-219.5" font-family="Helvetica,sans-Serif" font-size="10.00">/PaternLinear.h</text>
</a>
</g>
</g>
<!-- Node1&#45;&gt;Node23 -->
<g id="edge28" class="edge">
<title>Node1&#45;&gt;Node23</title>
<path fill="none" stroke="midnightblue" d="M605.09,-285.86C585.31,-275.9 560.97,-263.64 540.92,-253.55"/>
<polygon fill="midnightblue" stroke="midnightblue" points="603.6,-289.03 614.11,-290.4 606.75,-282.78 603.6,-289.03"/>
</g>
<!-- Node24 -->
<g id="node24" class="node">
<title>Node24</title>
<g id="a_node24"><a xlink:href="../../d2/dff/_patern_rotate_8h.html" target="_top" xlink:title=" ">
<polygon fill="white" stroke="black" points="581.1,-212.5 581.1,-253.5 703.1,-253.5 703.1,-212.5 581.1,-212.5"/>
<text text-anchor="start" x="589.1" y="-241.5" font-family="Helvetica,sans-Serif" font-size="10.00">RayLib_SHMUP/include</text>
<text text-anchor="start" x="589.1" y="-230.5" font-family="Helvetica,sans-Serif" font-size="10.00">/Shmup/Paterns/Shoot</text>
<text text-anchor="middle" x="642.1" y="-219.5" font-family="Helvetica,sans-Serif" font-size="10.00">/PaternRotate.h</text>
</a>
</g>
</g>
<!-- Node1&#45;&gt;Node24 -->
<g id="edge31" class="edge">
<title>Node1&#45;&gt;Node24</title>
<path fill="none" stroke="midnightblue" d="M642.1,-279.98C642.1,-271.35 642.1,-261.76 642.1,-253.59"/>
<polygon fill="midnightblue" stroke="midnightblue" points="638.6,-280.23 642.1,-290.23 645.6,-280.23 638.6,-280.23"/>
</g>
<!-- Node25 -->
<g id="node25" class="node">
<title>Node25</title>
<g id="a_node25"><a xlink:href="../../df/db3/_patern_v_spread_8h.html" target="_top" xlink:title=" ">
<polygon fill="white" stroke="black" points="721.1,-212.5 721.1,-253.5 843.1,-253.5 843.1,-212.5 721.1,-212.5"/>
<text text-anchor="start" x="729.1" y="-241.5" font-family="Helvetica,sans-Serif" font-size="10.00">RayLib_SHMUP/include</text>
<text text-anchor="start" x="729.1" y="-230.5" font-family="Helvetica,sans-Serif" font-size="10.00">/Shmup/Paterns/Shoot</text>
<text text-anchor="middle" x="782.1" y="-219.5" font-family="Helvetica,sans-Serif" font-size="10.00">/PaternVSpread.h</text>
</a>
</g>
</g>
<!-- Node1&#45;&gt;Node25 -->
<g id="edge34" class="edge">
<title>Node1&#45;&gt;Node25</title>
<path fill="none" stroke="midnightblue" d="M679.12,-285.86C698.9,-275.9 723.24,-263.64 743.29,-253.55"/>
<polygon fill="midnightblue" stroke="midnightblue" points="677.46,-282.78 670.1,-290.4 680.6,-289.03 677.46,-282.78"/>
</g>
<!-- Node3 -->
<g id="node3" class="node">
<title>Node3</title>
<g id="a_node3"><a xlink:href="../../d1/d39/_player_8h.html" target="_top" xlink:title=" ">
<polygon fill="white" stroke="black" points="718.1,-140 718.1,-170 846.1,-170 846.1,-140 718.1,-140"/>
<text text-anchor="start" x="726.1" y="-158" font-family="Helvetica,sans-Serif" font-size="10.00">RayLib_SHMUP/include</text>
<text text-anchor="middle" x="782.1" y="-147" font-family="Helvetica,sans-Serif" font-size="10.00">/Shmup/Movable/Player.h</text>
</a>
</g>
</g>
<!-- Node2&#45;&gt;Node3 -->
<g id="edge2" class="edge">
<title>Node2&#45;&gt;Node3</title>
<path fill="none" stroke="midnightblue" d="M416.91,-215.42C422.03,-214.17 427.14,-213.01 432.1,-212 553.34,-187.38 586.79,-200.19 708.1,-176 716.46,-174.33 725.26,-172.25 733.76,-170.06"/>
<polygon fill="midnightblue" stroke="midnightblue" points="415.95,-212.05 407.12,-217.91 417.68,-218.84 415.95,-212.05"/>
</g>
<!-- Node5 -->
<g id="node5" class="node">
<title>Node5</title>
<g id="a_node5"><a xlink:href="../../d2/d82/_player_8cpp.html" target="_top" xlink:title=" ">
<polygon fill="white" stroke="black" points="267.6,-67.5 267.6,-97.5 406.6,-97.5 406.6,-67.5 267.6,-67.5"/>
<text text-anchor="start" x="275.6" y="-85.5" font-family="Helvetica,sans-Serif" font-size="10.00">RayLib_SHMUP/src/Shmup</text>
<text text-anchor="middle" x="337.1" y="-74.5" font-family="Helvetica,sans-Serif" font-size="10.00">/Movable/Player.cpp</text>
</a>
</g>
</g>
<!-- Node2&#45;&gt;Node5 -->
<g id="edge5" class="edge">
<title>Node2&#45;&gt;Node5</title>
<path fill="none" stroke="midnightblue" d="M286.97,-231.05C194.79,-228.13 44.09,-217.01 9.1,-176 -3.01,-161.8 -3.05,-148.17 9.1,-134 41.69,-96.01 181.14,-86.33 267.38,-84.02"/>
<polygon fill="midnightblue" stroke="midnightblue" points="286.99,-234.55 297.08,-231.35 287.19,-227.56 286.99,-234.55"/>
</g>
<!-- Node6 -->
<g id="node6" class="node">
<title>Node6</title>
<g id="a_node6"><a xlink:href="../../d6/dae/_shoot_8cpp.html" target="_top" xlink:title=" ">
<polygon fill="white" stroke="black" points="18.6,-140 18.6,-170 157.6,-170 157.6,-140 18.6,-140"/>
<text text-anchor="start" x="26.6" y="-158" font-family="Helvetica,sans-Serif" font-size="10.00">RayLib_SHMUP/src/Shmup</text>
<text text-anchor="middle" x="88.1" y="-147" font-family="Helvetica,sans-Serif" font-size="10.00">/Movable/Shoot.cpp</text>
</a>
</g>
</g>
<!-- Node2&#45;&gt;Node6 -->
<g id="edge6" class="edge">
<title>Node2&#45;&gt;Node6</title>
<path fill="none" stroke="midnightblue" d="M300.16,-215.25C251.68,-201.71 184.2,-182.85 138.48,-170.07"/>
<polygon fill="midnightblue" stroke="midnightblue" points="299.32,-218.65 309.9,-217.97 301.21,-211.91 299.32,-218.65"/>
</g>
<!-- Node7 -->
<g id="node7" class="node">
<title>Node7</title>
<g id="a_node7"><a xlink:href="../../dc/dac/_patern_linear_8cpp.html" target="_top" xlink:title=" ">
<polygon fill="white" stroke="black" points="176.1,-140 176.1,-170 334.1,-170 334.1,-140 176.1,-140"/>
<text text-anchor="start" x="184.1" y="-158" font-family="Helvetica,sans-Serif" font-size="10.00">RayLib_SHMUP/src/Shmup</text>
<text text-anchor="middle" x="255.1" y="-147" font-family="Helvetica,sans-Serif" font-size="10.00">/Paterns/Shoot/PaternLinear.cpp</text>
</a>
</g>
</g>
<!-- Node2&#45;&gt;Node7 -->
<g id="edge7" class="edge">
<title>Node2&#45;&gt;Node7</title>
<path fill="none" stroke="midnightblue" d="M331.93,-211.61C313.87,-198.54 290.87,-181.89 274.76,-170.23"/>
<polygon fill="midnightblue" stroke="midnightblue" points="330.2,-214.68 340.35,-217.7 334.3,-209.01 330.2,-214.68"/>
</g>
<!-- Node8 -->
<g id="node8" class="node">
<title>Node8</title>
<g id="a_node8"><a xlink:href="../../d8/d91/_patern_rotate_8cpp.html" target="_top" xlink:title=" ">
<polygon fill="white" stroke="black" points="352.1,-140 352.1,-170 512.1,-170 512.1,-140 352.1,-140"/>
<text text-anchor="start" x="360.1" y="-158" font-family="Helvetica,sans-Serif" font-size="10.00">RayLib_SHMUP/src/Shmup</text>
<text text-anchor="middle" x="432.1" y="-147" font-family="Helvetica,sans-Serif" font-size="10.00">/Paterns/Shoot/PaternRotate.cpp</text>
</a>
</g>
</g>
<!-- Node2&#45;&gt;Node8 -->
<g id="edge8" class="edge">
<title>Node2&#45;&gt;Node8</title>
<path fill="none" stroke="midnightblue" d="M380.78,-210.17C392.95,-197.33 407.98,-181.47 418.62,-170.23"/>
<polygon fill="midnightblue" stroke="midnightblue" points="377.98,-208.04 373.65,-217.7 383.06,-212.85 377.98,-208.04"/>
</g>
<!-- Node9 -->
<g id="node9" class="node">
<title>Node9</title>
<g id="a_node9"><a xlink:href="../../db/db4/_patern_v_spread_8cpp.html" target="_top" xlink:title=" ">
<polygon fill="white" stroke="black" points="530.6,-140 530.6,-170 699.6,-170 699.6,-140 530.6,-140"/>
<text text-anchor="start" x="538.6" y="-158" font-family="Helvetica,sans-Serif" font-size="10.00">RayLib_SHMUP/src/Shmup</text>
<text text-anchor="middle" x="615.1" y="-147" font-family="Helvetica,sans-Serif" font-size="10.00">/Paterns/Shoot/PaternVSpread.cpp</text>
</a>
</g>
</g>
<!-- Node2&#45;&gt;Node9 -->
<g id="edge9" class="edge">
<title>Node2&#45;&gt;Node9</title>
<path fill="none" stroke="midnightblue" d="M416.87,-215.08C462.28,-201.55 525.19,-182.8 567.88,-170.07"/>
<polygon fill="midnightblue" stroke="midnightblue" points="415.75,-211.76 407.17,-217.97 417.75,-218.47 415.75,-211.76"/>
</g>
<!-- Node4 -->
<g id="node4" class="node">
<title>Node4</title>
<g id="a_node4"><a xlink:href="../../d2/d2e/_game_manager_8cpp.html" target="_top" xlink:title=" ">
<polygon fill="white" stroke="black" points="708.6,-0.5 708.6,-30.5 847.6,-30.5 847.6,-0.5 708.6,-0.5"/>
<text text-anchor="start" x="716.6" y="-18.5" font-family="Helvetica,sans-Serif" font-size="10.00">RayLib_SHMUP/src/Shmup</text>
<text text-anchor="middle" x="778.1" y="-7.5" font-family="Helvetica,sans-Serif" font-size="10.00">/GameManager.cpp</text>
</a>
</g>
</g>
<!-- Node3&#45;&gt;Node4 -->
<g id="edge3" class="edge">
<title>Node3&#45;&gt;Node4</title>
<path fill="none" stroke="midnightblue" d="M764.6,-131.55C758.07,-121.8 751.44,-109.91 748.1,-98 744.39,-84.73 744.45,-80.29 748.1,-67 751.78,-53.63 760.01,-40.21 766.93,-30.57"/>
<polygon fill="midnightblue" stroke="midnightblue" points="761.83,-133.69 770.47,-139.83 767.54,-129.65 761.83,-133.69"/>
</g>
<!-- Node3&#45;&gt;Node5 -->
<g id="edge4" class="edge">
<title>Node3&#45;&gt;Node5</title>
<path fill="none" stroke="midnightblue" d="M723.7,-137.47C718.44,-136.21 713.19,-135.03 708.1,-134 603.93,-112.92 481.49,-98.17 406.61,-90.26"/>
<polygon fill="midnightblue" stroke="midnightblue" points="723.2,-140.95 733.75,-139.98 724.9,-134.16 723.2,-140.95"/>
</g>
<!-- Node11 -->
<g id="node11" class="node">
<title>Node11</title>
<g id="a_node11"><a xlink:href="../../d1/d98/_sequence_move_patern_8h.html" target="_top" xlink:title=" ">
<polygon fill="white" stroke="black" points="992.6,-134.5 992.6,-175.5 1115.6,-175.5 1115.6,-134.5 992.6,-134.5"/>
<text text-anchor="start" x="1000.6" y="-163.5" font-family="Helvetica,sans-Serif" font-size="10.00">RayLib_SHMUP/include</text>
<text text-anchor="start" x="1000.6" y="-152.5" font-family="Helvetica,sans-Serif" font-size="10.00">/Shmup/Paterns/Enemy</text>
<text text-anchor="middle" x="1054.1" y="-141.5" font-family="Helvetica,sans-Serif" font-size="10.00">/SequenceMovePatern.h</text>
</a>
</g>
</g>
<!-- Node10&#45;&gt;Node11 -->
<g id="edge11" class="edge">
<title>Node10&#45;&gt;Node11</title>
<path fill="none" stroke="midnightblue" d="M1054.1,-207.66C1054.1,-197.33 1054.1,-185.44 1054.1,-175.68"/>
<polygon fill="midnightblue" stroke="midnightblue" points="1050.6,-207.7 1054.1,-217.7 1057.6,-207.71 1050.6,-207.7"/>
</g>
<!-- Node22 -->
<g id="node22" class="node">
<title>Node22</title>
<g id="a_node22"><a xlink:href="../../d6/da4/_a_offsetable_patern_8cpp.html" target="_top" xlink:title=" ">
<polygon fill="white" stroke="black" points="1134.1,-140 1134.1,-170 1288.1,-170 1288.1,-140 1134.1,-140"/>
<text text-anchor="start" x="1142.1" y="-158" font-family="Helvetica,sans-Serif" font-size="10.00">RayLib_SHMUP/src/Shmup</text>
<text text-anchor="middle" x="1211.1" y="-147" font-family="Helvetica,sans-Serif" font-size="10.00">/Paterns/AOffsetablePatern.cpp</text>
</a>
</g>
</g>
<!-- Node10&#45;&gt;Node22 -->
<g id="edge27" class="edge">
<title>Node10&#45;&gt;Node22</title>
<path fill="none" stroke="midnightblue" d="M1092.27,-213.52C1119.95,-200.13 1156.81,-182.28 1182.1,-170.04"/>
<polygon fill="midnightblue" stroke="midnightblue" points="1090.74,-210.38 1083.27,-217.88 1093.79,-216.68 1090.74,-210.38"/>
</g>
<!-- Node12 -->
<g id="node12" class="node">
<title>Node12</title>
<g id="a_node12"><a xlink:href="../../de/d40/_parser_8h.html" target="_top" xlink:title=" ">
<polygon fill="white" stroke="black" points="1045.1,-67.5 1045.1,-97.5 1167.1,-97.5 1167.1,-67.5 1045.1,-67.5"/>
<text text-anchor="start" x="1053.1" y="-85.5" font-family="Helvetica,sans-Serif" font-size="10.00">RayLib_SHMUP/include</text>
<text text-anchor="middle" x="1106.1" y="-74.5" font-family="Helvetica,sans-Serif" font-size="10.00">/Namespaces/Parser.h</text>
</a>
</g>
</g>
<!-- Node11&#45;&gt;Node12 -->
<g id="edge12" class="edge">
<title>Node11&#45;&gt;Node12</title>
<path fill="none" stroke="midnightblue" d="M1074.65,-126.14C1081.78,-116.47 1089.49,-106.02 1095.49,-97.89"/>
<polygon fill="midnightblue" stroke="midnightblue" points="1071.71,-124.24 1068.59,-134.36 1077.34,-128.39 1071.71,-124.24"/>
</g>
<!-- Node16 -->
<g id="node16" class="node">
<title>Node16</title>
<g id="a_node16"><a xlink:href="../../d3/d22/_patern_computer_8h.html" target="_top" xlink:title=" ">
<polygon fill="white" stroke="black" points="1198.1,-67.5 1198.1,-97.5 1352.1,-97.5 1352.1,-67.5 1198.1,-67.5"/>
<text text-anchor="start" x="1206.1" y="-85.5" font-family="Helvetica,sans-Serif" font-size="10.00">RayLib_SHMUP/include</text>
<text text-anchor="middle" x="1275.1" y="-74.5" font-family="Helvetica,sans-Serif" font-size="10.00">/PaternEditor/PaternComputer.h</text>
</a>
</g>
</g>
<!-- Node11&#45;&gt;Node16 -->
<g id="edge16" class="edge">
<title>Node11&#45;&gt;Node16</title>
<path fill="none" stroke="midnightblue" d="M1125.01,-131.38C1159.8,-120.28 1200.63,-107.26 1230.91,-97.6"/>
<polygon fill="midnightblue" stroke="midnightblue" points="1123.83,-128.08 1115.37,-134.46 1125.96,-134.75 1123.83,-128.08"/>
</g>
<!-- Node18 -->
<g id="node18" class="node">
<title>Node18</title>
<g id="a_node18"><a xlink:href="../../d2/dc9/_level_manager_8h.html" target="_top" xlink:title=" ">
<polygon fill="white" stroke="black" points="905.1,-67.5 905.1,-97.5 1027.1,-97.5 1027.1,-67.5 905.1,-67.5"/>
<text text-anchor="start" x="913.1" y="-85.5" font-family="Helvetica,sans-Serif" font-size="10.00">RayLib_SHMUP/include</text>
<text text-anchor="middle" x="966.1" y="-74.5" font-family="Helvetica,sans-Serif" font-size="10.00">/Shmup/LevelManager.h</text>
</a>
</g>
</g>
<!-- Node11&#45;&gt;Node18 -->
<g id="edge19" class="edge">
<title>Node11&#45;&gt;Node18</title>
<path fill="none" stroke="midnightblue" d="M1021.45,-127.84C1008.7,-117.62 994.58,-106.31 983.79,-97.67"/>
<polygon fill="midnightblue" stroke="midnightblue" points="1019.6,-130.84 1029.59,-134.36 1023.97,-125.38 1019.6,-130.84"/>
</g>
<!-- Node19 -->
<g id="node19" class="node">
<title>Node19</title>
<g id="a_node19"><a xlink:href="../../d4/d1e/_enemy_8h.html" target="_top" xlink:title=" ">
<polygon fill="white" stroke="black" points="757.1,-67.5 757.1,-97.5 887.1,-97.5 887.1,-67.5 757.1,-67.5"/>
<text text-anchor="start" x="765.1" y="-85.5" font-family="Helvetica,sans-Serif" font-size="10.00">RayLib_SHMUP/include</text>
<text text-anchor="middle" x="822.1" y="-74.5" font-family="Helvetica,sans-Serif" font-size="10.00">/Shmup/Movable/Enemy.h</text>
</a>
</g>
</g>
<!-- Node11&#45;&gt;Node19 -->
<g id="edge22" class="edge">
<title>Node11&#45;&gt;Node19</title>
<path fill="none" stroke="midnightblue" d="M982.76,-132.32C945.58,-121.02 901.18,-107.53 868.49,-97.6"/>
<polygon fill="midnightblue" stroke="midnightblue" points="981.95,-135.73 992.54,-135.29 983.99,-129.04 981.95,-135.73"/>
</g>
<!-- Node21 -->
<g id="node21" class="node">
<title>Node21</title>
<g id="a_node21"><a xlink:href="../../df/d32/_sequence_move_patern_8cpp.html" target="_top" xlink:title=" ">
<polygon fill="white" stroke="black" points="1370.6,-67.5 1370.6,-97.5 1573.6,-97.5 1573.6,-67.5 1370.6,-67.5"/>
<text text-anchor="start" x="1378.6" y="-85.5" font-family="Helvetica,sans-Serif" font-size="10.00">RayLib_SHMUP/src/Shmup</text>
<text text-anchor="middle" x="1472.1" y="-74.5" font-family="Helvetica,sans-Serif" font-size="10.00">/Paterns/Enemy/SequenceMovePatern.cpp</text>
</a>
</g>
</g>
<!-- Node11&#45;&gt;Node21 -->
<g id="edge26" class="edge">
<title>Node11&#45;&gt;Node21</title>
<path fill="none" stroke="midnightblue" d="M1125.79,-134.03C1183.49,-122.52 1290.15,-107.57 1370.49,-96.8"/>
<polygon fill="midnightblue" stroke="midnightblue" points="1125.03,-130.62 1115.94,-136.07 1126.44,-137.47 1125.03,-130.62"/>
</g>
<!-- Node13 -->
<g id="node13" class="node">
<title>Node13</title>
<g id="a_node13"><a xlink:href="../../de/df6/_parser_8cpp.html" target="_top" xlink:title=" ">
<polygon fill="white" stroke="black" points="1023.1,-0.5 1023.1,-30.5 1189.1,-30.5 1189.1,-0.5 1023.1,-0.5"/>
<text text-anchor="start" x="1031.1" y="-18.5" font-family="Helvetica,sans-Serif" font-size="10.00">RayLib_SHMUP/src/Namespaces</text>
<text text-anchor="middle" x="1106.1" y="-7.5" font-family="Helvetica,sans-Serif" font-size="10.00">/Parser.cpp</text>
</a>
</g>
</g>
<!-- Node12&#45;&gt;Node13 -->
<g id="edge13" class="edge">
<title>Node12&#45;&gt;Node13</title>
<path fill="none" stroke="midnightblue" d="M1106.1,-57.11C1106.1,-48.15 1106.1,-38.32 1106.1,-30.58"/>
<polygon fill="midnightblue" stroke="midnightblue" points="1102.6,-57.4 1106.1,-67.4 1109.6,-57.4 1102.6,-57.4"/>
</g>
<!-- Node14 -->
<g id="node14" class="node">
<title>Node14</title>
<g id="a_node14"><a xlink:href="../../d5/d58/_patern_editor_main_8cpp.html" target="_top" xlink:title=" ">
<polygon fill="white" stroke="black" points="1207.6,-0.5 1207.6,-30.5 1368.6,-30.5 1368.6,-0.5 1207.6,-0.5"/>
<text text-anchor="start" x="1215.6" y="-18.5" font-family="Helvetica,sans-Serif" font-size="10.00">RayLib_SHMUP/src/PaternEditor</text>
<text text-anchor="middle" x="1288.1" y="-7.5" font-family="Helvetica,sans-Serif" font-size="10.00">Main.cpp</text>
</a>
</g>
</g>
<!-- Node12&#45;&gt;Node14 -->
<g id="edge14" class="edge">
<title>Node12&#45;&gt;Node14</title>
<path fill="none" stroke="midnightblue" d="M1155.23,-63.96C1184.55,-53.48 1221.28,-40.37 1248.69,-30.58"/>
<polygon fill="midnightblue" stroke="midnightblue" points="1153.83,-60.74 1145.59,-67.4 1156.19,-67.33 1153.83,-60.74"/>
</g>
<!-- Node15 -->
<g id="node15" class="node">
<title>Node15</title>
<g id="a_node15"><a xlink:href="../../df/dd2/_level_manager_8cpp.html" target="_top" xlink:title=" ">
<polygon fill="white" stroke="black" points="865.6,-0.5 865.6,-30.5 1004.6,-30.5 1004.6,-0.5 865.6,-0.5"/>
<text text-anchor="start" x="873.6" y="-18.5" font-family="Helvetica,sans-Serif" font-size="10.00">RayLib_SHMUP/src/Shmup</text>
<text text-anchor="middle" x="935.1" y="-7.5" font-family="Helvetica,sans-Serif" font-size="10.00">/LevelManager.cpp</text>
</a>
</g>
</g>
<!-- Node12&#45;&gt;Node15 -->
<g id="edge15" class="edge">
<title>Node12&#45;&gt;Node15</title>
<path fill="none" stroke="midnightblue" d="M1059.59,-63.82C1032.1,-53.37 997.78,-40.32 972.14,-30.58"/>
<polygon fill="midnightblue" stroke="midnightblue" points="1058.41,-67.11 1069,-67.4 1060.89,-60.57 1058.41,-67.11"/>
</g>
<!-- Node16&#45;&gt;Node14 -->
<g id="edge18" class="edge">
<title>Node16&#45;&gt;Node14</title>
<path fill="none" stroke="midnightblue" d="M1279.92,-57.4C1281.73,-48.37 1283.72,-38.41 1285.29,-30.58"/>
<polygon fill="midnightblue" stroke="midnightblue" points="1276.45,-56.9 1277.92,-67.4 1283.32,-58.28 1276.45,-56.9"/>
</g>
<!-- Node17 -->
<g id="node17" class="node">
<title>Node17</title>
<g id="a_node17"><a xlink:href="../../d3/d32/_patern_computer_8cpp.html" target="_top" xlink:title=" ">
<polygon fill="white" stroke="black" points="1386.6,-0.5 1386.6,-30.5 1547.6,-30.5 1547.6,-0.5 1386.6,-0.5"/>
<text text-anchor="start" x="1394.6" y="-18.5" font-family="Helvetica,sans-Serif" font-size="10.00">RayLib_SHMUP/src/PaternEditor</text>
<text text-anchor="middle" x="1467.1" y="-7.5" font-family="Helvetica,sans-Serif" font-size="10.00">/PaternComputer.cpp</text>
</a>
</g>
</g>
<!-- Node16&#45;&gt;Node17 -->
<g id="edge17" class="edge">
<title>Node16&#45;&gt;Node17</title>
<path fill="none" stroke="midnightblue" d="M1326.52,-64.09C1357.52,-53.6 1396.48,-40.41 1425.52,-30.58"/>
<polygon fill="midnightblue" stroke="midnightblue" points="1325.11,-60.87 1316.76,-67.4 1327.36,-67.5 1325.11,-60.87"/>
</g>
<!-- Node18&#45;&gt;Node4 -->
<g id="edge20" class="edge">
<title>Node18&#45;&gt;Node4</title>
<path fill="none" stroke="midnightblue" d="M915.75,-64.09C885.4,-53.6 847.25,-40.41 818.82,-30.58"/>
<polygon fill="midnightblue" stroke="midnightblue" points="914.72,-67.44 925.31,-67.4 917,-60.82 914.72,-67.44"/>
</g>
<!-- Node18&#45;&gt;Node15 -->
<g id="edge21" class="edge">
<title>Node18&#45;&gt;Node15</title>
<path fill="none" stroke="midnightblue" d="M955.03,-58.28C950.61,-49.02 945.67,-38.66 941.82,-30.58"/>
<polygon fill="midnightblue" stroke="midnightblue" points="951.91,-59.88 959.38,-67.4 958.23,-56.86 951.91,-59.88"/>
</g>
<!-- Node19&#45;&gt;Node4 -->
<g id="edge23" class="edge">
<title>Node19&#45;&gt;Node4</title>
<path fill="none" stroke="midnightblue" d="M806.78,-58.87C800.41,-49.46 793.22,-38.83 787.63,-30.58"/>
<polygon fill="midnightblue" stroke="midnightblue" points="804.05,-61.08 812.56,-67.4 809.85,-57.15 804.05,-61.08"/>
</g>
<!-- Node19&#45;&gt;Node15 -->
<g id="edge24" class="edge">
<title>Node19&#45;&gt;Node15</title>
<path fill="none" stroke="midnightblue" d="M855.49,-62.3C873.17,-52.12 894.5,-39.85 910.63,-30.58"/>
<polygon fill="midnightblue" stroke="midnightblue" points="853.55,-59.38 846.62,-67.4 857.04,-65.44 853.55,-59.38"/>
</g>
<!-- Node20 -->
<g id="node20" class="node">
<title>Node20</title>
<g id="a_node20"><a xlink:href="../../de/d34/_enemy_8cpp.html" target="_top" xlink:title=" ">
<polygon fill="white" stroke="black" points="551.6,-0.5 551.6,-30.5 690.6,-30.5 690.6,-0.5 551.6,-0.5"/>
<text text-anchor="start" x="559.6" y="-18.5" font-family="Helvetica,sans-Serif" font-size="10.00">RayLib_SHMUP/src/Shmup</text>
<text text-anchor="middle" x="621.1" y="-7.5" font-family="Helvetica,sans-Serif" font-size="10.00">/Movable/Enemy.cpp</text>
</a>
</g>
</g>
<!-- Node19&#45;&gt;Node20 -->
<g id="edge25" class="edge">
<title>Node19&#45;&gt;Node20</title>
<path fill="none" stroke="midnightblue" d="M768.69,-64.23C736.18,-53.71 695.17,-40.45 664.63,-30.58"/>
<polygon fill="midnightblue" stroke="midnightblue" points="767.9,-67.65 778.49,-67.4 770.05,-60.99 767.9,-67.65"/>
</g>
<!-- Node23&#45;&gt;Node3 -->
<g id="edge29" class="edge">
<title>Node23&#45;&gt;Node3</title>
<path fill="none" stroke="midnightblue" d="M572.93,-211.79C633.99,-195.06 650.65,-191.37 708.1,-176 715.3,-174.07 722.89,-172.03 730.36,-170.02"/>
<polygon fill="midnightblue" stroke="midnightblue" points="571.88,-208.45 563.17,-214.48 573.74,-215.2 571.88,-208.45"/>
</g>
<!-- Node23&#45;&gt;Node7 -->
<g id="edge30" class="edge">
<title>Node23&#45;&gt;Node7</title>
<path fill="none" stroke="midnightblue" d="M431.42,-210.25C389.41,-197.33 337.36,-181.31 300.73,-170.04"/>
<polygon fill="midnightblue" stroke="midnightblue" points="430.46,-213.62 441.05,-213.21 432.52,-206.93 430.46,-213.62"/>
</g>
<!-- Node24&#45;&gt;Node3 -->
<g id="edge32" class="edge">
<title>Node24&#45;&gt;Node3</title>
<path fill="none" stroke="midnightblue" d="M686.97,-207.64C709.72,-195.3 736.54,-180.73 755.9,-170.23"/>
<polygon fill="midnightblue" stroke="midnightblue" points="685.28,-204.58 678.16,-212.43 688.62,-210.73 685.28,-204.58"/>
</g>
<!-- Node24&#45;&gt;Node8 -->
<g id="edge33" class="edge">
<title>Node24&#45;&gt;Node8</title>
<path fill="none" stroke="midnightblue" d="M578.37,-208.93C543.39,-196.28 501.16,-180.99 471.08,-170.11"/>
<polygon fill="midnightblue" stroke="midnightblue" points="577.43,-212.32 588.02,-212.43 579.81,-205.73 577.43,-212.32"/>
</g>
<!-- Node25&#45;&gt;Node3 -->
<g id="edge35" class="edge">
<title>Node25&#45;&gt;Node3</title>
<path fill="none" stroke="midnightblue" d="M782.1,-202.28C782.1,-191.25 782.1,-179.25 782.1,-170.23"/>
<polygon fill="midnightblue" stroke="midnightblue" points="778.6,-202.43 782.1,-212.43 785.6,-202.43 778.6,-202.43"/>
</g>
<!-- Node25&#45;&gt;Node9 -->
<g id="edge36" class="edge">
<title>Node25&#45;&gt;Node9</title>
<path fill="none" stroke="midnightblue" d="M729.99,-208.28C702.46,-195.76 669.61,-180.81 646.1,-170.11"/>
<polygon fill="midnightblue" stroke="midnightblue" points="728.54,-211.47 739.1,-212.43 731.44,-205.1 728.54,-211.47"/>
</g>
</g>
</svg>
