<?xml version="1.0" encoding="UTF-8" standalone="no"?>
<!DOCTYPE svg PUBLIC "-//W3C//DTD SVG 1.1//EN"
 "http://www.w3.org/Graphics/SVG/1.1/DTD/svg11.dtd">
<!-- Generated by graphviz version 2.49.3 (20211027.1534)
 -->
<!-- Title: RayLib_SHMUP/include/Shmup/Paterns Pages: 1 -->
<svg width="254pt" height="111pt"
 viewBox="0.00 0.00 254.00 111.00" xmlns="http://www.w3.org/2000/svg" xmlns:xlink="http://www.w3.org/1999/xlink">
<g id="graph0" class="graph" transform="scale(1 1) rotate(0) translate(4 107)">
<title>RayLib_SHMUP/include/Shmup/Paterns</title>
<polygon fill="white" stroke="transparent" points="-4,4 -4,-107 250,-107 250,4 -4,4"/>
<g id="clust1" class="cluster">
<title>clusterdir_09d4a11ae416202bec2d16e76061476b</title>
<g id="a_clust1"><a xlink:href="dir_09d4a11ae416202bec2d16e76061476b.html" target="_top" xlink:title="Shmup">
<polygon fill="#ddddee" stroke="black" points="8,-8 8,-95 238,-95 238,-8 8,-8"/>
<text text-anchor="middle" x="123" y="-83" font-family="Helvetica,sans-Serif" font-size="10.00">Shmup</text>
</a>
</g>
</g>
<g id="clust2" class="cluster">
<title>clusterdir_9a4e62b913a6c0c2c097aab851768fc2</title>
<g id="a_clust2"><a xlink:href="dir_9a4e62b913a6c0c2c097aab851768fc2.html" target="_top">
<polygon fill="#eeeeff" stroke="black" points="16,-16 16,-68 230,-68 230,-16 16,-16"/>
</a>
</g>
</g>
<!-- dir_9a4e62b913a6c0c2c097aab851768fc2 -->
<g id="node1" class="node">
<title>dir_9a4e62b913a6c0c2c097aab851768fc2</title>
<text text-anchor="middle" x="195" y="-39.5" font-family="Helvetica,sans-Serif" font-size="10.00">Paterns</text>
</g>
<!-- dir_32065b657e06bfa08d3b7f00d6104ee8 -->
<g id="node2" class="node">
<title>dir_32065b657e06bfa08d3b7f00d6104ee8</title>
<g id="a_node2"><a xlink:href="dir_32065b657e06bfa08d3b7f00d6104ee8.html" target="_top" xlink:title="Enemy">
<polygon fill="white" stroke="black" points="150,-60 96,-60 96,-24 150,-24 150,-60"/>
<text text-anchor="middle" x="123" y="-39.5" font-family="Helvetica,sans-Serif" font-size="10.00">Enemy</text>
</a>
</g>
</g>
<!-- dir_c5a32f37a2273c03b440cb8761d792a0 -->
<g id="node3" class="node">
<title>dir_c5a32f37a2273c03b440cb8761d792a0</title>
<g id="a_node3"><a xlink:href="dir_c5a32f37a2273c03b440cb8761d792a0.html" target="_top" xlink:title="Shoot">
<polygon fill="white" stroke="black" points="78,-60 24,-60 24,-24 78,-24 78,-60"/>
<text text-anchor="middle" x="51" y="-39.5" font-family="Helvetica,sans-Serif" font-size="10.00">Shoot</text>
</a>
</g>
</g>
</g>
</svg>
