<?xml version="1.0" encoding="UTF-8" standalone="no"?>
<!DOCTYPE svg PUBLIC "-//W3C//DTD SVG 1.1//EN"
 "http://www.w3.org/Graphics/SVG/1.1/DTD/svg11.dtd">
<!-- Generated by graphviz version 2.49.3 (20211027.1534)
 -->
<!-- Title: RayLib_SHMUP/include/Shmup Pages: 1 -->
<svg width="182pt" height="183pt"
 viewBox="0.00 0.00 182.00 183.00" xmlns="http://www.w3.org/2000/svg" xmlns:xlink="http://www.w3.org/1999/xlink">
<g id="graph0" class="graph" transform="scale(1 1) rotate(0) translate(4 179)">
<title>RayLib_SHMUP/include/Shmup</title>
<polygon fill="white" stroke="transparent" points="-4,4 -4,-179 178,-179 178,4 -4,4"/>
<g id="clust1" class="cluster">
<title>clusterdir_acb1494d7ee7f7edd706a5923bc36e94</title>
<g id="a_clust1"><a xlink:href="dir_acb1494d7ee7f7edd706a5923bc36e94.html" target="_top" xlink:title="include">
<polygon fill="#ddddee" stroke="black" points="8,-8 8,-167 166,-167 166,-8 8,-8"/>
<text text-anchor="middle" x="87" y="-155" font-family="Helvetica,sans-Serif" font-size="10.00">include</text>
</a>
</g>
</g>
<g id="clust2" class="cluster">
<title>clusterdir_09d4a11ae416202bec2d16e76061476b</title>
<g id="a_clust2"><a xlink:href="dir_09d4a11ae416202bec2d16e76061476b.html" target="_top">
<polygon fill="#eeeeff" stroke="black" points="16,-16 16,-140 158,-140 158,-16 16,-16"/>
</a>
</g>
</g>
<!-- dir_09d4a11ae416202bec2d16e76061476b -->
<g id="node1" class="node">
<title>dir_09d4a11ae416202bec2d16e76061476b</title>
<text text-anchor="middle" x="123" y="-111.5" font-family="Helvetica,sans-Serif" font-size="10.00">Shmup</text>
</g>
<!-- dir_adf17df52c2c099e8b8ee3a9cf49060c -->
<g id="node2" class="node">
<title>dir_adf17df52c2c099e8b8ee3a9cf49060c</title>
<g id="a_node2"><a xlink:href="dir_adf17df52c2c099e8b8ee3a9cf49060c.html" target="_top" xlink:title="Collision">
<polygon fill="white" stroke="black" points="78,-60 24,-60 24,-24 78,-24 78,-60"/>
<text text-anchor="middle" x="51" y="-39.5" font-family="Helvetica,sans-Serif" font-size="10.00">Collision</text>
</a>
</g>
</g>
<!-- dir_86bc230e317039cb6881feb7be1de2c0 -->
<g id="node3" class="node">
<title>dir_86bc230e317039cb6881feb7be1de2c0</title>
<g id="a_node3"><a xlink:href="dir_86bc230e317039cb6881feb7be1de2c0.html" target="_top" xlink:title="Movable">
<polygon fill="white" stroke="black" points="78,-132 24,-132 24,-96 78,-96 78,-132"/>
<text text-anchor="middle" x="51" y="-111.5" font-family="Helvetica,sans-Serif" font-size="10.00">Movable</text>
</a>
</g>
</g>
<!-- dir_86bc230e317039cb6881feb7be1de2c0&#45;&gt;dir_adf17df52c2c099e8b8ee3a9cf49060c -->
<g id="edge2" class="edge">
<title>dir_86bc230e317039cb6881feb7be1de2c0&#45;&gt;dir_adf17df52c2c099e8b8ee3a9cf49060c</title>
<path fill="none" stroke="black" d="M51,-95.7C51,-87.98 51,-78.71 51,-70.11"/>
<polygon fill="black" stroke="black" points="54.5,-70.1 51,-60.1 47.5,-70.1 54.5,-70.1"/>
<g id="a_edge2&#45;headlabel"><a xlink:href="dir_000006_000005.html" target="_top" xlink:title="4">
<text text-anchor="middle" x="57.34" y="-71.2" font-family="Helvetica,sans-Serif" font-size="10.00">4</text>
</a>
</g>
</g>
<!-- dir_9a4e62b913a6c0c2c097aab851768fc2 -->
<g id="node4" class="node">
<title>dir_9a4e62b913a6c0c2c097aab851768fc2</title>
<g id="a_node4"><a xlink:href="dir_9a4e62b913a6c0c2c097aab851768fc2.html" target="_top" xlink:title="Paterns">
<polygon fill="white" stroke="red" points="150,-60 96,-60 96,-24 150,-24 150,-60"/>
<text text-anchor="middle" x="123" y="-39.5" font-family="Helvetica,sans-Serif" font-size="10.00">Paterns</text>
</a>
</g>
</g>
<!-- dir_86bc230e317039cb6881feb7be1de2c0&#45;&gt;dir_9a4e62b913a6c0c2c097aab851768fc2 -->
<g id="edge1" class="edge">
<title>dir_86bc230e317039cb6881feb7be1de2c0&#45;&gt;dir_9a4e62b913a6c0c2c097aab851768fc2</title>
<path fill="none" stroke="black" d="M68.8,-95.7C77.6,-87.14 88.38,-76.66 98,-67.3"/>
<polygon fill="black" stroke="black" points="100.68,-69.58 105.41,-60.1 95.8,-64.57 100.68,-69.58"/>
<g id="a_edge1&#45;headlabel"><a xlink:href="dir_000006_000007.html" target="_top" xlink:title="4">
<text text-anchor="middle" x="100.08" y="-71.63" font-family="Helvetica,sans-Serif" font-size="10.00">4</text>
</a>
</g>
</g>
</g>
</svg>
