<?xml version="1.0" encoding="UTF-8" standalone="no"?>
<!DOCTYPE svg PUBLIC "-//W3C//DTD SVG 1.1//EN"
 "http://www.w3.org/Graphics/SVG/1.1/DTD/svg11.dtd">
<!-- Generated by graphviz version 2.49.3 (20211027.1534)
 -->
<!-- Title: RayLib_SHMUP/include/Shmup Pages: 1 -->
<svg width="266pt" height="202pt"
 viewBox="0.00 0.00 266.00 201.92" xmlns="http://www.w3.org/2000/svg" xmlns:xlink="http://www.w3.org/1999/xlink">
<g id="graph0" class="graph" transform="scale(1 1) rotate(0) translate(4 197.92)">
<title>RayLib_SHMUP/include/Shmup</title>
<polygon fill="white" stroke="transparent" points="-4,4 -4,-197.92 262,-197.92 262,4 -4,4"/>
<g id="clust1" class="cluster">
<title>clusterdir_acb1494d7ee7f7edd706a5923bc36e94</title>
<g id="a_clust1"><a xlink:href="dir_acb1494d7ee7f7edd706a5923bc36e94.html" target="_top" xlink:title="include">
<polygon fill="#ddddee" stroke="black" points="8,-8 8,-167 250,-167 250,-8 8,-8"/>
<text text-anchor="middle" x="129" y="-155" font-family="Helvetica,sans-Serif" font-size="10.00">include</text>
</a>
</g>
</g>
<g id="clust2" class="cluster">
<title>clusterdir_09d4a11ae416202bec2d16e76061476b</title>
<g id="a_clust2"><a xlink:href="dir_09d4a11ae416202bec2d16e76061476b.html" target="_top">
<polygon fill="#eeeeff" stroke="black" points="100,-16 100,-140 242,-140 242,-16 100,-16"/>
</a>
</g>
</g>
<!-- dir_4b8079e098ae9d005f6515f50450836c -->
<g id="node1" class="node">
<title>dir_4b8079e098ae9d005f6515f50450836c</title>
<g id="a_node1"><a xlink:href="dir_4b8079e098ae9d005f6515f50450836c.html" target="_top" xlink:title="Namespaces">
<polygon fill="none" stroke="black" points="90,-132 16,-132 16,-96 90,-96 90,-132"/>
<text text-anchor="middle" x="53" y="-111.5" font-family="Helvetica,sans-Serif" font-size="10.00">Namespaces</text>
</a>
</g>
</g>
<!-- dir_09d4a11ae416202bec2d16e76061476b -->
<g id="node2" class="node">
<title>dir_09d4a11ae416202bec2d16e76061476b</title>
<text text-anchor="middle" x="207" y="-111.5" font-family="Helvetica,sans-Serif" font-size="10.00">Shmup</text>
</g>
<!-- dir_4b8079e098ae9d005f6515f50450836c&#45;&gt;dir_09d4a11ae416202bec2d16e76061476b -->
<g id="edge2" class="edge">
<title>dir_4b8079e098ae9d005f6515f50450836c&#45;&gt;dir_09d4a11ae416202bec2d16e76061476b</title>
<path fill="none" stroke="black" d="M60.41,-132.12C68.52,-149.28 83.33,-174.01 105,-185 127.59,-196.46 139.8,-197.21 162,-185 178.84,-175.74 190.26,-157.22 197.38,-141.42"/>
<polygon fill="black" stroke="black" points="200.67,-142.62 201.27,-132.04 194.21,-139.94 200.67,-142.62"/>
<g id="a_edge2&#45;headlabel"><a xlink:href="dir_000002_000004.html" target="_top" xlink:title="1">
<text text-anchor="middle" x="201.92" y="-144.52" font-family="Helvetica,sans-Serif" font-size="10.00">1</text>
</a>
</g>
</g>
<!-- dir_9a4e62b913a6c0c2c097aab851768fc2 -->
<g id="node5" class="node">
<title>dir_9a4e62b913a6c0c2c097aab851768fc2</title>
<g id="a_node5"><a xlink:href="dir_9a4e62b913a6c0c2c097aab851768fc2.html" target="_top" xlink:title="Paterns">
<polygon fill="white" stroke="red" points="162,-60 108,-60 108,-24 162,-24 162,-60"/>
<text text-anchor="middle" x="135" y="-39.5" font-family="Helvetica,sans-Serif" font-size="10.00">Paterns</text>
</a>
</g>
</g>
<!-- dir_4b8079e098ae9d005f6515f50450836c&#45;&gt;dir_9a4e62b913a6c0c2c097aab851768fc2 -->
<g id="edge3" class="edge">
<title>dir_4b8079e098ae9d005f6515f50450836c&#45;&gt;dir_9a4e62b913a6c0c2c097aab851768fc2</title>
<path fill="none" stroke="black" d="M73.27,-95.7C83.5,-86.97 96.06,-76.24 107.18,-66.75"/>
<polygon fill="black" stroke="black" points="109.63,-69.26 114.96,-60.1 105.09,-63.94 109.63,-69.26"/>
<g id="a_edge3&#45;headlabel"><a xlink:href="dir_000002_000007.html" target="_top" xlink:title="1">
<text text-anchor="middle" x="108.74" y="-71.25" font-family="Helvetica,sans-Serif" font-size="10.00">1</text>
</a>
</g>
</g>
<!-- dir_09d4a11ae416202bec2d16e76061476b&#45;&gt;dir_4b8079e098ae9d005f6515f50450836c -->
<g id="edge1" class="edge">
<title>dir_09d4a11ae416202bec2d16e76061476b&#45;&gt;dir_4b8079e098ae9d005f6515f50450836c</title>
<path fill="none" stroke="black" d="M201.27,-132.04C194.77,-149.14 182.33,-173.82 162,-185 139.8,-197.21 127.59,-196.46 105,-185 86.89,-175.82 73.57,-157.03 64.94,-141.09"/>
<polygon fill="black" stroke="black" points="68.05,-139.47 60.41,-132.12 61.8,-142.63 68.05,-139.47"/>
<g id="a_edge1&#45;headlabel"><a xlink:href="dir_000004_000002.html" target="_top" xlink:title="1">
<text text-anchor="middle" x="72.2" y="-138.89" font-family="Helvetica,sans-Serif" font-size="10.00">1</text>
</a>
</g>
</g>
<!-- dir_adf17df52c2c099e8b8ee3a9cf49060c -->
<g id="node3" class="node">
<title>dir_adf17df52c2c099e8b8ee3a9cf49060c</title>
<g id="a_node3"><a xlink:href="dir_adf17df52c2c099e8b8ee3a9cf49060c.html" target="_top" xlink:title="Collision">
<polygon fill="white" stroke="black" points="234,-60 180,-60 180,-24 234,-24 234,-60"/>
<text text-anchor="middle" x="207" y="-39.5" font-family="Helvetica,sans-Serif" font-size="10.00">Collision</text>
</a>
</g>
</g>
<!-- dir_86bc230e317039cb6881feb7be1de2c0 -->
<g id="node4" class="node">
<title>dir_86bc230e317039cb6881feb7be1de2c0</title>
<g id="a_node4"><a xlink:href="dir_86bc230e317039cb6881feb7be1de2c0.html" target="_top" xlink:title="Movable">
<polygon fill="white" stroke="black" points="162,-132 108,-132 108,-96 162,-96 162,-132"/>
<text text-anchor="middle" x="135" y="-111.5" font-family="Helvetica,sans-Serif" font-size="10.00">Movable</text>
</a>
</g>
</g>
<!-- dir_86bc230e317039cb6881feb7be1de2c0&#45;&gt;dir_adf17df52c2c099e8b8ee3a9cf49060c -->
<g id="edge5" class="edge">
<title>dir_86bc230e317039cb6881feb7be1de2c0&#45;&gt;dir_adf17df52c2c099e8b8ee3a9cf49060c</title>
<path fill="none" stroke="black" d="M152.8,-95.7C161.6,-87.14 172.38,-76.66 182,-67.3"/>
<polygon fill="black" stroke="black" points="184.68,-69.58 189.41,-60.1 179.8,-64.57 184.68,-69.58"/>
<g id="a_edge5&#45;headlabel"><a xlink:href="dir_000006_000005.html" target="_top" xlink:title="4">
<text text-anchor="middle" x="184.08" y="-71.63" font-family="Helvetica,sans-Serif" font-size="10.00">4</text>
</a>
</g>
</g>
<!-- dir_86bc230e317039cb6881feb7be1de2c0&#45;&gt;dir_9a4e62b913a6c0c2c097aab851768fc2 -->
<g id="edge4" class="edge">
<title>dir_86bc230e317039cb6881feb7be1de2c0&#45;&gt;dir_9a4e62b913a6c0c2c097aab851768fc2</title>
<path fill="none" stroke="black" d="M135,-95.7C135,-87.98 135,-78.71 135,-70.11"/>
<polygon fill="black" stroke="black" points="138.5,-70.1 135,-60.1 131.5,-70.1 138.5,-70.1"/>
<g id="a_edge4&#45;headlabel"><a xlink:href="dir_000006_000007.html" target="_top" xlink:title="5">
<text text-anchor="middle" x="141.34" y="-71.2" font-family="Helvetica,sans-Serif" font-size="10.00">5</text>
</a>
</g>
</g>
</g>
</svg>
