<?xml version="1.0" encoding="UTF-8" standalone="no"?>
<!DOCTYPE svg PUBLIC "-//W3C//DTD SVG 1.1//EN"
 "http://www.w3.org/Graphics/SVG/1.1/DTD/svg11.dtd">
<!-- Generated by graphviz version 2.49.3 (20211027.1534)
 -->
<!-- Title: RayLib_SHMUP/src/Shmup/Paterns Pages: 1 -->
<svg width="254pt" height="159pt"
 viewBox="0.00 0.00 254.00 159.00" xmlns="http://www.w3.org/2000/svg" xmlns:xlink="http://www.w3.org/1999/xlink">
<g id="graph0" class="graph" transform="scale(1 1) rotate(0) translate(4 155)">
<title>RayLib_SHMUP/src/Shmup/Paterns</title>
<polygon fill="white" stroke="transparent" points="-4,4 -4,-155 250,-155 250,4 -4,4"/>
<g id="clust1" class="cluster">
<title>clusterdir_16273d0a602316267551fe67824df652</title>
<g id="a_clust1"><a xlink:href="dir_16273d0a602316267551fe67824df652.html" target="_top" xlink:title="Shmup">
<polygon fill="#ddddee" stroke="black" points="8,-56 8,-143 238,-143 238,-56 8,-56"/>
<text text-anchor="middle" x="123" y="-131" font-family="Helvetica,sans-Serif" font-size="10.00">Shmup</text>
</a>
</g>
</g>
<g id="clust2" class="cluster">
<title>clusterdir_7b6b9ff63e6183429ec439a847d6779e</title>
<g id="a_clust2"><a xlink:href="dir_7b6b9ff63e6183429ec439a847d6779e.html" target="_top">
<polygon fill="#eeeeff" stroke="black" points="16,-64 16,-116 230,-116 230,-64 16,-64"/>
</a>
</g>
</g>
<!-- dir_7b6b9ff63e6183429ec439a847d6779e -->
<g id="node1" class="node">
<title>dir_7b6b9ff63e6183429ec439a847d6779e</title>
<text text-anchor="middle" x="195" y="-87.5" font-family="Helvetica,sans-Serif" font-size="10.00">Paterns</text>
</g>
<!-- dir_feb767a7f7ab4d7a1014e058b6f038a6 -->
<g id="node2" class="node">
<title>dir_feb767a7f7ab4d7a1014e058b6f038a6</title>
<g id="a_node2"><a xlink:href="dir_feb767a7f7ab4d7a1014e058b6f038a6.html" target="_top" xlink:title="Enemy">
<polygon fill="white" stroke="black" points="150,-108 96,-108 96,-72 150,-72 150,-108"/>
<text text-anchor="middle" x="123" y="-87.5" font-family="Helvetica,sans-Serif" font-size="10.00">Enemy</text>
</a>
</g>
</g>
<!-- dir_acb1494d7ee7f7edd706a5923bc36e94 -->
<g id="node4" class="node">
<title>dir_acb1494d7ee7f7edd706a5923bc36e94</title>
<g id="a_node4"><a xlink:href="dir_acb1494d7ee7f7edd706a5923bc36e94.html" target="_top" xlink:title="include">
<polygon fill="white" stroke="red" points="114,-36 60,-36 60,0 114,0 114,-36"/>
<text text-anchor="middle" x="87" y="-15.5" font-family="Helvetica,sans-Serif" font-size="10.00">include</text>
</a>
</g>
</g>
<!-- dir_feb767a7f7ab4d7a1014e058b6f038a6&#45;&gt;dir_acb1494d7ee7f7edd706a5923bc36e94 -->
<g id="edge2" class="edge">
<title>dir_feb767a7f7ab4d7a1014e058b6f038a6&#45;&gt;dir_acb1494d7ee7f7edd706a5923bc36e94</title>
<path fill="none" stroke="black" d="M114.1,-71.7C110,-63.73 105.05,-54.1 100.51,-45.26"/>
<polygon fill="black" stroke="black" points="103.48,-43.4 95.8,-36.1 97.26,-46.6 103.48,-43.4"/>
<g id="a_edge2&#45;headlabel"><a xlink:href="dir_000018_000001.html" target="_top" xlink:title="4">
<text text-anchor="middle" x="107.65" y="-42.79" font-family="Helvetica,sans-Serif" font-size="10.00">4</text>
</a>
</g>
</g>
<!-- dir_b07c5e9c325de07845b9eaec39f432f1 -->
<g id="node3" class="node">
<title>dir_b07c5e9c325de07845b9eaec39f432f1</title>
<g id="a_node3"><a xlink:href="dir_b07c5e9c325de07845b9eaec39f432f1.html" target="_top" xlink:title="Shoot">
<polygon fill="white" stroke="black" points="78,-108 24,-108 24,-72 78,-72 78,-108"/>
<text text-anchor="middle" x="51" y="-87.5" font-family="Helvetica,sans-Serif" font-size="10.00">Shoot</text>
</a>
</g>
</g>
<!-- dir_b07c5e9c325de07845b9eaec39f432f1&#45;&gt;dir_acb1494d7ee7f7edd706a5923bc36e94 -->
<g id="edge1" class="edge">
<title>dir_b07c5e9c325de07845b9eaec39f432f1&#45;&gt;dir_acb1494d7ee7f7edd706a5923bc36e94</title>
<path fill="none" stroke="black" d="M59.9,-71.7C64,-63.73 68.95,-54.1 73.49,-45.26"/>
<polygon fill="black" stroke="black" points="76.74,-46.6 78.2,-36.1 70.52,-43.4 76.74,-46.6"/>
<g id="a_edge1&#45;headlabel"><a xlink:href="dir_000019_000001.html" target="_top" xlink:title="8">
<text text-anchor="middle" x="77.62" y="-48.59" font-family="Helvetica,sans-Serif" font-size="10.00">8</text>
</a>
</g>
</g>
</g>
</svg>
