<?xml version="1.0" encoding="UTF-8" standalone="no"?>
<!DOCTYPE svg PUBLIC "-//W3C//DTD SVG 1.1//EN"
 "http://www.w3.org/Graphics/SVG/1.1/DTD/svg11.dtd">
<!-- Generated by graphviz version 2.49.3 (20211027.1534)
 -->
<!-- Title: RayLib_SHMUP/include/Namespaces Pages: 1 -->
<svg width="114pt" height="167pt"
 viewBox="0.00 0.00 114.00 167.00" xmlns="http://www.w3.org/2000/svg" xmlns:xlink="http://www.w3.org/1999/xlink">
<g id="graph0" class="graph" transform="scale(1 1) rotate(0) translate(4 163)">
<title>RayLib_SHMUP/include/Namespaces</title>
<polygon fill="white" stroke="transparent" points="-4,4 -4,-163 110,-163 110,4 -4,4"/>
<g id="clust1" class="cluster">
<title>clusterdir_acb1494d7ee7f7edd706a5923bc36e94</title>
<g id="a_clust1"><a xlink:href="dir_acb1494d7ee7f7edd706a5923bc36e94.html" target="_top" xlink:title="include">
<polygon fill="#ddddee" stroke="black" points="8,-8 8,-151 98,-151 98,-8 8,-8"/>
<text text-anchor="middle" x="53" y="-139" font-family="Helvetica,sans-Serif" font-size="10.00">include</text>
</a>
</g>
</g>
<!-- dir_09d4a11ae416202bec2d16e76061476b -->
<g id="node1" class="node">
<title>dir_09d4a11ae416202bec2d16e76061476b</title>
<g id="a_node1"><a xlink:href="dir_09d4a11ae416202bec2d16e76061476b.html" target="_top" xlink:title="Shmup">
<polygon fill="white" stroke="red" points="80,-124 26,-124 26,-88 80,-88 80,-124"/>
<text text-anchor="middle" x="53" y="-103.5" font-family="Helvetica,sans-Serif" font-size="10.00">Shmup</text>
</a>
</g>
</g>
<!-- dir_4b8079e098ae9d005f6515f50450836c -->
<g id="node2" class="node">
<title>dir_4b8079e098ae9d005f6515f50450836c</title>
<g id="a_node2"><a xlink:href="dir_4b8079e098ae9d005f6515f50450836c.html" target="_top" xlink:title="Namespaces">
<polygon fill="#eeeeff" stroke="black" points="90,-52 16,-52 16,-16 90,-16 90,-52"/>
<text text-anchor="middle" x="53" y="-31.5" font-family="Helvetica,sans-Serif" font-size="10.00">Namespaces</text>
</a>
</g>
</g>
<!-- dir_09d4a11ae416202bec2d16e76061476b&#45;&gt;dir_4b8079e098ae9d005f6515f50450836c -->
<g id="edge1" class="edge">
<title>dir_09d4a11ae416202bec2d16e76061476b&#45;&gt;dir_4b8079e098ae9d005f6515f50450836c</title>
<path fill="none" stroke="black" d="M47.08,-87.7C46.29,-79.98 46.06,-70.71 46.4,-62.11"/>
<polygon fill="black" stroke="black" points="49.9,-62.32 47.1,-52.1 42.92,-61.84 49.9,-62.32"/>
<g id="a_edge1&#45;headlabel"><a xlink:href="dir_000004_000002.html" target="_top" xlink:title="1">
<text text-anchor="middle" x="52.48" y="-63.61" font-family="Helvetica,sans-Serif" font-size="10.00">1</text>
</a>
</g>
</g>
<!-- dir_4b8079e098ae9d005f6515f50450836c&#45;&gt;dir_09d4a11ae416202bec2d16e76061476b -->
<g id="edge2" class="edge">
<title>dir_4b8079e098ae9d005f6515f50450836c&#45;&gt;dir_09d4a11ae416202bec2d16e76061476b</title>
<path fill="none" stroke="black" d="M58.9,-52.1C59.7,-59.79 59.94,-69.05 59.6,-77.67"/>
<polygon fill="black" stroke="black" points="56.11,-77.48 58.92,-87.7 63.09,-77.96 56.11,-77.48"/>
<g id="a_edge2&#45;headlabel"><a xlink:href="dir_000002_000004.html" target="_top" xlink:title="1">
<text text-anchor="middle" x="53.52" y="-71.2" font-family="Helvetica,sans-Serif" font-size="10.00">1</text>
</a>
</g>
</g>
</g>
</svg>
