<?xml version="1.0" encoding="UTF-8" standalone="no"?>
<!DOCTYPE svg PUBLIC "-//W3C//DTD SVG 1.1//EN"
 "http://www.w3.org/Graphics/SVG/1.1/DTD/svg11.dtd">
<!-- Generated by graphviz version 2.49.3 (20211027.1534)
 -->
<!-- Title: RayLib_SHMUP/include Pages: 1 -->
<svg width="218pt" height="255pt"
 viewBox="0.00 0.00 218.00 255.00" xmlns="http://www.w3.org/2000/svg" xmlns:xlink="http://www.w3.org/1999/xlink">
<g id="graph0" class="graph" transform="scale(1 1) rotate(0) translate(4 251)">
<title>RayLib_SHMUP/include</title>
<polygon fill="white" stroke="transparent" points="-4,4 -4,-251 214,-251 214,4 -4,4"/>
<g id="clust1" class="cluster">
<title>clusterdir_7666da99778229944ca154900fb5df56</title>
<g id="a_clust1"><a xlink:href="dir_7666da99778229944ca154900fb5df56.html" target="_top" xlink:title="RayLib_SHMUP">
<polygon fill="#ddddee" stroke="black" points="8,-8 8,-239 202,-239 202,-8 8,-8"/>
<text text-anchor="middle" x="105" y="-227" font-family="Helvetica,sans-Serif" font-size="10.00">RayLib_SHMUP</text>
</a>
</g>
</g>
<g id="clust2" class="cluster">
<title>clusterdir_acb1494d7ee7f7edd706a5923bc36e94</title>
<g id="a_clust2"><a xlink:href="dir_acb1494d7ee7f7edd706a5923bc36e94.html" target="_top">
<polygon fill="#eeeeff" stroke="black" points="16,-16 16,-212 194,-212 194,-16 16,-16"/>
</a>
</g>
</g>
<!-- dir_acb1494d7ee7f7edd706a5923bc36e94 -->
<g id="node1" class="node">
<title>dir_acb1494d7ee7f7edd706a5923bc36e94</title>
<text text-anchor="middle" x="146" y="-183.5" font-family="Helvetica,sans-Serif" font-size="10.00">include</text>
</g>
<!-- dir_4b8079e098ae9d005f6515f50450836c -->
<g id="node2" class="node">
<title>dir_4b8079e098ae9d005f6515f50450836c</title>
<g id="a_node2"><a xlink:href="dir_4b8079e098ae9d005f6515f50450836c.html" target="_top" xlink:title="Namespaces">
<polygon fill="white" stroke="black" points="98,-132 24,-132 24,-96 98,-96 98,-132"/>
<text text-anchor="middle" x="61" y="-111.5" font-family="Helvetica,sans-Serif" font-size="10.00">Namespaces</text>
</a>
</g>
</g>
<!-- dir_09d4a11ae416202bec2d16e76061476b -->
<g id="node4" class="node">
<title>dir_09d4a11ae416202bec2d16e76061476b</title>
<g id="a_node4"><a xlink:href="dir_09d4a11ae416202bec2d16e76061476b.html" target="_top" xlink:title="Shmup">
<polygon fill="white" stroke="red" points="133,-60 79,-60 79,-24 133,-24 133,-60"/>
<text text-anchor="middle" x="106" y="-39.5" font-family="Helvetica,sans-Serif" font-size="10.00">Shmup</text>
</a>
</g>
</g>
<!-- dir_4b8079e098ae9d005f6515f50450836c&#45;&gt;dir_09d4a11ae416202bec2d16e76061476b -->
<g id="edge1" class="edge">
<title>dir_4b8079e098ae9d005f6515f50450836c&#45;&gt;dir_09d4a11ae416202bec2d16e76061476b</title>
<path fill="none" stroke="black" d="M72.12,-95.7C77.36,-87.56 83.7,-77.69 89.48,-68.7"/>
<polygon fill="black" stroke="black" points="92.54,-70.41 95,-60.1 86.65,-66.62 92.54,-70.41"/>
<g id="a_edge1&#45;headlabel"><a xlink:href="dir_000002_000004.html" target="_top" xlink:title="1">
<text text-anchor="middle" x="92.99" y="-72.47" font-family="Helvetica,sans-Serif" font-size="10.00">1</text>
</a>
</g>
</g>
<!-- dir_4d70f959afc79a7aff737754dfa68016 -->
<g id="node3" class="node">
<title>dir_4d70f959afc79a7aff737754dfa68016</title>
<g id="a_node3"><a xlink:href="dir_4d70f959afc79a7aff737754dfa68016.html" target="_top" xlink:title="PaternEditor">
<polygon fill="white" stroke="black" points="186,-132 116,-132 116,-96 186,-96 186,-132"/>
<text text-anchor="middle" x="151" y="-111.5" font-family="Helvetica,sans-Serif" font-size="10.00">PaternEditor</text>
</a>
</g>
</g>
<!-- dir_4d70f959afc79a7aff737754dfa68016&#45;&gt;dir_09d4a11ae416202bec2d16e76061476b -->
<g id="edge2" class="edge">
<title>dir_4d70f959afc79a7aff737754dfa68016&#45;&gt;dir_09d4a11ae416202bec2d16e76061476b</title>
<path fill="none" stroke="black" d="M139.88,-95.7C134.64,-87.56 128.3,-77.69 122.52,-68.7"/>
<polygon fill="black" stroke="black" points="125.35,-66.62 117,-60.1 119.46,-70.41 125.35,-66.62"/>
<g id="a_edge2&#45;headlabel"><a xlink:href="dir_000003_000004.html" target="_top" xlink:title="2">
<text text-anchor="middle" x="129.68" y="-65.61" font-family="Helvetica,sans-Serif" font-size="10.00">2</text>
</a>
</g>
</g>
<!-- dir_68d906c37b8beb1cbf38adb365828bd1 -->
<g id="node5" class="node">
<title>dir_68d906c37b8beb1cbf38adb365828bd1</title>
<g id="a_node5"><a xlink:href="dir_68d906c37b8beb1cbf38adb365828bd1.html" target="_top" xlink:title="Testing">
<polygon fill="white" stroke="black" points="88,-204 34,-204 34,-168 88,-168 88,-204"/>
<text text-anchor="middle" x="61" y="-183.5" font-family="Helvetica,sans-Serif" font-size="10.00">Testing</text>
</a>
</g>
</g>
<!-- dir_68d906c37b8beb1cbf38adb365828bd1&#45;&gt;dir_4b8079e098ae9d005f6515f50450836c -->
<g id="edge3" class="edge">
<title>dir_68d906c37b8beb1cbf38adb365828bd1&#45;&gt;dir_4b8079e098ae9d005f6515f50450836c</title>
<path fill="none" stroke="black" d="M61,-167.7C61,-159.98 61,-150.71 61,-142.11"/>
<polygon fill="black" stroke="black" points="64.5,-142.1 61,-132.1 57.5,-142.1 64.5,-142.1"/>
<g id="a_edge3&#45;headlabel"><a xlink:href="dir_000010_000002.html" target="_top" xlink:title="1">
<text text-anchor="middle" x="67.34" y="-143.2" font-family="Helvetica,sans-Serif" font-size="10.00">1</text>
</a>
</g>
</g>
</g>
</svg>
