<?xml version="1.0" encoding="UTF-8" standalone="no"?>
<!DOCTYPE svg PUBLIC "-//W3C//DTD SVG 1.1//EN"
 "http://www.w3.org/Graphics/SVG/1.1/DTD/svg11.dtd">
<!-- Generated by graphviz version 2.49.3 (20211027.1534)
 -->
<!-- Title: RayLib_SHMUP/src Pages: 1 -->
<svg width="434pt" height="175pt"
 viewBox="0.00 0.00 434.00 175.00" xmlns="http://www.w3.org/2000/svg" xmlns:xlink="http://www.w3.org/1999/xlink">
<g id="graph0" class="graph" transform="scale(1 1) rotate(0) translate(4 171)">
<title>RayLib_SHMUP/src</title>
<polygon fill="white" stroke="transparent" points="-4,4 -4,-171 430,-171 430,4 -4,4"/>
<g id="clust1" class="cluster">
<title>clusterdir_7666da99778229944ca154900fb5df56</title>
<g id="a_clust1"><a xlink:href="dir_7666da99778229944ca154900fb5df56.html" target="_top" xlink:title="RayLib_SHMUP">
<polygon fill="#ddddee" stroke="black" points="8,-8 8,-159 418,-159 418,-8 8,-8"/>
<text text-anchor="middle" x="213" y="-147" font-family="Helvetica,sans-Serif" font-size="10.00">RayLib_SHMUP</text>
</a>
</g>
</g>
<g id="clust2" class="cluster">
<title>clusterdir_1eb3e03ed098b4e411e1b91a52ba42f8</title>
<g id="a_clust2"><a xlink:href="dir_1eb3e03ed098b4e411e1b91a52ba42f8.html" target="_top">
<polygon fill="#eeeeff" stroke="black" points="16,-80 16,-132 410,-132 410,-80 16,-80"/>
</a>
</g>
</g>
<!-- dir_acb1494d7ee7f7edd706a5923bc36e94 -->
<g id="node1" class="node">
<title>dir_acb1494d7ee7f7edd706a5923bc36e94</title>
<g id="a_node1"><a xlink:href="dir_acb1494d7ee7f7edd706a5923bc36e94.html" target="_top" xlink:title="include">
<polygon fill="white" stroke="red" points="190,-52 136,-52 136,-16 190,-16 190,-52"/>
<text text-anchor="middle" x="163" y="-31.5" font-family="Helvetica,sans-Serif" font-size="10.00">include</text>
</a>
</g>
</g>
<!-- dir_1eb3e03ed098b4e411e1b91a52ba42f8 -->
<g id="node2" class="node">
<title>dir_1eb3e03ed098b4e411e1b91a52ba42f8</title>
<text text-anchor="middle" x="375" y="-103.5" font-family="Helvetica,sans-Serif" font-size="10.00">src</text>
</g>
<!-- dir_19162acaf4ba79ad545674aba458eed9 -->
<g id="node3" class="node">
<title>dir_19162acaf4ba79ad545674aba458eed9</title>
<g id="a_node3"><a xlink:href="dir_19162acaf4ba79ad545674aba458eed9.html" target="_top" xlink:title="Namespaces">
<polygon fill="white" stroke="black" points="330,-124 256,-124 256,-88 330,-88 330,-124"/>
<text text-anchor="middle" x="293" y="-103.5" font-family="Helvetica,sans-Serif" font-size="10.00">Namespaces</text>
</a>
</g>
</g>
<!-- dir_19162acaf4ba79ad545674aba458eed9&#45;&gt;dir_acb1494d7ee7f7edd706a5923bc36e94 -->
<g id="edge2" class="edge">
<title>dir_19162acaf4ba79ad545674aba458eed9&#45;&gt;dir_acb1494d7ee7f7edd706a5923bc36e94</title>
<path fill="none" stroke="black" d="M261.34,-87.76C256.54,-85.16 251.64,-82.5 247,-80 231.33,-71.54 213.98,-62.24 199.14,-54.3"/>
<polygon fill="black" stroke="black" points="200.73,-51.18 190.26,-49.55 197.43,-57.35 200.73,-51.18"/>
<g id="a_edge2&#45;headlabel"><a xlink:href="dir_000012_000001.html" target="_top" xlink:title="9">
<text text-anchor="middle" x="205.24" y="-47.87" font-family="Helvetica,sans-Serif" font-size="10.00">9</text>
</a>
</g>
</g>
<!-- dir_52e25d1a079c29faae3d4fa5ce020f7a -->
<g id="node4" class="node">
<title>dir_52e25d1a079c29faae3d4fa5ce020f7a</title>
<g id="a_node4"><a xlink:href="dir_52e25d1a079c29faae3d4fa5ce020f7a.html" target="_top" xlink:title="PaternEditor">
<polygon fill="white" stroke="black" points="238,-124 168,-124 168,-88 238,-88 238,-124"/>
<text text-anchor="middle" x="203" y="-103.5" font-family="Helvetica,sans-Serif" font-size="10.00">PaternEditor</text>
</a>
</g>
</g>
<!-- dir_52e25d1a079c29faae3d4fa5ce020f7a&#45;&gt;dir_acb1494d7ee7f7edd706a5923bc36e94 -->
<g id="edge3" class="edge">
<title>dir_52e25d1a079c29faae3d4fa5ce020f7a&#45;&gt;dir_acb1494d7ee7f7edd706a5923bc36e94</title>
<path fill="none" stroke="black" d="M193.11,-87.7C188.51,-79.64 182.94,-69.89 177.85,-60.98"/>
<polygon fill="black" stroke="black" points="180.77,-59.05 172.77,-52.1 174.7,-62.52 180.77,-59.05"/>
<g id="a_edge3&#45;headlabel"><a xlink:href="dir_000013_000001.html" target="_top" xlink:title="3">
<text text-anchor="middle" x="185.02" y="-58.26" font-family="Helvetica,sans-Serif" font-size="10.00">3</text>
</a>
</g>
</g>
<!-- dir_16273d0a602316267551fe67824df652 -->
<g id="node5" class="node">
<title>dir_16273d0a602316267551fe67824df652</title>
<g id="a_node5"><a xlink:href="dir_16273d0a602316267551fe67824df652.html" target="_top" xlink:title="Shmup">
<polygon fill="white" stroke="red" points="150,-124 96,-124 96,-88 150,-88 150,-124"/>
<text text-anchor="middle" x="123" y="-103.5" font-family="Helvetica,sans-Serif" font-size="10.00">Shmup</text>
</a>
</g>
</g>
<!-- dir_16273d0a602316267551fe67824df652&#45;&gt;dir_acb1494d7ee7f7edd706a5923bc36e94 -->
<g id="edge1" class="edge">
<title>dir_16273d0a602316267551fe67824df652&#45;&gt;dir_acb1494d7ee7f7edd706a5923bc36e94</title>
<path fill="none" stroke="black" d="M132.89,-87.7C137.49,-79.64 143.06,-69.89 148.15,-60.98"/>
<polygon fill="black" stroke="black" points="151.3,-62.52 153.23,-52.1 145.23,-59.05 151.3,-62.52"/>
<g id="a_edge1&#45;headlabel"><a xlink:href="dir_000014_000001.html" target="_top" xlink:title="64">
<text text-anchor="middle" x="151.99" y="-64.55" font-family="Helvetica,sans-Serif" font-size="10.00">64</text>
</a>
</g>
</g>
<!-- dir_c204f25d0e6082cad5020b5379ebc5f2 -->
<g id="node6" class="node">
<title>dir_c204f25d0e6082cad5020b5379ebc5f2</title>
<g id="a_node6"><a xlink:href="dir_c204f25d0e6082cad5020b5379ebc5f2.html" target="_top" xlink:title="Testing">
<polygon fill="white" stroke="black" points="78,-124 24,-124 24,-88 78,-88 78,-124"/>
<text text-anchor="middle" x="51" y="-103.5" font-family="Helvetica,sans-Serif" font-size="10.00">Testing</text>
</a>
</g>
</g>
<!-- dir_c204f25d0e6082cad5020b5379ebc5f2&#45;&gt;dir_acb1494d7ee7f7edd706a5923bc36e94 -->
<g id="edge4" class="edge">
<title>dir_c204f25d0e6082cad5020b5379ebc5f2&#45;&gt;dir_acb1494d7ee7f7edd706a5923bc36e94</title>
<path fill="none" stroke="black" d="M75.24,-87.81C79.14,-85.15 83.16,-82.47 87,-80 99.87,-71.73 114.26,-63.07 127.02,-55.58"/>
<polygon fill="black" stroke="black" points="129.11,-58.42 135.98,-50.36 125.58,-52.37 129.11,-58.42"/>
<g id="a_edge4&#45;headlabel"><a xlink:href="dir_000020_000001.html" target="_top" xlink:title="3">
<text text-anchor="middle" x="127.43" y="-60.18" font-family="Helvetica,sans-Serif" font-size="10.00">3</text>
</a>
</g>
</g>
</g>
</svg>
