<?xml version="1.0" encoding="UTF-8" standalone="no"?>
<!DOCTYPE svg PUBLIC "-//W3C//DTD SVG 1.1//EN"
 "http://www.w3.org/Graphics/SVG/1.1/DTD/svg11.dtd">
<!-- Generated by graphviz version 2.49.3 (20211027.1534)
 -->
<!-- Title: RayLib_SHMUP/include/Namespaces Pages: 1 -->
<svg width="114pt" height="167pt"
 viewBox="0.00 0.00 114.00 167.00" xmlns="http://www.w3.org/2000/svg" xmlns:xlink="http://www.w3.org/1999/xlink">
<g id="graph0" class="graph" transform="scale(1 1) rotate(0) translate(4 163)">
<title>RayLib_SHMUP/include/Namespaces</title>
<polygon fill="white" stroke="transparent" points="-4,4 -4,-163 110,-163 110,4 -4,4"/>
<g id="clust1" class="cluster">
<title>clusterdir_acb1494d7ee7f7edd706a5923bc36e94</title>
<g id="a_clust1"><a xlink:href="dir_acb1494d7ee7f7edd706a5923bc36e94.html" target="_top" xlink:title="include">
<polygon fill="#ddddee" stroke="black" points="8,-8 8,-151 98,-151 98,-8 8,-8"/>
<text text-anchor="middle" x="53" y="-139" font-family="Helvetica,sans-Serif" font-size="10.00">include</text>
</a>
</g>
</g>
<!-- dir_09d4a11ae416202bec2d16e76061476b -->
<g id="node1" class="node">
<title>dir_09d4a11ae416202bec2d16e76061476b</title>
<g id="a_node1"><a xlink:href="dir_09d4a11ae416202bec2d16e76061476b.html" target="_top" xlink:title="Shmup">
<polygon fill="white" stroke="red" points="80,-52 26,-52 26,-16 80,-16 80,-52"/>
<text text-anchor="middle" x="53" y="-31.5" font-family="Helvetica,sans-Serif" font-size="10.00">Shmup</text>
</a>
</g>
</g>
<!-- dir_4b8079e098ae9d005f6515f50450836c -->
<g id="node2" class="node">
<title>dir_4b8079e098ae9d005f6515f50450836c</title>
<g id="a_node2"><a xlink:href="dir_4b8079e098ae9d005f6515f50450836c.html" target="_top" xlink:title="Namespaces">
<polygon fill="#eeeeff" stroke="black" points="90,-124 16,-124 16,-88 90,-88 90,-124"/>
<text text-anchor="middle" x="53" y="-103.5" font-family="Helvetica,sans-Serif" font-size="10.00">Namespaces</text>
</a>
</g>
</g>
<!-- dir_4b8079e098ae9d005f6515f50450836c&#45;&gt;dir_09d4a11ae416202bec2d16e76061476b -->
<g id="edge1" class="edge">
<title>dir_4b8079e098ae9d005f6515f50450836c&#45;&gt;dir_09d4a11ae416202bec2d16e76061476b</title>
<path fill="none" stroke="black" d="M53,-87.7C53,-79.98 53,-70.71 53,-62.11"/>
<polygon fill="black" stroke="black" points="56.5,-62.1 53,-52.1 49.5,-62.1 56.5,-62.1"/>
<g id="a_edge1&#45;headlabel"><a xlink:href="dir_000002_000004.html" target="_top" xlink:title="1">
<text text-anchor="middle" x="59.34" y="-63.2" font-family="Helvetica,sans-Serif" font-size="10.00">1</text>
</a>
</g>
</g>
</g>
</svg>
