<?xml version="1.0" encoding="UTF-8" standalone="no"?>
<!DOCTYPE svg PUBLIC "-//W3C//DTD SVG 1.1//EN"
 "http://www.w3.org/Graphics/SVG/1.1/DTD/svg11.dtd">
<!-- Generated by graphviz version 2.49.3 (20211027.1534)
 -->
<!-- Title: RayLib_SHMUP/include/PaternEditor Pages: 1 -->
<svg width="110pt" height="167pt"
 viewBox="0.00 0.00 110.00 167.00" xmlns="http://www.w3.org/2000/svg" xmlns:xlink="http://www.w3.org/1999/xlink">
<g id="graph0" class="graph" transform="scale(1 1) rotate(0) translate(4 163)">
<title>RayLib_SHMUP/include/PaternEditor</title>
<polygon fill="white" stroke="transparent" points="-4,4 -4,-163 106,-163 106,4 -4,4"/>
<g id="clust1" class="cluster">
<title>clusterdir_acb1494d7ee7f7edd706a5923bc36e94</title>
<g id="a_clust1"><a xlink:href="dir_acb1494d7ee7f7edd706a5923bc36e94.html" target="_top" xlink:title="include">
<polygon fill="#ddddee" stroke="black" points="8,-8 8,-151 94,-151 94,-8 8,-8"/>
<text text-anchor="middle" x="51" y="-139" font-family="Helvetica,sans-Serif" font-size="10.00">include</text>
</a>
</g>
</g>
<!-- dir_09d4a11ae416202bec2d16e76061476b -->
<g id="node1" class="node">
<title>dir_09d4a11ae416202bec2d16e76061476b</title>
<g id="a_node1"><a xlink:href="dir_09d4a11ae416202bec2d16e76061476b.html" target="_top" xlink:title="Shmup">
<polygon fill="white" stroke="red" points="78,-52 24,-52 24,-16 78,-16 78,-52"/>
<text text-anchor="middle" x="51" y="-31.5" font-family="Helvetica,sans-Serif" font-size="10.00">Shmup</text>
</a>
</g>
</g>
<!-- dir_4d70f959afc79a7aff737754dfa68016 -->
<g id="node2" class="node">
<title>dir_4d70f959afc79a7aff737754dfa68016</title>
<g id="a_node2"><a xlink:href="dir_4d70f959afc79a7aff737754dfa68016.html" target="_top" xlink:title="PaternEditor">
<polygon fill="#eeeeff" stroke="black" points="86,-124 16,-124 16,-88 86,-88 86,-124"/>
<text text-anchor="middle" x="51" y="-103.5" font-family="Helvetica,sans-Serif" font-size="10.00">PaternEditor</text>
</a>
</g>
</g>
<!-- dir_4d70f959afc79a7aff737754dfa68016&#45;&gt;dir_09d4a11ae416202bec2d16e76061476b -->
<g id="edge1" class="edge">
<title>dir_4d70f959afc79a7aff737754dfa68016&#45;&gt;dir_09d4a11ae416202bec2d16e76061476b</title>
<path fill="none" stroke="black" d="M51,-87.7C51,-79.98 51,-70.71 51,-62.11"/>
<polygon fill="black" stroke="black" points="54.5,-62.1 51,-52.1 47.5,-62.1 54.5,-62.1"/>
<g id="a_edge1&#45;headlabel"><a xlink:href="dir_000003_000004.html" target="_top" xlink:title="2">
<text text-anchor="middle" x="57.34" y="-63.2" font-family="Helvetica,sans-Serif" font-size="10.00">2</text>
</a>
</g>
</g>
</g>
</svg>
