<?xml version="1.0" encoding="UTF-8" standalone="no"?>
<!DOCTYPE svg PUBLIC "-//W3C//DTD SVG 1.1//EN"
 "http://www.w3.org/Graphics/SVG/1.1/DTD/svg11.dtd">
<!-- Generated by graphviz version 2.49.3 (20211027.1534)
 -->
<!-- Title: RayLib_SHMUP/src/Shmup Pages: 1 -->
<svg width="326pt" height="159pt"
 viewBox="0.00 0.00 326.00 159.00" xmlns="http://www.w3.org/2000/svg" xmlns:xlink="http://www.w3.org/1999/xlink">
<g id="graph0" class="graph" transform="scale(1 1) rotate(0) translate(4 155)">
<title>RayLib_SHMUP/src/Shmup</title>
<polygon fill="white" stroke="transparent" points="-4,4 -4,-155 322,-155 322,4 -4,4"/>
<g id="clust1" class="cluster">
<title>clusterdir_1eb3e03ed098b4e411e1b91a52ba42f8</title>
<g id="a_clust1"><a xlink:href="dir_1eb3e03ed098b4e411e1b91a52ba42f8.html" target="_top" xlink:title="src">
<polygon fill="#ddddee" stroke="black" points="8,-56 8,-143 310,-143 310,-56 8,-56"/>
<text text-anchor="middle" x="159" y="-131" font-family="Helvetica,sans-Serif" font-size="10.00">src</text>
</a>
</g>
</g>
<g id="clust2" class="cluster">
<title>clusterdir_16273d0a602316267551fe67824df652</title>
<g id="a_clust2"><a xlink:href="dir_16273d0a602316267551fe67824df652.html" target="_top">
<polygon fill="#eeeeff" stroke="black" points="16,-64 16,-116 302,-116 302,-64 16,-64"/>
</a>
</g>
</g>
<!-- dir_16273d0a602316267551fe67824df652 -->
<g id="node1" class="node">
<title>dir_16273d0a602316267551fe67824df652</title>
<text text-anchor="middle" x="267" y="-87.5" font-family="Helvetica,sans-Serif" font-size="10.00">Shmup</text>
</g>
<!-- dir_c4590ccfd7ce1fe82566ac87bb783d33 -->
<g id="node2" class="node">
<title>dir_c4590ccfd7ce1fe82566ac87bb783d33</title>
<g id="a_node2"><a xlink:href="dir_c4590ccfd7ce1fe82566ac87bb783d33.html" target="_top" xlink:title="Collision">
<polygon fill="white" stroke="black" points="222,-108 168,-108 168,-72 222,-72 222,-108"/>
<text text-anchor="middle" x="195" y="-87.5" font-family="Helvetica,sans-Serif" font-size="10.00">Collision</text>
</a>
</g>
</g>
<!-- dir_acb1494d7ee7f7edd706a5923bc36e94 -->
<g id="node5" class="node">
<title>dir_acb1494d7ee7f7edd706a5923bc36e94</title>
<g id="a_node5"><a xlink:href="dir_acb1494d7ee7f7edd706a5923bc36e94.html" target="_top" xlink:title="include">
<polygon fill="white" stroke="red" points="150,-36 96,-36 96,0 150,0 150,-36"/>
<text text-anchor="middle" x="123" y="-15.5" font-family="Helvetica,sans-Serif" font-size="10.00">include</text>
</a>
</g>
</g>
<!-- dir_c4590ccfd7ce1fe82566ac87bb783d33&#45;&gt;dir_acb1494d7ee7f7edd706a5923bc36e94 -->
<g id="edge2" class="edge">
<title>dir_c4590ccfd7ce1fe82566ac87bb783d33&#45;&gt;dir_acb1494d7ee7f7edd706a5923bc36e94</title>
<path fill="none" stroke="black" d="M177.2,-71.7C168.4,-63.14 157.62,-52.66 148,-43.3"/>
<polygon fill="black" stroke="black" points="150.2,-40.57 140.59,-36.1 145.32,-45.58 150.2,-40.57"/>
<g id="a_edge2&#45;headlabel"><a xlink:href="dir_000015_000001.html" target="_top" xlink:title="11">
<text text-anchor="middle" x="154.76" y="-38.54" font-family="Helvetica,sans-Serif" font-size="10.00">11</text>
</a>
</g>
</g>
<!-- dir_eea13c587949907ab32f8050fb997e4d -->
<g id="node3" class="node">
<title>dir_eea13c587949907ab32f8050fb997e4d</title>
<g id="a_node3"><a xlink:href="dir_eea13c587949907ab32f8050fb997e4d.html" target="_top" xlink:title="Movable">
<polygon fill="white" stroke="black" points="150,-108 96,-108 96,-72 150,-72 150,-108"/>
<text text-anchor="middle" x="123" y="-87.5" font-family="Helvetica,sans-Serif" font-size="10.00">Movable</text>
</a>
</g>
</g>
<!-- dir_eea13c587949907ab32f8050fb997e4d&#45;&gt;dir_acb1494d7ee7f7edd706a5923bc36e94 -->
<g id="edge3" class="edge">
<title>dir_eea13c587949907ab32f8050fb997e4d&#45;&gt;dir_acb1494d7ee7f7edd706a5923bc36e94</title>
<path fill="none" stroke="black" d="M123,-71.7C123,-63.98 123,-54.71 123,-46.11"/>
<polygon fill="black" stroke="black" points="126.5,-46.1 123,-36.1 119.5,-46.1 126.5,-46.1"/>
<g id="a_edge3&#45;headlabel"><a xlink:href="dir_000016_000001.html" target="_top" xlink:title="16">
<text text-anchor="middle" x="129.34" y="-47.2" font-family="Helvetica,sans-Serif" font-size="10.00">16</text>
</a>
</g>
</g>
<!-- dir_7b6b9ff63e6183429ec439a847d6779e -->
<g id="node4" class="node">
<title>dir_7b6b9ff63e6183429ec439a847d6779e</title>
<g id="a_node4"><a xlink:href="dir_7b6b9ff63e6183429ec439a847d6779e.html" target="_top" xlink:title="Paterns">
<polygon fill="white" stroke="red" points="78,-108 24,-108 24,-72 78,-72 78,-108"/>
<text text-anchor="middle" x="51" y="-87.5" font-family="Helvetica,sans-Serif" font-size="10.00">Paterns</text>
</a>
</g>
</g>
<!-- dir_7b6b9ff63e6183429ec439a847d6779e&#45;&gt;dir_acb1494d7ee7f7edd706a5923bc36e94 -->
<g id="edge1" class="edge">
<title>dir_7b6b9ff63e6183429ec439a847d6779e&#45;&gt;dir_acb1494d7ee7f7edd706a5923bc36e94</title>
<path fill="none" stroke="black" d="M68.8,-71.7C77.6,-63.14 88.38,-52.66 98,-43.3"/>
<polygon fill="black" stroke="black" points="100.68,-45.58 105.41,-36.1 95.8,-40.57 100.68,-45.58"/>
<g id="a_edge1&#45;headlabel"><a xlink:href="dir_000017_000001.html" target="_top" xlink:title="18">
<text text-anchor="middle" x="100.08" y="-47.63" font-family="Helvetica,sans-Serif" font-size="10.00">18</text>
</a>
</g>
</g>
</g>
</svg>
