<?xml version="1.0" encoding="UTF-8" standalone="no"?>
<!DOCTYPE svg PUBLIC "-//W3C//DTD SVG 1.1//EN"
 "http://www.w3.org/Graphics/SVG/1.1/DTD/svg11.dtd">
<!-- Generated by graphviz version 2.49.3 (20211027.1534)
 -->
<!-- Title: RayLib_SHMUP/include/Shmup/Movable Pages: 1 -->
<svg width="166pt" height="167pt"
 viewBox="0.00 0.00 166.00 167.00" xmlns="http://www.w3.org/2000/svg" xmlns:xlink="http://www.w3.org/1999/xlink">
<g id="graph0" class="graph" transform="scale(1 1) rotate(0) translate(4 163)">
<title>RayLib_SHMUP/include/Shmup/Movable</title>
<polygon fill="white" stroke="transparent" points="-4,4 -4,-163 162,-163 162,4 -4,4"/>
<g id="clust1" class="cluster">
<title>clusterdir_09d4a11ae416202bec2d16e76061476b</title>
<g id="a_clust1"><a xlink:href="dir_09d4a11ae416202bec2d16e76061476b.html" target="_top" xlink:title="Shmup">
<polygon fill="#ddddee" stroke="black" points="8,-8 8,-151 150,-151 150,-8 8,-8"/>
<text text-anchor="middle" x="79" y="-139" font-family="Helvetica,sans-Serif" font-size="10.00">Shmup</text>
</a>
</g>
</g>
<!-- dir_9a4e62b913a6c0c2c097aab851768fc2 -->
<g id="node1" class="node">
<title>dir_9a4e62b913a6c0c2c097aab851768fc2</title>
<g id="a_node1"><a xlink:href="dir_9a4e62b913a6c0c2c097aab851768fc2.html" target="_top" xlink:title="Paterns">
<polygon fill="white" stroke="red" points="70,-52 16,-52 16,-16 70,-16 70,-52"/>
<text text-anchor="middle" x="43" y="-31.5" font-family="Helvetica,sans-Serif" font-size="10.00">Paterns</text>
</a>
</g>
</g>
<!-- dir_adf17df52c2c099e8b8ee3a9cf49060c -->
<g id="node2" class="node">
<title>dir_adf17df52c2c099e8b8ee3a9cf49060c</title>
<g id="a_node2"><a xlink:href="dir_adf17df52c2c099e8b8ee3a9cf49060c.html" target="_top" xlink:title="Collision">
<polygon fill="none" stroke="black" points="142,-52 88,-52 88,-16 142,-16 142,-52"/>
<text text-anchor="middle" x="115" y="-31.5" font-family="Helvetica,sans-Serif" font-size="10.00">Collision</text>
</a>
</g>
</g>
<!-- dir_86bc230e317039cb6881feb7be1de2c0 -->
<g id="node3" class="node">
<title>dir_86bc230e317039cb6881feb7be1de2c0</title>
<g id="a_node3"><a xlink:href="dir_86bc230e317039cb6881feb7be1de2c0.html" target="_top" xlink:title="Movable">
<polygon fill="#eeeeff" stroke="black" points="106,-124 52,-124 52,-88 106,-88 106,-124"/>
<text text-anchor="middle" x="79" y="-103.5" font-family="Helvetica,sans-Serif" font-size="10.00">Movable</text>
</a>
</g>
</g>
<!-- dir_86bc230e317039cb6881feb7be1de2c0&#45;&gt;dir_9a4e62b913a6c0c2c097aab851768fc2 -->
<g id="edge1" class="edge">
<title>dir_86bc230e317039cb6881feb7be1de2c0&#45;&gt;dir_9a4e62b913a6c0c2c097aab851768fc2</title>
<path fill="none" stroke="black" d="M70.1,-87.7C66,-79.73 61.05,-70.1 56.51,-61.26"/>
<polygon fill="black" stroke="black" points="59.48,-59.4 51.8,-52.1 53.26,-62.6 59.48,-59.4"/>
<g id="a_edge1&#45;headlabel"><a xlink:href="dir_000006_000007.html" target="_top" xlink:title="4">
<text text-anchor="middle" x="63.65" y="-58.79" font-family="Helvetica,sans-Serif" font-size="10.00">4</text>
</a>
</g>
</g>
<!-- dir_86bc230e317039cb6881feb7be1de2c0&#45;&gt;dir_adf17df52c2c099e8b8ee3a9cf49060c -->
<g id="edge2" class="edge">
<title>dir_86bc230e317039cb6881feb7be1de2c0&#45;&gt;dir_adf17df52c2c099e8b8ee3a9cf49060c</title>
<path fill="none" stroke="black" d="M87.9,-87.7C92,-79.73 96.95,-70.1 101.49,-61.26"/>
<polygon fill="black" stroke="black" points="104.74,-62.6 106.2,-52.1 98.52,-59.4 104.74,-62.6"/>
<g id="a_edge2&#45;headlabel"><a xlink:href="dir_000006_000005.html" target="_top" xlink:title="4">
<text text-anchor="middle" x="105.62" y="-64.59" font-family="Helvetica,sans-Serif" font-size="10.00">4</text>
</a>
</g>
</g>
</g>
</svg>
