<?xml version="1.0" encoding="UTF-8" standalone="no"?>
<!DOCTYPE svg PUBLIC "-//W3C//DTD SVG 1.1//EN"
 "http://www.w3.org/Graphics/SVG/1.1/DTD/svg11.dtd">
<!-- Generated by graphviz version 2.49.3 (20211027.1534)
 -->
<!-- Title: Graphical Class Hierarchy Pages: 1 -->
<svg width="341pt" height="142pt"
 viewBox="0.00 0.00 341.00 142.00" xmlns="http://www.w3.org/2000/svg" xmlns:xlink="http://www.w3.org/1999/xlink">
<g id="graph0" class="graph" transform="scale(1 1) rotate(0) translate(4 138)">
<title>Graphical Class Hierarchy</title>
<polygon fill="white" stroke="transparent" points="-4,4 -4,-138 337,-138 337,4 -4,4"/>
<!-- Node0 -->
<g id="node1" class="node">
<title>Node0</title>
<g id="a_node1"><a xlink:href="dd/d61/class_a_patern.html" target="_top" xlink:title="An util class that contains methods to move a movable.">
<polygon fill="white" stroke="black" points="0,-57.5 0,-76.5 52,-76.5 52,-57.5 0,-57.5"/>
<text text-anchor="middle" x="26" y="-64.5" font-family="Helvetica,sans-Serif" font-size="10.00">APatern</text>
</a>
</g>
</g>
<!-- Node1 -->
<g id="node2" class="node">
<title>Node1</title>
<g id="a_node2"><a xlink:href="d7/d67/class_a_offsetable_patern.html" target="_top" xlink:title="A patern that can have an offset (rotation, position, rotation)">
<polygon fill="white" stroke="black" points="88,-114.5 88,-133.5 184,-133.5 184,-114.5 88,-114.5"/>
<text text-anchor="middle" x="136" y="-121.5" font-family="Helvetica,sans-Serif" font-size="10.00">AOffsetablePatern</text>
</a>
</g>
</g>
<!-- Node0&#45;&gt;Node1 -->
<g id="edge1" class="edge">
<title>Node0&#45;&gt;Node1</title>
<path fill="none" stroke="midnightblue" d="M49.52,-82.33C60.81,-89.68 74.84,-98.3 88,-105 94.59,-108.35 101.91,-111.55 108.78,-114.33"/>
<polygon fill="midnightblue" stroke="midnightblue" points="51.41,-79.38 41.13,-76.78 47.54,-85.22 51.41,-79.38"/>
</g>
<!-- Node3 -->
<g id="node4" class="node">
<title>Node3</title>
<g id="a_node4"><a xlink:href="dc/dc7/class_patern_linear.html" target="_top" xlink:title="A patern that goes in a straight line">
<polygon fill="white" stroke="black" points="100,-76.5 100,-95.5 172,-95.5 172,-76.5 100,-76.5"/>
<text text-anchor="middle" x="136" y="-83.5" font-family="Helvetica,sans-Serif" font-size="10.00">PaternLinear</text>
</a>
</g>
</g>
<!-- Node0&#45;&gt;Node3 -->
<g id="edge3" class="edge">
<title>Node0&#45;&gt;Node3</title>
<path fill="none" stroke="midnightblue" d="M62.22,-73.2C74.29,-75.32 87.79,-77.7 99.86,-79.82"/>
<polygon fill="midnightblue" stroke="midnightblue" points="62.5,-69.69 52.05,-71.41 61.29,-76.59 62.5,-69.69"/>
</g>
<!-- Node4 -->
<g id="node5" class="node">
<title>Node4</title>
<g id="a_node5"><a xlink:href="db/dea/class_patern_rotate.html" target="_top" xlink:title=" ">
<polygon fill="white" stroke="black" points="99,-38.5 99,-57.5 173,-57.5 173,-38.5 99,-38.5"/>
<text text-anchor="middle" x="136" y="-45.5" font-family="Helvetica,sans-Serif" font-size="10.00">PaternRotate</text>
</a>
</g>
</g>
<!-- Node0&#45;&gt;Node4 -->
<g id="edge4" class="edge">
<title>Node0&#45;&gt;Node4</title>
<path fill="none" stroke="midnightblue" d="M61.94,-60.85C73.67,-58.79 86.78,-56.48 98.62,-54.4"/>
<polygon fill="midnightblue" stroke="midnightblue" points="61.29,-57.41 52.05,-62.59 62.5,-64.31 61.29,-57.41"/>
</g>
<!-- Node5 -->
<g id="node6" class="node">
<title>Node5</title>
<g id="a_node6"><a xlink:href="dd/d2d/class_patern_v_spread.html" target="_top" xlink:title="A bullet patern that spreads in a V shape">
<polygon fill="white" stroke="black" points="94.5,-0.5 94.5,-19.5 177.5,-19.5 177.5,-0.5 94.5,-0.5"/>
<text text-anchor="middle" x="136" y="-7.5" font-family="Helvetica,sans-Serif" font-size="10.00">PaternVSpread</text>
</a>
</g>
</g>
<!-- Node0&#45;&gt;Node5 -->
<g id="edge5" class="edge">
<title>Node0&#45;&gt;Node5</title>
<path fill="none" stroke="midnightblue" d="M49.52,-51.67C60.81,-44.32 74.84,-35.7 88,-29 94.59,-25.65 101.91,-22.45 108.78,-19.67"/>
<polygon fill="midnightblue" stroke="midnightblue" points="47.54,-48.78 41.13,-57.22 51.41,-54.62 47.54,-48.78"/>
</g>
<!-- Node2 -->
<g id="node3" class="node">
<title>Node2</title>
<g id="a_node3"><a xlink:href="d1/d25/class_sequence_move_patern.html" target="_top" xlink:title="A patern computed by a sequence of rotation and velocity. &#160;This patern can be loaded from a file cont...">
<polygon fill="white" stroke="black" points="220,-114.5 220,-133.5 333,-133.5 333,-114.5 220,-114.5"/>
<text text-anchor="middle" x="276.5" y="-121.5" font-family="Helvetica,sans-Serif" font-size="10.00">SequenceMovePatern</text>
</a>
</g>
</g>
<!-- Node1&#45;&gt;Node2 -->
<g id="edge2" class="edge">
<title>Node1&#45;&gt;Node2</title>
<path fill="none" stroke="midnightblue" d="M194.39,-124C202.8,-124 211.46,-124 219.84,-124"/>
<polygon fill="midnightblue" stroke="midnightblue" points="194.28,-120.5 184.28,-124 194.28,-127.5 194.28,-120.5"/>
</g>
</g>
</svg>
