<?xml version="1.0" encoding="UTF-8" standalone="no"?>
<!DOCTYPE svg PUBLIC "-//W3C//DTD SVG 1.1//EN"
 "http://www.w3.org/Graphics/SVG/1.1/DTD/svg11.dtd">
<!-- Generated by graphviz version 2.49.3 (20211027.1534)
 -->
<!-- Title: Graphical Class Hierarchy Pages: 1 -->
<svg width="560pt" height="142pt"
 viewBox="0.00 0.00 560.00 142.00" xmlns="http://www.w3.org/2000/svg" xmlns:xlink="http://www.w3.org/1999/xlink">
<g id="graph0" class="graph" transform="scale(1 1) rotate(0) translate(4 138)">
<title>Graphical Class Hierarchy</title>
<polygon fill="white" stroke="transparent" points="-4,4 -4,-138 556,-138 556,4 -4,4"/>
<!-- Node0 -->
<g id="node1" class="node">
<title>Node0</title>
<g id="a_node1"><a xlink:href="db/d70/class_instance_list.html" target="_top" xlink:title=" ">
<polygon fill="white" stroke="black" points="192,-114.5 192,-133.5 328,-133.5 328,-114.5 192,-114.5"/>
<text text-anchor="middle" x="260" y="-121.5" font-family="Helvetica,sans-Serif" font-size="10.00">InstanceList&lt; ACollidable &gt;</text>
</a>
</g>
</g>
<!-- Node1 -->
<g id="node2" class="node">
<title>Node1</title>
<g id="a_node2"><a xlink:href="d0/d76/class_a_collidable.html" target="_top" xlink:title="An object that posses a collider">
<polygon fill="white" stroke="black" points="364,-114.5 364,-133.5 429,-133.5 429,-114.5 364,-114.5"/>
<text text-anchor="middle" x="396.5" y="-121.5" font-family="Helvetica,sans-Serif" font-size="10.00">ACollidable</text>
</a>
</g>
</g>
<!-- Node0&#45;&gt;Node1 -->
<g id="edge1" class="edge">
<title>Node0&#45;&gt;Node1</title>
<path fill="none" stroke="midnightblue" d="M338.45,-124C347.42,-124 356.15,-124 363.97,-124"/>
<polygon fill="midnightblue" stroke="midnightblue" points="338.25,-120.5 328.25,-124 338.25,-127.5 338.25,-120.5"/>
</g>
<!-- Node2 -->
<g id="node3" class="node">
<title>Node2</title>
<g id="a_node3"><a xlink:href="dd/d7a/class_enemy.html" target="_top" xlink:title="An enemy spaceship">
<polygon fill="white" stroke="black" points="485.5,-114.5 485.5,-133.5 531.5,-133.5 531.5,-114.5 485.5,-114.5"/>
<text text-anchor="middle" x="508.5" y="-121.5" font-family="Helvetica,sans-Serif" font-size="10.00">Enemy</text>
</a>
</g>
</g>
<!-- Node1&#45;&gt;Node2 -->
<g id="edge2" class="edge">
<title>Node1&#45;&gt;Node2</title>
<path fill="none" stroke="midnightblue" d="M439.08,-124C454.83,-124 472.13,-124 485.4,-124"/>
<polygon fill="midnightblue" stroke="midnightblue" points="439.02,-120.5 429.02,-124 439.02,-127.5 439.02,-120.5"/>
</g>
<!-- Node3 -->
<g id="node4" class="node">
<title>Node3</title>
<g id="a_node4"><a xlink:href="d0/d85/class_shoot.html" target="_top" xlink:title="An shoot (player or enemy)">
<polygon fill="white" stroke="black" points="487.5,-76.5 487.5,-95.5 529.5,-95.5 529.5,-76.5 487.5,-76.5"/>
<text text-anchor="middle" x="508.5" y="-83.5" font-family="Helvetica,sans-Serif" font-size="10.00">Shoot</text>
</a>
</g>
</g>
<!-- Node1&#45;&gt;Node3 -->
<g id="edge3" class="edge">
<title>Node1&#45;&gt;Node3</title>
<path fill="none" stroke="midnightblue" d="M434.71,-111.14C452.34,-105.06 472.69,-98.02 487.39,-92.95"/>
<polygon fill="midnightblue" stroke="midnightblue" points="433.57,-107.84 425.26,-114.41 435.85,-114.45 433.57,-107.84"/>
</g>
<!-- Node15 -->
<g id="node5" class="node">
<title>Node15</title>
<g id="a_node5"><a xlink:href="db/d70/class_instance_list.html" target="_top" xlink:title=" ">
<polygon fill="white" stroke="black" points="0,-57.5 0,-76.5 156,-76.5 156,-57.5 0,-57.5"/>
<text text-anchor="middle" x="78" y="-64.5" font-family="Helvetica,sans-Serif" font-size="10.00">InstanceList&lt; AGraphicObject &gt;</text>
</a>
</g>
</g>
<!-- Node16 -->
<g id="node6" class="node">
<title>Node16</title>
<g id="a_node6"><a xlink:href="d3/d92/class_a_graphic_object.html" target="_top" xlink:title="An object that can be drawn and updated">
<polygon fill="white" stroke="black" points="217,-57.5 217,-76.5 303,-76.5 303,-57.5 217,-57.5"/>
<text text-anchor="middle" x="260" y="-64.5" font-family="Helvetica,sans-Serif" font-size="10.00">AGraphicObject</text>
</a>
</g>
</g>
<!-- Node15&#45;&gt;Node16 -->
<g id="edge4" class="edge">
<title>Node15&#45;&gt;Node16</title>
<path fill="none" stroke="midnightblue" d="M166.41,-67C183.96,-67 201.63,-67 216.77,-67"/>
<polygon fill="midnightblue" stroke="midnightblue" points="166.12,-63.5 156.12,-67 166.12,-70.5 166.12,-63.5"/>
</g>
<!-- Node17 -->
<g id="node7" class="node">
<title>Node17</title>
<g id="a_node7"><a xlink:href="d5/d15/class_a_movable.html" target="_top" xlink:title=" ">
<polygon fill="white" stroke="black" points="366.5,-38.5 366.5,-57.5 426.5,-57.5 426.5,-38.5 366.5,-38.5"/>
<text text-anchor="middle" x="396.5" y="-45.5" font-family="Helvetica,sans-Serif" font-size="10.00">AMovable</text>
</a>
</g>
</g>
<!-- Node16&#45;&gt;Node17 -->
<g id="edge5" class="edge">
<title>Node16&#45;&gt;Node17</title>
<path fill="none" stroke="midnightblue" d="M313.27,-59.62C331.26,-57.07 350.75,-54.32 366.24,-52.13"/>
<polygon fill="midnightblue" stroke="midnightblue" points="312.6,-56.18 303.19,-61.04 313.58,-63.11 312.6,-56.18"/>
</g>
<!-- Node20 -->
<g id="node10" class="node">
<title>Node20</title>
<g id="a_node10"><a xlink:href="d1/da8/class_explosion.html" target="_top" xlink:title="An explosion animation. It automatiquely delete itself at the end">
<polygon fill="white" stroke="black" points="367.5,-76.5 367.5,-95.5 425.5,-95.5 425.5,-76.5 367.5,-76.5"/>
<text text-anchor="middle" x="396.5" y="-83.5" font-family="Helvetica,sans-Serif" font-size="10.00">Explosion</text>
</a>
</g>
</g>
<!-- Node16&#45;&gt;Node20 -->
<g id="edge10" class="edge">
<title>Node16&#45;&gt;Node20</title>
<path fill="none" stroke="midnightblue" d="M313.25,-74.38C331.72,-76.99 351.79,-79.83 367.48,-82.04"/>
<polygon fill="midnightblue" stroke="midnightblue" points="313.58,-70.89 303.19,-72.96 312.6,-77.82 313.58,-70.89"/>
</g>
<!-- Node17&#45;&gt;Node2 -->
<g id="edge6" class="edge">
<title>Node17&#45;&gt;Node2</title>
<path fill="none" stroke="midnightblue" d="M424.07,-63.3C425.77,-64.5 427.43,-65.74 429,-67 447.13,-81.58 446.02,-91.55 465,-105 471.2,-109.39 478.58,-113.12 485.43,-116.08"/>
<polygon fill="midnightblue" stroke="midnightblue" points="425.68,-60.17 415.39,-57.65 421.86,-66.04 425.68,-60.17"/>
</g>
<!-- Node17&#45;&gt;Node3 -->
<g id="edge9" class="edge">
<title>Node17&#45;&gt;Node3</title>
<path fill="none" stroke="midnightblue" d="M434.71,-60.86C452.34,-66.94 472.69,-73.98 487.39,-79.05"/>
<polygon fill="midnightblue" stroke="midnightblue" points="435.85,-57.55 425.26,-57.59 433.57,-64.16 435.85,-57.55"/>
</g>
<!-- Node18 -->
<g id="node8" class="node">
<title>Node18</title>
<g id="a_node8"><a xlink:href="d8/d8c/class_patern_computer.html" target="_top" xlink:title=" ">
<polygon fill="white" stroke="black" points="465,-38.5 465,-57.5 552,-57.5 552,-38.5 465,-38.5"/>
<text text-anchor="middle" x="508.5" y="-45.5" font-family="Helvetica,sans-Serif" font-size="10.00">PaternComputer</text>
</a>
</g>
</g>
<!-- Node17&#45;&gt;Node18 -->
<g id="edge7" class="edge">
<title>Node17&#45;&gt;Node18</title>
<path fill="none" stroke="midnightblue" d="M436.98,-48C446.05,-48 455.73,-48 464.92,-48"/>
<polygon fill="midnightblue" stroke="midnightblue" points="436.69,-44.5 426.69,-48 436.69,-51.5 436.69,-44.5"/>
</g>
<!-- Node19 -->
<g id="node9" class="node">
<title>Node19</title>
<g id="a_node9"><a xlink:href="d8/d53/class_player.html" target="_top" xlink:title="The player">
<polygon fill="white" stroke="black" points="486.5,-0.5 486.5,-19.5 530.5,-19.5 530.5,-0.5 486.5,-0.5"/>
<text text-anchor="middle" x="508.5" y="-7.5" font-family="Helvetica,sans-Serif" font-size="10.00">Player</text>
</a>
</g>
</g>
<!-- Node17&#45;&gt;Node19 -->
<g id="edge8" class="edge">
<title>Node17&#45;&gt;Node19</title>
<path fill="none" stroke="midnightblue" d="M435,-35.04C452.15,-29.12 471.82,-22.32 486.35,-17.31"/>
<polygon fill="midnightblue" stroke="midnightblue" points="433.57,-31.84 425.26,-38.41 435.85,-38.45 433.57,-31.84"/>
</g>
</g>
</svg>
