<?xml version="1.0" encoding="UTF-8" standalone="no"?>
<!DOCTYPE svg PUBLIC "-//W3C//DTD SVG 1.1//EN"
 "http://www.w3.org/Graphics/SVG/1.1/DTD/svg11.dtd">
<!-- Generated by graphviz version 2.49.3 (20211027.1534)
 -->
<!-- Title: Graphical Class Hierarchy Pages: 1 -->
<svg width="341pt" height="104pt"
 viewBox="0.00 0.00 341.00 104.00" xmlns="http://www.w3.org/2000/svg" xmlns:xlink="http://www.w3.org/1999/xlink">
<g id="graph0" class="graph" transform="scale(1 1) rotate(0) translate(4 100)">
<title>Graphical Class Hierarchy</title>
<polygon fill="white" stroke="transparent" points="-4,4 -4,-100 337,-100 337,4 -4,4"/>
<!-- Node0 -->
<g id="node1" class="node">
<title>Node0</title>
<g id="a_node1"><a xlink:href="dd/d61/class_a_patern.html" target="_top" xlink:title=" ">
<polygon fill="white" stroke="black" points="0,-38.5 0,-57.5 52,-57.5 52,-38.5 0,-38.5"/>
<text text-anchor="middle" x="26" y="-45.5" font-family="Helvetica,sans-Serif" font-size="10.00">APatern</text>
</a>
</g>
</g>
<!-- Node1 -->
<g id="node2" class="node">
<title>Node1</title>
<g id="a_node2"><a xlink:href="d7/d67/class_a_offsetable_patern.html" target="_top" xlink:title=" ">
<polygon fill="white" stroke="black" points="88,-76.5 88,-95.5 184,-95.5 184,-76.5 88,-76.5"/>
<text text-anchor="middle" x="136" y="-83.5" font-family="Helvetica,sans-Serif" font-size="10.00">AOffsetablePatern</text>
</a>
</g>
</g>
<!-- Node0&#45;&gt;Node1 -->
<g id="edge1" class="edge">
<title>Node0&#45;&gt;Node1</title>
<path fill="none" stroke="midnightblue" d="M61.5,-60.14C76.48,-65.41 93.77,-71.49 107.82,-76.44"/>
<polygon fill="midnightblue" stroke="midnightblue" points="62.64,-56.83 52.05,-56.81 60.32,-63.43 62.64,-56.83"/>
</g>
<!-- Node3 -->
<g id="node4" class="node">
<title>Node3</title>
<g id="a_node4"><a xlink:href="dc/dc7/class_patern_linear.html" target="_top" xlink:title=" ">
<polygon fill="white" stroke="black" points="100,-38.5 100,-57.5 172,-57.5 172,-38.5 100,-38.5"/>
<text text-anchor="middle" x="136" y="-45.5" font-family="Helvetica,sans-Serif" font-size="10.00">PaternLinear</text>
</a>
</g>
</g>
<!-- Node0&#45;&gt;Node3 -->
<g id="edge3" class="edge">
<title>Node0&#45;&gt;Node3</title>
<path fill="none" stroke="midnightblue" d="M62.22,-48C74.29,-48 87.79,-48 99.86,-48"/>
<polygon fill="midnightblue" stroke="midnightblue" points="62.05,-44.5 52.05,-48 62.05,-51.5 62.05,-44.5"/>
</g>
<!-- Node4 -->
<g id="node5" class="node">
<title>Node4</title>
<g id="a_node5"><a xlink:href="dd/d2d/class_patern_v_spread.html" target="_top" xlink:title=" ">
<polygon fill="white" stroke="black" points="94.5,-0.5 94.5,-19.5 177.5,-19.5 177.5,-0.5 94.5,-0.5"/>
<text text-anchor="middle" x="136" y="-7.5" font-family="Helvetica,sans-Serif" font-size="10.00">PaternVSpread</text>
</a>
</g>
</g>
<!-- Node0&#45;&gt;Node4 -->
<g id="edge4" class="edge">
<title>Node0&#45;&gt;Node4</title>
<path fill="none" stroke="midnightblue" d="M61.5,-35.86C76.48,-30.59 93.77,-24.51 107.82,-19.56"/>
<polygon fill="midnightblue" stroke="midnightblue" points="60.32,-32.57 52.05,-39.19 62.64,-39.17 60.32,-32.57"/>
</g>
<!-- Node2 -->
<g id="node3" class="node">
<title>Node2</title>
<g id="a_node3"><a xlink:href="d1/d25/class_sequence_move_patern.html" target="_top" xlink:title=" ">
<polygon fill="white" stroke="black" points="220,-76.5 220,-95.5 333,-95.5 333,-76.5 220,-76.5"/>
<text text-anchor="middle" x="276.5" y="-83.5" font-family="Helvetica,sans-Serif" font-size="10.00">SequenceMovePatern</text>
</a>
</g>
</g>
<!-- Node1&#45;&gt;Node2 -->
<g id="edge2" class="edge">
<title>Node1&#45;&gt;Node2</title>
<path fill="none" stroke="midnightblue" d="M194.39,-86C202.8,-86 211.46,-86 219.84,-86"/>
<polygon fill="midnightblue" stroke="midnightblue" points="194.28,-82.5 184.28,-86 194.28,-89.5 194.28,-82.5"/>
</g>
</g>
</svg>
