<?xml version="1.0" encoding="UTF-8" standalone="no"?>
<!DOCTYPE svg PUBLIC "-//W3C//DTD SVG 1.1//EN"
 "http://www.w3.org/Graphics/SVG/1.1/DTD/svg11.dtd">
<!-- Generated by graphviz version 2.49.3 (20211027.1534)
 -->
<!-- Title: APatern Pages: 1 -->
<svg width="304pt" height="140pt"
 viewBox="0.00 0.00 304.00 140.00" xmlns="http://www.w3.org/2000/svg" xmlns:xlink="http://www.w3.org/1999/xlink">
<g id="graph0" class="graph" transform="scale(1 1) rotate(0) translate(4 136)">
<title>APatern</title>
<polygon fill="white" stroke="transparent" points="-4,4 -4,-136 300,-136 300,4 -4,4"/>
<!-- Node1 -->
<g id="node1" class="node">
<title>Node1</title>
<g id="a_node1"><a xlink:title="An util class that contains methods to move a movable.">
<polygon fill="#bfbfbf" stroke="black" points="132.5,-112.5 132.5,-131.5 184.5,-131.5 184.5,-112.5 132.5,-112.5"/>
<text text-anchor="middle" x="158.5" y="-119.5" font-family="Helvetica,sans-Serif" font-size="10.00">APatern</text>
</a>
</g>
</g>
<!-- Node2 -->
<g id="node2" class="node">
<title>Node2</title>
<g id="a_node2"><a xlink:href="../../d7/d67/class_a_offsetable_patern.html" target="_top" xlink:title="A patern that can have an offset (rotation, position, rotation)">
<polygon fill="white" stroke="black" points="8.5,-56.5 8.5,-75.5 104.5,-75.5 104.5,-56.5 8.5,-56.5"/>
<text text-anchor="middle" x="56.5" y="-63.5" font-family="Helvetica,sans-Serif" font-size="10.00">AOffsetablePatern</text>
</a>
</g>
</g>
<!-- Node1&#45;&gt;Node2 -->
<g id="edge1" class="edge">
<title>Node1&#45;&gt;Node2</title>
<path fill="none" stroke="midnightblue" d="M133.17,-107.59C114.31,-97.61 89.12,-84.27 72.85,-75.65"/>
<polygon fill="midnightblue" stroke="midnightblue" points="131.64,-110.74 142.11,-112.32 134.91,-104.55 131.64,-110.74"/>
</g>
<!-- Node4 -->
<g id="node4" class="node">
<title>Node4</title>
<g id="a_node4"><a xlink:href="../../dc/dc7/class_patern_linear.html" target="_top" xlink:title="A patern that goes in a straight line">
<polygon fill="white" stroke="black" points="122.5,-56.5 122.5,-75.5 194.5,-75.5 194.5,-56.5 122.5,-56.5"/>
<text text-anchor="middle" x="158.5" y="-63.5" font-family="Helvetica,sans-Serif" font-size="10.00">PaternLinear</text>
</a>
</g>
</g>
<!-- Node1&#45;&gt;Node4 -->
<g id="edge3" class="edge">
<title>Node1&#45;&gt;Node4</title>
<path fill="none" stroke="midnightblue" d="M158.5,-101.8C158.5,-92.91 158.5,-82.78 158.5,-75.75"/>
<polygon fill="midnightblue" stroke="midnightblue" points="155,-102.08 158.5,-112.08 162,-102.08 155,-102.08"/>
</g>
<!-- Node5 -->
<g id="node5" class="node">
<title>Node5</title>
<g id="a_node5"><a xlink:href="../../dd/d2d/class_patern_v_spread.html" target="_top" xlink:title="A bullet patern that spreads in a V shape">
<polygon fill="white" stroke="black" points="213,-56.5 213,-75.5 296,-75.5 296,-56.5 213,-56.5"/>
<text text-anchor="middle" x="254.5" y="-63.5" font-family="Helvetica,sans-Serif" font-size="10.00">PaternVSpread</text>
</a>
</g>
</g>
<!-- Node1&#45;&gt;Node5 -->
<g id="edge4" class="edge">
<title>Node1&#45;&gt;Node5</title>
<path fill="none" stroke="midnightblue" d="M183.07,-107.18C200.74,-97.24 224.01,-84.15 239.11,-75.65"/>
<polygon fill="midnightblue" stroke="midnightblue" points="180.92,-104.37 173.92,-112.32 184.36,-110.47 180.92,-104.37"/>
</g>
<!-- Node3 -->
<g id="node3" class="node">
<title>Node3</title>
<g id="a_node3"><a xlink:href="../../d1/d25/class_sequence_move_patern.html" target="_top" xlink:title="A patern computed by a sequence of rotation and velocity. &#160;This patern can be loaded from a file cont...">
<polygon fill="white" stroke="black" points="0,-0.5 0,-19.5 113,-19.5 113,-0.5 0,-0.5"/>
<text text-anchor="middle" x="56.5" y="-7.5" font-family="Helvetica,sans-Serif" font-size="10.00">SequenceMovePatern</text>
</a>
</g>
</g>
<!-- Node2&#45;&gt;Node3 -->
<g id="edge2" class="edge">
<title>Node2&#45;&gt;Node3</title>
<path fill="none" stroke="midnightblue" d="M56.5,-45.8C56.5,-36.91 56.5,-26.78 56.5,-19.75"/>
<polygon fill="midnightblue" stroke="midnightblue" points="53,-46.08 56.5,-56.08 60,-46.08 53,-46.08"/>
</g>
</g>
</svg>
