<?xml version="1.0" encoding="UTF-8" standalone="no"?>
<!DOCTYPE svg PUBLIC "-//W3C//DTD SVG 1.1//EN"
 "http://www.w3.org/Graphics/SVG/1.1/DTD/svg11.dtd">
<!-- Generated by graphviz version 2.49.3 (20211027.1534)
 -->
<!-- Title: APatern Pages: 1 -->
<svg width="396pt" height="140pt"
 viewBox="0.00 0.00 396.00 140.00" xmlns="http://www.w3.org/2000/svg" xmlns:xlink="http://www.w3.org/1999/xlink">
<g id="graph0" class="graph" transform="scale(1 1) rotate(0) translate(4 136)">
<title>APatern</title>
<polygon fill="white" stroke="transparent" points="-4,4 -4,-136 392,-136 392,4 -4,4"/>
<!-- Node1 -->
<g id="node1" class="node">
<title>Node1</title>
<g id="a_node1"><a xlink:title="An util class that contains methods to move a movable.">
<polygon fill="#bfbfbf" stroke="black" points="177.5,-112.5 177.5,-131.5 229.5,-131.5 229.5,-112.5 177.5,-112.5"/>
<text text-anchor="middle" x="203.5" y="-119.5" font-family="Helvetica,sans-Serif" font-size="10.00">APatern</text>
</a>
</g>
</g>
<!-- Node2 -->
<g id="node2" class="node">
<title>Node2</title>
<g id="a_node2"><a xlink:href="../../d7/d67/class_a_offsetable_patern.html" target="_top" xlink:title="A patern that can have an offset (rotation, position, rotation)">
<polygon fill="white" stroke="black" points="8.5,-56.5 8.5,-75.5 104.5,-75.5 104.5,-56.5 8.5,-56.5"/>
<text text-anchor="middle" x="56.5" y="-63.5" font-family="Helvetica,sans-Serif" font-size="10.00">AOffsetablePatern</text>
</a>
</g>
</g>
<!-- Node1&#45;&gt;Node2 -->
<g id="edge1" class="edge">
<title>Node1&#45;&gt;Node2</title>
<path fill="none" stroke="midnightblue" d="M170.58,-108.91C142.94,-98.75 104.16,-84.51 79.68,-75.52"/>
<polygon fill="midnightblue" stroke="midnightblue" points="169.61,-112.28 180.21,-112.44 172.03,-105.71 169.61,-112.28"/>
</g>
<!-- Node4 -->
<g id="node4" class="node">
<title>Node4</title>
<g id="a_node4"><a xlink:href="../../dc/dc7/class_patern_linear.html" target="_top" xlink:title="A patern that goes in a straight line">
<polygon fill="white" stroke="black" points="122.5,-56.5 122.5,-75.5 194.5,-75.5 194.5,-56.5 122.5,-56.5"/>
<text text-anchor="middle" x="158.5" y="-63.5" font-family="Helvetica,sans-Serif" font-size="10.00">PaternLinear</text>
</a>
</g>
</g>
<!-- Node1&#45;&gt;Node4 -->
<g id="edge3" class="edge">
<title>Node1&#45;&gt;Node4</title>
<path fill="none" stroke="midnightblue" d="M189.45,-104.14C181.61,-94.74 172.17,-83.4 165.79,-75.75"/>
<polygon fill="midnightblue" stroke="midnightblue" points="186.98,-106.64 196.07,-112.08 192.36,-102.16 186.98,-106.64"/>
</g>
<!-- Node5 -->
<g id="node5" class="node">
<title>Node5</title>
<g id="a_node5"><a xlink:href="../../db/dea/class_patern_rotate.html" target="_top" xlink:title=" ">
<polygon fill="white" stroke="black" points="212.5,-56.5 212.5,-75.5 286.5,-75.5 286.5,-56.5 212.5,-56.5"/>
<text text-anchor="middle" x="249.5" y="-63.5" font-family="Helvetica,sans-Serif" font-size="10.00">PaternRotate</text>
</a>
</g>
</g>
<!-- Node1&#45;&gt;Node5 -->
<g id="edge4" class="edge">
<title>Node1&#45;&gt;Node5</title>
<path fill="none" stroke="midnightblue" d="M217.61,-104.43C225.68,-94.97 235.46,-83.48 242.05,-75.75"/>
<polygon fill="midnightblue" stroke="midnightblue" points="214.92,-102.2 211.1,-112.08 220.25,-106.74 214.92,-102.2"/>
</g>
<!-- Node6 -->
<g id="node6" class="node">
<title>Node6</title>
<g id="a_node6"><a xlink:href="../../dd/d2d/class_patern_v_spread.html" target="_top" xlink:title="A bullet patern that spreads in a V shape">
<polygon fill="white" stroke="black" points="305,-56.5 305,-75.5 388,-75.5 388,-56.5 305,-56.5"/>
<text text-anchor="middle" x="346.5" y="-63.5" font-family="Helvetica,sans-Serif" font-size="10.00">PaternVSpread</text>
</a>
</g>
</g>
<!-- Node1&#45;&gt;Node6 -->
<g id="edge5" class="edge">
<title>Node1&#45;&gt;Node6</title>
<path fill="none" stroke="midnightblue" d="M235.53,-108.91C262.41,-98.75 300.14,-84.51 323.95,-75.52"/>
<polygon fill="midnightblue" stroke="midnightblue" points="234.28,-105.64 226.16,-112.44 236.75,-112.19 234.28,-105.64"/>
</g>
<!-- Node3 -->
<g id="node3" class="node">
<title>Node3</title>
<g id="a_node3"><a xlink:href="../../d1/d25/class_sequence_move_patern.html" target="_top" xlink:title="A patern computed by a sequence of rotation and velocity. &#160;This patern can be loaded from a file cont...">
<polygon fill="white" stroke="black" points="0,-0.5 0,-19.5 113,-19.5 113,-0.5 0,-0.5"/>
<text text-anchor="middle" x="56.5" y="-7.5" font-family="Helvetica,sans-Serif" font-size="10.00">SequenceMovePatern</text>
</a>
</g>
</g>
<!-- Node2&#45;&gt;Node3 -->
<g id="edge2" class="edge">
<title>Node2&#45;&gt;Node3</title>
<path fill="none" stroke="midnightblue" d="M56.5,-45.8C56.5,-36.91 56.5,-26.78 56.5,-19.75"/>
<polygon fill="midnightblue" stroke="midnightblue" points="53,-46.08 56.5,-56.08 60,-46.08 53,-46.08"/>
</g>
</g>
</svg>
