<?xml version="1.0" encoding="UTF-8" standalone="no"?>
<!DOCTYPE svg PUBLIC "-//W3C//DTD SVG 1.1//EN"
 "http://www.w3.org/Graphics/SVG/1.1/DTD/svg11.dtd">
<!-- Generated by graphviz version 2.49.3 (20211027.1534)
 -->
<!-- Title: CircleCollider Pages: 1 -->
<svg width="156pt" height="162pt"
 viewBox="0.00 0.00 155.50 162.00" xmlns="http://www.w3.org/2000/svg" xmlns:xlink="http://www.w3.org/1999/xlink">
<g id="graph0" class="graph" transform="scale(1 1) rotate(0) translate(4 158)">
<title>CircleCollider</title>
<polygon fill="white" stroke="transparent" points="-4,4 -4,-158 151.5,-158 151.5,4 -4,4"/>
<!-- Node1 -->
<g id="node1" class="node">
<title>Node1</title>
<g id="a_node1"><a xlink:title=" ">
<polygon fill="#bfbfbf" stroke="black" points="61,-0.5 61,-19.5 135,-19.5 135,-0.5 61,-0.5"/>
<text text-anchor="middle" x="98" y="-7.5" font-family="Helvetica,sans-Serif" font-size="10.00">CircleCollider</text>
</a>
</g>
</g>
<!-- Node2 -->
<g id="node2" class="node">
<title>Node2</title>
<g id="a_node2"><a xlink:href="../../dc/d1d/class_a_collider.html" target="_top" xlink:title=" ">
<polygon fill="white" stroke="black" points="38,-67.5 38,-86.5 94,-86.5 94,-67.5 38,-67.5"/>
<text text-anchor="middle" x="66" y="-74.5" font-family="Helvetica,sans-Serif" font-size="10.00">ACollider</text>
</a>
</g>
</g>
<!-- Node2&#45;&gt;Node1 -->
<g id="edge1" class="edge">
<title>Node2&#45;&gt;Node1</title>
<path fill="none" stroke="midnightblue" d="M74.78,-58.16C80.95,-45.63 88.94,-29.41 93.75,-19.63"/>
<polygon fill="midnightblue" stroke="midnightblue" points="71.59,-56.72 70.32,-67.23 77.87,-59.81 71.59,-56.72"/>
</g>
<!-- Node3 -->
<g id="node3" class="node">
<title>Node3</title>
<g id="a_node3"><a xlink:title=" ">
<polygon fill="white" stroke="#bfbfbf" points="0,-134.5 0,-153.5 50,-153.5 50,-134.5 0,-134.5"/>
<text text-anchor="middle" x="25" y="-141.5" font-family="Helvetica,sans-Serif" font-size="10.00">Vector2</text>
</a>
</g>
</g>
<!-- Node3&#45;&gt;Node2 -->
<g id="edge2" class="edge">
<title>Node3&#45;&gt;Node2</title>
<path fill="none" stroke="#9a32cd" stroke-dasharray="5,2" d="M36.02,-125.53C43.95,-112.95 54.33,-96.51 60.56,-86.63"/>
<polygon fill="#9a32cd" stroke="#9a32cd" points="32.9,-123.91 30.53,-134.23 38.82,-127.64 32.9,-123.91"/>
<text text-anchor="middle" x="60" y="-108" font-family="Helvetica,sans-Serif" font-size="10.00"> pivot</text>
</g>
<!-- Node4 -->
<g id="node4" class="node">
<title>Node4</title>
<g id="a_node4"><a xlink:title=" ">
<polygon fill="white" stroke="#bfbfbf" points="68.5,-134.5 68.5,-153.5 145.5,-153.5 145.5,-134.5 68.5,-134.5"/>
<text text-anchor="middle" x="107" y="-141.5" font-family="Helvetica,sans-Serif" font-size="10.00">CollisionLayer</text>
</a>
</g>
</g>
<!-- Node4&#45;&gt;Node2 -->
<g id="edge3" class="edge">
<title>Node4&#45;&gt;Node2</title>
<path fill="none" stroke="#9a32cd" stroke-dasharray="5,2" d="M95.98,-125.53C88.05,-112.95 77.67,-96.51 71.44,-86.63"/>
<polygon fill="#9a32cd" stroke="#9a32cd" points="93.18,-127.64 101.47,-134.23 99.1,-123.91 93.18,-127.64"/>
<text text-anchor="middle" x="100.5" y="-108" font-family="Helvetica,sans-Serif" font-size="10.00"> layer</text>
</g>
<!-- Node5 -->
<g id="node5" class="node">
<title>Node5</title>
<g id="a_node5"><a xlink:title=" ">
<polygon fill="white" stroke="#bfbfbf" points="112.5,-67.5 112.5,-86.5 147.5,-86.5 147.5,-67.5 112.5,-67.5"/>
<text text-anchor="middle" x="130" y="-74.5" font-family="Helvetica,sans-Serif" font-size="10.00">float</text>
</a>
</g>
</g>
<!-- Node5&#45;&gt;Node1 -->
<g id="edge4" class="edge">
<title>Node5&#45;&gt;Node1</title>
<path fill="none" stroke="#9a32cd" stroke-dasharray="5,2" d="M121.22,-58.16C115.05,-45.63 107.06,-29.41 102.25,-19.63"/>
<polygon fill="#9a32cd" stroke="#9a32cd" points="118.13,-59.81 125.68,-67.23 124.41,-56.72 118.13,-59.81"/>
<text text-anchor="middle" x="129.5" y="-41" font-family="Helvetica,sans-Serif" font-size="10.00"> radius</text>
</g>
</g>
</svg>
