<?xml version="1.0" encoding="UTF-8" standalone="no"?>
<!DOCTYPE svg PUBLIC "-//W3C//DTD SVG 1.1//EN"
 "http://www.w3.org/Graphics/SVG/1.1/DTD/svg11.dtd">
<!-- Generated by graphviz version 2.49.3 (20211027.1534)
 -->
<!-- Title: RayLib_SHMUP/include/Shmup/Movable/Player.h Pages: 1 -->
<svg width="868pt" height="341pt"
 viewBox="0.00 0.00 867.50 341.00" xmlns="http://www.w3.org/2000/svg" xmlns:xlink="http://www.w3.org/1999/xlink">
<g id="graph0" class="graph" transform="scale(1 1) rotate(0) translate(4 337)">
<title>RayLib_SHMUP/include/Shmup/Movable/Player.h</title>
<polygon fill="white" stroke="transparent" points="-4,4 -4,-337 863.5,-337 863.5,4 -4,4"/>
<!-- Node1 -->
<g id="node1" class="node">
<title>Node1</title>
<g id="a_node1"><a xlink:title=" ">
<polygon fill="#bfbfbf" stroke="black" points="542,-302.5 542,-332.5 670,-332.5 670,-302.5 542,-302.5"/>
<text text-anchor="start" x="550" y="-320.5" font-family="Helvetica,sans-Serif" font-size="10.00">RayLib_SHMUP/include</text>
<text text-anchor="middle" x="606" y="-309.5" font-family="Helvetica,sans-Serif" font-size="10.00">/Shmup/Movable/Player.h</text>
</a>
</g>
</g>
<!-- Node2 -->
<g id="node2" class="node">
<title>Node2</title>
<g id="a_node2"><a xlink:href="../../de/d15/_shoot_8h.html" target="_top" xlink:title=" ">
<polygon fill="white" stroke="black" points="343.5,-241 343.5,-260 466.5,-260 466.5,-241 343.5,-241"/>
<text text-anchor="middle" x="405" y="-248" font-family="Helvetica,sans-Serif" font-size="10.00">Shmup/Movable/Shoot.h</text>
</a>
</g>
</g>
<!-- Node1&#45;&gt;Node2 -->
<g id="edge1" class="edge">
<title>Node1&#45;&gt;Node2</title>
<path fill="none" stroke="midnightblue" d="M562.39,-302.4C526.03,-290.64 474.85,-274.09 440.84,-263.09"/>
<polygon fill="midnightblue" stroke="midnightblue" points="441.9,-259.75 431.31,-260.01 439.74,-266.41 441.9,-259.75"/>
</g>
<!-- Node14 -->
<g id="node14" class="node">
<title>Node14</title>
<g id="a_node14"><a xlink:href="../../df/db3/_patern_v_spread_8h.html" target="_top" xlink:title=" ">
<polygon fill="white" stroke="black" points="615.5,-235.5 615.5,-265.5 728.5,-265.5 728.5,-235.5 615.5,-235.5"/>
<text text-anchor="start" x="623.5" y="-253.5" font-family="Helvetica,sans-Serif" font-size="10.00">Shmup/Paterns/Shoot</text>
<text text-anchor="middle" x="672" y="-242.5" font-family="Helvetica,sans-Serif" font-size="10.00">/PaternVSpread.h</text>
</a>
</g>
</g>
<!-- Node1&#45;&gt;Node14 -->
<g id="edge21" class="edge">
<title>Node1&#45;&gt;Node14</title>
<path fill="none" stroke="midnightblue" d="M620.32,-302.4C629.14,-293.71 640.62,-282.4 650.52,-272.66"/>
<polygon fill="midnightblue" stroke="midnightblue" points="653.04,-275.09 657.71,-265.58 648.13,-270.1 653.04,-275.09"/>
</g>
<!-- Node15 -->
<g id="node15" class="node">
<title>Node15</title>
<g id="a_node15"><a xlink:href="../../d3/dff/_patern_linear_8h.html" target="_top" xlink:title=" ">
<polygon fill="white" stroke="black" points="746.5,-235.5 746.5,-265.5 859.5,-265.5 859.5,-235.5 746.5,-235.5"/>
<text text-anchor="start" x="754.5" y="-253.5" font-family="Helvetica,sans-Serif" font-size="10.00">Shmup/Paterns/Shoot</text>
<text text-anchor="middle" x="803" y="-242.5" font-family="Helvetica,sans-Serif" font-size="10.00">/PaternLinear.h</text>
</a>
</g>
</g>
<!-- Node1&#45;&gt;Node15 -->
<g id="edge23" class="edge">
<title>Node1&#45;&gt;Node15</title>
<path fill="none" stroke="midnightblue" d="M648.75,-302.4C678.69,-292.52 718.89,-279.25 750.74,-268.74"/>
<polygon fill="midnightblue" stroke="midnightblue" points="751.94,-272.03 760.34,-265.58 749.74,-265.39 751.94,-272.03"/>
</g>
<!-- Node16 -->
<g id="node16" class="node">
<title>Node16</title>
<g id="a_node16"><a xlink:href="../../d2/dff/_patern_rotate_8h.html" target="_top" xlink:title=" ">
<polygon fill="white" stroke="black" points="484.5,-235.5 484.5,-265.5 597.5,-265.5 597.5,-235.5 484.5,-235.5"/>
<text text-anchor="start" x="492.5" y="-253.5" font-family="Helvetica,sans-Serif" font-size="10.00">Shmup/Paterns/Shoot</text>
<text text-anchor="middle" x="541" y="-242.5" font-family="Helvetica,sans-Serif" font-size="10.00">/PaternRotate.h</text>
</a>
</g>
</g>
<!-- Node1&#45;&gt;Node16 -->
<g id="edge25" class="edge">
<title>Node1&#45;&gt;Node16</title>
<path fill="none" stroke="midnightblue" d="M591.9,-302.4C583.21,-293.71 571.9,-282.4 562.16,-272.66"/>
<polygon fill="midnightblue" stroke="midnightblue" points="564.62,-270.17 555.08,-265.58 559.67,-275.12 564.62,-270.17"/>
</g>
<!-- Node3 -->
<g id="node3" class="node">
<title>Node3</title>
<g id="a_node3"><a xlink:title=" ">
<polygon fill="white" stroke="#bfbfbf" points="426.5,-0.5 426.5,-19.5 473.5,-19.5 473.5,-0.5 426.5,-0.5"/>
<text text-anchor="middle" x="450" y="-7.5" font-family="Helvetica,sans-Serif" font-size="10.00">raylib.h</text>
</a>
</g>
</g>
<!-- Node2&#45;&gt;Node3 -->
<g id="edge2" class="edge">
<title>Node2&#45;&gt;Node3</title>
<path fill="none" stroke="midnightblue" d="M432.33,-240.96C451.67,-233.32 476.18,-220.03 488,-199 500.2,-177.3 551.06,-250.44 483,-56 479.33,-45.52 472.34,-35.41 465.73,-27.44"/>
<polygon fill="midnightblue" stroke="midnightblue" points="468.14,-24.87 458.89,-19.71 462.89,-29.51 468.14,-24.87"/>
</g>
<!-- Node4 -->
<g id="node4" class="node">
<title>Node4</title>
<g id="a_node4"><a xlink:href="../../db/d1b/_a_movable_8h.html" target="_top" xlink:title=" ">
<polygon fill="white" stroke="black" points="378.5,-179.5 378.5,-198.5 479.5,-198.5 479.5,-179.5 378.5,-179.5"/>
<text text-anchor="middle" x="429" y="-186.5" font-family="Helvetica,sans-Serif" font-size="10.00">Shmup/AMovable.h</text>
</a>
</g>
</g>
<!-- Node2&#45;&gt;Node4 -->
<g id="edge3" class="edge">
<title>Node2&#45;&gt;Node4</title>
<path fill="none" stroke="midnightblue" d="M408.44,-240.98C411.9,-232.4 417.33,-218.93 421.75,-207.98"/>
<polygon fill="midnightblue" stroke="midnightblue" points="425.07,-209.09 425.57,-198.51 418.58,-206.47 425.07,-209.09"/>
</g>
<!-- Node10 -->
<g id="node10" class="node">
<title>Node10</title>
<g id="a_node10"><a xlink:href="../../df/d50/_a_patern_8h.html" target="_top" xlink:title=" ">
<polygon fill="white" stroke="black" points="584,-179.5 584,-198.5 714,-198.5 714,-179.5 584,-179.5"/>
<text text-anchor="middle" x="649" y="-186.5" font-family="Helvetica,sans-Serif" font-size="10.00">Shmup/Paterns/APatern.h</text>
</a>
</g>
</g>
<!-- Node2&#45;&gt;Node10 -->
<g id="edge12" class="edge">
<title>Node2&#45;&gt;Node10</title>
<path fill="none" stroke="midnightblue" d="M439.96,-240.98C483.17,-230.44 556.79,-212.49 604.13,-200.94"/>
<polygon fill="midnightblue" stroke="midnightblue" points="605.22,-204.28 614.11,-198.51 603.56,-197.48 605.22,-204.28"/>
</g>
<!-- Node11 -->
<g id="node11" class="node">
<title>Node11</title>
<g id="a_node11"><a xlink:href="../../d5/d36/_collider_8h.html" target="_top" xlink:title=" ">
<polygon fill="white" stroke="black" points="215,-123.5 215,-142.5 345,-142.5 345,-123.5 215,-123.5"/>
<text text-anchor="middle" x="280" y="-130.5" font-family="Helvetica,sans-Serif" font-size="10.00">Shmup/Collision/Collider.h</text>
</a>
</g>
</g>
<!-- Node2&#45;&gt;Node11 -->
<g id="edge13" class="edge">
<title>Node2&#45;&gt;Node11</title>
<path fill="none" stroke="midnightblue" d="M395.99,-240.7C382.16,-227.25 354.8,-200.83 331,-179 319.98,-168.9 307.4,-157.79 297.48,-149.13"/>
<polygon fill="midnightblue" stroke="midnightblue" points="299.72,-146.44 289.88,-142.52 295.12,-151.72 299.72,-146.44"/>
</g>
<!-- Node13 -->
<g id="node13" class="node">
<title>Node13</title>
<g id="a_node13"><a xlink:href="../../d3/d72/_a_collidable_8h.html" target="_top" xlink:title=" ">
<polygon fill="white" stroke="black" points="176,-179.5 176,-198.5 322,-198.5 322,-179.5 176,-179.5"/>
<text text-anchor="middle" x="249" y="-186.5" font-family="Helvetica,sans-Serif" font-size="10.00">Shmup/Collision/ACollidable.h</text>
</a>
</g>
</g>
<!-- Node2&#45;&gt;Node13 -->
<g id="edge18" class="edge">
<title>Node2&#45;&gt;Node13</title>
<path fill="none" stroke="midnightblue" d="M382.65,-240.98C356.01,-230.81 311.29,-213.76 280.99,-202.2"/>
<polygon fill="midnightblue" stroke="midnightblue" points="281.9,-198.8 271.31,-198.51 279.41,-205.34 281.9,-198.8"/>
</g>
<!-- Node4&#45;&gt;Node3 -->
<g id="edge4" class="edge">
<title>Node4&#45;&gt;Node3</title>
<path fill="none" stroke="midnightblue" d="M439.71,-179.3C448.94,-171.07 461.59,-157.79 467,-143 481.23,-104.09 467.19,-54.93 457.5,-28.97"/>
<polygon fill="midnightblue" stroke="midnightblue" points="460.75,-27.67 453.82,-19.65 454.23,-30.23 460.75,-27.67"/>
</g>
<!-- Node5 -->
<g id="node5" class="node">
<title>Node5</title>
<g id="a_node5"><a xlink:href="../../d7/daf/_a_graphic_object_8h.html" target="_top" xlink:title=" ">
<polygon fill="white" stroke="black" points="365.5,-123.5 365.5,-142.5 458.5,-142.5 458.5,-123.5 365.5,-123.5"/>
<text text-anchor="middle" x="412" y="-130.5" font-family="Helvetica,sans-Serif" font-size="10.00">AGraphicObject.h</text>
</a>
</g>
</g>
<!-- Node4&#45;&gt;Node5 -->
<g id="edge5" class="edge">
<title>Node4&#45;&gt;Node5</title>
<path fill="none" stroke="midnightblue" d="M426.19,-179.08C423.92,-171.85 420.63,-161.41 417.79,-152.4"/>
<polygon fill="midnightblue" stroke="midnightblue" points="421.1,-151.24 414.75,-142.75 414.42,-153.34 421.1,-151.24"/>
</g>
<!-- Node5&#45;&gt;Node3 -->
<g id="edge6" class="edge">
<title>Node5&#45;&gt;Node3</title>
<path fill="none" stroke="midnightblue" d="M416.2,-123.19C420.36,-114.23 426.7,-99.87 431,-87 437.45,-67.69 442.85,-44.98 446.23,-29.45"/>
<polygon fill="midnightblue" stroke="midnightblue" points="449.67,-30.06 448.31,-19.56 442.82,-28.62 449.67,-30.06"/>
</g>
<!-- Node6 -->
<g id="node6" class="node">
<title>Node6</title>
<g id="a_node6"><a xlink:href="../../dc/d80/_instance_list_8h.html" target="_top" xlink:title=" ">
<polygon fill="white" stroke="black" points="0,-62 0,-81 112,-81 112,-62 0,-62"/>
<text text-anchor="middle" x="56" y="-69" font-family="Helvetica,sans-Serif" font-size="10.00">Shmup/InstanceList.h</text>
</a>
</g>
</g>
<!-- Node5&#45;&gt;Node6 -->
<g id="edge7" class="edge">
<title>Node5&#45;&gt;Node6</title>
<path fill="none" stroke="midnightblue" d="M365.46,-124.78C361.59,-124.18 357.73,-123.58 354,-123 250.45,-106.97 223.97,-106.42 121,-87 114.89,-85.85 108.47,-84.54 102.15,-83.19"/>
<polygon fill="midnightblue" stroke="midnightblue" points="102.87,-79.76 92.35,-81.05 101.38,-86.6 102.87,-79.76"/>
</g>
<!-- Node9 -->
<g id="node9" class="node">
<title>Node9</title>
<g id="a_node9"><a xlink:href="../../da/d02/_transform2_d_8h.html" target="_top" xlink:title=" ">
<polygon fill="white" stroke="black" points="308,-62 308,-81 422,-81 422,-62 308,-62"/>
<text text-anchor="middle" x="365" y="-69" font-family="Helvetica,sans-Serif" font-size="10.00">Shmup/Transform2D.h</text>
</a>
</g>
</g>
<!-- Node5&#45;&gt;Node9 -->
<g id="edge10" class="edge">
<title>Node5&#45;&gt;Node9</title>
<path fill="none" stroke="midnightblue" d="M405.27,-123.48C398.22,-114.55 386.97,-100.31 378.15,-89.14"/>
<polygon fill="midnightblue" stroke="midnightblue" points="380.67,-86.69 371.72,-81.01 375.17,-91.03 380.67,-86.69"/>
</g>
<!-- Node7 -->
<g id="node7" class="node">
<title>Node7</title>
<g id="a_node7"><a xlink:title=" ">
<polygon fill="white" stroke="#bfbfbf" points="29,-0.5 29,-19.5 83,-19.5 83,-0.5 29,-0.5"/>
<text text-anchor="middle" x="56" y="-7.5" font-family="Helvetica,sans-Serif" font-size="10.00">iostream</text>
</a>
</g>
</g>
<!-- Node6&#45;&gt;Node7 -->
<g id="edge8" class="edge">
<title>Node6&#45;&gt;Node7</title>
<path fill="none" stroke="midnightblue" d="M56,-61.98C56,-53.58 56,-40.48 56,-29.66"/>
<polygon fill="midnightblue" stroke="midnightblue" points="59.5,-29.51 56,-19.51 52.5,-29.51 59.5,-29.51"/>
</g>
<!-- Node8 -->
<g id="node8" class="node">
<title>Node8</title>
<g id="a_node8"><a xlink:title=" ">
<polygon fill="white" stroke="#bfbfbf" points="135,-0.5 135,-19.5 179,-19.5 179,-0.5 135,-0.5"/>
<text text-anchor="middle" x="157" y="-7.5" font-family="Helvetica,sans-Serif" font-size="10.00">vector</text>
</a>
</g>
</g>
<!-- Node6&#45;&gt;Node8 -->
<g id="edge9" class="edge">
<title>Node6&#45;&gt;Node8</title>
<path fill="none" stroke="midnightblue" d="M70.47,-61.98C86.97,-52.25 114.18,-36.23 133.68,-24.74"/>
<polygon fill="midnightblue" stroke="midnightblue" points="135.72,-27.6 142.56,-19.51 132.16,-21.57 135.72,-27.6"/>
</g>
<!-- Node9&#45;&gt;Node3 -->
<g id="edge11" class="edge">
<title>Node9&#45;&gt;Node3</title>
<path fill="none" stroke="midnightblue" d="M377.18,-61.98C390.81,-52.43 413.13,-36.81 429.47,-25.37"/>
<polygon fill="midnightblue" stroke="midnightblue" points="431.66,-28.11 437.84,-19.51 427.64,-22.38 431.66,-28.11"/>
</g>
<!-- Node11&#45;&gt;Node3 -->
<g id="edge14" class="edge">
<title>Node11&#45;&gt;Node3</title>
<path fill="none" stroke="midnightblue" d="M279.58,-123.42C279.31,-107.84 281.05,-74.77 299,-56 329.67,-23.93 382.1,-14.43 416.4,-11.78"/>
<polygon fill="midnightblue" stroke="midnightblue" points="416.66,-15.27 426.42,-11.16 416.22,-8.29 416.66,-15.27"/>
</g>
<!-- Node11&#45;&gt;Node9 -->
<g id="edge15" class="edge">
<title>Node11&#45;&gt;Node9</title>
<path fill="none" stroke="midnightblue" d="M292.18,-123.48C305.81,-113.93 328.13,-98.31 344.47,-86.87"/>
<polygon fill="midnightblue" stroke="midnightblue" points="346.66,-89.61 352.84,-81.01 342.64,-83.88 346.66,-89.61"/>
</g>
<!-- Node12 -->
<g id="node12" class="node">
<title>Node12</title>
<g id="a_node12"><a xlink:href="../../de/d60/_collider_settings_8h.html" target="_top" xlink:title=" ">
<polygon fill="white" stroke="black" points="130,-56.5 130,-86.5 252,-86.5 252,-56.5 130,-56.5"/>
<text text-anchor="start" x="138" y="-74.5" font-family="Helvetica,sans-Serif" font-size="10.00">Shmup/Collision/Collider</text>
<text text-anchor="middle" x="191" y="-63.5" font-family="Helvetica,sans-Serif" font-size="10.00">Settings.h</text>
</a>
</g>
</g>
<!-- Node11&#45;&gt;Node12 -->
<g id="edge16" class="edge">
<title>Node11&#45;&gt;Node12</title>
<path fill="none" stroke="midnightblue" d="M267.25,-123.48C255.08,-115.34 236.31,-102.79 220.44,-92.18"/>
<polygon fill="midnightblue" stroke="midnightblue" points="222.23,-89.17 211.98,-86.52 218.34,-94.99 222.23,-89.17"/>
</g>
<!-- Node12&#45;&gt;Node8 -->
<g id="edge17" class="edge">
<title>Node12&#45;&gt;Node8</title>
<path fill="none" stroke="midnightblue" d="M182.94,-56.4C178.15,-48.02 172.04,-37.33 166.96,-28.42"/>
<polygon fill="midnightblue" stroke="midnightblue" points="169.95,-26.6 161.95,-19.66 163.87,-30.08 169.95,-26.6"/>
</g>
<!-- Node13&#45;&gt;Node6 -->
<g id="edge20" class="edge">
<title>Node13&#45;&gt;Node6</title>
<path fill="none" stroke="midnightblue" d="M234.49,-179.32C201.23,-159.41 119.24,-110.34 79.01,-86.27"/>
<polygon fill="midnightblue" stroke="midnightblue" points="80.79,-83.26 70.41,-81.12 77.19,-89.26 80.79,-83.26"/>
</g>
<!-- Node13&#45;&gt;Node11 -->
<g id="edge19" class="edge">
<title>Node13&#45;&gt;Node11</title>
<path fill="none" stroke="midnightblue" d="M254.12,-179.08C258.41,-171.61 264.66,-160.72 269.94,-151.52"/>
<polygon fill="midnightblue" stroke="midnightblue" points="273.03,-153.17 274.98,-142.75 266.96,-149.68 273.03,-153.17"/>
</g>
<!-- Node14&#45;&gt;Node10 -->
<g id="edge22" class="edge">
<title>Node14&#45;&gt;Node10</title>
<path fill="none" stroke="midnightblue" d="M666.55,-235.4C663.38,-227.2 659.35,-216.78 655.96,-207.99"/>
<polygon fill="midnightblue" stroke="midnightblue" points="659.22,-206.72 652.35,-198.66 652.69,-209.25 659.22,-206.72"/>
</g>
<!-- Node15&#45;&gt;Node10 -->
<g id="edge24" class="edge">
<title>Node15&#45;&gt;Node10</title>
<path fill="none" stroke="midnightblue" d="M766.5,-235.4C740.43,-225.33 705.71,-211.91 680.78,-202.28"/>
<polygon fill="midnightblue" stroke="midnightblue" points="682,-199 671.41,-198.66 679.47,-205.53 682,-199"/>
</g>
<!-- Node16&#45;&gt;Node10 -->
<g id="edge26" class="edge">
<title>Node16&#45;&gt;Node10</title>
<path fill="none" stroke="midnightblue" d="M566.59,-235.4C584.07,-225.77 607.09,-213.09 624.36,-203.58"/>
<polygon fill="midnightblue" stroke="midnightblue" points="626.22,-206.55 633.29,-198.66 622.84,-200.42 626.22,-206.55"/>
</g>
</g>
</svg>
