<?xml version="1.0" encoding="UTF-8" standalone="no"?>
<!DOCTYPE svg PUBLIC "-//W3C//DTD SVG 1.1//EN"
 "http://www.w3.org/Graphics/SVG/1.1/DTD/svg11.dtd">
<!-- Generated by graphviz version 2.49.3 (20211027.1534)
 -->
<!-- Title: RayLib_SHMUP/include/Shmup/Movable/Player.h Pages: 1 -->
<svg width="590pt" height="341pt"
 viewBox="0.00 0.00 590.10 341.00" xmlns="http://www.w3.org/2000/svg" xmlns:xlink="http://www.w3.org/1999/xlink">
<g id="graph0" class="graph" transform="scale(1 1) rotate(0) translate(4 337)">
<title>RayLib_SHMUP/include/Shmup/Movable/Player.h</title>
<polygon fill="white" stroke="transparent" points="-4,4 -4,-337 586.1,-337 586.1,4 -4,4"/>
<!-- Node1 -->
<g id="node1" class="node">
<title>Node1</title>
<g id="a_node1"><a xlink:title=" ">
<polygon fill="#bfbfbf" stroke="black" points="226.1,-302.5 226.1,-332.5 354.1,-332.5 354.1,-302.5 226.1,-302.5"/>
<text text-anchor="start" x="234.1" y="-320.5" font-family="Helvetica,sans-Serif" font-size="10.00">RayLib_SHMUP/include</text>
<text text-anchor="middle" x="290.1" y="-309.5" font-family="Helvetica,sans-Serif" font-size="10.00">/Shmup/Movable/Player.h</text>
</a>
</g>
</g>
<!-- Node2 -->
<g id="node2" class="node">
<title>Node2</title>
<g id="a_node2"><a xlink:href="../../de/d15/_shoot_8h.html" target="_top" xlink:title=" ">
<polygon fill="white" stroke="black" points="92.6,-241 92.6,-260 215.6,-260 215.6,-241 92.6,-241"/>
<text text-anchor="middle" x="154.1" y="-248" font-family="Helvetica,sans-Serif" font-size="10.00">Shmup/Movable/Shoot.h</text>
</a>
</g>
</g>
<!-- Node1&#45;&gt;Node2 -->
<g id="edge1" class="edge">
<title>Node1&#45;&gt;Node2</title>
<path fill="none" stroke="midnightblue" d="M260.59,-302.4C236.94,-291.09 204.03,-275.36 181.07,-264.39"/>
<polygon fill="midnightblue" stroke="midnightblue" points="182.43,-261.16 171.9,-260.01 179.42,-267.48 182.43,-261.16"/>
</g>
<!-- Node15 -->
<g id="node15" class="node">
<title>Node15</title>
<g id="a_node15"><a xlink:href="../../df/db3/_patern_v_spread_8h.html" target="_top" xlink:title=" ">
<polygon fill="white" stroke="black" points="364.6,-235.5 364.6,-265.5 477.6,-265.5 477.6,-235.5 364.6,-235.5"/>
<text text-anchor="start" x="372.6" y="-253.5" font-family="Helvetica,sans-Serif" font-size="10.00">Shmup/Paterns/Shoot</text>
<text text-anchor="middle" x="421.1" y="-242.5" font-family="Helvetica,sans-Serif" font-size="10.00">/PaternVSpread.h</text>
</a>
</g>
</g>
<!-- Node1&#45;&gt;Node15 -->
<g id="edge22" class="edge">
<title>Node1&#45;&gt;Node15</title>
<path fill="none" stroke="midnightblue" d="M318.53,-302.4C337.58,-292.94 362.88,-280.39 383.58,-270.12"/>
<polygon fill="midnightblue" stroke="midnightblue" points="385.33,-273.16 392.73,-265.58 382.22,-266.89 385.33,-273.16"/>
</g>
<!-- Node16 -->
<g id="node16" class="node">
<title>Node16</title>
<g id="a_node16"><a xlink:href="../../d3/dff/_patern_linear_8h.html" target="_top" xlink:title=" ">
<polygon fill="white" stroke="black" points="233.6,-235.5 233.6,-265.5 346.6,-265.5 346.6,-235.5 233.6,-235.5"/>
<text text-anchor="start" x="241.6" y="-253.5" font-family="Helvetica,sans-Serif" font-size="10.00">Shmup/Paterns/Shoot</text>
<text text-anchor="middle" x="290.1" y="-242.5" font-family="Helvetica,sans-Serif" font-size="10.00">/PaternLinear.h</text>
</a>
</g>
</g>
<!-- Node1&#45;&gt;Node16 -->
<g id="edge24" class="edge">
<title>Node1&#45;&gt;Node16</title>
<path fill="none" stroke="midnightblue" d="M290.1,-302.4C290.1,-294.64 290.1,-284.81 290.1,-275.86"/>
<polygon fill="midnightblue" stroke="midnightblue" points="293.6,-275.58 290.1,-265.58 286.6,-275.58 293.6,-275.58"/>
</g>
<!-- Node3 -->
<g id="node3" class="node">
<title>Node3</title>
<g id="a_node3"><a xlink:title=" ">
<polygon fill="white" stroke="#bfbfbf" points="30.6,-0.5 30.6,-19.5 77.6,-19.5 77.6,-0.5 30.6,-0.5"/>
<text text-anchor="middle" x="54.1" y="-7.5" font-family="Helvetica,sans-Serif" font-size="10.00">raylib.h</text>
</a>
</g>
</g>
<!-- Node2&#45;&gt;Node3 -->
<g id="edge2" class="edge">
<title>Node2&#45;&gt;Node3</title>
<path fill="none" stroke="midnightblue" d="M92.35,-243.09C63.9,-236.69 32.63,-224.02 15.1,-199 -22.31,-145.6 20.22,-64.04 42.37,-28.53"/>
<polygon fill="midnightblue" stroke="midnightblue" points="45.52,-30.11 47.99,-19.8 39.64,-26.32 45.52,-30.11"/>
</g>
<!-- Node4 -->
<g id="node4" class="node">
<title>Node4</title>
<g id="a_node4"><a xlink:href="../../db/d1b/_a_movable_8h.html" target="_top" xlink:title=" ">
<polygon fill="white" stroke="black" points="24.6,-179.5 24.6,-198.5 125.6,-198.5 125.6,-179.5 24.6,-179.5"/>
<text text-anchor="middle" x="75.1" y="-186.5" font-family="Helvetica,sans-Serif" font-size="10.00">Shmup/AMovable.h</text>
</a>
</g>
</g>
<!-- Node2&#45;&gt;Node4 -->
<g id="edge3" class="edge">
<title>Node2&#45;&gt;Node4</title>
<path fill="none" stroke="midnightblue" d="M142.78,-240.98C130.23,-231.52 109.75,-216.1 94.6,-204.69"/>
<polygon fill="midnightblue" stroke="midnightblue" points="96.49,-201.73 86.4,-198.51 92.28,-207.32 96.49,-201.73"/>
</g>
<!-- Node10 -->
<g id="node10" class="node">
<title>Node10</title>
<g id="a_node10"><a xlink:href="../../df/d50/_a_patern_8h.html" target="_top" xlink:title=" ">
<polygon fill="white" stroke="black" points="346.1,-179.5 346.1,-198.5 476.1,-198.5 476.1,-179.5 346.1,-179.5"/>
<text text-anchor="middle" x="411.1" y="-186.5" font-family="Helvetica,sans-Serif" font-size="10.00">Shmup/Paterns/APatern.h</text>
</a>
</g>
</g>
<!-- Node2&#45;&gt;Node10 -->
<g id="edge12" class="edge">
<title>Node2&#45;&gt;Node10</title>
<path fill="none" stroke="midnightblue" d="M190.92,-240.98C236.63,-230.39 314.63,-212.34 364.47,-200.8"/>
<polygon fill="midnightblue" stroke="midnightblue" points="365.4,-204.17 374.35,-198.51 363.82,-197.35 365.4,-204.17"/>
</g>
<!-- Node11 -->
<g id="node11" class="node">
<title>Node11</title>
<g id="a_node11"><a xlink:href="../../d5/d36/_collider_8h.html" target="_top" xlink:title=" ">
<polygon fill="white" stroke="black" points="174.1,-123.5 174.1,-142.5 304.1,-142.5 304.1,-123.5 174.1,-123.5"/>
<text text-anchor="middle" x="239.1" y="-130.5" font-family="Helvetica,sans-Serif" font-size="10.00">Shmup/Collision/Collider.h</text>
</a>
</g>
</g>
<!-- Node2&#45;&gt;Node11 -->
<g id="edge13" class="edge">
<title>Node2&#45;&gt;Node11</title>
<path fill="none" stroke="midnightblue" d="M154.52,-240.88C155.6,-226.73 159.45,-198.22 173.1,-179 182.54,-165.72 197.22,-155.15 210.33,-147.6"/>
<polygon fill="midnightblue" stroke="midnightblue" points="212.38,-150.48 219.51,-142.64 209.05,-144.32 212.38,-150.48"/>
</g>
<!-- Node14 -->
<g id="node14" class="node">
<title>Node14</title>
<g id="a_node14"><a xlink:href="../../d3/d72/_a_collidable_8h.html" target="_top" xlink:title=" ">
<polygon fill="white" stroke="black" points="182.1,-179.5 182.1,-198.5 328.1,-198.5 328.1,-179.5 182.1,-179.5"/>
<text text-anchor="middle" x="255.1" y="-186.5" font-family="Helvetica,sans-Serif" font-size="10.00">Shmup/Collision/ACollidable.h</text>
</a>
</g>
</g>
<!-- Node2&#45;&gt;Node14 -->
<g id="edge19" class="edge">
<title>Node2&#45;&gt;Node14</title>
<path fill="none" stroke="midnightblue" d="M168.57,-240.98C185.07,-231.25 212.28,-215.23 231.78,-203.74"/>
<polygon fill="midnightblue" stroke="midnightblue" points="233.82,-206.6 240.66,-198.51 230.27,-200.57 233.82,-206.6"/>
</g>
<!-- Node4&#45;&gt;Node3 -->
<g id="edge4" class="edge">
<title>Node4&#45;&gt;Node3</title>
<path fill="none" stroke="midnightblue" d="M69,-179.19C63.35,-170.46 55.35,-156.48 52.1,-143 42.62,-103.6 47.19,-55.65 50.93,-29.76"/>
<polygon fill="midnightblue" stroke="midnightblue" points="54.39,-30.23 52.48,-19.81 47.48,-29.15 54.39,-30.23"/>
</g>
<!-- Node5 -->
<g id="node5" class="node">
<title>Node5</title>
<g id="a_node5"><a xlink:href="../../d7/daf/_a_graphic_object_8h.html" target="_top" xlink:title=" ">
<polygon fill="white" stroke="black" points="61.6,-123.5 61.6,-142.5 154.6,-142.5 154.6,-123.5 61.6,-123.5"/>
<text text-anchor="middle" x="108.1" y="-130.5" font-family="Helvetica,sans-Serif" font-size="10.00">AGraphicObject.h</text>
</a>
</g>
</g>
<!-- Node4&#45;&gt;Node5 -->
<g id="edge5" class="edge">
<title>Node4&#45;&gt;Node5</title>
<path fill="none" stroke="midnightblue" d="M80.55,-179.08C85.12,-171.61 91.77,-160.72 97.4,-151.52"/>
<polygon fill="midnightblue" stroke="midnightblue" points="100.53,-153.11 102.75,-142.75 94.55,-149.46 100.53,-153.11"/>
</g>
<!-- Node5&#45;&gt;Node3 -->
<g id="edge6" class="edge">
<title>Node5&#45;&gt;Node3</title>
<path fill="none" stroke="midnightblue" d="M99.65,-123.45C91.68,-114.91 79.95,-101.06 73.1,-87 64.19,-68.7 59.21,-45.82 56.6,-29.97"/>
<polygon fill="midnightblue" stroke="midnightblue" points="60.03,-29.22 55.1,-19.84 53.1,-30.24 60.03,-29.22"/>
</g>
<!-- Node6 -->
<g id="node6" class="node">
<title>Node6</title>
<g id="a_node6"><a xlink:href="../../dc/d80/_instance_list_8h.html" target="_top" xlink:title=" ">
<polygon fill="white" stroke="black" points="330.1,-62 330.1,-81 442.1,-81 442.1,-62 330.1,-62"/>
<text text-anchor="middle" x="386.1" y="-69" font-family="Helvetica,sans-Serif" font-size="10.00">Shmup/InstanceList.h</text>
</a>
</g>
</g>
<!-- Node5&#45;&gt;Node6 -->
<g id="edge7" class="edge">
<title>Node5&#45;&gt;Node6</title>
<path fill="none" stroke="midnightblue" d="M148.76,-123.46C191.45,-114.47 260.52,-99.87 320.1,-87 325.76,-85.78 331.69,-84.49 337.57,-83.2"/>
<polygon fill="midnightblue" stroke="midnightblue" points="338.35,-86.61 347.37,-81.06 336.86,-79.78 338.35,-86.61"/>
</g>
<!-- Node9 -->
<g id="node9" class="node">
<title>Node9</title>
<g id="a_node9"><a xlink:href="../../da/d02/_transform2_d_8h.html" target="_top" xlink:title=" ">
<polygon fill="white" stroke="black" points="82.1,-62 82.1,-81 196.1,-81 196.1,-62 82.1,-62"/>
<text text-anchor="middle" x="139.1" y="-69" font-family="Helvetica,sans-Serif" font-size="10.00">Shmup/Transform2D.h</text>
</a>
</g>
</g>
<!-- Node5&#45;&gt;Node9 -->
<g id="edge10" class="edge">
<title>Node5&#45;&gt;Node9</title>
<path fill="none" stroke="midnightblue" d="M112.54,-123.48C117.06,-114.82 124.18,-101.15 129.91,-90.15"/>
<polygon fill="midnightblue" stroke="midnightblue" points="133.15,-91.49 134.67,-81.01 126.94,-88.26 133.15,-91.49"/>
</g>
<!-- Node7 -->
<g id="node7" class="node">
<title>Node7</title>
<g id="a_node7"><a xlink:title=" ">
<polygon fill="white" stroke="#bfbfbf" points="359.1,-0.5 359.1,-19.5 413.1,-19.5 413.1,-0.5 359.1,-0.5"/>
<text text-anchor="middle" x="386.1" y="-7.5" font-family="Helvetica,sans-Serif" font-size="10.00">iostream</text>
</a>
</g>
</g>
<!-- Node6&#45;&gt;Node7 -->
<g id="edge8" class="edge">
<title>Node6&#45;&gt;Node7</title>
<path fill="none" stroke="midnightblue" d="M386.1,-61.98C386.1,-53.58 386.1,-40.48 386.1,-29.66"/>
<polygon fill="midnightblue" stroke="midnightblue" points="389.6,-29.51 386.1,-19.51 382.6,-29.51 389.6,-29.51"/>
</g>
<!-- Node8 -->
<g id="node8" class="node">
<title>Node8</title>
<g id="a_node8"><a xlink:title=" ">
<polygon fill="white" stroke="#bfbfbf" points="465.1,-0.5 465.1,-19.5 509.1,-19.5 509.1,-0.5 465.1,-0.5"/>
<text text-anchor="middle" x="487.1" y="-7.5" font-family="Helvetica,sans-Serif" font-size="10.00">vector</text>
</a>
</g>
</g>
<!-- Node6&#45;&gt;Node8 -->
<g id="edge9" class="edge">
<title>Node6&#45;&gt;Node8</title>
<path fill="none" stroke="midnightblue" d="M400.57,-61.98C417.07,-52.25 444.28,-36.23 463.78,-24.74"/>
<polygon fill="midnightblue" stroke="midnightblue" points="465.82,-27.6 472.66,-19.51 462.27,-21.57 465.82,-27.6"/>
</g>
<!-- Node9&#45;&gt;Node3 -->
<g id="edge11" class="edge">
<title>Node9&#45;&gt;Node3</title>
<path fill="none" stroke="midnightblue" d="M126.92,-61.98C113.29,-52.43 90.97,-36.81 74.63,-25.37"/>
<polygon fill="midnightblue" stroke="midnightblue" points="76.46,-22.38 66.26,-19.51 72.44,-28.11 76.46,-22.38"/>
</g>
<!-- Node11&#45;&gt;Node3 -->
<g id="edge14" class="edge">
<title>Node11&#45;&gt;Node3</title>
<path fill="none" stroke="midnightblue" d="M237.65,-123.31C234.57,-107.55 225.86,-74.2 205.1,-56 172.16,-27.11 121.33,-16.76 87.89,-13.05"/>
<polygon fill="midnightblue" stroke="midnightblue" points="87.98,-9.55 77.69,-12.07 87.31,-16.51 87.98,-9.55"/>
</g>
<!-- Node11&#45;&gt;Node9 -->
<g id="edge16" class="edge">
<title>Node11&#45;&gt;Node9</title>
<path fill="none" stroke="midnightblue" d="M224.78,-123.48C208.44,-113.75 181.5,-97.73 162.19,-86.24"/>
<polygon fill="midnightblue" stroke="midnightblue" points="163.79,-83.11 153.4,-81.01 160.21,-89.13 163.79,-83.11"/>
</g>
<!-- Node12 -->
<g id="node12" class="node">
<title>Node12</title>
<g id="a_node12"><a xlink:title=" ">
<polygon fill="white" stroke="#bfbfbf" points="252.6,-62 252.6,-81 311.6,-81 311.6,-62 252.6,-62"/>
<text text-anchor="middle" x="282.1" y="-69" font-family="Helvetica,sans-Serif" font-size="10.00">raymath.h</text>
</a>
</g>
</g>
<!-- Node11&#45;&gt;Node12 -->
<g id="edge15" class="edge">
<title>Node11&#45;&gt;Node12</title>
<path fill="none" stroke="midnightblue" d="M245.26,-123.48C251.71,-114.55 262.01,-100.31 270.08,-89.14"/>
<polygon fill="midnightblue" stroke="midnightblue" points="272.93,-91.16 275.95,-81.01 267.26,-87.06 272.93,-91.16"/>
</g>
<!-- Node13 -->
<g id="node13" class="node">
<title>Node13</title>
<g id="a_node13"><a xlink:href="../../de/d60/_collider_settings_8h.html" target="_top" xlink:title=" ">
<polygon fill="white" stroke="black" points="460.1,-56.5 460.1,-86.5 582.1,-86.5 582.1,-56.5 460.1,-56.5"/>
<text text-anchor="start" x="468.1" y="-74.5" font-family="Helvetica,sans-Serif" font-size="10.00">Shmup/Collision/Collider</text>
<text text-anchor="middle" x="521.1" y="-63.5" font-family="Helvetica,sans-Serif" font-size="10.00">Settings.h</text>
</a>
</g>
</g>
<!-- Node11&#45;&gt;Node13 -->
<g id="edge17" class="edge">
<title>Node11&#45;&gt;Node13</title>
<path fill="none" stroke="midnightblue" d="M279.51,-123.48C323.95,-114.1 396.22,-98.85 450.16,-87.47"/>
<polygon fill="midnightblue" stroke="midnightblue" points="450.94,-90.88 460.01,-85.39 449.5,-84.03 450.94,-90.88"/>
</g>
<!-- Node13&#45;&gt;Node8 -->
<g id="edge18" class="edge">
<title>Node13&#45;&gt;Node8</title>
<path fill="none" stroke="midnightblue" d="M513.05,-56.4C508.26,-48.02 502.15,-37.33 497.06,-28.42"/>
<polygon fill="midnightblue" stroke="midnightblue" points="500.05,-26.6 492.05,-19.66 493.97,-30.08 500.05,-26.6"/>
</g>
<!-- Node14&#45;&gt;Node6 -->
<g id="edge21" class="edge">
<title>Node14&#45;&gt;Node6</title>
<path fill="none" stroke="midnightblue" d="M266.95,-179.39C278.89,-170.59 297.69,-156.35 313.1,-143 333.78,-125.09 356.22,-102.97 370.69,-88.34"/>
<polygon fill="midnightblue" stroke="midnightblue" points="373.33,-90.64 377.84,-81.06 368.34,-85.74 373.33,-90.64"/>
</g>
<!-- Node14&#45;&gt;Node11 -->
<g id="edge20" class="edge">
<title>Node14&#45;&gt;Node11</title>
<path fill="none" stroke="midnightblue" d="M252.46,-179.08C250.32,-171.85 247.22,-161.41 244.55,-152.4"/>
<polygon fill="midnightblue" stroke="midnightblue" points="247.89,-151.34 241.7,-142.75 241.18,-153.33 247.89,-151.34"/>
</g>
<!-- Node15&#45;&gt;Node10 -->
<g id="edge23" class="edge">
<title>Node15&#45;&gt;Node10</title>
<path fill="none" stroke="midnightblue" d="M418.73,-235.4C417.38,-227.38 415.68,-217.23 414.22,-208.57"/>
<polygon fill="midnightblue" stroke="midnightblue" points="417.67,-207.94 412.56,-198.66 410.76,-209.1 417.67,-207.94"/>
</g>
<!-- Node16&#45;&gt;Node10 -->
<g id="edge25" class="edge">
<title>Node16&#45;&gt;Node10</title>
<path fill="none" stroke="midnightblue" d="M318.78,-235.4C338.63,-225.64 364.86,-212.74 384.29,-203.18"/>
<polygon fill="midnightblue" stroke="midnightblue" points="386.07,-206.21 393.5,-198.66 382.98,-199.93 386.07,-206.21"/>
</g>
</g>
</svg>
