<?xml version="1.0" encoding="UTF-8" standalone="no"?>
<!DOCTYPE svg PUBLIC "-//W3C//DTD SVG 1.1//EN"
 "http://www.w3.org/Graphics/SVG/1.1/DTD/svg11.dtd">
<!-- Generated by graphviz version 2.49.3 (20211027.1534)
 -->
<!-- Title: AMovable Pages: 1 -->
<svg width="282pt" height="266pt"
 viewBox="0.00 0.00 282.00 266.00" xmlns="http://www.w3.org/2000/svg" xmlns:xlink="http://www.w3.org/1999/xlink">
<g id="graph0" class="graph" transform="scale(1 1) rotate(0) translate(4 262)">
<title>AMovable</title>
<polygon fill="white" stroke="transparent" points="-4,4 -4,-262 278,-262 278,4 -4,4"/>
<!-- Node1 -->
<g id="node1" class="node">
<title>Node1</title>
<g id="a_node1"><a xlink:title=" ">
<polygon fill="#bfbfbf" stroke="black" points="120,-57.5 120,-76.5 180,-76.5 180,-57.5 120,-57.5"/>
<text text-anchor="middle" x="150" y="-64.5" font-family="Helvetica,sans-Serif" font-size="10.00">AMovable</text>
</a>
</g>
</g>
<!-- Node5 -->
<g id="node5" class="node">
<title>Node5</title>
<g id="a_node5"><a xlink:href="../../dd/d7a/class_enemy.html" target="_top" xlink:title="An enemy spaceship">
<polygon fill="white" stroke="black" points="0,-0.5 0,-19.5 46,-19.5 46,-0.5 0,-0.5"/>
<text text-anchor="middle" x="23" y="-7.5" font-family="Helvetica,sans-Serif" font-size="10.00">Enemy</text>
</a>
</g>
</g>
<!-- Node1&#45;&gt;Node5 -->
<g id="edge4" class="edge">
<title>Node1&#45;&gt;Node5</title>
<path fill="none" stroke="midnightblue" d="M120.84,-53.37C96.89,-43 63.62,-28.59 42.7,-19.53"/>
<polygon fill="midnightblue" stroke="midnightblue" points="119.59,-56.64 130.16,-57.41 122.37,-50.22 119.59,-56.64"/>
</g>
<!-- Node6 -->
<g id="node6" class="node">
<title>Node6</title>
<g id="a_node6"><a xlink:href="../../d8/d8c/class_patern_computer.html" target="_top" xlink:title=" ">
<polygon fill="white" stroke="black" points="64.5,-0.5 64.5,-19.5 151.5,-19.5 151.5,-0.5 64.5,-0.5"/>
<text text-anchor="middle" x="108" y="-7.5" font-family="Helvetica,sans-Serif" font-size="10.00">PaternComputer</text>
</a>
</g>
</g>
<!-- Node1&#45;&gt;Node6 -->
<g id="edge5" class="edge">
<title>Node1&#45;&gt;Node6</title>
<path fill="none" stroke="midnightblue" d="M137.2,-49.23C129.76,-39.49 120.69,-27.62 114.66,-19.71"/>
<polygon fill="midnightblue" stroke="midnightblue" points="134.59,-51.58 143.44,-57.41 140.15,-47.33 134.59,-51.58"/>
</g>
<!-- Node7 -->
<g id="node7" class="node">
<title>Node7</title>
<g id="a_node7"><a xlink:href="../../d8/d53/class_player.html" target="_top" xlink:title="The player">
<polygon fill="white" stroke="black" points="170,-0.5 170,-19.5 214,-19.5 214,-0.5 170,-0.5"/>
<text text-anchor="middle" x="192" y="-7.5" font-family="Helvetica,sans-Serif" font-size="10.00">Player</text>
</a>
</g>
</g>
<!-- Node1&#45;&gt;Node7 -->
<g id="edge6" class="edge">
<title>Node1&#45;&gt;Node7</title>
<path fill="none" stroke="midnightblue" d="M162.8,-49.23C170.24,-39.49 179.31,-27.62 185.34,-19.71"/>
<polygon fill="midnightblue" stroke="midnightblue" points="159.85,-47.33 156.56,-57.41 165.41,-51.58 159.85,-47.33"/>
</g>
<!-- Node8 -->
<g id="node8" class="node">
<title>Node8</title>
<g id="a_node8"><a xlink:href="../../d0/d85/class_shoot.html" target="_top" xlink:title="An shoot (player or enemy)">
<polygon fill="white" stroke="black" points="232,-0.5 232,-19.5 274,-19.5 274,-0.5 232,-0.5"/>
<text text-anchor="middle" x="253" y="-7.5" font-family="Helvetica,sans-Serif" font-size="10.00">Shoot</text>
</a>
</g>
</g>
<!-- Node1&#45;&gt;Node8 -->
<g id="edge7" class="edge">
<title>Node1&#45;&gt;Node8</title>
<path fill="none" stroke="midnightblue" d="M174.95,-52.68C194.26,-42.36 220.43,-28.39 237.02,-19.53"/>
<polygon fill="midnightblue" stroke="midnightblue" points="173.27,-49.61 166.09,-57.41 176.56,-55.78 173.27,-49.61"/>
</g>
<!-- Node2 -->
<g id="node2" class="node">
<title>Node2</title>
<g id="a_node2"><a xlink:href="../../d3/d92/class_a_graphic_object.html" target="_top" xlink:title="An object that can be drawn and updated">
<polygon fill="white" stroke="black" points="107,-114.5 107,-133.5 193,-133.5 193,-114.5 107,-114.5"/>
<text text-anchor="middle" x="150" y="-121.5" font-family="Helvetica,sans-Serif" font-size="10.00">AGraphicObject</text>
</a>
</g>
</g>
<!-- Node2&#45;&gt;Node1 -->
<g id="edge1" class="edge">
<title>Node2&#45;&gt;Node1</title>
<path fill="none" stroke="midnightblue" d="M150,-104.12C150,-94.82 150,-84.06 150,-76.71"/>
<polygon fill="midnightblue" stroke="midnightblue" points="146.5,-104.41 150,-114.41 153.5,-104.41 146.5,-104.41"/>
</g>
<!-- Node3 -->
<g id="node3" class="node">
<title>Node3</title>
<g id="a_node3"><a xlink:href="../../db/d70/class_instance_list.html" target="_top" xlink:title=" ">
<polygon fill="white" stroke="black" points="72,-171.5 72,-190.5 228,-190.5 228,-171.5 72,-171.5"/>
<text text-anchor="middle" x="150" y="-178.5" font-family="Helvetica,sans-Serif" font-size="10.00">InstanceList&lt; AGraphicObject &gt;</text>
</a>
</g>
</g>
<!-- Node3&#45;&gt;Node2 -->
<g id="edge2" class="edge">
<title>Node3&#45;&gt;Node2</title>
<path fill="none" stroke="midnightblue" d="M150,-161.12C150,-151.82 150,-141.06 150,-133.71"/>
<polygon fill="midnightblue" stroke="midnightblue" points="146.5,-161.41 150,-171.41 153.5,-161.41 146.5,-161.41"/>
</g>
<!-- Node4 -->
<g id="node4" class="node">
<title>Node4</title>
<g id="a_node4"><a xlink:href="../../db/d70/class_instance_list.html" target="_top" xlink:title="Add a static list for the class T">
<polygon fill="white" stroke="black" points="103.5,-238.5 103.5,-257.5 196.5,-257.5 196.5,-238.5 103.5,-238.5"/>
<text text-anchor="middle" x="150" y="-245.5" font-family="Helvetica,sans-Serif" font-size="10.00">InstanceList&lt; T &gt;</text>
</a>
</g>
</g>
<!-- Node4&#45;&gt;Node3 -->
<g id="edge3" class="edge">
<title>Node4&#45;&gt;Node3</title>
<path fill="none" stroke="orange" stroke-dasharray="5,2" d="M150,-228.04C150,-215.67 150,-200.12 150,-190.63"/>
<polygon fill="orange" stroke="orange" points="146.5,-228.23 150,-238.23 153.5,-228.23 146.5,-228.23"/>
<text text-anchor="middle" x="194" y="-212" font-family="Helvetica,sans-Serif" font-size="10.00"> &lt; AGraphicObject &gt;</text>
</g>
</g>
</svg>
