<?xml version="1.0" encoding="UTF-8" standalone="no"?>
<!DOCTYPE svg PUBLIC "-//W3C//DTD SVG 1.1//EN"
 "http://www.w3.org/Graphics/SVG/1.1/DTD/svg11.dtd">
<!-- Generated by graphviz version 2.49.3 (20211027.1534)
 -->
<!-- Title: RayLib_SHMUP/src/Namespaces/Files.cpp Pages: 1 -->
<svg width="185pt" height="151pt"
 viewBox="0.00 0.00 185.00 151.00" xmlns="http://www.w3.org/2000/svg" xmlns:xlink="http://www.w3.org/1999/xlink">
<g id="graph0" class="graph" transform="scale(1 1) rotate(0) translate(4 147)">
<title>RayLib_SHMUP/src/Namespaces/Files.cpp</title>
<polygon fill="white" stroke="transparent" points="-4,4 -4,-147 181,-147 181,4 -4,4"/>
<!-- Node1 -->
<g id="node1" class="node">
<title>Node1</title>
<g id="a_node1"><a xlink:title=" ">
<polygon fill="#bfbfbf" stroke="black" points="0,-112.5 0,-142.5 166,-142.5 166,-112.5 0,-112.5"/>
<text text-anchor="start" x="8" y="-130.5" font-family="Helvetica,sans-Serif" font-size="10.00">RayLib_SHMUP/src/Namespaces</text>
<text text-anchor="middle" x="83" y="-119.5" font-family="Helvetica,sans-Serif" font-size="10.00">/Files.cpp</text>
</a>
</g>
</g>
<!-- Node2 -->
<g id="node2" class="node">
<title>Node2</title>
<g id="a_node2"><a xlink:title=" ">
<polygon fill="white" stroke="#bfbfbf" points="59.5,-0.5 59.5,-19.5 106.5,-19.5 106.5,-0.5 59.5,-0.5"/>
<text text-anchor="middle" x="83" y="-7.5" font-family="Helvetica,sans-Serif" font-size="10.00">raylib.h</text>
</a>
</g>
</g>
<!-- Node1&#45;&gt;Node2 -->
<g id="edge1" class="edge">
<title>Node1&#45;&gt;Node2</title>
<path fill="none" stroke="midnightblue" d="M74.35,-112.34C66.77,-98.22 57.6,-75.82 62,-56 64.12,-46.43 68.51,-36.48 72.72,-28.37"/>
<polygon fill="midnightblue" stroke="midnightblue" points="75.82,-30 77.62,-19.56 69.7,-26.6 75.82,-30"/>
</g>
<!-- Node3 -->
<g id="node3" class="node">
<title>Node3</title>
<g id="a_node3"><a xlink:href="../../dc/da7/_files_8h.html" target="_top" xlink:title=" ">
<polygon fill="white" stroke="black" points="71,-56.5 71,-75.5 177,-75.5 177,-56.5 71,-56.5"/>
<text text-anchor="middle" x="124" y="-63.5" font-family="Helvetica,sans-Serif" font-size="10.00">Namespaces/Files.h</text>
</a>
</g>
</g>
<!-- Node1&#45;&gt;Node3 -->
<g id="edge2" class="edge">
<title>Node1&#45;&gt;Node3</title>
<path fill="none" stroke="midnightblue" d="M92.72,-112.4C98.55,-103.93 106.02,-93.1 112.19,-84.14"/>
<polygon fill="midnightblue" stroke="midnightblue" points="115.24,-85.88 118.03,-75.66 109.48,-81.91 115.24,-85.88"/>
</g>
<!-- Node3&#45;&gt;Node2 -->
<g id="edge3" class="edge">
<title>Node3&#45;&gt;Node2</title>
<path fill="none" stroke="midnightblue" d="M117.23,-56.08C111.44,-48.46 102.94,-37.26 95.86,-27.94"/>
<polygon fill="midnightblue" stroke="midnightblue" points="98.48,-25.6 89.64,-19.75 92.9,-29.83 98.48,-25.6"/>
</g>
</g>
</svg>
