<?xml version="1.0" encoding="UTF-8" standalone="no"?>
<!DOCTYPE svg PUBLIC "-//W3C//DTD SVG 1.1//EN"
 "http://www.w3.org/Graphics/SVG/1.1/DTD/svg11.dtd">
<!-- Generated by graphviz version 2.49.3 (20211027.1534)
 -->
<!-- Title: RayLib_SHMUP/src/MainRelease.cpp Pages: 1 -->
<svg width="426pt" height="140pt"
 viewBox="0.00 0.00 426.21 140.00" xmlns="http://www.w3.org/2000/svg" xmlns:xlink="http://www.w3.org/1999/xlink">
<g id="graph0" class="graph" transform="scale(1 1) rotate(0) translate(4 136)">
<title>RayLib_SHMUP/src/MainRelease.cpp</title>
<polygon fill="white" stroke="transparent" points="-4,4 -4,-136 422.21,-136 422.21,4 -4,4"/>
<!-- Node1 -->
<g id="node1" class="node">
<title>Node1</title>
<g id="a_node1"><a xlink:title=" ">
<polygon fill="#bfbfbf" stroke="black" points="63.21,-112.5 63.21,-131.5 245.21,-131.5 245.21,-112.5 63.21,-112.5"/>
<text text-anchor="middle" x="154.21" y="-119.5" font-family="Helvetica,sans-Serif" font-size="10.00">RayLib_SHMUP/src/MainRelease.cpp</text>
</a>
</g>
</g>
<!-- Node2 -->
<g id="node2" class="node">
<title>Node2</title>
<g id="a_node2"><a xlink:title=" ">
<polygon fill="white" stroke="#bfbfbf" points="81.71,-0.5 81.71,-19.5 128.71,-19.5 128.71,-0.5 81.71,-0.5"/>
<text text-anchor="middle" x="105.21" y="-7.5" font-family="Helvetica,sans-Serif" font-size="10.00">raylib.h</text>
</a>
</g>
</g>
<!-- Node1&#45;&gt;Node2 -->
<g id="edge1" class="edge">
<title>Node1&#45;&gt;Node2</title>
<path fill="none" stroke="midnightblue" d="M63.07,-112.62C40.67,-105.99 19.14,-94.77 5.21,-76 -15.72,-47.81 34.94,-28.45 71.54,-18.59"/>
<polygon fill="midnightblue" stroke="midnightblue" points="72.6,-21.93 81.42,-16.06 70.87,-15.15 72.6,-21.93"/>
</g>
<!-- Node3 -->
<g id="node3" class="node">
<title>Node3</title>
<g id="a_node3"><a xlink:href="../../d5/daf/_game_status_8h.html" target="_top" xlink:title=" ">
<polygon fill="white" stroke="black" points="14.21,-56.5 14.21,-75.5 154.21,-75.5 154.21,-56.5 14.21,-56.5"/>
<text text-anchor="middle" x="84.21" y="-63.5" font-family="Helvetica,sans-Serif" font-size="10.00">Namespaces/GameStatus.h</text>
</a>
</g>
</g>
<!-- Node1&#45;&gt;Node3 -->
<g id="edge2" class="edge">
<title>Node1&#45;&gt;Node3</title>
<path fill="none" stroke="midnightblue" d="M142.96,-112.32C132.41,-104.18 116.41,-91.84 103.76,-82.09"/>
<polygon fill="midnightblue" stroke="midnightblue" points="105.71,-79.17 95.66,-75.83 101.44,-84.71 105.71,-79.17"/>
</g>
<!-- Node4 -->
<g id="node4" class="node">
<title>Node4</title>
<g id="a_node4"><a xlink:href="../../dc/da7/_files_8h.html" target="_top" xlink:title=" ">
<polygon fill="white" stroke="black" points="172.21,-56.5 172.21,-75.5 278.21,-75.5 278.21,-56.5 172.21,-56.5"/>
<text text-anchor="middle" x="225.21" y="-63.5" font-family="Helvetica,sans-Serif" font-size="10.00">Namespaces/Files.h</text>
</a>
</g>
</g>
<!-- Node1&#45;&gt;Node4 -->
<g id="edge3" class="edge">
<title>Node1&#45;&gt;Node4</title>
<path fill="none" stroke="midnightblue" d="M165.61,-112.32C176.32,-104.18 192.55,-91.84 205.37,-82.09"/>
<polygon fill="midnightblue" stroke="midnightblue" points="207.75,-84.67 213.59,-75.83 203.51,-79.1 207.75,-84.67"/>
</g>
<!-- Node5 -->
<g id="node5" class="node">
<title>Node5</title>
<g id="a_node5"><a xlink:href="../../d0/d96/_game_manager_8h.html" target="_top" xlink:title=" ">
<polygon fill="white" stroke="black" points="296.21,-56.5 296.21,-75.5 418.21,-75.5 418.21,-56.5 296.21,-56.5"/>
<text text-anchor="middle" x="357.21" y="-63.5" font-family="Helvetica,sans-Serif" font-size="10.00">Shmup/GameManager.h</text>
</a>
</g>
</g>
<!-- Node1&#45;&gt;Node5 -->
<g id="edge5" class="edge">
<title>Node1&#45;&gt;Node5</title>
<path fill="none" stroke="midnightblue" d="M186.37,-112.44C221.27,-103.16 277.1,-88.31 315.38,-78.13"/>
<polygon fill="midnightblue" stroke="midnightblue" points="316.43,-81.47 325.19,-75.52 314.63,-74.7 316.43,-81.47"/>
</g>
<!-- Node4&#45;&gt;Node2 -->
<g id="edge4" class="edge">
<title>Node4&#45;&gt;Node2</title>
<path fill="none" stroke="midnightblue" d="M206.19,-56.44C186.62,-47.64 155.9,-33.81 133.48,-23.72"/>
<polygon fill="midnightblue" stroke="midnightblue" points="134.69,-20.43 124.13,-19.52 131.82,-26.81 134.69,-20.43"/>
</g>
</g>
</svg>
