<?xml version="1.0" encoding="UTF-8" standalone="no"?>
<!DOCTYPE svg PUBLIC "-//W3C//DTD SVG 1.1//EN"
 "http://www.w3.org/Graphics/SVG/1.1/DTD/svg11.dtd">
<!-- Generated by graphviz version 2.49.3 (20211027.1534)
 -->
<!-- Title: RayLib_SHMUP/src/Shmup/Movable/Enemy.cpp Pages: 1 -->
<!--zoomable 341 -->
<svg id="main" version="1.1" xmlns="http://www.w3.org/2000/svg" xmlns:xlink="http://www.w3.org/1999/xlink" xml:space="preserve" onload="init(evt)">
<style type="text/css"><![CDATA[
.edge:hover path { stroke: red; }
.edge:hover polygon { stroke: red; fill: red; }
]]></style>
<script type="text/javascript"><![CDATA[
var edges = document.getElementsByTagName('g');
if (edges && edges.length) {
  for (var i=0;i<edges.length;i++) {
    if (edges[i].id.substr(0,4)=='edge') {
      edges[i].setAttribute('class','edge');
    }
  }
}
]]></script>
        <defs>
                <circle id="rim" cx="0" cy="0" r="7"/>
                <circle id="rim2" cx="0" cy="0" r="3.5"/>
                <g id="zoomPlus">
                        <use xlink:href="#rim" fill="#404040">
                                <set attributeName="fill" to="#808080" begin="zoomplus.mouseover" end="zoomplus.mouseout"/>
                        </use>
                        <path d="M-4,0h8M0,-4v8" fill="none" stroke="white" stroke-width="1.5" pointer-events="none"/>
                </g>
                <g id="zoomMin">
                        <use xlink:href="#rim" fill="#404040">
                                <set attributeName="fill" to="#808080" begin="zoomminus.mouseover" end="zoomminus.mouseout"/>
                        </use>
                        <path d="M-4,0h8" fill="none" stroke="white" stroke-width="1.5" pointer-events="none"/>
                </g>
                <g id="dirArrow">
                        <path fill="none" stroke="white" stroke-width="1.5" d="M0,-3.0v7 M-2.5,-0.5L0,-3.0L2.5,-0.5"/>
                </g>
               <g id="resetDef">
                       <use xlink:href="#rim2" fill="#404040">
                               <set attributeName="fill" to="#808080" begin="reset.mouseover" end="reset.mouseout"/>
                       </use>
               </g>
        </defs>

<script type="text/javascript">
var viewWidth = 1059;
var viewHeight = 341;
var sectionId = 'dynsection-0';
</script>
<script xlink:href="../../svgpan.js"/>
<svg id="graph" class="graph">
<g id="viewport">
<title>RayLib_SHMUP/src/Shmup/Movable/Enemy.cpp</title>
<polygon fill="white" stroke="transparent" points="-4,4 -4,-337 1055,-337 1055,4 -4,4"/>
<!-- Node1 -->
<g id="node1" class="node">
<title>Node1</title>
<g id="a_node1"><a xlink:title=" ">
<polygon fill="#bfbfbf" stroke="black" points="532.5,-302.5 532.5,-332.5 671.5,-332.5 671.5,-302.5 532.5,-302.5"/>
<text text-anchor="start" x="540.5" y="-320.5" font-family="Helvetica,sans-Serif" font-size="10.00">RayLib_SHMUP/src/Shmup</text>
<text text-anchor="middle" x="602" y="-309.5" font-family="Helvetica,sans-Serif" font-size="10.00">/Movable/Enemy.cpp</text>
</a>
</g>
</g>
<!-- Node2 -->
<g id="node2" class="node">
<title>Node2</title>
<g id="a_node2"><a xlink:title=" ">
<polygon fill="white" stroke="#bfbfbf" points="455.5,-0.5 455.5,-19.5 502.5,-19.5 502.5,-0.5 455.5,-0.5"/>
<text text-anchor="middle" x="479" y="-7.5" font-family="Helvetica,sans-Serif" font-size="10.00">raylib.h</text>
</a>
</g>
</g>
<!-- Node1&#45;&gt;Node2 -->
<g id="edge1" class="edge">
<title>Node1&#45;&gt;Node2</title>
<path fill="none" stroke="midnightblue" d="M602,-302.28C602,-280.48 602,-237.49 602,-201 602,-201 602,-201 602,-137.5 602,-97.15 589.95,-85.1 562,-56 548.14,-41.57 528.63,-30.67 512.01,-23.22"/>
<polygon fill="midnightblue" stroke="midnightblue" points="513.19,-19.92 502.62,-19.22 510.46,-26.36 513.19,-19.92"/>
</g>
<!-- Node3 -->
<g id="node3" class="node">
<title>Node3</title>
<g id="a_node3"><a xlink:title=" ">
<polygon fill="white" stroke="#bfbfbf" points="166.5,-62 166.5,-81 225.5,-81 225.5,-62 166.5,-62"/>
<text text-anchor="middle" x="196" y="-69" font-family="Helvetica,sans-Serif" font-size="10.00">raymath.h</text>
</a>
</g>
</g>
<!-- Node1&#45;&gt;Node3 -->
<g id="edge2" class="edge">
<title>Node1&#45;&gt;Node3</title>
<path fill="none" stroke="midnightblue" d="M532.31,-310.31C418.21,-298.58 199.52,-268.84 153,-210 124.03,-173.35 160.22,-116.98 181.92,-89.18"/>
<polygon fill="midnightblue" stroke="midnightblue" points="184.79,-91.2 188.35,-81.22 179.34,-86.8 184.79,-91.2"/>
</g>
<!-- Node4 -->
<g id="node4" class="node">
<title>Node4</title>
<g id="a_node4"><a xlink:href="../../d4/d1e/_enemy_8h.html" target="_top" xlink:title=" ">
<polygon fill="white" stroke="black" points="446.5,-246.5 446.5,-265.5 573.5,-265.5 573.5,-246.5 446.5,-246.5"/>
<text text-anchor="middle" x="510" y="-253.5" font-family="Helvetica,sans-Serif" font-size="10.00">Shmup/Movable/Enemy.h</text>
</a>
</g>
</g>
<!-- Node1&#45;&gt;Node4 -->
<g id="edge3" class="edge">
<title>Node1&#45;&gt;Node4</title>
<path fill="none" stroke="midnightblue" d="M580.2,-302.4C565.59,-292.95 546.43,-280.56 531.82,-271.11"/>
<polygon fill="midnightblue" stroke="midnightblue" points="533.68,-268.15 523.39,-265.66 529.88,-274.03 533.68,-268.15"/>
</g>
<!-- Node19 -->
<g id="node19" class="node">
<title>Node19</title>
<g id="a_node19"><a xlink:href="../../d8/d97/_instance_list_8hpp.html" target="_top" xlink:title=" ">
<polygon fill="white" stroke="black" points="789,-190.5 789,-209.5 911,-209.5 911,-190.5 789,-190.5"/>
<text text-anchor="middle" x="850" y="-197.5" font-family="Helvetica,sans-Serif" font-size="10.00">Shmup/InstanceList.hpp</text>
</a>
</g>
</g>
<!-- Node1&#45;&gt;Node19 -->
<g id="edge31" class="edge">
<title>Node1&#45;&gt;Node19</title>
<path fill="none" stroke="midnightblue" d="M671.58,-315.54C755.1,-312.75 887.85,-302.51 919,-266 935.74,-246.38 906.11,-226.41 880.62,-213.89"/>
<polygon fill="midnightblue" stroke="midnightblue" points="882.05,-210.69 871.51,-209.62 879.08,-217.03 882.05,-210.69"/>
</g>
<!-- Node20 -->
<g id="node20" class="node">
<title>Node20</title>
<g id="a_node20"><a xlink:href="../../d5/daf/_game_status_8h.html" target="_top" xlink:title=" ">
<polygon fill="white" stroke="black" points="630,-246.5 630,-265.5 770,-265.5 770,-246.5 630,-246.5"/>
<text text-anchor="middle" x="700" y="-253.5" font-family="Helvetica,sans-Serif" font-size="10.00">Namespaces/GameStatus.h</text>
</a>
</g>
</g>
<!-- Node1&#45;&gt;Node20 -->
<g id="edge33" class="edge">
<title>Node1&#45;&gt;Node20</title>
<path fill="none" stroke="midnightblue" d="M625.22,-302.4C640.79,-292.95 661.2,-280.56 676.76,-271.11"/>
<polygon fill="midnightblue" stroke="midnightblue" points="679.01,-273.84 685.74,-265.66 675.38,-267.86 679.01,-273.84"/>
</g>
<!-- Node21 -->
<g id="node21" class="node">
<title>Node21</title>
<g id="a_node21"><a xlink:href="../../d0/d80/_random_8h.html" target="_top" xlink:title=" ">
<polygon fill="white" stroke="black" points="788.5,-246.5 788.5,-265.5 909.5,-265.5 909.5,-246.5 788.5,-246.5"/>
<text text-anchor="middle" x="849" y="-253.5" font-family="Helvetica,sans-Serif" font-size="10.00">Namespaces/Random.h</text>
</a>
</g>
</g>
<!-- Node1&#45;&gt;Node21 -->
<g id="edge34" class="edge">
<title>Node1&#45;&gt;Node21</title>
<path fill="none" stroke="midnightblue" d="M660.22,-302.47C704.14,-291.9 763.51,-277.59 803.86,-267.87"/>
<polygon fill="midnightblue" stroke="midnightblue" points="804.79,-271.25 813.69,-265.51 803.15,-264.45 804.79,-271.25"/>
</g>
<!-- Node22 -->
<g id="node22" class="node">
<title>Node22</title>
<g id="a_node22"><a xlink:href="../../dc/da7/_files_8h.html" target="_top" xlink:title=" ">
<polygon fill="white" stroke="black" points="0,-129 0,-148 106,-148 106,-129 0,-129"/>
<text text-anchor="middle" x="53" y="-136" font-family="Helvetica,sans-Serif" font-size="10.00">Namespaces/Files.h</text>
</a>
</g>
</g>
<!-- Node1&#45;&gt;Node22 -->
<g id="edge35" class="edge">
<title>Node1&#45;&gt;Node22</title>
<path fill="none" stroke="midnightblue" d="M532.38,-317.08C415.37,-316.77 185.63,-310.33 120,-266 82.18,-240.46 64.15,-186.47 56.97,-157.99"/>
<polygon fill="midnightblue" stroke="midnightblue" points="60.35,-157.06 54.67,-148.12 53.53,-158.66 60.35,-157.06"/>
</g>
<!-- Node5 -->
<g id="node5" class="node">
<title>Node5</title>
<g id="a_node5"><a xlink:title=" ">
<polygon fill="white" stroke="#bfbfbf" points="997,-0.5 997,-19.5 1051,-19.5 1051,-0.5 997,-0.5"/>
<text text-anchor="middle" x="1024" y="-7.5" font-family="Helvetica,sans-Serif" font-size="10.00">iostream</text>
</a>
</g>
</g>
<!-- Node4&#45;&gt;Node5 -->
<g id="edge4" class="edge">
<title>Node4&#45;&gt;Node5</title>
<path fill="none" stroke="midnightblue" d="M573.92,-249.8C681.11,-240.82 888.53,-222.17 920,-210 987.04,-184.07 1010.87,-157.47 1025,-87 1028.85,-67.82 1027.9,-45.38 1026.43,-29.87"/>
<polygon fill="midnightblue" stroke="midnightblue" points="1029.86,-29.09 1025.27,-19.54 1022.91,-29.87 1029.86,-29.09"/>
</g>
<!-- Node6 -->
<g id="node6" class="node">
<title>Node6</title>
<g id="a_node6"><a xlink:title=" ">
<polygon fill="white" stroke="#bfbfbf" points="484,-190.5 484,-209.5 536,-209.5 536,-190.5 484,-190.5"/>
<text text-anchor="middle" x="510" y="-197.5" font-family="Helvetica,sans-Serif" font-size="10.00">sstream</text>
</a>
</g>
</g>
<!-- Node4&#45;&gt;Node6 -->
<g id="edge5" class="edge">
<title>Node4&#45;&gt;Node6</title>
<path fill="none" stroke="midnightblue" d="M510,-246.08C510,-239.01 510,-228.86 510,-219.99"/>
<polygon fill="midnightblue" stroke="midnightblue" points="513.5,-219.75 510,-209.75 506.5,-219.75 513.5,-219.75"/>
</g>
<!-- Node7 -->
<g id="node7" class="node">
<title>Node7</title>
<g id="a_node7"><a xlink:href="../../db/d1b/_a_movable_8h.html" target="_top" xlink:title=" ">
<polygon fill="white" stroke="black" points="162.5,-190.5 162.5,-209.5 263.5,-209.5 263.5,-190.5 162.5,-190.5"/>
<text text-anchor="middle" x="213" y="-197.5" font-family="Helvetica,sans-Serif" font-size="10.00">Shmup/AMovable.h</text>
</a>
</g>
</g>
<!-- Node4&#45;&gt;Node7 -->
<g id="edge6" class="edge">
<title>Node4&#45;&gt;Node7</title>
<path fill="none" stroke="midnightblue" d="M462.94,-246.44C410.59,-236.92 326.01,-221.55 269.96,-211.36"/>
<polygon fill="midnightblue" stroke="midnightblue" points="270.31,-207.86 259.84,-209.52 269.05,-214.75 270.31,-207.86"/>
</g>
<!-- Node12 -->
<g id="node12" class="node">
<title>Node12</title>
<g id="a_node12"><a xlink:href="../../d1/d98/_sequence_move_patern_8h.html" target="_top" xlink:title=" ">
<polygon fill="white" stroke="black" points="864.5,-123.5 864.5,-153.5 987.5,-153.5 987.5,-123.5 864.5,-123.5"/>
<text text-anchor="start" x="872.5" y="-141.5" font-family="Helvetica,sans-Serif" font-size="10.00">Shmup/Paterns/Enemy</text>
<text text-anchor="middle" x="926" y="-130.5" font-family="Helvetica,sans-Serif" font-size="10.00">/SequenceMovePatern.h</text>
</a>
</g>
</g>
<!-- Node4&#45;&gt;Node12 -->
<g id="edge15" class="edge">
<title>Node4&#45;&gt;Node12</title>
<path fill="none" stroke="midnightblue" d="M540.93,-246.41C609.53,-227.37 775.49,-181.29 865.51,-156.29"/>
<polygon fill="midnightblue" stroke="midnightblue" points="866.6,-159.62 875.3,-153.58 864.73,-152.88 866.6,-159.62"/>
</g>
<!-- Node16 -->
<g id="node16" class="node">
<title>Node16</title>
<g id="a_node16"><a xlink:href="../../d5/d36/_collider_8h.html" target="_top" xlink:title=" ">
<polygon fill="white" stroke="black" points="253,-129 253,-148 383,-148 383,-129 253,-129"/>
<text text-anchor="middle" x="318" y="-136" font-family="Helvetica,sans-Serif" font-size="10.00">Shmup/Collision/Collider.h</text>
</a>
</g>
</g>
<!-- Node4&#45;&gt;Node16 -->
<g id="edge22" class="edge">
<title>Node4&#45;&gt;Node16</title>
<path fill="none" stroke="midnightblue" d="M446.48,-249.17C394.81,-242.95 327.81,-231.03 311,-210 299.4,-195.48 303.93,-173.53 309.6,-157.99"/>
<polygon fill="midnightblue" stroke="midnightblue" points="312.96,-159 313.51,-148.42 306.48,-156.35 312.96,-159"/>
</g>
<!-- Node18 -->
<g id="node18" class="node">
<title>Node18</title>
<g id="a_node18"><a xlink:href="../../d3/d72/_a_collidable_8h.html" target="_top" xlink:title=" ">
<polygon fill="white" stroke="black" points="320,-190.5 320,-209.5 466,-209.5 466,-190.5 320,-190.5"/>
<text text-anchor="middle" x="393" y="-197.5" font-family="Helvetica,sans-Serif" font-size="10.00">Shmup/Collision/ACollidable.h</text>
</a>
</g>
</g>
<!-- Node4&#45;&gt;Node18 -->
<g id="edge28" class="edge">
<title>Node4&#45;&gt;Node18</title>
<path fill="none" stroke="midnightblue" d="M491.46,-246.44C472.38,-237.64 442.43,-223.81 420.56,-213.72"/>
<polygon fill="midnightblue" stroke="midnightblue" points="422,-210.53 411.45,-209.52 419.07,-216.88 422,-210.53"/>
</g>
<!-- Node7&#45;&gt;Node2 -->
<g id="edge7" class="edge">
<title>Node7&#45;&gt;Node2</title>
<path fill="none" stroke="midnightblue" d="M203.99,-190.22C180.32,-166.09 120.6,-97.84 157,-56 194.08,-13.38 370.02,-9.9 445.01,-10.41"/>
<polygon fill="midnightblue" stroke="midnightblue" points="445.28,-13.91 455.31,-10.51 445.35,-6.91 445.28,-13.91"/>
</g>
<!-- Node8 -->
<g id="node8" class="node">
<title>Node8</title>
<g id="a_node8"><a xlink:href="../../d7/daf/_a_graphic_object_8h.html" target="_top" xlink:title=" ">
<polygon fill="white" stroke="black" points="434.5,-129 434.5,-148 527.5,-148 527.5,-129 434.5,-129"/>
<text text-anchor="middle" x="481" y="-136" font-family="Helvetica,sans-Serif" font-size="10.00">AGraphicObject.h</text>
</a>
</g>
</g>
<!-- Node7&#45;&gt;Node8 -->
<g id="edge8" class="edge">
<title>Node7&#45;&gt;Node8</title>
<path fill="none" stroke="midnightblue" d="M251.4,-190.48C299.16,-179.87 380.74,-161.76 432.7,-150.22"/>
<polygon fill="midnightblue" stroke="midnightblue" points="433.67,-153.59 442.67,-148.01 432.15,-146.76 433.67,-153.59"/>
</g>
<!-- Node8&#45;&gt;Node2 -->
<g id="edge9" class="edge">
<title>Node8&#45;&gt;Node2</title>
<path fill="none" stroke="midnightblue" d="M499.46,-128.85C514.81,-120.53 535.62,-106.36 545,-87 551.01,-74.6 551.44,-68.18 545,-56 537.58,-41.95 523.58,-31.47 510.38,-24.17"/>
<polygon fill="midnightblue" stroke="midnightblue" points="511.96,-21.04 501.46,-19.62 508.78,-27.28 511.96,-21.04"/>
</g>
<!-- Node9 -->
<g id="node9" class="node">
<title>Node9</title>
<g id="a_node9"><a xlink:href="../../dc/d80/_instance_list_8h.html" target="_top" xlink:title=" ">
<polygon fill="white" stroke="black" points="630,-62 630,-81 742,-81 742,-62 630,-62"/>
<text text-anchor="middle" x="686" y="-69" font-family="Helvetica,sans-Serif" font-size="10.00">Shmup/InstanceList.h</text>
</a>
</g>
</g>
<!-- Node8&#45;&gt;Node9 -->
<g id="edge10" class="edge">
<title>Node8&#45;&gt;Node9</title>
<path fill="none" stroke="midnightblue" d="M508.22,-128.87C544.47,-117.38 608.7,-97.01 649.23,-84.16"/>
<polygon fill="midnightblue" stroke="midnightblue" points="650.52,-87.42 658.99,-81.06 648.4,-80.75 650.52,-87.42"/>
</g>
<!-- Node11 -->
<g id="node11" class="node">
<title>Node11</title>
<g id="a_node11"><a xlink:href="../../da/d02/_transform2_d_8h.html" target="_top" xlink:title=" ">
<polygon fill="white" stroke="black" points="422,-62 422,-81 536,-81 536,-62 422,-62"/>
<text text-anchor="middle" x="479" y="-69" font-family="Helvetica,sans-Serif" font-size="10.00">Shmup/Transform2D.h</text>
</a>
</g>
</g>
<!-- Node8&#45;&gt;Node11 -->
<g id="edge13" class="edge">
<title>Node8&#45;&gt;Node11</title>
<path fill="none" stroke="midnightblue" d="M480.73,-128.73C480.44,-119.18 479.96,-103.62 479.58,-91.28"/>
<polygon fill="midnightblue" stroke="midnightblue" points="483.07,-91.01 479.27,-81.13 476.07,-91.23 483.07,-91.01"/>
</g>
<!-- Node9&#45;&gt;Node5 -->
<g id="edge11" class="edge">
<title>Node9&#45;&gt;Node5</title>
<path fill="none" stroke="midnightblue" d="M722.71,-61.93C731.92,-59.89 741.81,-57.78 751,-56 834.83,-39.75 933.86,-24.37 986.57,-16.49"/>
<polygon fill="midnightblue" stroke="midnightblue" points="987.41,-19.9 996.79,-14.97 986.38,-12.98 987.41,-19.9"/>
</g>
<!-- Node10 -->
<g id="node10" class="node">
<title>Node10</title>
<g id="a_node10"><a xlink:title=" ">
<polygon fill="white" stroke="#bfbfbf" points="664,-0.5 664,-19.5 708,-19.5 708,-0.5 664,-0.5"/>
<text text-anchor="middle" x="686" y="-7.5" font-family="Helvetica,sans-Serif" font-size="10.00">vector</text>
</a>
</g>
</g>
<!-- Node9&#45;&gt;Node10 -->
<g id="edge12" class="edge">
<title>Node9&#45;&gt;Node10</title>
<path fill="none" stroke="midnightblue" d="M686,-61.98C686,-53.58 686,-40.48 686,-29.66"/>
<polygon fill="midnightblue" stroke="midnightblue" points="689.5,-29.51 686,-19.51 682.5,-29.51 689.5,-29.51"/>
</g>
<!-- Node11&#45;&gt;Node2 -->
<g id="edge14" class="edge">
<title>Node11&#45;&gt;Node2</title>
<path fill="none" stroke="midnightblue" d="M479,-61.98C479,-53.58 479,-40.48 479,-29.66"/>
<polygon fill="midnightblue" stroke="midnightblue" points="482.5,-29.51 479,-19.51 475.5,-29.51 482.5,-29.51"/>
</g>
<!-- Node12&#45;&gt;Node5 -->
<g id="edge19" class="edge">
<title>Node12&#45;&gt;Node5</title>
<path fill="none" stroke="midnightblue" d="M959.54,-123.31C975.52,-114.95 993.59,-102.86 1005,-87 1017.13,-70.13 1021.55,-46.34 1023.14,-29.89"/>
<polygon fill="midnightblue" stroke="midnightblue" points="1026.64,-30.07 1023.85,-19.84 1019.65,-29.57 1026.64,-30.07"/>
</g>
<!-- Node12&#45;&gt;Node10 -->
<g id="edge21" class="edge">
<title>Node12&#45;&gt;Node10</title>
<path fill="none" stroke="midnightblue" d="M926.98,-123.2C927.39,-104.94 925.13,-73.62 907,-56 880.55,-30.28 773.3,-18.04 718.53,-13.37"/>
<polygon fill="midnightblue" stroke="midnightblue" points="718.56,-9.87 708.31,-12.54 717.99,-16.84 718.56,-9.87"/>
</g>
<!-- Node13 -->
<g id="node13" class="node">
<title>Node13</title>
<g id="a_node13"><a xlink:href="../../dc/d8f/_a_offsetable_patern_8h.html" target="_top" xlink:title=" ">
<polygon fill="white" stroke="black" points="760,-56.5 760,-86.5 898,-86.5 898,-56.5 760,-56.5"/>
<text text-anchor="start" x="768" y="-74.5" font-family="Helvetica,sans-Serif" font-size="10.00">Shmup/Paterns/AOffsetable</text>
<text text-anchor="middle" x="829" y="-63.5" font-family="Helvetica,sans-Serif" font-size="10.00">Patern.h</text>
</a>
</g>
</g>
<!-- Node12&#45;&gt;Node13 -->
<g id="edge16" class="edge">
<title>Node12&#45;&gt;Node13</title>
<path fill="none" stroke="midnightblue" d="M904.95,-123.4C891.35,-114.28 873.46,-102.29 858.45,-92.24"/>
<polygon fill="midnightblue" stroke="midnightblue" points="860.26,-89.24 850.01,-86.58 856.37,-95.05 860.26,-89.24"/>
</g>
<!-- Node15 -->
<g id="node15" class="node">
<title>Node15</title>
<g id="a_node15"><a xlink:title=" ">
<polygon fill="white" stroke="#bfbfbf" points="954.5,-62 954.5,-81 995.5,-81 995.5,-62 954.5,-62"/>
<text text-anchor="middle" x="975" y="-69" font-family="Helvetica,sans-Serif" font-size="10.00">string</text>
</a>
</g>
</g>
<!-- Node12&#45;&gt;Node15 -->
<g id="edge20" class="edge">
<title>Node12&#45;&gt;Node15</title>
<path fill="none" stroke="midnightblue" d="M936.63,-123.4C944.2,-113.36 954.39,-99.84 962.37,-89.25"/>
<polygon fill="midnightblue" stroke="midnightblue" points="965.22,-91.29 968.45,-81.19 959.63,-87.07 965.22,-91.29"/>
</g>
<!-- Node13&#45;&gt;Node2 -->
<g id="edge17" class="edge">
<title>Node13&#45;&gt;Node2</title>
<path fill="none" stroke="midnightblue" d="M759.69,-57.54C756.76,-57.02 753.85,-56.5 751,-56 665.22,-40.93 563.96,-24.55 512.57,-16.33"/>
<polygon fill="midnightblue" stroke="midnightblue" points="513.1,-12.87 502.68,-14.75 512,-19.79 513.1,-12.87"/>
</g>
<!-- Node14 -->
<g id="node14" class="node">
<title>Node14</title>
<g id="a_node14"><a xlink:href="../../df/d50/_a_patern_8h.html" target="_top" xlink:title=" ">
<polygon fill="white" stroke="black" points="799.5,-0.5 799.5,-19.5 858.5,-19.5 858.5,-0.5 799.5,-0.5"/>
<text text-anchor="middle" x="829" y="-7.5" font-family="Helvetica,sans-Serif" font-size="10.00">APatern.h</text>
</a>
</g>
</g>
<!-- Node13&#45;&gt;Node14 -->
<g id="edge18" class="edge">
<title>Node13&#45;&gt;Node14</title>
<path fill="none" stroke="midnightblue" d="M829,-56.4C829,-48.47 829,-38.46 829,-29.86"/>
<polygon fill="midnightblue" stroke="midnightblue" points="832.5,-29.66 829,-19.66 825.5,-29.66 832.5,-29.66"/>
</g>
<!-- Node16&#45;&gt;Node2 -->
<g id="edge23" class="edge">
<title>Node16&#45;&gt;Node2</title>
<path fill="none" stroke="midnightblue" d="M306.73,-128.81C287.86,-113.23 253.74,-79.92 273,-56 294.21,-29.66 392.12,-17.9 444.96,-13.39"/>
<polygon fill="midnightblue" stroke="midnightblue" points="445.51,-16.86 455.2,-12.56 444.95,-9.88 445.51,-16.86"/>
</g>
<!-- Node16&#45;&gt;Node3 -->
<g id="edge24" class="edge">
<title>Node16&#45;&gt;Node3</title>
<path fill="none" stroke="midnightblue" d="M301.8,-128.87C281.2,-117.89 245.41,-98.82 221.22,-85.94"/>
<polygon fill="midnightblue" stroke="midnightblue" points="222.74,-82.78 212.27,-81.17 219.45,-88.96 222.74,-82.78"/>
</g>
<!-- Node16&#45;&gt;Node11 -->
<g id="edge25" class="edge">
<title>Node16&#45;&gt;Node11</title>
<path fill="none" stroke="midnightblue" d="M339.38,-128.87C367.36,-117.57 416.59,-97.7 448.49,-84.82"/>
<polygon fill="midnightblue" stroke="midnightblue" points="449.83,-88.05 457.79,-81.06 447.21,-81.56 449.83,-88.05"/>
</g>
<!-- Node17 -->
<g id="node17" class="node">
<title>Node17</title>
<g id="a_node17"><a xlink:href="../../de/d60/_collider_settings_8h.html" target="_top" xlink:title=" ">
<polygon fill="white" stroke="black" points="282,-56.5 282,-86.5 404,-86.5 404,-56.5 282,-56.5"/>
<text text-anchor="start" x="290" y="-74.5" font-family="Helvetica,sans-Serif" font-size="10.00">Shmup/Collision/Collider</text>
<text text-anchor="middle" x="343" y="-63.5" font-family="Helvetica,sans-Serif" font-size="10.00">Settings.h</text>
</a>
</g>
</g>
<!-- Node16&#45;&gt;Node17 -->
<g id="edge26" class="edge">
<title>Node16&#45;&gt;Node17</title>
<path fill="none" stroke="midnightblue" d="M321.37,-128.73C324.59,-120.37 329.58,-107.4 333.95,-96.02"/>
<polygon fill="midnightblue" stroke="midnightblue" points="337.26,-97.18 337.58,-86.59 330.72,-94.67 337.26,-97.18"/>
</g>
<!-- Node17&#45;&gt;Node10 -->
<g id="edge27" class="edge">
<title>Node17&#45;&gt;Node10</title>
<path fill="none" stroke="midnightblue" d="M404.05,-57.7C407.08,-57.11 410.07,-56.54 413,-56 499.64,-39.89 602.3,-23.76 653.53,-15.91"/>
<polygon fill="midnightblue" stroke="midnightblue" points="654.29,-19.34 663.65,-14.37 653.24,-12.42 654.29,-19.34"/>
</g>
<!-- Node18&#45;&gt;Node9 -->
<g id="edge30" class="edge">
<title>Node18&#45;&gt;Node9</title>
<path fill="none" stroke="midnightblue" d="M426.31,-190.48C455.71,-182.5 499.46,-169.5 536,-154 583.06,-134.03 634.81,-103.97 663.56,-86.48"/>
<polygon fill="midnightblue" stroke="midnightblue" points="665.69,-89.28 672.38,-81.07 662.03,-83.31 665.69,-89.28"/>
</g>
<!-- Node18&#45;&gt;Node16 -->
<g id="edge29" class="edge">
<title>Node18&#45;&gt;Node16</title>
<path fill="none" stroke="midnightblue" d="M382.25,-190.48C370.45,-181.11 351.26,-165.88 336.92,-154.51"/>
<polygon fill="midnightblue" stroke="midnightblue" points="338.74,-151.48 328.73,-148.01 334.38,-156.97 338.74,-151.48"/>
</g>
<!-- Node19&#45;&gt;Node9 -->
<g id="edge32" class="edge">
<title>Node19&#45;&gt;Node9</title>
<path fill="none" stroke="midnightblue" d="M838.73,-190.31C811.11,-169 739.8,-114 705.28,-87.38"/>
<polygon fill="midnightblue" stroke="midnightblue" points="707.41,-84.59 697.35,-81.26 703.13,-90.13 707.41,-84.59"/>
</g>
<!-- Node22&#45;&gt;Node2 -->
<g id="edge36" class="edge">
<title>Node22&#45;&gt;Node2</title>
<path fill="none" stroke="midnightblue" d="M57.67,-128.76C67.42,-111.5 91.72,-73.23 124,-56 179.23,-26.53 367.49,-15.57 445.12,-12.24"/>
<polygon fill="midnightblue" stroke="midnightblue" points="445.46,-15.73 455.31,-11.82 445.17,-8.74 445.46,-15.73"/>
</g>
</g>
</svg>
        <g id="navigator" transform="translate(0 0)" fill="#404254">
                <rect fill="#f2f5e9" fill-opacity="0.5" stroke="#606060" stroke-width=".5" x="0" y="0" width="60" height="60"/>
                <use id="zoomplus" xlink:href="#zoomPlus" x="17" y="9" onmousedown="handleZoom(evt,'in')"/>
                <use id="zoomminus" xlink:href="#zoomMin" x="42" y="9" onmousedown="handleZoom(evt,'out')"/>
                <use id="reset" xlink:href="#resetDef" x="30" y="36" onmousedown="handleReset()"/>
                <g id="arrowUp" xlink:href="#dirArrow" transform="translate(30 24)" onmousedown="handlePan(0,-1)">
                  <use xlink:href="#rim" fill="#404040">
                        <set attributeName="fill" to="#808080" begin="arrowUp.mouseover" end="arrowUp.mouseout"/>
                  </use>
                  <path fill="none" stroke="white" stroke-width="1.5" d="M0,-3.0v7 M-2.5,-0.5L0,-3.0L2.5,-0.5"/>
                </g>
                <g id="arrowRight" xlink:href="#dirArrow" transform="rotate(90) translate(36 -43)" onmousedown="handlePan(1,0)">
                  <use xlink:href="#rim" fill="#404040">
                        <set attributeName="fill" to="#808080" begin="arrowRight.mouseover" end="arrowRight.mouseout"/>
                  </use>
                  <path fill="none" stroke="white" stroke-width="1.5" d="M0,-3.0v7 M-2.5,-0.5L0,-3.0L2.5,-0.5"/>
                </g>
                <g id="arrowDown" xlink:href="#dirArrow" transform="rotate(180) translate(-30 -48)" onmousedown="handlePan(0,1)">
                  <use xlink:href="#rim" fill="#404040">
                        <set attributeName="fill" to="#808080" begin="arrowDown.mouseover" end="arrowDown.mouseout"/>
                  </use>
                  <path fill="none" stroke="white" stroke-width="1.5" d="M0,-3.0v7 M-2.5,-0.5L0,-3.0L2.5,-0.5"/>
                </g>
                <g id="arrowLeft" xlink:href="#dirArrow" transform="rotate(270) translate(-36 17)" onmousedown="handlePan(-1,0)">
                  <use xlink:href="#rim" fill="#404040">
                        <set attributeName="fill" to="#808080" begin="arrowLeft.mouseover" end="arrowLeft.mouseout"/>
                  </use>
                  <path fill="none" stroke="white" stroke-width="1.5" d="M0,-3.0v7 M-2.5,-0.5L0,-3.0L2.5,-0.5"/>
                </g>
        </g>
        <svg viewBox="0 0 15 15" width="100%" height="30px" preserveAspectRatio="xMaxYMin meet">
         <g id="arrow_out" transform="scale(0.3 0.3)">
          <a xlink:href="_enemy_8cpp__incl_org.svg" target="_base">
           <rect id="button" ry="5" rx="5" y="6" x="6" height="38" width="38"
                fill="#f2f5e9" fill-opacity="0.5" stroke="#606060" stroke-width="1.0"/>
           <path id="arrow"
             d="M 11.500037,31.436501 C 11.940474,20.09759 22.043105,11.32322 32.158766,21.979434 L 37.068811,17.246167 C 37.068811,17.246167 37.088388,32 37.088388,32 L 22.160133,31.978069 C 22.160133,31.978069 26.997745,27.140456 26.997745,27.140456 C 18.528582,18.264221 13.291696,25.230495 11.500037,31.436501 z"
             style="fill:#404040;"/>
          </a>
         </g>
        </svg>
</svg>
