<?xml version="1.0" encoding="UTF-8" standalone="no"?>
<!DOCTYPE svg PUBLIC "-//W3C//DTD SVG 1.1//EN"
 "http://www.w3.org/Graphics/SVG/1.1/DTD/svg11.dtd">
<!-- Generated by graphviz version 2.49.3 (20211027.1534)
 -->
<!-- Title: RayLib_SHMUP/src/Shmup/Movable/Enemy.cpp Pages: 1 -->
<!--zoomable 341 -->
<svg id="main" version="1.1" xmlns="http://www.w3.org/2000/svg" xmlns:xlink="http://www.w3.org/1999/xlink" xml:space="preserve" onload="init(evt)">
<style type="text/css"><![CDATA[
.edge:hover path { stroke: red; }
.edge:hover polygon { stroke: red; fill: red; }
]]></style>
<script type="text/javascript"><![CDATA[
var edges = document.getElementsByTagName('g');
if (edges && edges.length) {
  for (var i=0;i<edges.length;i++) {
    if (edges[i].id.substr(0,4)=='edge') {
      edges[i].setAttribute('class','edge');
    }
  }
}
]]></script>
        <defs>
                <circle id="rim" cx="0" cy="0" r="7"/>
                <circle id="rim2" cx="0" cy="0" r="3.5"/>
                <g id="zoomPlus">
                        <use xlink:href="#rim" fill="#404040">
                                <set attributeName="fill" to="#808080" begin="zoomplus.mouseover" end="zoomplus.mouseout"/>
                        </use>
                        <path d="M-4,0h8M0,-4v8" fill="none" stroke="white" stroke-width="1.5" pointer-events="none"/>
                </g>
                <g id="zoomMin">
                        <use xlink:href="#rim" fill="#404040">
                                <set attributeName="fill" to="#808080" begin="zoomminus.mouseover" end="zoomminus.mouseout"/>
                        </use>
                        <path d="M-4,0h8" fill="none" stroke="white" stroke-width="1.5" pointer-events="none"/>
                </g>
                <g id="dirArrow">
                        <path fill="none" stroke="white" stroke-width="1.5" d="M0,-3.0v7 M-2.5,-0.5L0,-3.0L2.5,-0.5"/>
                </g>
               <g id="resetDef">
                       <use xlink:href="#rim2" fill="#404040">
                               <set attributeName="fill" to="#808080" begin="reset.mouseover" end="reset.mouseout"/>
                       </use>
               </g>
        </defs>

<script type="text/javascript">
var viewWidth = 1347;
var viewHeight = 341;
var sectionId = 'dynsection-0';
</script>
<script xlink:href="../../svgpan.js"/>
<svg id="graph" class="graph">
<g id="viewport">
<title>RayLib_SHMUP/src/Shmup/Movable/Enemy.cpp</title>
<polygon fill="white" stroke="transparent" points="-4,4 -4,-337 1343.04,-337 1343.04,4 -4,4"/>
<!-- Node1 -->
<g id="node1" class="node">
<title>Node1</title>
<g id="a_node1"><a xlink:title=" ">
<polygon fill="#bfbfbf" stroke="black" points="909.04,-302.5 909.04,-332.5 1048.04,-332.5 1048.04,-302.5 909.04,-302.5"/>
<text text-anchor="start" x="917.04" y="-320.5" font-family="Helvetica,sans-Serif" font-size="10.00">RayLib_SHMUP/src/Shmup</text>
<text text-anchor="middle" x="978.54" y="-309.5" font-family="Helvetica,sans-Serif" font-size="10.00">/Movable/Enemy.cpp</text>
</a>
</g>
</g>
<!-- Node2 -->
<g id="node2" class="node">
<title>Node2</title>
<g id="a_node2"><a xlink:title=" ">
<polygon fill="white" stroke="#bfbfbf" points="755.04,-0.5 755.04,-19.5 802.04,-19.5 802.04,-0.5 755.04,-0.5"/>
<text text-anchor="middle" x="778.54" y="-7.5" font-family="Helvetica,sans-Serif" font-size="10.00">raylib.h</text>
</a>
</g>
</g>
<!-- Node1&#45;&gt;Node2 -->
<g id="edge1" class="edge">
<title>Node1&#45;&gt;Node2</title>
<path fill="none" stroke="midnightblue" d="M1016.94,-302.46C1056.53,-285.21 1112.54,-251.83 1112.54,-201 1112.54,-201 1112.54,-201 1112.54,-137.5 1112.54,-73.74 896.95,-30.78 812.19,-16.35"/>
<polygon fill="midnightblue" stroke="midnightblue" points="812.73,-12.89 802.29,-14.7 811.58,-19.8 812.73,-12.89"/>
</g>
<!-- Node3 -->
<g id="node3" class="node">
<title>Node3</title>
<g id="a_node3"><a xlink:title=" ">
<polygon fill="white" stroke="#bfbfbf" points="1141.04,-246.5 1141.04,-265.5 1200.04,-265.5 1200.04,-246.5 1141.04,-246.5"/>
<text text-anchor="middle" x="1170.54" y="-253.5" font-family="Helvetica,sans-Serif" font-size="10.00">raymath.h</text>
</a>
</g>
</g>
<!-- Node1&#45;&gt;Node3 -->
<g id="edge2" class="edge">
<title>Node1&#45;&gt;Node3</title>
<path fill="none" stroke="midnightblue" d="M1024.04,-302.4C1057.36,-292.07 1102.03,-278.23 1133.25,-268.56"/>
<polygon fill="midnightblue" stroke="midnightblue" points="1134.36,-271.87 1142.88,-265.57 1132.29,-265.19 1134.36,-271.87"/>
</g>
<!-- Node4 -->
<g id="node4" class="node">
<title>Node4</title>
<g id="a_node4"><a xlink:href="../../d4/d1e/_enemy_8h.html" target="_top" xlink:title=" ">
<polygon fill="white" stroke="black" points="377.04,-246.5 377.04,-265.5 504.04,-265.5 504.04,-246.5 377.04,-246.5"/>
<text text-anchor="middle" x="440.54" y="-253.5" font-family="Helvetica,sans-Serif" font-size="10.00">Shmup/Movable/Enemy.h</text>
</a>
</g>
</g>
<!-- Node1&#45;&gt;Node4 -->
<g id="edge3" class="edge">
<title>Node1&#45;&gt;Node4</title>
<path fill="none" stroke="midnightblue" d="M909.03,-308.81C807.32,-297.56 618.73,-276.71 514.53,-265.18"/>
<polygon fill="midnightblue" stroke="midnightblue" points="514.73,-261.68 504.4,-264.06 513.96,-268.64 514.73,-261.68"/>
</g>
<!-- Node19 -->
<g id="node19" class="node">
<title>Node19</title>
<g id="a_node19"><a xlink:href="../../d8/d97/_instance_list_8hpp.html" target="_top" xlink:title=" ">
<polygon fill="white" stroke="black" points="206.54,-129 206.54,-148 328.54,-148 328.54,-129 206.54,-129"/>
<text text-anchor="middle" x="267.54" y="-136" font-family="Helvetica,sans-Serif" font-size="10.00">Shmup/InstanceList.hpp</text>
</a>
</g>
</g>
<!-- Node1&#45;&gt;Node19 -->
<g id="edge30" class="edge">
<title>Node1&#45;&gt;Node19</title>
<path fill="none" stroke="midnightblue" d="M908.94,-315.35C770.46,-312.31 465.35,-301.66 367.54,-266 327.1,-251.26 313.61,-244.98 288.54,-210 277.51,-194.61 272.21,-173.41 269.71,-158.29"/>
<polygon fill="midnightblue" stroke="midnightblue" points="273.13,-157.52 268.29,-148.1 266.2,-158.49 273.13,-157.52"/>
</g>
<!-- Node20 -->
<g id="node20" class="node">
<title>Node20</title>
<g id="a_node20"><a xlink:href="../../d9/dee/_explosion_8h.html" target="_top" xlink:title=" ">
<polygon fill="white" stroke="black" points="771.04,-246.5 771.04,-265.5 870.04,-265.5 870.04,-246.5 771.04,-246.5"/>
<text text-anchor="middle" x="820.54" y="-253.5" font-family="Helvetica,sans-Serif" font-size="10.00">Shmup/Explosion.h</text>
</a>
</g>
</g>
<!-- Node1&#45;&gt;Node20 -->
<g id="edge32" class="edge">
<title>Node1&#45;&gt;Node20</title>
<path fill="none" stroke="midnightblue" d="M941.09,-302.4C914.35,-292.33 878.72,-278.91 853.14,-269.28"/>
<polygon fill="midnightblue" stroke="midnightblue" points="854.12,-265.91 843.53,-265.66 851.65,-272.46 854.12,-265.91"/>
</g>
<!-- Node21 -->
<g id="node21" class="node">
<title>Node21</title>
<g id="a_node21"><a xlink:href="../../d5/daf/_game_status_8h.html" target="_top" xlink:title=" ">
<polygon fill="white" stroke="black" points="820.54,-190.5 820.54,-209.5 960.54,-209.5 960.54,-190.5 820.54,-190.5"/>
<text text-anchor="middle" x="890.54" y="-197.5" font-family="Helvetica,sans-Serif" font-size="10.00">Namespaces/GameStatus.h</text>
</a>
</g>
</g>
<!-- Node1&#45;&gt;Node21 -->
<g id="edge36" class="edge">
<title>Node1&#45;&gt;Node21</title>
<path fill="none" stroke="midnightblue" d="M967.75,-302.34C951.46,-280.96 920.66,-240.53 903.29,-217.73"/>
<polygon fill="midnightblue" stroke="midnightblue" points="905.99,-215.5 897.14,-209.67 900.42,-219.74 905.99,-215.5"/>
</g>
<!-- Node22 -->
<g id="node22" class="node">
<title>Node22</title>
<g id="a_node22"><a xlink:href="../../d0/d80/_random_8h.html" target="_top" xlink:title=" ">
<polygon fill="white" stroke="black" points="1218.04,-246.5 1218.04,-265.5 1339.04,-265.5 1339.04,-246.5 1218.04,-246.5"/>
<text text-anchor="middle" x="1278.54" y="-253.5" font-family="Helvetica,sans-Serif" font-size="10.00">Namespaces/Random.h</text>
</a>
</g>
</g>
<!-- Node1&#45;&gt;Node22 -->
<g id="edge37" class="edge">
<title>Node1&#45;&gt;Node22</title>
<path fill="none" stroke="midnightblue" d="M1048.12,-302.7C1102.2,-291.97 1176.1,-277.32 1225.47,-267.52"/>
<polygon fill="midnightblue" stroke="midnightblue" points="1226.19,-270.95 1235.32,-265.57 1224.83,-264.08 1226.19,-270.95"/>
</g>
<!-- Node23 -->
<g id="node23" class="node">
<title>Node23</title>
<g id="a_node23"><a xlink:href="../../dc/da7/_files_8h.html" target="_top" xlink:title=" ">
<polygon fill="white" stroke="black" points="978.54,-190.5 978.54,-209.5 1084.54,-209.5 1084.54,-190.5 978.54,-190.5"/>
<text text-anchor="middle" x="1031.54" y="-197.5" font-family="Helvetica,sans-Serif" font-size="10.00">Namespaces/Files.h</text>
</a>
</g>
</g>
<!-- Node1&#45;&gt;Node23 -->
<g id="edge38" class="edge">
<title>Node1&#45;&gt;Node23</title>
<path fill="none" stroke="midnightblue" d="M985.04,-302.34C994.67,-281.34 1012.74,-241.96 1023.3,-218.96"/>
<polygon fill="midnightblue" stroke="midnightblue" points="1026.57,-220.22 1027.56,-209.67 1020.21,-217.3 1026.57,-220.22"/>
</g>
<!-- Node5 -->
<g id="node5" class="node">
<title>Node5</title>
<g id="a_node5"><a xlink:title=" ">
<polygon fill="white" stroke="#bfbfbf" points="60.54,-0.5 60.54,-19.5 114.54,-19.5 114.54,-0.5 60.54,-0.5"/>
<text text-anchor="middle" x="87.54" y="-7.5" font-family="Helvetica,sans-Serif" font-size="10.00">iostream</text>
</a>
</g>
</g>
<!-- Node4&#45;&gt;Node5 -->
<g id="edge4" class="edge">
<title>Node4&#45;&gt;Node5</title>
<path fill="none" stroke="midnightblue" d="M376.97,-252.55C295.04,-246.44 151.6,-225.46 54.54,-154 15.79,-125.47 -15.64,-97.6 8.54,-56 17.73,-40.18 34.8,-29.46 50.73,-22.46"/>
<polygon fill="midnightblue" stroke="midnightblue" points="52.44,-25.55 60.42,-18.58 49.83,-19.05 52.44,-25.55"/>
</g>
<!-- Node6 -->
<g id="node6" class="node">
<title>Node6</title>
<g id="a_node6"><a xlink:title=" ">
<polygon fill="white" stroke="#bfbfbf" points="297.54,-190.5 297.54,-209.5 349.54,-209.5 349.54,-190.5 297.54,-190.5"/>
<text text-anchor="middle" x="323.54" y="-197.5" font-family="Helvetica,sans-Serif" font-size="10.00">sstream</text>
</a>
</g>
</g>
<!-- Node4&#45;&gt;Node6 -->
<g id="edge5" class="edge">
<title>Node4&#45;&gt;Node6</title>
<path fill="none" stroke="midnightblue" d="M422,-246.44C402.91,-237.64 372.96,-223.81 351.1,-213.72"/>
<polygon fill="midnightblue" stroke="midnightblue" points="352.54,-210.53 341.99,-209.52 349.6,-216.88 352.54,-210.53"/>
</g>
<!-- Node7 -->
<g id="node7" class="node">
<title>Node7</title>
<g id="a_node7"><a xlink:href="../../db/d1b/_a_movable_8h.html" target="_top" xlink:title=" ">
<polygon fill="white" stroke="black" points="663.04,-190.5 663.04,-209.5 764.04,-209.5 764.04,-190.5 663.04,-190.5"/>
<text text-anchor="middle" x="713.54" y="-197.5" font-family="Helvetica,sans-Serif" font-size="10.00">Shmup/AMovable.h</text>
</a>
</g>
</g>
<!-- Node4&#45;&gt;Node7 -->
<g id="edge6" class="edge">
<title>Node4&#45;&gt;Node7</title>
<path fill="none" stroke="midnightblue" d="M483.8,-246.44C531.72,-236.96 609.02,-221.67 660.54,-211.48"/>
<polygon fill="midnightblue" stroke="midnightblue" points="661.35,-214.89 670.48,-209.52 659.99,-208.02 661.35,-214.89"/>
</g>
<!-- Node12 -->
<g id="node12" class="node">
<title>Node12</title>
<g id="a_node12"><a xlink:href="../../d1/d98/_sequence_move_patern_8h.html" target="_top" xlink:title=" ">
<polygon fill="white" stroke="black" points="64.04,-123.5 64.04,-153.5 187.04,-153.5 187.04,-123.5 64.04,-123.5"/>
<text text-anchor="start" x="72.04" y="-141.5" font-family="Helvetica,sans-Serif" font-size="10.00">Shmup/Paterns/Enemy</text>
<text text-anchor="middle" x="125.54" y="-130.5" font-family="Helvetica,sans-Serif" font-size="10.00">/SequenceMovePatern.h</text>
</a>
</g>
</g>
<!-- Node4&#45;&gt;Node12 -->
<g id="edge15" class="edge">
<title>Node4&#45;&gt;Node12</title>
<path fill="none" stroke="midnightblue" d="M407.55,-246.47C376.51,-238.15 328.9,-224.64 288.54,-210 245.28,-194.3 197.05,-172.94 164.35,-157.86"/>
<polygon fill="midnightblue" stroke="midnightblue" points="165.69,-154.62 155.14,-153.59 162.74,-160.97 165.69,-154.62"/>
</g>
<!-- Node16 -->
<g id="node16" class="node">
<title>Node16</title>
<g id="a_node16"><a xlink:href="../../d5/d36/_collider_8h.html" target="_top" xlink:title=" ">
<polygon fill="white" stroke="black" points="476.54,-129 476.54,-148 606.54,-148 606.54,-129 476.54,-129"/>
<text text-anchor="middle" x="541.54" y="-136" font-family="Helvetica,sans-Serif" font-size="10.00">Shmup/Collision/Collider.h</text>
</a>
</g>
</g>
<!-- Node4&#45;&gt;Node16 -->
<g id="edge22" class="edge">
<title>Node4&#45;&gt;Node16</title>
<path fill="none" stroke="midnightblue" d="M467.92,-246.36C485.94,-239.32 508.69,-227.62 522.54,-210 534.15,-195.23 538.68,-173.93 540.44,-158.61"/>
<polygon fill="midnightblue" stroke="midnightblue" points="543.96,-158.53 541.32,-148.27 536.99,-157.94 543.96,-158.53"/>
</g>
<!-- Node18 -->
<g id="node18" class="node">
<title>Node18</title>
<g id="a_node18"><a xlink:href="../../d3/d72/_a_collidable_8h.html" target="_top" xlink:title=" ">
<polygon fill="white" stroke="black" points="367.54,-190.5 367.54,-209.5 513.54,-209.5 513.54,-190.5 367.54,-190.5"/>
<text text-anchor="middle" x="440.54" y="-197.5" font-family="Helvetica,sans-Serif" font-size="10.00">Shmup/Collision/ACollidable.h</text>
</a>
</g>
</g>
<!-- Node4&#45;&gt;Node18 -->
<g id="edge27" class="edge">
<title>Node4&#45;&gt;Node18</title>
<path fill="none" stroke="midnightblue" d="M440.54,-246.08C440.54,-239.01 440.54,-228.86 440.54,-219.99"/>
<polygon fill="midnightblue" stroke="midnightblue" points="444.04,-219.75 440.54,-209.75 437.04,-219.75 444.04,-219.75"/>
</g>
<!-- Node7&#45;&gt;Node2 -->
<g id="edge7" class="edge">
<title>Node7&#45;&gt;Node2</title>
<path fill="none" stroke="midnightblue" d="M718.4,-190.29C728.52,-171.83 751.91,-127.15 764.54,-87 770.56,-67.84 774.33,-45.11 776.42,-29.53"/>
<polygon fill="midnightblue" stroke="midnightblue" points="779.89,-29.96 777.65,-19.6 772.94,-29.09 779.89,-29.96"/>
</g>
<!-- Node8 -->
<g id="node8" class="node">
<title>Node8</title>
<g id="a_node8"><a xlink:href="../../d7/daf/_a_graphic_object_8h.html" target="_top" xlink:title=" ">
<polygon fill="white" stroke="black" points="628.04,-129 628.04,-148 721.04,-148 721.04,-129 628.04,-129"/>
<text text-anchor="middle" x="674.54" y="-136" font-family="Helvetica,sans-Serif" font-size="10.00">AGraphicObject.h</text>
</a>
</g>
</g>
<!-- Node7&#45;&gt;Node8 -->
<g id="edge8" class="edge">
<title>Node7&#45;&gt;Node8</title>
<path fill="none" stroke="midnightblue" d="M707.95,-190.48C702.16,-181.64 692.95,-167.59 685.66,-156.48"/>
<polygon fill="midnightblue" stroke="midnightblue" points="688.52,-154.45 680.12,-148.01 682.67,-158.29 688.52,-154.45"/>
</g>
<!-- Node8&#45;&gt;Node2 -->
<g id="edge9" class="edge">
<title>Node8&#45;&gt;Node2</title>
<path fill="none" stroke="midnightblue" d="M689.49,-128.86C704,-119.88 725.92,-104.68 740.54,-87 755.03,-69.46 765.85,-45.47 772.17,-29.17"/>
<polygon fill="midnightblue" stroke="midnightblue" points="775.48,-30.31 775.66,-19.71 768.91,-27.88 775.48,-30.31"/>
</g>
<!-- Node9 -->
<g id="node9" class="node">
<title>Node9</title>
<g id="a_node9"><a xlink:href="../../dc/d80/_instance_list_8h.html" target="_top" xlink:title=" ">
<polygon fill="white" stroke="black" points="153.54,-62 153.54,-81 265.54,-81 265.54,-62 153.54,-62"/>
<text text-anchor="middle" x="209.54" y="-69" font-family="Helvetica,sans-Serif" font-size="10.00">Shmup/InstanceList.h</text>
</a>
</g>
</g>
<!-- Node8&#45;&gt;Node9 -->
<g id="edge10" class="edge">
<title>Node8&#45;&gt;Node9</title>
<path fill="none" stroke="midnightblue" d="M643.17,-128.95C634.29,-126.76 624.58,-124.58 615.54,-123 465.42,-96.75 424.93,-111.63 274.54,-87 268.1,-85.95 261.34,-84.65 254.71,-83.27"/>
<polygon fill="midnightblue" stroke="midnightblue" points="254.99,-79.75 244.48,-81.06 253.51,-86.6 254.99,-79.75"/>
</g>
<!-- Node11 -->
<g id="node11" class="node">
<title>Node11</title>
<g id="a_node11"><a xlink:href="../../da/d02/_transform2_d_8h.html" target="_top" xlink:title=" ">
<polygon fill="white" stroke="black" points="617.54,-62 617.54,-81 731.54,-81 731.54,-62 617.54,-62"/>
<text text-anchor="middle" x="674.54" y="-69" font-family="Helvetica,sans-Serif" font-size="10.00">Shmup/Transform2D.h</text>
</a>
</g>
</g>
<!-- Node8&#45;&gt;Node11 -->
<g id="edge13" class="edge">
<title>Node8&#45;&gt;Node11</title>
<path fill="none" stroke="midnightblue" d="M674.54,-128.73C674.54,-119.18 674.54,-103.62 674.54,-91.28"/>
<polygon fill="midnightblue" stroke="midnightblue" points="678.04,-91.13 674.54,-81.13 671.04,-91.13 678.04,-91.13"/>
</g>
<!-- Node9&#45;&gt;Node5 -->
<g id="edge11" class="edge">
<title>Node9&#45;&gt;Node5</title>
<path fill="none" stroke="midnightblue" d="M192.06,-61.98C171.67,-52.03 137.76,-35.49 114.11,-23.96"/>
<polygon fill="midnightblue" stroke="midnightblue" points="115.51,-20.75 104.98,-19.51 112.44,-27.04 115.51,-20.75"/>
</g>
<!-- Node10 -->
<g id="node10" class="node">
<title>Node10</title>
<g id="a_node10"><a xlink:title=" ">
<polygon fill="white" stroke="#bfbfbf" points="187.54,-0.5 187.54,-19.5 231.54,-19.5 231.54,-0.5 187.54,-0.5"/>
<text text-anchor="middle" x="209.54" y="-7.5" font-family="Helvetica,sans-Serif" font-size="10.00">vector</text>
</a>
</g>
</g>
<!-- Node9&#45;&gt;Node10 -->
<g id="edge12" class="edge">
<title>Node9&#45;&gt;Node10</title>
<path fill="none" stroke="midnightblue" d="M209.54,-61.98C209.54,-53.58 209.54,-40.48 209.54,-29.66"/>
<polygon fill="midnightblue" stroke="midnightblue" points="213.04,-29.51 209.54,-19.51 206.04,-29.51 213.04,-29.51"/>
</g>
<!-- Node11&#45;&gt;Node2 -->
<g id="edge14" class="edge">
<title>Node11&#45;&gt;Node2</title>
<path fill="none" stroke="midnightblue" d="M689.44,-61.98C706.51,-52.21 734.7,-36.08 754.8,-24.58"/>
<polygon fill="midnightblue" stroke="midnightblue" points="756.72,-27.51 763.66,-19.51 753.25,-21.44 756.72,-27.51"/>
</g>
<!-- Node12&#45;&gt;Node5 -->
<g id="edge19" class="edge">
<title>Node12&#45;&gt;Node5</title>
<path fill="none" stroke="midnightblue" d="M121.33,-123.48C114.43,-100.51 100.72,-54.89 93.06,-29.37"/>
<polygon fill="midnightblue" stroke="midnightblue" points="96.41,-28.36 90.18,-19.79 89.7,-30.37 96.41,-28.36"/>
</g>
<!-- Node12&#45;&gt;Node10 -->
<g id="edge21" class="edge">
<title>Node12&#45;&gt;Node10</title>
<path fill="none" stroke="midnightblue" d="M125.81,-123.31C126.78,-106.01 130.57,-76.54 144.54,-56 153.6,-42.67 168.04,-32.09 181.01,-24.55"/>
<polygon fill="midnightblue" stroke="midnightblue" points="182.98,-27.46 190.09,-19.61 179.63,-21.32 182.98,-27.46"/>
</g>
<!-- Node13 -->
<g id="node13" class="node">
<title>Node13</title>
<g id="a_node13"><a xlink:href="../../dc/d8f/_a_offsetable_patern_8h.html" target="_top" xlink:title=" ">
<polygon fill="white" stroke="black" points="423.54,-56.5 423.54,-86.5 561.54,-86.5 561.54,-56.5 423.54,-56.5"/>
<text text-anchor="start" x="431.54" y="-74.5" font-family="Helvetica,sans-Serif" font-size="10.00">Shmup/Paterns/AOffsetable</text>
<text text-anchor="middle" x="492.54" y="-63.5" font-family="Helvetica,sans-Serif" font-size="10.00">Patern.h</text>
</a>
</g>
</g>
<!-- Node12&#45;&gt;Node13 -->
<g id="edge16" class="edge">
<title>Node12&#45;&gt;Node13</title>
<path fill="none" stroke="midnightblue" d="M187.18,-124.94C190.68,-124.27 194.15,-123.62 197.54,-123 290.59,-105.92 316.6,-104.04 413.32,-87.19"/>
<polygon fill="midnightblue" stroke="midnightblue" points="413.98,-90.63 423.23,-85.46 412.77,-83.73 413.98,-90.63"/>
</g>
<!-- Node15 -->
<g id="node15" class="node">
<title>Node15</title>
<g id="a_node15"><a xlink:title=" ">
<polygon fill="white" stroke="#bfbfbf" points="18.04,-62 18.04,-81 59.04,-81 59.04,-62 18.04,-62"/>
<text text-anchor="middle" x="38.54" y="-69" font-family="Helvetica,sans-Serif" font-size="10.00">string</text>
</a>
</g>
</g>
<!-- Node12&#45;&gt;Node15 -->
<g id="edge20" class="edge">
<title>Node12&#45;&gt;Node15</title>
<path fill="none" stroke="midnightblue" d="M106.66,-123.4C92.42,-112.76 72.94,-98.2 58.46,-87.38"/>
<polygon fill="midnightblue" stroke="midnightblue" points="60.28,-84.38 50.18,-81.19 56.09,-89.98 60.28,-84.38"/>
</g>
<!-- Node13&#45;&gt;Node2 -->
<g id="edge17" class="edge">
<title>Node13&#45;&gt;Node2</title>
<path fill="none" stroke="midnightblue" d="M559.95,-56.47C618.17,-44.36 699.85,-27.37 745.08,-17.96"/>
<polygon fill="midnightblue" stroke="midnightblue" points="745.88,-21.37 754.96,-15.91 744.45,-14.52 745.88,-21.37"/>
</g>
<!-- Node14 -->
<g id="node14" class="node">
<title>Node14</title>
<g id="a_node14"><a xlink:href="../../df/d50/_a_patern_8h.html" target="_top" xlink:title=" ">
<polygon fill="white" stroke="black" points="463.04,-0.5 463.04,-19.5 522.04,-19.5 522.04,-0.5 463.04,-0.5"/>
<text text-anchor="middle" x="492.54" y="-7.5" font-family="Helvetica,sans-Serif" font-size="10.00">APatern.h</text>
</a>
</g>
</g>
<!-- Node13&#45;&gt;Node14 -->
<g id="edge18" class="edge">
<title>Node13&#45;&gt;Node14</title>
<path fill="none" stroke="midnightblue" d="M492.54,-56.4C492.54,-48.47 492.54,-38.46 492.54,-29.86"/>
<polygon fill="midnightblue" stroke="midnightblue" points="496.04,-29.66 492.54,-19.66 489.04,-29.66 496.04,-29.66"/>
</g>
<!-- Node16&#45;&gt;Node2 -->
<g id="edge23" class="edge">
<title>Node16&#45;&gt;Node2</title>
<path fill="none" stroke="midnightblue" d="M546.16,-128.85C555.58,-112.1 578.64,-75.2 608.54,-56 650.74,-28.9 708.79,-18.05 744.96,-13.75"/>
<polygon fill="midnightblue" stroke="midnightblue" points="745.44,-17.22 755,-12.66 744.68,-10.27 745.44,-17.22"/>
</g>
<!-- Node16&#45;&gt;Node11 -->
<g id="edge24" class="edge">
<title>Node16&#45;&gt;Node11</title>
<path fill="none" stroke="midnightblue" d="M559.2,-128.87C581.85,-117.8 621.37,-98.49 647.74,-85.6"/>
<polygon fill="midnightblue" stroke="midnightblue" points="649.36,-88.7 656.8,-81.17 646.28,-82.41 649.36,-88.7"/>
</g>
<!-- Node17 -->
<g id="node17" class="node">
<title>Node17</title>
<g id="a_node17"><a xlink:href="../../de/d60/_collider_settings_8h.html" target="_top" xlink:title=" ">
<polygon fill="white" stroke="black" points="283.54,-56.5 283.54,-86.5 405.54,-86.5 405.54,-56.5 283.54,-56.5"/>
<text text-anchor="start" x="291.54" y="-74.5" font-family="Helvetica,sans-Serif" font-size="10.00">Shmup/Collision/Collider</text>
<text text-anchor="middle" x="344.54" y="-63.5" font-family="Helvetica,sans-Serif" font-size="10.00">Settings.h</text>
</a>
</g>
</g>
<!-- Node16&#45;&gt;Node17 -->
<g id="edge25" class="edge">
<title>Node16&#45;&gt;Node17</title>
<path fill="none" stroke="midnightblue" d="M515.38,-128.87C485.31,-118.95 435.18,-102.41 396.99,-89.81"/>
<polygon fill="midnightblue" stroke="midnightblue" points="397.65,-86.34 387.05,-86.53 395.45,-92.99 397.65,-86.34"/>
</g>
<!-- Node17&#45;&gt;Node10 -->
<g id="edge26" class="edge">
<title>Node17&#45;&gt;Node10</title>
<path fill="none" stroke="midnightblue" d="M312.54,-56.4C290.1,-46.51 260.32,-33.38 238.56,-23.79"/>
<polygon fill="midnightblue" stroke="midnightblue" points="239.74,-20.49 229.18,-19.66 236.92,-26.89 239.74,-20.49"/>
</g>
<!-- Node18&#45;&gt;Node9 -->
<g id="edge29" class="edge">
<title>Node18&#45;&gt;Node9</title>
<path fill="none" stroke="midnightblue" d="M430.62,-190.29C412.91,-175.08 374.28,-143.35 337.54,-123 308.35,-106.84 272.91,-93.28 246.73,-84.3"/>
<polygon fill="midnightblue" stroke="midnightblue" points="247.78,-80.95 237.19,-81.08 245.55,-87.59 247.78,-80.95"/>
</g>
<!-- Node18&#45;&gt;Node16 -->
<g id="edge28" class="edge">
<title>Node18&#45;&gt;Node16</title>
<path fill="none" stroke="midnightblue" d="M455.01,-190.48C471.51,-180.75 498.72,-164.73 518.22,-153.24"/>
<polygon fill="midnightblue" stroke="midnightblue" points="520.25,-156.1 527.09,-148.01 516.7,-150.07 520.25,-156.1"/>
</g>
<!-- Node19&#45;&gt;Node9 -->
<g id="edge31" class="edge">
<title>Node19&#45;&gt;Node9</title>
<path fill="none" stroke="midnightblue" d="M259.72,-128.73C250.58,-118.5 235.29,-101.36 223.99,-88.69"/>
<polygon fill="midnightblue" stroke="midnightblue" points="226.51,-86.26 217.24,-81.13 221.28,-90.92 226.51,-86.26"/>
</g>
<!-- Node20&#45;&gt;Node2 -->
<g id="edge33" class="edge">
<title>Node20&#45;&gt;Node2</title>
<path fill="none" stroke="midnightblue" d="M818.73,-246.39C816.85,-237.34 813.86,-222.7 811.54,-210 799.48,-144.08 787.01,-65.51 781.48,-30.04"/>
<polygon fill="midnightblue" stroke="midnightblue" points="784.88,-29.09 779.88,-19.75 777.96,-30.17 784.88,-29.09"/>
</g>
<!-- Node20&#45;&gt;Node8 -->
<g id="edge34" class="edge">
<title>Node20&#45;&gt;Node8</title>
<path fill="none" stroke="midnightblue" d="M770.94,-248.34C727.06,-241.32 667.83,-228.65 653.54,-210 641.57,-194.39 651.61,-172.04 661.5,-156.71"/>
<polygon fill="midnightblue" stroke="midnightblue" points="664.59,-158.4 667.45,-148.2 658.85,-154.4 664.59,-158.4"/>
</g>
<!-- Node20&#45;&gt;Node21 -->
<g id="edge35" class="edge">
<title>Node20&#45;&gt;Node21</title>
<path fill="none" stroke="midnightblue" d="M831.78,-246.32C842.34,-238.18 858.34,-225.84 870.98,-216.09"/>
<polygon fill="midnightblue" stroke="midnightblue" points="873.31,-218.71 879.09,-209.83 869.03,-213.17 873.31,-218.71"/>
</g>
<!-- Node23&#45;&gt;Node2 -->
<g id="edge39" class="edge">
<title>Node23&#45;&gt;Node2</title>
<path fill="none" stroke="midnightblue" d="M1021.16,-190.23C993.79,-167.26 917.13,-103.79 849.54,-56 833.9,-44.94 815.63,-33.39 801.54,-24.77"/>
<polygon fill="midnightblue" stroke="midnightblue" points="803.32,-21.75 792.96,-19.55 799.69,-27.73 803.32,-21.75"/>
</g>
</g>
</svg>
        <g id="navigator" transform="translate(0 0)" fill="#404254">
                <rect fill="#f2f5e9" fill-opacity="0.5" stroke="#606060" stroke-width=".5" x="0" y="0" width="60" height="60"/>
                <use id="zoomplus" xlink:href="#zoomPlus" x="17" y="9" onmousedown="handleZoom(evt,'in')"/>
                <use id="zoomminus" xlink:href="#zoomMin" x="42" y="9" onmousedown="handleZoom(evt,'out')"/>
                <use id="reset" xlink:href="#resetDef" x="30" y="36" onmousedown="handleReset()"/>
                <g id="arrowUp" xlink:href="#dirArrow" transform="translate(30 24)" onmousedown="handlePan(0,-1)">
                  <use xlink:href="#rim" fill="#404040">
                        <set attributeName="fill" to="#808080" begin="arrowUp.mouseover" end="arrowUp.mouseout"/>
                  </use>
                  <path fill="none" stroke="white" stroke-width="1.5" d="M0,-3.0v7 M-2.5,-0.5L0,-3.0L2.5,-0.5"/>
                </g>
                <g id="arrowRight" xlink:href="#dirArrow" transform="rotate(90) translate(36 -43)" onmousedown="handlePan(1,0)">
                  <use xlink:href="#rim" fill="#404040">
                        <set attributeName="fill" to="#808080" begin="arrowRight.mouseover" end="arrowRight.mouseout"/>
                  </use>
                  <path fill="none" stroke="white" stroke-width="1.5" d="M0,-3.0v7 M-2.5,-0.5L0,-3.0L2.5,-0.5"/>
                </g>
                <g id="arrowDown" xlink:href="#dirArrow" transform="rotate(180) translate(-30 -48)" onmousedown="handlePan(0,1)">
                  <use xlink:href="#rim" fill="#404040">
                        <set attributeName="fill" to="#808080" begin="arrowDown.mouseover" end="arrowDown.mouseout"/>
                  </use>
                  <path fill="none" stroke="white" stroke-width="1.5" d="M0,-3.0v7 M-2.5,-0.5L0,-3.0L2.5,-0.5"/>
                </g>
                <g id="arrowLeft" xlink:href="#dirArrow" transform="rotate(270) translate(-36 17)" onmousedown="handlePan(-1,0)">
                  <use xlink:href="#rim" fill="#404040">
                        <set attributeName="fill" to="#808080" begin="arrowLeft.mouseover" end="arrowLeft.mouseout"/>
                  </use>
                  <path fill="none" stroke="white" stroke-width="1.5" d="M0,-3.0v7 M-2.5,-0.5L0,-3.0L2.5,-0.5"/>
                </g>
        </g>
        <svg viewBox="0 0 15 15" width="100%" height="30px" preserveAspectRatio="xMaxYMin meet">
         <g id="arrow_out" transform="scale(0.3 0.3)">
          <a xlink:href="_enemy_8cpp__incl_org.svg" target="_base">
           <rect id="button" ry="5" rx="5" y="6" x="6" height="38" width="38"
                fill="#f2f5e9" fill-opacity="0.5" stroke="#606060" stroke-width="1.0"/>
           <path id="arrow"
             d="M 11.500037,31.436501 C 11.940474,20.09759 22.043105,11.32322 32.158766,21.979434 L 37.068811,17.246167 C 37.068811,17.246167 37.088388,32 37.088388,32 L 22.160133,31.978069 C 22.160133,31.978069 26.997745,27.140456 26.997745,27.140456 C 18.528582,18.264221 13.291696,25.230495 11.500037,31.436501 z"
             style="fill:#404040;"/>
          </a>
         </g>
        </svg>
</svg>
