<?xml version="1.0" encoding="UTF-8" standalone="no"?>
<!DOCTYPE svg PUBLIC "-//W3C//DTD SVG 1.1//EN"
 "http://www.w3.org/Graphics/SVG/1.1/DTD/svg11.dtd">
<!-- Generated by graphviz version 2.49.3 (20211027.1534)
 -->
<!-- Title: RayLib_SHMUP/include/Shmup/Paterns/AOffsetablePatern.h Pages: 1 -->
<svg width="185pt" height="95pt"
 viewBox="0.00 0.00 185.00 95.00" xmlns="http://www.w3.org/2000/svg" xmlns:xlink="http://www.w3.org/1999/xlink">
<g id="graph0" class="graph" transform="scale(1 1) rotate(0) translate(4 91)">
<title>RayLib_SHMUP/include/Shmup/Paterns/AOffsetablePatern.h</title>
<polygon fill="white" stroke="transparent" points="-4,4 -4,-91 181,-91 181,4 -4,4"/>
<!-- Node1 -->
<g id="node1" class="node">
<title>Node1</title>
<g id="a_node1"><a xlink:title=" ">
<polygon fill="#bfbfbf" stroke="black" points="0,-56.5 0,-86.5 177,-86.5 177,-56.5 0,-56.5"/>
<text text-anchor="start" x="8" y="-74.5" font-family="Helvetica,sans-Serif" font-size="10.00">RayLib_SHMUP/include</text>
<text text-anchor="middle" x="88.5" y="-63.5" font-family="Helvetica,sans-Serif" font-size="10.00">/Shmup/Paterns/AOffsetablePatern.h</text>
</a>
</g>
</g>
<!-- Node2 -->
<g id="node2" class="node">
<title>Node2</title>
<g id="a_node2"><a xlink:title=" ">
<polygon fill="white" stroke="#bfbfbf" points="30,-0.5 30,-19.5 77,-19.5 77,-0.5 30,-0.5"/>
<text text-anchor="middle" x="53.5" y="-7.5" font-family="Helvetica,sans-Serif" font-size="10.00">raylib.h</text>
</a>
</g>
</g>
<!-- Node1&#45;&gt;Node2 -->
<g id="edge1" class="edge">
<title>Node1&#45;&gt;Node2</title>
<path fill="none" stroke="midnightblue" d="M80.21,-56.4C75.28,-48.02 68.99,-37.33 63.75,-28.42"/>
<polygon fill="midnightblue" stroke="midnightblue" points="66.68,-26.5 58.59,-19.66 60.65,-30.05 66.68,-26.5"/>
</g>
<!-- Node3 -->
<g id="node3" class="node">
<title>Node3</title>
<g id="a_node3"><a xlink:href="../../df/d50/_a_patern_8h.html" target="_top" xlink:title=" ">
<polygon fill="white" stroke="black" points="95,-0.5 95,-19.5 154,-19.5 154,-0.5 95,-0.5"/>
<text text-anchor="middle" x="124.5" y="-7.5" font-family="Helvetica,sans-Serif" font-size="10.00">APatern.h</text>
</a>
</g>
</g>
<!-- Node1&#45;&gt;Node3 -->
<g id="edge2" class="edge">
<title>Node1&#45;&gt;Node3</title>
<path fill="none" stroke="midnightblue" d="M97.03,-56.4C102.1,-48.02 108.57,-37.33 113.96,-28.42"/>
<polygon fill="midnightblue" stroke="midnightblue" points="117.08,-30.03 119.26,-19.66 111.09,-26.4 117.08,-30.03"/>
</g>
</g>
</svg>
