<?xml version="1.0" encoding="UTF-8" standalone="no"?>
<!DOCTYPE svg PUBLIC "-//W3C//DTD SVG 1.1//EN"
 "http://www.w3.org/Graphics/SVG/1.1/DTD/svg11.dtd">
<!-- Generated by graphviz version 2.49.3 (20211027.1534)
 -->
<!-- Title: RayLib_SHMUP/include/Shmup/Explosion.h Pages: 1 -->
<svg width="333pt" height="207pt"
 viewBox="0.00 0.00 333.00 207.00" xmlns="http://www.w3.org/2000/svg" xmlns:xlink="http://www.w3.org/1999/xlink">
<g id="graph0" class="graph" transform="scale(1 1) rotate(0) translate(4 203)">
<title>RayLib_SHMUP/include/Shmup/Explosion.h</title>
<polygon fill="white" stroke="transparent" points="-4,4 -4,-203 329,-203 329,4 -4,4"/>
<!-- Node1 -->
<g id="node1" class="node">
<title>Node1</title>
<g id="a_node1"><a xlink:title=" ">
<polygon fill="#bfbfbf" stroke="black" points="0,-168.5 0,-198.5 122,-198.5 122,-168.5 0,-168.5"/>
<text text-anchor="start" x="8" y="-186.5" font-family="Helvetica,sans-Serif" font-size="10.00">RayLib_SHMUP/include</text>
<text text-anchor="middle" x="61" y="-175.5" font-family="Helvetica,sans-Serif" font-size="10.00">/Shmup/Explosion.h</text>
</a>
</g>
</g>
<!-- Node2 -->
<g id="node2" class="node">
<title>Node2</title>
<g id="a_node2"><a xlink:title=" ">
<polygon fill="white" stroke="#bfbfbf" points="29.5,-0.5 29.5,-19.5 76.5,-19.5 76.5,-0.5 29.5,-0.5"/>
<text text-anchor="middle" x="53" y="-7.5" font-family="Helvetica,sans-Serif" font-size="10.00">raylib.h</text>
</a>
</g>
</g>
<!-- Node1&#45;&gt;Node2 -->
<g id="edge1" class="edge">
<title>Node1&#45;&gt;Node2</title>
<path fill="none" stroke="midnightblue" d="M56.62,-168.08C53.82,-158.06 50.45,-144.35 49,-132 44.77,-95.94 48.07,-53.45 50.66,-29.63"/>
<polygon fill="midnightblue" stroke="midnightblue" points="54.16,-29.88 51.84,-19.55 47.21,-29.07 54.16,-29.88"/>
</g>
<!-- Node3 -->
<g id="node3" class="node">
<title>Node3</title>
<g id="a_node3"><a xlink:href="../../d7/daf/_a_graphic_object_8h.html" target="_top" xlink:title=" ">
<polygon fill="white" stroke="black" points="58.5,-112.5 58.5,-131.5 185.5,-131.5 185.5,-112.5 58.5,-112.5"/>
<text text-anchor="middle" x="122" y="-119.5" font-family="Helvetica,sans-Serif" font-size="10.00">Shmup/AGraphicObject.h</text>
</a>
</g>
</g>
<!-- Node1&#45;&gt;Node3 -->
<g id="edge2" class="edge">
<title>Node1&#45;&gt;Node3</title>
<path fill="none" stroke="midnightblue" d="M75.46,-168.4C84.59,-159.49 96.42,-147.95 105.86,-138.74"/>
<polygon fill="midnightblue" stroke="midnightblue" points="108.41,-141.15 113.12,-131.66 103.52,-136.13 108.41,-141.15"/>
</g>
<!-- Node3&#45;&gt;Node2 -->
<g id="edge3" class="edge">
<title>Node3&#45;&gt;Node2</title>
<path fill="none" stroke="midnightblue" d="M108.63,-112.19C97.3,-104.08 81.45,-91.03 72,-76 63.1,-61.85 58.23,-43.36 55.65,-29.73"/>
<polygon fill="midnightblue" stroke="midnightblue" points="59.07,-28.91 53.99,-19.61 52.16,-30.05 59.07,-28.91"/>
</g>
<!-- Node4 -->
<g id="node4" class="node">
<title>Node4</title>
<g id="a_node4"><a xlink:href="../../dc/d80/_instance_list_8h.html" target="_top" xlink:title=" ">
<polygon fill="white" stroke="black" points="213,-56.5 213,-75.5 325,-75.5 325,-56.5 213,-56.5"/>
<text text-anchor="middle" x="269" y="-63.5" font-family="Helvetica,sans-Serif" font-size="10.00">Shmup/InstanceList.h</text>
</a>
</g>
</g>
<!-- Node3&#45;&gt;Node4 -->
<g id="edge4" class="edge">
<title>Node3&#45;&gt;Node4</title>
<path fill="none" stroke="midnightblue" d="M145.29,-112.44C169.81,-103.44 208.6,-89.19 236.2,-79.05"/>
<polygon fill="midnightblue" stroke="midnightblue" points="237.64,-82.25 245.82,-75.52 235.22,-75.68 237.64,-82.25"/>
</g>
<!-- Node7 -->
<g id="node7" class="node">
<title>Node7</title>
<g id="a_node7"><a xlink:href="../../da/d02/_transform2_d_8h.html" target="_top" xlink:title=" ">
<polygon fill="white" stroke="black" points="81,-56.5 81,-75.5 195,-75.5 195,-56.5 81,-56.5"/>
<text text-anchor="middle" x="138" y="-63.5" font-family="Helvetica,sans-Serif" font-size="10.00">Shmup/Transform2D.h</text>
</a>
</g>
</g>
<!-- Node3&#45;&gt;Node7 -->
<g id="edge7" class="edge">
<title>Node3&#45;&gt;Node7</title>
<path fill="none" stroke="midnightblue" d="M124.64,-112.08C126.79,-104.85 129.88,-94.41 132.55,-85.4"/>
<polygon fill="midnightblue" stroke="midnightblue" points="135.92,-86.33 135.41,-75.75 129.21,-84.34 135.92,-86.33"/>
</g>
<!-- Node5 -->
<g id="node5" class="node">
<title>Node5</title>
<g id="a_node5"><a xlink:title=" ">
<polygon fill="white" stroke="#bfbfbf" points="208,-0.5 208,-19.5 262,-19.5 262,-0.5 208,-0.5"/>
<text text-anchor="middle" x="235" y="-7.5" font-family="Helvetica,sans-Serif" font-size="10.00">iostream</text>
</a>
</g>
</g>
<!-- Node4&#45;&gt;Node5 -->
<g id="edge5" class="edge">
<title>Node4&#45;&gt;Node5</title>
<path fill="none" stroke="midnightblue" d="M263.39,-56.08C258.63,-48.53 251.68,-37.49 245.85,-28.23"/>
<polygon fill="midnightblue" stroke="midnightblue" points="248.8,-26.35 240.51,-19.75 242.88,-30.08 248.8,-26.35"/>
</g>
<!-- Node6 -->
<g id="node6" class="node">
<title>Node6</title>
<g id="a_node6"><a xlink:title=" ">
<polygon fill="white" stroke="#bfbfbf" points="280,-0.5 280,-19.5 324,-19.5 324,-0.5 280,-0.5"/>
<text text-anchor="middle" x="302" y="-7.5" font-family="Helvetica,sans-Serif" font-size="10.00">vector</text>
</a>
</g>
</g>
<!-- Node4&#45;&gt;Node6 -->
<g id="edge6" class="edge">
<title>Node4&#45;&gt;Node6</title>
<path fill="none" stroke="midnightblue" d="M274.45,-56.08C279.01,-48.61 285.67,-37.72 291.29,-28.52"/>
<polygon fill="midnightblue" stroke="midnightblue" points="294.42,-30.11 296.65,-19.75 288.45,-26.46 294.42,-30.11"/>
</g>
<!-- Node7&#45;&gt;Node2 -->
<g id="edge8" class="edge">
<title>Node7&#45;&gt;Node2</title>
<path fill="none" stroke="midnightblue" d="M124.34,-56.32C111.08,-47.9 90.73,-34.97 75.15,-25.07"/>
<polygon fill="midnightblue" stroke="midnightblue" points="76.94,-22.06 66.62,-19.65 73.19,-27.97 76.94,-22.06"/>
</g>
</g>
</svg>
