<?xml version="1.0" encoding="UTF-8" standalone="no"?>
<!DOCTYPE svg PUBLIC "-//W3C//DTD SVG 1.1//EN"
 "http://www.w3.org/Graphics/SVG/1.1/DTD/svg11.dtd">
<!-- Generated by graphviz version 2.49.3 (20211027.1534)
 -->
<!-- Title: RayLib_SHMUP/include/Shmup/Explosion.h Pages: 1 -->
<svg width="323pt" height="207pt"
 viewBox="0.00 0.00 322.50 207.00" xmlns="http://www.w3.org/2000/svg" xmlns:xlink="http://www.w3.org/1999/xlink">
<g id="graph0" class="graph" transform="scale(1 1) rotate(0) translate(4 203)">
<title>RayLib_SHMUP/include/Shmup/Explosion.h</title>
<polygon fill="white" stroke="transparent" points="-4,4 -4,-203 318.5,-203 318.5,4 -4,4"/>
<!-- Node1 -->
<g id="node1" class="node">
<title>Node1</title>
<g id="a_node1"><a xlink:title=" ">
<polygon fill="#bfbfbf" stroke="black" points="31.5,-168.5 31.5,-198.5 153.5,-198.5 153.5,-168.5 31.5,-168.5"/>
<text text-anchor="start" x="39.5" y="-186.5" font-family="Helvetica,sans-Serif" font-size="10.00">RayLib_SHMUP/include</text>
<text text-anchor="middle" x="92.5" y="-175.5" font-family="Helvetica,sans-Serif" font-size="10.00">/Shmup/Explosion.h</text>
</a>
</g>
</g>
<!-- Node2 -->
<g id="node2" class="node">
<title>Node2</title>
<g id="a_node2"><a xlink:title=" ">
<polygon fill="white" stroke="#bfbfbf" points="0,-0.5 0,-19.5 47,-19.5 47,-0.5 0,-0.5"/>
<text text-anchor="middle" x="23.5" y="-7.5" font-family="Helvetica,sans-Serif" font-size="10.00">raylib.h</text>
</a>
</g>
</g>
<!-- Node1&#45;&gt;Node2 -->
<g id="edge1" class="edge">
<title>Node1&#45;&gt;Node2</title>
<path fill="none" stroke="midnightblue" d="M59.09,-168.34C44.11,-160.09 27.94,-148.11 19.5,-132 2.32,-99.23 10.66,-54.31 17.55,-29.45"/>
<polygon fill="midnightblue" stroke="midnightblue" points="20.99,-30.14 20.51,-19.55 14.29,-28.13 20.99,-30.14"/>
</g>
<!-- Node3 -->
<g id="node3" class="node">
<title>Node3</title>
<g id="a_node3"><a xlink:href="../../d7/daf/_a_graphic_object_8h.html" target="_top" xlink:title=" ">
<polygon fill="white" stroke="black" points="29,-112.5 29,-131.5 156,-131.5 156,-112.5 29,-112.5"/>
<text text-anchor="middle" x="92.5" y="-119.5" font-family="Helvetica,sans-Serif" font-size="10.00">Shmup/AGraphicObject.h</text>
</a>
</g>
</g>
<!-- Node1&#45;&gt;Node3 -->
<g id="edge2" class="edge">
<title>Node1&#45;&gt;Node3</title>
<path fill="none" stroke="midnightblue" d="M92.5,-168.4C92.5,-160.47 92.5,-150.46 92.5,-141.86"/>
<polygon fill="midnightblue" stroke="midnightblue" points="96,-141.66 92.5,-131.66 89,-141.66 96,-141.66"/>
</g>
<!-- Node8 -->
<g id="node8" class="node">
<title>Node8</title>
<g id="a_node8"><a xlink:href="../../d5/daf/_game_status_8h.html" target="_top" xlink:title=" ">
<polygon fill="white" stroke="black" points="174.5,-112.5 174.5,-131.5 314.5,-131.5 314.5,-112.5 174.5,-112.5"/>
<text text-anchor="middle" x="244.5" y="-119.5" font-family="Helvetica,sans-Serif" font-size="10.00">Namespaces/GameStatus.h</text>
</a>
</g>
</g>
<!-- Node1&#45;&gt;Node8 -->
<g id="edge9" class="edge">
<title>Node1&#45;&gt;Node8</title>
<path fill="none" stroke="midnightblue" d="M128.52,-168.4C154.14,-158.37 188.23,-145.03 212.81,-135.4"/>
<polygon fill="midnightblue" stroke="midnightblue" points="214.35,-138.56 222.38,-131.66 211.79,-132.04 214.35,-138.56"/>
</g>
<!-- Node3&#45;&gt;Node2 -->
<g id="edge3" class="edge">
<title>Node3&#45;&gt;Node2</title>
<path fill="none" stroke="midnightblue" d="M79.13,-112.19C67.8,-104.08 51.95,-91.03 42.5,-76 33.6,-61.85 28.73,-43.36 26.15,-29.73"/>
<polygon fill="midnightblue" stroke="midnightblue" points="29.57,-28.91 24.49,-19.61 22.66,-30.05 29.57,-28.91"/>
</g>
<!-- Node4 -->
<g id="node4" class="node">
<title>Node4</title>
<g id="a_node4"><a xlink:href="../../dc/d80/_instance_list_8h.html" target="_top" xlink:title=" ">
<polygon fill="white" stroke="black" points="183.5,-56.5 183.5,-75.5 295.5,-75.5 295.5,-56.5 183.5,-56.5"/>
<text text-anchor="middle" x="239.5" y="-63.5" font-family="Helvetica,sans-Serif" font-size="10.00">Shmup/InstanceList.h</text>
</a>
</g>
</g>
<!-- Node3&#45;&gt;Node4 -->
<g id="edge4" class="edge">
<title>Node3&#45;&gt;Node4</title>
<path fill="none" stroke="midnightblue" d="M115.79,-112.44C140.31,-103.44 179.1,-89.19 206.7,-79.05"/>
<polygon fill="midnightblue" stroke="midnightblue" points="208.14,-82.25 216.32,-75.52 205.72,-75.68 208.14,-82.25"/>
</g>
<!-- Node7 -->
<g id="node7" class="node">
<title>Node7</title>
<g id="a_node7"><a xlink:href="../../da/d02/_transform2_d_8h.html" target="_top" xlink:title=" ">
<polygon fill="white" stroke="black" points="51.5,-56.5 51.5,-75.5 165.5,-75.5 165.5,-56.5 51.5,-56.5"/>
<text text-anchor="middle" x="108.5" y="-63.5" font-family="Helvetica,sans-Serif" font-size="10.00">Shmup/Transform2D.h</text>
</a>
</g>
</g>
<!-- Node3&#45;&gt;Node7 -->
<g id="edge7" class="edge">
<title>Node3&#45;&gt;Node7</title>
<path fill="none" stroke="midnightblue" d="M95.14,-112.08C97.29,-104.85 100.38,-94.41 103.05,-85.4"/>
<polygon fill="midnightblue" stroke="midnightblue" points="106.42,-86.33 105.91,-75.75 99.71,-84.34 106.42,-86.33"/>
</g>
<!-- Node5 -->
<g id="node5" class="node">
<title>Node5</title>
<g id="a_node5"><a xlink:title=" ">
<polygon fill="white" stroke="#bfbfbf" points="178.5,-0.5 178.5,-19.5 232.5,-19.5 232.5,-0.5 178.5,-0.5"/>
<text text-anchor="middle" x="205.5" y="-7.5" font-family="Helvetica,sans-Serif" font-size="10.00">iostream</text>
</a>
</g>
</g>
<!-- Node4&#45;&gt;Node5 -->
<g id="edge5" class="edge">
<title>Node4&#45;&gt;Node5</title>
<path fill="none" stroke="midnightblue" d="M233.89,-56.08C229.13,-48.53 222.18,-37.49 216.35,-28.23"/>
<polygon fill="midnightblue" stroke="midnightblue" points="219.3,-26.35 211.01,-19.75 213.38,-30.08 219.3,-26.35"/>
</g>
<!-- Node6 -->
<g id="node6" class="node">
<title>Node6</title>
<g id="a_node6"><a xlink:title=" ">
<polygon fill="white" stroke="#bfbfbf" points="250.5,-0.5 250.5,-19.5 294.5,-19.5 294.5,-0.5 250.5,-0.5"/>
<text text-anchor="middle" x="272.5" y="-7.5" font-family="Helvetica,sans-Serif" font-size="10.00">vector</text>
</a>
</g>
</g>
<!-- Node4&#45;&gt;Node6 -->
<g id="edge6" class="edge">
<title>Node4&#45;&gt;Node6</title>
<path fill="none" stroke="midnightblue" d="M244.95,-56.08C249.51,-48.61 256.17,-37.72 261.79,-28.52"/>
<polygon fill="midnightblue" stroke="midnightblue" points="264.92,-30.11 267.15,-19.75 258.95,-26.46 264.92,-30.11"/>
</g>
<!-- Node7&#45;&gt;Node2 -->
<g id="edge8" class="edge">
<title>Node7&#45;&gt;Node2</title>
<path fill="none" stroke="midnightblue" d="M94.84,-56.32C81.58,-47.9 61.23,-34.97 45.65,-25.07"/>
<polygon fill="midnightblue" stroke="midnightblue" points="47.44,-22.06 37.12,-19.65 43.69,-27.97 47.44,-22.06"/>
</g>
</g>
</svg>
