<?xml version="1.0" encoding="UTF-8" standalone="no"?>
<!DOCTYPE svg PUBLIC "-//W3C//DTD SVG 1.1//EN"
 "http://www.w3.org/Graphics/SVG/1.1/DTD/svg11.dtd">
<!-- Generated by graphviz version 2.49.3 (20211027.1534)
 -->
<!-- Title: SequenceMovePatern::Sequence Pages: 1 -->
<svg width="146pt" height="139pt"
 viewBox="0.00 0.00 145.50 139.00" xmlns="http://www.w3.org/2000/svg" xmlns:xlink="http://www.w3.org/1999/xlink">
<g id="graph0" class="graph" transform="scale(1 1) rotate(0) translate(4 135)">
<title>SequenceMovePatern::Sequence</title>
<polygon fill="white" stroke="transparent" points="-4,4 -4,-135 141.5,-135 141.5,4 -4,4"/>
<!-- Node1 -->
<g id="node1" class="node">
<title>Node1</title>
<g id="a_node1"><a xlink:title="A sequence for SequenceMovePatern">
<polygon fill="#bfbfbf" stroke="black" points="0,-0.5 0,-30.5 113,-30.5 113,-0.5 0,-0.5"/>
<text text-anchor="start" x="8" y="-18.5" font-family="Helvetica,sans-Serif" font-size="10.00">SequenceMovePatern</text>
<text text-anchor="middle" x="56.5" y="-7.5" font-family="Helvetica,sans-Serif" font-size="10.00">::Sequence</text>
</a>
</g>
</g>
<!-- Node2 -->
<g id="node2" class="node">
<title>Node2</title>
<g id="a_node2"><a xlink:title=" ">
<polygon fill="white" stroke="#bfbfbf" points="10.5,-111.5 10.5,-130.5 48.5,-130.5 48.5,-111.5 10.5,-111.5"/>
<text text-anchor="middle" x="29.5" y="-118.5" font-family="Helvetica,sans-Serif" font-size="10.00">Type</text>
</a>
</g>
</g>
<!-- Node2&#45;&gt;Node1 -->
<g id="edge1" class="edge">
<title>Node2&#45;&gt;Node1</title>
<path fill="none" stroke="#9a32cd" stroke-dasharray="5,2" d="M31.34,-100.88C33.07,-86.4 36.2,-66.15 41.5,-49 43.41,-42.83 46.24,-36.3 48.93,-30.74"/>
<polygon fill="#9a32cd" stroke="#9a32cd" points="27.83,-100.76 30.24,-111.08 34.79,-101.51 27.83,-100.76"/>
<text text-anchor="middle" x="52" y="-68.5" font-family="Helvetica,sans-Serif" font-size="10.00"> type</text>
</g>
<!-- Node3 -->
<g id="node3" class="node">
<title>Node3</title>
<g id="a_node3"><a xlink:title=" ">
<polygon fill="white" stroke="#bfbfbf" points="67,-111.5 67,-130.5 102,-130.5 102,-111.5 67,-111.5"/>
<text text-anchor="middle" x="84.5" y="-118.5" font-family="Helvetica,sans-Serif" font-size="10.00">float</text>
</a>
</g>
</g>
<!-- Node3&#45;&gt;Node1 -->
<g id="edge2" class="edge">
<title>Node3&#45;&gt;Node1</title>
<path fill="none" stroke="#9a32cd" stroke-dasharray="5,2" d="M79.44,-101.28C73.96,-81.03 65.34,-49.19 60.38,-30.84"/>
<polygon fill="#9a32cd" stroke="#9a32cd" points="76.12,-102.44 82.11,-111.18 82.88,-100.61 76.12,-102.44"/>
<text text-anchor="middle" x="107" y="-85" font-family="Helvetica,sans-Serif" font-size="10.00"> endTime</text>
<text text-anchor="middle" x="107" y="-74" font-family="Helvetica,sans-Serif" font-size="10.00">rotationSpeed</text>
<text text-anchor="middle" x="107" y="-63" font-family="Helvetica,sans-Serif" font-size="10.00">speed</text>
<text text-anchor="middle" x="107" y="-52" font-family="Helvetica,sans-Serif" font-size="10.00">startTime</text>
</g>
</g>
</svg>
