<?xml version="1.0" encoding="UTF-8" standalone="no"?>
<!DOCTYPE svg PUBLIC "-//W3C//DTD SVG 1.1//EN"
 "http://www.w3.org/Graphics/SVG/1.1/DTD/svg11.dtd">
<!-- Generated by graphviz version 2.49.3 (20211027.1534)
 -->
<!-- Title: RayLib_SHMUP/src/Namespaces/Utils.cpp Pages: 1 -->
<svg width="382pt" height="151pt"
 viewBox="0.00 0.00 382.00 151.00" xmlns="http://www.w3.org/2000/svg" xmlns:xlink="http://www.w3.org/1999/xlink">
<g id="graph0" class="graph" transform="scale(1 1) rotate(0) translate(4 147)">
<title>RayLib_SHMUP/src/Namespaces/Utils.cpp</title>
<polygon fill="white" stroke="transparent" points="-4,4 -4,-147 378,-147 378,4 -4,4"/>
<!-- Node1 -->
<g id="node1" class="node">
<title>Node1</title>
<g id="a_node1"><a xlink:title=" ">
<polygon fill="#bfbfbf" stroke="black" points="108,-112.5 108,-142.5 274,-142.5 274,-112.5 108,-112.5"/>
<text text-anchor="start" x="116" y="-130.5" font-family="Helvetica,sans-Serif" font-size="10.00">RayLib_SHMUP/src/Namespaces</text>
<text text-anchor="middle" x="191" y="-119.5" font-family="Helvetica,sans-Serif" font-size="10.00">/Utils.cpp</text>
</a>
</g>
</g>
<!-- Node2 -->
<g id="node2" class="node">
<title>Node2</title>
<g id="a_node2"><a xlink:title=" ">
<polygon fill="white" stroke="#bfbfbf" points="0,-0.5 0,-19.5 54,-19.5 54,-0.5 0,-0.5"/>
<text text-anchor="middle" x="27" y="-7.5" font-family="Helvetica,sans-Serif" font-size="10.00">iostream</text>
</a>
</g>
</g>
<!-- Node1&#45;&gt;Node2 -->
<g id="edge1" class="edge">
<title>Node1&#45;&gt;Node2</title>
<path fill="none" stroke="midnightblue" d="M148.41,-112.44C126.62,-103.98 100.45,-91.77 80,-76 62.6,-62.58 47.29,-42.39 37.66,-28.08"/>
<polygon fill="midnightblue" stroke="midnightblue" points="40.57,-26.13 32.18,-19.65 34.7,-29.94 40.57,-26.13"/>
</g>
<!-- Node3 -->
<g id="node3" class="node">
<title>Node3</title>
<g id="a_node3"><a xlink:title=" ">
<polygon fill="white" stroke="#bfbfbf" points="72,-0.5 72,-19.5 116,-19.5 116,-0.5 72,-0.5"/>
<text text-anchor="middle" x="94" y="-7.5" font-family="Helvetica,sans-Serif" font-size="10.00">vector</text>
</a>
</g>
</g>
<!-- Node1&#45;&gt;Node3 -->
<g id="edge2" class="edge">
<title>Node1&#45;&gt;Node3</title>
<path fill="none" stroke="midnightblue" d="M137.53,-112.46C119.22,-104.82 100.67,-93.26 90,-76 81.46,-62.19 83.76,-43.42 87.43,-29.6"/>
<polygon fill="midnightblue" stroke="midnightblue" points="90.86,-30.35 90.48,-19.77 84.17,-28.28 90.86,-30.35"/>
</g>
<!-- Node4 -->
<g id="node4" class="node">
<title>Node4</title>
<g id="a_node4"><a xlink:title=" ">
<polygon fill="white" stroke="#bfbfbf" points="260,-56.5 260,-75.5 316,-75.5 316,-56.5 260,-56.5"/>
<text text-anchor="middle" x="288" y="-63.5" font-family="Helvetica,sans-Serif" font-size="10.00">algorithm</text>
</a>
</g>
</g>
<!-- Node1&#45;&gt;Node4 -->
<g id="edge3" class="edge">
<title>Node1&#45;&gt;Node4</title>
<path fill="none" stroke="midnightblue" d="M213.99,-112.4C229.39,-102.95 249.59,-90.56 265,-81.11"/>
<polygon fill="midnightblue" stroke="midnightblue" points="267.19,-83.87 273.89,-75.66 263.53,-77.9 267.19,-83.87"/>
</g>
<!-- Node5 -->
<g id="node5" class="node">
<title>Node5</title>
<g id="a_node5"><a xlink:title=" ">
<polygon fill="white" stroke="#bfbfbf" points="211.5,-0.5 211.5,-19.5 252.5,-19.5 252.5,-0.5 211.5,-0.5"/>
<text text-anchor="middle" x="232" y="-7.5" font-family="Helvetica,sans-Serif" font-size="10.00">string</text>
</a>
</g>
</g>
<!-- Node1&#45;&gt;Node5 -->
<g id="edge4" class="edge">
<title>Node1&#45;&gt;Node5</title>
<path fill="none" stroke="midnightblue" d="M197.85,-112.11C202.46,-102.11 208.5,-88.41 213,-76 218.63,-60.46 223.81,-42.38 227.33,-29.24"/>
<polygon fill="midnightblue" stroke="midnightblue" points="230.73,-30.08 229.88,-19.52 223.96,-28.31 230.73,-30.08"/>
</g>
<!-- Node6 -->
<g id="node6" class="node">
<title>Node6</title>
<g id="a_node6"><a xlink:title=" ">
<polygon fill="white" stroke="#bfbfbf" points="334,-56.5 334,-75.5 374,-75.5 374,-56.5 334,-56.5"/>
<text text-anchor="middle" x="354" y="-63.5" font-family="Helvetica,sans-Serif" font-size="10.00">regex</text>
</a>
</g>
</g>
<!-- Node1&#45;&gt;Node6 -->
<g id="edge5" class="edge">
<title>Node1&#45;&gt;Node6</title>
<path fill="none" stroke="midnightblue" d="M229.63,-112.4C258.68,-101.79 297.89,-87.48 324.46,-77.78"/>
<polygon fill="midnightblue" stroke="midnightblue" points="325.78,-81.03 333.98,-74.31 323.38,-74.45 325.78,-81.03"/>
</g>
<!-- Node7 -->
<g id="node7" class="node">
<title>Node7</title>
<g id="a_node7"><a xlink:href="../../d9/dc1/_utils_8h.html" target="_top" xlink:title=" ">
<polygon fill="white" stroke="black" points="98.5,-56.5 98.5,-75.5 203.5,-75.5 203.5,-56.5 98.5,-56.5"/>
<text text-anchor="middle" x="151" y="-63.5" font-family="Helvetica,sans-Serif" font-size="10.00">Namespaces/Utils.h</text>
</a>
</g>
</g>
<!-- Node1&#45;&gt;Node7 -->
<g id="edge6" class="edge">
<title>Node1&#45;&gt;Node7</title>
<path fill="none" stroke="midnightblue" d="M181.52,-112.4C175.83,-103.93 168.55,-93.1 162.52,-84.14"/>
<polygon fill="midnightblue" stroke="midnightblue" points="165.3,-82 156.82,-75.66 159.49,-85.91 165.3,-82"/>
</g>
<!-- Node7&#45;&gt;Node2 -->
<g id="edge7" class="edge">
<title>Node7&#45;&gt;Node2</title>
<path fill="none" stroke="midnightblue" d="M131.35,-56.44C111.04,-47.6 79.1,-33.69 55.9,-23.59"/>
<polygon fill="midnightblue" stroke="midnightblue" points="57.12,-20.3 46.56,-19.52 54.33,-26.72 57.12,-20.3"/>
</g>
<!-- Node7&#45;&gt;Node3 -->
<g id="edge9" class="edge">
<title>Node7&#45;&gt;Node3</title>
<path fill="none" stroke="midnightblue" d="M141.84,-56.32C133.5,-48.42 120.97,-36.55 110.82,-26.94"/>
<polygon fill="midnightblue" stroke="midnightblue" points="112.99,-24.17 103.32,-19.83 108.18,-29.25 112.99,-24.17"/>
</g>
<!-- Node7&#45;&gt;Node5 -->
<g id="edge8" class="edge">
<title>Node7&#45;&gt;Node5</title>
<path fill="none" stroke="midnightblue" d="M164.01,-56.32C176.53,-47.98 195.68,-35.21 210.47,-25.35"/>
<polygon fill="midnightblue" stroke="midnightblue" points="212.64,-28.11 219.02,-19.65 208.76,-22.29 212.64,-28.11"/>
</g>
<!-- Node8 -->
<g id="node8" class="node">
<title>Node8</title>
<g id="a_node8"><a xlink:title=" ">
<polygon fill="white" stroke="#bfbfbf" points="134.5,-0.5 134.5,-19.5 193.5,-19.5 193.5,-0.5 134.5,-0.5"/>
<text text-anchor="middle" x="164" y="-7.5" font-family="Helvetica,sans-Serif" font-size="10.00">functional</text>
</a>
</g>
</g>
<!-- Node7&#45;&gt;Node8 -->
<g id="edge10" class="edge">
<title>Node7&#45;&gt;Node8</title>
<path fill="none" stroke="midnightblue" d="M153.15,-56.08C154.87,-48.93 157.35,-38.64 159.5,-29.69"/>
<polygon fill="midnightblue" stroke="midnightblue" points="162.96,-30.29 161.89,-19.75 156.15,-28.65 162.96,-30.29"/>
</g>
</g>
</svg>
