<?xml version="1.0" encoding="UTF-8" standalone="no"?>
<!DOCTYPE svg PUBLIC "-//W3C//DTD SVG 1.1//EN"
 "http://www.w3.org/Graphics/SVG/1.1/DTD/svg11.dtd">
<!-- Generated by graphviz version 2.49.3 (20211027.1534)
 -->
<!-- Title: RayLib_SHMUP/include/Namespaces/GameStatus.h Pages: 1 -->
<!--zoomable 173 -->
<svg id="main" version="1.1" xmlns="http://www.w3.org/2000/svg" xmlns:xlink="http://www.w3.org/1999/xlink" xml:space="preserve" onload="init(evt)">
<style type="text/css"><![CDATA[
.edge:hover path { stroke: red; }
.edge:hover polygon { stroke: red; fill: red; }
]]></style>
<script type="text/javascript"><![CDATA[
var edges = document.getElementsByTagName('g');
if (edges && edges.length) {
  for (var i=0;i<edges.length;i++) {
    if (edges[i].id.substr(0,4)=='edge') {
      edges[i].setAttribute('class','edge');
    }
  }
}
]]></script>
        <defs>
                <circle id="rim" cx="0" cy="0" r="7"/>
                <circle id="rim2" cx="0" cy="0" r="3.5"/>
                <g id="zoomPlus">
                        <use xlink:href="#rim" fill="#404040">
                                <set attributeName="fill" to="#808080" begin="zoomplus.mouseover" end="zoomplus.mouseout"/>
                        </use>
                        <path d="M-4,0h8M0,-4v8" fill="none" stroke="white" stroke-width="1.5" pointer-events="none"/>
                </g>
                <g id="zoomMin">
                        <use xlink:href="#rim" fill="#404040">
                                <set attributeName="fill" to="#808080" begin="zoomminus.mouseover" end="zoomminus.mouseout"/>
                        </use>
                        <path d="M-4,0h8" fill="none" stroke="white" stroke-width="1.5" pointer-events="none"/>
                </g>
                <g id="dirArrow">
                        <path fill="none" stroke="white" stroke-width="1.5" d="M0,-3.0v7 M-2.5,-0.5L0,-3.0L2.5,-0.5"/>
                </g>
               <g id="resetDef">
                       <use xlink:href="#rim2" fill="#404040">
                               <set attributeName="fill" to="#808080" begin="reset.mouseover" end="reset.mouseout"/>
                       </use>
               </g>
        </defs>

<script type="text/javascript">
var viewWidth = 2211;
var viewHeight = 173;
var sectionId = 'dynsection-0';
</script>
<script xlink:href="../../svgpan.js"/>
<svg id="graph" class="graph">
<g id="viewport">
<title>RayLib_SHMUP/include/Namespaces/GameStatus.h</title>
<polygon fill="white" stroke="transparent" points="-4,4 -4,-169 2207,-169 2207,4 -4,4"/>
<!-- Node1 -->
<g id="node1" class="node">
<title>Node1</title>
<g id="a_node1"><a xlink:title=" ">
<polygon fill="#bfbfbf" stroke="black" points="902,-134.5 902,-164.5 1045,-164.5 1045,-134.5 902,-134.5"/>
<text text-anchor="start" x="910" y="-152.5" font-family="Helvetica,sans-Serif" font-size="10.00">RayLib_SHMUP/include</text>
<text text-anchor="middle" x="973.5" y="-141.5" font-family="Helvetica,sans-Serif" font-size="10.00">/Namespaces/GameStatus.h</text>
</a>
</g>
</g>
<!-- Node2 -->
<g id="node2" class="node">
<title>Node2</title>
<g id="a_node2"><a xlink:href="../../d9/dee/_explosion_8h.html" target="_top" xlink:title=" ">
<polygon fill="white" stroke="black" points="97.5,-67.5 97.5,-97.5 219.5,-97.5 219.5,-67.5 97.5,-67.5"/>
<text text-anchor="start" x="105.5" y="-85.5" font-family="Helvetica,sans-Serif" font-size="10.00">RayLib_SHMUP/include</text>
<text text-anchor="middle" x="158.5" y="-74.5" font-family="Helvetica,sans-Serif" font-size="10.00">/Shmup/Explosion.h</text>
</a>
</g>
</g>
<!-- Node1&#45;&gt;Node2 -->
<g id="edge1" class="edge">
<title>Node1&#45;&gt;Node2</title>
<path fill="none" stroke="midnightblue" d="M891.38,-146.19C754.49,-141.6 471.2,-128.97 233.5,-98 229.03,-97.42 224.42,-96.73 219.8,-95.99"/>
<polygon fill="midnightblue" stroke="midnightblue" points="891.67,-149.7 901.78,-146.53 891.9,-142.7 891.67,-149.7"/>
</g>
<!-- Node3 -->
<g id="node3" class="node">
<title>Node3</title>
<g id="a_node3"><a xlink:href="../../d5/d01/_explosion_8cpp.html" target="_top" xlink:title=" ">
<polygon fill="white" stroke="black" points="0,-0.5 0,-30.5 139,-30.5 139,-0.5 0,-0.5"/>
<text text-anchor="start" x="8" y="-18.5" font-family="Helvetica,sans-Serif" font-size="10.00">RayLib_SHMUP/src/Shmup</text>
<text text-anchor="middle" x="69.5" y="-7.5" font-family="Helvetica,sans-Serif" font-size="10.00">/Explosion.cpp</text>
</a>
</g>
</g>
<!-- Node1&#45;&gt;Node3 -->
<g id="edge11" class="edge">
<title>Node1&#45;&gt;Node3</title>
<path fill="none" stroke="midnightblue" d="M891.57,-146.46C678.05,-140.81 118.95,-123.62 88.5,-98 68.93,-81.54 67.29,-49.19 68.17,-30.58"/>
<polygon fill="midnightblue" stroke="midnightblue" points="891.68,-149.97 901.77,-146.73 891.87,-142.97 891.68,-149.97"/>
</g>
<!-- Node4 -->
<g id="node4" class="node">
<title>Node4</title>
<g id="a_node4"><a xlink:href="../../de/d34/_enemy_8cpp.html" target="_top" xlink:title=" ">
<polygon fill="white" stroke="black" points="157,-0.5 157,-30.5 296,-30.5 296,-0.5 157,-0.5"/>
<text text-anchor="start" x="165" y="-18.5" font-family="Helvetica,sans-Serif" font-size="10.00">RayLib_SHMUP/src/Shmup</text>
<text text-anchor="middle" x="226.5" y="-7.5" font-family="Helvetica,sans-Serif" font-size="10.00">/Movable/Enemy.cpp</text>
</a>
</g>
</g>
<!-- Node1&#45;&gt;Node4 -->
<g id="edge13" class="edge">
<title>Node1&#45;&gt;Node4</title>
<path fill="none" stroke="midnightblue" d="M891.6,-147.19C716.46,-143.75 317.28,-132.22 266.5,-98 243.36,-82.41 233.1,-49.42 228.97,-30.54"/>
<polygon fill="midnightblue" stroke="midnightblue" points="891.73,-150.7 901.8,-147.39 891.87,-143.7 891.73,-150.7"/>
</g>
<!-- Node5 -->
<g id="node5" class="node">
<title>Node5</title>
<g id="a_node5"><a xlink:href="../../db/d01/_testing_8h.html" target="_top" xlink:title=" ">
<polygon fill="white" stroke="black" points="275.5,-67.5 275.5,-97.5 397.5,-97.5 397.5,-67.5 275.5,-67.5"/>
<text text-anchor="start" x="283.5" y="-85.5" font-family="Helvetica,sans-Serif" font-size="10.00">RayLib_SHMUP/include</text>
<text text-anchor="middle" x="336.5" y="-74.5" font-family="Helvetica,sans-Serif" font-size="10.00">/Testing/Testing.h</text>
</a>
</g>
</g>
<!-- Node1&#45;&gt;Node5 -->
<g id="edge4" class="edge">
<title>Node1&#45;&gt;Node5</title>
<path fill="none" stroke="midnightblue" d="M891.5,-144.17C780.93,-137.66 578.1,-123.33 406.5,-98 403.55,-97.57 400.54,-97.08 397.51,-96.57"/>
<polygon fill="midnightblue" stroke="midnightblue" points="891.4,-147.67 901.58,-144.76 891.8,-140.69 891.4,-147.67"/>
</g>
<!-- Node7 -->
<g id="node7" class="node">
<title>Node7</title>
<g id="a_node7"><a xlink:href="../../da/da3/_main_release_8cpp.html" target="_top" xlink:title=" ">
<polygon fill="white" stroke="black" points="415.5,-73 415.5,-92 597.5,-92 597.5,-73 415.5,-73"/>
<text text-anchor="middle" x="506.5" y="-80" font-family="Helvetica,sans-Serif" font-size="10.00">RayLib_SHMUP/src/MainRelease.cpp</text>
</a>
</g>
</g>
<!-- Node1&#45;&gt;Node7 -->
<g id="edge6" class="edge">
<title>Node1&#45;&gt;Node7</title>
<path fill="none" stroke="midnightblue" d="M891.51,-137.39C817.12,-127.27 704.42,-111.84 606.5,-98 592.95,-96.09 578.38,-93.99 564.66,-92.01"/>
<polygon fill="midnightblue" stroke="midnightblue" points="891.37,-140.9 901.75,-138.78 892.31,-133.97 891.37,-140.9"/>
</g>
<!-- Node8 -->
<g id="node8" class="node">
<title>Node8</title>
<g id="a_node8"><a xlink:href="../../d3/dec/_controller_8cpp.html" target="_top" xlink:title=" ">
<polygon fill="white" stroke="black" points="615.5,-67.5 615.5,-97.5 781.5,-97.5 781.5,-67.5 615.5,-67.5"/>
<text text-anchor="start" x="623.5" y="-85.5" font-family="Helvetica,sans-Serif" font-size="10.00">RayLib_SHMUP/src/Namespaces</text>
<text text-anchor="middle" x="698.5" y="-74.5" font-family="Helvetica,sans-Serif" font-size="10.00">/Controller.cpp</text>
</a>
</g>
</g>
<!-- Node1&#45;&gt;Node8 -->
<g id="edge7" class="edge">
<title>Node1&#45;&gt;Node8</title>
<path fill="none" stroke="midnightblue" d="M904.19,-132.12C859.2,-121.48 801.15,-107.76 758.2,-97.61"/>
<polygon fill="midnightblue" stroke="midnightblue" points="903.63,-135.58 914.17,-134.48 905.24,-128.77 903.63,-135.58"/>
</g>
<!-- Node9 -->
<g id="node9" class="node">
<title>Node9</title>
<g id="a_node9"><a xlink:href="../../d1/d40/_game_status_8cpp.html" target="_top" xlink:title=" ">
<polygon fill="white" stroke="black" points="799.5,-67.5 799.5,-97.5 965.5,-97.5 965.5,-67.5 799.5,-67.5"/>
<text text-anchor="start" x="807.5" y="-85.5" font-family="Helvetica,sans-Serif" font-size="10.00">RayLib_SHMUP/src/Namespaces</text>
<text text-anchor="middle" x="882.5" y="-74.5" font-family="Helvetica,sans-Serif" font-size="10.00">/GameStatus.cpp</text>
</a>
</g>
</g>
<!-- Node1&#45;&gt;Node9 -->
<g id="edge8" class="edge">
<title>Node1&#45;&gt;Node9</title>
<path fill="none" stroke="midnightblue" d="M945.43,-128.45C931.43,-118.45 914.84,-106.6 902.21,-97.58"/>
<polygon fill="midnightblue" stroke="midnightblue" points="943.58,-131.43 953.75,-134.4 947.65,-125.74 943.58,-131.43"/>
</g>
<!-- Node10 -->
<g id="node10" class="node">
<title>Node10</title>
<g id="a_node10"><a xlink:href="../../d3/d32/_patern_computer_8cpp.html" target="_top" xlink:title=" ">
<polygon fill="white" stroke="black" points="984,-67.5 984,-97.5 1145,-97.5 1145,-67.5 984,-67.5"/>
<text text-anchor="start" x="992" y="-85.5" font-family="Helvetica,sans-Serif" font-size="10.00">RayLib_SHMUP/src/PaternEditor</text>
<text text-anchor="middle" x="1064.5" y="-74.5" font-family="Helvetica,sans-Serif" font-size="10.00">/PaternComputer.cpp</text>
</a>
</g>
</g>
<!-- Node1&#45;&gt;Node10 -->
<g id="edge9" class="edge">
<title>Node1&#45;&gt;Node10</title>
<path fill="none" stroke="midnightblue" d="M1001.57,-128.45C1015.57,-118.45 1032.16,-106.6 1044.79,-97.58"/>
<polygon fill="midnightblue" stroke="midnightblue" points="999.35,-125.74 993.25,-134.4 1003.42,-131.43 999.35,-125.74"/>
</g>
<!-- Node11 -->
<g id="node11" class="node">
<title>Node11</title>
<g id="a_node11"><a xlink:href="../../d5/d58/_patern_editor_main_8cpp.html" target="_top" xlink:title=" ">
<polygon fill="white" stroke="black" points="1163,-67.5 1163,-97.5 1324,-97.5 1324,-67.5 1163,-67.5"/>
<text text-anchor="start" x="1171" y="-85.5" font-family="Helvetica,sans-Serif" font-size="10.00">RayLib_SHMUP/src/PaternEditor</text>
<text text-anchor="middle" x="1243.5" y="-74.5" font-family="Helvetica,sans-Serif" font-size="10.00">Main.cpp</text>
</a>
</g>
</g>
<!-- Node1&#45;&gt;Node11 -->
<g id="edge10" class="edge">
<title>Node1&#45;&gt;Node11</title>
<path fill="none" stroke="midnightblue" d="M1041.55,-132.12C1085.73,-121.48 1142.72,-107.76 1184.89,-97.61"/>
<polygon fill="midnightblue" stroke="midnightblue" points="1040.66,-128.73 1031.75,-134.48 1042.3,-135.54 1040.66,-128.73"/>
</g>
<!-- Node12 -->
<g id="node12" class="node">
<title>Node12</title>
<g id="a_node12"><a xlink:href="../../d2/d2e/_game_manager_8cpp.html" target="_top" xlink:title=" ">
<polygon fill="white" stroke="black" points="1342,-67.5 1342,-97.5 1481,-97.5 1481,-67.5 1342,-67.5"/>
<text text-anchor="start" x="1350" y="-85.5" font-family="Helvetica,sans-Serif" font-size="10.00">RayLib_SHMUP/src/Shmup</text>
<text text-anchor="middle" x="1411.5" y="-74.5" font-family="Helvetica,sans-Serif" font-size="10.00">/GameManager.cpp</text>
</a>
</g>
</g>
<!-- Node1&#45;&gt;Node12 -->
<g id="edge12" class="edge">
<title>Node1&#45;&gt;Node12</title>
<path fill="none" stroke="midnightblue" d="M1055.08,-138.11C1128.15,-128.55 1238.16,-113.54 1333.5,-98 1336.22,-97.56 1338.99,-97.09 1341.79,-96.62"/>
<polygon fill="midnightblue" stroke="midnightblue" points="1054.48,-134.66 1045.02,-139.42 1055.39,-141.6 1054.48,-134.66"/>
</g>
<!-- Node13 -->
<g id="node13" class="node">
<title>Node13</title>
<g id="a_node13"><a xlink:href="../../d2/d82/_player_8cpp.html" target="_top" xlink:title=" ">
<polygon fill="white" stroke="black" points="1499,-67.5 1499,-97.5 1638,-97.5 1638,-67.5 1499,-67.5"/>
<text text-anchor="start" x="1507" y="-85.5" font-family="Helvetica,sans-Serif" font-size="10.00">RayLib_SHMUP/src/Shmup</text>
<text text-anchor="middle" x="1568.5" y="-74.5" font-family="Helvetica,sans-Serif" font-size="10.00">/Movable/Player.cpp</text>
</a>
</g>
</g>
<!-- Node1&#45;&gt;Node13 -->
<g id="edge14" class="edge">
<title>Node1&#45;&gt;Node13</title>
<path fill="none" stroke="midnightblue" d="M1055.49,-142.69C1157.66,-134.95 1337.48,-119.65 1490.5,-98 1493.23,-97.61 1496.01,-97.2 1498.81,-96.76"/>
<polygon fill="midnightblue" stroke="midnightblue" points="1054.95,-139.22 1045.24,-143.46 1055.47,-146.2 1054.95,-139.22"/>
</g>
<!-- Node14 -->
<g id="node14" class="node">
<title>Node14</title>
<g id="a_node14"><a xlink:href="../../d6/dae/_shoot_8cpp.html" target="_top" xlink:title=" ">
<polygon fill="white" stroke="black" points="1656,-67.5 1656,-97.5 1795,-97.5 1795,-67.5 1656,-67.5"/>
<text text-anchor="start" x="1664" y="-85.5" font-family="Helvetica,sans-Serif" font-size="10.00">RayLib_SHMUP/src/Shmup</text>
<text text-anchor="middle" x="1725.5" y="-74.5" font-family="Helvetica,sans-Serif" font-size="10.00">/Movable/Shoot.cpp</text>
</a>
</g>
</g>
<!-- Node1&#45;&gt;Node14 -->
<g id="edge15" class="edge">
<title>Node1&#45;&gt;Node14</title>
<path fill="none" stroke="midnightblue" d="M1055.13,-145.26C1182.19,-139.57 1434.79,-125.66 1647.5,-98 1650.23,-97.64 1653.01,-97.26 1655.82,-96.84"/>
<polygon fill="midnightblue" stroke="midnightblue" points="1054.92,-141.76 1045.09,-145.7 1055.23,-148.76 1054.92,-141.76"/>
</g>
<!-- Node15 -->
<g id="node15" class="node">
<title>Node15</title>
<g id="a_node15"><a xlink:href="../../df/d32/_sequence_move_patern_8cpp.html" target="_top" xlink:title=" ">
<polygon fill="white" stroke="black" points="1813,-67.5 1813,-97.5 2016,-97.5 2016,-67.5 1813,-67.5"/>
<text text-anchor="start" x="1821" y="-85.5" font-family="Helvetica,sans-Serif" font-size="10.00">RayLib_SHMUP/src/Shmup</text>
<text text-anchor="middle" x="1914.5" y="-74.5" font-family="Helvetica,sans-Serif" font-size="10.00">/Paterns/Enemy/SequenceMovePatern.cpp</text>
</a>
</g>
</g>
<!-- Node1&#45;&gt;Node15 -->
<g id="edge16" class="edge">
<title>Node1&#45;&gt;Node15</title>
<path fill="none" stroke="midnightblue" d="M1055.49,-145.43C1204.75,-139.42 1530.7,-124.33 1804.5,-98 1807.28,-97.73 1810.1,-97.45 1812.94,-97.15"/>
<polygon fill="midnightblue" stroke="midnightblue" points="1054.9,-141.95 1045.05,-145.85 1055.18,-148.95 1054.9,-141.95"/>
</g>
<!-- Node16 -->
<g id="node16" class="node">
<title>Node16</title>
<g id="a_node16"><a xlink:href="../../db/db4/_patern_v_spread_8cpp.html" target="_top" xlink:title=" ">
<polygon fill="white" stroke="black" points="2034,-67.5 2034,-97.5 2203,-97.5 2203,-67.5 2034,-67.5"/>
<text text-anchor="start" x="2042" y="-85.5" font-family="Helvetica,sans-Serif" font-size="10.00">RayLib_SHMUP/src/Shmup</text>
<text text-anchor="middle" x="2118.5" y="-74.5" font-family="Helvetica,sans-Serif" font-size="10.00">/Paterns/Shoot/PaternVSpread.cpp</text>
</a>
</g>
</g>
<!-- Node1&#45;&gt;Node16 -->
<g id="edge17" class="edge">
<title>Node1&#45;&gt;Node16</title>
<path fill="none" stroke="midnightblue" d="M1055.15,-147.54C1232.31,-144.82 1665.04,-134.65 2025.5,-98 2028.26,-97.72 2031.07,-97.41 2033.9,-97.08"/>
<polygon fill="midnightblue" stroke="midnightblue" points="1055.07,-144.04 1045.13,-147.69 1055.18,-151.04 1055.07,-144.04"/>
</g>
<!-- Node2&#45;&gt;Node3 -->
<g id="edge2" class="edge">
<title>Node2&#45;&gt;Node3</title>
<path fill="none" stroke="midnightblue" d="M131.05,-61.45C117.36,-51.45 101.13,-39.6 88.77,-30.58"/>
<polygon fill="midnightblue" stroke="midnightblue" points="129.05,-64.32 139.19,-67.4 133.18,-58.67 129.05,-64.32"/>
</g>
<!-- Node2&#45;&gt;Node4 -->
<g id="edge3" class="edge">
<title>Node2&#45;&gt;Node4</title>
<path fill="none" stroke="midnightblue" d="M180.67,-60.31C190.87,-50.56 202.69,-39.26 211.77,-30.58"/>
<polygon fill="midnightblue" stroke="midnightblue" points="178.07,-57.96 173.25,-67.4 182.9,-63.02 178.07,-57.96"/>
</g>
<!-- Node6 -->
<g id="node6" class="node">
<title>Node6</title>
<g id="a_node6"><a xlink:href="../../dc/d38/_main_testing_8cpp.html" target="_top" xlink:title=" ">
<polygon fill="white" stroke="black" points="314.5,-0.5 314.5,-30.5 454.5,-30.5 454.5,-0.5 314.5,-0.5"/>
<text text-anchor="start" x="322.5" y="-18.5" font-family="Helvetica,sans-Serif" font-size="10.00">RayLib_SHMUP/src/Testing</text>
<text text-anchor="middle" x="384.5" y="-7.5" font-family="Helvetica,sans-Serif" font-size="10.00">/MainTesting.cpp</text>
</a>
</g>
</g>
<!-- Node5&#45;&gt;Node6 -->
<g id="edge5" class="edge">
<title>Node5&#45;&gt;Node6</title>
<path fill="none" stroke="midnightblue" d="M353,-59.16C360,-49.68 367.94,-38.92 374.11,-30.58"/>
<polygon fill="midnightblue" stroke="midnightblue" points="350.04,-57.27 346.92,-67.4 355.67,-61.43 350.04,-57.27"/>
</g>
</g>
</svg>
        <g id="navigator" transform="translate(0 0)" fill="#404254">
                <rect fill="#f2f5e9" fill-opacity="0.5" stroke="#606060" stroke-width=".5" x="0" y="0" width="60" height="60"/>
                <use id="zoomplus" xlink:href="#zoomPlus" x="17" y="9" onmousedown="handleZoom(evt,'in')"/>
                <use id="zoomminus" xlink:href="#zoomMin" x="42" y="9" onmousedown="handleZoom(evt,'out')"/>
                <use id="reset" xlink:href="#resetDef" x="30" y="36" onmousedown="handleReset()"/>
                <g id="arrowUp" xlink:href="#dirArrow" transform="translate(30 24)" onmousedown="handlePan(0,-1)">
                  <use xlink:href="#rim" fill="#404040">
                        <set attributeName="fill" to="#808080" begin="arrowUp.mouseover" end="arrowUp.mouseout"/>
                  </use>
                  <path fill="none" stroke="white" stroke-width="1.5" d="M0,-3.0v7 M-2.5,-0.5L0,-3.0L2.5,-0.5"/>
                </g>
                <g id="arrowRight" xlink:href="#dirArrow" transform="rotate(90) translate(36 -43)" onmousedown="handlePan(1,0)">
                  <use xlink:href="#rim" fill="#404040">
                        <set attributeName="fill" to="#808080" begin="arrowRight.mouseover" end="arrowRight.mouseout"/>
                  </use>
                  <path fill="none" stroke="white" stroke-width="1.5" d="M0,-3.0v7 M-2.5,-0.5L0,-3.0L2.5,-0.5"/>
                </g>
                <g id="arrowDown" xlink:href="#dirArrow" transform="rotate(180) translate(-30 -48)" onmousedown="handlePan(0,1)">
                  <use xlink:href="#rim" fill="#404040">
                        <set attributeName="fill" to="#808080" begin="arrowDown.mouseover" end="arrowDown.mouseout"/>
                  </use>
                  <path fill="none" stroke="white" stroke-width="1.5" d="M0,-3.0v7 M-2.5,-0.5L0,-3.0L2.5,-0.5"/>
                </g>
                <g id="arrowLeft" xlink:href="#dirArrow" transform="rotate(270) translate(-36 17)" onmousedown="handlePan(-1,0)">
                  <use xlink:href="#rim" fill="#404040">
                        <set attributeName="fill" to="#808080" begin="arrowLeft.mouseover" end="arrowLeft.mouseout"/>
                  </use>
                  <path fill="none" stroke="white" stroke-width="1.5" d="M0,-3.0v7 M-2.5,-0.5L0,-3.0L2.5,-0.5"/>
                </g>
        </g>
        <svg viewBox="0 0 15 15" width="100%" height="30px" preserveAspectRatio="xMaxYMin meet">
         <g id="arrow_out" transform="scale(0.3 0.3)">
          <a xlink:href="_game_status_8h__dep__incl_org.svg" target="_base">
           <rect id="button" ry="5" rx="5" y="6" x="6" height="38" width="38"
                fill="#f2f5e9" fill-opacity="0.5" stroke="#606060" stroke-width="1.0"/>
           <path id="arrow"
             d="M 11.500037,31.436501 C 11.940474,20.09759 22.043105,11.32322 32.158766,21.979434 L 37.068811,17.246167 C 37.068811,17.246167 37.088388,32 37.088388,32 L 22.160133,31.978069 C 22.160133,31.978069 26.997745,27.140456 26.997745,27.140456 C 18.528582,18.264221 13.291696,25.230495 11.500037,31.436501 z"
             style="fill:#404040;"/>
          </a>
         </g>
        </svg>
</svg>
