<?xml version="1.0" encoding="UTF-8" standalone="no"?>
<!DOCTYPE svg PUBLIC "-//W3C//DTD SVG 1.1//EN"
 "http://www.w3.org/Graphics/SVG/1.1/DTD/svg11.dtd">
<!-- Generated by graphviz version 2.49.3 (20211027.1534)
 -->
<!-- Title: RayLib_SHMUP/include/Namespaces/GameStatus.h Pages: 1 -->
<svg width="2547pt" height="173pt"
 viewBox="0.00 0.00 2547.00 173.00" xmlns="http://www.w3.org/2000/svg" xmlns:xlink="http://www.w3.org/1999/xlink">
<g id="graph0" class="graph" transform="scale(1 1) rotate(0) translate(4 169)">
<title>RayLib_SHMUP/include/Namespaces/GameStatus.h</title>
<polygon fill="white" stroke="transparent" points="-4,4 -4,-169 2543,-169 2543,4 -4,4"/>
<!-- Node1 -->
<g id="node1" class="node">
<title>Node1</title>
<g id="a_node1"><a xlink:title=" ">
<polygon fill="#bfbfbf" stroke="black" points="1082,-134.5 1082,-164.5 1225,-164.5 1225,-134.5 1082,-134.5"/>
<text text-anchor="start" x="1090" y="-152.5" font-family="Helvetica,sans-Serif" font-size="10.00">RayLib_SHMUP/include</text>
<text text-anchor="middle" x="1153.5" y="-141.5" font-family="Helvetica,sans-Serif" font-size="10.00">/Namespaces/GameStatus.h</text>
</a>
</g>
</g>
<!-- Node2 -->
<g id="node2" class="node">
<title>Node2</title>
<g id="a_node2"><a xlink:href="../../d9/dee/_explosion_8h.html" target="_top" xlink:title=" ">
<polygon fill="white" stroke="black" points="97.5,-67.5 97.5,-97.5 219.5,-97.5 219.5,-67.5 97.5,-67.5"/>
<text text-anchor="start" x="105.5" y="-85.5" font-family="Helvetica,sans-Serif" font-size="10.00">RayLib_SHMUP/include</text>
<text text-anchor="middle" x="158.5" y="-74.5" font-family="Helvetica,sans-Serif" font-size="10.00">/Shmup/Explosion.h</text>
</a>
</g>
</g>
<!-- Node1&#45;&gt;Node2 -->
<g id="edge1" class="edge">
<title>Node1&#45;&gt;Node2</title>
<path fill="none" stroke="midnightblue" d="M1071.62,-147.74C910.52,-145.42 541.28,-136.02 233.5,-98 229.02,-97.45 224.42,-96.79 219.79,-96.05"/>
<polygon fill="midnightblue" stroke="midnightblue" points="1071.88,-151.24 1081.93,-147.88 1071.97,-144.24 1071.88,-151.24"/>
</g>
<!-- Node3 -->
<g id="node3" class="node">
<title>Node3</title>
<g id="a_node3"><a xlink:href="../../d5/d01/_explosion_8cpp.html" target="_top" xlink:title=" ">
<polygon fill="white" stroke="black" points="0,-0.5 0,-30.5 139,-30.5 139,-0.5 0,-0.5"/>
<text text-anchor="start" x="8" y="-18.5" font-family="Helvetica,sans-Serif" font-size="10.00">RayLib_SHMUP/src/Shmup</text>
<text text-anchor="middle" x="69.5" y="-7.5" font-family="Helvetica,sans-Serif" font-size="10.00">/Explosion.cpp</text>
</a>
</g>
</g>
<!-- Node1&#45;&gt;Node3 -->
<g id="edge11" class="edge">
<title>Node1&#45;&gt;Node3</title>
<path fill="none" stroke="midnightblue" d="M1071.43,-147.29C828.25,-143.35 126.09,-129.32 88.5,-98 68.85,-81.63 67.24,-49.25 68.15,-30.61"/>
<polygon fill="midnightblue" stroke="midnightblue" points="1071.56,-150.79 1081.62,-147.45 1071.68,-143.79 1071.56,-150.79"/>
</g>
<!-- Node4 -->
<g id="node4" class="node">
<title>Node4</title>
<g id="a_node4"><a xlink:href="../../de/d34/_enemy_8cpp.html" target="_top" xlink:title=" ">
<polygon fill="white" stroke="black" points="157,-0.5 157,-30.5 296,-30.5 296,-0.5 157,-0.5"/>
<text text-anchor="start" x="165" y="-18.5" font-family="Helvetica,sans-Serif" font-size="10.00">RayLib_SHMUP/src/Shmup</text>
<text text-anchor="middle" x="226.5" y="-7.5" font-family="Helvetica,sans-Serif" font-size="10.00">/Movable/Enemy.cpp</text>
</a>
</g>
</g>
<!-- Node1&#45;&gt;Node4 -->
<g id="edge14" class="edge">
<title>Node1&#45;&gt;Node4</title>
<path fill="none" stroke="midnightblue" d="M1071.74,-148.5C864.91,-147.83 332.58,-141.84 266.5,-98 243.25,-82.58 233.03,-49.52 228.93,-30.59"/>
<polygon fill="midnightblue" stroke="midnightblue" points="1071.92,-152 1081.93,-148.52 1071.94,-145 1071.92,-152"/>
</g>
<!-- Node5 -->
<g id="node5" class="node">
<title>Node5</title>
<g id="a_node5"><a xlink:href="../../db/d01/_testing_8h.html" target="_top" xlink:title=" ">
<polygon fill="white" stroke="black" points="275.5,-67.5 275.5,-97.5 397.5,-97.5 397.5,-67.5 275.5,-67.5"/>
<text text-anchor="start" x="283.5" y="-85.5" font-family="Helvetica,sans-Serif" font-size="10.00">RayLib_SHMUP/include</text>
<text text-anchor="middle" x="336.5" y="-74.5" font-family="Helvetica,sans-Serif" font-size="10.00">/Testing/Testing.h</text>
</a>
</g>
</g>
<!-- Node1&#45;&gt;Node5 -->
<g id="edge4" class="edge">
<title>Node1&#45;&gt;Node5</title>
<path fill="none" stroke="midnightblue" d="M1071.78,-146.63C934,-142.66 646.95,-130.87 406.5,-98 403.67,-97.61 400.79,-97.18 397.88,-96.71"/>
<polygon fill="midnightblue" stroke="midnightblue" points="1071.75,-150.13 1081.84,-146.91 1071.94,-143.13 1071.75,-150.13"/>
</g>
<!-- Node7 -->
<g id="node7" class="node">
<title>Node7</title>
<g id="a_node7"><a xlink:href="../../da/da3/_main_release_8cpp.html" target="_top" xlink:title=" ">
<polygon fill="white" stroke="black" points="415.5,-73 415.5,-92 597.5,-92 597.5,-73 415.5,-73"/>
<text text-anchor="middle" x="506.5" y="-80" font-family="Helvetica,sans-Serif" font-size="10.00">RayLib_SHMUP/src/MainRelease.cpp</text>
</a>
</g>
</g>
<!-- Node1&#45;&gt;Node7 -->
<g id="edge6" class="edge">
<title>Node1&#45;&gt;Node7</title>
<path fill="none" stroke="midnightblue" d="M1071.61,-142.27C964.52,-133.83 771.18,-117.53 606.5,-98 591.95,-96.28 576.26,-94.13 561.71,-92.03"/>
<polygon fill="midnightblue" stroke="midnightblue" points="1071.45,-145.77 1081.7,-143.07 1072,-138.79 1071.45,-145.77"/>
</g>
<!-- Node8 -->
<g id="node8" class="node">
<title>Node8</title>
<g id="a_node8"><a xlink:href="../../d3/dec/_controller_8cpp.html" target="_top" xlink:title=" ">
<polygon fill="white" stroke="black" points="615.5,-67.5 615.5,-97.5 781.5,-97.5 781.5,-67.5 615.5,-67.5"/>
<text text-anchor="start" x="623.5" y="-85.5" font-family="Helvetica,sans-Serif" font-size="10.00">RayLib_SHMUP/src/Namespaces</text>
<text text-anchor="middle" x="698.5" y="-74.5" font-family="Helvetica,sans-Serif" font-size="10.00">/Controller.cpp</text>
</a>
</g>
</g>
<!-- Node1&#45;&gt;Node8 -->
<g id="edge7" class="edge">
<title>Node1&#45;&gt;Node8</title>
<path fill="none" stroke="midnightblue" d="M1071.68,-137.55C998.07,-127.59 886.98,-112.31 790.5,-98 787.62,-97.57 784.69,-97.13 781.73,-96.69"/>
<polygon fill="midnightblue" stroke="midnightblue" points="1071.44,-141.05 1081.81,-138.92 1072.37,-134.11 1071.44,-141.05"/>
</g>
<!-- Node9 -->
<g id="node9" class="node">
<title>Node9</title>
<g id="a_node9"><a xlink:href="../../d1/d40/_game_status_8cpp.html" target="_top" xlink:title=" ">
<polygon fill="white" stroke="black" points="799.5,-67.5 799.5,-97.5 965.5,-97.5 965.5,-67.5 799.5,-67.5"/>
<text text-anchor="start" x="807.5" y="-85.5" font-family="Helvetica,sans-Serif" font-size="10.00">RayLib_SHMUP/src/Namespaces</text>
<text text-anchor="middle" x="882.5" y="-74.5" font-family="Helvetica,sans-Serif" font-size="10.00">/GameStatus.cpp</text>
</a>
</g>
</g>
<!-- Node1&#45;&gt;Node9 -->
<g id="edge8" class="edge">
<title>Node1&#45;&gt;Node9</title>
<path fill="none" stroke="midnightblue" d="M1085.2,-132.12C1040.86,-121.48 983.66,-107.76 941.33,-97.61"/>
<polygon fill="midnightblue" stroke="midnightblue" points="1084.49,-135.55 1095.03,-134.48 1086.12,-128.74 1084.49,-135.55"/>
</g>
<!-- Node10 -->
<g id="node10" class="node">
<title>Node10</title>
<g id="a_node10"><a xlink:href="../../d3/d32/_patern_computer_8cpp.html" target="_top" xlink:title=" ">
<polygon fill="white" stroke="black" points="984,-67.5 984,-97.5 1145,-97.5 1145,-67.5 984,-67.5"/>
<text text-anchor="start" x="992" y="-85.5" font-family="Helvetica,sans-Serif" font-size="10.00">RayLib_SHMUP/src/PaternEditor</text>
<text text-anchor="middle" x="1064.5" y="-74.5" font-family="Helvetica,sans-Serif" font-size="10.00">/PaternComputer.cpp</text>
</a>
</g>
</g>
<!-- Node1&#45;&gt;Node10 -->
<g id="edge9" class="edge">
<title>Node1&#45;&gt;Node10</title>
<path fill="none" stroke="midnightblue" d="M1126.05,-128.45C1112.36,-118.45 1096.13,-106.6 1083.77,-97.58"/>
<polygon fill="midnightblue" stroke="midnightblue" points="1124.05,-131.32 1134.19,-134.4 1128.18,-125.67 1124.05,-131.32"/>
</g>
<!-- Node11 -->
<g id="node11" class="node">
<title>Node11</title>
<g id="a_node11"><a xlink:href="../../d5/d58/_patern_editor_main_8cpp.html" target="_top" xlink:title=" ">
<polygon fill="white" stroke="black" points="1163,-67.5 1163,-97.5 1324,-97.5 1324,-67.5 1163,-67.5"/>
<text text-anchor="start" x="1171" y="-85.5" font-family="Helvetica,sans-Serif" font-size="10.00">RayLib_SHMUP/src/PaternEditor</text>
<text text-anchor="middle" x="1243.5" y="-74.5" font-family="Helvetica,sans-Serif" font-size="10.00">Main.cpp</text>
</a>
</g>
</g>
<!-- Node1&#45;&gt;Node11 -->
<g id="edge10" class="edge">
<title>Node1&#45;&gt;Node11</title>
<path fill="none" stroke="midnightblue" d="M1181.26,-128.45C1195.11,-118.45 1211.52,-106.6 1224.01,-97.58"/>
<polygon fill="midnightblue" stroke="midnightblue" points="1179.09,-125.7 1173.03,-134.4 1183.18,-131.38 1179.09,-125.7"/>
</g>
<!-- Node12 -->
<g id="node12" class="node">
<title>Node12</title>
<g id="a_node12"><a xlink:href="../../d2/d2e/_game_manager_8cpp.html" target="_top" xlink:title=" ">
<polygon fill="white" stroke="black" points="1342,-67.5 1342,-97.5 1481,-97.5 1481,-67.5 1342,-67.5"/>
<text text-anchor="start" x="1350" y="-85.5" font-family="Helvetica,sans-Serif" font-size="10.00">RayLib_SHMUP/src/Shmup</text>
<text text-anchor="middle" x="1411.5" y="-74.5" font-family="Helvetica,sans-Serif" font-size="10.00">/GameManager.cpp</text>
</a>
</g>
</g>
<!-- Node1&#45;&gt;Node12 -->
<g id="edge12" class="edge">
<title>Node1&#45;&gt;Node12</title>
<path fill="none" stroke="midnightblue" d="M1219.05,-131.98C1261.2,-121.37 1315.36,-107.72 1355.49,-97.61"/>
<polygon fill="midnightblue" stroke="midnightblue" points="1218.01,-128.64 1209.16,-134.48 1219.72,-135.43 1218.01,-128.64"/>
</g>
<!-- Node13 -->
<g id="node13" class="node">
<title>Node13</title>
<g id="a_node13"><a xlink:href="../../df/dd2/_level_manager_8cpp.html" target="_top" xlink:title=" ">
<polygon fill="white" stroke="black" points="1499,-67.5 1499,-97.5 1638,-97.5 1638,-67.5 1499,-67.5"/>
<text text-anchor="start" x="1507" y="-85.5" font-family="Helvetica,sans-Serif" font-size="10.00">RayLib_SHMUP/src/Shmup</text>
<text text-anchor="middle" x="1568.5" y="-74.5" font-family="Helvetica,sans-Serif" font-size="10.00">/LevelManager.cpp</text>
</a>
</g>
</g>
<!-- Node1&#45;&gt;Node13 -->
<g id="edge13" class="edge">
<title>Node1&#45;&gt;Node13</title>
<path fill="none" stroke="midnightblue" d="M1235.54,-137.03C1303.86,-127.28 1403.65,-112.58 1490.5,-98 1493.22,-97.54 1495.99,-97.07 1498.78,-96.59"/>
<polygon fill="midnightblue" stroke="midnightblue" points="1234.68,-133.61 1225.27,-138.49 1235.67,-140.54 1234.68,-133.61"/>
</g>
<!-- Node14 -->
<g id="node14" class="node">
<title>Node14</title>
<g id="a_node14"><a xlink:href="../../d2/d82/_player_8cpp.html" target="_top" xlink:title=" ">
<polygon fill="white" stroke="black" points="1656,-67.5 1656,-97.5 1795,-97.5 1795,-67.5 1656,-67.5"/>
<text text-anchor="start" x="1664" y="-85.5" font-family="Helvetica,sans-Serif" font-size="10.00">RayLib_SHMUP/src/Shmup</text>
<text text-anchor="middle" x="1725.5" y="-74.5" font-family="Helvetica,sans-Serif" font-size="10.00">/Movable/Player.cpp</text>
</a>
</g>
</g>
<!-- Node1&#45;&gt;Node14 -->
<g id="edge15" class="edge">
<title>Node1&#45;&gt;Node14</title>
<path fill="none" stroke="midnightblue" d="M1235.46,-142.19C1333.67,-134.15 1503.07,-118.77 1647.5,-98 1650.23,-97.61 1653,-97.19 1655.81,-96.75"/>
<polygon fill="midnightblue" stroke="midnightblue" points="1234.99,-138.72 1225.31,-143.02 1235.56,-145.69 1234.99,-138.72"/>
</g>
<!-- Node15 -->
<g id="node15" class="node">
<title>Node15</title>
<g id="a_node15"><a xlink:href="../../d6/dae/_shoot_8cpp.html" target="_top" xlink:title=" ">
<polygon fill="white" stroke="black" points="1813,-67.5 1813,-97.5 1952,-97.5 1952,-67.5 1813,-67.5"/>
<text text-anchor="start" x="1821" y="-85.5" font-family="Helvetica,sans-Serif" font-size="10.00">RayLib_SHMUP/src/Shmup</text>
<text text-anchor="middle" x="1882.5" y="-74.5" font-family="Helvetica,sans-Serif" font-size="10.00">/Movable/Shoot.cpp</text>
</a>
</g>
</g>
<!-- Node1&#45;&gt;Node15 -->
<g id="edge16" class="edge">
<title>Node1&#45;&gt;Node15</title>
<path fill="none" stroke="midnightblue" d="M1235.18,-144.96C1358.8,-138.96 1600.62,-124.78 1804.5,-98 1807.23,-97.64 1810.01,-97.25 1812.82,-96.83"/>
<polygon fill="midnightblue" stroke="midnightblue" points="1234.86,-141.47 1225.04,-145.44 1235.2,-148.46 1234.86,-141.47"/>
</g>
<!-- Node16 -->
<g id="node16" class="node">
<title>Node16</title>
<g id="a_node16"><a xlink:href="../../df/d32/_sequence_move_patern_8cpp.html" target="_top" xlink:title=" ">
<polygon fill="white" stroke="black" points="1970,-67.5 1970,-97.5 2173,-97.5 2173,-67.5 1970,-67.5"/>
<text text-anchor="start" x="1978" y="-85.5" font-family="Helvetica,sans-Serif" font-size="10.00">RayLib_SHMUP/src/Shmup</text>
<text text-anchor="middle" x="2071.5" y="-74.5" font-family="Helvetica,sans-Serif" font-size="10.00">/Paterns/Enemy/SequenceMovePatern.cpp</text>
</a>
</g>
</g>
<!-- Node1&#45;&gt;Node16 -->
<g id="edge17" class="edge">
<title>Node1&#45;&gt;Node16</title>
<path fill="none" stroke="midnightblue" d="M1235.47,-145.24C1381.59,-139.01 1696.64,-123.7 1961.5,-98 1964.28,-97.73 1967.1,-97.44 1969.94,-97.15"/>
<polygon fill="midnightblue" stroke="midnightblue" points="1235.08,-141.75 1225.24,-145.67 1235.38,-148.75 1235.08,-141.75"/>
</g>
<!-- Node17 -->
<g id="node17" class="node">
<title>Node17</title>
<g id="a_node17"><a xlink:href="../../d8/d91/_patern_rotate_8cpp.html" target="_top" xlink:title=" ">
<polygon fill="white" stroke="black" points="2191.5,-67.5 2191.5,-97.5 2351.5,-97.5 2351.5,-67.5 2191.5,-67.5"/>
<text text-anchor="start" x="2199.5" y="-85.5" font-family="Helvetica,sans-Serif" font-size="10.00">RayLib_SHMUP/src/Shmup</text>
<text text-anchor="middle" x="2271.5" y="-74.5" font-family="Helvetica,sans-Serif" font-size="10.00">/Paterns/Shoot/PaternRotate.cpp</text>
</a>
</g>
</g>
<!-- Node1&#45;&gt;Node17 -->
<g id="edge18" class="edge">
<title>Node1&#45;&gt;Node17</title>
<path fill="none" stroke="midnightblue" d="M1235.26,-147.61C1409.75,-145.02 1831.31,-135.11 2182.5,-98 2185.3,-97.7 2188.15,-97.38 2191.02,-97.03"/>
<polygon fill="midnightblue" stroke="midnightblue" points="1235.08,-144.11 1225.13,-147.75 1235.18,-151.11 1235.08,-144.11"/>
</g>
<!-- Node18 -->
<g id="node18" class="node">
<title>Node18</title>
<g id="a_node18"><a xlink:href="../../db/db4/_patern_v_spread_8cpp.html" target="_top" xlink:title=" ">
<polygon fill="white" stroke="black" points="2370,-67.5 2370,-97.5 2539,-97.5 2539,-67.5 2370,-67.5"/>
<text text-anchor="start" x="2378" y="-85.5" font-family="Helvetica,sans-Serif" font-size="10.00">RayLib_SHMUP/src/Shmup</text>
<text text-anchor="middle" x="2454.5" y="-74.5" font-family="Helvetica,sans-Serif" font-size="10.00">/Paterns/Shoot/PaternVSpread.cpp</text>
</a>
</g>
</g>
<!-- Node1&#45;&gt;Node18 -->
<g id="edge19" class="edge">
<title>Node1&#45;&gt;Node18</title>
<path fill="none" stroke="midnightblue" d="M1235.29,-148.21C1430.44,-146.84 1938.57,-139.24 2360.5,-98 2363.54,-97.7 2366.63,-97.37 2369.75,-97.02"/>
<polygon fill="midnightblue" stroke="midnightblue" points="1235.09,-144.71 1225.12,-148.28 1235.14,-151.71 1235.09,-144.71"/>
</g>
<!-- Node2&#45;&gt;Node3 -->
<g id="edge2" class="edge">
<title>Node2&#45;&gt;Node3</title>
<path fill="none" stroke="midnightblue" d="M131.05,-61.45C117.36,-51.45 101.13,-39.6 88.77,-30.58"/>
<polygon fill="midnightblue" stroke="midnightblue" points="129.05,-64.32 139.19,-67.4 133.18,-58.67 129.05,-64.32"/>
</g>
<!-- Node2&#45;&gt;Node4 -->
<g id="edge3" class="edge">
<title>Node2&#45;&gt;Node4</title>
<path fill="none" stroke="midnightblue" d="M180.67,-60.31C190.87,-50.56 202.69,-39.26 211.77,-30.58"/>
<polygon fill="midnightblue" stroke="midnightblue" points="178.07,-57.96 173.25,-67.4 182.9,-63.02 178.07,-57.96"/>
</g>
<!-- Node6 -->
<g id="node6" class="node">
<title>Node6</title>
<g id="a_node6"><a xlink:href="../../dc/d38/_main_testing_8cpp.html" target="_top" xlink:title=" ">
<polygon fill="white" stroke="black" points="314.5,-0.5 314.5,-30.5 454.5,-30.5 454.5,-0.5 314.5,-0.5"/>
<text text-anchor="start" x="322.5" y="-18.5" font-family="Helvetica,sans-Serif" font-size="10.00">RayLib_SHMUP/src/Testing</text>
<text text-anchor="middle" x="384.5" y="-7.5" font-family="Helvetica,sans-Serif" font-size="10.00">/MainTesting.cpp</text>
</a>
</g>
</g>
<!-- Node5&#45;&gt;Node6 -->
<g id="edge5" class="edge">
<title>Node5&#45;&gt;Node6</title>
<path fill="none" stroke="midnightblue" d="M353,-59.16C360,-49.68 367.94,-38.92 374.11,-30.58"/>
<polygon fill="midnightblue" stroke="midnightblue" points="350.04,-57.27 346.92,-67.4 355.67,-61.43 350.04,-57.27"/>
</g>
</g>
</svg>
