<?xml version="1.0" encoding="UTF-8" standalone="no"?>
<!DOCTYPE svg PUBLIC "-//W3C//DTD SVG 1.1//EN"
 "http://www.w3.org/Graphics/SVG/1.1/DTD/svg11.dtd">
<!-- Generated by graphviz version 2.49.3 (20211027.1534)
 -->
<!-- Title: RayLib_SHMUP/include/Namespaces/GameStatus.h Pages: 1 -->
<svg width="2102pt" height="173pt"
 viewBox="0.00 0.00 2101.50 173.00" xmlns="http://www.w3.org/2000/svg" xmlns:xlink="http://www.w3.org/1999/xlink">
<g id="graph0" class="graph" transform="scale(1 1) rotate(0) translate(4 169)">
<title>RayLib_SHMUP/include/Namespaces/GameStatus.h</title>
<polygon fill="white" stroke="transparent" points="-4,4 -4,-169 2097.5,-169 2097.5,4 -4,4"/>
<!-- Node1 -->
<g id="node1" class="node">
<title>Node1</title>
<g id="a_node1"><a xlink:title=" ">
<polygon fill="#bfbfbf" stroke="black" points="989.5,-134.5 989.5,-164.5 1132.5,-164.5 1132.5,-134.5 989.5,-134.5"/>
<text text-anchor="start" x="997.5" y="-152.5" font-family="Helvetica,sans-Serif" font-size="10.00">RayLib_SHMUP/include</text>
<text text-anchor="middle" x="1061" y="-141.5" font-family="Helvetica,sans-Serif" font-size="10.00">/Namespaces/GameStatus.h</text>
</a>
</g>
</g>
<!-- Node2 -->
<g id="node2" class="node">
<title>Node2</title>
<g id="a_node2"><a xlink:href="../../db/d01/_testing_8h.html" target="_top" xlink:title=" ">
<polygon fill="white" stroke="black" points="9,-67.5 9,-97.5 131,-97.5 131,-67.5 9,-67.5"/>
<text text-anchor="start" x="17" y="-85.5" font-family="Helvetica,sans-Serif" font-size="10.00">RayLib_SHMUP/include</text>
<text text-anchor="middle" x="70" y="-74.5" font-family="Helvetica,sans-Serif" font-size="10.00">/Testing/Testing.h</text>
</a>
</g>
</g>
<!-- Node1&#45;&gt;Node2 -->
<g id="edge1" class="edge">
<title>Node1&#45;&gt;Node2</title>
<path fill="none" stroke="midnightblue" d="M978.98,-148.11C817.63,-146.42 447.85,-138.1 140,-98 137.17,-97.63 134.28,-97.21 131.37,-96.75"/>
<polygon fill="midnightblue" stroke="midnightblue" points="979.27,-151.61 989.31,-148.21 979.34,-144.61 979.27,-151.61"/>
</g>
<!-- Node4 -->
<g id="node4" class="node">
<title>Node4</title>
<g id="a_node4"><a xlink:href="../../da/da3/_main_release_8cpp.html" target="_top" xlink:title=" ">
<polygon fill="white" stroke="black" points="149,-73 149,-92 331,-92 331,-73 149,-73"/>
<text text-anchor="middle" x="240" y="-80" font-family="Helvetica,sans-Serif" font-size="10.00">RayLib_SHMUP/src/MainRelease.cpp</text>
</a>
</g>
</g>
<!-- Node1&#45;&gt;Node4 -->
<g id="edge3" class="edge">
<title>Node1&#45;&gt;Node4</title>
<path fill="none" stroke="midnightblue" d="M979.29,-144.75C845.44,-138.17 571.18,-122.82 340,-98 324.91,-96.38 308.6,-94.2 293.62,-92.02"/>
<polygon fill="midnightblue" stroke="midnightblue" points="979.31,-148.26 989.47,-145.25 979.65,-141.27 979.31,-148.26"/>
</g>
<!-- Node5 -->
<g id="node5" class="node">
<title>Node5</title>
<g id="a_node5"><a xlink:href="../../d3/dec/_controller_8cpp.html" target="_top" xlink:title=" ">
<polygon fill="white" stroke="black" points="349,-67.5 349,-97.5 515,-97.5 515,-67.5 349,-67.5"/>
<text text-anchor="start" x="357" y="-85.5" font-family="Helvetica,sans-Serif" font-size="10.00">RayLib_SHMUP/src/Namespaces</text>
<text text-anchor="middle" x="432" y="-74.5" font-family="Helvetica,sans-Serif" font-size="10.00">/Controller.cpp</text>
</a>
</g>
</g>
<!-- Node1&#45;&gt;Node5 -->
<g id="edge4" class="edge">
<title>Node1&#45;&gt;Node5</title>
<path fill="none" stroke="midnightblue" d="M978.93,-142.39C873.44,-134.16 684.72,-118.2 524,-98 521.11,-97.64 518.18,-97.25 515.21,-96.85"/>
<polygon fill="midnightblue" stroke="midnightblue" points="978.94,-145.9 989.18,-143.18 979.48,-138.92 978.94,-145.9"/>
</g>
<!-- Node6 -->
<g id="node6" class="node">
<title>Node6</title>
<g id="a_node6"><a xlink:href="../../d1/d40/_game_status_8cpp.html" target="_top" xlink:title=" ">
<polygon fill="white" stroke="black" points="533,-67.5 533,-97.5 699,-97.5 699,-67.5 533,-67.5"/>
<text text-anchor="start" x="541" y="-85.5" font-family="Helvetica,sans-Serif" font-size="10.00">RayLib_SHMUP/src/Namespaces</text>
<text text-anchor="middle" x="616" y="-74.5" font-family="Helvetica,sans-Serif" font-size="10.00">/GameStatus.cpp</text>
</a>
</g>
</g>
<!-- Node1&#45;&gt;Node6 -->
<g id="edge5" class="edge">
<title>Node1&#45;&gt;Node6</title>
<path fill="none" stroke="midnightblue" d="M978.89,-137.01C907.53,-126.95 801.38,-111.83 709,-98 705.77,-97.52 702.47,-97.02 699.15,-96.51"/>
<polygon fill="midnightblue" stroke="midnightblue" points="978.77,-140.53 989.16,-138.46 979.75,-133.59 978.77,-140.53"/>
</g>
<!-- Node7 -->
<g id="node7" class="node">
<title>Node7</title>
<g id="a_node7"><a xlink:href="../../d3/d32/_patern_computer_8cpp.html" target="_top" xlink:title=" ">
<polygon fill="white" stroke="black" points="717.5,-67.5 717.5,-97.5 878.5,-97.5 878.5,-67.5 717.5,-67.5"/>
<text text-anchor="start" x="725.5" y="-85.5" font-family="Helvetica,sans-Serif" font-size="10.00">RayLib_SHMUP/src/PaternEditor</text>
<text text-anchor="middle" x="798" y="-74.5" font-family="Helvetica,sans-Serif" font-size="10.00">/PaternComputer.cpp</text>
</a>
</g>
</g>
<!-- Node1&#45;&gt;Node7 -->
<g id="edge6" class="edge">
<title>Node1&#45;&gt;Node7</title>
<path fill="none" stroke="midnightblue" d="M994.45,-132.05C951.45,-121.43 896.08,-107.74 855.09,-97.61"/>
<polygon fill="midnightblue" stroke="midnightblue" points="993.71,-135.47 1004.26,-134.48 995.39,-128.68 993.71,-135.47"/>
</g>
<!-- Node8 -->
<g id="node8" class="node">
<title>Node8</title>
<g id="a_node8"><a xlink:href="../../d5/d58/_patern_editor_main_8cpp.html" target="_top" xlink:title=" ">
<polygon fill="white" stroke="black" points="896.5,-67.5 896.5,-97.5 1057.5,-97.5 1057.5,-67.5 896.5,-67.5"/>
<text text-anchor="start" x="904.5" y="-85.5" font-family="Helvetica,sans-Serif" font-size="10.00">RayLib_SHMUP/src/PaternEditor</text>
<text text-anchor="middle" x="977" y="-74.5" font-family="Helvetica,sans-Serif" font-size="10.00">Main.cpp</text>
</a>
</g>
</g>
<!-- Node1&#45;&gt;Node8 -->
<g id="edge7" class="edge">
<title>Node1&#45;&gt;Node8</title>
<path fill="none" stroke="midnightblue" d="M1034.72,-128.17C1021.88,-118.23 1006.74,-106.51 995.19,-97.58"/>
<polygon fill="midnightblue" stroke="midnightblue" points="1032.72,-131.04 1042.77,-134.4 1037.01,-125.51 1032.72,-131.04"/>
</g>
<!-- Node9 -->
<g id="node9" class="node">
<title>Node9</title>
<g id="a_node9"><a xlink:href="../../d2/d2e/_game_manager_8cpp.html" target="_top" xlink:title=" ">
<polygon fill="white" stroke="black" points="1075.5,-67.5 1075.5,-97.5 1214.5,-97.5 1214.5,-67.5 1075.5,-67.5"/>
<text text-anchor="start" x="1083.5" y="-85.5" font-family="Helvetica,sans-Serif" font-size="10.00">RayLib_SHMUP/src/Shmup</text>
<text text-anchor="middle" x="1145" y="-74.5" font-family="Helvetica,sans-Serif" font-size="10.00">/GameManager.cpp</text>
</a>
</g>
</g>
<!-- Node1&#45;&gt;Node9 -->
<g id="edge8" class="edge">
<title>Node1&#45;&gt;Node9</title>
<path fill="none" stroke="midnightblue" d="M1087.28,-128.17C1100.12,-118.23 1115.26,-106.51 1126.81,-97.58"/>
<polygon fill="midnightblue" stroke="midnightblue" points="1084.99,-125.51 1079.23,-134.4 1089.28,-131.04 1084.99,-125.51"/>
</g>
<!-- Node10 -->
<g id="node10" class="node">
<title>Node10</title>
<g id="a_node10"><a xlink:href="../../de/d34/_enemy_8cpp.html" target="_top" xlink:title=" ">
<polygon fill="white" stroke="black" points="1232.5,-67.5 1232.5,-97.5 1371.5,-97.5 1371.5,-67.5 1232.5,-67.5"/>
<text text-anchor="start" x="1240.5" y="-85.5" font-family="Helvetica,sans-Serif" font-size="10.00">RayLib_SHMUP/src/Shmup</text>
<text text-anchor="middle" x="1302" y="-74.5" font-family="Helvetica,sans-Serif" font-size="10.00">/Movable/Enemy.cpp</text>
</a>
</g>
</g>
<!-- Node1&#45;&gt;Node10 -->
<g id="edge9" class="edge">
<title>Node1&#45;&gt;Node10</title>
<path fill="none" stroke="midnightblue" d="M1122.73,-131.85C1162.03,-121.25 1212.36,-107.68 1249.68,-97.61"/>
<polygon fill="midnightblue" stroke="midnightblue" points="1121.74,-128.49 1113,-134.48 1123.56,-135.25 1121.74,-128.49"/>
</g>
<!-- Node11 -->
<g id="node11" class="node">
<title>Node11</title>
<g id="a_node11"><a xlink:href="../../d2/d82/_player_8cpp.html" target="_top" xlink:title=" ">
<polygon fill="white" stroke="black" points="1389.5,-67.5 1389.5,-97.5 1528.5,-97.5 1528.5,-67.5 1389.5,-67.5"/>
<text text-anchor="start" x="1397.5" y="-85.5" font-family="Helvetica,sans-Serif" font-size="10.00">RayLib_SHMUP/src/Shmup</text>
<text text-anchor="middle" x="1459" y="-74.5" font-family="Helvetica,sans-Serif" font-size="10.00">/Movable/Player.cpp</text>
</a>
</g>
</g>
<!-- Node1&#45;&gt;Node11 -->
<g id="edge10" class="edge">
<title>Node1&#45;&gt;Node11</title>
<path fill="none" stroke="midnightblue" d="M1142.72,-136.23C1207.44,-126.36 1300.1,-111.9 1381,-98 1383.71,-97.53 1386.48,-97.05 1389.28,-96.56"/>
<polygon fill="midnightblue" stroke="midnightblue" points="1141.94,-132.81 1132.58,-137.77 1142.99,-139.73 1141.94,-132.81"/>
</g>
<!-- Node12 -->
<g id="node12" class="node">
<title>Node12</title>
<g id="a_node12"><a xlink:href="../../d6/dae/_shoot_8cpp.html" target="_top" xlink:title=" ">
<polygon fill="white" stroke="black" points="1546.5,-67.5 1546.5,-97.5 1685.5,-97.5 1685.5,-67.5 1546.5,-67.5"/>
<text text-anchor="start" x="1554.5" y="-85.5" font-family="Helvetica,sans-Serif" font-size="10.00">RayLib_SHMUP/src/Shmup</text>
<text text-anchor="middle" x="1616" y="-74.5" font-family="Helvetica,sans-Serif" font-size="10.00">/Movable/Shoot.cpp</text>
</a>
</g>
</g>
<!-- Node1&#45;&gt;Node12 -->
<g id="edge11" class="edge">
<title>Node1&#45;&gt;Node12</title>
<path fill="none" stroke="midnightblue" d="M1142.88,-141.8C1238.09,-133.55 1399.85,-118.12 1538,-98 1540.73,-97.6 1543.5,-97.18 1546.3,-96.74"/>
<polygon fill="midnightblue" stroke="midnightblue" points="1142.4,-138.32 1132.74,-142.67 1143,-145.3 1142.4,-138.32"/>
</g>
<!-- Node13 -->
<g id="node13" class="node">
<title>Node13</title>
<g id="a_node13"><a xlink:href="../../df/d32/_sequence_move_patern_8cpp.html" target="_top" xlink:title=" ">
<polygon fill="white" stroke="black" points="1703.5,-67.5 1703.5,-97.5 1906.5,-97.5 1906.5,-67.5 1703.5,-67.5"/>
<text text-anchor="start" x="1711.5" y="-85.5" font-family="Helvetica,sans-Serif" font-size="10.00">RayLib_SHMUP/src/Shmup</text>
<text text-anchor="middle" x="1805" y="-74.5" font-family="Helvetica,sans-Serif" font-size="10.00">/Paterns/Enemy/SequenceMovePatern.cpp</text>
</a>
</g>
</g>
<!-- Node1&#45;&gt;Node13 -->
<g id="edge12" class="edge">
<title>Node1&#45;&gt;Node13</title>
<path fill="none" stroke="midnightblue" d="M1143.19,-143.31C1264.19,-135.37 1497.34,-118.89 1695,-98 1697.78,-97.71 1700.59,-97.4 1703.43,-97.08"/>
<polygon fill="midnightblue" stroke="midnightblue" points="1142.65,-139.84 1132.9,-143.99 1143.1,-146.83 1142.65,-139.84"/>
</g>
<!-- Node14 -->
<g id="node14" class="node">
<title>Node14</title>
<g id="a_node14"><a xlink:href="../../db/db4/_patern_v_spread_8cpp.html" target="_top" xlink:title=" ">
<polygon fill="white" stroke="black" points="1924.5,-67.5 1924.5,-97.5 2093.5,-97.5 2093.5,-67.5 1924.5,-67.5"/>
<text text-anchor="start" x="1932.5" y="-85.5" font-family="Helvetica,sans-Serif" font-size="10.00">RayLib_SHMUP/src/Shmup</text>
<text text-anchor="middle" x="2009" y="-74.5" font-family="Helvetica,sans-Serif" font-size="10.00">/Paterns/Shoot/PaternVSpread.cpp</text>
</a>
</g>
</g>
<!-- Node1&#45;&gt;Node14 -->
<g id="edge13" class="edge">
<title>Node1&#45;&gt;Node14</title>
<path fill="none" stroke="midnightblue" d="M1142.91,-146.27C1295.41,-141.54 1633.09,-128.34 1916,-98 1918.76,-97.7 1921.57,-97.38 1924.4,-97.04"/>
<polygon fill="midnightblue" stroke="midnightblue" points="1142.58,-142.78 1132.69,-146.58 1142.79,-149.77 1142.58,-142.78"/>
</g>
<!-- Node3 -->
<g id="node3" class="node">
<title>Node3</title>
<g id="a_node3"><a xlink:href="../../dc/d38/_main_testing_8cpp.html" target="_top" xlink:title=" ">
<polygon fill="white" stroke="black" points="0,-0.5 0,-30.5 140,-30.5 140,-0.5 0,-0.5"/>
<text text-anchor="start" x="8" y="-18.5" font-family="Helvetica,sans-Serif" font-size="10.00">RayLib_SHMUP/src/Testing</text>
<text text-anchor="middle" x="70" y="-7.5" font-family="Helvetica,sans-Serif" font-size="10.00">/MainTesting.cpp</text>
</a>
</g>
</g>
<!-- Node2&#45;&gt;Node3 -->
<g id="edge2" class="edge">
<title>Node2&#45;&gt;Node3</title>
<path fill="none" stroke="midnightblue" d="M70,-57.11C70,-48.15 70,-38.32 70,-30.58"/>
<polygon fill="midnightblue" stroke="midnightblue" points="66.5,-57.4 70,-67.4 73.5,-57.4 66.5,-57.4"/>
</g>
</g>
</svg>
