<?xml version="1.0" encoding="UTF-8" standalone="no"?>
<!DOCTYPE svg PUBLIC "-//W3C//DTD SVG 1.1//EN"
 "http://www.w3.org/Graphics/SVG/1.1/DTD/svg11.dtd">
<!-- Generated by graphviz version 2.49.3 (20211027.1534)
 -->
<!-- Title: RayLib_SHMUP/src/Shmup/GameManager.cpp Pages: 1 -->
<svg width="1499pt" height="419pt"
 viewBox="0.00 0.00 1499.00 419.00" xmlns="http://www.w3.org/2000/svg" xmlns:xlink="http://www.w3.org/1999/xlink">
<g id="graph0" class="graph" transform="scale(1 1) rotate(0) translate(4 415)">
<title>RayLib_SHMUP/src/Shmup/GameManager.cpp</title>
<polygon fill="white" stroke="transparent" points="-4,4 -4,-415 1495,-415 1495,4 -4,4"/>
<!-- Node1 -->
<g id="node1" class="node">
<title>Node1</title>
<g id="a_node1"><a xlink:title=" ">
<polygon fill="#bfbfbf" stroke="black" points="729.5,-380.5 729.5,-410.5 868.5,-410.5 868.5,-380.5 729.5,-380.5"/>
<text text-anchor="start" x="737.5" y="-398.5" font-family="Helvetica,sans-Serif" font-size="10.00">RayLib_SHMUP/src/Shmup</text>
<text text-anchor="middle" x="799" y="-387.5" font-family="Helvetica,sans-Serif" font-size="10.00">/GameManager.cpp</text>
</a>
</g>
</g>
<!-- Node2 -->
<g id="node2" class="node">
<title>Node2</title>
<g id="a_node2"><a xlink:title=" ">
<polygon fill="white" stroke="#bfbfbf" points="100,-0.5 100,-19.5 154,-19.5 154,-0.5 100,-0.5"/>
<text text-anchor="middle" x="127" y="-7.5" font-family="Helvetica,sans-Serif" font-size="10.00">iostream</text>
</a>
</g>
</g>
<!-- Node1&#45;&gt;Node2 -->
<g id="edge1" class="edge">
<title>Node1&#45;&gt;Node2</title>
<path fill="none" stroke="midnightblue" d="M729.49,-391.25C535.1,-381.23 0,-346.98 0,-273.5 0,-273.5 0,-273.5 0,-137.5 0,-82.65 60.2,-43.37 97.7,-24.21"/>
<polygon fill="midnightblue" stroke="midnightblue" points="99.73,-27.12 107.16,-19.56 96.64,-20.84 99.73,-27.12"/>
</g>
<!-- Node3 -->
<g id="node3" class="node">
<title>Node3</title>
<g id="a_node3"><a xlink:title=" ">
<polygon fill="white" stroke="#bfbfbf" points="1024,-324.5 1024,-343.5 1054,-343.5 1054,-324.5 1024,-324.5"/>
<text text-anchor="middle" x="1039" y="-331.5" font-family="Helvetica,sans-Serif" font-size="10.00">set</text>
</a>
</g>
</g>
<!-- Node1&#45;&gt;Node3 -->
<g id="edge2" class="edge">
<title>Node1&#45;&gt;Node3</title>
<path fill="none" stroke="midnightblue" d="M868.67,-380.6C908.87,-372.03 960.48,-360.08 1014.17,-343.96"/>
<polygon fill="midnightblue" stroke="midnightblue" points="1015.32,-347.27 1023.87,-341.01 1013.28,-340.57 1015.32,-347.27"/>
</g>
<!-- Node4 -->
<g id="node4" class="node">
<title>Node4</title>
<g id="a_node4"><a xlink:href="../../d0/d80/_random_8h.html" target="_top" xlink:title=" ">
<polygon fill="white" stroke="black" points="1071.5,-324.5 1071.5,-343.5 1192.5,-343.5 1192.5,-324.5 1071.5,-324.5"/>
<text text-anchor="middle" x="1132" y="-331.5" font-family="Helvetica,sans-Serif" font-size="10.00">Namespaces/Random.h</text>
</a>
</g>
</g>
<!-- Node1&#45;&gt;Node4 -->
<g id="edge3" class="edge">
<title>Node1&#45;&gt;Node4</title>
<path fill="none" stroke="midnightblue" d="M868.81,-382.03C929.8,-371.13 1017.28,-355.5 1074.36,-345.3"/>
<polygon fill="midnightblue" stroke="midnightblue" points="1075.08,-348.73 1084.3,-343.52 1073.84,-341.84 1075.08,-348.73"/>
</g>
<!-- Node5 -->
<g id="node5" class="node">
<title>Node5</title>
<g id="a_node5"><a xlink:href="../../d5/daf/_game_status_8h.html" target="_top" xlink:title=" ">
<polygon fill="white" stroke="black" points="1211,-324.5 1211,-343.5 1351,-343.5 1351,-324.5 1211,-324.5"/>
<text text-anchor="middle" x="1281" y="-331.5" font-family="Helvetica,sans-Serif" font-size="10.00">Namespaces/GameStatus.h</text>
</a>
</g>
</g>
<!-- Node1&#45;&gt;Node5 -->
<g id="edge4" class="edge">
<title>Node1&#45;&gt;Node5</title>
<path fill="none" stroke="midnightblue" d="M868.57,-385.91C956.9,-375.01 1108.92,-356.24 1201.67,-344.79"/>
<polygon fill="midnightblue" stroke="midnightblue" points="1202.34,-348.24 1211.84,-343.54 1201.49,-341.29 1202.34,-348.24"/>
</g>
<!-- Node6 -->
<g id="node6" class="node">
<title>Node6</title>
<g id="a_node6"><a xlink:href="../../d2/d94/_controller_8h.html" target="_top" xlink:title=" ">
<polygon fill="white" stroke="black" points="880,-324.5 880,-343.5 1006,-343.5 1006,-324.5 880,-324.5"/>
<text text-anchor="middle" x="943" y="-331.5" font-family="Helvetica,sans-Serif" font-size="10.00">Namespaces/Controller.h</text>
</a>
</g>
</g>
<!-- Node1&#45;&gt;Node6 -->
<g id="edge5" class="edge">
<title>Node1&#45;&gt;Node6</title>
<path fill="none" stroke="midnightblue" d="M833.13,-380.4C857.29,-370.42 889.4,-357.15 912.67,-347.53"/>
<polygon fill="midnightblue" stroke="midnightblue" points="914.14,-350.71 922.05,-343.66 911.47,-344.24 914.14,-350.71"/>
</g>
<!-- Node9 -->
<g id="node9" class="node">
<title>Node9</title>
<g id="a_node9"><a xlink:href="../../d0/d96/_game_manager_8h.html" target="_top" xlink:title=" ">
<polygon fill="white" stroke="black" points="1369,-324.5 1369,-343.5 1491,-343.5 1491,-324.5 1369,-324.5"/>
<text text-anchor="middle" x="1430" y="-331.5" font-family="Helvetica,sans-Serif" font-size="10.00">Shmup/GameManager.h</text>
</a>
</g>
</g>
<!-- Node1&#45;&gt;Node9 -->
<g id="edge8" class="edge">
<title>Node1&#45;&gt;Node9</title>
<path fill="none" stroke="midnightblue" d="M868.61,-389.09C972.82,-380.8 1175.82,-363.93 1358.85,-344.09"/>
<polygon fill="midnightblue" stroke="midnightblue" points="1359.37,-347.55 1368.93,-342.99 1358.61,-340.59 1359.37,-347.55"/>
</g>
<!-- Node10 -->
<g id="node10" class="node">
<title>Node10</title>
<g id="a_node10"><a xlink:href="../../d1/d39/_player_8h.html" target="_top" xlink:title=" ">
<polygon fill="white" stroke="black" points="736.5,-324.5 736.5,-343.5 861.5,-343.5 861.5,-324.5 736.5,-324.5"/>
<text text-anchor="middle" x="799" y="-331.5" font-family="Helvetica,sans-Serif" font-size="10.00">Shmup/Movable/Player.h</text>
</a>
</g>
</g>
<!-- Node1&#45;&gt;Node10 -->
<g id="edge9" class="edge">
<title>Node1&#45;&gt;Node10</title>
<path fill="none" stroke="midnightblue" d="M799,-380.4C799,-372.47 799,-362.46 799,-353.86"/>
<polygon fill="midnightblue" stroke="midnightblue" points="802.5,-353.66 799,-343.66 795.5,-353.66 802.5,-353.66"/>
</g>
<!-- Node13 -->
<g id="node13" class="node">
<title>Node13</title>
<g id="a_node13"><a xlink:href="../../d7/daf/_a_graphic_object_8h.html" target="_top" xlink:title=" ">
<polygon fill="white" stroke="black" points="628.5,-129 628.5,-148 721.5,-148 721.5,-129 628.5,-129"/>
<text text-anchor="middle" x="675" y="-136" font-family="Helvetica,sans-Serif" font-size="10.00">AGraphicObject.h</text>
</a>
</g>
</g>
<!-- Node1&#45;&gt;Node13 -->
<g id="edge34" class="edge">
<title>Node1&#45;&gt;Node13</title>
<path fill="none" stroke="midnightblue" d="M770.29,-380.41C755.58,-371.81 738.6,-359.48 728,-344 688.12,-285.74 707.1,-258.25 689,-190 686.15,-179.27 682.84,-167.29 680.15,-157.69"/>
<polygon fill="midnightblue" stroke="midnightblue" points="683.52,-156.74 677.44,-148.06 676.78,-158.64 683.52,-156.74"/>
</g>
<!-- Node23 -->
<g id="node23" class="node">
<title>Node23</title>
<g id="a_node23"><a xlink:href="../../d4/d1e/_enemy_8h.html" target="_top" xlink:title=" ">
<polygon fill="white" stroke="black" points="347.5,-263 347.5,-282 474.5,-282 474.5,-263 347.5,-263"/>
<text text-anchor="middle" x="411" y="-270" font-family="Helvetica,sans-Serif" font-size="10.00">Shmup/Movable/Enemy.h</text>
</a>
</g>
</g>
<!-- Node1&#45;&gt;Node23 -->
<g id="edge35" class="edge">
<title>Node1&#45;&gt;Node23</title>
<path fill="none" stroke="midnightblue" d="M753.73,-380.38C676.38,-356.26 520.17,-307.55 448.49,-285.19"/>
<polygon fill="midnightblue" stroke="midnightblue" points="449.14,-281.73 438.55,-282.09 447.06,-288.41 449.14,-281.73"/>
</g>
<!-- Node28 -->
<g id="node28" class="node">
<title>Node28</title>
<g id="a_node28"><a xlink:href="../../d8/d97/_instance_list_8hpp.html" target="_top" xlink:title=" ">
<polygon fill="white" stroke="black" points="66,-129 66,-148 188,-148 188,-129 66,-129"/>
<text text-anchor="middle" x="127" y="-136" font-family="Helvetica,sans-Serif" font-size="10.00">Shmup/InstanceList.hpp</text>
</a>
</g>
</g>
<!-- Node1&#45;&gt;Node28 -->
<g id="edge48" class="edge">
<title>Node1&#45;&gt;Node28</title>
<path fill="none" stroke="midnightblue" d="M736.77,-380.47C692.25,-370.41 630.91,-356.47 577,-344 382.92,-299.09 279.27,-369.06 146,-221 130.62,-203.91 126.99,-176.81 126.47,-158.6"/>
<polygon fill="midnightblue" stroke="midnightblue" points="129.97,-158.35 126.47,-148.35 122.97,-158.35 129.97,-158.35"/>
</g>
<!-- Node29 -->
<g id="node29" class="node">
<title>Node29</title>
<g id="a_node29"><a xlink:href="../../d7/d3e/_collision_manager_8h.html" target="_top" xlink:title=" ">
<polygon fill="white" stroke="black" points="492.5,-257.5 492.5,-287.5 619.5,-287.5 619.5,-257.5 492.5,-257.5"/>
<text text-anchor="start" x="500.5" y="-275.5" font-family="Helvetica,sans-Serif" font-size="10.00">Shmup/Collision/Collision</text>
<text text-anchor="middle" x="556" y="-264.5" font-family="Helvetica,sans-Serif" font-size="10.00">Manager.h</text>
</a>
</g>
</g>
<!-- Node1&#45;&gt;Node29 -->
<g id="edge50" class="edge">
<title>Node1&#45;&gt;Node29</title>
<path fill="none" stroke="midnightblue" d="M769.04,-380.32C747.98,-370.3 719.19,-356.49 694,-344 659.24,-326.77 619.86,-306.58 592.08,-292.23"/>
<polygon fill="midnightblue" stroke="midnightblue" points="593.62,-289.09 583.13,-287.61 590.41,-295.31 593.62,-289.09"/>
</g>
<!-- Node7 -->
<g id="node7" class="node">
<title>Node7</title>
<g id="a_node7"><a xlink:title=" ">
<polygon fill="white" stroke="#bfbfbf" points="844.5,-0.5 844.5,-19.5 891.5,-19.5 891.5,-0.5 844.5,-0.5"/>
<text text-anchor="middle" x="868" y="-7.5" font-family="Helvetica,sans-Serif" font-size="10.00">raylib.h</text>
</a>
</g>
</g>
<!-- Node6&#45;&gt;Node7 -->
<g id="edge6" class="edge">
<title>Node6&#45;&gt;Node7</title>
<path fill="none" stroke="midnightblue" d="M987.83,-324.49C1031.86,-315.58 1095.48,-301.1 1117,-288 1158.54,-262.72 1190,-255.13 1190,-206.5 1190,-206.5 1190,-206.5 1190,-137.5 1190,-87.05 1155.46,-79.83 1111,-56 1043.01,-19.55 950.65,-12.11 901.69,-10.9"/>
<polygon fill="midnightblue" stroke="midnightblue" points="901.71,-7.4 891.65,-10.73 901.58,-14.4 901.71,-7.4"/>
</g>
<!-- Node8 -->
<g id="node8" class="node">
<title>Node8</title>
<g id="a_node8"><a xlink:title=" ">
<polygon fill="white" stroke="#bfbfbf" points="1048.5,-263 1048.5,-282 1107.5,-282 1107.5,-263 1048.5,-263"/>
<text text-anchor="middle" x="1078" y="-270" font-family="Helvetica,sans-Serif" font-size="10.00">raymath.h</text>
</a>
</g>
</g>
<!-- Node6&#45;&gt;Node8 -->
<g id="edge7" class="edge">
<title>Node6&#45;&gt;Node8</title>
<path fill="none" stroke="midnightblue" d="M962.34,-324.48C985.1,-314.45 1023.09,-297.7 1049.29,-286.15"/>
<polygon fill="midnightblue" stroke="midnightblue" points="1050.95,-289.24 1058.69,-282.01 1048.13,-282.84 1050.95,-289.24"/>
</g>
<!-- Node11 -->
<g id="node11" class="node">
<title>Node11</title>
<g id="a_node11"><a xlink:href="../../de/d15/_shoot_8h.html" target="_top" xlink:title=" ">
<polygon fill="white" stroke="black" points="737.5,-263 737.5,-282 860.5,-282 860.5,-263 737.5,-263"/>
<text text-anchor="middle" x="799" y="-270" font-family="Helvetica,sans-Serif" font-size="10.00">Shmup/Movable/Shoot.h</text>
</a>
</g>
</g>
<!-- Node10&#45;&gt;Node11 -->
<g id="edge10" class="edge">
<title>Node10&#45;&gt;Node11</title>
<path fill="none" stroke="midnightblue" d="M799,-324.48C799,-316.08 799,-302.98 799,-292.16"/>
<polygon fill="midnightblue" stroke="midnightblue" points="802.5,-292.01 799,-282.01 795.5,-292.01 802.5,-292.01"/>
</g>
<!-- Node21 -->
<g id="node21" class="node">
<title>Node21</title>
<g id="a_node21"><a xlink:href="../../df/db3/_patern_v_spread_8h.html" target="_top" xlink:title=" ">
<polygon fill="white" stroke="black" points="878.5,-257.5 878.5,-287.5 991.5,-287.5 991.5,-257.5 878.5,-257.5"/>
<text text-anchor="start" x="886.5" y="-275.5" font-family="Helvetica,sans-Serif" font-size="10.00">Shmup/Paterns/Shoot</text>
<text text-anchor="middle" x="935" y="-264.5" font-family="Helvetica,sans-Serif" font-size="10.00">/PaternVSpread.h</text>
</a>
</g>
</g>
<!-- Node10&#45;&gt;Node21 -->
<g id="edge30" class="edge">
<title>Node10&#45;&gt;Node21</title>
<path fill="none" stroke="midnightblue" d="M818.49,-324.48C838.02,-315.93 868.71,-302.5 893.69,-291.57"/>
<polygon fill="midnightblue" stroke="midnightblue" points="895.19,-294.74 902.95,-287.52 892.38,-288.32 895.19,-294.74"/>
</g>
<!-- Node22 -->
<g id="node22" class="node">
<title>Node22</title>
<g id="a_node22"><a xlink:href="../../d3/dff/_patern_linear_8h.html" target="_top" xlink:title=" ">
<polygon fill="white" stroke="black" points="1048.5,-190.5 1048.5,-220.5 1161.5,-220.5 1161.5,-190.5 1048.5,-190.5"/>
<text text-anchor="start" x="1056.5" y="-208.5" font-family="Helvetica,sans-Serif" font-size="10.00">Shmup/Paterns/Shoot</text>
<text text-anchor="middle" x="1105" y="-197.5" font-family="Helvetica,sans-Serif" font-size="10.00">/PaternLinear.h</text>
</a>
</g>
</g>
<!-- Node10&#45;&gt;Node22 -->
<g id="edge32" class="edge">
<title>Node10&#45;&gt;Node22</title>
<path fill="none" stroke="midnightblue" d="M849.14,-324.49C899.91,-315.41 974.57,-300.62 1001,-288 1020.98,-278.46 1022.59,-270.68 1040,-257 1052.66,-247.05 1066.76,-236.08 1078.59,-226.91"/>
<polygon fill="midnightblue" stroke="midnightblue" points="1080.98,-229.49 1086.75,-220.6 1076.7,-223.95 1080.98,-229.49"/>
</g>
<!-- Node11&#45;&gt;Node7 -->
<g id="edge11" class="edge">
<title>Node11&#45;&gt;Node7</title>
<path fill="none" stroke="midnightblue" d="M823.64,-262.94C843.03,-254.98 869.33,-241.27 885,-221 903.93,-196.51 899.74,-184.66 904,-154 910,-110.86 918.42,-97.1 904,-56 900.21,-45.21 892.63,-35.08 885.4,-27.18"/>
<polygon fill="midnightblue" stroke="midnightblue" points="887.67,-24.49 878.16,-19.81 882.67,-29.4 887.67,-24.49"/>
</g>
<!-- Node12 -->
<g id="node12" class="node">
<title>Node12</title>
<g id="a_node12"><a xlink:href="../../db/d1b/_a_movable_8h.html" target="_top" xlink:title=" ">
<polygon fill="white" stroke="black" points="774.5,-196 774.5,-215 875.5,-215 875.5,-196 774.5,-196"/>
<text text-anchor="middle" x="825" y="-203" font-family="Helvetica,sans-Serif" font-size="10.00">Shmup/AMovable.h</text>
</a>
</g>
</g>
<!-- Node11&#45;&gt;Node12 -->
<g id="edge12" class="edge">
<title>Node11&#45;&gt;Node12</title>
<path fill="none" stroke="midnightblue" d="M802.51,-262.73C806.4,-252.99 812.81,-236.98 817.79,-224.53"/>
<polygon fill="midnightblue" stroke="midnightblue" points="821.08,-225.71 821.55,-215.13 814.59,-223.11 821.08,-225.71"/>
</g>
<!-- Node17 -->
<g id="node17" class="node">
<title>Node17</title>
<g id="a_node17"><a xlink:href="../../df/d50/_a_patern_8h.html" target="_top" xlink:title=" ">
<polygon fill="white" stroke="black" points="972,-62 972,-81 1102,-81 1102,-62 972,-62"/>
<text text-anchor="middle" x="1037" y="-69" font-family="Helvetica,sans-Serif" font-size="10.00">Shmup/Paterns/APatern.h</text>
</a>
</g>
</g>
<!-- Node11&#45;&gt;Node17 -->
<g id="edge21" class="edge">
<title>Node11&#45;&gt;Node17</title>
<path fill="none" stroke="midnightblue" d="M836.92,-262.96C877.79,-253.15 939.48,-236.44 958,-221 979.86,-202.79 1014.21,-126.27 1029.37,-90.76"/>
<polygon fill="midnightblue" stroke="midnightblue" points="1032.76,-91.73 1033.43,-81.16 1026.31,-89.01 1032.76,-91.73"/>
</g>
<!-- Node18 -->
<g id="node18" class="node">
<title>Node18</title>
<g id="a_node18"><a xlink:href="../../d5/d36/_collider_8h.html" target="_top" xlink:title=" ">
<polygon fill="white" stroke="black" points="480,-129 480,-148 610,-148 610,-129 480,-129"/>
<text text-anchor="middle" x="545" y="-136" font-family="Helvetica,sans-Serif" font-size="10.00">Shmup/Collision/Collider.h</text>
</a>
</g>
</g>
<!-- Node11&#45;&gt;Node18 -->
<g id="edge22" class="edge">
<title>Node11&#45;&gt;Node18</title>
<path fill="none" stroke="midnightblue" d="M789.37,-262.77C771.03,-246.53 729.32,-211.37 689,-190 656.76,-172.91 617.52,-159.59 588.15,-150.93"/>
<polygon fill="midnightblue" stroke="midnightblue" points="588.77,-147.47 578.2,-148.06 586.84,-154.19 588.77,-147.47"/>
</g>
<!-- Node20 -->
<g id="node20" class="node">
<title>Node20</title>
<g id="a_node20"><a xlink:href="../../d3/d72/_a_collidable_8h.html" target="_top" xlink:title=" ">
<polygon fill="white" stroke="black" points="480,-196 480,-215 626,-215 626,-196 480,-196"/>
<text text-anchor="middle" x="553" y="-203" font-family="Helvetica,sans-Serif" font-size="10.00">Shmup/Collision/ACollidable.h</text>
</a>
</g>
</g>
<!-- Node11&#45;&gt;Node20 -->
<g id="edge27" class="edge">
<title>Node11&#45;&gt;Node20</title>
<path fill="none" stroke="midnightblue" d="M766.59,-262.94C722.62,-251.32 643.99,-230.54 595.38,-217.7"/>
<polygon fill="midnightblue" stroke="midnightblue" points="596.05,-214.25 585.48,-215.08 594.26,-221.02 596.05,-214.25"/>
</g>
<!-- Node12&#45;&gt;Node7 -->
<g id="edge13" class="edge">
<title>Node12&#45;&gt;Node7</title>
<path fill="none" stroke="midnightblue" d="M842.61,-195.87C857.52,-187.48 877.88,-173.18 887,-154 906.73,-112.48 888.4,-56.99 876.44,-28.9"/>
<polygon fill="midnightblue" stroke="midnightblue" points="879.55,-27.26 872.27,-19.57 873.16,-30.12 879.55,-27.26"/>
</g>
<!-- Node12&#45;&gt;Node13 -->
<g id="edge14" class="edge">
<title>Node12&#45;&gt;Node13</title>
<path fill="none" stroke="midnightblue" d="M805.08,-195.87C779.31,-184.7 734.18,-165.15 704.45,-152.26"/>
<polygon fill="midnightblue" stroke="midnightblue" points="705.57,-148.93 695,-148.17 702.79,-155.35 705.57,-148.93"/>
</g>
<!-- Node13&#45;&gt;Node7 -->
<g id="edge15" class="edge">
<title>Node13&#45;&gt;Node7</title>
<path fill="none" stroke="midnightblue" d="M703.71,-128.94C738.22,-118.3 793.64,-99.96 811,-87 832.1,-71.24 849.05,-45.58 858.82,-28.49"/>
<polygon fill="midnightblue" stroke="midnightblue" points="861.98,-30.02 863.72,-19.57 855.84,-26.65 861.98,-30.02"/>
</g>
<!-- Node14 -->
<g id="node14" class="node">
<title>Node14</title>
<g id="a_node14"><a xlink:href="../../dc/d80/_instance_list_8h.html" target="_top" xlink:title=" ">
<polygon fill="white" stroke="black" points="380,-62 380,-81 492,-81 492,-62 380,-62"/>
<text text-anchor="middle" x="436" y="-69" font-family="Helvetica,sans-Serif" font-size="10.00">Shmup/InstanceList.h</text>
</a>
</g>
</g>
<!-- Node13&#45;&gt;Node14 -->
<g id="edge16" class="edge">
<title>Node13&#45;&gt;Node14</title>
<path fill="none" stroke="midnightblue" d="M643.26,-128.87C600.56,-117.25 524.52,-96.58 477.38,-83.75"/>
<polygon fill="midnightblue" stroke="midnightblue" points="478.06,-80.31 467.49,-81.06 476.22,-87.07 478.06,-80.31"/>
</g>
<!-- Node16 -->
<g id="node16" class="node">
<title>Node16</title>
<g id="a_node16"><a xlink:href="../../da/d02/_transform2_d_8h.html" target="_top" xlink:title=" ">
<polygon fill="white" stroke="black" points="688,-62 688,-81 802,-81 802,-62 688,-62"/>
<text text-anchor="middle" x="745" y="-69" font-family="Helvetica,sans-Serif" font-size="10.00">Shmup/Transform2D.h</text>
</a>
</g>
</g>
<!-- Node13&#45;&gt;Node16 -->
<g id="edge19" class="edge">
<title>Node13&#45;&gt;Node16</title>
<path fill="none" stroke="midnightblue" d="M684.44,-128.73C695.67,-118.31 714.62,-100.71 728.34,-87.97"/>
<polygon fill="midnightblue" stroke="midnightblue" points="730.76,-90.5 735.71,-81.13 726,-85.37 730.76,-90.5"/>
</g>
<!-- Node14&#45;&gt;Node2 -->
<g id="edge17" class="edge">
<title>Node14&#45;&gt;Node2</title>
<path fill="none" stroke="midnightblue" d="M391.73,-61.98C330.62,-50.21 221.5,-29.2 164.31,-18.18"/>
<polygon fill="midnightblue" stroke="midnightblue" points="164.74,-14.7 154.25,-16.25 163.41,-21.58 164.74,-14.7"/>
</g>
<!-- Node15 -->
<g id="node15" class="node">
<title>Node15</title>
<g id="a_node15"><a xlink:title=" ">
<polygon fill="white" stroke="#bfbfbf" points="372,-0.5 372,-19.5 416,-19.5 416,-0.5 372,-0.5"/>
<text text-anchor="middle" x="394" y="-7.5" font-family="Helvetica,sans-Serif" font-size="10.00">vector</text>
</a>
</g>
</g>
<!-- Node14&#45;&gt;Node15 -->
<g id="edge18" class="edge">
<title>Node14&#45;&gt;Node15</title>
<path fill="none" stroke="midnightblue" d="M429.98,-61.98C423.74,-53.14 413.83,-39.09 405.98,-27.98"/>
<polygon fill="midnightblue" stroke="midnightblue" points="408.63,-25.66 400.01,-19.51 402.91,-29.7 408.63,-25.66"/>
</g>
<!-- Node16&#45;&gt;Node7 -->
<g id="edge20" class="edge">
<title>Node16&#45;&gt;Node7</title>
<path fill="none" stroke="midnightblue" d="M762.62,-61.98C783.17,-52.03 817.36,-35.49 841.21,-23.96"/>
<polygon fill="midnightblue" stroke="midnightblue" points="842.93,-27.01 850.41,-19.51 839.88,-20.71 842.93,-27.01"/>
</g>
<!-- Node18&#45;&gt;Node7 -->
<g id="edge23" class="edge">
<title>Node18&#45;&gt;Node7</title>
<path fill="none" stroke="midnightblue" d="M564.03,-128.88C583.87,-119.58 615.55,-103.83 641,-87 659.18,-74.98 659.46,-65.66 679,-56 729.72,-30.93 795.11,-19.4 834.18,-14.42"/>
<polygon fill="midnightblue" stroke="midnightblue" points="834.95,-17.85 844.46,-13.18 834.12,-10.9 834.95,-17.85"/>
</g>
<!-- Node18&#45;&gt;Node16 -->
<g id="edge24" class="edge">
<title>Node18&#45;&gt;Node16</title>
<path fill="none" stroke="midnightblue" d="M571.56,-128.87C606.92,-117.38 669.59,-97.01 709.13,-84.16"/>
<polygon fill="midnightblue" stroke="midnightblue" points="710.22,-87.48 718.65,-81.06 708.06,-80.83 710.22,-87.48"/>
</g>
<!-- Node19 -->
<g id="node19" class="node">
<title>Node19</title>
<g id="a_node19"><a xlink:href="../../de/d60/_collider_settings_8h.html" target="_top" xlink:title=" ">
<polygon fill="white" stroke="black" points="510,-56.5 510,-86.5 632,-86.5 632,-56.5 510,-56.5"/>
<text text-anchor="start" x="518" y="-74.5" font-family="Helvetica,sans-Serif" font-size="10.00">Shmup/Collision/Collider</text>
<text text-anchor="middle" x="571" y="-63.5" font-family="Helvetica,sans-Serif" font-size="10.00">Settings.h</text>
</a>
</g>
</g>
<!-- Node18&#45;&gt;Node19 -->
<g id="edge25" class="edge">
<title>Node18&#45;&gt;Node19</title>
<path fill="none" stroke="midnightblue" d="M548.51,-128.73C551.85,-120.37 557.04,-107.4 561.59,-96.02"/>
<polygon fill="midnightblue" stroke="midnightblue" points="564.9,-97.17 565.36,-86.59 558.4,-94.57 564.9,-97.17"/>
</g>
<!-- Node19&#45;&gt;Node15 -->
<g id="edge26" class="edge">
<title>Node19&#45;&gt;Node15</title>
<path fill="none" stroke="midnightblue" d="M529.05,-56.4C497.41,-45.76 454.67,-31.4 425.82,-21.7"/>
<polygon fill="midnightblue" stroke="midnightblue" points="426.82,-18.34 416.23,-18.47 424.59,-24.98 426.82,-18.34"/>
</g>
<!-- Node20&#45;&gt;Node14 -->
<g id="edge29" class="edge">
<title>Node20&#45;&gt;Node14</title>
<path fill="none" stroke="midnightblue" d="M531.98,-195.96C513.74,-187.62 487.72,-173.36 471,-154 455,-135.47 445.37,-108.52 440.38,-90.75"/>
<polygon fill="midnightblue" stroke="midnightblue" points="443.75,-89.83 437.85,-81.04 436.98,-91.6 443.75,-89.83"/>
</g>
<!-- Node20&#45;&gt;Node18 -->
<g id="edge28" class="edge">
<title>Node20&#45;&gt;Node18</title>
<path fill="none" stroke="midnightblue" d="M551.92,-195.73C550.75,-186.18 548.83,-170.62 547.31,-158.28"/>
<polygon fill="midnightblue" stroke="midnightblue" points="550.76,-157.62 546.06,-148.13 543.81,-158.48 550.76,-157.62"/>
</g>
<!-- Node21&#45;&gt;Node17 -->
<g id="edge31" class="edge">
<title>Node21&#45;&gt;Node17</title>
<path fill="none" stroke="midnightblue" d="M958.33,-257.33C971.19,-248.4 986.44,-235.77 996,-221 1022.68,-179.77 1032.18,-121.28 1035.42,-91.51"/>
<polygon fill="midnightblue" stroke="midnightblue" points="1038.93,-91.57 1036.4,-81.28 1031.96,-90.9 1038.93,-91.57"/>
</g>
<!-- Node22&#45;&gt;Node17 -->
<g id="edge33" class="edge">
<title>Node22&#45;&gt;Node17</title>
<path fill="none" stroke="midnightblue" d="M1097.72,-190.37C1085.21,-166.08 1059.64,-116.44 1046.01,-90"/>
<polygon fill="midnightblue" stroke="midnightblue" points="1049.12,-88.38 1041.43,-81.1 1042.9,-91.59 1049.12,-88.38"/>
</g>
<!-- Node23&#45;&gt;Node2 -->
<g id="edge36" class="edge">
<title>Node23&#45;&gt;Node2</title>
<path fill="none" stroke="midnightblue" d="M347.29,-267.51C292.04,-262.18 210.99,-249.77 146,-221 100.73,-200.96 79.1,-198.3 57,-154 33.98,-107.85 81.7,-53.01 109.27,-26.66"/>
<polygon fill="midnightblue" stroke="midnightblue" points="111.8,-29.09 116.76,-19.73 107.04,-23.95 111.8,-29.09"/>
</g>
<!-- Node23&#45;&gt;Node12 -->
<g id="edge38" class="edge">
<title>Node23&#45;&gt;Node12</title>
<path fill="none" stroke="midnightblue" d="M452.24,-262.94C462.59,-260.89 473.69,-258.79 484,-257 581.74,-240.07 695.85,-223.89 764.17,-214.59"/>
<polygon fill="midnightblue" stroke="midnightblue" points="764.88,-218.03 774.32,-213.21 763.94,-211.09 764.88,-218.03"/>
</g>
<!-- Node23&#45;&gt;Node18 -->
<g id="edge46" class="edge">
<title>Node23&#45;&gt;Node18</title>
<path fill="none" stroke="midnightblue" d="M415.97,-262.91C425.34,-247.2 446.85,-213.3 471,-190 485.92,-175.6 505.37,-162.5 520.59,-153.26"/>
<polygon fill="midnightblue" stroke="midnightblue" points="522.61,-156.12 529.44,-148.02 519.05,-150.1 522.61,-156.12"/>
</g>
<!-- Node23&#45;&gt;Node20 -->
<g id="edge47" class="edge">
<title>Node23&#45;&gt;Node20</title>
<path fill="none" stroke="midnightblue" d="M429.86,-262.87C454.15,-251.75 496.6,-232.32 524.76,-219.43"/>
<polygon fill="midnightblue" stroke="midnightblue" points="526.43,-222.51 534.07,-215.17 523.52,-216.15 526.43,-222.51"/>
</g>
<!-- Node24 -->
<g id="node24" class="node">
<title>Node24</title>
<g id="a_node24"><a xlink:title=" ">
<polygon fill="white" stroke="#bfbfbf" points="296,-196 296,-215 348,-215 348,-196 296,-196"/>
<text text-anchor="middle" x="322" y="-203" font-family="Helvetica,sans-Serif" font-size="10.00">sstream</text>
</a>
</g>
</g>
<!-- Node23&#45;&gt;Node24 -->
<g id="edge37" class="edge">
<title>Node23&#45;&gt;Node24</title>
<path fill="none" stroke="midnightblue" d="M399,-262.73C384.45,-252.11 359.72,-234.05 342.22,-221.26"/>
<polygon fill="midnightblue" stroke="midnightblue" points="343.95,-218.2 333.81,-215.13 339.82,-223.85 343.95,-218.2"/>
</g>
<!-- Node25 -->
<g id="node25" class="node">
<title>Node25</title>
<g id="a_node25"><a xlink:href="../../d1/d98/_sequence_move_patern_8h.html" target="_top" xlink:title=" ">
<polygon fill="white" stroke="black" points="154.5,-190.5 154.5,-220.5 277.5,-220.5 277.5,-190.5 154.5,-190.5"/>
<text text-anchor="start" x="162.5" y="-208.5" font-family="Helvetica,sans-Serif" font-size="10.00">Shmup/Paterns/Enemy</text>
<text text-anchor="middle" x="216" y="-197.5" font-family="Helvetica,sans-Serif" font-size="10.00">/SequenceMovePatern.h</text>
</a>
</g>
</g>
<!-- Node23&#45;&gt;Node25 -->
<g id="edge39" class="edge">
<title>Node23&#45;&gt;Node25</title>
<path fill="none" stroke="midnightblue" d="M385.11,-262.87C355.34,-252.95 305.73,-236.41 267.92,-223.81"/>
<polygon fill="midnightblue" stroke="midnightblue" points="268.68,-220.37 258.08,-220.53 266.46,-227.01 268.68,-220.37"/>
</g>
<!-- Node25&#45;&gt;Node2 -->
<g id="edge43" class="edge">
<title>Node25&#45;&gt;Node2</title>
<path fill="none" stroke="midnightblue" d="M214.13,-190.22C211.62,-173.6 206.37,-145.54 197,-123 181.98,-86.85 155.86,-49.1 140.12,-27.97"/>
<polygon fill="midnightblue" stroke="midnightblue" points="142.72,-25.59 133.89,-19.73 137.14,-29.82 142.72,-25.59"/>
</g>
<!-- Node25&#45;&gt;Node15 -->
<g id="edge45" class="edge">
<title>Node25&#45;&gt;Node15</title>
<path fill="none" stroke="midnightblue" d="M246.88,-190.3C262.93,-181.66 281.88,-169.34 295,-154 325.92,-117.86 309.08,-93.76 338,-56 347.1,-44.12 359.96,-33.5 371.07,-25.56"/>
<polygon fill="midnightblue" stroke="midnightblue" points="373.21,-28.33 379.49,-19.79 369.26,-22.55 373.21,-28.33"/>
</g>
<!-- Node26 -->
<g id="node26" class="node">
<title>Node26</title>
<g id="a_node26"><a xlink:href="../../dc/d8f/_a_offsetable_patern_8h.html" target="_top" xlink:title=" ">
<polygon fill="white" stroke="black" points="740,-123.5 740,-153.5 878,-153.5 878,-123.5 740,-123.5"/>
<text text-anchor="start" x="748" y="-141.5" font-family="Helvetica,sans-Serif" font-size="10.00">Shmup/Paterns/AOffsetable</text>
<text text-anchor="middle" x="809" y="-130.5" font-family="Helvetica,sans-Serif" font-size="10.00">Patern.h</text>
</a>
</g>
</g>
<!-- Node25&#45;&gt;Node26 -->
<g id="edge40" class="edge">
<title>Node25&#45;&gt;Node26</title>
<path fill="none" stroke="midnightblue" d="M277.88,-191.41C280.96,-190.9 284.01,-190.42 287,-190 479.76,-162.6 532.99,-179.54 729.65,-154.08"/>
<polygon fill="midnightblue" stroke="midnightblue" points="730.28,-157.53 739.74,-152.76 729.37,-150.59 730.28,-157.53"/>
</g>
<!-- Node27 -->
<g id="node27" class="node">
<title>Node27</title>
<g id="a_node27"><a xlink:title=" ">
<polygon fill="white" stroke="#bfbfbf" points="244.5,-129 244.5,-148 285.5,-148 285.5,-129 244.5,-129"/>
<text text-anchor="middle" x="265" y="-136" font-family="Helvetica,sans-Serif" font-size="10.00">string</text>
</a>
</g>
</g>
<!-- Node25&#45;&gt;Node27 -->
<g id="edge44" class="edge">
<title>Node25&#45;&gt;Node27</title>
<path fill="none" stroke="midnightblue" d="M226.63,-190.4C234.2,-180.36 244.39,-166.84 252.37,-156.25"/>
<polygon fill="midnightblue" stroke="midnightblue" points="255.22,-158.29 258.45,-148.19 249.63,-154.07 255.22,-158.29"/>
</g>
<!-- Node26&#45;&gt;Node7 -->
<g id="edge41" class="edge">
<title>Node26&#45;&gt;Node7</title>
<path fill="none" stroke="midnightblue" d="M820.65,-123.2C828.13,-113.46 837.61,-100.03 844,-87 853.12,-68.41 859.78,-45.58 863.74,-29.82"/>
<polygon fill="midnightblue" stroke="midnightblue" points="867.22,-30.3 866.14,-19.76 860.41,-28.67 867.22,-30.3"/>
</g>
<!-- Node26&#45;&gt;Node17 -->
<g id="edge42" class="edge">
<title>Node26&#45;&gt;Node17</title>
<path fill="none" stroke="midnightblue" d="M858.19,-123.48C899.77,-111.62 958.57,-94.86 997.23,-83.84"/>
<polygon fill="midnightblue" stroke="midnightblue" points="998.43,-87.14 1007.08,-81.03 996.51,-80.4 998.43,-87.14"/>
</g>
<!-- Node28&#45;&gt;Node14 -->
<g id="edge49" class="edge">
<title>Node28&#45;&gt;Node14</title>
<path fill="none" stroke="midnightblue" d="M167.71,-128.94C223.64,-117.17 324.2,-96.02 385.05,-83.22"/>
<polygon fill="midnightblue" stroke="midnightblue" points="386.13,-86.57 395.2,-81.08 384.69,-79.72 386.13,-86.57"/>
</g>
<!-- Node29&#45;&gt;Node15 -->
<g id="edge51" class="edge">
<title>Node29&#45;&gt;Node15</title>
<path fill="none" stroke="midnightblue" d="M514.38,-257.41C494.21,-249.09 470.59,-237.03 453,-221 401.38,-173.98 389.93,-154.21 371,-87 367.26,-73.74 367.78,-69.4 371,-56 373.31,-46.42 378.02,-36.58 382.58,-28.56"/>
<polygon fill="midnightblue" stroke="midnightblue" points="385.69,-30.17 387.9,-19.81 379.71,-26.54 385.69,-30.17"/>
</g>
<!-- Node29&#45;&gt;Node19 -->
<g id="edge53" class="edge">
<title>Node29&#45;&gt;Node19</title>
<path fill="none" stroke="midnightblue" d="M514.6,-257.4C497.97,-249.46 480.51,-237.71 471,-221 449.46,-183.14 448.18,-160.1 471,-123 479.78,-108.73 493.97,-98.35 508.93,-90.85"/>
<polygon fill="midnightblue" stroke="midnightblue" points="510.68,-93.9 518.31,-86.55 507.76,-87.54 510.68,-93.9"/>
</g>
<!-- Node29&#45;&gt;Node20 -->
<g id="edge54" class="edge">
<title>Node29&#45;&gt;Node20</title>
<path fill="none" stroke="midnightblue" d="M555.35,-257.4C554.91,-247.96 554.34,-235.45 553.86,-225.19"/>
<polygon fill="midnightblue" stroke="midnightblue" points="557.36,-225.02 553.4,-215.19 550.37,-225.35 557.36,-225.02"/>
</g>
<!-- Node30 -->
<g id="node30" class="node">
<title>Node30</title>
<g id="a_node30"><a xlink:title=" ">
<polygon fill="white" stroke="#bfbfbf" points="644.5,-196 644.5,-215 679.5,-215 679.5,-196 644.5,-196"/>
<text text-anchor="middle" x="662" y="-203" font-family="Helvetica,sans-Serif" font-size="10.00">map</text>
</a>
</g>
</g>
<!-- Node29&#45;&gt;Node30 -->
<g id="edge52" class="edge">
<title>Node29&#45;&gt;Node30</title>
<path fill="none" stroke="midnightblue" d="M579,-257.4C596.94,-246.39 621.72,-231.2 639.52,-220.28"/>
<polygon fill="midnightblue" stroke="midnightblue" points="641.43,-223.22 648.13,-215.01 637.77,-217.25 641.43,-223.22"/>
</g>
</g>
</svg>
