<?xml version="1.0" encoding="UTF-8" standalone="no"?>
<!DOCTYPE svg PUBLIC "-//W3C//DTD SVG 1.1//EN"
 "http://www.w3.org/Graphics/SVG/1.1/DTD/svg11.dtd">
<!-- Generated by graphviz version 2.49.3 (20211027.1534)
 -->
<!-- Title: RayLib_SHMUP/src/Shmup/GameManager.cpp Pages: 1 -->
<!--zoomable 419 -->
<svg id="main" version="1.1" xmlns="http://www.w3.org/2000/svg" xmlns:xlink="http://www.w3.org/1999/xlink" xml:space="preserve" onload="init(evt)">
<style type="text/css"><![CDATA[
.edge:hover path { stroke: red; }
.edge:hover polygon { stroke: red; fill: red; }
]]></style>
<script type="text/javascript"><![CDATA[
var edges = document.getElementsByTagName('g');
if (edges && edges.length) {
  for (var i=0;i<edges.length;i++) {
    if (edges[i].id.substr(0,4)=='edge') {
      edges[i].setAttribute('class','edge');
    }
  }
}
]]></script>
        <defs>
                <circle id="rim" cx="0" cy="0" r="7"/>
                <circle id="rim2" cx="0" cy="0" r="3.5"/>
                <g id="zoomPlus">
                        <use xlink:href="#rim" fill="#404040">
                                <set attributeName="fill" to="#808080" begin="zoomplus.mouseover" end="zoomplus.mouseout"/>
                        </use>
                        <path d="M-4,0h8M0,-4v8" fill="none" stroke="white" stroke-width="1.5" pointer-events="none"/>
                </g>
                <g id="zoomMin">
                        <use xlink:href="#rim" fill="#404040">
                                <set attributeName="fill" to="#808080" begin="zoomminus.mouseover" end="zoomminus.mouseout"/>
                        </use>
                        <path d="M-4,0h8" fill="none" stroke="white" stroke-width="1.5" pointer-events="none"/>
                </g>
                <g id="dirArrow">
                        <path fill="none" stroke="white" stroke-width="1.5" d="M0,-3.0v7 M-2.5,-0.5L0,-3.0L2.5,-0.5"/>
                </g>
               <g id="resetDef">
                       <use xlink:href="#rim2" fill="#404040">
                               <set attributeName="fill" to="#808080" begin="reset.mouseover" end="reset.mouseout"/>
                       </use>
               </g>
        </defs>

<script type="text/javascript">
var viewWidth = 1601;
var viewHeight = 419;
var sectionId = 'dynsection-0';
</script>
<script xlink:href="../../svgpan.js"/>
<svg id="graph" class="graph">
<g id="viewport">
<title>RayLib_SHMUP/src/Shmup/GameManager.cpp</title>
<polygon fill="white" stroke="transparent" points="-4,4 -4,-415 1597,-415 1597,4 -4,4"/>
<!-- Node1 -->
<g id="node1" class="node">
<title>Node1</title>
<g id="a_node1"><a xlink:title=" ">
<polygon fill="#bfbfbf" stroke="black" points="786.5,-380.5 786.5,-410.5 925.5,-410.5 925.5,-380.5 786.5,-380.5"/>
<text text-anchor="start" x="794.5" y="-398.5" font-family="Helvetica,sans-Serif" font-size="10.00">RayLib_SHMUP/src/Shmup</text>
<text text-anchor="middle" x="856" y="-387.5" font-family="Helvetica,sans-Serif" font-size="10.00">/GameManager.cpp</text>
</a>
</g>
</g>
<!-- Node2 -->
<g id="node2" class="node">
<title>Node2</title>
<g id="a_node2"><a xlink:title=" ">
<polygon fill="white" stroke="#bfbfbf" points="156,-0.5 156,-19.5 210,-19.5 210,-0.5 156,-0.5"/>
<text text-anchor="middle" x="183" y="-7.5" font-family="Helvetica,sans-Serif" font-size="10.00">iostream</text>
</a>
</g>
</g>
<!-- Node1&#45;&gt;Node2 -->
<g id="edge1" class="edge">
<title>Node1&#45;&gt;Node2</title>
<path fill="none" stroke="midnightblue" d="M786.27,-395.47C664.31,-395.78 404.96,-390.26 192,-344 103.17,-324.7 0,-364.4 0,-273.5 0,-273.5 0,-273.5 0,-137.5 0,-67.11 92.75,-32.83 146.19,-18.92"/>
<polygon fill="midnightblue" stroke="midnightblue" points="147.14,-22.29 156,-16.48 145.45,-15.5 147.14,-22.29"/>
</g>
<!-- Node3 -->
<g id="node3" class="node">
<title>Node3</title>
<g id="a_node3"><a xlink:title=" ">
<polygon fill="white" stroke="#bfbfbf" points="1126,-324.5 1126,-343.5 1156,-343.5 1156,-324.5 1126,-324.5"/>
<text text-anchor="middle" x="1141" y="-331.5" font-family="Helvetica,sans-Serif" font-size="10.00">set</text>
</a>
</g>
</g>
<!-- Node1&#45;&gt;Node3 -->
<g id="edge2" class="edge">
<title>Node1&#45;&gt;Node3</title>
<path fill="none" stroke="midnightblue" d="M925.77,-384.61C976.64,-376.58 1047.24,-363.76 1116.09,-344.2"/>
<polygon fill="midnightblue" stroke="midnightblue" points="1117.16,-347.54 1125.79,-341.4 1115.21,-340.81 1117.16,-347.54"/>
</g>
<!-- Node4 -->
<g id="node4" class="node">
<title>Node4</title>
<g id="a_node4"><a xlink:href="../../d0/d80/_random_8h.html" target="_top" xlink:title=" ">
<polygon fill="white" stroke="black" points="1173.5,-324.5 1173.5,-343.5 1294.5,-343.5 1294.5,-324.5 1173.5,-324.5"/>
<text text-anchor="middle" x="1234" y="-331.5" font-family="Helvetica,sans-Serif" font-size="10.00">Namespaces/Random.h</text>
</a>
</g>
</g>
<!-- Node1&#45;&gt;Node4 -->
<g id="edge3" class="edge">
<title>Node1&#45;&gt;Node4</title>
<path fill="none" stroke="midnightblue" d="M925.77,-383.52C995.57,-372.53 1102.04,-355.77 1169.8,-345.1"/>
<polygon fill="midnightblue" stroke="midnightblue" points="1170.59,-348.52 1179.92,-343.51 1169.5,-341.61 1170.59,-348.52"/>
</g>
<!-- Node5 -->
<g id="node5" class="node">
<title>Node5</title>
<g id="a_node5"><a xlink:href="../../d5/daf/_game_status_8h.html" target="_top" xlink:title=" ">
<polygon fill="white" stroke="black" points="1313,-324.5 1313,-343.5 1453,-343.5 1453,-324.5 1313,-324.5"/>
<text text-anchor="middle" x="1383" y="-331.5" font-family="Helvetica,sans-Serif" font-size="10.00">Namespaces/GameStatus.h</text>
</a>
</g>
</g>
<!-- Node1&#45;&gt;Node5 -->
<g id="edge4" class="edge">
<title>Node1&#45;&gt;Node5</title>
<path fill="none" stroke="midnightblue" d="M925.84,-386.65C1011.91,-376.98 1162.94,-359.98 1302.74,-344.14"/>
<polygon fill="midnightblue" stroke="midnightblue" points="1303.25,-347.61 1312.79,-343 1302.46,-340.65 1303.25,-347.61"/>
</g>
<!-- Node6 -->
<g id="node6" class="node">
<title>Node6</title>
<g id="a_node6"><a xlink:href="../../d2/d94/_controller_8h.html" target="_top" xlink:title=" ">
<polygon fill="white" stroke="black" points="839,-324.5 839,-343.5 965,-343.5 965,-324.5 839,-324.5"/>
<text text-anchor="middle" x="902" y="-331.5" font-family="Helvetica,sans-Serif" font-size="10.00">Namespaces/Controller.h</text>
</a>
</g>
</g>
<!-- Node1&#45;&gt;Node6 -->
<g id="edge5" class="edge">
<title>Node1&#45;&gt;Node6</title>
<path fill="none" stroke="midnightblue" d="M866.9,-380.4C873.59,-371.75 882.18,-360.64 889.18,-351.58"/>
<polygon fill="midnightblue" stroke="midnightblue" points="891.96,-353.71 895.31,-343.66 886.42,-349.43 891.96,-353.71"/>
</g>
<!-- Node9 -->
<g id="node9" class="node">
<title>Node9</title>
<g id="a_node9"><a xlink:href="../../d0/d96/_game_manager_8h.html" target="_top" xlink:title=" ">
<polygon fill="white" stroke="black" points="1471,-324.5 1471,-343.5 1593,-343.5 1593,-324.5 1471,-324.5"/>
<text text-anchor="middle" x="1532" y="-331.5" font-family="Helvetica,sans-Serif" font-size="10.00">Shmup/GameManager.h</text>
</a>
</g>
</g>
<!-- Node1&#45;&gt;Node9 -->
<g id="edge8" class="edge">
<title>Node1&#45;&gt;Node9</title>
<path fill="none" stroke="midnightblue" d="M925.62,-389.72C1036.54,-381.87 1260.45,-365.11 1460.81,-344.08"/>
<polygon fill="midnightblue" stroke="midnightblue" points="1461.36,-347.54 1470.94,-343.01 1460.62,-340.58 1461.36,-347.54"/>
</g>
<!-- Node10 -->
<g id="node10" class="node">
<title>Node10</title>
<g id="a_node10"><a xlink:href="../../d1/d39/_player_8h.html" target="_top" xlink:title=" ">
<polygon fill="white" stroke="black" points="983.5,-324.5 983.5,-343.5 1108.5,-343.5 1108.5,-324.5 983.5,-324.5"/>
<text text-anchor="middle" x="1046" y="-331.5" font-family="Helvetica,sans-Serif" font-size="10.00">Shmup/Movable/Player.h</text>
</a>
</g>
</g>
<!-- Node1&#45;&gt;Node10 -->
<g id="edge9" class="edge">
<title>Node1&#45;&gt;Node10</title>
<path fill="none" stroke="midnightblue" d="M901.03,-380.4C933.86,-370.12 977.82,-356.35 1008.7,-346.68"/>
<polygon fill="midnightblue" stroke="midnightblue" points="1010.13,-349.9 1018.63,-343.57 1008.04,-343.22 1010.13,-349.9"/>
</g>
<!-- Node13 -->
<g id="node13" class="node">
<title>Node13</title>
<g id="a_node13"><a xlink:href="../../d7/daf/_a_graphic_object_8h.html" target="_top" xlink:title=" ">
<polygon fill="white" stroke="black" points="717.5,-129 717.5,-148 810.5,-148 810.5,-129 717.5,-129"/>
<text text-anchor="middle" x="764" y="-136" font-family="Helvetica,sans-Serif" font-size="10.00">AGraphicObject.h</text>
</a>
</g>
</g>
<!-- Node1&#45;&gt;Node13 -->
<g id="edge36" class="edge">
<title>Node1&#45;&gt;Node13</title>
<path fill="none" stroke="midnightblue" d="M847.85,-380.21C842.37,-370.26 835.22,-356.57 830,-344 802.24,-277.19 778.66,-194.24 768.86,-157.95"/>
<polygon fill="midnightblue" stroke="midnightblue" points="772.23,-157.01 766.27,-148.25 765.47,-158.82 772.23,-157.01"/>
</g>
<!-- Node24 -->
<g id="node24" class="node">
<title>Node24</title>
<g id="a_node24"><a xlink:href="../../d4/d1e/_enemy_8h.html" target="_top" xlink:title=" ">
<polygon fill="white" stroke="black" points="570.5,-263 570.5,-282 697.5,-282 697.5,-263 570.5,-263"/>
<text text-anchor="middle" x="634" y="-270" font-family="Helvetica,sans-Serif" font-size="10.00">Shmup/Movable/Enemy.h</text>
</a>
</g>
</g>
<!-- Node1&#45;&gt;Node24 -->
<g id="edge37" class="edge">
<title>Node1&#45;&gt;Node24</title>
<path fill="none" stroke="midnightblue" d="M830.1,-380.38C786.93,-356.85 700.83,-309.93 658.56,-286.89"/>
<polygon fill="midnightblue" stroke="midnightblue" points="660.22,-283.8 649.76,-282.09 656.87,-289.95 660.22,-283.8"/>
</g>
<!-- Node29 -->
<g id="node29" class="node">
<title>Node29</title>
<g id="a_node29"><a xlink:href="../../d8/d97/_instance_list_8hpp.html" target="_top" xlink:title=" ">
<polygon fill="white" stroke="black" points="217,-129 217,-148 339,-148 339,-129 217,-129"/>
<text text-anchor="middle" x="278" y="-136" font-family="Helvetica,sans-Serif" font-size="10.00">Shmup/InstanceList.hpp</text>
</a>
</g>
</g>
<!-- Node1&#45;&gt;Node29 -->
<g id="edge50" class="edge">
<title>Node1&#45;&gt;Node29</title>
<path fill="none" stroke="midnightblue" d="M786.4,-389.97C607.1,-377.58 140.34,-340.53 96,-288 45.46,-228.13 173.3,-174.48 240.24,-151.44"/>
<polygon fill="midnightblue" stroke="midnightblue" points="241.67,-154.64 250.03,-148.13 239.44,-148.01 241.67,-154.64"/>
</g>
<!-- Node30 -->
<g id="node30" class="node">
<title>Node30</title>
<g id="a_node30"><a xlink:href="../../d7/d3e/_collision_manager_8h.html" target="_top" xlink:title=" ">
<polygon fill="white" stroke="black" points="241.5,-257.5 241.5,-287.5 368.5,-287.5 368.5,-257.5 241.5,-257.5"/>
<text text-anchor="start" x="249.5" y="-275.5" font-family="Helvetica,sans-Serif" font-size="10.00">Shmup/Collision/Collision</text>
<text text-anchor="middle" x="305" y="-264.5" font-family="Helvetica,sans-Serif" font-size="10.00">Manager.h</text>
</a>
</g>
</g>
<!-- Node1&#45;&gt;Node30 -->
<g id="edge52" class="edge">
<title>Node1&#45;&gt;Node30</title>
<path fill="none" stroke="midnightblue" d="M791.99,-380.44C689,-357.83 487.1,-313.49 378.42,-289.62"/>
<polygon fill="midnightblue" stroke="midnightblue" points="379.04,-286.18 368.52,-287.45 377.54,-293.01 379.04,-286.18"/>
</g>
<!-- Node32 -->
<g id="node32" class="node">
<title>Node32</title>
<g id="a_node32"><a xlink:href="../../d2/dc9/_level_manager_8h.html" target="_top" xlink:title=" ">
<polygon fill="white" stroke="black" points="104.5,-263 104.5,-282 223.5,-282 223.5,-263 104.5,-263"/>
<text text-anchor="middle" x="164" y="-270" font-family="Helvetica,sans-Serif" font-size="10.00">Shmup/LevelManager.h</text>
</a>
</g>
</g>
<!-- Node1&#45;&gt;Node32 -->
<g id="edge57" class="edge">
<title>Node1&#45;&gt;Node32</title>
<path fill="none" stroke="midnightblue" d="M786.32,-383.64C722.85,-373.66 626.55,-358.29 543,-344 404.99,-320.4 370.41,-314.84 233,-288 226.77,-286.78 220.24,-285.46 213.77,-284.14"/>
<polygon fill="midnightblue" stroke="midnightblue" points="214.23,-280.66 203.73,-282.05 212.81,-287.51 214.23,-280.66"/>
</g>
<!-- Node7 -->
<g id="node7" class="node">
<title>Node7</title>
<g id="a_node7"><a xlink:title=" ">
<polygon fill="white" stroke="#bfbfbf" points="874.5,-0.5 874.5,-19.5 921.5,-19.5 921.5,-0.5 874.5,-0.5"/>
<text text-anchor="middle" x="898" y="-7.5" font-family="Helvetica,sans-Serif" font-size="10.00">raylib.h</text>
</a>
</g>
</g>
<!-- Node6&#45;&gt;Node7 -->
<g id="edge6" class="edge">
<title>Node6&#45;&gt;Node7</title>
<path fill="none" stroke="midnightblue" d="M948.01,-324.45C986.63,-316.36 1037.71,-303.21 1052,-288 1077.47,-260.89 1071,-243.69 1071,-206.5 1071,-206.5 1071,-206.5 1071,-137.5 1071,-69.1 981.79,-33.7 931.49,-19.18"/>
<polygon fill="midnightblue" stroke="midnightblue" points="932.26,-15.77 921.69,-16.48 930.4,-22.51 932.26,-15.77"/>
</g>
<!-- Node8 -->
<g id="node8" class="node">
<title>Node8</title>
<g id="a_node8"><a xlink:title=" ">
<polygon fill="white" stroke="#bfbfbf" points="842.5,-263 842.5,-282 901.5,-282 901.5,-263 842.5,-263"/>
<text text-anchor="middle" x="872" y="-270" font-family="Helvetica,sans-Serif" font-size="10.00">raymath.h</text>
</a>
</g>
</g>
<!-- Node6&#45;&gt;Node8 -->
<g id="edge7" class="edge">
<title>Node6&#45;&gt;Node8</title>
<path fill="none" stroke="midnightblue" d="M897.7,-324.48C893.34,-315.82 886.44,-302.15 880.9,-291.15"/>
<polygon fill="midnightblue" stroke="midnightblue" points="883.92,-289.36 876.29,-282.01 877.67,-292.51 883.92,-289.36"/>
</g>
<!-- Node11 -->
<g id="node11" class="node">
<title>Node11</title>
<g id="a_node11"><a xlink:href="../../de/d15/_shoot_8h.html" target="_top" xlink:title=" ">
<polygon fill="white" stroke="black" points="919.5,-263 919.5,-282 1042.5,-282 1042.5,-263 919.5,-263"/>
<text text-anchor="middle" x="981" y="-270" font-family="Helvetica,sans-Serif" font-size="10.00">Shmup/Movable/Shoot.h</text>
</a>
</g>
</g>
<!-- Node10&#45;&gt;Node11 -->
<g id="edge10" class="edge">
<title>Node10&#45;&gt;Node11</title>
<path fill="none" stroke="midnightblue" d="M1036.69,-324.48C1026.55,-315.2 1010.14,-300.17 997.75,-288.83"/>
<polygon fill="midnightblue" stroke="midnightblue" points="1000.04,-286.18 990.3,-282.01 995.31,-291.34 1000.04,-286.18"/>
</g>
<!-- Node21 -->
<g id="node21" class="node">
<title>Node21</title>
<g id="a_node21"><a xlink:href="../../df/db3/_patern_v_spread_8h.html" target="_top" xlink:title=" ">
<polygon fill="white" stroke="black" points="1137.5,-123.5 1137.5,-153.5 1250.5,-153.5 1250.5,-123.5 1137.5,-123.5"/>
<text text-anchor="start" x="1145.5" y="-141.5" font-family="Helvetica,sans-Serif" font-size="10.00">Shmup/Paterns/Shoot</text>
<text text-anchor="middle" x="1194" y="-130.5" font-family="Helvetica,sans-Serif" font-size="10.00">/PaternVSpread.h</text>
</a>
</g>
</g>
<!-- Node10&#45;&gt;Node21 -->
<g id="edge30" class="edge">
<title>Node10&#45;&gt;Node21</title>
<path fill="none" stroke="midnightblue" d="M1053.99,-324.22C1062.03,-315.27 1074.68,-300.93 1085,-288 1119.71,-244.51 1157.59,-191.54 1178.3,-162.06"/>
<polygon fill="midnightblue" stroke="midnightblue" points="1181.28,-163.9 1184.15,-153.7 1175.55,-159.89 1181.28,-163.9"/>
</g>
<!-- Node22 -->
<g id="node22" class="node">
<title>Node22</title>
<g id="a_node22"><a xlink:href="../../d3/dff/_patern_linear_8h.html" target="_top" xlink:title=" ">
<polygon fill="white" stroke="black" points="1199.5,-257.5 1199.5,-287.5 1312.5,-287.5 1312.5,-257.5 1199.5,-257.5"/>
<text text-anchor="start" x="1207.5" y="-275.5" font-family="Helvetica,sans-Serif" font-size="10.00">Shmup/Paterns/Shoot</text>
<text text-anchor="middle" x="1256" y="-264.5" font-family="Helvetica,sans-Serif" font-size="10.00">/PaternLinear.h</text>
</a>
</g>
</g>
<!-- Node10&#45;&gt;Node22 -->
<g id="edge32" class="edge">
<title>Node10&#45;&gt;Node22</title>
<path fill="none" stroke="midnightblue" d="M1076.09,-324.48C1107.45,-315.59 1157.43,-301.43 1196.76,-290.29"/>
<polygon fill="midnightblue" stroke="midnightblue" points="1197.84,-293.62 1206.51,-287.52 1195.93,-286.88 1197.84,-293.62"/>
</g>
<!-- Node23 -->
<g id="node23" class="node">
<title>Node23</title>
<g id="a_node23"><a xlink:href="../../d2/dff/_patern_rotate_8h.html" target="_top" xlink:title=" ">
<polygon fill="white" stroke="black" points="1307.5,-190.5 1307.5,-220.5 1420.5,-220.5 1420.5,-190.5 1307.5,-190.5"/>
<text text-anchor="start" x="1315.5" y="-208.5" font-family="Helvetica,sans-Serif" font-size="10.00">Shmup/Paterns/Shoot</text>
<text text-anchor="middle" x="1364" y="-197.5" font-family="Helvetica,sans-Serif" font-size="10.00">/PaternRotate.h</text>
</a>
</g>
</g>
<!-- Node10&#45;&gt;Node23 -->
<g id="edge34" class="edge">
<title>Node10&#45;&gt;Node23</title>
<path fill="none" stroke="midnightblue" d="M1106.81,-324.5C1185.42,-313.3 1313.33,-294.3 1322,-288 1341.12,-274.11 1352.19,-248.91 1358.12,-230.19"/>
<polygon fill="midnightblue" stroke="midnightblue" points="1361.48,-231.16 1360.9,-220.58 1354.76,-229.21 1361.48,-231.16"/>
</g>
<!-- Node11&#45;&gt;Node7 -->
<g id="edge11" class="edge">
<title>Node11&#45;&gt;Node7</title>
<path fill="none" stroke="midnightblue" d="M983.19,-262.69C988.61,-239.54 1001.47,-175.19 991,-123 984.65,-91.36 983.31,-81.08 963,-56 952.58,-43.12 937.53,-32.39 924.54,-24.63"/>
<polygon fill="midnightblue" stroke="midnightblue" points="925.97,-21.42 915.54,-19.53 922.51,-27.5 925.97,-21.42"/>
</g>
<!-- Node12 -->
<g id="node12" class="node">
<title>Node12</title>
<g id="a_node12"><a xlink:href="../../db/d1b/_a_movable_8h.html" target="_top" xlink:title=" ">
<polygon fill="white" stroke="black" points="871.5,-196 871.5,-215 972.5,-215 972.5,-196 871.5,-196"/>
<text text-anchor="middle" x="922" y="-203" font-family="Helvetica,sans-Serif" font-size="10.00">Shmup/AMovable.h</text>
</a>
</g>
</g>
<!-- Node11&#45;&gt;Node12 -->
<g id="edge12" class="edge">
<title>Node11&#45;&gt;Node12</title>
<path fill="none" stroke="midnightblue" d="M973.04,-262.73C963.75,-252.5 948.2,-235.36 936.7,-222.69"/>
<polygon fill="midnightblue" stroke="midnightblue" points="939.14,-220.18 929.83,-215.13 933.96,-224.88 939.14,-220.18"/>
</g>
<!-- Node17 -->
<g id="node17" class="node">
<title>Node17</title>
<g id="a_node17"><a xlink:href="../../df/d50/_a_patern_8h.html" target="_top" xlink:title=" ">
<polygon fill="white" stroke="black" points="1129,-62 1129,-81 1259,-81 1259,-62 1129,-62"/>
<text text-anchor="middle" x="1194" y="-69" font-family="Helvetica,sans-Serif" font-size="10.00">Shmup/Paterns/APatern.h</text>
</a>
</g>
</g>
<!-- Node11&#45;&gt;Node17 -->
<g id="edge21" class="edge">
<title>Node11&#45;&gt;Node17</title>
<path fill="none" stroke="midnightblue" d="M993.82,-262.96C1007.63,-253.49 1029.91,-237.36 1047,-221 1088.02,-181.73 1088.12,-162.42 1129,-123 1142.71,-109.78 1159.75,-96.64 1172.95,-87.08"/>
<polygon fill="midnightblue" stroke="midnightblue" points="1175.27,-89.73 1181.39,-81.08 1171.21,-84.02 1175.27,-89.73"/>
</g>
<!-- Node18 -->
<g id="node18" class="node">
<title>Node18</title>
<g id="a_node18"><a xlink:href="../../d5/d36/_collider_8h.html" target="_top" xlink:title=" ">
<polygon fill="white" stroke="black" points="569,-129 569,-148 699,-148 699,-129 569,-129"/>
<text text-anchor="middle" x="634" y="-136" font-family="Helvetica,sans-Serif" font-size="10.00">Shmup/Collision/Collider.h</text>
</a>
</g>
</g>
<!-- Node11&#45;&gt;Node18 -->
<g id="edge22" class="edge">
<title>Node11&#45;&gt;Node18</title>
<path fill="none" stroke="midnightblue" d="M958.5,-262.94C898.67,-240.18 735.47,-178.1 666,-151.67"/>
<polygon fill="midnightblue" stroke="midnightblue" points="667.04,-148.32 656.45,-148.04 664.55,-154.87 667.04,-148.32"/>
</g>
<!-- Node20 -->
<g id="node20" class="node">
<title>Node20</title>
<g id="a_node20"><a xlink:href="../../d3/d72/_a_collidable_8h.html" target="_top" xlink:title=" ">
<polygon fill="white" stroke="black" points="561,-196 561,-215 707,-215 707,-196 561,-196"/>
<text text-anchor="middle" x="634" y="-203" font-family="Helvetica,sans-Serif" font-size="10.00">Shmup/Collision/ACollidable.h</text>
</a>
</g>
</g>
<!-- Node11&#45;&gt;Node20 -->
<g id="edge27" class="edge">
<title>Node11&#45;&gt;Node20</title>
<path fill="none" stroke="midnightblue" d="M940.69,-262.98C930.97,-260.97 920.62,-258.87 911,-257 836.02,-242.4 749.36,-226.81 693.22,-216.87"/>
<polygon fill="midnightblue" stroke="midnightblue" points="693.56,-213.38 683.1,-215.09 692.34,-220.27 693.56,-213.38"/>
</g>
<!-- Node12&#45;&gt;Node7 -->
<g id="edge13" class="edge">
<title>Node12&#45;&gt;Node7</title>
<path fill="none" stroke="midnightblue" d="M936.38,-195.98C949.48,-187.29 967.98,-172.49 976,-154 981.48,-141.36 980.13,-136.15 976,-123 963.84,-84.25 933,-47.19 913.94,-26.92"/>
<polygon fill="midnightblue" stroke="midnightblue" points="916.28,-24.3 906.82,-19.54 911.25,-29.16 916.28,-24.3"/>
</g>
<!-- Node12&#45;&gt;Node13 -->
<g id="edge14" class="edge">
<title>Node12&#45;&gt;Node13</title>
<path fill="none" stroke="midnightblue" d="M901.02,-195.87C873.75,-184.65 825.93,-164.98 794.61,-152.09"/>
<polygon fill="midnightblue" stroke="midnightblue" points="795.65,-148.74 785.07,-148.17 792.98,-155.21 795.65,-148.74"/>
</g>
<!-- Node13&#45;&gt;Node7 -->
<g id="edge15" class="edge">
<title>Node13&#45;&gt;Node7</title>
<path fill="none" stroke="midnightblue" d="M776.72,-128.85C790.44,-119.28 812.64,-103.08 830,-87 850.39,-68.12 871.33,-43.83 884.49,-27.85"/>
<polygon fill="midnightblue" stroke="midnightblue" points="887.35,-29.89 890.95,-19.92 881.92,-25.47 887.35,-29.89"/>
</g>
<!-- Node14 -->
<g id="node14" class="node">
<title>Node14</title>
<g id="a_node14"><a xlink:href="../../dc/d80/_instance_list_8h.html" target="_top" xlink:title=" ">
<polygon fill="white" stroke="black" points="325,-62 325,-81 437,-81 437,-62 325,-62"/>
<text text-anchor="middle" x="381" y="-69" font-family="Helvetica,sans-Serif" font-size="10.00">Shmup/InstanceList.h</text>
</a>
</g>
</g>
<!-- Node13&#45;&gt;Node14 -->
<g id="edge16" class="edge">
<title>Node13&#45;&gt;Node14</title>
<path fill="none" stroke="midnightblue" d="M733.32,-128.97C725.13,-126.85 716.26,-124.7 708,-123 659.51,-113 528.06,-93.57 447.36,-81.95"/>
<polygon fill="midnightblue" stroke="midnightblue" points="447.69,-78.46 437.29,-80.5 446.69,-85.39 447.69,-78.46"/>
</g>
<!-- Node16 -->
<g id="node16" class="node">
<title>Node16</title>
<g id="a_node16"><a xlink:href="../../da/d02/_transform2_d_8h.html" target="_top" xlink:title=" ">
<polygon fill="white" stroke="black" points="707,-62 707,-81 821,-81 821,-62 707,-62"/>
<text text-anchor="middle" x="764" y="-69" font-family="Helvetica,sans-Serif" font-size="10.00">Shmup/Transform2D.h</text>
</a>
</g>
</g>
<!-- Node13&#45;&gt;Node16 -->
<g id="edge19" class="edge">
<title>Node13&#45;&gt;Node16</title>
<path fill="none" stroke="midnightblue" d="M764,-128.73C764,-119.18 764,-103.62 764,-91.28"/>
<polygon fill="midnightblue" stroke="midnightblue" points="767.5,-91.13 764,-81.13 760.5,-91.13 767.5,-91.13"/>
</g>
<!-- Node14&#45;&gt;Node2 -->
<g id="edge17" class="edge">
<title>Node14&#45;&gt;Node2</title>
<path fill="none" stroke="midnightblue" d="M352.63,-61.98C317.69,-51.47 258.24,-33.61 219.81,-22.06"/>
<polygon fill="midnightblue" stroke="midnightblue" points="220.63,-18.65 210.04,-19.13 218.61,-25.36 220.63,-18.65"/>
</g>
<!-- Node15 -->
<g id="node15" class="node">
<title>Node15</title>
<g id="a_node15"><a xlink:title=" ">
<polygon fill="white" stroke="#bfbfbf" points="359,-0.5 359,-19.5 403,-19.5 403,-0.5 359,-0.5"/>
<text text-anchor="middle" x="381" y="-7.5" font-family="Helvetica,sans-Serif" font-size="10.00">vector</text>
</a>
</g>
</g>
<!-- Node14&#45;&gt;Node15 -->
<g id="edge18" class="edge">
<title>Node14&#45;&gt;Node15</title>
<path fill="none" stroke="midnightblue" d="M381,-61.98C381,-53.58 381,-40.48 381,-29.66"/>
<polygon fill="midnightblue" stroke="midnightblue" points="384.5,-29.51 381,-19.51 377.5,-29.51 384.5,-29.51"/>
</g>
<!-- Node16&#45;&gt;Node7 -->
<g id="edge20" class="edge">
<title>Node16&#45;&gt;Node7</title>
<path fill="none" stroke="midnightblue" d="M783.2,-61.98C805.79,-51.95 843.5,-35.2 869.5,-23.65"/>
<polygon fill="midnightblue" stroke="midnightblue" points="871.12,-26.77 878.84,-19.51 868.28,-20.37 871.12,-26.77"/>
</g>
<!-- Node18&#45;&gt;Node7 -->
<g id="edge23" class="edge">
<title>Node18&#45;&gt;Node7</title>
<path fill="none" stroke="midnightblue" d="M638.25,-128.75C646.95,-111.83 668.49,-74.63 698,-56 749.74,-23.33 822.19,-14.25 864.2,-11.8"/>
<polygon fill="midnightblue" stroke="midnightblue" points="864.37,-15.3 874.19,-11.31 864.03,-8.31 864.37,-15.3"/>
</g>
<!-- Node18&#45;&gt;Node16 -->
<g id="edge24" class="edge">
<title>Node18&#45;&gt;Node16</title>
<path fill="none" stroke="midnightblue" d="M651.26,-128.87C673.31,-117.84 711.69,-98.66 737.46,-85.77"/>
<polygon fill="midnightblue" stroke="midnightblue" points="739.29,-88.77 746.67,-81.17 736.16,-82.51 739.29,-88.77"/>
</g>
<!-- Node19 -->
<g id="node19" class="node">
<title>Node19</title>
<g id="a_node19"><a xlink:href="../../de/d60/_collider_settings_8h.html" target="_top" xlink:title=" ">
<polygon fill="white" stroke="black" points="493,-56.5 493,-86.5 615,-86.5 615,-56.5 493,-56.5"/>
<text text-anchor="start" x="501" y="-74.5" font-family="Helvetica,sans-Serif" font-size="10.00">Shmup/Collision/Collider</text>
<text text-anchor="middle" x="554" y="-63.5" font-family="Helvetica,sans-Serif" font-size="10.00">Settings.h</text>
</a>
</g>
</g>
<!-- Node18&#45;&gt;Node19 -->
<g id="edge25" class="edge">
<title>Node18&#45;&gt;Node19</title>
<path fill="none" stroke="midnightblue" d="M623.21,-128.73C611.98,-119.61 594,-105 579.19,-92.96"/>
<polygon fill="midnightblue" stroke="midnightblue" points="581.31,-90.18 571.34,-86.59 576.89,-95.61 581.31,-90.18"/>
</g>
<!-- Node19&#45;&gt;Node15 -->
<g id="edge26" class="edge">
<title>Node19&#45;&gt;Node15</title>
<path fill="none" stroke="midnightblue" d="M513,-56.4C482.39,-45.87 441.15,-31.69 412.96,-21.99"/>
<polygon fill="midnightblue" stroke="midnightblue" points="413.8,-18.58 403.21,-18.64 411.53,-25.2 413.8,-18.58"/>
</g>
<!-- Node20&#45;&gt;Node14 -->
<g id="edge29" class="edge">
<title>Node20&#45;&gt;Node14</title>
<path fill="none" stroke="midnightblue" d="M617.4,-195.84C574.23,-173.32 458.22,-112.79 406.49,-85.8"/>
<polygon fill="midnightblue" stroke="midnightblue" points="407.82,-82.54 397.33,-81.02 404.58,-88.75 407.82,-82.54"/>
</g>
<!-- Node20&#45;&gt;Node18 -->
<g id="edge28" class="edge">
<title>Node20&#45;&gt;Node18</title>
<path fill="none" stroke="midnightblue" d="M634,-195.73C634,-186.18 634,-170.62 634,-158.28"/>
<polygon fill="midnightblue" stroke="midnightblue" points="637.5,-158.13 634,-148.13 630.5,-158.13 637.5,-158.13"/>
</g>
<!-- Node21&#45;&gt;Node17 -->
<g id="edge31" class="edge">
<title>Node21&#45;&gt;Node17</title>
<path fill="none" stroke="midnightblue" d="M1194,-123.4C1194,-114.06 1194,-101.71 1194,-91.52"/>
<polygon fill="midnightblue" stroke="midnightblue" points="1197.5,-91.19 1194,-81.19 1190.5,-91.19 1197.5,-91.19"/>
</g>
<!-- Node22&#45;&gt;Node17 -->
<g id="edge33" class="edge">
<title>Node22&#45;&gt;Node17</title>
<path fill="none" stroke="midnightblue" d="M1260.49,-257.48C1268.44,-230.01 1282.16,-167.86 1260,-123 1252.08,-106.98 1236.38,-94.64 1222.27,-86.17"/>
<polygon fill="midnightblue" stroke="midnightblue" points="1223.77,-82.99 1213.33,-81.16 1220.35,-89.1 1223.77,-82.99"/>
</g>
<!-- Node23&#45;&gt;Node17 -->
<g id="edge35" class="edge">
<title>Node23&#45;&gt;Node17</title>
<path fill="none" stroke="midnightblue" d="M1354.3,-190.35C1341.75,-172.83 1318.44,-142.86 1293,-123 1272.61,-107.08 1246.43,-93.99 1226.11,-85.12"/>
<polygon fill="midnightblue" stroke="midnightblue" points="1227.23,-81.8 1216.66,-81.12 1224.5,-88.24 1227.23,-81.8"/>
</g>
<!-- Node24&#45;&gt;Node2 -->
<g id="edge38" class="edge">
<title>Node24&#45;&gt;Node2</title>
<path fill="none" stroke="midnightblue" d="M570.39,-266.01C510.13,-259.55 417.72,-246.31 341,-221 325.29,-215.82 217.86,-167.29 208,-154 180.41,-116.84 179.54,-59.42 181.25,-29.92"/>
<polygon fill="midnightblue" stroke="midnightblue" points="184.75,-29.99 182.01,-19.76 177.77,-29.47 184.75,-29.99"/>
</g>
<!-- Node24&#45;&gt;Node12 -->
<g id="edge40" class="edge">
<title>Node24&#45;&gt;Node12</title>
<path fill="none" stroke="midnightblue" d="M671.95,-262.94C723.96,-251.2 817.41,-230.11 874.16,-217.3"/>
<polygon fill="midnightblue" stroke="midnightblue" points="874.98,-220.7 883.97,-215.08 873.44,-213.87 874.98,-220.7"/>
</g>
<!-- Node24&#45;&gt;Node18 -->
<g id="edge48" class="edge">
<title>Node24&#45;&gt;Node18</title>
<path fill="none" stroke="midnightblue" d="M661.01,-262.87C680.12,-255.18 704.34,-241.87 716,-221 722.72,-208.97 722.72,-202.03 716,-190 706.16,-172.39 687.38,-160.16 670.28,-152.15"/>
<polygon fill="midnightblue" stroke="midnightblue" points="671.58,-148.9 661.01,-148.13 668.79,-155.32 671.58,-148.9"/>
</g>
<!-- Node24&#45;&gt;Node20 -->
<g id="edge49" class="edge">
<title>Node24&#45;&gt;Node20</title>
<path fill="none" stroke="midnightblue" d="M634,-262.73C634,-253.18 634,-237.62 634,-225.28"/>
<polygon fill="midnightblue" stroke="midnightblue" points="637.5,-225.13 634,-215.13 630.5,-225.13 637.5,-225.13"/>
</g>
<!-- Node25 -->
<g id="node25" class="node">
<title>Node25</title>
<g id="a_node25"><a xlink:title=" ">
<polygon fill="white" stroke="#bfbfbf" points="491,-196 491,-215 543,-215 543,-196 491,-196"/>
<text text-anchor="middle" x="517" y="-203" font-family="Helvetica,sans-Serif" font-size="10.00">sstream</text>
</a>
</g>
</g>
<!-- Node24&#45;&gt;Node25 -->
<g id="edge39" class="edge">
<title>Node24&#45;&gt;Node25</title>
<path fill="none" stroke="midnightblue" d="M618.22,-262.73C598.49,-251.77 564.49,-232.88 541.39,-220.05"/>
<polygon fill="midnightblue" stroke="midnightblue" points="542.97,-216.92 532.53,-215.13 539.57,-223.04 542.97,-216.92"/>
</g>
<!-- Node26 -->
<g id="node26" class="node">
<title>Node26</title>
<g id="a_node26"><a xlink:href="../../d1/d98/_sequence_move_patern_8h.html" target="_top" xlink:title=" ">
<polygon fill="white" stroke="black" points="349.5,-190.5 349.5,-220.5 472.5,-220.5 472.5,-190.5 349.5,-190.5"/>
<text text-anchor="start" x="357.5" y="-208.5" font-family="Helvetica,sans-Serif" font-size="10.00">Shmup/Paterns/Enemy</text>
<text text-anchor="middle" x="411" y="-197.5" font-family="Helvetica,sans-Serif" font-size="10.00">/SequenceMovePatern.h</text>
</a>
</g>
</g>
<!-- Node24&#45;&gt;Node26 -->
<g id="edge41" class="edge">
<title>Node24&#45;&gt;Node26</title>
<path fill="none" stroke="midnightblue" d="M604.39,-262.87C569.98,-252.84 512.4,-236.06 468.99,-223.4"/>
<polygon fill="midnightblue" stroke="midnightblue" points="469.71,-219.97 459.13,-220.53 467.75,-226.69 469.71,-219.97"/>
</g>
<!-- Node26&#45;&gt;Node2 -->
<g id="edge45" class="edge">
<title>Node26&#45;&gt;Node2</title>
<path fill="none" stroke="midnightblue" d="M414.8,-190.35C418.61,-172.82 422.1,-142.86 408,-123 382.58,-87.2 355.61,-105.94 316,-87 275.83,-67.79 231.31,-41.2 205.32,-25.1"/>
<polygon fill="midnightblue" stroke="midnightblue" points="206.96,-21.99 196.62,-19.67 203.25,-27.93 206.96,-21.99"/>
</g>
<!-- Node26&#45;&gt;Node15 -->
<g id="edge47" class="edge">
<title>Node26&#45;&gt;Node15</title>
<path fill="none" stroke="midnightblue" d="M421.85,-190.33C428.63,-180.65 436.83,-167.23 441,-154 454.11,-112.4 466.24,-94.63 446,-56 438.72,-42.11 424.99,-31.65 412.02,-24.33"/>
<polygon fill="midnightblue" stroke="midnightblue" points="413.3,-21.05 402.81,-19.55 410.07,-27.27 413.3,-21.05"/>
</g>
<!-- Node27 -->
<g id="node27" class="node">
<title>Node27</title>
<g id="a_node27"><a xlink:href="../../dc/d8f/_a_offsetable_patern_8h.html" target="_top" xlink:title=" ">
<polygon fill="white" stroke="black" points="829,-123.5 829,-153.5 967,-153.5 967,-123.5 829,-123.5"/>
<text text-anchor="start" x="837" y="-141.5" font-family="Helvetica,sans-Serif" font-size="10.00">Shmup/Paterns/AOffsetable</text>
<text text-anchor="middle" x="898" y="-130.5" font-family="Helvetica,sans-Serif" font-size="10.00">Patern.h</text>
</a>
</g>
</g>
<!-- Node26&#45;&gt;Node27 -->
<g id="edge42" class="edge">
<title>Node26&#45;&gt;Node27</title>
<path fill="none" stroke="midnightblue" d="M472.51,-191.56C475.71,-191.01 478.89,-190.48 482,-190 628.08,-167.36 668.78,-175.45 818.69,-154.12"/>
<polygon fill="midnightblue" stroke="midnightblue" points="819.33,-157.56 828.72,-152.67 818.33,-150.63 819.33,-157.56"/>
</g>
<!-- Node28 -->
<g id="node28" class="node">
<title>Node28</title>
<g id="a_node28"><a xlink:title=" ">
<polygon fill="white" stroke="#bfbfbf" points="357.5,-129 357.5,-148 398.5,-148 398.5,-129 357.5,-129"/>
<text text-anchor="middle" x="378" y="-136" font-family="Helvetica,sans-Serif" font-size="10.00">string</text>
</a>
</g>
</g>
<!-- Node26&#45;&gt;Node28 -->
<g id="edge46" class="edge">
<title>Node26&#45;&gt;Node28</title>
<path fill="none" stroke="midnightblue" d="M403.84,-190.4C398.9,-180.66 392.29,-167.65 386.99,-157.21"/>
<polygon fill="midnightblue" stroke="midnightblue" points="390.06,-155.53 382.41,-148.19 383.82,-158.7 390.06,-155.53"/>
</g>
<!-- Node27&#45;&gt;Node7 -->
<g id="edge43" class="edge">
<title>Node27&#45;&gt;Node7</title>
<path fill="none" stroke="midnightblue" d="M898,-123.48C898,-100.72 898,-55.7 898,-30.06"/>
<polygon fill="midnightblue" stroke="midnightblue" points="901.5,-29.79 898,-19.79 894.5,-29.79 901.5,-29.79"/>
</g>
<!-- Node27&#45;&gt;Node17 -->
<g id="edge44" class="edge">
<title>Node27&#45;&gt;Node17</title>
<path fill="none" stroke="midnightblue" d="M961.86,-123.48C1016.88,-111.4 1095.12,-94.21 1145.22,-83.21"/>
<polygon fill="midnightblue" stroke="midnightblue" points="1146.15,-86.59 1155.16,-81.03 1144.64,-79.76 1146.15,-86.59"/>
</g>
<!-- Node29&#45;&gt;Node14 -->
<g id="edge51" class="edge">
<title>Node29&#45;&gt;Node14</title>
<path fill="none" stroke="midnightblue" d="M291.89,-128.73C309.03,-117.92 338.4,-99.38 358.71,-86.57"/>
<polygon fill="midnightblue" stroke="midnightblue" points="360.74,-89.42 367.33,-81.13 357,-83.5 360.74,-89.42"/>
</g>
<!-- Node30&#45;&gt;Node15 -->
<g id="edge53" class="edge">
<title>Node30&#45;&gt;Node15</title>
<path fill="none" stroke="midnightblue" d="M257.75,-257.36C240.04,-249.57 221.65,-237.94 211,-221 187.81,-184.11 185.88,-160.54 208,-123 224.77,-94.55 245.11,-104.69 273,-87 292.9,-74.38 296.76,-69.59 316,-56 330.61,-45.68 347.2,-34.2 359.96,-25.42"/>
<polygon fill="midnightblue" stroke="midnightblue" points="362.23,-28.1 368.49,-19.56 358.27,-22.33 362.23,-28.1"/>
</g>
<!-- Node30&#45;&gt;Node19 -->
<g id="edge55" class="edge">
<title>Node30&#45;&gt;Node19</title>
<path fill="none" stroke="midnightblue" d="M308.25,-257.24C312.89,-239.6 322.93,-209.52 341,-190 363.96,-165.19 378.35,-170.24 408,-154 446.48,-132.92 490.42,-108.33 519.95,-91.71"/>
<polygon fill="midnightblue" stroke="midnightblue" points="522.01,-94.57 529.01,-86.61 518.58,-88.47 522.01,-94.57"/>
</g>
<!-- Node30&#45;&gt;Node20 -->
<g id="edge56" class="edge">
<title>Node30&#45;&gt;Node20</title>
<path fill="none" stroke="midnightblue" d="M368.82,-258.89C430.52,-246.7 522.92,-228.45 580.77,-217.02"/>
<polygon fill="midnightblue" stroke="midnightblue" points="581.67,-220.41 590.8,-215.03 580.31,-213.54 581.67,-220.41"/>
</g>
<!-- Node31 -->
<g id="node31" class="node">
<title>Node31</title>
<g id="a_node31"><a xlink:title=" ">
<polygon fill="white" stroke="#bfbfbf" points="219.5,-196 219.5,-215 254.5,-215 254.5,-196 219.5,-196"/>
<text text-anchor="middle" x="237" y="-203" font-family="Helvetica,sans-Serif" font-size="10.00">map</text>
</a>
</g>
</g>
<!-- Node30&#45;&gt;Node31 -->
<g id="edge54" class="edge">
<title>Node30&#45;&gt;Node31</title>
<path fill="none" stroke="midnightblue" d="M290.25,-257.4C279.43,-247.06 264.75,-233.02 253.54,-222.31"/>
<polygon fill="midnightblue" stroke="midnightblue" points="255.74,-219.57 246.1,-215.19 250.91,-224.63 255.74,-219.57"/>
</g>
<!-- Node32&#45;&gt;Node2 -->
<g id="edge58" class="edge">
<title>Node32&#45;&gt;Node2</title>
<path fill="none" stroke="midnightblue" d="M145.91,-262.98C130.58,-254.66 109.59,-240.42 100,-221 80.71,-181.95 85.23,-164.32 99,-123 112.16,-83.51 145.31,-46.73 165.81,-26.71"/>
<polygon fill="midnightblue" stroke="midnightblue" points="168.39,-29.08 173.23,-19.65 163.57,-24.01 168.39,-29.08"/>
</g>
<!-- Node32&#45;&gt;Node15 -->
<g id="edge60" class="edge">
<title>Node32&#45;&gt;Node15</title>
<path fill="none" stroke="midnightblue" d="M163.48,-262.74C162.47,-238.62 162.36,-169.9 190,-123 224.94,-63.7 304.44,-32.56 349.08,-19.2"/>
<polygon fill="midnightblue" stroke="midnightblue" points="350.19,-22.52 358.83,-16.4 348.26,-15.8 350.19,-22.52"/>
</g>
<!-- Node32&#45;&gt;Node26 -->
<g id="edge61" class="edge">
<title>Node32&#45;&gt;Node26</title>
<path fill="none" stroke="midnightblue" d="M196.54,-262.94C234.9,-252.84 299.53,-235.83 347.84,-223.12"/>
<polygon fill="midnightblue" stroke="midnightblue" points="348.8,-226.49 357.58,-220.56 347.01,-219.72 348.8,-226.49"/>
</g>
<!-- Node32&#45;&gt;Node28 -->
<g id="edge59" class="edge">
<title>Node32&#45;&gt;Node28</title>
<path fill="none" stroke="midnightblue" d="M166.5,-262.86C171.81,-246.12 185.82,-209.24 211,-190 261.03,-151.78 288.94,-175.8 348,-154 349.42,-153.47 350.87,-152.9 352.32,-152.3"/>
<polygon fill="midnightblue" stroke="midnightblue" points="354.06,-155.36 361.74,-148.06 351.19,-148.98 354.06,-155.36"/>
</g>
</g>
</svg>
        <g id="navigator" transform="translate(0 0)" fill="#404254">
                <rect fill="#f2f5e9" fill-opacity="0.5" stroke="#606060" stroke-width=".5" x="0" y="0" width="60" height="60"/>
                <use id="zoomplus" xlink:href="#zoomPlus" x="17" y="9" onmousedown="handleZoom(evt,'in')"/>
                <use id="zoomminus" xlink:href="#zoomMin" x="42" y="9" onmousedown="handleZoom(evt,'out')"/>
                <use id="reset" xlink:href="#resetDef" x="30" y="36" onmousedown="handleReset()"/>
                <g id="arrowUp" xlink:href="#dirArrow" transform="translate(30 24)" onmousedown="handlePan(0,-1)">
                  <use xlink:href="#rim" fill="#404040">
                        <set attributeName="fill" to="#808080" begin="arrowUp.mouseover" end="arrowUp.mouseout"/>
                  </use>
                  <path fill="none" stroke="white" stroke-width="1.5" d="M0,-3.0v7 M-2.5,-0.5L0,-3.0L2.5,-0.5"/>
                </g>
                <g id="arrowRight" xlink:href="#dirArrow" transform="rotate(90) translate(36 -43)" onmousedown="handlePan(1,0)">
                  <use xlink:href="#rim" fill="#404040">
                        <set attributeName="fill" to="#808080" begin="arrowRight.mouseover" end="arrowRight.mouseout"/>
                  </use>
                  <path fill="none" stroke="white" stroke-width="1.5" d="M0,-3.0v7 M-2.5,-0.5L0,-3.0L2.5,-0.5"/>
                </g>
                <g id="arrowDown" xlink:href="#dirArrow" transform="rotate(180) translate(-30 -48)" onmousedown="handlePan(0,1)">
                  <use xlink:href="#rim" fill="#404040">
                        <set attributeName="fill" to="#808080" begin="arrowDown.mouseover" end="arrowDown.mouseout"/>
                  </use>
                  <path fill="none" stroke="white" stroke-width="1.5" d="M0,-3.0v7 M-2.5,-0.5L0,-3.0L2.5,-0.5"/>
                </g>
                <g id="arrowLeft" xlink:href="#dirArrow" transform="rotate(270) translate(-36 17)" onmousedown="handlePan(-1,0)">
                  <use xlink:href="#rim" fill="#404040">
                        <set attributeName="fill" to="#808080" begin="arrowLeft.mouseover" end="arrowLeft.mouseout"/>
                  </use>
                  <path fill="none" stroke="white" stroke-width="1.5" d="M0,-3.0v7 M-2.5,-0.5L0,-3.0L2.5,-0.5"/>
                </g>
        </g>
        <svg viewBox="0 0 15 15" width="100%" height="30px" preserveAspectRatio="xMaxYMin meet">
         <g id="arrow_out" transform="scale(0.3 0.3)">
          <a xlink:href="_game_manager_8cpp__incl_org.svg" target="_base">
           <rect id="button" ry="5" rx="5" y="6" x="6" height="38" width="38"
                fill="#f2f5e9" fill-opacity="0.5" stroke="#606060" stroke-width="1.0"/>
           <path id="arrow"
             d="M 11.500037,31.436501 C 11.940474,20.09759 22.043105,11.32322 32.158766,21.979434 L 37.068811,17.246167 C 37.068811,17.246167 37.088388,32 37.088388,32 L 22.160133,31.978069 C 22.160133,31.978069 26.997745,27.140456 26.997745,27.140456 C 18.528582,18.264221 13.291696,25.230495 11.500037,31.436501 z"
             style="fill:#404040;"/>
          </a>
         </g>
        </svg>
</svg>
