<?xml version="1.0" encoding="UTF-8" standalone="no"?>
<!DOCTYPE svg PUBLIC "-//W3C//DTD SVG 1.1//EN"
 "http://www.w3.org/Graphics/SVG/1.1/DTD/svg11.dtd">
<!-- Generated by graphviz version 2.49.3 (20211027.1534)
 -->
<!-- Title: RayLib_SHMUP/src/Shmup/GameManager.cpp Pages: 1 -->
<svg width="1332pt" height="419pt"
 viewBox="0.00 0.00 1332.00 419.00" xmlns="http://www.w3.org/2000/svg" xmlns:xlink="http://www.w3.org/1999/xlink">
<g id="graph0" class="graph" transform="scale(1 1) rotate(0) translate(4 415)">
<title>RayLib_SHMUP/src/Shmup/GameManager.cpp</title>
<polygon fill="white" stroke="transparent" points="-4,4 -4,-415 1328,-415 1328,4 -4,4"/>
<!-- Node1 -->
<g id="node1" class="node">
<title>Node1</title>
<g id="a_node1"><a xlink:title=" ">
<polygon fill="#bfbfbf" stroke="black" points="661.5,-380.5 661.5,-410.5 800.5,-410.5 800.5,-380.5 661.5,-380.5"/>
<text text-anchor="start" x="669.5" y="-398.5" font-family="Helvetica,sans-Serif" font-size="10.00">RayLib_SHMUP/src/Shmup</text>
<text text-anchor="middle" x="731" y="-387.5" font-family="Helvetica,sans-Serif" font-size="10.00">/GameManager.cpp</text>
</a>
</g>
</g>
<!-- Node2 -->
<g id="node2" class="node">
<title>Node2</title>
<g id="a_node2"><a xlink:title=" ">
<polygon fill="white" stroke="#bfbfbf" points="30,-0.5 30,-19.5 84,-19.5 84,-0.5 30,-0.5"/>
<text text-anchor="middle" x="57" y="-7.5" font-family="Helvetica,sans-Serif" font-size="10.00">iostream</text>
</a>
</g>
</g>
<!-- Node1&#45;&gt;Node2 -->
<g id="edge1" class="edge">
<title>Node1&#45;&gt;Node2</title>
<path fill="none" stroke="midnightblue" d="M661.15,-393.37C558.49,-390.48 361.34,-380.23 198,-344 106.8,-323.77 0,-366.91 0,-273.5 0,-273.5 0,-273.5 0,-137.5 0,-94.97 27.11,-50.93 43.94,-27.7"/>
<polygon fill="midnightblue" stroke="midnightblue" points="46.82,-29.7 50.01,-19.6 41.21,-25.5 46.82,-29.7"/>
</g>
<!-- Node3 -->
<g id="node3" class="node">
<title>Node3</title>
<g id="a_node3"><a xlink:title=" ">
<polygon fill="white" stroke="#bfbfbf" points="857,-324.5 857,-343.5 887,-343.5 887,-324.5 857,-324.5"/>
<text text-anchor="middle" x="872" y="-331.5" font-family="Helvetica,sans-Serif" font-size="10.00">set</text>
</a>
</g>
</g>
<!-- Node1&#45;&gt;Node3 -->
<g id="edge2" class="edge">
<title>Node1&#45;&gt;Node3</title>
<path fill="none" stroke="midnightblue" d="M764.42,-380.4C789.95,-369.62 824.57,-355.02 847.56,-345.31"/>
<polygon fill="midnightblue" stroke="midnightblue" points="849.08,-348.47 856.94,-341.36 846.36,-342.02 849.08,-348.47"/>
</g>
<!-- Node4 -->
<g id="node4" class="node">
<title>Node4</title>
<g id="a_node4"><a xlink:href="../../d0/d80/_random_8h.html" target="_top" xlink:title=" ">
<polygon fill="white" stroke="black" points="904.5,-324.5 904.5,-343.5 1025.5,-343.5 1025.5,-324.5 904.5,-324.5"/>
<text text-anchor="middle" x="965" y="-331.5" font-family="Helvetica,sans-Serif" font-size="10.00">Namespaces/Random.h</text>
</a>
</g>
</g>
<!-- Node1&#45;&gt;Node4 -->
<g id="edge3" class="edge">
<title>Node1&#45;&gt;Node4</title>
<path fill="none" stroke="midnightblue" d="M786.16,-380.47C827.59,-369.94 883.53,-355.72 921.75,-346"/>
<polygon fill="midnightblue" stroke="midnightblue" points="922.72,-349.36 931.55,-343.51 920.99,-342.58 922.72,-349.36"/>
</g>
<!-- Node5 -->
<g id="node5" class="node">
<title>Node5</title>
<g id="a_node5"><a xlink:href="../../d5/daf/_game_status_8h.html" target="_top" xlink:title=" ">
<polygon fill="white" stroke="black" points="1044,-324.5 1044,-343.5 1184,-343.5 1184,-324.5 1044,-324.5"/>
<text text-anchor="middle" x="1114" y="-331.5" font-family="Helvetica,sans-Serif" font-size="10.00">Namespaces/GameStatus.h</text>
</a>
</g>
</g>
<!-- Node1&#45;&gt;Node5 -->
<g id="edge4" class="edge">
<title>Node1&#45;&gt;Node5</title>
<path fill="none" stroke="midnightblue" d="M800.8,-383.66C871.5,-372.67 979.99,-355.82 1048.94,-345.11"/>
<polygon fill="midnightblue" stroke="midnightblue" points="1049.89,-348.5 1059.24,-343.51 1048.82,-341.58 1049.89,-348.5"/>
</g>
<!-- Node6 -->
<g id="node6" class="node">
<title>Node6</title>
<g id="a_node6"><a xlink:href="../../d2/d94/_controller_8h.html" target="_top" xlink:title=" ">
<polygon fill="white" stroke="black" points="539,-129 539,-148 665,-148 665,-129 539,-129"/>
<text text-anchor="middle" x="602" y="-136" font-family="Helvetica,sans-Serif" font-size="10.00">Namespaces/Controller.h</text>
</a>
</g>
</g>
<!-- Node1&#45;&gt;Node6 -->
<g id="edge5" class="edge">
<title>Node1&#45;&gt;Node6</title>
<path fill="none" stroke="midnightblue" d="M722.94,-380.27C717.58,-370.35 710.68,-356.66 706,-344 681.53,-277.77 705.64,-249.09 667,-190 656.99,-174.7 640.75,-162.07 627,-153.27"/>
<polygon fill="midnightblue" stroke="midnightblue" points="628.78,-150.26 618.42,-148.06 625.15,-156.24 628.78,-150.26"/>
</g>
<!-- Node9 -->
<g id="node9" class="node">
<title>Node9</title>
<g id="a_node9"><a xlink:href="../../d0/d96/_game_manager_8h.html" target="_top" xlink:title=" ">
<polygon fill="white" stroke="black" points="1202,-324.5 1202,-343.5 1324,-343.5 1324,-324.5 1202,-324.5"/>
<text text-anchor="middle" x="1263" y="-331.5" font-family="Helvetica,sans-Serif" font-size="10.00">Shmup/GameManager.h</text>
</a>
</g>
</g>
<!-- Node1&#45;&gt;Node9 -->
<g id="edge8" class="edge">
<title>Node1&#45;&gt;Node9</title>
<path fill="none" stroke="midnightblue" d="M800.71,-387.3C889.16,-378.06 1046.71,-361.31 1191.94,-344.11"/>
<polygon fill="midnightblue" stroke="midnightblue" points="1192.41,-347.58 1201.93,-342.92 1191.58,-340.63 1192.41,-347.58"/>
</g>
<!-- Node10 -->
<g id="node10" class="node">
<title>Node10</title>
<g id="a_node10"><a xlink:href="../../d1/d39/_player_8h.html" target="_top" xlink:title=" ">
<polygon fill="white" stroke="black" points="714.5,-324.5 714.5,-343.5 839.5,-343.5 839.5,-324.5 714.5,-324.5"/>
<text text-anchor="middle" x="777" y="-331.5" font-family="Helvetica,sans-Serif" font-size="10.00">Shmup/Movable/Player.h</text>
</a>
</g>
</g>
<!-- Node1&#45;&gt;Node10 -->
<g id="edge9" class="edge">
<title>Node1&#45;&gt;Node10</title>
<path fill="none" stroke="midnightblue" d="M741.9,-380.4C748.59,-371.75 757.18,-360.64 764.18,-351.58"/>
<polygon fill="midnightblue" stroke="midnightblue" points="766.96,-353.71 770.31,-343.66 761.42,-349.43 766.96,-353.71"/>
</g>
<!-- Node13 -->
<g id="node13" class="node">
<title>Node13</title>
<g id="a_node13"><a xlink:href="../../d7/daf/_a_graphic_object_8h.html" target="_top" xlink:title=" ">
<polygon fill="white" stroke="black" points="279.5,-129 279.5,-148 372.5,-148 372.5,-129 279.5,-129"/>
<text text-anchor="middle" x="326" y="-136" font-family="Helvetica,sans-Serif" font-size="10.00">AGraphicObject.h</text>
</a>
</g>
</g>
<!-- Node1&#45;&gt;Node13 -->
<g id="edge35" class="edge">
<title>Node1&#45;&gt;Node13</title>
<path fill="none" stroke="midnightblue" d="M661.17,-383.79C583.09,-369.81 454.55,-340.67 355,-288 314.01,-266.31 294.62,-263.02 275,-221 269.17,-208.52 269.7,-202.72 275,-190 281.04,-175.52 293.47,-163.07 304.55,-154.15"/>
<polygon fill="midnightblue" stroke="midnightblue" points="306.76,-156.87 312.63,-148.05 302.54,-151.28 306.76,-156.87"/>
</g>
<!-- Node23 -->
<g id="node23" class="node">
<title>Node23</title>
<g id="a_node23"><a xlink:href="../../d4/d1e/_enemy_8h.html" target="_top" xlink:title=" ">
<polygon fill="white" stroke="black" points="363.5,-263 363.5,-282 490.5,-282 490.5,-263 363.5,-263"/>
<text text-anchor="middle" x="427" y="-270" font-family="Helvetica,sans-Serif" font-size="10.00">Shmup/Movable/Enemy.h</text>
</a>
</g>
</g>
<!-- Node1&#45;&gt;Node23 -->
<g id="edge36" class="edge">
<title>Node1&#45;&gt;Node23</title>
<path fill="none" stroke="midnightblue" d="M695.53,-380.38C635.54,-356.51 515.04,-308.54 458.12,-285.89"/>
<polygon fill="midnightblue" stroke="midnightblue" points="459.17,-282.54 448.59,-282.09 456.58,-289.04 459.17,-282.54"/>
</g>
<!-- Node28 -->
<g id="node28" class="node">
<title>Node28</title>
<g id="a_node28"><a xlink:href="../../d8/d97/_instance_list_8hpp.html" target="_top" xlink:title=" ">
<polygon fill="white" stroke="black" points="67,-263 67,-282 189,-282 189,-263 67,-263"/>
<text text-anchor="middle" x="128" y="-270" font-family="Helvetica,sans-Serif" font-size="10.00">Shmup/InstanceList.hpp</text>
</a>
</g>
</g>
<!-- Node1&#45;&gt;Node28 -->
<g id="edge49" class="edge">
<title>Node1&#45;&gt;Node28</title>
<path fill="none" stroke="midnightblue" d="M661.43,-391.16C545.46,-384.94 317.84,-369.84 242,-344 205.02,-331.4 167.52,-305.01 146.08,-288.33"/>
<polygon fill="midnightblue" stroke="midnightblue" points="148.19,-285.53 138.18,-282.05 143.83,-291.02 148.19,-285.53"/>
</g>
<!-- Node7 -->
<g id="node7" class="node">
<title>Node7</title>
<g id="a_node7"><a xlink:title=" ">
<polygon fill="white" stroke="#bfbfbf" points="684.5,-0.5 684.5,-19.5 731.5,-19.5 731.5,-0.5 684.5,-0.5"/>
<text text-anchor="middle" x="708" y="-7.5" font-family="Helvetica,sans-Serif" font-size="10.00">raylib.h</text>
</a>
</g>
</g>
<!-- Node6&#45;&gt;Node7 -->
<g id="edge6" class="edge">
<title>Node6&#45;&gt;Node7</title>
<path fill="none" stroke="midnightblue" d="M627.49,-128.99C647.17,-121.12 673.57,-107.52 689,-87 701.49,-70.4 705.84,-46.55 707.32,-30.01"/>
<polygon fill="midnightblue" stroke="midnightblue" points="710.82,-30.11 707.94,-19.91 703.83,-29.68 710.82,-30.11"/>
</g>
<!-- Node8 -->
<g id="node8" class="node">
<title>Node8</title>
<g id="a_node8"><a xlink:title=" ">
<polygon fill="white" stroke="#bfbfbf" points="620.5,-62 620.5,-81 679.5,-81 679.5,-62 620.5,-62"/>
<text text-anchor="middle" x="650" y="-69" font-family="Helvetica,sans-Serif" font-size="10.00">raymath.h</text>
</a>
</g>
</g>
<!-- Node6&#45;&gt;Node8 -->
<g id="edge7" class="edge">
<title>Node6&#45;&gt;Node8</title>
<path fill="none" stroke="midnightblue" d="M608.47,-128.73C615.89,-118.7 628.2,-102.01 637.5,-89.42"/>
<polygon fill="midnightblue" stroke="midnightblue" points="640.5,-91.25 643.63,-81.13 634.87,-87.09 640.5,-91.25"/>
</g>
<!-- Node11 -->
<g id="node11" class="node">
<title>Node11</title>
<g id="a_node11"><a xlink:href="../../de/d15/_shoot_8h.html" target="_top" xlink:title=" ">
<polygon fill="white" stroke="black" points="714.5,-263 714.5,-282 837.5,-282 837.5,-263 714.5,-263"/>
<text text-anchor="middle" x="776" y="-270" font-family="Helvetica,sans-Serif" font-size="10.00">Shmup/Movable/Shoot.h</text>
</a>
</g>
</g>
<!-- Node10&#45;&gt;Node11 -->
<g id="edge10" class="edge">
<title>Node10&#45;&gt;Node11</title>
<path fill="none" stroke="midnightblue" d="M776.86,-324.48C776.72,-316.08 776.5,-302.98 776.31,-292.16"/>
<polygon fill="midnightblue" stroke="midnightblue" points="779.81,-291.95 776.14,-282.01 772.81,-292.07 779.81,-291.95"/>
</g>
<!-- Node21 -->
<g id="node21" class="node">
<title>Node21</title>
<g id="a_node21"><a xlink:href="../../df/db3/_patern_v_spread_8h.html" target="_top" xlink:title=" ">
<polygon fill="white" stroke="black" points="880.5,-257.5 880.5,-287.5 993.5,-287.5 993.5,-257.5 880.5,-257.5"/>
<text text-anchor="start" x="888.5" y="-275.5" font-family="Helvetica,sans-Serif" font-size="10.00">Shmup/Paterns/Shoot</text>
<text text-anchor="middle" x="937" y="-264.5" font-family="Helvetica,sans-Serif" font-size="10.00">/PaternVSpread.h</text>
</a>
</g>
</g>
<!-- Node10&#45;&gt;Node21 -->
<g id="edge31" class="edge">
<title>Node10&#45;&gt;Node21</title>
<path fill="none" stroke="midnightblue" d="M799.92,-324.48C823.21,-315.81 859.97,-302.15 889.56,-291.14"/>
<polygon fill="midnightblue" stroke="midnightblue" points="891.14,-294.29 899.29,-287.52 888.7,-287.73 891.14,-294.29"/>
</g>
<!-- Node22 -->
<g id="node22" class="node">
<title>Node22</title>
<g id="a_node22"><a xlink:href="../../d3/dff/_patern_linear_8h.html" target="_top" xlink:title=" ">
<polygon fill="white" stroke="black" points="991.5,-190.5 991.5,-220.5 1104.5,-220.5 1104.5,-190.5 991.5,-190.5"/>
<text text-anchor="start" x="999.5" y="-208.5" font-family="Helvetica,sans-Serif" font-size="10.00">Shmup/Paterns/Shoot</text>
<text text-anchor="middle" x="1048" y="-197.5" font-family="Helvetica,sans-Serif" font-size="10.00">/PaternLinear.h</text>
</a>
</g>
</g>
<!-- Node10&#45;&gt;Node22 -->
<g id="edge33" class="edge">
<title>Node10&#45;&gt;Node22</title>
<path fill="none" stroke="midnightblue" d="M832.28,-324.49C894.68,-314.49 989.32,-298.01 1003,-288 1022.26,-273.91 1034.28,-248.96 1040.99,-230.37"/>
<polygon fill="midnightblue" stroke="midnightblue" points="1044.34,-231.39 1044.19,-220.8 1037.7,-229.17 1044.34,-231.39"/>
</g>
<!-- Node11&#45;&gt;Node7 -->
<g id="edge11" class="edge">
<title>Node11&#45;&gt;Node7</title>
<path fill="none" stroke="midnightblue" d="M785.22,-262.68C807.24,-240.52 860.21,-180.16 848,-123 841.18,-91.09 841.44,-78.69 818,-56 796.98,-35.66 765.52,-24.05 741.61,-17.73"/>
<polygon fill="midnightblue" stroke="midnightblue" points="742.43,-14.33 731.89,-15.34 740.76,-21.13 742.43,-14.33"/>
</g>
<!-- Node12 -->
<g id="node12" class="node">
<title>Node12</title>
<g id="a_node12"><a xlink:href="../../db/d1b/_a_movable_8h.html" target="_top" xlink:title=" ">
<polygon fill="white" stroke="black" points="556.5,-196 556.5,-215 657.5,-215 657.5,-196 556.5,-196"/>
<text text-anchor="middle" x="607" y="-203" font-family="Helvetica,sans-Serif" font-size="10.00">Shmup/AMovable.h</text>
</a>
</g>
</g>
<!-- Node11&#45;&gt;Node12 -->
<g id="edge12" class="edge">
<title>Node11&#45;&gt;Node12</title>
<path fill="none" stroke="midnightblue" d="M753.56,-262.87C724.18,-251.57 672.51,-231.7 639.03,-218.82"/>
<polygon fill="midnightblue" stroke="midnightblue" points="639.86,-215.39 629.27,-215.06 637.34,-221.92 639.86,-215.39"/>
</g>
<!-- Node17 -->
<g id="node17" class="node">
<title>Node17</title>
<g id="a_node17"><a xlink:href="../../df/d50/_a_patern_8h.html" target="_top" xlink:title=" ">
<polygon fill="white" stroke="black" points="915,-62 915,-81 1045,-81 1045,-62 915,-62"/>
<text text-anchor="middle" x="980" y="-69" font-family="Helvetica,sans-Serif" font-size="10.00">Shmup/Paterns/APatern.h</text>
</a>
</g>
</g>
<!-- Node11&#45;&gt;Node17 -->
<g id="edge21" class="edge">
<title>Node11&#45;&gt;Node17</title>
<path fill="none" stroke="midnightblue" d="M815.89,-262.98C842.55,-255.6 876.99,-242.61 901,-221 922.14,-201.97 956.87,-125.88 972.25,-90.62"/>
<polygon fill="midnightblue" stroke="midnightblue" points="975.61,-91.66 976.37,-81.09 969.19,-88.88 975.61,-91.66"/>
</g>
<!-- Node18 -->
<g id="node18" class="node">
<title>Node18</title>
<g id="a_node18"><a xlink:href="../../d5/d36/_collider_8h.html" target="_top" xlink:title=" ">
<polygon fill="white" stroke="black" points="391,-129 391,-148 521,-148 521,-129 391,-129"/>
<text text-anchor="middle" x="456" y="-136" font-family="Helvetica,sans-Serif" font-size="10.00">Shmup/Collision/Collider.h</text>
</a>
</g>
</g>
<!-- Node11&#45;&gt;Node18 -->
<g id="edge22" class="edge">
<title>Node11&#45;&gt;Node18</title>
<path fill="none" stroke="midnightblue" d="M767.22,-262.9C749.7,-246.23 708.5,-209.46 667,-190 652.44,-183.17 563.44,-162.99 505.77,-150.3"/>
<polygon fill="midnightblue" stroke="midnightblue" points="506.26,-146.82 495.75,-148.1 504.76,-153.66 506.26,-146.82"/>
</g>
<!-- Node20 -->
<g id="node20" class="node">
<title>Node20</title>
<g id="a_node20"><a xlink:href="../../d3/d72/_a_collidable_8h.html" target="_top" xlink:title=" ">
<polygon fill="white" stroke="black" points="354,-196 354,-215 500,-215 500,-196 354,-196"/>
<text text-anchor="middle" x="427" y="-203" font-family="Helvetica,sans-Serif" font-size="10.00">Shmup/Collision/ACollidable.h</text>
</a>
</g>
</g>
<!-- Node11&#45;&gt;Node20 -->
<g id="edge28" class="edge">
<title>Node11&#45;&gt;Node20</title>
<path fill="none" stroke="midnightblue" d="M730.02,-262.94C666.37,-251.08 551.55,-229.7 482.99,-216.93"/>
<polygon fill="midnightblue" stroke="midnightblue" points="483.28,-213.42 472.81,-215.03 482,-220.3 483.28,-213.42"/>
</g>
<!-- Node12&#45;&gt;Node7 -->
<g id="edge13" class="edge">
<title>Node12&#45;&gt;Node7</title>
<path fill="none" stroke="midnightblue" d="M657.68,-200.24C716.7,-194.1 808.85,-180.48 830,-154 869.06,-105.1 781.12,-49.21 734.55,-24.25"/>
<polygon fill="midnightblue" stroke="midnightblue" points="736.05,-21.08 725.57,-19.54 732.8,-27.28 736.05,-21.08"/>
</g>
<!-- Node12&#45;&gt;Node13 -->
<g id="edge14" class="edge">
<title>Node12&#45;&gt;Node13</title>
<path fill="none" stroke="midnightblue" d="M567.08,-195.95C522.03,-186.21 446.6,-169.61 382,-154 377.54,-152.92 372.89,-151.77 368.26,-150.6"/>
<polygon fill="midnightblue" stroke="midnightblue" points="368.79,-147.12 358.23,-148.04 367.06,-153.9 368.79,-147.12"/>
</g>
<!-- Node13&#45;&gt;Node7 -->
<g id="edge15" class="edge">
<title>Node13&#45;&gt;Node7</title>
<path fill="none" stroke="midnightblue" d="M318.54,-128.73C305.58,-112.43 282.04,-77.17 301,-56 325.77,-28.34 581.24,-15.85 674.32,-12.2"/>
<polygon fill="midnightblue" stroke="midnightblue" points="674.47,-15.69 684.33,-11.81 674.21,-8.7 674.47,-15.69"/>
</g>
<!-- Node14 -->
<g id="node14" class="node">
<title>Node14</title>
<g id="a_node14"><a xlink:href="../../dc/d80/_instance_list_8h.html" target="_top" xlink:title=" ">
<polygon fill="white" stroke="black" points="104,-62 104,-81 216,-81 216,-62 104,-62"/>
<text text-anchor="middle" x="160" y="-69" font-family="Helvetica,sans-Serif" font-size="10.00">Shmup/InstanceList.h</text>
</a>
</g>
</g>
<!-- Node13&#45;&gt;Node14 -->
<g id="edge16" class="edge">
<title>Node13&#45;&gt;Node14</title>
<path fill="none" stroke="midnightblue" d="M303.96,-128.87C275.1,-117.57 224.35,-97.7 191.46,-84.82"/>
<polygon fill="midnightblue" stroke="midnightblue" points="192.46,-81.45 181.87,-81.06 189.91,-87.97 192.46,-81.45"/>
</g>
<!-- Node16 -->
<g id="node16" class="node">
<title>Node16</title>
<g id="a_node16"><a xlink:href="../../da/d02/_transform2_d_8h.html" target="_top" xlink:title=" ">
<polygon fill="white" stroke="black" points="450,-62 450,-81 564,-81 564,-62 450,-62"/>
<text text-anchor="middle" x="507" y="-69" font-family="Helvetica,sans-Serif" font-size="10.00">Shmup/Transform2D.h</text>
</a>
</g>
</g>
<!-- Node13&#45;&gt;Node16 -->
<g id="edge19" class="edge">
<title>Node13&#45;&gt;Node16</title>
<path fill="none" stroke="midnightblue" d="M350.04,-128.87C381.77,-117.47 437.79,-97.35 473.62,-84.49"/>
<polygon fill="midnightblue" stroke="midnightblue" points="474.92,-87.74 483.15,-81.06 472.56,-81.15 474.92,-87.74"/>
</g>
<!-- Node14&#45;&gt;Node2 -->
<g id="edge17" class="edge">
<title>Node14&#45;&gt;Node2</title>
<path fill="none" stroke="midnightblue" d="M145.24,-61.98C128.34,-52.21 100.42,-36.08 80.51,-24.58"/>
<polygon fill="midnightblue" stroke="midnightblue" points="82.14,-21.48 71.73,-19.51 78.64,-27.54 82.14,-21.48"/>
</g>
<!-- Node15 -->
<g id="node15" class="node">
<title>Node15</title>
<g id="a_node15"><a xlink:title=" ">
<polygon fill="white" stroke="#bfbfbf" points="222,-0.5 222,-19.5 266,-19.5 266,-0.5 222,-0.5"/>
<text text-anchor="middle" x="244" y="-7.5" font-family="Helvetica,sans-Serif" font-size="10.00">vector</text>
</a>
</g>
</g>
<!-- Node14&#45;&gt;Node15 -->
<g id="edge18" class="edge">
<title>Node14&#45;&gt;Node15</title>
<path fill="none" stroke="midnightblue" d="M172.04,-61.98C185.51,-52.43 207.57,-36.81 223.72,-25.37"/>
<polygon fill="midnightblue" stroke="midnightblue" points="225.85,-28.15 231.99,-19.51 221.8,-22.43 225.85,-28.15"/>
</g>
<!-- Node16&#45;&gt;Node7 -->
<g id="edge20" class="edge">
<title>Node16&#45;&gt;Node7</title>
<path fill="none" stroke="midnightblue" d="M535.8,-61.98C572.47,-51.12 635.71,-32.4 674.5,-20.92"/>
<polygon fill="midnightblue" stroke="midnightblue" points="675.68,-24.22 684.28,-18.02 673.7,-17.5 675.68,-24.22"/>
</g>
<!-- Node18&#45;&gt;Node7 -->
<g id="edge23" class="edge">
<title>Node18&#45;&gt;Node7</title>
<path fill="none" stroke="midnightblue" d="M481.13,-128.86C505.47,-119.99 543.01,-104.96 573,-87 592,-75.62 593.18,-67.67 612,-56 632.61,-43.22 657.43,-31.68 676.67,-23.48"/>
<polygon fill="midnightblue" stroke="midnightblue" points="678.02,-26.71 685.9,-19.63 675.32,-20.25 678.02,-26.71"/>
</g>
<!-- Node18&#45;&gt;Node8 -->
<g id="edge24" class="edge">
<title>Node18&#45;&gt;Node8</title>
<path fill="none" stroke="midnightblue" d="M481.76,-128.87C515.92,-117.42 576.34,-97.18 614.71,-84.32"/>
<polygon fill="midnightblue" stroke="midnightblue" points="616.07,-87.56 624.44,-81.06 613.85,-80.92 616.07,-87.56"/>
</g>
<!-- Node18&#45;&gt;Node16 -->
<g id="edge25" class="edge">
<title>Node18&#45;&gt;Node16</title>
<path fill="none" stroke="midnightblue" d="M462.88,-128.73C470.83,-118.6 484.1,-101.69 494.01,-89.06"/>
<polygon fill="midnightblue" stroke="midnightblue" points="496.81,-91.16 500.23,-81.13 491.3,-86.83 496.81,-91.16"/>
</g>
<!-- Node19 -->
<g id="node19" class="node">
<title>Node19</title>
<g id="a_node19"><a xlink:href="../../de/d60/_collider_settings_8h.html" target="_top" xlink:title=" ">
<polygon fill="white" stroke="black" points="310,-56.5 310,-86.5 432,-86.5 432,-56.5 310,-56.5"/>
<text text-anchor="start" x="318" y="-74.5" font-family="Helvetica,sans-Serif" font-size="10.00">Shmup/Collision/Collider</text>
<text text-anchor="middle" x="371" y="-63.5" font-family="Helvetica,sans-Serif" font-size="10.00">Settings.h</text>
</a>
</g>
</g>
<!-- Node18&#45;&gt;Node19 -->
<g id="edge26" class="edge">
<title>Node18&#45;&gt;Node19</title>
<path fill="none" stroke="midnightblue" d="M444.54,-128.73C432.61,-119.61 413.5,-105 397.76,-92.96"/>
<polygon fill="midnightblue" stroke="midnightblue" points="399.49,-89.88 389.42,-86.59 395.24,-95.44 399.49,-89.88"/>
</g>
<!-- Node19&#45;&gt;Node15 -->
<g id="edge27" class="edge">
<title>Node19&#45;&gt;Node15</title>
<path fill="none" stroke="midnightblue" d="M340.9,-56.4C319.88,-46.55 292.03,-33.5 271.58,-23.92"/>
<polygon fill="midnightblue" stroke="midnightblue" points="273.02,-20.73 262.48,-19.66 270.05,-27.07 273.02,-20.73"/>
</g>
<!-- Node20&#45;&gt;Node14 -->
<g id="edge30" class="edge">
<title>Node20&#45;&gt;Node14</title>
<path fill="none" stroke="midnightblue" d="M389.43,-195.95C356.98,-187.73 309.39,-173.65 271,-154 234.9,-135.52 197.91,-105.75 177.05,-87.76"/>
<polygon fill="midnightblue" stroke="midnightblue" points="179.23,-85.01 169.4,-81.06 174.62,-90.28 179.23,-85.01"/>
</g>
<!-- Node20&#45;&gt;Node18 -->
<g id="edge29" class="edge">
<title>Node20&#45;&gt;Node18</title>
<path fill="none" stroke="midnightblue" d="M430.91,-195.73C435.26,-185.99 442.4,-169.98 447.96,-157.53"/>
<polygon fill="midnightblue" stroke="midnightblue" points="451.27,-158.69 452.15,-148.13 444.88,-155.83 451.27,-158.69"/>
</g>
<!-- Node21&#45;&gt;Node17 -->
<g id="edge32" class="edge">
<title>Node21&#45;&gt;Node17</title>
<path fill="none" stroke="midnightblue" d="M940.09,-257.19C947.72,-221.91 967.41,-130.78 975.95,-91.25"/>
<polygon fill="midnightblue" stroke="midnightblue" points="979.39,-91.87 978.09,-81.36 972.55,-90.4 979.39,-91.87"/>
</g>
<!-- Node22&#45;&gt;Node17 -->
<g id="edge34" class="edge">
<title>Node22&#45;&gt;Node17</title>
<path fill="none" stroke="midnightblue" d="M1040.72,-190.37C1028.21,-166.08 1002.64,-116.44 989.01,-90"/>
<polygon fill="midnightblue" stroke="midnightblue" points="992.12,-88.38 984.43,-81.1 985.9,-91.59 992.12,-88.38"/>
</g>
<!-- Node23&#45;&gt;Node2 -->
<g id="edge37" class="edge">
<title>Node23&#45;&gt;Node2</title>
<path fill="none" stroke="midnightblue" d="M363.32,-270.35C277.77,-267.43 132.15,-257.12 95,-221 42.07,-169.53 48.52,-70.95 53.97,-29.79"/>
<polygon fill="midnightblue" stroke="midnightblue" points="57.45,-30.19 55.44,-19.79 50.52,-29.17 57.45,-30.19"/>
</g>
<!-- Node23&#45;&gt;Node12 -->
<g id="edge39" class="edge">
<title>Node23&#45;&gt;Node12</title>
<path fill="none" stroke="midnightblue" d="M450.9,-262.87C482.46,-251.47 538.18,-231.35 573.81,-218.49"/>
<polygon fill="midnightblue" stroke="midnightblue" points="575.07,-221.75 583.29,-215.06 572.69,-215.17 575.07,-221.75"/>
</g>
<!-- Node23&#45;&gt;Node18 -->
<g id="edge47" class="edge">
<title>Node23&#45;&gt;Node18</title>
<path fill="none" stroke="midnightblue" d="M454.01,-262.87C473.12,-255.18 497.34,-241.87 509,-221 515.72,-208.97 514.43,-202.66 509,-190 502.78,-175.48 490.1,-163.15 478.71,-154.31"/>
<polygon fill="midnightblue" stroke="midnightblue" points="480.52,-151.3 470.37,-148.25 476.4,-156.96 480.52,-151.3"/>
</g>
<!-- Node23&#45;&gt;Node20 -->
<g id="edge48" class="edge">
<title>Node23&#45;&gt;Node20</title>
<path fill="none" stroke="midnightblue" d="M427,-262.73C427,-253.18 427,-237.62 427,-225.28"/>
<polygon fill="midnightblue" stroke="midnightblue" points="430.5,-225.13 427,-215.13 423.5,-225.13 430.5,-225.13"/>
</g>
<!-- Node24 -->
<g id="node24" class="node">
<title>Node24</title>
<g id="a_node24"><a xlink:title=" ">
<polygon fill="white" stroke="#bfbfbf" points="284,-196 284,-215 336,-215 336,-196 284,-196"/>
<text text-anchor="middle" x="310" y="-203" font-family="Helvetica,sans-Serif" font-size="10.00">sstream</text>
</a>
</g>
</g>
<!-- Node23&#45;&gt;Node24 -->
<g id="edge38" class="edge">
<title>Node23&#45;&gt;Node24</title>
<path fill="none" stroke="midnightblue" d="M411.22,-262.73C391.49,-251.77 357.49,-232.88 334.39,-220.05"/>
<polygon fill="midnightblue" stroke="midnightblue" points="335.97,-216.92 325.53,-215.13 332.57,-223.04 335.97,-216.92"/>
</g>
<!-- Node25 -->
<g id="node25" class="node">
<title>Node25</title>
<g id="a_node25"><a xlink:href="../../d1/d98/_sequence_move_patern_8h.html" target="_top" xlink:title=" ">
<polygon fill="white" stroke="black" points="104.5,-190.5 104.5,-220.5 227.5,-220.5 227.5,-190.5 104.5,-190.5"/>
<text text-anchor="start" x="112.5" y="-208.5" font-family="Helvetica,sans-Serif" font-size="10.00">Shmup/Paterns/Enemy</text>
<text text-anchor="middle" x="166" y="-197.5" font-family="Helvetica,sans-Serif" font-size="10.00">/SequenceMovePatern.h</text>
</a>
</g>
</g>
<!-- Node23&#45;&gt;Node25 -->
<g id="edge40" class="edge">
<title>Node23&#45;&gt;Node25</title>
<path fill="none" stroke="midnightblue" d="M392.61,-262.94C351.99,-252.82 283.5,-235.76 232.42,-223.04"/>
<polygon fill="midnightblue" stroke="midnightblue" points="233,-219.58 222.45,-220.56 231.31,-226.37 233,-219.58"/>
</g>
<!-- Node25&#45;&gt;Node2 -->
<g id="edge44" class="edge">
<title>Node25&#45;&gt;Node2</title>
<path fill="none" stroke="midnightblue" d="M156.89,-190.44C150.41,-180.36 141.55,-166.42 134,-154 116.11,-124.55 111.38,-117.31 95,-87 84.4,-67.39 73.07,-44.44 65.57,-28.94"/>
<polygon fill="midnightblue" stroke="midnightblue" points="68.53,-27.02 61.04,-19.52 62.22,-30.05 68.53,-27.02"/>
</g>
<!-- Node25&#45;&gt;Node15 -->
<g id="edge46" class="edge">
<title>Node25&#45;&gt;Node15</title>
<path fill="none" stroke="midnightblue" d="M174.12,-190.5C179.87,-180.44 187.65,-166.51 194,-154 208.85,-124.74 214.08,-117.94 225,-87 231.77,-67.8 237.12,-45.08 240.39,-29.51"/>
<polygon fill="midnightblue" stroke="midnightblue" points="243.85,-30.08 242.4,-19.59 236.99,-28.7 243.85,-30.08"/>
</g>
<!-- Node26 -->
<g id="node26" class="node">
<title>Node26</title>
<g id="a_node26"><a xlink:href="../../dc/d8f/_a_offsetable_patern_8h.html" target="_top" xlink:title=" ">
<polygon fill="white" stroke="black" points="683,-123.5 683,-153.5 821,-153.5 821,-123.5 683,-123.5"/>
<text text-anchor="start" x="691" y="-141.5" font-family="Helvetica,sans-Serif" font-size="10.00">Shmup/Paterns/AOffsetable</text>
<text text-anchor="middle" x="752" y="-130.5" font-family="Helvetica,sans-Serif" font-size="10.00">Patern.h</text>
</a>
</g>
</g>
<!-- Node25&#45;&gt;Node26 -->
<g id="edge41" class="edge">
<title>Node25&#45;&gt;Node26</title>
<path fill="none" stroke="midnightblue" d="M227.62,-195.84C243.08,-193.8 259.63,-191.71 275,-190 448.67,-170.62 495.87,-178.01 672.57,-154.11"/>
<polygon fill="midnightblue" stroke="midnightblue" points="673.3,-157.55 682.73,-152.73 672.35,-150.61 673.3,-157.55"/>
</g>
<!-- Node27 -->
<g id="node27" class="node">
<title>Node27</title>
<g id="a_node27"><a xlink:title=" ">
<polygon fill="white" stroke="#bfbfbf" points="143.5,-129 143.5,-148 184.5,-148 184.5,-129 143.5,-129"/>
<text text-anchor="middle" x="164" y="-136" font-family="Helvetica,sans-Serif" font-size="10.00">string</text>
</a>
</g>
</g>
<!-- Node25&#45;&gt;Node27 -->
<g id="edge45" class="edge">
<title>Node25&#45;&gt;Node27</title>
<path fill="none" stroke="midnightblue" d="M165.57,-190.4C165.28,-181.06 164.9,-168.71 164.59,-158.52"/>
<polygon fill="midnightblue" stroke="midnightblue" points="168.07,-158.08 164.27,-148.19 161.08,-158.3 168.07,-158.08"/>
</g>
<!-- Node26&#45;&gt;Node7 -->
<g id="edge42" class="edge">
<title>Node26&#45;&gt;Node7</title>
<path fill="none" stroke="midnightblue" d="M747.12,-123.48C739.14,-100.51 723.27,-54.89 714.39,-29.37"/>
<polygon fill="midnightblue" stroke="midnightblue" points="717.65,-28.08 711.06,-19.79 711.04,-30.38 717.65,-28.08"/>
</g>
<!-- Node26&#45;&gt;Node17 -->
<g id="edge43" class="edge">
<title>Node26&#45;&gt;Node17</title>
<path fill="none" stroke="midnightblue" d="M801.19,-123.48C842.77,-111.62 901.57,-94.86 940.23,-83.84"/>
<polygon fill="midnightblue" stroke="midnightblue" points="941.43,-87.14 950.08,-81.03 939.51,-80.4 941.43,-87.14"/>
</g>
<!-- Node28&#45;&gt;Node14 -->
<g id="edge50" class="edge">
<title>Node28&#45;&gt;Node14</title>
<path fill="none" stroke="midnightblue" d="M120.18,-263C112.07,-253.56 99.9,-237.46 95,-221 91.07,-207.8 91.56,-203.34 95,-190 105.04,-151.09 131.03,-111.31 146.94,-89.47"/>
<polygon fill="midnightblue" stroke="midnightblue" points="149.89,-91.37 153.06,-81.26 144.28,-87.18 149.89,-91.37"/>
</g>
</g>
</svg>
