<?xml version="1.0" encoding="UTF-8" standalone="no"?>
<!DOCTYPE svg PUBLIC "-//W3C//DTD SVG 1.1//EN"
 "http://www.w3.org/Graphics/SVG/1.1/DTD/svg11.dtd">
<!-- Generated by graphviz version 2.49.3 (20211027.1534)
 -->
<!-- Title: RayLib_SHMUP/include/Shmup/Movable/Shoot.h Pages: 1 -->
<svg width="765pt" height="173pt"
 viewBox="0.00 0.00 765.00 173.00" xmlns="http://www.w3.org/2000/svg" xmlns:xlink="http://www.w3.org/1999/xlink">
<g id="graph0" class="graph" transform="scale(1 1) rotate(0) translate(4 169)">
<title>RayLib_SHMUP/include/Shmup/Movable/Shoot.h</title>
<polygon fill="white" stroke="transparent" points="-4,4 -4,-169 761,-169 761,4 -4,4"/>
<!-- Node1 -->
<g id="node1" class="node">
<title>Node1</title>
<g id="a_node1"><a xlink:title=" ">
<polygon fill="#bfbfbf" stroke="black" points="261.5,-134.5 261.5,-164.5 387.5,-164.5 387.5,-134.5 261.5,-134.5"/>
<text text-anchor="start" x="269.5" y="-152.5" font-family="Helvetica,sans-Serif" font-size="10.00">RayLib_SHMUP/include</text>
<text text-anchor="middle" x="324.5" y="-141.5" font-family="Helvetica,sans-Serif" font-size="10.00">/Shmup/Movable/Shoot.h</text>
</a>
</g>
</g>
<!-- Node2 -->
<g id="node2" class="node">
<title>Node2</title>
<g id="a_node2"><a xlink:href="../../d1/d39/_player_8h.html" target="_top" xlink:title=" ">
<polygon fill="white" stroke="black" points="70.5,-67.5 70.5,-97.5 198.5,-97.5 198.5,-67.5 70.5,-67.5"/>
<text text-anchor="start" x="78.5" y="-85.5" font-family="Helvetica,sans-Serif" font-size="10.00">RayLib_SHMUP/include</text>
<text text-anchor="middle" x="134.5" y="-74.5" font-family="Helvetica,sans-Serif" font-size="10.00">/Shmup/Movable/Player.h</text>
</a>
</g>
</g>
<!-- Node1&#45;&gt;Node2 -->
<g id="edge1" class="edge">
<title>Node1&#45;&gt;Node2</title>
<path fill="none" stroke="midnightblue" d="M273.61,-131.09C242.94,-120.6 204.39,-107.41 175.65,-97.58"/>
<polygon fill="midnightblue" stroke="midnightblue" points="272.68,-134.47 283.27,-134.4 274.94,-127.85 272.68,-134.47"/>
</g>
<!-- Node4 -->
<g id="node4" class="node">
<title>Node4</title>
<g id="a_node4"><a xlink:href="../../d2/d82/_player_8cpp.html" target="_top" xlink:title=" ">
<polygon fill="white" stroke="black" points="157,-0.5 157,-30.5 296,-30.5 296,-0.5 157,-0.5"/>
<text text-anchor="start" x="165" y="-18.5" font-family="Helvetica,sans-Serif" font-size="10.00">RayLib_SHMUP/src/Shmup</text>
<text text-anchor="middle" x="226.5" y="-7.5" font-family="Helvetica,sans-Serif" font-size="10.00">/Movable/Player.cpp</text>
</a>
</g>
</g>
<!-- Node1&#45;&gt;Node4 -->
<g id="edge4" class="edge">
<title>Node1&#45;&gt;Node4</title>
<path fill="none" stroke="midnightblue" d="M282.64,-129.33C269.33,-121.37 255.69,-110.92 246.5,-98 232.06,-77.7 227.98,-48.16 226.87,-30.77"/>
<polygon fill="midnightblue" stroke="midnightblue" points="281.31,-132.6 291.75,-134.45 284.74,-126.5 281.31,-132.6"/>
</g>
<!-- Node5 -->
<g id="node5" class="node">
<title>Node5</title>
<g id="a_node5"><a xlink:href="../../d6/dae/_shoot_8cpp.html" target="_top" xlink:title=" ">
<polygon fill="white" stroke="black" points="255,-67.5 255,-97.5 394,-97.5 394,-67.5 255,-67.5"/>
<text text-anchor="start" x="263" y="-85.5" font-family="Helvetica,sans-Serif" font-size="10.00">RayLib_SHMUP/src/Shmup</text>
<text text-anchor="middle" x="324.5" y="-74.5" font-family="Helvetica,sans-Serif" font-size="10.00">/Movable/Shoot.cpp</text>
</a>
</g>
</g>
<!-- Node1&#45;&gt;Node5 -->
<g id="edge5" class="edge">
<title>Node1&#45;&gt;Node5</title>
<path fill="none" stroke="midnightblue" d="M324.5,-124.11C324.5,-115.15 324.5,-105.32 324.5,-97.58"/>
<polygon fill="midnightblue" stroke="midnightblue" points="321,-124.4 324.5,-134.4 328,-124.4 321,-124.4"/>
</g>
<!-- Node6 -->
<g id="node6" class="node">
<title>Node6</title>
<g id="a_node6"><a xlink:href="../../dc/dac/_patern_linear_8cpp.html" target="_top" xlink:title=" ">
<polygon fill="white" stroke="black" points="412.5,-67.5 412.5,-97.5 570.5,-97.5 570.5,-67.5 412.5,-67.5"/>
<text text-anchor="start" x="420.5" y="-85.5" font-family="Helvetica,sans-Serif" font-size="10.00">RayLib_SHMUP/src/Shmup</text>
<text text-anchor="middle" x="491.5" y="-74.5" font-family="Helvetica,sans-Serif" font-size="10.00">/Paterns/Shoot/PaternLinear.cpp</text>
</a>
</g>
</g>
<!-- Node1&#45;&gt;Node6 -->
<g id="edge6" class="edge">
<title>Node1&#45;&gt;Node6</title>
<path fill="none" stroke="midnightblue" d="M370.28,-130.68C397.06,-120.26 430.4,-107.28 455.33,-97.58"/>
<polygon fill="midnightblue" stroke="midnightblue" points="368.79,-127.51 360.74,-134.4 371.33,-134.03 368.79,-127.51"/>
</g>
<!-- Node7 -->
<g id="node7" class="node">
<title>Node7</title>
<g id="a_node7"><a xlink:href="../../db/db4/_patern_v_spread_8cpp.html" target="_top" xlink:title=" ">
<polygon fill="white" stroke="black" points="588,-67.5 588,-97.5 757,-97.5 757,-67.5 588,-67.5"/>
<text text-anchor="start" x="596" y="-85.5" font-family="Helvetica,sans-Serif" font-size="10.00">RayLib_SHMUP/src/Shmup</text>
<text text-anchor="middle" x="672.5" y="-74.5" font-family="Helvetica,sans-Serif" font-size="10.00">/Paterns/Shoot/PaternVSpread.cpp</text>
</a>
</g>
</g>
<!-- Node1&#45;&gt;Node7 -->
<g id="edge7" class="edge">
<title>Node1&#45;&gt;Node7</title>
<path fill="none" stroke="midnightblue" d="M397.46,-134.87C456.16,-123.91 538.33,-108.56 597.54,-97.5"/>
<polygon fill="midnightblue" stroke="midnightblue" points="396.71,-131.45 387.52,-136.73 397.99,-138.33 396.71,-131.45"/>
</g>
<!-- Node3 -->
<g id="node3" class="node">
<title>Node3</title>
<g id="a_node3"><a xlink:href="../../d2/d2e/_game_manager_8cpp.html" target="_top" xlink:title=" ">
<polygon fill="white" stroke="black" points="0,-0.5 0,-30.5 139,-30.5 139,-0.5 0,-0.5"/>
<text text-anchor="start" x="8" y="-18.5" font-family="Helvetica,sans-Serif" font-size="10.00">RayLib_SHMUP/src/Shmup</text>
<text text-anchor="middle" x="69.5" y="-7.5" font-family="Helvetica,sans-Serif" font-size="10.00">/GameManager.cpp</text>
</a>
</g>
</g>
<!-- Node2&#45;&gt;Node3 -->
<g id="edge2" class="edge">
<title>Node2&#45;&gt;Node3</title>
<path fill="none" stroke="midnightblue" d="M113.31,-60.31C103.56,-50.56 92.26,-39.26 83.58,-30.58"/>
<polygon fill="midnightblue" stroke="midnightblue" points="110.85,-62.8 120.4,-67.4 115.8,-57.85 110.85,-62.8"/>
</g>
<!-- Node2&#45;&gt;Node4 -->
<g id="edge3" class="edge">
<title>Node2&#45;&gt;Node4</title>
<path fill="none" stroke="midnightblue" d="M162.88,-61.45C177.03,-51.45 193.81,-39.6 206.58,-30.58"/>
<polygon fill="midnightblue" stroke="midnightblue" points="160.61,-58.77 154.46,-67.4 164.65,-64.48 160.61,-58.77"/>
</g>
</g>
</svg>
