<?xml version="1.0" encoding="UTF-8" standalone="no"?>
<!DOCTYPE svg PUBLIC "-//W3C//DTD SVG 1.1//EN"
 "http://www.w3.org/Graphics/SVG/1.1/DTD/svg11.dtd">
<!-- Generated by graphviz version 2.49.3 (20211027.1534)
 -->
<!-- Title: RayLib_SHMUP/include/Shmup/Movable/Shoot.h Pages: 1 -->
<!--zoomable 173 -->
<svg id="main" version="1.1" xmlns="http://www.w3.org/2000/svg" xmlns:xlink="http://www.w3.org/1999/xlink" xml:space="preserve" onload="init(evt)">
<style type="text/css"><![CDATA[
.edge:hover path { stroke: red; }
.edge:hover polygon { stroke: red; fill: red; }
]]></style>
<script type="text/javascript"><![CDATA[
var edges = document.getElementsByTagName('g');
if (edges && edges.length) {
  for (var i=0;i<edges.length;i++) {
    if (edges[i].id.substr(0,4)=='edge') {
      edges[i].setAttribute('class','edge');
    }
  }
}
]]></script>
        <defs>
                <circle id="rim" cx="0" cy="0" r="7"/>
                <circle id="rim2" cx="0" cy="0" r="3.5"/>
                <g id="zoomPlus">
                        <use xlink:href="#rim" fill="#404040">
                                <set attributeName="fill" to="#808080" begin="zoomplus.mouseover" end="zoomplus.mouseout"/>
                        </use>
                        <path d="M-4,0h8M0,-4v8" fill="none" stroke="white" stroke-width="1.5" pointer-events="none"/>
                </g>
                <g id="zoomMin">
                        <use xlink:href="#rim" fill="#404040">
                                <set attributeName="fill" to="#808080" begin="zoomminus.mouseover" end="zoomminus.mouseout"/>
                        </use>
                        <path d="M-4,0h8" fill="none" stroke="white" stroke-width="1.5" pointer-events="none"/>
                </g>
                <g id="dirArrow">
                        <path fill="none" stroke="white" stroke-width="1.5" d="M0,-3.0v7 M-2.5,-0.5L0,-3.0L2.5,-0.5"/>
                </g>
               <g id="resetDef">
                       <use xlink:href="#rim2" fill="#404040">
                               <set attributeName="fill" to="#808080" begin="reset.mouseover" end="reset.mouseout"/>
                       </use>
               </g>
        </defs>

<script type="text/javascript">
var viewWidth = 765;
var viewHeight = 173;
var sectionId = 'dynsection-1';
</script>
<script xlink:href="../../svgpan.js"/>
<svg id="graph" class="graph">
<g id="viewport">
<title>RayLib_SHMUP/include/Shmup/Movable/Shoot.h</title>
<polygon fill="white" stroke="transparent" points="-4,4 -4,-169 761,-169 761,4 -4,4"/>
<!-- Node1 -->
<g id="node1" class="node">
<title>Node1</title>
<g id="a_node1"><a xlink:title=" ">
<polygon fill="#bfbfbf" stroke="black" points="261.5,-134.5 261.5,-164.5 387.5,-164.5 387.5,-134.5 261.5,-134.5"/>
<text text-anchor="start" x="269.5" y="-152.5" font-family="Helvetica,sans-Serif" font-size="10.00">RayLib_SHMUP/include</text>
<text text-anchor="middle" x="324.5" y="-141.5" font-family="Helvetica,sans-Serif" font-size="10.00">/Shmup/Movable/Shoot.h</text>
</a>
</g>
</g>
<!-- Node2 -->
<g id="node2" class="node">
<title>Node2</title>
<g id="a_node2"><a xlink:href="../../d1/d39/_player_8h.html" target="_top" xlink:title=" ">
<polygon fill="white" stroke="black" points="70.5,-67.5 70.5,-97.5 198.5,-97.5 198.5,-67.5 70.5,-67.5"/>
<text text-anchor="start" x="78.5" y="-85.5" font-family="Helvetica,sans-Serif" font-size="10.00">RayLib_SHMUP/include</text>
<text text-anchor="middle" x="134.5" y="-74.5" font-family="Helvetica,sans-Serif" font-size="10.00">/Shmup/Movable/Player.h</text>
</a>
</g>
</g>
<!-- Node1&#45;&gt;Node2 -->
<g id="edge1" class="edge">
<title>Node1&#45;&gt;Node2</title>
<path fill="none" stroke="midnightblue" d="M273.61,-131.09C242.94,-120.6 204.39,-107.41 175.65,-97.58"/>
<polygon fill="midnightblue" stroke="midnightblue" points="272.68,-134.47 283.27,-134.4 274.94,-127.85 272.68,-134.47"/>
</g>
<!-- Node4 -->
<g id="node4" class="node">
<title>Node4</title>
<g id="a_node4"><a xlink:href="../../d2/d82/_player_8cpp.html" target="_top" xlink:title=" ">
<polygon fill="white" stroke="black" points="157,-0.5 157,-30.5 296,-30.5 296,-0.5 157,-0.5"/>
<text text-anchor="start" x="165" y="-18.5" font-family="Helvetica,sans-Serif" font-size="10.00">RayLib_SHMUP/src/Shmup</text>
<text text-anchor="middle" x="226.5" y="-7.5" font-family="Helvetica,sans-Serif" font-size="10.00">/Movable/Player.cpp</text>
</a>
</g>
</g>
<!-- Node1&#45;&gt;Node4 -->
<g id="edge4" class="edge">
<title>Node1&#45;&gt;Node4</title>
<path fill="none" stroke="midnightblue" d="M282.64,-129.33C269.33,-121.37 255.69,-110.92 246.5,-98 232.06,-77.7 227.98,-48.16 226.87,-30.77"/>
<polygon fill="midnightblue" stroke="midnightblue" points="281.31,-132.6 291.75,-134.45 284.74,-126.5 281.31,-132.6"/>
</g>
<!-- Node5 -->
<g id="node5" class="node">
<title>Node5</title>
<g id="a_node5"><a xlink:href="../../d6/dae/_shoot_8cpp.html" target="_top" xlink:title=" ">
<polygon fill="white" stroke="black" points="255,-67.5 255,-97.5 394,-97.5 394,-67.5 255,-67.5"/>
<text text-anchor="start" x="263" y="-85.5" font-family="Helvetica,sans-Serif" font-size="10.00">RayLib_SHMUP/src/Shmup</text>
<text text-anchor="middle" x="324.5" y="-74.5" font-family="Helvetica,sans-Serif" font-size="10.00">/Movable/Shoot.cpp</text>
</a>
</g>
</g>
<!-- Node1&#45;&gt;Node5 -->
<g id="edge5" class="edge">
<title>Node1&#45;&gt;Node5</title>
<path fill="none" stroke="midnightblue" d="M324.5,-124.11C324.5,-115.15 324.5,-105.32 324.5,-97.58"/>
<polygon fill="midnightblue" stroke="midnightblue" points="321,-124.4 324.5,-134.4 328,-124.4 321,-124.4"/>
</g>
<!-- Node6 -->
<g id="node6" class="node">
<title>Node6</title>
<g id="a_node6"><a xlink:href="../../dc/dac/_patern_linear_8cpp.html" target="_top" xlink:title=" ">
<polygon fill="white" stroke="black" points="412.5,-67.5 412.5,-97.5 570.5,-97.5 570.5,-67.5 412.5,-67.5"/>
<text text-anchor="start" x="420.5" y="-85.5" font-family="Helvetica,sans-Serif" font-size="10.00">RayLib_SHMUP/src/Shmup</text>
<text text-anchor="middle" x="491.5" y="-74.5" font-family="Helvetica,sans-Serif" font-size="10.00">/Paterns/Shoot/PaternLinear.cpp</text>
</a>
</g>
</g>
<!-- Node1&#45;&gt;Node6 -->
<g id="edge6" class="edge">
<title>Node1&#45;&gt;Node6</title>
<path fill="none" stroke="midnightblue" d="M370.28,-130.68C397.06,-120.26 430.4,-107.28 455.33,-97.58"/>
<polygon fill="midnightblue" stroke="midnightblue" points="368.79,-127.51 360.74,-134.4 371.33,-134.03 368.79,-127.51"/>
</g>
<!-- Node7 -->
<g id="node7" class="node">
<title>Node7</title>
<g id="a_node7"><a xlink:href="../../db/db4/_patern_v_spread_8cpp.html" target="_top" xlink:title=" ">
<polygon fill="white" stroke="black" points="588,-67.5 588,-97.5 757,-97.5 757,-67.5 588,-67.5"/>
<text text-anchor="start" x="596" y="-85.5" font-family="Helvetica,sans-Serif" font-size="10.00">RayLib_SHMUP/src/Shmup</text>
<text text-anchor="middle" x="672.5" y="-74.5" font-family="Helvetica,sans-Serif" font-size="10.00">/Paterns/Shoot/PaternVSpread.cpp</text>
</a>
</g>
</g>
<!-- Node1&#45;&gt;Node7 -->
<g id="edge7" class="edge">
<title>Node1&#45;&gt;Node7</title>
<path fill="none" stroke="midnightblue" d="M397.46,-134.87C456.16,-123.91 538.33,-108.56 597.54,-97.5"/>
<polygon fill="midnightblue" stroke="midnightblue" points="396.71,-131.45 387.52,-136.73 397.99,-138.33 396.71,-131.45"/>
</g>
<!-- Node3 -->
<g id="node3" class="node">
<title>Node3</title>
<g id="a_node3"><a xlink:href="../../d2/d2e/_game_manager_8cpp.html" target="_top" xlink:title=" ">
<polygon fill="white" stroke="black" points="0,-0.5 0,-30.5 139,-30.5 139,-0.5 0,-0.5"/>
<text text-anchor="start" x="8" y="-18.5" font-family="Helvetica,sans-Serif" font-size="10.00">RayLib_SHMUP/src/Shmup</text>
<text text-anchor="middle" x="69.5" y="-7.5" font-family="Helvetica,sans-Serif" font-size="10.00">/GameManager.cpp</text>
</a>
</g>
</g>
<!-- Node2&#45;&gt;Node3 -->
<g id="edge2" class="edge">
<title>Node2&#45;&gt;Node3</title>
<path fill="none" stroke="midnightblue" d="M113.31,-60.31C103.56,-50.56 92.26,-39.26 83.58,-30.58"/>
<polygon fill="midnightblue" stroke="midnightblue" points="110.85,-62.8 120.4,-67.4 115.8,-57.85 110.85,-62.8"/>
</g>
<!-- Node2&#45;&gt;Node4 -->
<g id="edge3" class="edge">
<title>Node2&#45;&gt;Node4</title>
<path fill="none" stroke="midnightblue" d="M162.88,-61.45C177.03,-51.45 193.81,-39.6 206.58,-30.58"/>
<polygon fill="midnightblue" stroke="midnightblue" points="160.61,-58.77 154.46,-67.4 164.65,-64.48 160.61,-58.77"/>
</g>
</g>
</svg>
        <g id="navigator" transform="translate(0 0)" fill="#404254">
                <rect fill="#f2f5e9" fill-opacity="0.5" stroke="#606060" stroke-width=".5" x="0" y="0" width="60" height="60"/>
                <use id="zoomplus" xlink:href="#zoomPlus" x="17" y="9" onmousedown="handleZoom(evt,'in')"/>
                <use id="zoomminus" xlink:href="#zoomMin" x="42" y="9" onmousedown="handleZoom(evt,'out')"/>
                <use id="reset" xlink:href="#resetDef" x="30" y="36" onmousedown="handleReset()"/>
                <g id="arrowUp" xlink:href="#dirArrow" transform="translate(30 24)" onmousedown="handlePan(0,-1)">
                  <use xlink:href="#rim" fill="#404040">
                        <set attributeName="fill" to="#808080" begin="arrowUp.mouseover" end="arrowUp.mouseout"/>
                  </use>
                  <path fill="none" stroke="white" stroke-width="1.5" d="M0,-3.0v7 M-2.5,-0.5L0,-3.0L2.5,-0.5"/>
                </g>
                <g id="arrowRight" xlink:href="#dirArrow" transform="rotate(90) translate(36 -43)" onmousedown="handlePan(1,0)">
                  <use xlink:href="#rim" fill="#404040">
                        <set attributeName="fill" to="#808080" begin="arrowRight.mouseover" end="arrowRight.mouseout"/>
                  </use>
                  <path fill="none" stroke="white" stroke-width="1.5" d="M0,-3.0v7 M-2.5,-0.5L0,-3.0L2.5,-0.5"/>
                </g>
                <g id="arrowDown" xlink:href="#dirArrow" transform="rotate(180) translate(-30 -48)" onmousedown="handlePan(0,1)">
                  <use xlink:href="#rim" fill="#404040">
                        <set attributeName="fill" to="#808080" begin="arrowDown.mouseover" end="arrowDown.mouseout"/>
                  </use>
                  <path fill="none" stroke="white" stroke-width="1.5" d="M0,-3.0v7 M-2.5,-0.5L0,-3.0L2.5,-0.5"/>
                </g>
                <g id="arrowLeft" xlink:href="#dirArrow" transform="rotate(270) translate(-36 17)" onmousedown="handlePan(-1,0)">
                  <use xlink:href="#rim" fill="#404040">
                        <set attributeName="fill" to="#808080" begin="arrowLeft.mouseover" end="arrowLeft.mouseout"/>
                  </use>
                  <path fill="none" stroke="white" stroke-width="1.5" d="M0,-3.0v7 M-2.5,-0.5L0,-3.0L2.5,-0.5"/>
                </g>
        </g>
        <svg viewBox="0 0 15 15" width="100%" height="30px" preserveAspectRatio="xMaxYMin meet">
         <g id="arrow_out" transform="scale(0.3 0.3)">
          <a xlink:href="_shoot_8h__dep__incl_org.svg" target="_base">
           <rect id="button" ry="5" rx="5" y="6" x="6" height="38" width="38"
                fill="#f2f5e9" fill-opacity="0.5" stroke="#606060" stroke-width="1.0"/>
           <path id="arrow"
             d="M 11.500037,31.436501 C 11.940474,20.09759 22.043105,11.32322 32.158766,21.979434 L 37.068811,17.246167 C 37.068811,17.246167 37.088388,32 37.088388,32 L 22.160133,31.978069 C 22.160133,31.978069 26.997745,27.140456 26.997745,27.140456 C 18.528582,18.264221 13.291696,25.230495 11.500037,31.436501 z"
             style="fill:#404040;"/>
          </a>
         </g>
        </svg>
</svg>
