<?xml version="1.0" encoding="UTF-8" standalone="no"?>
<!DOCTYPE svg PUBLIC "-//W3C//DTD SVG 1.1//EN"
 "http://www.w3.org/Graphics/SVG/1.1/DTD/svg11.dtd">
<!-- Generated by graphviz version 2.49.3 (20211027.1534)
 -->
<!-- Title: RayLib_SHMUP/include/Shmup/Collision/Collider.h Pages: 1 -->
<svg width="1257pt" height="307pt"
 viewBox="0.00 0.00 1256.50 307.00" xmlns="http://www.w3.org/2000/svg" xmlns:xlink="http://www.w3.org/1999/xlink">
<g id="graph0" class="graph" transform="scale(1 1) rotate(0) translate(4 303)">
<title>RayLib_SHMUP/include/Shmup/Collision/Collider.h</title>
<polygon fill="white" stroke="transparent" points="-4,4 -4,-303 1252.5,-303 1252.5,4 -4,4"/>
<!-- Node1 -->
<g id="node1" class="node">
<title>Node1</title>
<g id="a_node1"><a xlink:title=" ">
<polygon fill="#bfbfbf" stroke="black" points="381.5,-268.5 381.5,-298.5 514.5,-298.5 514.5,-268.5 381.5,-268.5"/>
<text text-anchor="start" x="389.5" y="-286.5" font-family="Helvetica,sans-Serif" font-size="10.00">RayLib_SHMUP/include</text>
<text text-anchor="middle" x="448" y="-275.5" font-family="Helvetica,sans-Serif" font-size="10.00">/Shmup/Collision/Collider.h</text>
</a>
</g>
</g>
<!-- Node2 -->
<g id="node2" class="node">
<title>Node2</title>
<g id="a_node2"><a xlink:href="../../d3/d72/_a_collidable_8h.html" target="_top" xlink:title=" ">
<polygon fill="white" stroke="black" points="233.5,-201.5 233.5,-231.5 382.5,-231.5 382.5,-201.5 233.5,-201.5"/>
<text text-anchor="start" x="241.5" y="-219.5" font-family="Helvetica,sans-Serif" font-size="10.00">RayLib_SHMUP/include</text>
<text text-anchor="middle" x="308" y="-208.5" font-family="Helvetica,sans-Serif" font-size="10.00">/Shmup/Collision/ACollidable.h</text>
</a>
</g>
</g>
<!-- Node1&#45;&gt;Node2 -->
<g id="edge1" class="edge">
<title>Node1&#45;&gt;Node2</title>
<path fill="none" stroke="midnightblue" d="M408.43,-264.13C386.19,-253.8 358.85,-241.11 338.32,-231.58"/>
<polygon fill="midnightblue" stroke="midnightblue" points="407.08,-267.36 417.62,-268.4 410.03,-261.01 407.08,-267.36"/>
</g>
<!-- Node7 -->
<g id="node7" class="node">
<title>Node7</title>
<g id="a_node7"><a xlink:href="../../d4/d1e/_enemy_8h.html" target="_top" xlink:title=" ">
<polygon fill="white" stroke="black" points="341,-134.5 341,-164.5 471,-164.5 471,-134.5 341,-134.5"/>
<text text-anchor="start" x="349" y="-152.5" font-family="Helvetica,sans-Serif" font-size="10.00">RayLib_SHMUP/include</text>
<text text-anchor="middle" x="406" y="-141.5" font-family="Helvetica,sans-Serif" font-size="10.00">/Shmup/Movable/Enemy.h</text>
</a>
</g>
</g>
<!-- Node1&#45;&gt;Node7 -->
<g id="edge19" class="edge">
<title>Node1&#45;&gt;Node7</title>
<path fill="none" stroke="midnightblue" d="M440.44,-258.75C431.71,-231.29 417.61,-186.99 410.46,-164.52"/>
<polygon fill="midnightblue" stroke="midnightblue" points="437.14,-259.91 443.51,-268.37 443.81,-257.78 437.14,-259.91"/>
</g>
<!-- Node9 -->
<g id="node9" class="node">
<title>Node9</title>
<g id="a_node9"><a xlink:href="../../de/d15/_shoot_8h.html" target="_top" xlink:title=" ">
<polygon fill="white" stroke="black" points="655,-134.5 655,-164.5 781,-164.5 781,-134.5 655,-134.5"/>
<text text-anchor="start" x="663" y="-152.5" font-family="Helvetica,sans-Serif" font-size="10.00">RayLib_SHMUP/include</text>
<text text-anchor="middle" x="718" y="-141.5" font-family="Helvetica,sans-Serif" font-size="10.00">/Shmup/Movable/Shoot.h</text>
</a>
</g>
</g>
<!-- Node1&#45;&gt;Node9 -->
<g id="edge20" class="edge">
<title>Node1&#45;&gt;Node9</title>
<path fill="none" stroke="midnightblue" d="M447.09,-258.01C447.8,-239.79 451.9,-215.64 467,-201 493.24,-175.55 589.4,-161.95 654.78,-155.49"/>
<polygon fill="midnightblue" stroke="midnightblue" points="443.59,-258.16 447.01,-268.19 450.59,-258.22 443.59,-258.16"/>
</g>
<!-- Node15 -->
<g id="node15" class="node">
<title>Node15</title>
<g id="a_node15"><a xlink:href="../../dd/d3e/_collider_8cpp.html" target="_top" xlink:title=" ">
<polygon fill="white" stroke="black" points="476.5,-201.5 476.5,-231.5 615.5,-231.5 615.5,-201.5 476.5,-201.5"/>
<text text-anchor="start" x="484.5" y="-219.5" font-family="Helvetica,sans-Serif" font-size="10.00">RayLib_SHMUP/src/Shmup</text>
<text text-anchor="middle" x="546" y="-208.5" font-family="Helvetica,sans-Serif" font-size="10.00">/Collision/Collider.cpp</text>
</a>
</g>
</g>
<!-- Node1&#45;&gt;Node15 -->
<g id="edge21" class="edge">
<title>Node1&#45;&gt;Node15</title>
<path fill="none" stroke="midnightblue" d="M477.8,-262.73C492.97,-252.68 511.04,-240.68 524.78,-231.58"/>
<polygon fill="midnightblue" stroke="midnightblue" points="475.66,-259.95 469.26,-268.4 479.53,-265.79 475.66,-259.95"/>
</g>
<!-- Node16 -->
<g id="node16" class="node">
<title>Node16</title>
<g id="a_node16"><a xlink:href="../../d1/d01/_collider_calculation_8cpp.html" target="_top" xlink:title=" ">
<polygon fill="white" stroke="black" points="634,-201.5 634,-231.5 792,-231.5 792,-201.5 634,-201.5"/>
<text text-anchor="start" x="642" y="-219.5" font-family="Helvetica,sans-Serif" font-size="10.00">RayLib_SHMUP/src/Shmup</text>
<text text-anchor="middle" x="713" y="-208.5" font-family="Helvetica,sans-Serif" font-size="10.00">/Collision/ColliderCalculation.cpp</text>
</a>
</g>
</g>
<!-- Node1&#45;&gt;Node16 -->
<g id="edge22" class="edge">
<title>Node1&#45;&gt;Node16</title>
<path fill="none" stroke="midnightblue" d="M515.06,-266.05C558.38,-255.43 614.17,-241.74 655.47,-231.61"/>
<polygon fill="midnightblue" stroke="midnightblue" points="514.05,-262.69 505.17,-268.48 515.72,-269.49 514.05,-262.69"/>
</g>
<!-- Node3 -->
<g id="node3" class="node">
<title>Node3</title>
<g id="a_node3"><a xlink:href="../../d7/d3e/_collision_manager_8h.html" target="_top" xlink:title=" ">
<polygon fill="white" stroke="black" points="104.5,-134.5 104.5,-164.5 279.5,-164.5 279.5,-134.5 104.5,-134.5"/>
<text text-anchor="start" x="112.5" y="-152.5" font-family="Helvetica,sans-Serif" font-size="10.00">RayLib_SHMUP/include</text>
<text text-anchor="middle" x="192" y="-141.5" font-family="Helvetica,sans-Serif" font-size="10.00">/Shmup/Collision/CollisionManager.h</text>
</a>
</g>
</g>
<!-- Node2&#45;&gt;Node3 -->
<g id="edge2" class="edge">
<title>Node2&#45;&gt;Node3</title>
<path fill="none" stroke="midnightblue" d="M273.73,-196.3C255.58,-186.12 233.68,-173.85 217.12,-164.58"/>
<polygon fill="midnightblue" stroke="midnightblue" points="272.4,-199.56 282.83,-201.4 275.82,-193.45 272.4,-199.56"/>
</g>
<!-- Node4 -->
<g id="node4" class="node">
<title>Node4</title>
<g id="a_node4"><a xlink:href="../../d9/d84/_a_collidable_8cpp.html" target="_top" xlink:title=" ">
<polygon fill="white" stroke="black" points="208.5,-67.5 208.5,-97.5 347.5,-97.5 347.5,-67.5 208.5,-67.5"/>
<text text-anchor="start" x="216.5" y="-85.5" font-family="Helvetica,sans-Serif" font-size="10.00">RayLib_SHMUP/src/Shmup</text>
<text text-anchor="middle" x="278" y="-74.5" font-family="Helvetica,sans-Serif" font-size="10.00">/Collision/ACollidable.cpp</text>
</a>
</g>
</g>
<!-- Node2&#45;&gt;Node4 -->
<g id="edge17" class="edge">
<title>Node2&#45;&gt;Node4</title>
<path fill="none" stroke="midnightblue" d="M302.52,-191.39C296.27,-163.9 286.27,-119.89 281.19,-97.52"/>
<polygon fill="midnightblue" stroke="midnightblue" points="299.16,-192.4 304.79,-201.37 305.99,-190.85 299.16,-192.4"/>
</g>
<!-- Node5 -->
<g id="node5" class="node">
<title>Node5</title>
<g id="a_node5"><a xlink:href="../../df/db7/_collision_manager_8cpp.html" target="_top" xlink:title=" ">
<polygon fill="white" stroke="black" points="0,-67.5 0,-97.5 152,-97.5 152,-67.5 0,-67.5"/>
<text text-anchor="start" x="8" y="-85.5" font-family="Helvetica,sans-Serif" font-size="10.00">RayLib_SHMUP/src/Shmup</text>
<text text-anchor="middle" x="76" y="-74.5" font-family="Helvetica,sans-Serif" font-size="10.00">/Collision/CollisionManager.cpp</text>
</a>
</g>
</g>
<!-- Node2&#45;&gt;Node5 -->
<g id="edge18" class="edge">
<title>Node2&#45;&gt;Node5</title>
<path fill="none" stroke="midnightblue" d="M223.16,-204.63C171.96,-196.36 113.2,-183.27 95,-165 77.16,-147.09 74.79,-115.88 75.11,-97.72"/>
<polygon fill="midnightblue" stroke="midnightblue" points="222.86,-208.12 233.28,-206.22 223.95,-201.21 222.86,-208.12"/>
</g>
<!-- Node2&#45;&gt;Node7 -->
<g id="edge6" class="edge">
<title>Node2&#45;&gt;Node7</title>
<path fill="none" stroke="midnightblue" d="M337.8,-195.73C352.97,-185.68 371.04,-173.68 384.78,-164.58"/>
<polygon fill="midnightblue" stroke="midnightblue" points="335.66,-192.95 329.26,-201.4 339.53,-198.79 335.66,-192.95"/>
</g>
<!-- Node2&#45;&gt;Node9 -->
<g id="edge9" class="edge">
<title>Node2&#45;&gt;Node9</title>
<path fill="none" stroke="midnightblue" d="M393,-202.02C470.98,-189.66 584.69,-171.63 654.88,-160.51"/>
<polygon fill="midnightblue" stroke="midnightblue" points="392.05,-198.63 382.72,-203.65 393.15,-205.54 392.05,-198.63"/>
</g>
<!-- Node3&#45;&gt;Node4 -->
<g id="edge3" class="edge">
<title>Node3&#45;&gt;Node4</title>
<path fill="none" stroke="midnightblue" d="M218.9,-128.17C232.05,-118.23 247.55,-106.51 259.38,-97.58"/>
<polygon fill="midnightblue" stroke="midnightblue" points="216.53,-125.57 210.66,-134.4 220.75,-131.16 216.53,-125.57"/>
</g>
<!-- Node3&#45;&gt;Node5 -->
<g id="edge4" class="edge">
<title>Node3&#45;&gt;Node5</title>
<path fill="none" stroke="midnightblue" d="M157.73,-129.3C139.58,-119.12 117.68,-106.85 101.12,-97.58"/>
<polygon fill="midnightblue" stroke="midnightblue" points="156.4,-132.56 166.83,-134.4 159.82,-126.45 156.4,-132.56"/>
</g>
<!-- Node6 -->
<g id="node6" class="node">
<title>Node6</title>
<g id="a_node6"><a xlink:href="../../d2/d2e/_game_manager_8cpp.html" target="_top" xlink:title=" ">
<polygon fill="white" stroke="black" points="306.5,-0.5 306.5,-30.5 445.5,-30.5 445.5,-0.5 306.5,-0.5"/>
<text text-anchor="start" x="314.5" y="-18.5" font-family="Helvetica,sans-Serif" font-size="10.00">RayLib_SHMUP/src/Shmup</text>
<text text-anchor="middle" x="376" y="-7.5" font-family="Helvetica,sans-Serif" font-size="10.00">/GameManager.cpp</text>
</a>
</g>
</g>
<!-- Node3&#45;&gt;Node6 -->
<g id="edge5" class="edge">
<title>Node3&#45;&gt;Node6</title>
<path fill="none" stroke="midnightblue" d="M187.38,-124.39C185.41,-106.58 186,-82.78 199,-67 212.97,-50.05 263,-36.74 306.32,-28.05"/>
<polygon fill="midnightblue" stroke="midnightblue" points="183.92,-124.93 188.8,-134.33 190.85,-123.94 183.92,-124.93"/>
</g>
<!-- Node7&#45;&gt;Node6 -->
<g id="edge7" class="edge">
<title>Node7&#45;&gt;Node6</title>
<path fill="none" stroke="midnightblue" d="M400.52,-124.39C394.27,-96.9 384.27,-52.89 379.19,-30.52"/>
<polygon fill="midnightblue" stroke="midnightblue" points="397.16,-125.4 402.79,-134.37 403.99,-123.85 397.16,-125.4"/>
</g>
<!-- Node8 -->
<g id="node8" class="node">
<title>Node8</title>
<g id="a_node8"><a xlink:href="../../de/d34/_enemy_8cpp.html" target="_top" xlink:title=" ">
<polygon fill="white" stroke="black" points="404.5,-67.5 404.5,-97.5 543.5,-97.5 543.5,-67.5 404.5,-67.5"/>
<text text-anchor="start" x="412.5" y="-85.5" font-family="Helvetica,sans-Serif" font-size="10.00">RayLib_SHMUP/src/Shmup</text>
<text text-anchor="middle" x="474" y="-74.5" font-family="Helvetica,sans-Serif" font-size="10.00">/Movable/Enemy.cpp</text>
</a>
</g>
</g>
<!-- Node7&#45;&gt;Node8 -->
<g id="edge8" class="edge">
<title>Node7&#45;&gt;Node8</title>
<path fill="none" stroke="midnightblue" d="M428.17,-127.31C438.37,-117.56 450.19,-106.26 459.27,-97.58"/>
<polygon fill="midnightblue" stroke="midnightblue" points="425.57,-124.96 420.75,-134.4 430.4,-130.02 425.57,-124.96"/>
</g>
<!-- Node10 -->
<g id="node10" class="node">
<title>Node10</title>
<g id="a_node10"><a xlink:href="../../d1/d39/_player_8h.html" target="_top" xlink:title=" ">
<polygon fill="white" stroke="black" points="562,-67.5 562,-97.5 690,-97.5 690,-67.5 562,-67.5"/>
<text text-anchor="start" x="570" y="-85.5" font-family="Helvetica,sans-Serif" font-size="10.00">RayLib_SHMUP/include</text>
<text text-anchor="middle" x="626" y="-74.5" font-family="Helvetica,sans-Serif" font-size="10.00">/Shmup/Movable/Player.h</text>
</a>
</g>
</g>
<!-- Node9&#45;&gt;Node10 -->
<g id="edge10" class="edge">
<title>Node9&#45;&gt;Node10</title>
<path fill="none" stroke="midnightblue" d="M689.62,-128.45C675.47,-118.45 658.69,-106.6 645.92,-97.58"/>
<polygon fill="midnightblue" stroke="midnightblue" points="687.85,-131.48 698.04,-134.4 691.89,-125.77 687.85,-131.48"/>
</g>
<!-- Node11 -->
<g id="node11" class="node">
<title>Node11</title>
<g id="a_node11"><a xlink:href="../../d2/d82/_player_8cpp.html" target="_top" xlink:title=" ">
<polygon fill="white" stroke="black" points="602.5,-0.5 602.5,-30.5 741.5,-30.5 741.5,-0.5 602.5,-0.5"/>
<text text-anchor="start" x="610.5" y="-18.5" font-family="Helvetica,sans-Serif" font-size="10.00">RayLib_SHMUP/src/Shmup</text>
<text text-anchor="middle" x="672" y="-7.5" font-family="Helvetica,sans-Serif" font-size="10.00">/Movable/Player.cpp</text>
</a>
</g>
</g>
<!-- Node9&#45;&gt;Node11 -->
<g id="edge13" class="edge">
<title>Node9&#45;&gt;Node11</title>
<path fill="none" stroke="midnightblue" d="M714.1,-124.41C711.02,-107.92 706.05,-85.74 699,-67 694.17,-54.16 686.7,-40.49 680.84,-30.61"/>
<polygon fill="midnightblue" stroke="midnightblue" points="710.67,-125.09 715.86,-134.33 717.56,-123.87 710.67,-125.09"/>
</g>
<!-- Node12 -->
<g id="node12" class="node">
<title>Node12</title>
<g id="a_node12"><a xlink:href="../../d6/dae/_shoot_8cpp.html" target="_top" xlink:title=" ">
<polygon fill="white" stroke="black" points="746.5,-67.5 746.5,-97.5 885.5,-97.5 885.5,-67.5 746.5,-67.5"/>
<text text-anchor="start" x="754.5" y="-85.5" font-family="Helvetica,sans-Serif" font-size="10.00">RayLib_SHMUP/src/Shmup</text>
<text text-anchor="middle" x="816" y="-74.5" font-family="Helvetica,sans-Serif" font-size="10.00">/Movable/Shoot.cpp</text>
</a>
</g>
</g>
<!-- Node9&#45;&gt;Node12 -->
<g id="edge14" class="edge">
<title>Node9&#45;&gt;Node12</title>
<path fill="none" stroke="midnightblue" d="M747.8,-128.73C762.97,-118.68 781.04,-106.68 794.78,-97.58"/>
<polygon fill="midnightblue" stroke="midnightblue" points="745.66,-125.95 739.26,-134.4 749.53,-131.79 745.66,-125.95"/>
</g>
<!-- Node13 -->
<g id="node13" class="node">
<title>Node13</title>
<g id="a_node13"><a xlink:href="../../dc/dac/_patern_linear_8cpp.html" target="_top" xlink:title=" ">
<polygon fill="white" stroke="black" points="904,-67.5 904,-97.5 1062,-97.5 1062,-67.5 904,-67.5"/>
<text text-anchor="start" x="912" y="-85.5" font-family="Helvetica,sans-Serif" font-size="10.00">RayLib_SHMUP/src/Shmup</text>
<text text-anchor="middle" x="983" y="-74.5" font-family="Helvetica,sans-Serif" font-size="10.00">/Paterns/Shoot/PaternLinear.cpp</text>
</a>
</g>
</g>
<!-- Node9&#45;&gt;Node13 -->
<g id="edge15" class="edge">
<title>Node9&#45;&gt;Node13</title>
<path fill="none" stroke="midnightblue" d="M785.06,-132.05C828.38,-121.43 884.17,-107.74 925.47,-97.61"/>
<polygon fill="midnightblue" stroke="midnightblue" points="784.05,-128.69 775.17,-134.48 785.72,-135.49 784.05,-128.69"/>
</g>
<!-- Node14 -->
<g id="node14" class="node">
<title>Node14</title>
<g id="a_node14"><a xlink:href="../../db/db4/_patern_v_spread_8cpp.html" target="_top" xlink:title=" ">
<polygon fill="white" stroke="black" points="1079.5,-67.5 1079.5,-97.5 1248.5,-97.5 1248.5,-67.5 1079.5,-67.5"/>
<text text-anchor="start" x="1087.5" y="-85.5" font-family="Helvetica,sans-Serif" font-size="10.00">RayLib_SHMUP/src/Shmup</text>
<text text-anchor="middle" x="1164" y="-74.5" font-family="Helvetica,sans-Serif" font-size="10.00">/Paterns/Shoot/PaternVSpread.cpp</text>
</a>
</g>
</g>
<!-- Node9&#45;&gt;Node14 -->
<g id="edge16" class="edge">
<title>Node9&#45;&gt;Node14</title>
<path fill="none" stroke="midnightblue" d="M791.4,-138.27C862.83,-128.26 974.42,-112.44 1071,-98 1073.75,-97.59 1076.54,-97.17 1079.36,-96.74"/>
<polygon fill="midnightblue" stroke="midnightblue" points="790.58,-134.85 781.16,-139.71 791.55,-141.79 790.58,-134.85"/>
</g>
<!-- Node10&#45;&gt;Node6 -->
<g id="edge11" class="edge">
<title>Node10&#45;&gt;Node6</title>
<path fill="none" stroke="midnightblue" d="M562.22,-64.92C521.42,-54.31 469.07,-40.7 430.27,-30.61"/>
<polygon fill="midnightblue" stroke="midnightblue" points="561.5,-68.35 572.06,-67.48 563.26,-61.57 561.5,-68.35"/>
</g>
<!-- Node10&#45;&gt;Node11 -->
<g id="edge12" class="edge">
<title>Node10&#45;&gt;Node11</title>
<path fill="none" stroke="midnightblue" d="M641.81,-59.16C648.52,-49.68 656.13,-38.92 662.04,-30.58"/>
<polygon fill="midnightblue" stroke="midnightblue" points="638.9,-57.21 635.98,-67.4 644.62,-61.26 638.9,-57.21"/>
</g>
</g>
</svg>
