<?xml version="1.0" encoding="UTF-8" standalone="no"?>
<!DOCTYPE svg PUBLIC "-//W3C//DTD SVG 1.1//EN"
 "http://www.w3.org/Graphics/SVG/1.1/DTD/svg11.dtd">
<!-- Generated by graphviz version 2.49.3 (20211027.1534)
 -->
<!-- Title: RayLib_SHMUP/src/Shmup/Collision/ACollidable.cpp Pages: 1 -->
<svg width="482pt" height="341pt"
 viewBox="0.00 0.00 482.19 341.00" xmlns="http://www.w3.org/2000/svg" xmlns:xlink="http://www.w3.org/1999/xlink">
<g id="graph0" class="graph" transform="scale(1 1) rotate(0) translate(4 337)">
<title>RayLib_SHMUP/src/Shmup/Collision/ACollidable.cpp</title>
<polygon fill="white" stroke="transparent" points="-4,4 -4,-337 478.19,-337 478.19,4 -4,4"/>
<!-- Node1 -->
<g id="node1" class="node">
<title>Node1</title>
<g id="a_node1"><a xlink:title=" ">
<polygon fill="#bfbfbf" stroke="black" points="184.69,-302.5 184.69,-332.5 323.69,-332.5 323.69,-302.5 184.69,-302.5"/>
<text text-anchor="start" x="192.69" y="-320.5" font-family="Helvetica,sans-Serif" font-size="10.00">RayLib_SHMUP/src/Shmup</text>
<text text-anchor="middle" x="254.19" y="-309.5" font-family="Helvetica,sans-Serif" font-size="10.00">/Collision/ACollidable.cpp</text>
</a>
</g>
</g>
<!-- Node2 -->
<g id="node2" class="node">
<title>Node2</title>
<g id="a_node2"><a xlink:href="../../d3/d72/_a_collidable_8h.html" target="_top" xlink:title=" ">
<polygon fill="white" stroke="black" points="64.19,-179.5 64.19,-198.5 210.19,-198.5 210.19,-179.5 64.19,-179.5"/>
<text text-anchor="middle" x="137.19" y="-186.5" font-family="Helvetica,sans-Serif" font-size="10.00">Shmup/Collision/ACollidable.h</text>
</a>
</g>
</g>
<!-- Node1&#45;&gt;Node2 -->
<g id="edge1" class="edge">
<title>Node1&#45;&gt;Node2</title>
<path fill="none" stroke="midnightblue" d="M228.07,-302.33C213.1,-293.32 194.67,-280.61 181.19,-266 165.25,-248.72 152.55,-224.68 144.97,-208.29"/>
<polygon fill="midnightblue" stroke="midnightblue" points="148,-206.5 140.74,-198.78 141.6,-209.34 148,-206.5"/>
</g>
<!-- Node10 -->
<g id="node10" class="node">
<title>Node10</title>
<g id="a_node10"><a xlink:href="../../d7/d3e/_collision_manager_8h.html" target="_top" xlink:title=" ">
<polygon fill="white" stroke="black" points="190.69,-235.5 190.69,-265.5 317.69,-265.5 317.69,-235.5 190.69,-235.5"/>
<text text-anchor="start" x="198.69" y="-253.5" font-family="Helvetica,sans-Serif" font-size="10.00">Shmup/Collision/Collision</text>
<text text-anchor="middle" x="254.19" y="-242.5" font-family="Helvetica,sans-Serif" font-size="10.00">Manager.h</text>
</a>
</g>
</g>
<!-- Node1&#45;&gt;Node10 -->
<g id="edge11" class="edge">
<title>Node1&#45;&gt;Node10</title>
<path fill="none" stroke="midnightblue" d="M254.19,-302.4C254.19,-294.64 254.19,-284.81 254.19,-275.86"/>
<polygon fill="midnightblue" stroke="midnightblue" points="257.69,-275.58 254.19,-265.58 250.69,-275.58 257.69,-275.58"/>
</g>
<!-- Node12 -->
<g id="node12" class="node">
<title>Node12</title>
<g id="a_node12"><a xlink:href="../../d8/d97/_instance_list_8hpp.html" target="_top" xlink:title=" ">
<polygon fill="white" stroke="black" points="352.19,-241 352.19,-260 474.19,-260 474.19,-241 352.19,-241"/>
<text text-anchor="middle" x="413.19" y="-248" font-family="Helvetica,sans-Serif" font-size="10.00">Shmup/InstanceList.hpp</text>
</a>
</g>
</g>
<!-- Node1&#45;&gt;Node12 -->
<g id="edge16" class="edge">
<title>Node1&#45;&gt;Node12</title>
<path fill="none" stroke="midnightblue" d="M288.69,-302.4C316.84,-290.89 356.2,-274.8 383.09,-263.81"/>
<polygon fill="midnightblue" stroke="midnightblue" points="384.45,-267.03 392.38,-260.01 381.8,-260.55 384.45,-267.03"/>
</g>
<!-- Node3 -->
<g id="node3" class="node">
<title>Node3</title>
<g id="a_node3"><a xlink:href="../../d5/d36/_collider_8h.html" target="_top" xlink:title=" ">
<polygon fill="white" stroke="black" points="39.19,-123.5 39.19,-142.5 169.19,-142.5 169.19,-123.5 39.19,-123.5"/>
<text text-anchor="middle" x="104.19" y="-130.5" font-family="Helvetica,sans-Serif" font-size="10.00">Shmup/Collision/Collider.h</text>
</a>
</g>
</g>
<!-- Node2&#45;&gt;Node3 -->
<g id="edge2" class="edge">
<title>Node2&#45;&gt;Node3</title>
<path fill="none" stroke="midnightblue" d="M131.74,-179.08C127.18,-171.61 120.52,-160.72 114.9,-151.52"/>
<polygon fill="midnightblue" stroke="midnightblue" points="117.74,-149.46 109.54,-142.75 111.77,-153.11 117.74,-149.46"/>
</g>
<!-- Node8 -->
<g id="node8" class="node">
<title>Node8</title>
<g id="a_node8"><a xlink:href="../../dc/d80/_instance_list_8h.html" target="_top" xlink:title=" ">
<polygon fill="white" stroke="black" points="266.19,-123.5 266.19,-142.5 378.19,-142.5 378.19,-123.5 266.19,-123.5"/>
<text text-anchor="middle" x="322.19" y="-130.5" font-family="Helvetica,sans-Serif" font-size="10.00">Shmup/InstanceList.h</text>
</a>
</g>
</g>
<!-- Node2&#45;&gt;Node8 -->
<g id="edge8" class="edge">
<title>Node2&#45;&gt;Node8</title>
<path fill="none" stroke="midnightblue" d="M166.51,-179.44C198.03,-170.24 248.32,-155.56 283.18,-145.39"/>
<polygon fill="midnightblue" stroke="midnightblue" points="284.4,-148.68 293.02,-142.52 282.44,-141.96 284.4,-148.68"/>
</g>
<!-- Node4 -->
<g id="node4" class="node">
<title>Node4</title>
<g id="a_node4"><a xlink:title=" ">
<polygon fill="white" stroke="#bfbfbf" points="5.69,-0.5 5.69,-19.5 52.69,-19.5 52.69,-0.5 5.69,-0.5"/>
<text text-anchor="middle" x="29.19" y="-7.5" font-family="Helvetica,sans-Serif" font-size="10.00">raylib.h</text>
</a>
</g>
</g>
<!-- Node3&#45;&gt;Node4 -->
<g id="edge3" class="edge">
<title>Node3&#45;&gt;Node4</title>
<path fill="none" stroke="midnightblue" d="M60.19,-123.44C39.79,-117.03 17.41,-105.97 5.19,-87 -6.58,-68.72 5.15,-44.24 15.96,-28.06"/>
<polygon fill="midnightblue" stroke="midnightblue" points="19.04,-29.77 22.03,-19.61 13.35,-25.69 19.04,-29.77"/>
</g>
<!-- Node5 -->
<g id="node5" class="node">
<title>Node5</title>
<g id="a_node5"><a xlink:href="../../da/d02/_transform2_d_8h.html" target="_top" xlink:title=" ">
<polygon fill="white" stroke="black" points="14.19,-62 14.19,-81 128.19,-81 128.19,-62 14.19,-62"/>
<text text-anchor="middle" x="71.19" y="-69" font-family="Helvetica,sans-Serif" font-size="10.00">Shmup/Transform2D.h</text>
</a>
</g>
</g>
<!-- Node3&#45;&gt;Node5 -->
<g id="edge4" class="edge">
<title>Node3&#45;&gt;Node5</title>
<path fill="none" stroke="midnightblue" d="M99.46,-123.48C94.61,-114.73 86.93,-100.87 80.79,-89.81"/>
<polygon fill="midnightblue" stroke="midnightblue" points="83.82,-88.06 75.91,-81.01 77.7,-91.45 83.82,-88.06"/>
</g>
<!-- Node6 -->
<g id="node6" class="node">
<title>Node6</title>
<g id="a_node6"><a xlink:href="../../de/d60/_collider_settings_8h.html" target="_top" xlink:title=" ">
<polygon fill="white" stroke="black" points="146.19,-56.5 146.19,-86.5 268.19,-86.5 268.19,-56.5 146.19,-56.5"/>
<text text-anchor="start" x="154.19" y="-74.5" font-family="Helvetica,sans-Serif" font-size="10.00">Shmup/Collision/Collider</text>
<text text-anchor="middle" x="207.19" y="-63.5" font-family="Helvetica,sans-Serif" font-size="10.00">Settings.h</text>
</a>
</g>
</g>
<!-- Node3&#45;&gt;Node6 -->
<g id="edge6" class="edge">
<title>Node3&#45;&gt;Node6</title>
<path fill="none" stroke="midnightblue" d="M118.95,-123.48C133.29,-115.19 155.56,-102.32 174.14,-91.59"/>
<polygon fill="midnightblue" stroke="midnightblue" points="176.01,-94.56 182.92,-86.52 172.51,-88.49 176.01,-94.56"/>
</g>
<!-- Node5&#45;&gt;Node4 -->
<g id="edge5" class="edge">
<title>Node5&#45;&gt;Node4</title>
<path fill="none" stroke="midnightblue" d="M65.17,-61.98C58.94,-53.14 49.02,-39.09 41.17,-27.98"/>
<polygon fill="midnightblue" stroke="midnightblue" points="43.82,-25.66 35.2,-19.51 38.11,-29.7 43.82,-25.66"/>
</g>
<!-- Node7 -->
<g id="node7" class="node">
<title>Node7</title>
<g id="a_node7"><a xlink:title=" ">
<polygon fill="white" stroke="#bfbfbf" points="346.19,-0.5 346.19,-19.5 390.19,-19.5 390.19,-0.5 346.19,-0.5"/>
<text text-anchor="middle" x="368.19" y="-7.5" font-family="Helvetica,sans-Serif" font-size="10.00">vector</text>
</a>
</g>
</g>
<!-- Node6&#45;&gt;Node7 -->
<g id="edge7" class="edge">
<title>Node6&#45;&gt;Node7</title>
<path fill="none" stroke="midnightblue" d="M245.35,-56.4C273.22,-46.1 310.55,-32.3 336.72,-22.63"/>
<polygon fill="midnightblue" stroke="midnightblue" points="338,-25.89 346.16,-19.14 335.57,-19.33 338,-25.89"/>
</g>
<!-- Node8&#45;&gt;Node7 -->
<g id="edge10" class="edge">
<title>Node8&#45;&gt;Node7</title>
<path fill="none" stroke="midnightblue" d="M328.38,-123.44C334.46,-114.68 343.61,-100.47 349.19,-87 356.98,-68.19 362.16,-45.4 365.11,-29.71"/>
<polygon fill="midnightblue" stroke="midnightblue" points="368.59,-30.15 366.88,-19.7 361.7,-28.94 368.59,-30.15"/>
</g>
<!-- Node9 -->
<g id="node9" class="node">
<title>Node9</title>
<g id="a_node9"><a xlink:title=" ">
<polygon fill="white" stroke="#bfbfbf" points="286.19,-62 286.19,-81 340.19,-81 340.19,-62 286.19,-62"/>
<text text-anchor="middle" x="313.19" y="-69" font-family="Helvetica,sans-Serif" font-size="10.00">iostream</text>
</a>
</g>
</g>
<!-- Node8&#45;&gt;Node9 -->
<g id="edge9" class="edge">
<title>Node8&#45;&gt;Node9</title>
<path fill="none" stroke="midnightblue" d="M320.9,-123.48C319.63,-115.08 317.65,-101.98 316.02,-91.16"/>
<polygon fill="midnightblue" stroke="midnightblue" points="319.44,-90.37 314.48,-81.01 312.51,-91.42 319.44,-90.37"/>
</g>
<!-- Node10&#45;&gt;Node2 -->
<g id="edge15" class="edge">
<title>Node10&#45;&gt;Node2</title>
<path fill="none" stroke="midnightblue" d="M226.46,-235.4C207.36,-225.68 182.13,-212.86 163.37,-203.31"/>
<polygon fill="midnightblue" stroke="midnightblue" points="164.72,-200.07 154.22,-198.66 161.54,-206.31 164.72,-200.07"/>
</g>
<!-- Node10&#45;&gt;Node6 -->
<g id="edge14" class="edge">
<title>Node10&#45;&gt;Node6</title>
<path fill="none" stroke="midnightblue" d="M250.43,-235.31C242.42,-205.15 223.61,-134.34 213.65,-96.82"/>
<polygon fill="midnightblue" stroke="midnightblue" points="216.93,-95.52 210.98,-86.75 210.16,-97.32 216.93,-95.52"/>
</g>
<!-- Node10&#45;&gt;Node7 -->
<g id="edge12" class="edge">
<title>Node10&#45;&gt;Node7</title>
<path fill="none" stroke="midnightblue" d="M284.65,-235.37C316.92,-218.52 366.06,-187 387.19,-143 405.33,-105.23 388.33,-54.89 376.81,-28.63"/>
<polygon fill="midnightblue" stroke="midnightblue" points="379.97,-27.14 372.6,-19.54 373.62,-30.08 379.97,-27.14"/>
</g>
<!-- Node11 -->
<g id="node11" class="node">
<title>Node11</title>
<g id="a_node11"><a xlink:title=" ">
<polygon fill="white" stroke="#bfbfbf" points="266.69,-179.5 266.69,-198.5 301.69,-198.5 301.69,-179.5 266.69,-179.5"/>
<text text-anchor="middle" x="284.19" y="-186.5" font-family="Helvetica,sans-Serif" font-size="10.00">map</text>
</a>
</g>
</g>
<!-- Node10&#45;&gt;Node11 -->
<g id="edge13" class="edge">
<title>Node10&#45;&gt;Node11</title>
<path fill="none" stroke="midnightblue" d="M261.3,-235.4C265.48,-227.11 270.8,-216.55 275.26,-207.71"/>
<polygon fill="midnightblue" stroke="midnightblue" points="278.45,-209.16 279.83,-198.66 272.2,-206.01 278.45,-209.16"/>
</g>
<!-- Node12&#45;&gt;Node8 -->
<g id="edge17" class="edge">
<title>Node12&#45;&gt;Node8</title>
<path fill="none" stroke="midnightblue" d="M406.35,-240.82C391.33,-221.76 355.24,-175.95 335.55,-150.96"/>
<polygon fill="midnightblue" stroke="midnightblue" points="338.05,-148.47 329.11,-142.78 332.55,-152.8 338.05,-148.47"/>
</g>
</g>
</svg>
