<?xml version="1.0" encoding="UTF-8" standalone="no"?>
<!DOCTYPE svg PUBLIC "-//W3C//DTD SVG 1.1//EN"
 "http://www.w3.org/Graphics/SVG/1.1/DTD/svg11.dtd">
<!-- Generated by graphviz version 2.49.3 (20211027.1534)
 -->
<!-- Title: AMovable Pages: 1 -->
<svg width="509pt" height="241pt"
 viewBox="0.00 0.00 508.50 241.00" xmlns="http://www.w3.org/2000/svg" xmlns:xlink="http://www.w3.org/1999/xlink">
<g id="graph0" class="graph" transform="scale(1 1) rotate(0) translate(4 237)">
<title>AMovable</title>
<polygon fill="white" stroke="transparent" points="-4,4 -4,-237 504.5,-237 504.5,4 -4,4"/>
<!-- Node1 -->
<g id="node1" class="node">
<title>Node1</title>
<g id="a_node1"><a xlink:title=" ">
<polygon fill="#bfbfbf" stroke="black" points="113.5,-0.5 113.5,-19.5 173.5,-19.5 173.5,-0.5 113.5,-0.5"/>
<text text-anchor="middle" x="143.5" y="-7.5" font-family="Helvetica,sans-Serif" font-size="10.00">AMovable</text>
</a>
</g>
</g>
<!-- Node2 -->
<g id="node2" class="node">
<title>Node2</title>
<g id="a_node2"><a xlink:href="../../d3/d92/class_a_graphic_object.html" target="_top" xlink:title="An object that can be drawn and updated">
<polygon fill="white" stroke="black" points="201.5,-57.5 201.5,-76.5 287.5,-76.5 287.5,-57.5 201.5,-57.5"/>
<text text-anchor="middle" x="244.5" y="-64.5" font-family="Helvetica,sans-Serif" font-size="10.00">AGraphicObject</text>
</a>
</g>
</g>
<!-- Node2&#45;&gt;Node1 -->
<g id="edge1" class="edge">
<title>Node2&#45;&gt;Node1</title>
<path fill="none" stroke="midnightblue" d="M219.77,-52.54C200.86,-42.24 175.36,-28.35 159.17,-19.53"/>
<polygon fill="midnightblue" stroke="midnightblue" points="218.26,-55.7 228.72,-57.41 221.61,-49.55 218.26,-55.7"/>
</g>
<!-- Node3 -->
<g id="node3" class="node">
<title>Node3</title>
<g id="a_node3"><a xlink:href="../../db/d70/class_instance_list.html" target="_top" xlink:title=" ">
<polygon fill="white" stroke="black" points="186.5,-146.5 186.5,-165.5 342.5,-165.5 342.5,-146.5 186.5,-146.5"/>
<text text-anchor="middle" x="264.5" y="-153.5" font-family="Helvetica,sans-Serif" font-size="10.00">InstanceList&lt; AGraphicObject &gt;</text>
</a>
</g>
</g>
<!-- Node3&#45;&gt;Node2 -->
<g id="edge2" class="edge">
<title>Node3&#45;&gt;Node2</title>
<path fill="none" stroke="midnightblue" d="M260.24,-136.46C255.99,-118 249.67,-90.48 246.48,-76.62"/>
<polygon fill="midnightblue" stroke="midnightblue" points="256.86,-137.38 262.51,-146.34 263.68,-135.81 256.86,-137.38"/>
</g>
<!-- Node4 -->
<g id="node4" class="node">
<title>Node4</title>
<g id="a_node4"><a xlink:href="../../db/d70/class_instance_list.html" target="_top" xlink:title="Add a static list for the class T">
<polygon fill="white" stroke="black" points="218,-213.5 218,-232.5 311,-232.5 311,-213.5 218,-213.5"/>
<text text-anchor="middle" x="264.5" y="-220.5" font-family="Helvetica,sans-Serif" font-size="10.00">InstanceList&lt; T &gt;</text>
</a>
</g>
</g>
<!-- Node4&#45;&gt;Node3 -->
<g id="edge3" class="edge">
<title>Node4&#45;&gt;Node3</title>
<path fill="none" stroke="orange" stroke-dasharray="5,2" d="M264.5,-203.04C264.5,-190.67 264.5,-175.12 264.5,-165.63"/>
<polygon fill="orange" stroke="orange" points="261,-203.23 264.5,-213.23 268,-203.23 261,-203.23"/>
<text text-anchor="middle" x="308.5" y="-187" font-family="Helvetica,sans-Serif" font-size="10.00"> &lt; AGraphicObject &gt;</text>
</g>
<!-- Node5 -->
<g id="node5" class="node">
<title>Node5</title>
<g id="a_node5"><a xlink:title=" ">
<polygon fill="white" stroke="#bfbfbf" points="118.5,-146.5 118.5,-165.5 168.5,-165.5 168.5,-146.5 118.5,-146.5"/>
<text text-anchor="middle" x="143.5" y="-153.5" font-family="Helvetica,sans-Serif" font-size="10.00">Vector2</text>
</a>
</g>
</g>
<!-- Node5&#45;&gt;Node1 -->
<g id="edge9" class="edge">
<title>Node5&#45;&gt;Node1</title>
<path fill="none" stroke="#9a32cd" stroke-dasharray="5,2" d="M143.5,-136.38C143.5,-104.97 143.5,-42.63 143.5,-19.71"/>
<polygon fill="#9a32cd" stroke="#9a32cd" points="140,-136.42 143.5,-146.42 147,-136.42 140,-136.42"/>
<text text-anchor="middle" x="163.5" y="-64.5" font-family="Helvetica,sans-Serif" font-size="10.00"> direction</text>
</g>
<!-- Node5&#45;&gt;Node2 -->
<g id="edge4" class="edge">
<title>Node5&#45;&gt;Node2</title>
<path fill="none" stroke="#9a32cd" stroke-dasharray="5,2" d="M161.09,-139.58C175,-127.41 194.93,-110.05 212.5,-95 219.68,-88.85 227.82,-81.99 234.09,-76.72"/>
<polygon fill="#9a32cd" stroke="#9a32cd" points="158.51,-137.19 153.29,-146.41 163.12,-142.46 158.51,-137.19"/>
<text text-anchor="middle" x="229.5" y="-120" font-family="Helvetica,sans-Serif" font-size="10.00"> center</text>
<text text-anchor="middle" x="229.5" y="-109" font-family="Helvetica,sans-Serif" font-size="10.00">position</text>
<text text-anchor="middle" x="229.5" y="-98" font-family="Helvetica,sans-Serif" font-size="10.00">scale</text>
</g>
<!-- Node6 -->
<g id="node6" class="node">
<title>Node6</title>
<g id="a_node6"><a xlink:title=" ">
<polygon fill="white" stroke="#bfbfbf" points="0,-146.5 0,-165.5 35,-165.5 35,-146.5 0,-146.5"/>
<text text-anchor="middle" x="17.5" y="-153.5" font-family="Helvetica,sans-Serif" font-size="10.00">float</text>
</a>
</g>
</g>
<!-- Node6&#45;&gt;Node1 -->
<g id="edge10" class="edge">
<title>Node6&#45;&gt;Node1</title>
<path fill="none" stroke="#9a32cd" stroke-dasharray="5,2" d="M16.65,-135.94C16.95,-123.46 19.02,-107.25 26.5,-95 49.32,-57.66 95.61,-32.12 122.63,-19.69"/>
<polygon fill="#9a32cd" stroke="#9a32cd" points="13.16,-136.18 16.77,-146.14 20.16,-136.1 13.16,-136.18"/>
<text text-anchor="middle" x="75" y="-64.5" font-family="Helvetica,sans-Serif" font-size="10.00"> speed</text>
</g>
<!-- Node6&#45;&gt;Node2 -->
<g id="edge5" class="edge">
<title>Node6&#45;&gt;Node2</title>
<path fill="none" stroke="#9a32cd" stroke-dasharray="5,2" d="M24.65,-136.84C31.09,-123.02 41.95,-104.75 57.5,-95 106.91,-64.01 129.8,-85.55 187.5,-77 191.96,-76.34 196.61,-75.63 201.25,-74.92"/>
<polygon fill="#9a32cd" stroke="#9a32cd" points="21.3,-135.77 20.58,-146.34 27.74,-138.52 21.3,-135.77"/>
<text text-anchor="middle" x="81.5" y="-109" font-family="Helvetica,sans-Serif" font-size="10.00"> orientation</text>
</g>
<!-- Node7 -->
<g id="node7" class="node">
<title>Node7</title>
<g id="a_node7"><a xlink:title=" ">
<polygon fill="white" stroke="#bfbfbf" points="361,-146.5 361,-165.5 422,-165.5 422,-146.5 361,-146.5"/>
<text text-anchor="middle" x="391.5" y="-153.5" font-family="Helvetica,sans-Serif" font-size="10.00">Texture2D</text>
</a>
</g>
</g>
<!-- Node7&#45;&gt;Node2 -->
<g id="edge6" class="edge">
<title>Node7&#45;&gt;Node2</title>
<path fill="none" stroke="#9a32cd" stroke-dasharray="5,2" d="M368.42,-141.34C337.83,-123.24 284.74,-91.82 259.14,-76.66"/>
<polygon fill="#9a32cd" stroke="#9a32cd" points="366.75,-144.42 377.14,-146.5 370.31,-138.39 366.75,-144.42"/>
<text text-anchor="middle" x="359.5" y="-109" font-family="Helvetica,sans-Serif" font-size="10.00"> texture</text>
</g>
<!-- Node8 -->
<g id="node8" class="node">
<title>Node8</title>
<g id="a_node8"><a xlink:title=" ">
<polygon fill="white" stroke="#bfbfbf" points="440.5,-146.5 440.5,-165.5 500.5,-165.5 500.5,-146.5 440.5,-146.5"/>
<text text-anchor="middle" x="470.5" y="-153.5" font-family="Helvetica,sans-Serif" font-size="10.00">Rectangle</text>
</a>
</g>
</g>
<!-- Node8&#45;&gt;Node2 -->
<g id="edge7" class="edge">
<title>Node8&#45;&gt;Node2</title>
<path fill="none" stroke="#9a32cd" stroke-dasharray="5,2" d="M452.13,-139.78C434.56,-126.01 406.77,-106.22 379.5,-95 350.1,-82.91 314.81,-76.09 287.69,-72.34"/>
<polygon fill="#9a32cd" stroke="#9a32cd" points="450.34,-142.83 460.33,-146.36 454.72,-137.37 450.34,-142.83"/>
<text text-anchor="middle" x="450.5" y="-109" font-family="Helvetica,sans-Serif" font-size="10.00"> source</text>
</g>
<!-- Node9 -->
<g id="node9" class="node">
<title>Node9</title>
<g id="a_node9"><a xlink:title=" ">
<polygon fill="white" stroke="#bfbfbf" points="61,-146.5 61,-165.5 100,-165.5 100,-146.5 61,-146.5"/>
<text text-anchor="middle" x="80.5" y="-153.5" font-family="Helvetica,sans-Serif" font-size="10.00">Color</text>
</a>
</g>
</g>
<!-- Node9&#45;&gt;Node2 -->
<g id="edge8" class="edge">
<title>Node9&#45;&gt;Node2</title>
<path fill="none" stroke="#9a32cd" stroke-dasharray="5,2" d="M96.17,-139.19C110.31,-125.74 132.25,-106.76 154.5,-95 169.93,-86.84 188.19,-80.79 204.21,-76.5"/>
<polygon fill="#9a32cd" stroke="#9a32cd" points="93.52,-136.9 88.8,-146.39 98.41,-141.91 93.52,-136.9"/>
<text text-anchor="middle" x="162.5" y="-109" font-family="Helvetica,sans-Serif" font-size="10.00"> tint</text>
</g>
</g>
</svg>
