<?xml version="1.0" encoding="UTF-8" standalone="no"?>
<!DOCTYPE svg PUBLIC "-//W3C//DTD SVG 1.1//EN"
 "http://www.w3.org/Graphics/SVG/1.1/DTD/svg11.dtd">
<!-- Generated by graphviz version 2.49.3 (20211027.1534)
 -->
<!-- Title: Explosion Pages: 1 -->
<!--zoomable 251 -->
<svg id="main" version="1.1" xmlns="http://www.w3.org/2000/svg" xmlns:xlink="http://www.w3.org/1999/xlink" xml:space="preserve" onload="init(evt)">
<style type="text/css"><![CDATA[
.edge:hover path { stroke: red; }
.edge:hover polygon { stroke: red; fill: red; }
]]></style>
<script type="text/javascript"><![CDATA[
var edges = document.getElementsByTagName('g');
if (edges && edges.length) {
  for (var i=0;i<edges.length;i++) {
    if (edges[i].id.substr(0,4)=='edge') {
      edges[i].setAttribute('class','edge');
    }
  }
}
]]></script>
        <defs>
                <circle id="rim" cx="0" cy="0" r="7"/>
                <circle id="rim2" cx="0" cy="0" r="3.5"/>
                <g id="zoomPlus">
                        <use xlink:href="#rim" fill="#404040">
                                <set attributeName="fill" to="#808080" begin="zoomplus.mouseover" end="zoomplus.mouseout"/>
                        </use>
                        <path d="M-4,0h8M0,-4v8" fill="none" stroke="white" stroke-width="1.5" pointer-events="none"/>
                </g>
                <g id="zoomMin">
                        <use xlink:href="#rim" fill="#404040">
                                <set attributeName="fill" to="#808080" begin="zoomminus.mouseover" end="zoomminus.mouseout"/>
                        </use>
                        <path d="M-4,0h8" fill="none" stroke="white" stroke-width="1.5" pointer-events="none"/>
                </g>
                <g id="dirArrow">
                        <path fill="none" stroke="white" stroke-width="1.5" d="M0,-3.0v7 M-2.5,-0.5L0,-3.0L2.5,-0.5"/>
                </g>
               <g id="resetDef">
                       <use xlink:href="#rim2" fill="#404040">
                               <set attributeName="fill" to="#808080" begin="reset.mouseover" end="reset.mouseout"/>
                       </use>
               </g>
        </defs>

<script type="text/javascript">
var viewWidth = 525;
var viewHeight = 251;
var sectionId = 'dynsection-1';
</script>
<script xlink:href="../../svgpan.js"/>
<svg id="graph" class="graph">
<g id="viewport">
<title>Explosion</title>
<polygon fill="white" stroke="transparent" points="-4,4 -4,-247 520.5,-247 520.5,4 -4,4"/>
<!-- Node1 -->
<g id="node1" class="node">
<title>Node1</title>
<g id="a_node1"><a xlink:title=" ">
<polygon fill="#bfbfbf" stroke="black" points="200.5,-0.5 200.5,-19.5 258.5,-19.5 258.5,-0.5 200.5,-0.5"/>
<text text-anchor="middle" x="229.5" y="-7.5" font-family="Helvetica,sans-Serif" font-size="10.00">Explosion</text>
</a>
</g>
</g>
<!-- Node2 -->
<g id="node2" class="node">
<title>Node2</title>
<g id="a_node2"><a xlink:href="../../d3/d92/class_a_graphic_object.html" target="_top" xlink:title=" ">
<polygon fill="white" stroke="black" points="186.5,-67.5 186.5,-86.5 272.5,-86.5 272.5,-67.5 186.5,-67.5"/>
<text text-anchor="middle" x="229.5" y="-74.5" font-family="Helvetica,sans-Serif" font-size="10.00">AGraphicObject</text>
</a>
</g>
</g>
<!-- Node2&#45;&gt;Node1 -->
<g id="edge1" class="edge">
<title>Node2&#45;&gt;Node1</title>
<path fill="none" stroke="midnightblue" d="M229.5,-57.04C229.5,-44.67 229.5,-29.12 229.5,-19.63"/>
<polygon fill="midnightblue" stroke="midnightblue" points="226,-57.23 229.5,-67.23 233,-57.23 226,-57.23"/>
</g>
<!-- Node3 -->
<g id="node3" class="node">
<title>Node3</title>
<g id="a_node3"><a xlink:href="../../db/d70/class_instance_list.html" target="_top" xlink:title=" ">
<polygon fill="white" stroke="black" points="272.5,-156.5 272.5,-175.5 428.5,-175.5 428.5,-156.5 272.5,-156.5"/>
<text text-anchor="middle" x="350.5" y="-163.5" font-family="Helvetica,sans-Serif" font-size="10.00">InstanceList&lt; AGraphicObject &gt;</text>
</a>
</g>
</g>
<!-- Node3&#45;&gt;Node2 -->
<g id="edge2" class="edge">
<title>Node3&#45;&gt;Node2</title>
<path fill="none" stroke="midnightblue" d="M330.24,-150.28C313.45,-138.11 288.96,-120.38 267.5,-105 258.95,-98.87 249.28,-92 241.84,-86.73"/>
<polygon fill="midnightblue" stroke="midnightblue" points="328.55,-153.38 338.7,-156.42 332.66,-147.72 328.55,-153.38"/>
</g>
<!-- Node4 -->
<g id="node4" class="node">
<title>Node4</title>
<g id="a_node4"><a xlink:href="../../db/d70/class_instance_list.html" target="_top" xlink:title="Add a static list for the class T">
<polygon fill="white" stroke="black" points="304,-223.5 304,-242.5 397,-242.5 397,-223.5 304,-223.5"/>
<text text-anchor="middle" x="350.5" y="-230.5" font-family="Helvetica,sans-Serif" font-size="10.00">InstanceList&lt; T &gt;</text>
</a>
</g>
</g>
<!-- Node4&#45;&gt;Node3 -->
<g id="edge3" class="edge">
<title>Node4&#45;&gt;Node3</title>
<path fill="none" stroke="orange" stroke-dasharray="5,2" d="M350.5,-213.04C350.5,-200.67 350.5,-185.12 350.5,-175.63"/>
<polygon fill="orange" stroke="orange" points="347,-213.23 350.5,-223.23 354,-213.23 347,-213.23"/>
<text text-anchor="middle" x="394.5" y="-197" font-family="Helvetica,sans-Serif" font-size="10.00"> &lt; AGraphicObject &gt;</text>
</g>
<!-- Node5 -->
<g id="node5" class="node">
<title>Node5</title>
<g id="a_node5"><a xlink:title=" ">
<polygon fill="white" stroke="#bfbfbf" points="204.5,-156.5 204.5,-175.5 254.5,-175.5 254.5,-156.5 204.5,-156.5"/>
<text text-anchor="middle" x="229.5" y="-163.5" font-family="Helvetica,sans-Serif" font-size="10.00">Vector2</text>
</a>
</g>
</g>
<!-- Node5&#45;&gt;Node2 -->
<g id="edge4" class="edge">
<title>Node5&#45;&gt;Node2</title>
<path fill="none" stroke="#9a32cd" stroke-dasharray="5,2" d="M229.5,-146.19C229.5,-127.74 229.5,-100.41 229.5,-86.62"/>
<polygon fill="#9a32cd" stroke="#9a32cd" points="226,-146.34 229.5,-156.34 233,-146.34 226,-146.34"/>
<text text-anchor="middle" x="246.5" y="-130" font-family="Helvetica,sans-Serif" font-size="10.00"> center</text>
<text text-anchor="middle" x="246.5" y="-119" font-family="Helvetica,sans-Serif" font-size="10.00">position</text>
<text text-anchor="middle" x="246.5" y="-108" font-family="Helvetica,sans-Serif" font-size="10.00">scale</text>
</g>
<!-- Node6 -->
<g id="node6" class="node">
<title>Node6</title>
<g id="a_node6"><a xlink:title=" ">
<polygon fill="white" stroke="#bfbfbf" points="0,-156.5 0,-175.5 35,-175.5 35,-156.5 0,-156.5"/>
<text text-anchor="middle" x="17.5" y="-163.5" font-family="Helvetica,sans-Serif" font-size="10.00">float</text>
</a>
</g>
</g>
<!-- Node6&#45;&gt;Node1 -->
<g id="edge9" class="edge">
<title>Node6&#45;&gt;Node1</title>
<path fill="none" stroke="#9a32cd" stroke-dasharray="5,2" d="M17.54,-146.22C18.28,-133.85 20.67,-117.67 27.5,-105 39.29,-83.13 47.2,-79.8 68.5,-67 110.99,-41.47 166.8,-25.37 200.31,-17.3"/>
<polygon fill="#9a32cd" stroke="#9a32cd" points="14.04,-146.19 17.24,-156.29 21.03,-146.4 14.04,-146.19"/>
<text text-anchor="middle" x="102" y="-74.5" font-family="Helvetica,sans-Serif" font-size="10.00"> FRAME_RATE</text>
</g>
<!-- Node6&#45;&gt;Node2 -->
<g id="edge5" class="edge">
<title>Node6&#45;&gt;Node2</title>
<path fill="none" stroke="#9a32cd" stroke-dasharray="5,2" d="M25.29,-146.91C32.21,-133.13 43.69,-114.88 59.5,-105 59.67,-104.89 135.91,-92.81 186.22,-84.85"/>
<polygon fill="#9a32cd" stroke="#9a32cd" points="21.94,-145.83 20.89,-156.37 28.28,-148.78 21.94,-145.83"/>
<text text-anchor="middle" x="83.5" y="-119" font-family="Helvetica,sans-Serif" font-size="10.00"> orientation</text>
</g>
<!-- Node7 -->
<g id="node7" class="node">
<title>Node7</title>
<g id="a_node7"><a xlink:title=" ">
<polygon fill="white" stroke="#bfbfbf" points="125,-156.5 125,-175.5 186,-175.5 186,-156.5 125,-156.5"/>
<text text-anchor="middle" x="155.5" y="-163.5" font-family="Helvetica,sans-Serif" font-size="10.00">Texture2D</text>
</a>
</g>
</g>
<!-- Node7&#45;&gt;Node1 -->
<g id="edge11" class="edge">
<title>Node7&#45;&gt;Node1</title>
<path fill="none" stroke="#9a32cd" stroke-dasharray="5,2" d="M147.82,-146.8C140.38,-126.17 132.03,-92.17 145.5,-67 158.07,-43.51 185.33,-28.17 205.4,-19.59"/>
<polygon fill="#9a32cd" stroke="#9a32cd" points="144.61,-148.2 151.5,-156.24 151.13,-145.66 144.61,-148.2"/>
<text text-anchor="middle" x="161.5" y="-74.5" font-family="Helvetica,sans-Serif" font-size="10.00"> texture</text>
</g>
<!-- Node7&#45;&gt;Node2 -->
<g id="edge6" class="edge">
<title>Node7&#45;&gt;Node2</title>
<path fill="none" stroke="#9a32cd" stroke-dasharray="5,2" d="M164.55,-147.14C171.45,-134.54 181.75,-117.72 193.5,-105 199.97,-98 208.45,-91.54 215.55,-86.69"/>
<polygon fill="#9a32cd" stroke="#9a32cd" points="161.36,-145.7 159.79,-156.17 167.55,-148.96 161.36,-145.7"/>
<text text-anchor="middle" x="209.5" y="-119" font-family="Helvetica,sans-Serif" font-size="10.00"> texture</text>
</g>
<!-- Node8 -->
<g id="node8" class="node">
<title>Node8</title>
<g id="a_node8"><a xlink:title=" ">
<polygon fill="white" stroke="#bfbfbf" points="446.5,-156.5 446.5,-175.5 506.5,-175.5 506.5,-156.5 446.5,-156.5"/>
<text text-anchor="middle" x="476.5" y="-163.5" font-family="Helvetica,sans-Serif" font-size="10.00">Rectangle</text>
</a>
</g>
</g>
<!-- Node8&#45;&gt;Node2 -->
<g id="edge7" class="edge">
<title>Node8&#45;&gt;Node2</title>
<path fill="none" stroke="#9a32cd" stroke-dasharray="5,2" d="M442.87,-153.16C392.35,-135.36 298.07,-102.15 253.73,-86.53"/>
<polygon fill="#9a32cd" stroke="#9a32cd" points="441.77,-156.48 452.37,-156.5 444.1,-149.88 441.77,-156.48"/>
<text text-anchor="middle" x="412.5" y="-119" font-family="Helvetica,sans-Serif" font-size="10.00"> source</text>
</g>
<!-- Node9 -->
<g id="node9" class="node">
<title>Node9</title>
<g id="a_node9"><a xlink:title=" ">
<polygon fill="white" stroke="#bfbfbf" points="68,-156.5 68,-175.5 107,-175.5 107,-156.5 68,-156.5"/>
<text text-anchor="middle" x="87.5" y="-163.5" font-family="Helvetica,sans-Serif" font-size="10.00">Color</text>
</a>
</g>
</g>
<!-- Node9&#45;&gt;Node2 -->
<g id="edge8" class="edge">
<title>Node9&#45;&gt;Node2</title>
<path fill="none" stroke="#9a32cd" stroke-dasharray="5,2" d="M101.16,-148.51C113,-135.15 131.22,-116.69 150.5,-105 163.76,-96.96 179.74,-90.92 193.84,-86.62"/>
<polygon fill="#9a32cd" stroke="#9a32cd" points="98.22,-146.57 94.36,-156.43 103.53,-151.13 98.22,-146.57"/>
<text text-anchor="middle" x="158.5" y="-119" font-family="Helvetica,sans-Serif" font-size="10.00"> tint</text>
</g>
<!-- Node10 -->
<g id="node10" class="node">
<title>Node10</title>
<g id="a_node10"><a xlink:title=" ">
<polygon fill="white" stroke="#bfbfbf" points="291,-67.5 291,-86.5 430,-86.5 430,-67.5 291,-67.5"/>
<text text-anchor="middle" x="360.5" y="-74.5" font-family="Helvetica,sans-Serif" font-size="10.00">static constexpr unsigned int</text>
</a>
</g>
</g>
<!-- Node10&#45;&gt;Node1 -->
<g id="edge10" class="edge">
<title>Node10&#45;&gt;Node1</title>
<path fill="none" stroke="#9a32cd" stroke-dasharray="5,2" d="M333.84,-62.77C307.9,-49.9 269.22,-30.71 246.97,-19.67"/>
<polygon fill="#9a32cd" stroke="#9a32cd" points="332.59,-66.06 343.1,-67.37 335.7,-59.79 332.59,-66.06"/>
<text text-anchor="middle" x="325" y="-41" font-family="Helvetica,sans-Serif" font-size="10.00"> FRAMES</text>
</g>
<!-- Node11 -->
<g id="node11" class="node">
<title>Node11</title>
<g id="a_node11"><a xlink:title=" ">
<polygon fill="white" stroke="#bfbfbf" points="448.5,-67.5 448.5,-86.5 516.5,-86.5 516.5,-67.5 448.5,-67.5"/>
<text text-anchor="middle" x="482.5" y="-74.5" font-family="Helvetica,sans-Serif" font-size="10.00">unsigned int</text>
</a>
</g>
</g>
<!-- Node11&#45;&gt;Node1 -->
<g id="edge12" class="edge">
<title>Node11&#45;&gt;Node1</title>
<path fill="none" stroke="#9a32cd" stroke-dasharray="5,2" d="M444.98,-64.54C418.65,-56.66 382.57,-46.18 350.5,-38 319.43,-30.07 283.53,-22.22 258.96,-17.05"/>
<polygon fill="#9a32cd" stroke="#9a32cd" points="443.98,-67.9 454.57,-67.42 446,-61.19 443.98,-67.9"/>
<text text-anchor="middle" x="404.5" y="-41" font-family="Helvetica,sans-Serif" font-size="10.00"> frame</text>
</g>
</g>
</svg>
        <g id="navigator" transform="translate(0 0)" fill="#404254">
                <rect fill="#f2f5e9" fill-opacity="0.5" stroke="#606060" stroke-width=".5" x="0" y="0" width="60" height="60"/>
                <use id="zoomplus" xlink:href="#zoomPlus" x="17" y="9" onmousedown="handleZoom(evt,'in')"/>
                <use id="zoomminus" xlink:href="#zoomMin" x="42" y="9" onmousedown="handleZoom(evt,'out')"/>
                <use id="reset" xlink:href="#resetDef" x="30" y="36" onmousedown="handleReset()"/>
                <g id="arrowUp" xlink:href="#dirArrow" transform="translate(30 24)" onmousedown="handlePan(0,-1)">
                  <use xlink:href="#rim" fill="#404040">
                        <set attributeName="fill" to="#808080" begin="arrowUp.mouseover" end="arrowUp.mouseout"/>
                  </use>
                  <path fill="none" stroke="white" stroke-width="1.5" d="M0,-3.0v7 M-2.5,-0.5L0,-3.0L2.5,-0.5"/>
                </g>
                <g id="arrowRight" xlink:href="#dirArrow" transform="rotate(90) translate(36 -43)" onmousedown="handlePan(1,0)">
                  <use xlink:href="#rim" fill="#404040">
                        <set attributeName="fill" to="#808080" begin="arrowRight.mouseover" end="arrowRight.mouseout"/>
                  </use>
                  <path fill="none" stroke="white" stroke-width="1.5" d="M0,-3.0v7 M-2.5,-0.5L0,-3.0L2.5,-0.5"/>
                </g>
                <g id="arrowDown" xlink:href="#dirArrow" transform="rotate(180) translate(-30 -48)" onmousedown="handlePan(0,1)">
                  <use xlink:href="#rim" fill="#404040">
                        <set attributeName="fill" to="#808080" begin="arrowDown.mouseover" end="arrowDown.mouseout"/>
                  </use>
                  <path fill="none" stroke="white" stroke-width="1.5" d="M0,-3.0v7 M-2.5,-0.5L0,-3.0L2.5,-0.5"/>
                </g>
                <g id="arrowLeft" xlink:href="#dirArrow" transform="rotate(270) translate(-36 17)" onmousedown="handlePan(-1,0)">
                  <use xlink:href="#rim" fill="#404040">
                        <set attributeName="fill" to="#808080" begin="arrowLeft.mouseover" end="arrowLeft.mouseout"/>
                  </use>
                  <path fill="none" stroke="white" stroke-width="1.5" d="M0,-3.0v7 M-2.5,-0.5L0,-3.0L2.5,-0.5"/>
                </g>
        </g>
        <svg viewBox="0 0 15 15" width="100%" height="30px" preserveAspectRatio="xMaxYMin meet">
         <g id="arrow_out" transform="scale(0.3 0.3)">
          <a xlink:href="class_explosion__coll__graph_org.svg" target="_base">
           <rect id="button" ry="5" rx="5" y="6" x="6" height="38" width="38"
                fill="#f2f5e9" fill-opacity="0.5" stroke="#606060" stroke-width="1.0"/>
           <path id="arrow"
             d="M 11.500037,31.436501 C 11.940474,20.09759 22.043105,11.32322 32.158766,21.979434 L 37.068811,17.246167 C 37.068811,17.246167 37.088388,32 37.088388,32 L 22.160133,31.978069 C 22.160133,31.978069 26.997745,27.140456 26.997745,27.140456 C 18.528582,18.264221 13.291696,25.230495 11.500037,31.436501 z"
             style="fill:#404040;"/>
          </a>
         </g>
        </svg>
</svg>
