<?xml version="1.0" encoding="UTF-8" standalone="no"?>
<!DOCTYPE svg PUBLIC "-//W3C//DTD SVG 1.1//EN"
 "http://www.w3.org/Graphics/SVG/1.1/DTD/svg11.dtd">
<!-- Generated by graphviz version 2.49.3 (20211027.1534)
 -->
<!-- Title: Explosion Pages: 1 -->
<svg width="525pt" height="251pt"
 viewBox="0.00 0.00 524.50 251.00" xmlns="http://www.w3.org/2000/svg" xmlns:xlink="http://www.w3.org/1999/xlink">
<g id="graph0" class="graph" transform="scale(1 1) rotate(0) translate(4 247)">
<title>Explosion</title>
<polygon fill="white" stroke="transparent" points="-4,4 -4,-247 520.5,-247 520.5,4 -4,4"/>
<!-- Node1 -->
<g id="node1" class="node">
<title>Node1</title>
<g id="a_node1"><a xlink:title="An explosion animation. It automatiquely delete itself at the end">
<polygon fill="#bfbfbf" stroke="black" points="136.5,-0.5 136.5,-19.5 194.5,-19.5 194.5,-0.5 136.5,-0.5"/>
<text text-anchor="middle" x="165.5" y="-7.5" font-family="Helvetica,sans-Serif" font-size="10.00">Explosion</text>
</a>
</g>
</g>
<!-- Node2 -->
<g id="node2" class="node">
<title>Node2</title>
<g id="a_node2"><a xlink:href="../../d3/d92/class_a_graphic_object.html" target="_top" xlink:title="An object that can be drawn and updated">
<polygon fill="white" stroke="black" points="122.5,-67.5 122.5,-86.5 208.5,-86.5 208.5,-67.5 122.5,-67.5"/>
<text text-anchor="middle" x="165.5" y="-74.5" font-family="Helvetica,sans-Serif" font-size="10.00">AGraphicObject</text>
</a>
</g>
</g>
<!-- Node2&#45;&gt;Node1 -->
<g id="edge1" class="edge">
<title>Node2&#45;&gt;Node1</title>
<path fill="none" stroke="midnightblue" d="M165.5,-57.04C165.5,-44.67 165.5,-29.12 165.5,-19.63"/>
<polygon fill="midnightblue" stroke="midnightblue" points="162,-57.23 165.5,-67.23 169,-57.23 162,-57.23"/>
</g>
<!-- Node3 -->
<g id="node3" class="node">
<title>Node3</title>
<g id="a_node3"><a xlink:href="../../db/d70/class_instance_list.html" target="_top" xlink:title=" ">
<polygon fill="white" stroke="black" points="350.5,-156.5 350.5,-175.5 506.5,-175.5 506.5,-156.5 350.5,-156.5"/>
<text text-anchor="middle" x="428.5" y="-163.5" font-family="Helvetica,sans-Serif" font-size="10.00">InstanceList&lt; AGraphicObject &gt;</text>
</a>
</g>
</g>
<!-- Node3&#45;&gt;Node2 -->
<g id="edge2" class="edge">
<title>Node3&#45;&gt;Node2</title>
<path fill="none" stroke="midnightblue" d="M406.97,-150.95C384.89,-137.19 349.11,-116.63 315.5,-105 312.94,-104.11 252.1,-93.28 208.7,-85.61"/>
<polygon fill="midnightblue" stroke="midnightblue" points="405.23,-153.99 415.55,-156.39 408.97,-148.08 405.23,-153.99"/>
</g>
<!-- Node4 -->
<g id="node4" class="node">
<title>Node4</title>
<g id="a_node4"><a xlink:href="../../db/d70/class_instance_list.html" target="_top" xlink:title="Add a static list for the class T">
<polygon fill="white" stroke="black" points="382,-223.5 382,-242.5 475,-242.5 475,-223.5 382,-223.5"/>
<text text-anchor="middle" x="428.5" y="-230.5" font-family="Helvetica,sans-Serif" font-size="10.00">InstanceList&lt; T &gt;</text>
</a>
</g>
</g>
<!-- Node4&#45;&gt;Node3 -->
<g id="edge3" class="edge">
<title>Node4&#45;&gt;Node3</title>
<path fill="none" stroke="orange" stroke-dasharray="5,2" d="M428.5,-213.04C428.5,-200.67 428.5,-185.12 428.5,-175.63"/>
<polygon fill="orange" stroke="orange" points="425,-213.23 428.5,-223.23 432,-213.23 425,-213.23"/>
<text text-anchor="middle" x="472.5" y="-197" font-family="Helvetica,sans-Serif" font-size="10.00"> &lt; AGraphicObject &gt;</text>
</g>
<!-- Node5 -->
<g id="node5" class="node">
<title>Node5</title>
<g id="a_node5"><a xlink:title=" ">
<polygon fill="white" stroke="#bfbfbf" points="66.5,-156.5 66.5,-175.5 116.5,-175.5 116.5,-156.5 66.5,-156.5"/>
<text text-anchor="middle" x="91.5" y="-163.5" font-family="Helvetica,sans-Serif" font-size="10.00">Vector2</text>
</a>
</g>
</g>
<!-- Node5&#45;&gt;Node2 -->
<g id="edge4" class="edge">
<title>Node5&#45;&gt;Node2</title>
<path fill="none" stroke="#9a32cd" stroke-dasharray="5,2" d="M99.8,-147.02C106.2,-134.36 115.91,-117.52 127.5,-105 134.1,-97.87 142.86,-91.49 150.31,-86.73"/>
<polygon fill="#9a32cd" stroke="#9a32cd" points="96.61,-145.58 95.4,-156.1 102.91,-148.63 96.61,-145.58"/>
<text text-anchor="middle" x="144.5" y="-130" font-family="Helvetica,sans-Serif" font-size="10.00"> center</text>
<text text-anchor="middle" x="144.5" y="-119" font-family="Helvetica,sans-Serif" font-size="10.00">position</text>
<text text-anchor="middle" x="144.5" y="-108" font-family="Helvetica,sans-Serif" font-size="10.00">scale</text>
</g>
<!-- Node6 -->
<g id="node6" class="node">
<title>Node6</title>
<g id="a_node6"><a xlink:title=" ">
<polygon fill="white" stroke="#bfbfbf" points="0,-156.5 0,-175.5 35,-175.5 35,-156.5 0,-156.5"/>
<text text-anchor="middle" x="17.5" y="-163.5" font-family="Helvetica,sans-Serif" font-size="10.00">float</text>
</a>
</g>
</g>
<!-- Node6&#45;&gt;Node1 -->
<g id="edge9" class="edge">
<title>Node6&#45;&gt;Node1</title>
<path fill="none" stroke="#9a32cd" stroke-dasharray="5,2" d="M17.59,-146.28C18.77,-124.06 24.24,-87.44 46.5,-67 72.48,-43.14 110.45,-27.68 136.47,-19.18"/>
<polygon fill="#9a32cd" stroke="#9a32cd" points="14.09,-146.33 17.3,-156.43 21.09,-146.53 14.09,-146.33"/>
<text text-anchor="middle" x="80" y="-74.5" font-family="Helvetica,sans-Serif" font-size="10.00"> FRAME_RATE</text>
</g>
<!-- Node6&#45;&gt;Node2 -->
<g id="edge5" class="edge">
<title>Node6&#45;&gt;Node2</title>
<path fill="none" stroke="#9a32cd" stroke-dasharray="5,2" d="M24.09,-146.43C29.83,-132.95 39.44,-115.33 53.5,-105 73.33,-90.44 99.96,-83.64 122.28,-80.5"/>
<polygon fill="#9a32cd" stroke="#9a32cd" points="20.68,-145.55 20.32,-156.14 27.2,-148.09 20.68,-145.55"/>
<text text-anchor="middle" x="77.5" y="-119" font-family="Helvetica,sans-Serif" font-size="10.00"> orientation</text>
</g>
<!-- Node7 -->
<g id="node7" class="node">
<title>Node7</title>
<g id="a_node7"><a xlink:title=" ">
<polygon fill="white" stroke="#bfbfbf" points="135,-156.5 135,-175.5 196,-175.5 196,-156.5 135,-156.5"/>
<text text-anchor="middle" x="165.5" y="-163.5" font-family="Helvetica,sans-Serif" font-size="10.00">Texture2D</text>
</a>
</g>
</g>
<!-- Node7&#45;&gt;Node2 -->
<g id="edge6" class="edge">
<title>Node7&#45;&gt;Node2</title>
<path fill="none" stroke="#9a32cd" stroke-dasharray="5,2" d="M165.5,-146.19C165.5,-127.74 165.5,-100.41 165.5,-86.62"/>
<polygon fill="#9a32cd" stroke="#9a32cd" points="162,-146.34 165.5,-156.34 169,-146.34 162,-146.34"/>
<text text-anchor="middle" x="181.5" y="-119" font-family="Helvetica,sans-Serif" font-size="10.00"> texture</text>
</g>
<!-- Node8 -->
<g id="node8" class="node">
<title>Node8</title>
<g id="a_node8"><a xlink:title=" ">
<polygon fill="white" stroke="#bfbfbf" points="214.5,-156.5 214.5,-175.5 274.5,-175.5 274.5,-156.5 214.5,-156.5"/>
<text text-anchor="middle" x="244.5" y="-163.5" font-family="Helvetica,sans-Serif" font-size="10.00">Rectangle</text>
</a>
</g>
</g>
<!-- Node8&#45;&gt;Node2 -->
<g id="edge7" class="edge">
<title>Node8&#45;&gt;Node2</title>
<path fill="none" stroke="#9a32cd" stroke-dasharray="5,2" d="M234.06,-147.6C226.04,-135.01 214.21,-117.99 201.5,-105 194.72,-98.08 186.07,-91.52 178.94,-86.61"/>
<polygon fill="#9a32cd" stroke="#9a32cd" points="231.16,-149.57 239.4,-156.22 237.11,-145.88 231.16,-149.57"/>
<text text-anchor="middle" x="244.5" y="-119" font-family="Helvetica,sans-Serif" font-size="10.00"> source</text>
</g>
<!-- Node9 -->
<g id="node9" class="node">
<title>Node9</title>
<g id="a_node9"><a xlink:title=" ">
<polygon fill="white" stroke="#bfbfbf" points="293,-156.5 293,-175.5 332,-175.5 332,-156.5 293,-156.5"/>
<text text-anchor="middle" x="312.5" y="-163.5" font-family="Helvetica,sans-Serif" font-size="10.00">Color</text>
</a>
</g>
</g>
<!-- Node9&#45;&gt;Node2 -->
<g id="edge8" class="edge">
<title>Node9&#45;&gt;Node2</title>
<path fill="none" stroke="#9a32cd" stroke-dasharray="5,2" d="M302.62,-147.33C294.18,-133.82 280.83,-115.73 264.5,-105 254.78,-98.62 229.25,-91.73 206.54,-86.5"/>
<polygon fill="#9a32cd" stroke="#9a32cd" points="299.77,-149.38 307.87,-156.2 305.79,-145.81 299.77,-149.38"/>
<text text-anchor="middle" x="303.5" y="-119" font-family="Helvetica,sans-Serif" font-size="10.00"> tint</text>
</g>
<!-- Node10 -->
<g id="node10" class="node">
<title>Node10</title>
<g id="a_node10"><a xlink:title=" ">
<polygon fill="white" stroke="#bfbfbf" points="227,-67.5 227,-86.5 366,-86.5 366,-67.5 227,-67.5"/>
<text text-anchor="middle" x="296.5" y="-74.5" font-family="Helvetica,sans-Serif" font-size="10.00">static constexpr unsigned int</text>
</a>
</g>
</g>
<!-- Node10&#45;&gt;Node1 -->
<g id="edge10" class="edge">
<title>Node10&#45;&gt;Node1</title>
<path fill="none" stroke="#9a32cd" stroke-dasharray="5,2" d="M269.84,-62.77C243.9,-49.9 205.22,-30.71 182.97,-19.67"/>
<polygon fill="#9a32cd" stroke="#9a32cd" points="268.59,-66.06 279.1,-67.37 271.7,-59.79 268.59,-66.06"/>
<text text-anchor="middle" x="260" y="-41" font-family="Helvetica,sans-Serif" font-size="10.00"> FRAMES</text>
</g>
</g>
</svg>
