<?xml version="1.0" encoding="UTF-8" standalone="no"?>
<!DOCTYPE svg PUBLIC "-//W3C//DTD SVG 1.1//EN"
 "http://www.w3.org/Graphics/SVG/1.1/DTD/svg11.dtd">
<!-- Generated by graphviz version 2.49.3 (20211027.1534)
 -->
<!-- Title: RayLib_SHMUP/include/Shmup/AMovable.h Pages: 1 -->
<svg width="1585pt" height="240pt"
 viewBox="0.00 0.00 1585.00 240.00" xmlns="http://www.w3.org/2000/svg" xmlns:xlink="http://www.w3.org/1999/xlink">
<g id="graph0" class="graph" transform="scale(1 1) rotate(0) translate(4 236)">
<title>RayLib_SHMUP/include/Shmup/AMovable.h</title>
<polygon fill="white" stroke="transparent" points="-4,4 -4,-236 1581,-236 1581,4 -4,4"/>
<!-- Node1 -->
<g id="node1" class="node">
<title>Node1</title>
<g id="a_node1"><a xlink:title=" ">
<polygon fill="#bfbfbf" stroke="black" points="683.5,-201.5 683.5,-231.5 805.5,-231.5 805.5,-201.5 683.5,-201.5"/>
<text text-anchor="start" x="691.5" y="-219.5" font-family="Helvetica,sans-Serif" font-size="10.00">RayLib_SHMUP/include</text>
<text text-anchor="middle" x="744.5" y="-208.5" font-family="Helvetica,sans-Serif" font-size="10.00">/Shmup/AMovable.h</text>
</a>
</g>
</g>
<!-- Node2 -->
<g id="node2" class="node">
<title>Node2</title>
<g id="a_node2"><a xlink:href="../../d3/d22/_patern_computer_8h.html" target="_top" xlink:title=" ">
<polygon fill="white" stroke="black" points="182.5,-134.5 182.5,-164.5 336.5,-164.5 336.5,-134.5 182.5,-134.5"/>
<text text-anchor="start" x="190.5" y="-152.5" font-family="Helvetica,sans-Serif" font-size="10.00">RayLib_SHMUP/include</text>
<text text-anchor="middle" x="259.5" y="-141.5" font-family="Helvetica,sans-Serif" font-size="10.00">/PaternEditor/PaternComputer.h</text>
</a>
</g>
</g>
<!-- Node1&#45;&gt;Node2 -->
<g id="edge1" class="edge">
<title>Node1&#45;&gt;Node2</title>
<path fill="none" stroke="midnightblue" d="M672.97,-205.91C583.07,-193.86 429.35,-173.26 336.81,-160.86"/>
<polygon fill="midnightblue" stroke="midnightblue" points="672.7,-209.41 683.07,-207.27 673.63,-202.47 672.7,-209.41"/>
</g>
<!-- Node5 -->
<g id="node5" class="node">
<title>Node5</title>
<g id="a_node5"><a xlink:href="../../d4/d1e/_enemy_8h.html" target="_top" xlink:title=" ">
<polygon fill="white" stroke="black" points="479.5,-134.5 479.5,-164.5 609.5,-164.5 609.5,-134.5 479.5,-134.5"/>
<text text-anchor="start" x="487.5" y="-152.5" font-family="Helvetica,sans-Serif" font-size="10.00">RayLib_SHMUP/include</text>
<text text-anchor="middle" x="544.5" y="-141.5" font-family="Helvetica,sans-Serif" font-size="10.00">/Shmup/Movable/Enemy.h</text>
</a>
</g>
</g>
<!-- Node1&#45;&gt;Node5 -->
<g id="edge4" class="edge">
<title>Node1&#45;&gt;Node5</title>
<path fill="none" stroke="midnightblue" d="M691.35,-198.23C659,-187.71 618.19,-174.45 587.81,-164.58"/>
<polygon fill="midnightblue" stroke="midnightblue" points="690.51,-201.63 701.1,-201.4 692.67,-194.98 690.51,-201.63"/>
</g>
<!-- Node9 -->
<g id="node9" class="node">
<title>Node9</title>
<g id="a_node9"><a xlink:href="../../de/d15/_shoot_8h.html" target="_top" xlink:title=" ">
<polygon fill="white" stroke="black" points="853.5,-134.5 853.5,-164.5 979.5,-164.5 979.5,-134.5 853.5,-134.5"/>
<text text-anchor="start" x="861.5" y="-152.5" font-family="Helvetica,sans-Serif" font-size="10.00">RayLib_SHMUP/include</text>
<text text-anchor="middle" x="916.5" y="-141.5" font-family="Helvetica,sans-Serif" font-size="10.00">/Shmup/Movable/Shoot.h</text>
</a>
</g>
</g>
<!-- Node1&#45;&gt;Node9 -->
<g id="edge8" class="edge">
<title>Node1&#45;&gt;Node9</title>
<path fill="none" stroke="midnightblue" d="M791.29,-197.82C818.93,-187.37 853.46,-174.32 879.25,-164.58"/>
<polygon fill="midnightblue" stroke="midnightblue" points="789.94,-194.59 781.82,-201.4 792.41,-201.13 789.94,-194.59"/>
</g>
<!-- Node16 -->
<g id="node16" class="node">
<title>Node16</title>
<g id="a_node16"><a xlink:href="../../df/d32/_sequence_move_patern_8cpp.html" target="_top" xlink:title=" ">
<polygon fill="white" stroke="black" points="998,-134.5 998,-164.5 1201,-164.5 1201,-134.5 998,-134.5"/>
<text text-anchor="start" x="1006" y="-152.5" font-family="Helvetica,sans-Serif" font-size="10.00">RayLib_SHMUP/src/Shmup</text>
<text text-anchor="middle" x="1099.5" y="-141.5" font-family="Helvetica,sans-Serif" font-size="10.00">/Paterns/Enemy/SequenceMovePatern.cpp</text>
</a>
</g>
</g>
<!-- Node1&#45;&gt;Node16 -->
<g id="edge17" class="edge">
<title>Node1&#45;&gt;Node16</title>
<path fill="none" stroke="midnightblue" d="M815.67,-202.47C875.69,-191.48 961.38,-175.79 1022.89,-164.53"/>
<polygon fill="midnightblue" stroke="midnightblue" points="814.73,-199.08 805.53,-204.33 815.99,-205.97 814.73,-199.08"/>
</g>
<!-- Node3 -->
<g id="node3" class="node">
<title>Node3</title>
<g id="a_node3"><a xlink:href="../../d3/d32/_patern_computer_8cpp.html" target="_top" xlink:title=" ">
<polygon fill="white" stroke="black" points="0,-67.5 0,-97.5 161,-97.5 161,-67.5 0,-67.5"/>
<text text-anchor="start" x="8" y="-85.5" font-family="Helvetica,sans-Serif" font-size="10.00">RayLib_SHMUP/src/PaternEditor</text>
<text text-anchor="middle" x="80.5" y="-74.5" font-family="Helvetica,sans-Serif" font-size="10.00">/PaternComputer.cpp</text>
</a>
</g>
</g>
<!-- Node2&#45;&gt;Node3 -->
<g id="edge2" class="edge">
<title>Node2&#45;&gt;Node3</title>
<path fill="none" stroke="midnightblue" d="M211.18,-130.96C182.35,-120.48 146.22,-107.37 119.26,-97.58"/>
<polygon fill="midnightblue" stroke="midnightblue" points="210.07,-134.27 220.66,-134.4 212.45,-127.69 210.07,-134.27"/>
</g>
<!-- Node4 -->
<g id="node4" class="node">
<title>Node4</title>
<g id="a_node4"><a xlink:href="../../d5/d58/_patern_editor_main_8cpp.html" target="_top" xlink:title=" ">
<polygon fill="white" stroke="black" points="179,-67.5 179,-97.5 340,-97.5 340,-67.5 179,-67.5"/>
<text text-anchor="start" x="187" y="-85.5" font-family="Helvetica,sans-Serif" font-size="10.00">RayLib_SHMUP/src/PaternEditor</text>
<text text-anchor="middle" x="259.5" y="-74.5" font-family="Helvetica,sans-Serif" font-size="10.00">Main.cpp</text>
</a>
</g>
</g>
<!-- Node2&#45;&gt;Node4 -->
<g id="edge3" class="edge">
<title>Node2&#45;&gt;Node4</title>
<path fill="none" stroke="midnightblue" d="M259.5,-124.11C259.5,-115.15 259.5,-105.32 259.5,-97.58"/>
<polygon fill="midnightblue" stroke="midnightblue" points="256,-124.4 259.5,-134.4 263,-124.4 256,-124.4"/>
</g>
<!-- Node6 -->
<g id="node6" class="node">
<title>Node6</title>
<g id="a_node6"><a xlink:href="../../d2/d2e/_game_manager_8cpp.html" target="_top" xlink:title=" ">
<polygon fill="white" stroke="black" points="470,-0.5 470,-30.5 609,-30.5 609,-0.5 470,-0.5"/>
<text text-anchor="start" x="478" y="-18.5" font-family="Helvetica,sans-Serif" font-size="10.00">RayLib_SHMUP/src/Shmup</text>
<text text-anchor="middle" x="539.5" y="-7.5" font-family="Helvetica,sans-Serif" font-size="10.00">/GameManager.cpp</text>
</a>
</g>
</g>
<!-- Node5&#45;&gt;Node6 -->
<g id="edge5" class="edge">
<title>Node5&#45;&gt;Node6</title>
<path fill="none" stroke="midnightblue" d="M469.57,-143.2C439,-136.9 406.45,-123.99 387.5,-98 360.96,-61.58 418.16,-39.82 469.81,-28.06"/>
<polygon fill="midnightblue" stroke="midnightblue" points="468.93,-146.64 479.4,-145.02 470.2,-139.76 468.93,-146.64"/>
</g>
<!-- Node7 -->
<g id="node7" class="node">
<title>Node7</title>
<g id="a_node7"><a xlink:href="../../df/dd2/_level_manager_8cpp.html" target="_top" xlink:title=" ">
<polygon fill="white" stroke="black" points="397,-67.5 397,-97.5 536,-97.5 536,-67.5 397,-67.5"/>
<text text-anchor="start" x="405" y="-85.5" font-family="Helvetica,sans-Serif" font-size="10.00">RayLib_SHMUP/src/Shmup</text>
<text text-anchor="middle" x="466.5" y="-74.5" font-family="Helvetica,sans-Serif" font-size="10.00">/LevelManager.cpp</text>
</a>
</g>
</g>
<!-- Node5&#45;&gt;Node7 -->
<g id="edge6" class="edge">
<title>Node5&#45;&gt;Node7</title>
<path fill="none" stroke="midnightblue" d="M519.76,-127.88C507.91,-118.01 494.02,-106.43 483.39,-97.58"/>
<polygon fill="midnightblue" stroke="midnightblue" points="517.65,-130.68 527.58,-134.4 522.13,-125.31 517.65,-130.68"/>
</g>
<!-- Node8 -->
<g id="node8" class="node">
<title>Node8</title>
<g id="a_node8"><a xlink:href="../../de/d34/_enemy_8cpp.html" target="_top" xlink:title=" ">
<polygon fill="white" stroke="black" points="554,-67.5 554,-97.5 693,-97.5 693,-67.5 554,-67.5"/>
<text text-anchor="start" x="562" y="-85.5" font-family="Helvetica,sans-Serif" font-size="10.00">RayLib_SHMUP/src/Shmup</text>
<text text-anchor="middle" x="623.5" y="-74.5" font-family="Helvetica,sans-Serif" font-size="10.00">/Movable/Enemy.cpp</text>
</a>
</g>
</g>
<!-- Node5&#45;&gt;Node8 -->
<g id="edge7" class="edge">
<title>Node5&#45;&gt;Node8</title>
<path fill="none" stroke="midnightblue" d="M569.56,-127.88C581.56,-118.01 595.63,-106.43 606.39,-97.58"/>
<polygon fill="midnightblue" stroke="midnightblue" points="567.14,-125.34 561.64,-134.4 571.59,-130.75 567.14,-125.34"/>
</g>
<!-- Node10 -->
<g id="node10" class="node">
<title>Node10</title>
<g id="a_node10"><a xlink:href="../../d1/d39/_player_8h.html" target="_top" xlink:title=" ">
<polygon fill="white" stroke="black" points="711.5,-67.5 711.5,-97.5 839.5,-97.5 839.5,-67.5 711.5,-67.5"/>
<text text-anchor="start" x="719.5" y="-85.5" font-family="Helvetica,sans-Serif" font-size="10.00">RayLib_SHMUP/include</text>
<text text-anchor="middle" x="775.5" y="-74.5" font-family="Helvetica,sans-Serif" font-size="10.00">/Shmup/Movable/Player.h</text>
</a>
</g>
</g>
<!-- Node9&#45;&gt;Node10 -->
<g id="edge9" class="edge">
<title>Node9&#45;&gt;Node10</title>
<path fill="none" stroke="midnightblue" d="M876.65,-130.13C854.25,-119.8 826.72,-107.11 806.04,-97.58"/>
<polygon fill="midnightblue" stroke="midnightblue" points="875.36,-133.39 885.91,-134.4 878.29,-127.03 875.36,-133.39"/>
</g>
<!-- Node11 -->
<g id="node11" class="node">
<title>Node11</title>
<g id="a_node11"><a xlink:href="../../d2/d82/_player_8cpp.html" target="_top" xlink:title=" ">
<polygon fill="white" stroke="black" points="752,-0.5 752,-30.5 891,-30.5 891,-0.5 752,-0.5"/>
<text text-anchor="start" x="760" y="-18.5" font-family="Helvetica,sans-Serif" font-size="10.00">RayLib_SHMUP/src/Shmup</text>
<text text-anchor="middle" x="821.5" y="-7.5" font-family="Helvetica,sans-Serif" font-size="10.00">/Movable/Player.cpp</text>
</a>
</g>
</g>
<!-- Node9&#45;&gt;Node11 -->
<g id="edge12" class="edge">
<title>Node9&#45;&gt;Node11</title>
<path fill="none" stroke="midnightblue" d="M900.44,-126.19C880.77,-98.86 848.04,-53.38 831.59,-30.52"/>
<polygon fill="midnightblue" stroke="midnightblue" points="897.65,-128.3 906.33,-134.37 903.33,-124.21 897.65,-128.3"/>
</g>
<!-- Node12 -->
<g id="node12" class="node">
<title>Node12</title>
<g id="a_node12"><a xlink:href="../../d6/dae/_shoot_8cpp.html" target="_top" xlink:title=" ">
<polygon fill="white" stroke="black" points="896,-67.5 896,-97.5 1035,-97.5 1035,-67.5 896,-67.5"/>
<text text-anchor="start" x="904" y="-85.5" font-family="Helvetica,sans-Serif" font-size="10.00">RayLib_SHMUP/src/Shmup</text>
<text text-anchor="middle" x="965.5" y="-74.5" font-family="Helvetica,sans-Serif" font-size="10.00">/Movable/Shoot.cpp</text>
</a>
</g>
</g>
<!-- Node9&#45;&gt;Node12 -->
<g id="edge13" class="edge">
<title>Node9&#45;&gt;Node12</title>
<path fill="none" stroke="midnightblue" d="M933.34,-126.16C940.49,-116.68 948.6,-105.92 954.89,-97.58"/>
<polygon fill="midnightblue" stroke="midnightblue" points="930.36,-124.3 927.13,-134.4 935.95,-128.52 930.36,-124.3"/>
</g>
<!-- Node13 -->
<g id="node13" class="node">
<title>Node13</title>
<g id="a_node13"><a xlink:href="../../dc/dac/_patern_linear_8cpp.html" target="_top" xlink:title=" ">
<polygon fill="white" stroke="black" points="1053.5,-67.5 1053.5,-97.5 1211.5,-97.5 1211.5,-67.5 1053.5,-67.5"/>
<text text-anchor="start" x="1061.5" y="-85.5" font-family="Helvetica,sans-Serif" font-size="10.00">RayLib_SHMUP/src/Shmup</text>
<text text-anchor="middle" x="1132.5" y="-74.5" font-family="Helvetica,sans-Serif" font-size="10.00">/Paterns/Shoot/PaternLinear.cpp</text>
</a>
</g>
</g>
<!-- Node9&#45;&gt;Node13 -->
<g id="edge14" class="edge">
<title>Node9&#45;&gt;Node13</title>
<path fill="none" stroke="midnightblue" d="M972.73,-131.58C1007.81,-121.02 1052.44,-107.59 1085.61,-97.61"/>
<polygon fill="midnightblue" stroke="midnightblue" points="971.67,-128.24 963.1,-134.48 973.69,-134.95 971.67,-128.24"/>
</g>
<!-- Node14 -->
<g id="node14" class="node">
<title>Node14</title>
<g id="a_node14"><a xlink:href="../../d8/d91/_patern_rotate_8cpp.html" target="_top" xlink:title=" ">
<polygon fill="white" stroke="black" points="1229.5,-67.5 1229.5,-97.5 1389.5,-97.5 1389.5,-67.5 1229.5,-67.5"/>
<text text-anchor="start" x="1237.5" y="-85.5" font-family="Helvetica,sans-Serif" font-size="10.00">RayLib_SHMUP/src/Shmup</text>
<text text-anchor="middle" x="1309.5" y="-74.5" font-family="Helvetica,sans-Serif" font-size="10.00">/Paterns/Shoot/PaternRotate.cpp</text>
</a>
</g>
</g>
<!-- Node9&#45;&gt;Node14 -->
<g id="edge15" class="edge">
<title>Node9&#45;&gt;Node14</title>
<path fill="none" stroke="midnightblue" d="M989.72,-134.01C1093.46,-115.77 1121,-113.86 1220.5,-98 1223.44,-97.53 1226.43,-97.05 1229.45,-96.57"/>
<polygon fill="midnightblue" stroke="midnightblue" points="989.02,-130.58 979.78,-135.76 990.23,-137.47 989.02,-130.58"/>
</g>
<!-- Node15 -->
<g id="node15" class="node">
<title>Node15</title>
<g id="a_node15"><a xlink:href="../../db/db4/_patern_v_spread_8cpp.html" target="_top" xlink:title=" ">
<polygon fill="white" stroke="black" points="1408,-67.5 1408,-97.5 1577,-97.5 1577,-67.5 1408,-67.5"/>
<text text-anchor="start" x="1416" y="-85.5" font-family="Helvetica,sans-Serif" font-size="10.00">RayLib_SHMUP/src/Shmup</text>
<text text-anchor="middle" x="1492.5" y="-74.5" font-family="Helvetica,sans-Serif" font-size="10.00">/Paterns/Shoot/PaternVSpread.cpp</text>
</a>
</g>
</g>
<!-- Node9&#45;&gt;Node15 -->
<g id="edge16" class="edge">
<title>Node9&#45;&gt;Node15</title>
<path fill="none" stroke="midnightblue" d="M989.65,-134.1C1171.85,-108.59 1220.53,-119.54 1398.5,-98 1401.61,-97.62 1404.78,-97.22 1407.98,-96.8"/>
<polygon fill="midnightblue" stroke="midnightblue" points="989.15,-130.64 979.74,-135.5 990.13,-137.57 989.15,-130.64"/>
</g>
<!-- Node10&#45;&gt;Node6 -->
<g id="edge10" class="edge">
<title>Node10&#45;&gt;Node6</title>
<path fill="none" stroke="midnightblue" d="M714.56,-64.71C676.15,-54.14 627.13,-40.63 590.73,-30.61"/>
<polygon fill="midnightblue" stroke="midnightblue" points="714.01,-68.19 724.58,-67.48 715.87,-61.45 714.01,-68.19"/>
</g>
<!-- Node10&#45;&gt;Node11 -->
<g id="edge11" class="edge">
<title>Node10&#45;&gt;Node11</title>
<path fill="none" stroke="midnightblue" d="M791.31,-59.16C798.02,-49.68 805.63,-38.92 811.54,-30.58"/>
<polygon fill="midnightblue" stroke="midnightblue" points="788.4,-57.21 785.48,-67.4 794.12,-61.26 788.4,-57.21"/>
</g>
</g>
</svg>
