<?xml version="1.0" encoding="UTF-8" standalone="no"?>
<!DOCTYPE svg PUBLIC "-//W3C//DTD SVG 1.1//EN"
 "http://www.w3.org/Graphics/SVG/1.1/DTD/svg11.dtd">
<!-- Generated by graphviz version 2.49.3 (20211027.1534)
 -->
<!-- Title: RayLib_SHMUP/src/PaternEditor/PaternComputer.cpp Pages: 1 -->
<svg width="1022pt" height="341pt"
 viewBox="0.00 0.00 1021.50 341.00" xmlns="http://www.w3.org/2000/svg" xmlns:xlink="http://www.w3.org/1999/xlink">
<g id="graph0" class="graph" transform="scale(1 1) rotate(0) translate(4 337)">
<title>RayLib_SHMUP/src/PaternEditor/PaternComputer.cpp</title>
<polygon fill="white" stroke="transparent" points="-4,4 -4,-337 1017.5,-337 1017.5,4 -4,4"/>
<!-- Node1 -->
<g id="node1" class="node">
<title>Node1</title>
<g id="a_node1"><a xlink:title=" ">
<polygon fill="#bfbfbf" stroke="black" points="594.5,-302.5 594.5,-332.5 755.5,-332.5 755.5,-302.5 594.5,-302.5"/>
<text text-anchor="start" x="602.5" y="-320.5" font-family="Helvetica,sans-Serif" font-size="10.00">RayLib_SHMUP/src/PaternEditor</text>
<text text-anchor="middle" x="675" y="-309.5" font-family="Helvetica,sans-Serif" font-size="10.00">/PaternComputer.cpp</text>
</a>
</g>
</g>
<!-- Node2 -->
<g id="node2" class="node">
<title>Node2</title>
<g id="a_node2"><a xlink:title=" ">
<polygon fill="white" stroke="#bfbfbf" points="34,-0.5 34,-19.5 88,-19.5 88,-0.5 34,-0.5"/>
<text text-anchor="middle" x="61" y="-7.5" font-family="Helvetica,sans-Serif" font-size="10.00">iostream</text>
</a>
</g>
</g>
<!-- Node1&#45;&gt;Node2 -->
<g id="edge1" class="edge">
<title>Node1&#45;&gt;Node2</title>
<path fill="none" stroke="midnightblue" d="M594.42,-312.83C463.96,-306.26 212.5,-290.82 127,-266 66.11,-248.33 0,-264.41 0,-201 0,-201 0,-201 0,-137.5 0,-94.45 29.02,-50.61 47.02,-27.55"/>
<polygon fill="midnightblue" stroke="midnightblue" points="49.96,-29.49 53.52,-19.51 44.51,-25.09 49.96,-29.49"/>
</g>
<!-- Node3 -->
<g id="node3" class="node">
<title>Node3</title>
<g id="a_node3"><a xlink:title=" ">
<polygon fill="white" stroke="#bfbfbf" points="106,-0.5 106,-19.5 150,-19.5 150,-0.5 106,-0.5"/>
<text text-anchor="middle" x="128" y="-7.5" font-family="Helvetica,sans-Serif" font-size="10.00">vector</text>
</a>
</g>
</g>
<!-- Node1&#45;&gt;Node3 -->
<g id="edge2" class="edge">
<title>Node1&#45;&gt;Node3</title>
<path fill="none" stroke="midnightblue" d="M594.32,-310.19C422.92,-295.69 38,-256.92 38,-201 38,-201 38,-201 38,-137.5 38,-89.59 81.39,-47.22 107.92,-25.8"/>
<polygon fill="midnightblue" stroke="midnightblue" points="110.13,-28.51 115.86,-19.6 105.83,-22.99 110.13,-28.51"/>
</g>
<!-- Node4 -->
<g id="node4" class="node">
<title>Node4</title>
<g id="a_node4"><a xlink:title=" ">
<polygon fill="white" stroke="#bfbfbf" points="559.5,-0.5 559.5,-19.5 606.5,-19.5 606.5,-0.5 559.5,-0.5"/>
<text text-anchor="middle" x="583" y="-7.5" font-family="Helvetica,sans-Serif" font-size="10.00">raylib.h</text>
</a>
</g>
</g>
<!-- Node1&#45;&gt;Node4 -->
<g id="edge3" class="edge">
<title>Node1&#45;&gt;Node4</title>
<path fill="none" stroke="midnightblue" d="M681.42,-302.24C690.5,-280.76 706,-238.58 706,-201 706,-201 706,-201 706,-137.5 706,-96.95 693.15,-85.18 665,-56 651.33,-41.83 632.23,-31 615.89,-23.51"/>
<polygon fill="midnightblue" stroke="midnightblue" points="617.22,-20.27 606.66,-19.49 614.43,-26.69 617.22,-20.27"/>
</g>
<!-- Node5 -->
<g id="node5" class="node">
<title>Node5</title>
<g id="a_node5"><a xlink:href="../../d3/d22/_patern_computer_8h.html" target="_top" xlink:title=" ">
<polygon fill="white" stroke="black" points="495.5,-246.5 495.5,-265.5 646.5,-265.5 646.5,-246.5 495.5,-246.5"/>
<text text-anchor="middle" x="571" y="-253.5" font-family="Helvetica,sans-Serif" font-size="10.00">PaternEditor/PaternComputer.h</text>
</a>
</g>
</g>
<!-- Node1&#45;&gt;Node5 -->
<g id="edge4" class="edge">
<title>Node1&#45;&gt;Node5</title>
<path fill="none" stroke="midnightblue" d="M650.35,-302.4C633.68,-292.86 611.77,-280.32 595.19,-270.84"/>
<polygon fill="midnightblue" stroke="midnightblue" points="596.55,-267.59 586.13,-265.66 593.07,-273.66 596.55,-267.59"/>
</g>
<!-- Node14 -->
<g id="node14" class="node">
<title>Node14</title>
<g id="a_node14"><a xlink:href="../../d5/daf/_game_status_8h.html" target="_top" xlink:title=" ">
<polygon fill="white" stroke="black" points="734,-246.5 734,-265.5 874,-265.5 874,-246.5 734,-246.5"/>
<text text-anchor="middle" x="804" y="-253.5" font-family="Helvetica,sans-Serif" font-size="10.00">Namespaces/GameStatus.h</text>
</a>
</g>
</g>
<!-- Node1&#45;&gt;Node14 -->
<g id="edge21" class="edge">
<title>Node1&#45;&gt;Node14</title>
<path fill="none" stroke="midnightblue" d="M705.57,-302.4C726.93,-292.55 755.22,-279.5 775.98,-269.92"/>
<polygon fill="midnightblue" stroke="midnightblue" points="777.61,-273.02 785.23,-265.66 774.68,-266.67 777.61,-273.02"/>
</g>
<!-- Node15 -->
<g id="node15" class="node">
<title>Node15</title>
<g id="a_node15"><a xlink:href="../../d0/d80/_random_8h.html" target="_top" xlink:title=" ">
<polygon fill="white" stroke="black" points="892.5,-246.5 892.5,-265.5 1013.5,-265.5 1013.5,-246.5 892.5,-246.5"/>
<text text-anchor="middle" x="953" y="-253.5" font-family="Helvetica,sans-Serif" font-size="10.00">Namespaces/Random.h</text>
</a>
</g>
</g>
<!-- Node1&#45;&gt;Node15 -->
<g id="edge22" class="edge">
<title>Node1&#45;&gt;Node15</title>
<path fill="none" stroke="midnightblue" d="M740.53,-302.47C790.38,-291.81 857.91,-277.35 903.34,-267.63"/>
<polygon fill="midnightblue" stroke="midnightblue" points="904.21,-271.02 913.26,-265.51 902.74,-264.18 904.21,-271.02"/>
</g>
<!-- Node6 -->
<g id="node6" class="node">
<title>Node6</title>
<g id="a_node6"><a xlink:href="../../d1/d98/_sequence_move_patern_8h.html" target="_top" xlink:title=" ">
<polygon fill="white" stroke="black" points="101.5,-123.5 101.5,-153.5 224.5,-153.5 224.5,-123.5 101.5,-123.5"/>
<text text-anchor="start" x="109.5" y="-141.5" font-family="Helvetica,sans-Serif" font-size="10.00">Shmup/Paterns/Enemy</text>
<text text-anchor="middle" x="163" y="-130.5" font-family="Helvetica,sans-Serif" font-size="10.00">/SequenceMovePatern.h</text>
</a>
</g>
</g>
<!-- Node5&#45;&gt;Node6 -->
<g id="edge5" class="edge">
<title>Node5&#45;&gt;Node6</title>
<path fill="none" stroke="midnightblue" d="M540.67,-246.41C473.45,-227.38 310.94,-181.38 222.6,-156.37"/>
<polygon fill="midnightblue" stroke="midnightblue" points="223.3,-152.93 212.72,-153.58 221.39,-159.67 223.3,-152.93"/>
</g>
<!-- Node10 -->
<g id="node10" class="node">
<title>Node10</title>
<g id="a_node10"><a xlink:href="../../db/d1b/_a_movable_8h.html" target="_top" xlink:title=" ">
<polygon fill="white" stroke="black" points="520.5,-190.5 520.5,-209.5 621.5,-209.5 621.5,-190.5 520.5,-190.5"/>
<text text-anchor="middle" x="571" y="-197.5" font-family="Helvetica,sans-Serif" font-size="10.00">Shmup/AMovable.h</text>
</a>
</g>
</g>
<!-- Node5&#45;&gt;Node10 -->
<g id="edge12" class="edge">
<title>Node5&#45;&gt;Node10</title>
<path fill="none" stroke="midnightblue" d="M571,-246.08C571,-239.01 571,-228.86 571,-219.99"/>
<polygon fill="midnightblue" stroke="midnightblue" points="574.5,-219.75 571,-209.75 567.5,-219.75 574.5,-219.75"/>
</g>
<!-- Node6&#45;&gt;Node2 -->
<g id="edge9" class="edge">
<title>Node6&#45;&gt;Node2</title>
<path fill="none" stroke="midnightblue" d="M151.69,-123.48C132.76,-100 94.74,-52.84 74.46,-27.69"/>
<polygon fill="midnightblue" stroke="midnightblue" points="77.09,-25.38 68.09,-19.79 71.64,-29.77 77.09,-25.38"/>
</g>
<!-- Node6&#45;&gt;Node3 -->
<g id="edge11" class="edge">
<title>Node6&#45;&gt;Node3</title>
<path fill="none" stroke="midnightblue" d="M152.11,-123.35C145.32,-113.67 137.11,-100.25 133,-87 127.19,-68.28 126.43,-45.76 126.82,-30.12"/>
<polygon fill="midnightblue" stroke="midnightblue" points="130.34,-29.81 127.28,-19.67 123.35,-29.51 130.34,-29.81"/>
</g>
<!-- Node7 -->
<g id="node7" class="node">
<title>Node7</title>
<g id="a_node7"><a xlink:href="../../dc/d8f/_a_offsetable_patern_8h.html" target="_top" xlink:title=" ">
<polygon fill="white" stroke="black" points="332,-56.5 332,-86.5 470,-86.5 470,-56.5 332,-56.5"/>
<text text-anchor="start" x="340" y="-74.5" font-family="Helvetica,sans-Serif" font-size="10.00">Shmup/Paterns/AOffsetable</text>
<text text-anchor="middle" x="401" y="-63.5" font-family="Helvetica,sans-Serif" font-size="10.00">Patern.h</text>
</a>
</g>
</g>
<!-- Node6&#45;&gt;Node7 -->
<g id="edge6" class="edge">
<title>Node6&#45;&gt;Node7</title>
<path fill="none" stroke="midnightblue" d="M214.35,-123.48C250.98,-113.47 300.41,-99.97 339.2,-89.38"/>
<polygon fill="midnightblue" stroke="midnightblue" points="340.61,-92.62 349.33,-86.61 338.76,-85.87 340.61,-92.62"/>
</g>
<!-- Node9 -->
<g id="node9" class="node">
<title>Node9</title>
<g id="a_node9"><a xlink:title=" ">
<polygon fill="white" stroke="#bfbfbf" points="142.5,-62 142.5,-81 183.5,-81 183.5,-62 142.5,-62"/>
<text text-anchor="middle" x="163" y="-69" font-family="Helvetica,sans-Serif" font-size="10.00">string</text>
</a>
</g>
</g>
<!-- Node6&#45;&gt;Node9 -->
<g id="edge10" class="edge">
<title>Node6&#45;&gt;Node9</title>
<path fill="none" stroke="midnightblue" d="M163,-123.4C163,-114.06 163,-101.71 163,-91.52"/>
<polygon fill="midnightblue" stroke="midnightblue" points="166.5,-91.19 163,-81.19 159.5,-91.19 166.5,-91.19"/>
</g>
<!-- Node7&#45;&gt;Node4 -->
<g id="edge7" class="edge">
<title>Node7&#45;&gt;Node4</title>
<path fill="none" stroke="midnightblue" d="M444.13,-56.4C476.38,-45.86 519.85,-31.64 549.51,-21.95"/>
<polygon fill="midnightblue" stroke="midnightblue" points="550.97,-25.16 559.38,-18.72 548.79,-18.5 550.97,-25.16"/>
</g>
<!-- Node8 -->
<g id="node8" class="node">
<title>Node8</title>
<g id="a_node8"><a xlink:href="../../df/d50/_a_patern_8h.html" target="_top" xlink:title=" ">
<polygon fill="white" stroke="black" points="371.5,-0.5 371.5,-19.5 430.5,-19.5 430.5,-0.5 371.5,-0.5"/>
<text text-anchor="middle" x="401" y="-7.5" font-family="Helvetica,sans-Serif" font-size="10.00">APatern.h</text>
</a>
</g>
</g>
<!-- Node7&#45;&gt;Node8 -->
<g id="edge8" class="edge">
<title>Node7&#45;&gt;Node8</title>
<path fill="none" stroke="midnightblue" d="M401,-56.4C401,-48.47 401,-38.46 401,-29.86"/>
<polygon fill="midnightblue" stroke="midnightblue" points="404.5,-29.66 401,-19.66 397.5,-29.66 404.5,-29.66"/>
</g>
<!-- Node10&#45;&gt;Node4 -->
<g id="edge13" class="edge">
<title>Node10&#45;&gt;Node4</title>
<path fill="none" stroke="midnightblue" d="M579.82,-190.46C597.15,-172.99 635.16,-131.08 649,-87 653.13,-73.85 655.44,-68.18 649,-56 641.58,-41.95 627.58,-31.47 614.38,-24.17"/>
<polygon fill="midnightblue" stroke="midnightblue" points="615.96,-21.04 605.46,-19.62 612.78,-27.28 615.96,-21.04"/>
</g>
<!-- Node11 -->
<g id="node11" class="node">
<title>Node11</title>
<g id="a_node11"><a xlink:href="../../d7/daf/_a_graphic_object_8h.html" target="_top" xlink:title=" ">
<polygon fill="white" stroke="black" points="493.5,-129 493.5,-148 586.5,-148 586.5,-129 493.5,-129"/>
<text text-anchor="middle" x="540" y="-136" font-family="Helvetica,sans-Serif" font-size="10.00">AGraphicObject.h</text>
</a>
</g>
</g>
<!-- Node10&#45;&gt;Node11 -->
<g id="edge14" class="edge">
<title>Node10&#45;&gt;Node11</title>
<path fill="none" stroke="midnightblue" d="M566.56,-190.48C562.05,-181.82 554.93,-168.15 549.19,-157.15"/>
<polygon fill="midnightblue" stroke="midnightblue" points="552.16,-155.26 544.43,-148.01 545.95,-158.49 552.16,-155.26"/>
</g>
<!-- Node11&#45;&gt;Node4 -->
<g id="edge15" class="edge">
<title>Node11&#45;&gt;Node4</title>
<path fill="none" stroke="midnightblue" d="M533.6,-128.97C522.94,-113.63 503.95,-80.7 517,-56 524.42,-41.95 538.42,-31.47 551.62,-24.17"/>
<polygon fill="midnightblue" stroke="midnightblue" points="553.22,-27.28 560.54,-19.62 550.04,-21.04 553.22,-27.28"/>
</g>
<!-- Node12 -->
<g id="node12" class="node">
<title>Node12</title>
<g id="a_node12"><a xlink:href="../../dc/d80/_instance_list_8h.html" target="_top" xlink:title=" ">
<polygon fill="white" stroke="black" points="202,-62 202,-81 314,-81 314,-62 202,-62"/>
<text text-anchor="middle" x="258" y="-69" font-family="Helvetica,sans-Serif" font-size="10.00">Shmup/InstanceList.h</text>
</a>
</g>
</g>
<!-- Node11&#45;&gt;Node12 -->
<g id="edge16" class="edge">
<title>Node11&#45;&gt;Node12</title>
<path fill="none" stroke="midnightblue" d="M502.84,-128.94C452.02,-117.22 360.79,-96.19 305.19,-83.38"/>
<polygon fill="midnightblue" stroke="midnightblue" points="305.77,-79.92 295.24,-81.08 304.2,-86.74 305.77,-79.92"/>
</g>
<!-- Node13 -->
<g id="node13" class="node">
<title>Node13</title>
<g id="a_node13"><a xlink:href="../../da/d02/_transform2_d_8h.html" target="_top" xlink:title=" ">
<polygon fill="white" stroke="black" points="526,-62 526,-81 640,-81 640,-62 526,-62"/>
<text text-anchor="middle" x="583" y="-69" font-family="Helvetica,sans-Serif" font-size="10.00">Shmup/Transform2D.h</text>
</a>
</g>
</g>
<!-- Node11&#45;&gt;Node13 -->
<g id="edge19" class="edge">
<title>Node11&#45;&gt;Node13</title>
<path fill="none" stroke="midnightblue" d="M545.8,-128.73C552.38,-118.79 563.26,-102.34 571.56,-89.79"/>
<polygon fill="midnightblue" stroke="midnightblue" points="574.69,-91.4 577.29,-81.13 568.86,-87.54 574.69,-91.4"/>
</g>
<!-- Node12&#45;&gt;Node2 -->
<g id="edge17" class="edge">
<title>Node12&#45;&gt;Node2</title>
<path fill="none" stroke="midnightblue" d="M229.77,-61.98C195.1,-51.5 136.2,-33.71 97.95,-22.16"/>
<polygon fill="midnightblue" stroke="midnightblue" points="98.81,-18.76 88.22,-19.22 96.78,-25.46 98.81,-18.76"/>
</g>
<!-- Node12&#45;&gt;Node3 -->
<g id="edge18" class="edge">
<title>Node12&#45;&gt;Node3</title>
<path fill="none" stroke="midnightblue" d="M239.37,-61.98C217.56,-51.99 181.2,-35.35 155.98,-23.81"/>
<polygon fill="midnightblue" stroke="midnightblue" points="157.14,-20.49 146.59,-19.51 154.23,-26.85 157.14,-20.49"/>
</g>
<!-- Node13&#45;&gt;Node4 -->
<g id="edge20" class="edge">
<title>Node13&#45;&gt;Node4</title>
<path fill="none" stroke="midnightblue" d="M583,-61.98C583,-53.58 583,-40.48 583,-29.66"/>
<polygon fill="midnightblue" stroke="midnightblue" points="586.5,-29.51 583,-19.51 579.5,-29.51 586.5,-29.51"/>
</g>
</g>
</svg>
