<?xml version="1.0" encoding="UTF-8" standalone="no"?>
<!DOCTYPE svg PUBLIC "-//W3C//DTD SVG 1.1//EN"
 "http://www.w3.org/Graphics/SVG/1.1/DTD/svg11.dtd">
<!-- Generated by graphviz version 2.49.3 (20211027.1534)
 -->
<!-- Title: RayLib_SHMUP/src/Shmup/Collision/Collider.cpp Pages: 1 -->
<svg width="356pt" height="229pt"
 viewBox="0.00 0.00 355.50 229.00" xmlns="http://www.w3.org/2000/svg" xmlns:xlink="http://www.w3.org/1999/xlink">
<g id="graph0" class="graph" transform="scale(1 1) rotate(0) translate(4 225)">
<title>RayLib_SHMUP/src/Shmup/Collision/Collider.cpp</title>
<polygon fill="white" stroke="transparent" points="-4,4 -4,-225 351.5,-225 351.5,4 -4,4"/>
<!-- Node1 -->
<g id="node1" class="node">
<title>Node1</title>
<g id="a_node1"><a xlink:title=" ">
<polygon fill="#bfbfbf" stroke="black" points="135.5,-190.5 135.5,-220.5 274.5,-220.5 274.5,-190.5 135.5,-190.5"/>
<text text-anchor="start" x="143.5" y="-208.5" font-family="Helvetica,sans-Serif" font-size="10.00">RayLib_SHMUP/src/Shmup</text>
<text text-anchor="middle" x="205" y="-197.5" font-family="Helvetica,sans-Serif" font-size="10.00">/Collision/Collider.cpp</text>
</a>
</g>
</g>
<!-- Node2 -->
<g id="node2" class="node">
<title>Node2</title>
<g id="a_node2"><a xlink:href="../../d1/d77/_collider_calculation_8h.html" target="_top" xlink:title=" ">
<polygon fill="white" stroke="black" points="0,-123.5 0,-153.5 122,-153.5 122,-123.5 0,-123.5"/>
<text text-anchor="start" x="8" y="-141.5" font-family="Helvetica,sans-Serif" font-size="10.00">Shmup/Collision/Collider</text>
<text text-anchor="middle" x="61" y="-130.5" font-family="Helvetica,sans-Serif" font-size="10.00">Calculation.h</text>
</a>
</g>
</g>
<!-- Node1&#45;&gt;Node2 -->
<g id="edge1" class="edge">
<title>Node1&#45;&gt;Node2</title>
<path fill="none" stroke="midnightblue" d="M173.75,-190.4C152.53,-180.81 124.25,-168.05 101.32,-157.7"/>
<polygon fill="midnightblue" stroke="midnightblue" points="102.74,-154.5 92.18,-153.58 99.86,-160.88 102.74,-154.5"/>
</g>
<!-- Node5 -->
<g id="node5" class="node">
<title>Node5</title>
<g id="a_node5"><a xlink:href="../../d5/d36/_collider_8h.html" target="_top" xlink:title=" ">
<polygon fill="white" stroke="black" points="140,-129 140,-148 270,-148 270,-129 140,-129"/>
<text text-anchor="middle" x="205" y="-136" font-family="Helvetica,sans-Serif" font-size="10.00">Shmup/Collision/Collider.h</text>
</a>
</g>
</g>
<!-- Node1&#45;&gt;Node5 -->
<g id="edge4" class="edge">
<title>Node1&#45;&gt;Node5</title>
<path fill="none" stroke="midnightblue" d="M205,-190.4C205,-181.06 205,-168.71 205,-158.52"/>
<polygon fill="midnightblue" stroke="midnightblue" points="208.5,-158.19 205,-148.19 201.5,-158.19 208.5,-158.19"/>
</g>
<!-- Node8 -->
<g id="node8" class="node">
<title>Node8</title>
<g id="a_node8"><a xlink:title=" ">
<polygon fill="white" stroke="#bfbfbf" points="288.5,-129 288.5,-148 347.5,-148 347.5,-129 288.5,-129"/>
<text text-anchor="middle" x="318" y="-136" font-family="Helvetica,sans-Serif" font-size="10.00">raymath.h</text>
</a>
</g>
</g>
<!-- Node1&#45;&gt;Node8 -->
<g id="edge9" class="edge">
<title>Node1&#45;&gt;Node8</title>
<path fill="none" stroke="midnightblue" d="M229.52,-190.4C248.73,-179.34 275.3,-164.06 294.3,-153.13"/>
<polygon fill="midnightblue" stroke="midnightblue" points="296.29,-156.03 303.21,-148.01 292.8,-149.96 296.29,-156.03"/>
</g>
<!-- Node3 -->
<g id="node3" class="node">
<title>Node3</title>
<g id="a_node3"><a xlink:href="../../da/d02/_transform2_d_8h.html" target="_top" xlink:title=" ">
<polygon fill="white" stroke="black" points="33,-62 33,-81 147,-81 147,-62 33,-62"/>
<text text-anchor="middle" x="90" y="-69" font-family="Helvetica,sans-Serif" font-size="10.00">Shmup/Transform2D.h</text>
</a>
</g>
</g>
<!-- Node2&#45;&gt;Node3 -->
<g id="edge2" class="edge">
<title>Node2&#45;&gt;Node3</title>
<path fill="none" stroke="midnightblue" d="M67.29,-123.4C71.59,-113.76 77.32,-100.91 81.95,-90.54"/>
<polygon fill="midnightblue" stroke="midnightblue" points="85.24,-91.75 86.12,-81.19 78.85,-88.9 85.24,-91.75"/>
</g>
<!-- Node4 -->
<g id="node4" class="node">
<title>Node4</title>
<g id="a_node4"><a xlink:title=" ">
<polygon fill="white" stroke="#bfbfbf" points="109.5,-0.5 109.5,-19.5 156.5,-19.5 156.5,-0.5 109.5,-0.5"/>
<text text-anchor="middle" x="133" y="-7.5" font-family="Helvetica,sans-Serif" font-size="10.00">raylib.h</text>
</a>
</g>
</g>
<!-- Node3&#45;&gt;Node4 -->
<g id="edge3" class="edge">
<title>Node3&#45;&gt;Node4</title>
<path fill="none" stroke="midnightblue" d="M96.16,-61.98C102.61,-53.05 112.9,-38.81 120.97,-27.64"/>
<polygon fill="midnightblue" stroke="midnightblue" points="123.83,-29.66 126.85,-19.51 118.16,-25.56 123.83,-29.66"/>
</g>
<!-- Node5&#45;&gt;Node3 -->
<g id="edge6" class="edge">
<title>Node5&#45;&gt;Node3</title>
<path fill="none" stroke="midnightblue" d="M189.49,-128.73C170.09,-117.77 136.67,-98.88 113.97,-86.05"/>
<polygon fill="midnightblue" stroke="midnightblue" points="115.69,-83 105.26,-81.13 112.25,-89.09 115.69,-83"/>
</g>
<!-- Node5&#45;&gt;Node4 -->
<g id="edge5" class="edge">
<title>Node5&#45;&gt;Node4</title>
<path fill="none" stroke="midnightblue" d="M200.05,-128.81C188.34,-108.22 158.72,-56.19 143.06,-28.68"/>
<polygon fill="midnightblue" stroke="midnightblue" points="145.97,-26.72 137.98,-19.76 139.89,-30.18 145.97,-26.72"/>
</g>
<!-- Node6 -->
<g id="node6" class="node">
<title>Node6</title>
<g id="a_node6"><a xlink:href="../../de/d60/_collider_settings_8h.html" target="_top" xlink:title=" ">
<polygon fill="white" stroke="black" points="203,-56.5 203,-86.5 325,-86.5 325,-56.5 203,-56.5"/>
<text text-anchor="start" x="211" y="-74.5" font-family="Helvetica,sans-Serif" font-size="10.00">Shmup/Collision/Collider</text>
<text text-anchor="middle" x="264" y="-63.5" font-family="Helvetica,sans-Serif" font-size="10.00">Settings.h</text>
</a>
</g>
</g>
<!-- Node5&#45;&gt;Node6 -->
<g id="edge7" class="edge">
<title>Node5&#45;&gt;Node6</title>
<path fill="none" stroke="midnightblue" d="M212.96,-128.73C220.93,-119.95 233.52,-106.08 244.2,-94.31"/>
<polygon fill="midnightblue" stroke="midnightblue" points="247.08,-96.35 251.21,-86.59 241.9,-91.64 247.08,-96.35"/>
</g>
<!-- Node7 -->
<g id="node7" class="node">
<title>Node7</title>
<g id="a_node7"><a xlink:title=" ">
<polygon fill="white" stroke="#bfbfbf" points="242,-0.5 242,-19.5 286,-19.5 286,-0.5 242,-0.5"/>
<text text-anchor="middle" x="264" y="-7.5" font-family="Helvetica,sans-Serif" font-size="10.00">vector</text>
</a>
</g>
</g>
<!-- Node6&#45;&gt;Node7 -->
<g id="edge8" class="edge">
<title>Node6&#45;&gt;Node7</title>
<path fill="none" stroke="midnightblue" d="M264,-56.4C264,-48.47 264,-38.46 264,-29.86"/>
<polygon fill="midnightblue" stroke="midnightblue" points="267.5,-29.66 264,-19.66 260.5,-29.66 267.5,-29.66"/>
</g>
</g>
</svg>
