<?xml version="1.0" encoding="UTF-8" standalone="no"?>
<!DOCTYPE svg PUBLIC "-//W3C//DTD SVG 1.1//EN"
 "http://www.w3.org/Graphics/SVG/1.1/DTD/svg11.dtd">
<!-- Generated by graphviz version 2.49.3 (20211027.1534)
 -->
<!-- Title: RayLib_SHMUP/include/Shmup/AGraphicObject.h Pages: 1 -->
<svg width="1610pt" height="307pt"
 viewBox="0.00 0.00 1610.05 307.00" xmlns="http://www.w3.org/2000/svg" xmlns:xlink="http://www.w3.org/1999/xlink">
<g id="graph0" class="graph" transform="scale(1 1) rotate(0) translate(4 303)">
<title>RayLib_SHMUP/include/Shmup/AGraphicObject.h</title>
<polygon fill="white" stroke="transparent" points="-4,4 -4,-303 1606.05,-303 1606.05,4 -4,4"/>
<!-- Node1 -->
<g id="node1" class="node">
<title>Node1</title>
<g id="a_node1"><a xlink:title=" ">
<polygon fill="#bfbfbf" stroke="black" points="1069.55,-268.5 1069.55,-298.5 1199.55,-298.5 1199.55,-268.5 1069.55,-268.5"/>
<text text-anchor="start" x="1077.55" y="-286.5" font-family="Helvetica,sans-Serif" font-size="10.00">RayLib_SHMUP/include</text>
<text text-anchor="middle" x="1134.55" y="-275.5" font-family="Helvetica,sans-Serif" font-size="10.00">/Shmup/AGraphicObject.h</text>
</a>
</g>
</g>
<!-- Node2 -->
<g id="node2" class="node">
<title>Node2</title>
<g id="a_node2"><a xlink:href="../../db/d1b/_a_movable_8h.html" target="_top" xlink:title=" ">
<polygon fill="white" stroke="black" points="1003.55,-201.5 1003.55,-231.5 1125.55,-231.5 1125.55,-201.5 1003.55,-201.5"/>
<text text-anchor="start" x="1011.55" y="-219.5" font-family="Helvetica,sans-Serif" font-size="10.00">RayLib_SHMUP/include</text>
<text text-anchor="middle" x="1064.55" y="-208.5" font-family="Helvetica,sans-Serif" font-size="10.00">/Shmup/AMovable.h</text>
</a>
</g>
</g>
<!-- Node1&#45;&gt;Node2 -->
<g id="edge1" class="edge">
<title>Node1&#45;&gt;Node2</title>
<path fill="none" stroke="midnightblue" d="M1111.74,-261.31C1101.24,-251.56 1089.06,-240.26 1079.71,-231.58"/>
<polygon fill="midnightblue" stroke="midnightblue" points="1109.66,-264.16 1119.37,-268.4 1114.42,-259.03 1109.66,-264.16"/>
</g>
<!-- Node7 -->
<g id="node7" class="node">
<title>Node7</title>
<g id="a_node7"><a xlink:href="../../d2/d2e/_game_manager_8cpp.html" target="_top" xlink:title=" ">
<polygon fill="white" stroke="black" points="1051.05,-0.5 1051.05,-30.5 1190.05,-30.5 1190.05,-0.5 1051.05,-0.5"/>
<text text-anchor="start" x="1059.05" y="-18.5" font-family="Helvetica,sans-Serif" font-size="10.00">RayLib_SHMUP/src/Shmup</text>
<text text-anchor="middle" x="1120.55" y="-7.5" font-family="Helvetica,sans-Serif" font-size="10.00">/GameManager.cpp</text>
</a>
</g>
</g>
<!-- Node1&#45;&gt;Node7 -->
<g id="edge23" class="edge">
<title>Node1&#45;&gt;Node7</title>
<path fill="none" stroke="midnightblue" d="M1058.86,-279.99C784.73,-269.61 -132.41,-222.93 16.55,-67 52.34,-29.54 813.69,-19.34 1050.74,-17.07"/>
<polygon fill="midnightblue" stroke="midnightblue" points="1058.99,-283.5 1069.11,-280.37 1059.25,-276.5 1058.99,-283.5"/>
</g>
<!-- Node18 -->
<g id="node18" class="node">
<title>Node18</title>
<g id="a_node18"><a xlink:href="../../d9/dee/_explosion_8h.html" target="_top" xlink:title=" ">
<polygon fill="white" stroke="black" points="1242.55,-201.5 1242.55,-231.5 1364.55,-231.5 1364.55,-201.5 1242.55,-201.5"/>
<text text-anchor="start" x="1250.55" y="-219.5" font-family="Helvetica,sans-Serif" font-size="10.00">RayLib_SHMUP/include</text>
<text text-anchor="middle" x="1303.55" y="-208.5" font-family="Helvetica,sans-Serif" font-size="10.00">/Shmup/Explosion.h</text>
</a>
</g>
</g>
<!-- Node1&#45;&gt;Node18 -->
<g id="edge19" class="edge">
<title>Node1&#45;&gt;Node18</title>
<path fill="none" stroke="midnightblue" d="M1180.88,-264.68C1207.99,-254.26 1241.72,-241.28 1266.96,-231.58"/>
<polygon fill="midnightblue" stroke="midnightblue" points="1179.3,-261.54 1171.22,-268.4 1181.81,-268.07 1179.3,-261.54"/>
</g>
<!-- Node20 -->
<g id="node20" class="node">
<title>Node20</title>
<g id="a_node20"><a xlink:href="../../de/d53/_a_graphic_object_8cpp.html" target="_top" xlink:title=" ">
<polygon fill="white" stroke="black" points="1383.05,-201.5 1383.05,-231.5 1522.05,-231.5 1522.05,-201.5 1383.05,-201.5"/>
<text text-anchor="start" x="1391.05" y="-219.5" font-family="Helvetica,sans-Serif" font-size="10.00">RayLib_SHMUP/src/Shmup</text>
<text text-anchor="middle" x="1452.55" y="-208.5" font-family="Helvetica,sans-Serif" font-size="10.00">/AGraphicObject.cpp</text>
</a>
</g>
</g>
<!-- Node1&#45;&gt;Node20 -->
<g id="edge22" class="edge">
<title>Node1&#45;&gt;Node20</title>
<path fill="none" stroke="midnightblue" d="M1209.66,-267.15C1262.49,-256.35 1332.63,-242.01 1383.95,-231.52"/>
<polygon fill="midnightblue" stroke="midnightblue" points="1208.77,-263.76 1199.67,-269.19 1210.17,-270.62 1208.77,-263.76"/>
</g>
<!-- Node3 -->
<g id="node3" class="node">
<title>Node3</title>
<g id="a_node3"><a xlink:href="../../d3/d22/_patern_computer_8h.html" target="_top" xlink:title=" ">
<polygon fill="white" stroke="black" points="208.55,-134.5 208.55,-164.5 362.55,-164.5 362.55,-134.5 208.55,-134.5"/>
<text text-anchor="start" x="216.55" y="-152.5" font-family="Helvetica,sans-Serif" font-size="10.00">RayLib_SHMUP/include</text>
<text text-anchor="middle" x="285.55" y="-141.5" font-family="Helvetica,sans-Serif" font-size="10.00">/PaternEditor/PaternComputer.h</text>
</a>
</g>
</g>
<!-- Node2&#45;&gt;Node3 -->
<g id="edge2" class="edge">
<title>Node2&#45;&gt;Node3</title>
<path fill="none" stroke="midnightblue" d="M993.22,-209.55C846.92,-197.34 513.97,-169.56 362.79,-156.94"/>
<polygon fill="midnightblue" stroke="midnightblue" points="993.17,-213.06 1003.43,-210.4 993.75,-206.08 993.17,-213.06"/>
</g>
<!-- Node6 -->
<g id="node6" class="node">
<title>Node6</title>
<g id="a_node6"><a xlink:href="../../d4/d1e/_enemy_8h.html" target="_top" xlink:title=" ">
<polygon fill="white" stroke="black" points="1184.55,-134.5 1184.55,-164.5 1314.55,-164.5 1314.55,-134.5 1184.55,-134.5"/>
<text text-anchor="start" x="1192.55" y="-152.5" font-family="Helvetica,sans-Serif" font-size="10.00">RayLib_SHMUP/include</text>
<text text-anchor="middle" x="1249.55" y="-141.5" font-family="Helvetica,sans-Serif" font-size="10.00">/Shmup/Movable/Enemy.h</text>
</a>
</g>
</g>
<!-- Node2&#45;&gt;Node6 -->
<g id="edge5" class="edge">
<title>Node2&#45;&gt;Node6</title>
<path fill="none" stroke="midnightblue" d="M1114.49,-197.96C1144.29,-187.48 1181.63,-174.37 1209.49,-164.58"/>
<polygon fill="midnightblue" stroke="midnightblue" points="1112.97,-194.78 1104.7,-201.4 1115.29,-201.38 1112.97,-194.78"/>
</g>
<!-- Node10 -->
<g id="node10" class="node">
<title>Node10</title>
<g id="a_node10"><a xlink:href="../../de/d15/_shoot_8h.html" target="_top" xlink:title=" ">
<polygon fill="white" stroke="black" points="818.55,-134.5 818.55,-164.5 944.55,-164.5 944.55,-134.5 818.55,-134.5"/>
<text text-anchor="start" x="826.55" y="-152.5" font-family="Helvetica,sans-Serif" font-size="10.00">RayLib_SHMUP/include</text>
<text text-anchor="middle" x="881.55" y="-141.5" font-family="Helvetica,sans-Serif" font-size="10.00">/Shmup/Movable/Shoot.h</text>
</a>
</g>
</g>
<!-- Node2&#45;&gt;Node10 -->
<g id="edge9" class="edge">
<title>Node2&#45;&gt;Node10</title>
<path fill="none" stroke="midnightblue" d="M1015.16,-197.96C985.68,-187.48 948.74,-174.37 921.18,-164.58"/>
<polygon fill="midnightblue" stroke="midnightblue" points="1014.25,-201.35 1024.85,-201.4 1016.59,-194.75 1014.25,-201.35"/>
</g>
<!-- Node17 -->
<g id="node17" class="node">
<title>Node17</title>
<g id="a_node17"><a xlink:href="../../df/d32/_sequence_move_patern_8cpp.html" target="_top" xlink:title=" ">
<polygon fill="white" stroke="black" points="963.05,-134.5 963.05,-164.5 1166.05,-164.5 1166.05,-134.5 963.05,-134.5"/>
<text text-anchor="start" x="971.05" y="-152.5" font-family="Helvetica,sans-Serif" font-size="10.00">RayLib_SHMUP/src/Shmup</text>
<text text-anchor="middle" x="1064.55" y="-141.5" font-family="Helvetica,sans-Serif" font-size="10.00">/Paterns/Enemy/SequenceMovePatern.cpp</text>
</a>
</g>
</g>
<!-- Node2&#45;&gt;Node17 -->
<g id="edge18" class="edge">
<title>Node2&#45;&gt;Node17</title>
<path fill="none" stroke="midnightblue" d="M1064.55,-191.11C1064.55,-182.15 1064.55,-172.32 1064.55,-164.58"/>
<polygon fill="midnightblue" stroke="midnightblue" points="1061.05,-191.4 1064.55,-201.4 1068.05,-191.4 1061.05,-191.4"/>
</g>
<!-- Node4 -->
<g id="node4" class="node">
<title>Node4</title>
<g id="a_node4"><a xlink:href="../../d3/d32/_patern_computer_8cpp.html" target="_top" xlink:title=" ">
<polygon fill="white" stroke="black" points="205.05,-67.5 205.05,-97.5 366.05,-97.5 366.05,-67.5 205.05,-67.5"/>
<text text-anchor="start" x="213.05" y="-85.5" font-family="Helvetica,sans-Serif" font-size="10.00">RayLib_SHMUP/src/PaternEditor</text>
<text text-anchor="middle" x="285.55" y="-74.5" font-family="Helvetica,sans-Serif" font-size="10.00">/PaternComputer.cpp</text>
</a>
</g>
</g>
<!-- Node3&#45;&gt;Node4 -->
<g id="edge3" class="edge">
<title>Node3&#45;&gt;Node4</title>
<path fill="none" stroke="midnightblue" d="M285.55,-124.11C285.55,-115.15 285.55,-105.32 285.55,-97.58"/>
<polygon fill="midnightblue" stroke="midnightblue" points="282.05,-124.4 285.55,-134.4 289.05,-124.4 282.05,-124.4"/>
</g>
<!-- Node5 -->
<g id="node5" class="node">
<title>Node5</title>
<g id="a_node5"><a xlink:href="../../d5/d58/_patern_editor_main_8cpp.html" target="_top" xlink:title=" ">
<polygon fill="white" stroke="black" points="26.05,-67.5 26.05,-97.5 187.05,-97.5 187.05,-67.5 26.05,-67.5"/>
<text text-anchor="start" x="34.05" y="-85.5" font-family="Helvetica,sans-Serif" font-size="10.00">RayLib_SHMUP/src/PaternEditor</text>
<text text-anchor="middle" x="106.55" y="-74.5" font-family="Helvetica,sans-Serif" font-size="10.00">Main.cpp</text>
</a>
</g>
</g>
<!-- Node3&#45;&gt;Node5 -->
<g id="edge4" class="edge">
<title>Node3&#45;&gt;Node5</title>
<path fill="none" stroke="midnightblue" d="M237.24,-130.96C208.4,-120.48 172.28,-107.37 145.32,-97.58"/>
<polygon fill="midnightblue" stroke="midnightblue" points="236.12,-134.27 246.71,-134.4 238.51,-127.69 236.12,-134.27"/>
</g>
<!-- Node6&#45;&gt;Node7 -->
<g id="edge6" class="edge">
<title>Node6&#45;&gt;Node7</title>
<path fill="none" stroke="midnightblue" d="M1245.85,-124.09C1242.08,-106.47 1234.7,-83.05 1220.55,-67 1205.89,-50.37 1184.46,-38.53 1165.19,-30.52"/>
<polygon fill="midnightblue" stroke="midnightblue" points="1242.46,-125.01 1247.75,-134.19 1249.34,-123.72 1242.46,-125.01"/>
</g>
<!-- Node8 -->
<g id="node8" class="node">
<title>Node8</title>
<g id="a_node8"><a xlink:href="../../df/dd2/_level_manager_8cpp.html" target="_top" xlink:title=" ">
<polygon fill="white" stroke="black" points="1306.05,-67.5 1306.05,-97.5 1445.05,-97.5 1445.05,-67.5 1306.05,-67.5"/>
<text text-anchor="start" x="1314.05" y="-85.5" font-family="Helvetica,sans-Serif" font-size="10.00">RayLib_SHMUP/src/Shmup</text>
<text text-anchor="middle" x="1375.55" y="-74.5" font-family="Helvetica,sans-Serif" font-size="10.00">/LevelManager.cpp</text>
</a>
</g>
</g>
<!-- Node6&#45;&gt;Node8 -->
<g id="edge7" class="edge">
<title>Node6&#45;&gt;Node8</title>
<path fill="none" stroke="midnightblue" d="M1285.97,-129.71C1305.84,-119.46 1330.03,-106.98 1348.27,-97.58"/>
<polygon fill="midnightblue" stroke="midnightblue" points="1284.18,-126.7 1276.89,-134.4 1287.39,-132.92 1284.18,-126.7"/>
</g>
<!-- Node9 -->
<g id="node9" class="node">
<title>Node9</title>
<g id="a_node9"><a xlink:href="../../de/d34/_enemy_8cpp.html" target="_top" xlink:title=" ">
<polygon fill="white" stroke="black" points="1463.05,-67.5 1463.05,-97.5 1602.05,-97.5 1602.05,-67.5 1463.05,-67.5"/>
<text text-anchor="start" x="1471.05" y="-85.5" font-family="Helvetica,sans-Serif" font-size="10.00">RayLib_SHMUP/src/Shmup</text>
<text text-anchor="middle" x="1532.55" y="-74.5" font-family="Helvetica,sans-Serif" font-size="10.00">/Movable/Enemy.cpp</text>
</a>
</g>
</g>
<!-- Node6&#45;&gt;Node9 -->
<g id="edge8" class="edge">
<title>Node6&#45;&gt;Node9</title>
<path fill="none" stroke="midnightblue" d="M1320.58,-132.19C1366.93,-121.54 1426.82,-107.78 1471.12,-97.61"/>
<polygon fill="midnightblue" stroke="midnightblue" points="1319.58,-128.83 1310.61,-134.48 1321.14,-135.65 1319.58,-128.83"/>
</g>
<!-- Node11 -->
<g id="node11" class="node">
<title>Node11</title>
<g id="a_node11"><a xlink:href="../../d1/d39/_player_8h.html" target="_top" xlink:title=" ">
<polygon fill="white" stroke="black" points="1083.55,-67.5 1083.55,-97.5 1211.55,-97.5 1211.55,-67.5 1083.55,-67.5"/>
<text text-anchor="start" x="1091.55" y="-85.5" font-family="Helvetica,sans-Serif" font-size="10.00">RayLib_SHMUP/include</text>
<text text-anchor="middle" x="1147.55" y="-74.5" font-family="Helvetica,sans-Serif" font-size="10.00">/Shmup/Movable/Player.h</text>
</a>
</g>
</g>
<!-- Node10&#45;&gt;Node11 -->
<g id="edge10" class="edge">
<title>Node10&#45;&gt;Node11</title>
<path fill="none" stroke="midnightblue" d="M948.87,-132.05C992.35,-121.43 1048.35,-107.74 1089.81,-97.61"/>
<polygon fill="midnightblue" stroke="midnightblue" points="947.83,-128.7 938.94,-134.48 949.49,-135.5 947.83,-128.7"/>
</g>
<!-- Node12 -->
<g id="node12" class="node">
<title>Node12</title>
<g id="a_node12"><a xlink:href="../../d2/d82/_player_8cpp.html" target="_top" xlink:title=" ">
<polygon fill="white" stroke="black" points="1208.05,-0.5 1208.05,-30.5 1347.05,-30.5 1347.05,-0.5 1208.05,-0.5"/>
<text text-anchor="start" x="1216.05" y="-18.5" font-family="Helvetica,sans-Serif" font-size="10.00">RayLib_SHMUP/src/Shmup</text>
<text text-anchor="middle" x="1277.55" y="-7.5" font-family="Helvetica,sans-Serif" font-size="10.00">/Movable/Player.cpp</text>
</a>
</g>
</g>
<!-- Node10&#45;&gt;Node12 -->
<g id="edge13" class="edge">
<title>Node10&#45;&gt;Node12</title>
<path fill="none" stroke="midnightblue" d="M954.96,-133.93C1074.23,-116.61 1121.1,-158.6 1220.55,-98 1246.5,-82.19 1263.71,-49.6 1271.94,-30.77"/>
<polygon fill="midnightblue" stroke="midnightblue" points="954.06,-130.53 944.73,-135.54 955.15,-137.45 954.06,-130.53"/>
</g>
<!-- Node13 -->
<g id="node13" class="node">
<title>Node13</title>
<g id="a_node13"><a xlink:href="../../d6/dae/_shoot_8cpp.html" target="_top" xlink:title=" ">
<polygon fill="white" stroke="black" points="750.05,-67.5 750.05,-97.5 889.05,-97.5 889.05,-67.5 750.05,-67.5"/>
<text text-anchor="start" x="758.05" y="-85.5" font-family="Helvetica,sans-Serif" font-size="10.00">RayLib_SHMUP/src/Shmup</text>
<text text-anchor="middle" x="819.55" y="-74.5" font-family="Helvetica,sans-Serif" font-size="10.00">/Movable/Shoot.cpp</text>
</a>
</g>
</g>
<!-- Node10&#45;&gt;Node13 -->
<g id="edge14" class="edge">
<title>Node10&#45;&gt;Node13</title>
<path fill="none" stroke="midnightblue" d="M861.07,-127.02C851.83,-117.34 841.18,-106.17 832.98,-97.58"/>
<polygon fill="midnightblue" stroke="midnightblue" points="858.67,-129.58 868.1,-134.4 863.73,-124.74 858.67,-129.58"/>
</g>
<!-- Node14 -->
<g id="node14" class="node">
<title>Node14</title>
<g id="a_node14"><a xlink:href="../../dc/dac/_patern_linear_8cpp.html" target="_top" xlink:title=" ">
<polygon fill="white" stroke="black" points="907.55,-67.5 907.55,-97.5 1065.55,-97.5 1065.55,-67.5 907.55,-67.5"/>
<text text-anchor="start" x="915.55" y="-85.5" font-family="Helvetica,sans-Serif" font-size="10.00">RayLib_SHMUP/src/Shmup</text>
<text text-anchor="middle" x="986.55" y="-74.5" font-family="Helvetica,sans-Serif" font-size="10.00">/Paterns/Shoot/PaternLinear.cpp</text>
</a>
</g>
</g>
<!-- Node10&#45;&gt;Node14 -->
<g id="edge15" class="edge">
<title>Node10&#45;&gt;Node14</title>
<path fill="none" stroke="midnightblue" d="M913.03,-129.02C929.37,-118.9 948.96,-106.77 963.82,-97.58"/>
<polygon fill="midnightblue" stroke="midnightblue" points="911,-126.16 904.34,-134.4 914.68,-132.11 911,-126.16"/>
</g>
<!-- Node15 -->
<g id="node15" class="node">
<title>Node15</title>
<g id="a_node15"><a xlink:href="../../d8/d91/_patern_rotate_8cpp.html" target="_top" xlink:title=" ">
<polygon fill="white" stroke="black" points="384.55,-67.5 384.55,-97.5 544.55,-97.5 544.55,-67.5 384.55,-67.5"/>
<text text-anchor="start" x="392.55" y="-85.5" font-family="Helvetica,sans-Serif" font-size="10.00">RayLib_SHMUP/src/Shmup</text>
<text text-anchor="middle" x="464.55" y="-74.5" font-family="Helvetica,sans-Serif" font-size="10.00">/Paterns/Shoot/PaternRotate.cpp</text>
</a>
</g>
</g>
<!-- Node10&#45;&gt;Node15 -->
<g id="edge16" class="edge">
<title>Node10&#45;&gt;Node15</title>
<path fill="none" stroke="midnightblue" d="M808.38,-137.42C741.89,-127.31 641.1,-111.87 553.55,-98 550.62,-97.53 547.62,-97.06 544.6,-96.58"/>
<polygon fill="midnightblue" stroke="midnightblue" points="807.93,-140.89 818.34,-138.94 808.98,-133.97 807.93,-140.89"/>
</g>
<!-- Node16 -->
<g id="node16" class="node">
<title>Node16</title>
<g id="a_node16"><a xlink:href="../../db/db4/_patern_v_spread_8cpp.html" target="_top" xlink:title=" ">
<polygon fill="white" stroke="black" points="563.05,-67.5 563.05,-97.5 732.05,-97.5 732.05,-67.5 563.05,-67.5"/>
<text text-anchor="start" x="571.05" y="-85.5" font-family="Helvetica,sans-Serif" font-size="10.00">RayLib_SHMUP/src/Shmup</text>
<text text-anchor="middle" x="647.55" y="-74.5" font-family="Helvetica,sans-Serif" font-size="10.00">/Paterns/Shoot/PaternVSpread.cpp</text>
</a>
</g>
</g>
<!-- Node10&#45;&gt;Node16 -->
<g id="edge17" class="edge">
<title>Node10&#45;&gt;Node16</title>
<path fill="none" stroke="midnightblue" d="M821.13,-131.71C783.05,-121.14 734.44,-107.63 698.35,-97.61"/>
<polygon fill="midnightblue" stroke="midnightblue" points="820.5,-135.17 831.07,-134.48 822.37,-128.43 820.5,-135.17"/>
</g>
<!-- Node11&#45;&gt;Node7 -->
<g id="edge11" class="edge">
<title>Node11&#45;&gt;Node7</title>
<path fill="none" stroke="midnightblue" d="M1137.79,-57.99C1133.97,-48.8 1129.72,-38.58 1126.4,-30.58"/>
<polygon fill="midnightblue" stroke="midnightblue" points="1134.63,-59.5 1141.7,-67.4 1141.09,-56.82 1134.63,-59.5"/>
</g>
<!-- Node11&#45;&gt;Node12 -->
<g id="edge12" class="edge">
<title>Node11&#45;&gt;Node12</title>
<path fill="none" stroke="midnightblue" d="M1184.85,-62.85C1205.4,-52.58 1230.5,-40.03 1249.4,-30.58"/>
<polygon fill="midnightblue" stroke="midnightblue" points="1183.14,-59.79 1175.76,-67.4 1186.27,-66.05 1183.14,-59.79"/>
</g>
<!-- Node18&#45;&gt;Node9 -->
<g id="edge21" class="edge">
<title>Node18&#45;&gt;Node9</title>
<path fill="none" stroke="midnightblue" d="M1374.78,-200.78C1416.54,-191.11 1464.37,-177.9 1481.55,-165 1504.91,-147.46 1520.17,-115.82 1527.48,-97.55"/>
<polygon fill="midnightblue" stroke="midnightblue" points="1373.85,-197.4 1364.88,-203.04 1375.41,-204.23 1373.85,-197.4"/>
</g>
<!-- Node19 -->
<g id="node19" class="node">
<title>Node19</title>
<g id="a_node19"><a xlink:href="../../d5/d01/_explosion_8cpp.html" target="_top" xlink:title=" ">
<polygon fill="white" stroke="black" points="1333.05,-134.5 1333.05,-164.5 1472.05,-164.5 1472.05,-134.5 1333.05,-134.5"/>
<text text-anchor="start" x="1341.05" y="-152.5" font-family="Helvetica,sans-Serif" font-size="10.00">RayLib_SHMUP/src/Shmup</text>
<text text-anchor="middle" x="1402.55" y="-141.5" font-family="Helvetica,sans-Serif" font-size="10.00">/Explosion.cpp</text>
</a>
</g>
</g>
<!-- Node18&#45;&gt;Node19 -->
<g id="edge20" class="edge">
<title>Node18&#45;&gt;Node19</title>
<path fill="none" stroke="midnightblue" d="M1333.66,-195.73C1348.98,-185.68 1367.24,-173.68 1381.11,-164.58"/>
<polygon fill="midnightblue" stroke="midnightblue" points="1331.47,-192.98 1325.04,-201.4 1335.32,-198.83 1331.47,-192.98"/>
</g>
</g>
</svg>
