<?xml version="1.0" encoding="UTF-8" standalone="no"?>
<!DOCTYPE svg PUBLIC "-//W3C//DTD SVG 1.1//EN"
 "http://www.w3.org/Graphics/SVG/1.1/DTD/svg11.dtd">
<!-- Generated by graphviz version 2.49.3 (20211027.1534)
 -->
<!-- Title: RayLib_SHMUP/include/Shmup/AGraphicObject.h Pages: 1 -->
<svg width="1563pt" height="307pt"
 viewBox="0.00 0.00 1563.20 307.00" xmlns="http://www.w3.org/2000/svg" xmlns:xlink="http://www.w3.org/1999/xlink">
<g id="graph0" class="graph" transform="scale(1 1) rotate(0) translate(4 303)">
<title>RayLib_SHMUP/include/Shmup/AGraphicObject.h</title>
<polygon fill="white" stroke="transparent" points="-4,4 -4,-303 1559.2,-303 1559.2,4 -4,4"/>
<!-- Node1 -->
<g id="node1" class="node">
<title>Node1</title>
<g id="a_node1"><a xlink:title=" ">
<polygon fill="#bfbfbf" stroke="black" points="1226.7,-268.5 1226.7,-298.5 1356.7,-298.5 1356.7,-268.5 1226.7,-268.5"/>
<text text-anchor="start" x="1234.7" y="-286.5" font-family="Helvetica,sans-Serif" font-size="10.00">RayLib_SHMUP/include</text>
<text text-anchor="middle" x="1291.7" y="-275.5" font-family="Helvetica,sans-Serif" font-size="10.00">/Shmup/AGraphicObject.h</text>
</a>
</g>
</g>
<!-- Node2 -->
<g id="node2" class="node">
<title>Node2</title>
<g id="a_node2"><a xlink:href="../../db/d1b/_a_movable_8h.html" target="_top" xlink:title=" ">
<polygon fill="white" stroke="black" points="856.7,-201.5 856.7,-231.5 978.7,-231.5 978.7,-201.5 856.7,-201.5"/>
<text text-anchor="start" x="864.7" y="-219.5" font-family="Helvetica,sans-Serif" font-size="10.00">RayLib_SHMUP/include</text>
<text text-anchor="middle" x="917.7" y="-208.5" font-family="Helvetica,sans-Serif" font-size="10.00">/Shmup/AMovable.h</text>
</a>
</g>
</g>
<!-- Node1&#45;&gt;Node2 -->
<g id="edge1" class="edge">
<title>Node1&#45;&gt;Node2</title>
<path fill="none" stroke="midnightblue" d="M1216.5,-269.43C1146.67,-257.29 1043.98,-239.45 979,-228.15"/>
<polygon fill="midnightblue" stroke="midnightblue" points="1216.11,-272.91 1226.56,-271.18 1217.3,-266.02 1216.11,-272.91"/>
</g>
<!-- Node7 -->
<g id="node7" class="node">
<title>Node7</title>
<g id="a_node7"><a xlink:href="../../d2/d2e/_game_manager_8cpp.html" target="_top" xlink:title=" ">
<polygon fill="white" stroke="black" points="982.2,-0.5 982.2,-30.5 1121.2,-30.5 1121.2,-0.5 982.2,-0.5"/>
<text text-anchor="start" x="990.2" y="-18.5" font-family="Helvetica,sans-Serif" font-size="10.00">RayLib_SHMUP/src/Shmup</text>
<text text-anchor="middle" x="1051.7" y="-7.5" font-family="Helvetica,sans-Serif" font-size="10.00">/GameManager.cpp</text>
</a>
</g>
</g>
<!-- Node1&#45;&gt;Node7 -->
<g id="edge20" class="edge">
<title>Node1&#45;&gt;Node7</title>
<path fill="none" stroke="midnightblue" d="M1278.87,-259.43C1274.55,-250.99 1270,-241.24 1266.7,-232 1241.39,-161.13 1280.53,-121.57 1228.7,-67 1201.09,-37.92 1158.01,-25.22 1121.27,-19.82"/>
<polygon fill="midnightblue" stroke="midnightblue" points="1275.79,-261.1 1283.56,-268.31 1281.98,-257.83 1275.79,-261.1"/>
</g>
<!-- Node16 -->
<g id="node16" class="node">
<title>Node16</title>
<g id="a_node16"><a xlink:href="../../d9/dee/_explosion_8h.html" target="_top" xlink:title=" ">
<polygon fill="white" stroke="black" points="1275.7,-201.5 1275.7,-231.5 1397.7,-231.5 1397.7,-201.5 1275.7,-201.5"/>
<text text-anchor="start" x="1283.7" y="-219.5" font-family="Helvetica,sans-Serif" font-size="10.00">RayLib_SHMUP/include</text>
<text text-anchor="middle" x="1336.7" y="-208.5" font-family="Helvetica,sans-Serif" font-size="10.00">/Shmup/Explosion.h</text>
</a>
</g>
</g>
<!-- Node1&#45;&gt;Node16 -->
<g id="edge17" class="edge">
<title>Node1&#45;&gt;Node16</title>
<path fill="none" stroke="midnightblue" d="M1307.17,-260.16C1313.73,-250.68 1321.18,-239.92 1326.96,-231.58"/>
<polygon fill="midnightblue" stroke="midnightblue" points="1304.28,-258.18 1301.47,-268.4 1310.04,-262.17 1304.28,-258.18"/>
</g>
<!-- Node18 -->
<g id="node18" class="node">
<title>Node18</title>
<g id="a_node18"><a xlink:href="../../de/d53/_a_graphic_object_8cpp.html" target="_top" xlink:title=" ">
<polygon fill="white" stroke="black" points="1416.2,-201.5 1416.2,-231.5 1555.2,-231.5 1555.2,-201.5 1416.2,-201.5"/>
<text text-anchor="start" x="1424.2" y="-219.5" font-family="Helvetica,sans-Serif" font-size="10.00">RayLib_SHMUP/src/Shmup</text>
<text text-anchor="middle" x="1485.7" y="-208.5" font-family="Helvetica,sans-Serif" font-size="10.00">/AGraphicObject.cpp</text>
</a>
</g>
</g>
<!-- Node1&#45;&gt;Node18 -->
<g id="edge19" class="edge">
<title>Node1&#45;&gt;Node18</title>
<path fill="none" stroke="midnightblue" d="M1343.66,-265.09C1374.98,-254.6 1414.35,-241.41 1443.69,-231.58"/>
<polygon fill="midnightblue" stroke="midnightblue" points="1342.17,-261.9 1333.8,-268.4 1344.39,-268.54 1342.17,-261.9"/>
</g>
<!-- Node3 -->
<g id="node3" class="node">
<title>Node3</title>
<g id="a_node3"><a xlink:href="../../d3/d22/_patern_computer_8h.html" target="_top" xlink:title=" ">
<polygon fill="white" stroke="black" points="840.7,-134.5 840.7,-164.5 994.7,-164.5 994.7,-134.5 840.7,-134.5"/>
<text text-anchor="start" x="848.7" y="-152.5" font-family="Helvetica,sans-Serif" font-size="10.00">RayLib_SHMUP/include</text>
<text text-anchor="middle" x="917.7" y="-141.5" font-family="Helvetica,sans-Serif" font-size="10.00">/PaternEditor/PaternComputer.h</text>
</a>
</g>
</g>
<!-- Node2&#45;&gt;Node3 -->
<g id="edge2" class="edge">
<title>Node2&#45;&gt;Node3</title>
<path fill="none" stroke="midnightblue" d="M917.7,-191.11C917.7,-182.15 917.7,-172.32 917.7,-164.58"/>
<polygon fill="midnightblue" stroke="midnightblue" points="914.2,-191.4 917.7,-201.4 921.2,-191.4 914.2,-191.4"/>
</g>
<!-- Node6 -->
<g id="node6" class="node">
<title>Node6</title>
<g id="a_node6"><a xlink:href="../../d4/d1e/_enemy_8h.html" target="_top" xlink:title=" ">
<polygon fill="white" stroke="black" points="1012.7,-134.5 1012.7,-164.5 1142.7,-164.5 1142.7,-134.5 1012.7,-134.5"/>
<text text-anchor="start" x="1020.7" y="-152.5" font-family="Helvetica,sans-Serif" font-size="10.00">RayLib_SHMUP/include</text>
<text text-anchor="middle" x="1077.7" y="-141.5" font-family="Helvetica,sans-Serif" font-size="10.00">/Shmup/Movable/Enemy.h</text>
</a>
</g>
</g>
<!-- Node2&#45;&gt;Node6 -->
<g id="edge5" class="edge">
<title>Node2&#45;&gt;Node6</title>
<path fill="none" stroke="midnightblue" d="M961.9,-197.54C987.5,-187.14 1019.27,-174.24 1043.05,-164.58"/>
<polygon fill="midnightblue" stroke="midnightblue" points="960.37,-194.39 952.42,-201.4 963,-200.87 960.37,-194.39"/>
</g>
<!-- Node9 -->
<g id="node9" class="node">
<title>Node9</title>
<g id="a_node9"><a xlink:href="../../de/d15/_shoot_8h.html" target="_top" xlink:title=" ">
<polygon fill="white" stroke="black" points="280.7,-134.5 280.7,-164.5 406.7,-164.5 406.7,-134.5 280.7,-134.5"/>
<text text-anchor="start" x="288.7" y="-152.5" font-family="Helvetica,sans-Serif" font-size="10.00">RayLib_SHMUP/include</text>
<text text-anchor="middle" x="343.7" y="-141.5" font-family="Helvetica,sans-Serif" font-size="10.00">/Shmup/Movable/Shoot.h</text>
</a>
</g>
</g>
<!-- Node2&#45;&gt;Node9 -->
<g id="edge8" class="edge">
<title>Node2&#45;&gt;Node9</title>
<path fill="none" stroke="midnightblue" d="M846.27,-207.41C733.17,-194.6 514.69,-169.86 406.94,-157.66"/>
<polygon fill="midnightblue" stroke="midnightblue" points="846.22,-210.93 856.55,-208.57 847,-203.97 846.22,-210.93"/>
</g>
<!-- Node15 -->
<g id="node15" class="node">
<title>Node15</title>
<g id="a_node15"><a xlink:href="../../df/d32/_sequence_move_patern_8cpp.html" target="_top" xlink:title=" ">
<polygon fill="white" stroke="black" points="619.2,-134.5 619.2,-164.5 822.2,-164.5 822.2,-134.5 619.2,-134.5"/>
<text text-anchor="start" x="627.2" y="-152.5" font-family="Helvetica,sans-Serif" font-size="10.00">RayLib_SHMUP/src/Shmup</text>
<text text-anchor="middle" x="720.7" y="-141.5" font-family="Helvetica,sans-Serif" font-size="10.00">/Paterns/Enemy/SequenceMovePatern.cpp</text>
</a>
</g>
</g>
<!-- Node2&#45;&gt;Node15 -->
<g id="edge16" class="edge">
<title>Node2&#45;&gt;Node15</title>
<path fill="none" stroke="midnightblue" d="M865.35,-198.23C833.49,-187.71 793.29,-174.45 763.37,-164.58"/>
<polygon fill="midnightblue" stroke="midnightblue" points="864.36,-201.59 874.96,-201.4 866.56,-194.94 864.36,-201.59"/>
</g>
<!-- Node4 -->
<g id="node4" class="node">
<title>Node4</title>
<g id="a_node4"><a xlink:href="../../d3/d32/_patern_computer_8cpp.html" target="_top" xlink:title=" ">
<polygon fill="white" stroke="black" points="683.2,-67.5 683.2,-97.5 844.2,-97.5 844.2,-67.5 683.2,-67.5"/>
<text text-anchor="start" x="691.2" y="-85.5" font-family="Helvetica,sans-Serif" font-size="10.00">RayLib_SHMUP/src/PaternEditor</text>
<text text-anchor="middle" x="763.7" y="-74.5" font-family="Helvetica,sans-Serif" font-size="10.00">/PaternComputer.cpp</text>
</a>
</g>
</g>
<!-- Node3&#45;&gt;Node4 -->
<g id="edge3" class="edge">
<title>Node3&#45;&gt;Node4</title>
<path fill="none" stroke="midnightblue" d="M874.84,-130.41C850.25,-120.03 819.84,-107.2 797.05,-97.58"/>
<polygon fill="midnightblue" stroke="midnightblue" points="873.71,-133.73 884.29,-134.4 876.44,-127.28 873.71,-133.73"/>
</g>
<!-- Node5 -->
<g id="node5" class="node">
<title>Node5</title>
<g id="a_node5"><a xlink:href="../../d5/d58/_patern_editor_main_8cpp.html" target="_top" xlink:title=" ">
<polygon fill="white" stroke="black" points="862.2,-67.5 862.2,-97.5 1023.2,-97.5 1023.2,-67.5 862.2,-67.5"/>
<text text-anchor="start" x="870.2" y="-85.5" font-family="Helvetica,sans-Serif" font-size="10.00">RayLib_SHMUP/src/PaternEditor</text>
<text text-anchor="middle" x="942.7" y="-74.5" font-family="Helvetica,sans-Serif" font-size="10.00">Main.cpp</text>
</a>
</g>
</g>
<!-- Node3&#45;&gt;Node5 -->
<g id="edge4" class="edge">
<title>Node3&#45;&gt;Node5</title>
<path fill="none" stroke="midnightblue" d="M926.74,-124.99C930.28,-115.8 934.21,-105.58 937.29,-97.58"/>
<polygon fill="midnightblue" stroke="midnightblue" points="923.45,-123.81 923.13,-134.4 929.98,-126.32 923.45,-123.81"/>
</g>
<!-- Node6&#45;&gt;Node7 -->
<g id="edge6" class="edge">
<title>Node6&#45;&gt;Node7</title>
<path fill="none" stroke="midnightblue" d="M1072.95,-124.39C1067.54,-96.9 1058.87,-52.89 1054.47,-30.52"/>
<polygon fill="midnightblue" stroke="midnightblue" points="1069.55,-125.24 1074.92,-134.37 1076.42,-123.89 1069.55,-125.24"/>
</g>
<!-- Node8 -->
<g id="node8" class="node">
<title>Node8</title>
<g id="a_node8"><a xlink:href="../../de/d34/_enemy_8cpp.html" target="_top" xlink:title=" ">
<polygon fill="white" stroke="black" points="1080.2,-67.5 1080.2,-97.5 1219.2,-97.5 1219.2,-67.5 1080.2,-67.5"/>
<text text-anchor="start" x="1088.2" y="-85.5" font-family="Helvetica,sans-Serif" font-size="10.00">RayLib_SHMUP/src/Shmup</text>
<text text-anchor="middle" x="1149.7" y="-74.5" font-family="Helvetica,sans-Serif" font-size="10.00">/Movable/Enemy.cpp</text>
</a>
</g>
</g>
<!-- Node6&#45;&gt;Node8 -->
<g id="edge7" class="edge">
<title>Node6&#45;&gt;Node8</title>
<path fill="none" stroke="midnightblue" d="M1100.86,-127.6C1111.73,-117.78 1124.4,-106.34 1134.11,-97.58"/>
<polygon fill="midnightblue" stroke="midnightblue" points="1098.4,-125.1 1093.33,-134.4 1103.09,-130.29 1098.4,-125.1"/>
</g>
<!-- Node10 -->
<g id="node10" class="node">
<title>Node10</title>
<g id="a_node10"><a xlink:href="../../d1/d39/_player_8h.html" target="_top" xlink:title=" ">
<polygon fill="white" stroke="black" points="536.7,-67.5 536.7,-97.5 664.7,-97.5 664.7,-67.5 536.7,-67.5"/>
<text text-anchor="start" x="544.7" y="-85.5" font-family="Helvetica,sans-Serif" font-size="10.00">RayLib_SHMUP/include</text>
<text text-anchor="middle" x="600.7" y="-74.5" font-family="Helvetica,sans-Serif" font-size="10.00">/Shmup/Movable/Player.h</text>
</a>
</g>
</g>
<!-- Node9&#45;&gt;Node10 -->
<g id="edge9" class="edge">
<title>Node9&#45;&gt;Node10</title>
<path fill="none" stroke="midnightblue" d="M409,-131.98C450.98,-121.37 504.94,-107.72 544.91,-97.61"/>
<polygon fill="midnightblue" stroke="midnightblue" points="407.99,-128.63 399.15,-134.48 409.7,-135.42 407.99,-128.63"/>
</g>
<!-- Node11 -->
<g id="node11" class="node">
<title>Node11</title>
<g id="a_node11"><a xlink:href="../../d2/d82/_player_8cpp.html" target="_top" xlink:title=" ">
<polygon fill="white" stroke="black" points="225.2,-0.5 225.2,-30.5 364.2,-30.5 364.2,-0.5 225.2,-0.5"/>
<text text-anchor="start" x="233.2" y="-18.5" font-family="Helvetica,sans-Serif" font-size="10.00">RayLib_SHMUP/src/Shmup</text>
<text text-anchor="middle" x="294.7" y="-7.5" font-family="Helvetica,sans-Serif" font-size="10.00">/Movable/Player.cpp</text>
</a>
</g>
</g>
<!-- Node9&#45;&gt;Node11 -->
<g id="edge12" class="edge">
<title>Node9&#45;&gt;Node11</title>
<path fill="none" stroke="midnightblue" d="M270.68,-148.24C181.99,-146.19 40.07,-136.74 6.7,-98 -2.29,-87.56 -2.16,-77.55 6.7,-67 34.05,-34.45 148.9,-22.87 225.05,-18.76"/>
<polygon fill="midnightblue" stroke="midnightblue" points="270.62,-151.74 280.69,-148.44 270.76,-144.74 270.62,-151.74"/>
</g>
<!-- Node12 -->
<g id="node12" class="node">
<title>Node12</title>
<g id="a_node12"><a xlink:href="../../d6/dae/_shoot_8cpp.html" target="_top" xlink:title=" ">
<polygon fill="white" stroke="black" points="16.2,-67.5 16.2,-97.5 155.2,-97.5 155.2,-67.5 16.2,-67.5"/>
<text text-anchor="start" x="24.2" y="-85.5" font-family="Helvetica,sans-Serif" font-size="10.00">RayLib_SHMUP/src/Shmup</text>
<text text-anchor="middle" x="85.7" y="-74.5" font-family="Helvetica,sans-Serif" font-size="10.00">/Movable/Shoot.cpp</text>
</a>
</g>
</g>
<!-- Node9&#45;&gt;Node12 -->
<g id="edge13" class="edge">
<title>Node9&#45;&gt;Node12</title>
<path fill="none" stroke="midnightblue" d="M278.15,-131.98C236.01,-121.37 181.84,-107.72 141.71,-97.61"/>
<polygon fill="midnightblue" stroke="midnightblue" points="277.49,-135.43 288.04,-134.48 279.2,-128.64 277.49,-135.43"/>
</g>
<!-- Node13 -->
<g id="node13" class="node">
<title>Node13</title>
<g id="a_node13"><a xlink:href="../../dc/dac/_patern_linear_8cpp.html" target="_top" xlink:title=" ">
<polygon fill="white" stroke="black" points="173.7,-67.5 173.7,-97.5 331.7,-97.5 331.7,-67.5 173.7,-67.5"/>
<text text-anchor="start" x="181.7" y="-85.5" font-family="Helvetica,sans-Serif" font-size="10.00">RayLib_SHMUP/src/Shmup</text>
<text text-anchor="middle" x="252.7" y="-74.5" font-family="Helvetica,sans-Serif" font-size="10.00">/Paterns/Shoot/PaternLinear.cpp</text>
</a>
</g>
</g>
<!-- Node9&#45;&gt;Node13 -->
<g id="edge14" class="edge">
<title>Node9&#45;&gt;Node13</title>
<path fill="none" stroke="midnightblue" d="M315.63,-128.45C301.64,-118.45 285.04,-106.6 272.41,-97.58"/>
<polygon fill="midnightblue" stroke="midnightblue" points="313.79,-131.43 323.96,-134.4 317.85,-125.74 313.79,-131.43"/>
</g>
<!-- Node14 -->
<g id="node14" class="node">
<title>Node14</title>
<g id="a_node14"><a xlink:href="../../db/db4/_patern_v_spread_8cpp.html" target="_top" xlink:title=" ">
<polygon fill="white" stroke="black" points="349.2,-67.5 349.2,-97.5 518.2,-97.5 518.2,-67.5 349.2,-67.5"/>
<text text-anchor="start" x="357.2" y="-85.5" font-family="Helvetica,sans-Serif" font-size="10.00">RayLib_SHMUP/src/Shmup</text>
<text text-anchor="middle" x="433.7" y="-74.5" font-family="Helvetica,sans-Serif" font-size="10.00">/Paterns/Shoot/PaternVSpread.cpp</text>
</a>
</g>
</g>
<!-- Node9&#45;&gt;Node14 -->
<g id="edge15" class="edge">
<title>Node9&#45;&gt;Node14</title>
<path fill="none" stroke="midnightblue" d="M371.46,-128.45C385.31,-118.45 401.72,-106.6 414.21,-97.58"/>
<polygon fill="midnightblue" stroke="midnightblue" points="369.29,-125.7 363.23,-134.4 373.39,-131.38 369.29,-125.7"/>
</g>
<!-- Node10&#45;&gt;Node7 -->
<g id="edge10" class="edge">
<title>Node10&#45;&gt;Node7</title>
<path fill="none" stroke="midnightblue" d="M674.65,-66.9C788.04,-48.31 908.36,-33.2 982.18,-24.45"/>
<polygon fill="midnightblue" stroke="midnightblue" points="674.05,-63.46 664.76,-68.54 675.19,-70.36 674.05,-63.46"/>
</g>
<!-- Node10&#45;&gt;Node11 -->
<g id="edge11" class="edge">
<title>Node10&#45;&gt;Node11</title>
<path fill="none" stroke="midnightblue" d="M526.65,-65.77C475.99,-55.01 409.43,-40.87 360.61,-30.5"/>
<polygon fill="midnightblue" stroke="midnightblue" points="526.05,-69.22 536.56,-67.87 527.5,-62.37 526.05,-69.22"/>
</g>
<!-- Node17 -->
<g id="node17" class="node">
<title>Node17</title>
<g id="a_node17"><a xlink:href="../../d5/d01/_explosion_8cpp.html" target="_top" xlink:title=" ">
<polygon fill="white" stroke="black" points="1276.2,-134.5 1276.2,-164.5 1415.2,-164.5 1415.2,-134.5 1276.2,-134.5"/>
<text text-anchor="start" x="1284.2" y="-152.5" font-family="Helvetica,sans-Serif" font-size="10.00">RayLib_SHMUP/src/Shmup</text>
<text text-anchor="middle" x="1345.7" y="-141.5" font-family="Helvetica,sans-Serif" font-size="10.00">/Explosion.cpp</text>
</a>
</g>
</g>
<!-- Node16&#45;&gt;Node17 -->
<g id="edge18" class="edge">
<title>Node16&#45;&gt;Node17</title>
<path fill="none" stroke="midnightblue" d="M1340.04,-191.4C1341.29,-182.37 1342.67,-172.41 1343.75,-164.58"/>
<polygon fill="midnightblue" stroke="midnightblue" points="1336.56,-191.01 1338.66,-201.4 1343.49,-191.97 1336.56,-191.01"/>
</g>
</g>
</svg>
