<?xml version="1.0" encoding="UTF-8" standalone="no"?>
<!DOCTYPE svg PUBLIC "-//W3C//DTD SVG 1.1//EN"
 "http://www.w3.org/Graphics/SVG/1.1/DTD/svg11.dtd">
<!-- Generated by graphviz version 2.49.3 (20211027.1534)
 -->
<!-- Title: InstanceList&lt; T &gt; Pages: 1 -->
<svg width="338pt" height="285pt"
 viewBox="0.00 0.00 338.00 285.00" xmlns="http://www.w3.org/2000/svg" xmlns:xlink="http://www.w3.org/1999/xlink">
<g id="graph0" class="graph" transform="scale(1 1) rotate(0) translate(4 281)">
<title>InstanceList&lt; T &gt;</title>
<polygon fill="white" stroke="transparent" points="-4,4 -4,-281 334,-281 334,4 -4,4"/>
<!-- Node1 -->
<g id="node1" class="node">
<title>Node1</title>
<g id="a_node1"><a xlink:title="Add a static list for the class T">
<polygon fill="#bfbfbf" stroke="black" points="66.5,-257.5 66.5,-276.5 159.5,-276.5 159.5,-257.5 66.5,-257.5"/>
<text text-anchor="middle" x="113" y="-264.5" font-family="Helvetica,sans-Serif" font-size="10.00">InstanceList&lt; T &gt;</text>
</a>
</g>
</g>
<!-- Node2 -->
<g id="node2" class="node">
<title>Node2</title>
<g id="a_node2"><a xlink:href="../../db/d70/class_instance_list.html" target="_top" xlink:title=" ">
<polygon fill="white" stroke="black" points="0,-152.5 0,-171.5 136,-171.5 136,-152.5 0,-152.5"/>
<text text-anchor="middle" x="68" y="-159.5" font-family="Helvetica,sans-Serif" font-size="10.00">InstanceList&lt; ACollidable &gt;</text>
</a>
</g>
</g>
<!-- Node1&#45;&gt;Node2 -->
<g id="edge1" class="edge">
<title>Node1&#45;&gt;Node2</title>
<path fill="none" stroke="orange" stroke-dasharray="5,2" d="M80.47,-252.21C75.47,-248.64 70.99,-244.28 68,-239 55.78,-217.41 61.51,-186.55 65.41,-171.67"/>
<polygon fill="orange" stroke="orange" points="78.81,-255.3 89.18,-257.47 82.43,-249.3 78.81,-255.3"/>
<text text-anchor="middle" x="102" y="-231" font-family="Helvetica,sans-Serif" font-size="10.00"> &lt; ACollidable &gt;</text>
</g>
<!-- Node6 -->
<g id="node6" class="node">
<title>Node6</title>
<g id="a_node6"><a xlink:href="../../db/d70/class_instance_list.html" target="_top" xlink:title=" ">
<polygon fill="white" stroke="black" points="96,-190.5 96,-209.5 252,-209.5 252,-190.5 96,-190.5"/>
<text text-anchor="middle" x="174" y="-197.5" font-family="Helvetica,sans-Serif" font-size="10.00">InstanceList&lt; AGraphicObject &gt;</text>
</a>
</g>
</g>
<!-- Node1&#45;&gt;Node6 -->
<g id="edge5" class="edge">
<title>Node1&#45;&gt;Node6</title>
<path fill="none" stroke="orange" stroke-dasharray="5,2" d="M129.42,-249.87C132.95,-246.32 136.63,-242.56 140,-239 149.37,-229.1 159.77,-217.36 166.57,-209.57"/>
<polygon fill="orange" stroke="orange" points="126.75,-247.59 122.13,-257.12 131.69,-252.55 126.75,-247.59"/>
<text text-anchor="middle" x="194" y="-231" font-family="Helvetica,sans-Serif" font-size="10.00"> &lt; AGraphicObject &gt;</text>
</g>
<!-- Node3 -->
<g id="node3" class="node">
<title>Node3</title>
<g id="a_node3"><a xlink:href="../../d0/d76/class_a_collidable.html" target="_top" xlink:title=" ">
<polygon fill="white" stroke="black" points="35.5,-57.5 35.5,-76.5 100.5,-76.5 100.5,-57.5 35.5,-57.5"/>
<text text-anchor="middle" x="68" y="-64.5" font-family="Helvetica,sans-Serif" font-size="10.00">ACollidable</text>
</a>
</g>
</g>
<!-- Node2&#45;&gt;Node3 -->
<g id="edge2" class="edge">
<title>Node2&#45;&gt;Node3</title>
<path fill="none" stroke="midnightblue" d="M68,-142.34C68,-122.33 68,-91.43 68,-76.56"/>
<polygon fill="midnightblue" stroke="midnightblue" points="64.5,-142.42 68,-152.42 71.5,-142.42 64.5,-142.42"/>
</g>
<!-- Node4 -->
<g id="node4" class="node">
<title>Node4</title>
<g id="a_node4"><a xlink:href="../../dd/d7a/class_enemy.html" target="_top" xlink:title="An enemy spaceship">
<polygon fill="white" stroke="black" points="54,-0.5 54,-19.5 100,-19.5 100,-0.5 54,-0.5"/>
<text text-anchor="middle" x="77" y="-7.5" font-family="Helvetica,sans-Serif" font-size="10.00">Enemy</text>
</a>
</g>
</g>
<!-- Node3&#45;&gt;Node4 -->
<g id="edge3" class="edge">
<title>Node3&#45;&gt;Node4</title>
<path fill="none" stroke="midnightblue" d="M71.04,-47.42C72.57,-38.05 74.36,-27.14 75.57,-19.71"/>
<polygon fill="midnightblue" stroke="midnightblue" points="67.57,-46.97 69.41,-57.41 74.48,-48.1 67.57,-46.97"/>
</g>
<!-- Node5 -->
<g id="node5" class="node">
<title>Node5</title>
<g id="a_node5"><a xlink:href="../../d0/d85/class_shoot.html" target="_top" xlink:title="An shoot (player or enemy)">
<polygon fill="white" stroke="black" points="119,-0.5 119,-19.5 161,-19.5 161,-0.5 119,-0.5"/>
<text text-anchor="middle" x="140" y="-7.5" font-family="Helvetica,sans-Serif" font-size="10.00">Shoot</text>
</a>
</g>
</g>
<!-- Node3&#45;&gt;Node5 -->
<g id="edge4" class="edge">
<title>Node3&#45;&gt;Node5</title>
<path fill="none" stroke="midnightblue" d="M87.26,-51.29C100.45,-41.21 117.5,-28.19 128.59,-19.71"/>
<polygon fill="midnightblue" stroke="midnightblue" points="85.07,-48.55 79.25,-57.41 89.32,-54.12 85.07,-48.55"/>
</g>
<!-- Node7 -->
<g id="node7" class="node">
<title>Node7</title>
<g id="a_node7"><a xlink:href="../../d3/d92/class_a_graphic_object.html" target="_top" xlink:title=" ">
<polygon fill="white" stroke="black" points="131,-114.5 131,-133.5 217,-133.5 217,-114.5 131,-114.5"/>
<text text-anchor="middle" x="174" y="-121.5" font-family="Helvetica,sans-Serif" font-size="10.00">AGraphicObject</text>
</a>
</g>
</g>
<!-- Node6&#45;&gt;Node7 -->
<g id="edge6" class="edge">
<title>Node6&#45;&gt;Node7</title>
<path fill="none" stroke="midnightblue" d="M174,-180.07C174,-165.18 174,-145.11 174,-133.77"/>
<polygon fill="midnightblue" stroke="midnightblue" points="170.5,-180.22 174,-190.22 177.5,-180.22 170.5,-180.22"/>
</g>
<!-- Node8 -->
<g id="node8" class="node">
<title>Node8</title>
<g id="a_node8"><a xlink:href="../../d5/d15/class_a_movable.html" target="_top" xlink:title=" ">
<polygon fill="white" stroke="black" points="195,-57.5 195,-76.5 255,-76.5 255,-57.5 195,-57.5"/>
<text text-anchor="middle" x="225" y="-64.5" font-family="Helvetica,sans-Serif" font-size="10.00">AMovable</text>
</a>
</g>
</g>
<!-- Node7&#45;&gt;Node8 -->
<g id="edge7" class="edge">
<title>Node7&#45;&gt;Node8</title>
<path fill="none" stroke="midnightblue" d="M189,-106.83C198.13,-96.98 209.44,-84.78 216.92,-76.71"/>
<polygon fill="midnightblue" stroke="midnightblue" points="186.2,-104.69 181.97,-114.41 191.33,-109.45 186.2,-104.69"/>
</g>
<!-- Node11 -->
<g id="node11" class="node">
<title>Node11</title>
<g id="a_node11"><a xlink:href="../../d1/da8/class_explosion.html" target="_top" xlink:title=" ">
<polygon fill="white" stroke="black" points="119,-57.5 119,-76.5 177,-76.5 177,-57.5 119,-57.5"/>
<text text-anchor="middle" x="148" y="-64.5" font-family="Helvetica,sans-Serif" font-size="10.00">Explosion</text>
</a>
</g>
</g>
<!-- Node7&#45;&gt;Node11 -->
<g id="edge12" class="edge">
<title>Node7&#45;&gt;Node11</title>
<path fill="none" stroke="midnightblue" d="M165.65,-105.33C161.13,-95.77 155.74,-84.38 152.12,-76.71"/>
<polygon fill="midnightblue" stroke="midnightblue" points="162.5,-106.86 169.94,-114.41 168.83,-103.87 162.5,-106.86"/>
</g>
<!-- Node8&#45;&gt;Node4 -->
<g id="edge8" class="edge">
<title>Node8&#45;&gt;Node4</title>
<path fill="none" stroke="midnightblue" d="M192.13,-53.79C164.15,-43.39 124.66,-28.71 99.96,-19.53"/>
<polygon fill="midnightblue" stroke="midnightblue" points="191.28,-57.2 201.88,-57.41 193.72,-50.64 191.28,-57.2"/>
</g>
<!-- Node8&#45;&gt;Node5 -->
<g id="edge11" class="edge">
<title>Node8&#45;&gt;Node5</title>
<path fill="none" stroke="midnightblue" d="M203.17,-51.75C196.39,-47.33 188.89,-42.46 182,-38 172.54,-31.88 161.86,-25.01 153.63,-19.73"/>
<polygon fill="midnightblue" stroke="midnightblue" points="201.55,-54.87 211.84,-57.4 205.37,-49.01 201.55,-54.87"/>
</g>
<!-- Node9 -->
<g id="node9" class="node">
<title>Node9</title>
<g id="a_node9"><a xlink:href="../../d8/d8c/class_patern_computer.html" target="_top" xlink:title=" ">
<polygon fill="white" stroke="black" points="180.5,-0.5 180.5,-19.5 267.5,-19.5 267.5,-0.5 180.5,-0.5"/>
<text text-anchor="middle" x="224" y="-7.5" font-family="Helvetica,sans-Serif" font-size="10.00">PaternComputer</text>
</a>
</g>
</g>
<!-- Node8&#45;&gt;Node9 -->
<g id="edge9" class="edge">
<title>Node8&#45;&gt;Node9</title>
<path fill="none" stroke="midnightblue" d="M224.66,-47.12C224.49,-37.82 224.29,-27.06 224.16,-19.71"/>
<polygon fill="midnightblue" stroke="midnightblue" points="221.16,-47.47 224.84,-57.41 228.16,-47.34 221.16,-47.47"/>
</g>
<!-- Node10 -->
<g id="node10" class="node">
<title>Node10</title>
<g id="a_node10"><a xlink:href="../../d8/d53/class_player.html" target="_top" xlink:title="The player">
<polygon fill="white" stroke="black" points="286,-0.5 286,-19.5 330,-19.5 330,-0.5 286,-0.5"/>
<text text-anchor="middle" x="308" y="-7.5" font-family="Helvetica,sans-Serif" font-size="10.00">Player</text>
</a>
</g>
</g>
<!-- Node8&#45;&gt;Node10 -->
<g id="edge10" class="edge">
<title>Node8&#45;&gt;Node10</title>
<path fill="none" stroke="midnightblue" d="M246.39,-51.82C261.81,-41.61 282.12,-28.15 295.12,-19.53"/>
<polygon fill="midnightblue" stroke="midnightblue" points="244.37,-48.96 237.97,-57.41 248.24,-54.8 244.37,-48.96"/>
</g>
</g>
</svg>
