<?xml version="1.0" encoding="UTF-8" standalone="no"?>
<!DOCTYPE svg PUBLIC "-//W3C//DTD SVG 1.1//EN"
 "http://www.w3.org/Graphics/SVG/1.1/DTD/svg11.dtd">
<!-- Generated by graphviz version 2.49.3 (20211027.1534)
 -->
<!-- Title: RayLib_SHMUP/src/PaternEditorMain.cpp Pages: 1 -->
<svg width="1123pt" height="341pt"
 viewBox="0.00 0.00 1122.50 341.00" xmlns="http://www.w3.org/2000/svg" xmlns:xlink="http://www.w3.org/1999/xlink">
<g id="graph0" class="graph" transform="scale(1 1) rotate(0) translate(4 337)">
<title>RayLib_SHMUP/src/PaternEditorMain.cpp</title>
<polygon fill="white" stroke="transparent" points="-4,4 -4,-337 1118.5,-337 1118.5,4 -4,4"/>
<!-- Node1 -->
<g id="node1" class="node">
<title>Node1</title>
<g id="a_node1"><a xlink:title=" ">
<polygon fill="#bfbfbf" stroke="black" points="124.5,-302.5 124.5,-332.5 285.5,-332.5 285.5,-302.5 124.5,-302.5"/>
<text text-anchor="start" x="132.5" y="-320.5" font-family="Helvetica,sans-Serif" font-size="10.00">RayLib_SHMUP/src/PaternEditor</text>
<text text-anchor="middle" x="205" y="-309.5" font-family="Helvetica,sans-Serif" font-size="10.00">Main.cpp</text>
</a>
</g>
</g>
<!-- Node2 -->
<g id="node2" class="node">
<title>Node2</title>
<g id="a_node2"><a xlink:title=" ">
<polygon fill="white" stroke="#bfbfbf" points="0,-246.5 0,-265.5 48,-265.5 48,-246.5 0,-246.5"/>
<text text-anchor="middle" x="24" y="-253.5" font-family="Helvetica,sans-Serif" font-size="10.00">string.h</text>
</a>
</g>
</g>
<!-- Node1&#45;&gt;Node2 -->
<g id="edge1" class="edge">
<title>Node1&#45;&gt;Node2</title>
<path fill="none" stroke="midnightblue" d="M162.11,-302.4C130.31,-291.95 87.56,-277.89 58.08,-268.2"/>
<polygon fill="midnightblue" stroke="midnightblue" points="58.84,-264.77 48.25,-264.97 56.66,-271.42 58.84,-264.77"/>
</g>
<!-- Node3 -->
<g id="node3" class="node">
<title>Node3</title>
<g id="a_node3"><a xlink:title=" ">
<polygon fill="white" stroke="#bfbfbf" points="66.5,-246.5 66.5,-265.5 111.5,-265.5 111.5,-246.5 66.5,-246.5"/>
<text text-anchor="middle" x="89" y="-253.5" font-family="Helvetica,sans-Serif" font-size="10.00">stdio.h</text>
</a>
</g>
</g>
<!-- Node1&#45;&gt;Node3 -->
<g id="edge2" class="edge">
<title>Node1&#45;&gt;Node3</title>
<path fill="none" stroke="midnightblue" d="M177.51,-302.4C158.57,-292.68 133.56,-279.86 114.96,-270.31"/>
<polygon fill="midnightblue" stroke="midnightblue" points="116.37,-267.11 105.88,-265.66 113.18,-273.34 116.37,-267.11"/>
</g>
<!-- Node4 -->
<g id="node4" class="node">
<title>Node4</title>
<g id="a_node4"><a xlink:title=" ">
<polygon fill="white" stroke="#bfbfbf" points="129.5,-246.5 129.5,-265.5 176.5,-265.5 176.5,-246.5 129.5,-246.5"/>
<text text-anchor="middle" x="153" y="-253.5" font-family="Helvetica,sans-Serif" font-size="10.00">stdlib.h</text>
</a>
</g>
</g>
<!-- Node1&#45;&gt;Node4 -->
<g id="edge3" class="edge">
<title>Node1&#45;&gt;Node4</title>
<path fill="none" stroke="midnightblue" d="M192.68,-302.4C185.04,-293.66 175.21,-282.41 167.24,-273.3"/>
<polygon fill="midnightblue" stroke="midnightblue" points="169.78,-270.88 160.57,-265.66 164.51,-275.49 169.78,-270.88"/>
</g>
<!-- Node5 -->
<g id="node5" class="node">
<title>Node5</title>
<g id="a_node5"><a xlink:title=" ">
<polygon fill="white" stroke="#bfbfbf" points="304.5,-0.5 304.5,-19.5 351.5,-19.5 351.5,-0.5 304.5,-0.5"/>
<text text-anchor="middle" x="328" y="-7.5" font-family="Helvetica,sans-Serif" font-size="10.00">raylib.h</text>
</a>
</g>
</g>
<!-- Node1&#45;&gt;Node5 -->
<g id="edge4" class="edge">
<title>Node1&#45;&gt;Node5</title>
<path fill="none" stroke="midnightblue" d="M205,-302.28C205,-280.48 205,-237.49 205,-201 205,-201 205,-201 205,-137.5 205,-95.91 221.81,-85.63 251,-56 264.32,-42.48 282.53,-31.59 297.9,-23.91"/>
<polygon fill="midnightblue" stroke="midnightblue" points="299.52,-27.02 307.04,-19.55 296.5,-20.7 299.52,-27.02"/>
</g>
<!-- Node6 -->
<g id="node6" class="node">
<title>Node6</title>
<g id="a_node6"><a xlink:href="../../d5/daf/_game_status_8h.html" target="_top" xlink:title=" ">
<polygon fill="white" stroke="black" points="441,-246.5 441,-265.5 581,-265.5 581,-246.5 441,-246.5"/>
<text text-anchor="middle" x="511" y="-253.5" font-family="Helvetica,sans-Serif" font-size="10.00">Namespaces/GameStatus.h</text>
</a>
</g>
</g>
<!-- Node1&#45;&gt;Node6 -->
<g id="edge5" class="edge">
<title>Node1&#45;&gt;Node6</title>
<path fill="none" stroke="midnightblue" d="M277.13,-302.47C332.34,-291.74 407.27,-277.17 457.29,-267.44"/>
<polygon fill="midnightblue" stroke="midnightblue" points="458.1,-270.85 467.25,-265.51 456.77,-263.98 458.1,-270.85"/>
</g>
<!-- Node7 -->
<g id="node7" class="node">
<title>Node7</title>
<g id="a_node7"><a xlink:href="../../d3/d22/_patern_computer_8h.html" target="_top" xlink:title=" ">
<polygon fill="white" stroke="black" points="233.5,-246.5 233.5,-265.5 384.5,-265.5 384.5,-246.5 233.5,-246.5"/>
<text text-anchor="middle" x="309" y="-253.5" font-family="Helvetica,sans-Serif" font-size="10.00">PaternEditor/PaternComputer.h</text>
</a>
</g>
</g>
<!-- Node1&#45;&gt;Node7 -->
<g id="edge6" class="edge">
<title>Node1&#45;&gt;Node7</title>
<path fill="none" stroke="midnightblue" d="M229.65,-302.4C246.32,-292.86 268.23,-280.32 284.81,-270.84"/>
<polygon fill="midnightblue" stroke="midnightblue" points="286.93,-273.66 293.87,-265.66 283.45,-267.59 286.93,-273.66"/>
</g>
<!-- Node18 -->
<g id="node18" class="node">
<title>Node18</title>
<g id="a_node18"><a xlink:href="../../de/d40/_parser_8h.html" target="_top" xlink:title=" ">
<polygon fill="white" stroke="black" points="807.5,-190.5 807.5,-209.5 920.5,-209.5 920.5,-190.5 807.5,-190.5"/>
<text text-anchor="middle" x="864" y="-197.5" font-family="Helvetica,sans-Serif" font-size="10.00">Namespaces/Parser.h</text>
</a>
</g>
</g>
<!-- Node1&#45;&gt;Node18 -->
<g id="edge23" class="edge">
<title>Node1&#45;&gt;Node18</title>
<path fill="none" stroke="midnightblue" d="M270.9,-302.41C307.47,-293.7 353.43,-281.26 393,-266 411.17,-258.99 413.33,-251.55 432,-246 557.37,-208.75 711.17,-201.32 797.32,-200.4"/>
<polygon fill="midnightblue" stroke="midnightblue" points="797.51,-203.9 807.48,-200.32 797.46,-196.9 797.51,-203.9"/>
</g>
<!-- Node8 -->
<g id="node8" class="node">
<title>Node8</title>
<g id="a_node8"><a xlink:href="../../d1/d98/_sequence_move_patern_8h.html" target="_top" xlink:title=" ">
<polygon fill="white" stroke="black" points="609.5,-123.5 609.5,-153.5 732.5,-153.5 732.5,-123.5 609.5,-123.5"/>
<text text-anchor="start" x="617.5" y="-141.5" font-family="Helvetica,sans-Serif" font-size="10.00">Shmup/Paterns/Enemy</text>
<text text-anchor="middle" x="671" y="-130.5" font-family="Helvetica,sans-Serif" font-size="10.00">/SequenceMovePatern.h</text>
</a>
</g>
</g>
<!-- Node7&#45;&gt;Node8 -->
<g id="edge7" class="edge">
<title>Node7&#45;&gt;Node8</title>
<path fill="none" stroke="midnightblue" d="M335.91,-246.41C395.31,-227.46 538.57,-181.75 617.17,-156.68"/>
<polygon fill="midnightblue" stroke="midnightblue" points="618.42,-159.95 626.88,-153.58 616.29,-153.28 618.42,-159.95"/>
</g>
<!-- Node14 -->
<g id="node14" class="node">
<title>Node14</title>
<g id="a_node14"><a xlink:href="../../db/d1b/_a_movable_8h.html" target="_top" xlink:title=" ">
<polygon fill="white" stroke="black" points="258.5,-190.5 258.5,-209.5 359.5,-209.5 359.5,-190.5 258.5,-190.5"/>
<text text-anchor="middle" x="309" y="-197.5" font-family="Helvetica,sans-Serif" font-size="10.00">Shmup/AMovable.h</text>
</a>
</g>
</g>
<!-- Node7&#45;&gt;Node14 -->
<g id="edge14" class="edge">
<title>Node7&#45;&gt;Node14</title>
<path fill="none" stroke="midnightblue" d="M309,-246.08C309,-239.01 309,-228.86 309,-219.99"/>
<polygon fill="midnightblue" stroke="midnightblue" points="312.5,-219.75 309,-209.75 305.5,-219.75 312.5,-219.75"/>
</g>
<!-- Node9 -->
<g id="node9" class="node">
<title>Node9</title>
<g id="a_node9"><a xlink:href="../../dc/d8f/_a_offsetable_patern_8h.html" target="_top" xlink:title=" ">
<polygon fill="white" stroke="black" points="441,-56.5 441,-86.5 579,-86.5 579,-56.5 441,-56.5"/>
<text text-anchor="start" x="449" y="-74.5" font-family="Helvetica,sans-Serif" font-size="10.00">Shmup/Paterns/AOffsetable</text>
<text text-anchor="middle" x="510" y="-63.5" font-family="Helvetica,sans-Serif" font-size="10.00">Patern.h</text>
</a>
</g>
</g>
<!-- Node8&#45;&gt;Node9 -->
<g id="edge8" class="edge">
<title>Node8&#45;&gt;Node9</title>
<path fill="none" stroke="midnightblue" d="M636.07,-123.4C612.12,-113.73 580.15,-100.82 554.4,-90.43"/>
<polygon fill="midnightblue" stroke="midnightblue" points="555.45,-87.07 544.87,-86.58 552.83,-93.57 555.45,-87.07"/>
</g>
<!-- Node11 -->
<g id="node11" class="node">
<title>Node11</title>
<g id="a_node11"><a xlink:title=" ">
<polygon fill="white" stroke="#bfbfbf" points="816,-0.5 816,-19.5 870,-19.5 870,-0.5 816,-0.5"/>
<text text-anchor="middle" x="843" y="-7.5" font-family="Helvetica,sans-Serif" font-size="10.00">iostream</text>
</a>
</g>
</g>
<!-- Node8&#45;&gt;Node11 -->
<g id="edge11" class="edge">
<title>Node8&#45;&gt;Node11</title>
<path fill="none" stroke="midnightblue" d="M697.44,-123.43C714.62,-113.9 737.24,-100.6 756,-87 782.24,-67.99 810.01,-42.7 826.93,-26.63"/>
<polygon fill="midnightblue" stroke="midnightblue" points="829.52,-29 834.31,-19.56 824.67,-23.95 829.52,-29"/>
</g>
<!-- Node12 -->
<g id="node12" class="node">
<title>Node12</title>
<g id="a_node12"><a xlink:title=" ">
<polygon fill="white" stroke="#bfbfbf" points="803.5,-62 803.5,-81 844.5,-81 844.5,-62 803.5,-62"/>
<text text-anchor="middle" x="824" y="-69" font-family="Helvetica,sans-Serif" font-size="10.00">string</text>
</a>
</g>
</g>
<!-- Node8&#45;&gt;Node12 -->
<g id="edge12" class="edge">
<title>Node8&#45;&gt;Node12</title>
<path fill="none" stroke="midnightblue" d="M704.2,-123.4C731.16,-111.94 768.83,-95.94 794.69,-84.95"/>
<polygon fill="midnightblue" stroke="midnightblue" points="796.14,-88.14 803.98,-81.01 793.4,-81.7 796.14,-88.14"/>
</g>
<!-- Node13 -->
<g id="node13" class="node">
<title>Node13</title>
<g id="a_node13"><a xlink:title=" ">
<polygon fill="white" stroke="#bfbfbf" points="669,-0.5 669,-19.5 713,-19.5 713,-0.5 669,-0.5"/>
<text text-anchor="middle" x="691" y="-7.5" font-family="Helvetica,sans-Serif" font-size="10.00">vector</text>
</a>
</g>
</g>
<!-- Node8&#45;&gt;Node13 -->
<g id="edge13" class="edge">
<title>Node8&#45;&gt;Node13</title>
<path fill="none" stroke="midnightblue" d="M653.92,-123.47C636.44,-107.31 613.47,-79.91 626,-56 633.28,-42.11 647.01,-31.65 659.98,-24.33"/>
<polygon fill="midnightblue" stroke="midnightblue" points="661.93,-27.27 669.19,-19.55 658.7,-21.05 661.93,-27.27"/>
</g>
<!-- Node9&#45;&gt;Node5 -->
<g id="edge9" class="edge">
<title>Node9&#45;&gt;Node5</title>
<path fill="none" stroke="midnightblue" d="M466.87,-56.4C434.62,-45.86 391.15,-31.64 361.49,-21.95"/>
<polygon fill="midnightblue" stroke="midnightblue" points="362.21,-18.5 351.62,-18.72 360.03,-25.16 362.21,-18.5"/>
</g>
<!-- Node10 -->
<g id="node10" class="node">
<title>Node10</title>
<g id="a_node10"><a xlink:href="../../df/d50/_a_patern_8h.html" target="_top" xlink:title=" ">
<polygon fill="white" stroke="black" points="480.5,-0.5 480.5,-19.5 539.5,-19.5 539.5,-0.5 480.5,-0.5"/>
<text text-anchor="middle" x="510" y="-7.5" font-family="Helvetica,sans-Serif" font-size="10.00">APatern.h</text>
</a>
</g>
</g>
<!-- Node9&#45;&gt;Node10 -->
<g id="edge10" class="edge">
<title>Node9&#45;&gt;Node10</title>
<path fill="none" stroke="midnightblue" d="M510,-56.4C510,-48.47 510,-38.46 510,-29.86"/>
<polygon fill="midnightblue" stroke="midnightblue" points="513.5,-29.66 510,-19.66 506.5,-29.66 513.5,-29.66"/>
</g>
<!-- Node14&#45;&gt;Node5 -->
<g id="edge15" class="edge">
<title>Node14&#45;&gt;Node5</title>
<path fill="none" stroke="midnightblue" d="M301.44,-190.21C282.61,-167.19 236.85,-103.6 262,-56 269.42,-41.95 283.42,-31.47 296.62,-24.17"/>
<polygon fill="midnightblue" stroke="midnightblue" points="298.22,-27.28 305.54,-19.62 295.04,-21.04 298.22,-27.28"/>
</g>
<!-- Node15 -->
<g id="node15" class="node">
<title>Node15</title>
<g id="a_node15"><a xlink:href="../../d7/daf/_a_graphic_object_8h.html" target="_top" xlink:title=" ">
<polygon fill="white" stroke="black" points="323.5,-129 323.5,-148 416.5,-148 416.5,-129 323.5,-129"/>
<text text-anchor="middle" x="370" y="-136" font-family="Helvetica,sans-Serif" font-size="10.00">AGraphicObject.h</text>
</a>
</g>
</g>
<!-- Node14&#45;&gt;Node15 -->
<g id="edge16" class="edge">
<title>Node14&#45;&gt;Node15</title>
<path fill="none" stroke="midnightblue" d="M317.74,-190.48C327.16,-181.28 342.36,-166.46 353.95,-155.16"/>
<polygon fill="midnightblue" stroke="midnightblue" points="356.56,-157.5 361.28,-148.01 351.67,-152.49 356.56,-157.5"/>
</g>
<!-- Node15&#45;&gt;Node5 -->
<g id="edge17" class="edge">
<title>Node15&#45;&gt;Node5</title>
<path fill="none" stroke="midnightblue" d="M376.57,-128.98C387.53,-113.67 407.09,-80.78 394,-56 386.58,-41.95 372.58,-31.47 359.38,-24.17"/>
<polygon fill="midnightblue" stroke="midnightblue" points="360.96,-21.04 350.46,-19.62 357.78,-27.28 360.96,-21.04"/>
</g>
<!-- Node16 -->
<g id="node16" class="node">
<title>Node16</title>
<g id="a_node16"><a xlink:href="../../dc/d80/_instance_list_8h.html" target="_top" xlink:title=" ">
<polygon fill="white" stroke="black" points="635,-62 635,-81 747,-81 747,-62 635,-62"/>
<text text-anchor="middle" x="691" y="-69" font-family="Helvetica,sans-Serif" font-size="10.00">Shmup/InstanceList.h</text>
</a>
</g>
</g>
<!-- Node15&#45;&gt;Node16 -->
<g id="edge18" class="edge">
<title>Node15&#45;&gt;Node16</title>
<path fill="none" stroke="midnightblue" d="M412.3,-128.94C470.59,-117.13 575.58,-95.87 638.72,-83.09"/>
<polygon fill="midnightblue" stroke="midnightblue" points="639.76,-86.45 648.87,-81.03 638.37,-79.59 639.76,-86.45"/>
</g>
<!-- Node17 -->
<g id="node17" class="node">
<title>Node17</title>
<g id="a_node17"><a xlink:href="../../da/d02/_transform2_d_8h.html" target="_top" xlink:title=" ">
<polygon fill="white" stroke="black" points="271,-62 271,-81 385,-81 385,-62 271,-62"/>
<text text-anchor="middle" x="328" y="-69" font-family="Helvetica,sans-Serif" font-size="10.00">Shmup/Transform2D.h</text>
</a>
</g>
</g>
<!-- Node15&#45;&gt;Node17 -->
<g id="edge21" class="edge">
<title>Node15&#45;&gt;Node17</title>
<path fill="none" stroke="midnightblue" d="M364.34,-128.73C357.91,-118.79 347.28,-102.34 339.17,-89.79"/>
<polygon fill="midnightblue" stroke="midnightblue" points="341.94,-87.63 333.57,-81.13 336.06,-91.43 341.94,-87.63"/>
</g>
<!-- Node16&#45;&gt;Node11 -->
<g id="edge19" class="edge">
<title>Node16&#45;&gt;Node11</title>
<path fill="none" stroke="midnightblue" d="M712.78,-61.98C738.74,-51.81 782.31,-34.76 811.83,-23.2"/>
<polygon fill="midnightblue" stroke="midnightblue" points="813.23,-26.41 821.26,-19.51 810.67,-19.9 813.23,-26.41"/>
</g>
<!-- Node16&#45;&gt;Node13 -->
<g id="edge20" class="edge">
<title>Node16&#45;&gt;Node13</title>
<path fill="none" stroke="midnightblue" d="M691,-61.98C691,-53.58 691,-40.48 691,-29.66"/>
<polygon fill="midnightblue" stroke="midnightblue" points="694.5,-29.51 691,-19.51 687.5,-29.51 694.5,-29.51"/>
</g>
<!-- Node17&#45;&gt;Node5 -->
<g id="edge22" class="edge">
<title>Node17&#45;&gt;Node5</title>
<path fill="none" stroke="midnightblue" d="M328,-61.98C328,-53.58 328,-40.48 328,-29.66"/>
<polygon fill="midnightblue" stroke="midnightblue" points="331.5,-29.51 328,-19.51 324.5,-29.51 331.5,-29.51"/>
</g>
<!-- Node18&#45;&gt;Node8 -->
<g id="edge32" class="edge">
<title>Node18&#45;&gt;Node8</title>
<path fill="none" stroke="midnightblue" d="M836.35,-190.48C807.77,-181.66 762.37,-167.67 726.37,-156.57"/>
<polygon fill="midnightblue" stroke="midnightblue" points="727.07,-153.12 716.49,-153.52 725.01,-159.81 727.07,-153.12"/>
</g>
<!-- Node18&#45;&gt;Node11 -->
<g id="edge24" class="edge">
<title>Node18&#45;&gt;Node11</title>
<path fill="none" stroke="midnightblue" d="M896.54,-190.41C918.35,-183.39 946.7,-171.69 967,-154 1002.6,-122.98 1036.66,-93.52 1008,-56 992.57,-35.79 923.93,-22.48 880.19,-15.88"/>
<polygon fill="midnightblue" stroke="midnightblue" points="880.59,-12.41 870.19,-14.43 879.58,-19.33 880.59,-12.41"/>
</g>
<!-- Node18&#45;&gt;Node12 -->
<g id="edge25" class="edge">
<title>Node18&#45;&gt;Node12</title>
<path fill="none" stroke="midnightblue" d="M859.54,-190.22C855.13,-181.29 848.43,-166.94 844,-154 836.8,-132.94 831.07,-108 827.62,-91.3"/>
<polygon fill="midnightblue" stroke="midnightblue" points="831,-90.33 825.61,-81.21 824.13,-91.7 831,-90.33"/>
</g>
<!-- Node19 -->
<g id="node19" class="node">
<title>Node19</title>
<g id="a_node19"><a xlink:title=" ">
<polygon fill="white" stroke="#bfbfbf" points="1055.5,-129 1055.5,-148 1114.5,-148 1114.5,-129 1055.5,-129"/>
<text text-anchor="middle" x="1085" y="-136" font-family="Helvetica,sans-Serif" font-size="10.00">stdexcept</text>
</a>
</g>
</g>
<!-- Node18&#45;&gt;Node19 -->
<g id="edge26" class="edge">
<title>Node18&#45;&gt;Node19</title>
<path fill="none" stroke="midnightblue" d="M900.81,-190.43C936.75,-181.88 992.91,-168.02 1041,-154 1043.99,-153.13 1047.09,-152.19 1050.18,-151.22"/>
<polygon fill="midnightblue" stroke="midnightblue" points="1051.51,-154.47 1059.96,-148.08 1049.37,-147.8 1051.51,-154.47"/>
</g>
<!-- Node20 -->
<g id="node20" class="node">
<title>Node20</title>
<g id="a_node20"><a xlink:href="../../d9/dc1/_utils_8h.html" target="_top" xlink:title=" ">
<polygon fill="white" stroke="black" points="852.5,-129 852.5,-148 957.5,-148 957.5,-129 852.5,-129"/>
<text text-anchor="middle" x="905" y="-136" font-family="Helvetica,sans-Serif" font-size="10.00">Namespaces/Utils.h</text>
</a>
</g>
</g>
<!-- Node18&#45;&gt;Node20 -->
<g id="edge27" class="edge">
<title>Node18&#45;&gt;Node20</title>
<path fill="none" stroke="midnightblue" d="M869.87,-190.48C875.96,-181.64 885.64,-167.59 893.3,-156.48"/>
<polygon fill="midnightblue" stroke="midnightblue" points="896.34,-158.23 899.14,-148.01 890.58,-154.26 896.34,-158.23"/>
</g>
<!-- Node20&#45;&gt;Node11 -->
<g id="edge28" class="edge">
<title>Node20&#45;&gt;Node11</title>
<path fill="none" stroke="midnightblue" d="M904.64,-128.87C903.67,-113.38 900.1,-80.22 887,-56 880.87,-44.67 871.05,-34.23 862.25,-26.26"/>
<polygon fill="midnightblue" stroke="midnightblue" points="864.45,-23.54 854.58,-19.69 859.89,-28.85 864.45,-23.54"/>
</g>
<!-- Node20&#45;&gt;Node12 -->
<g id="edge29" class="edge">
<title>Node20&#45;&gt;Node12</title>
<path fill="none" stroke="midnightblue" d="M894.08,-128.73C880.96,-118.21 858.74,-100.38 842.84,-87.62"/>
<polygon fill="midnightblue" stroke="midnightblue" points="844.74,-84.66 834.75,-81.13 840.36,-90.12 844.74,-84.66"/>
</g>
<!-- Node20&#45;&gt;Node13 -->
<g id="edge30" class="edge">
<title>Node20&#45;&gt;Node13</title>
<path fill="none" stroke="midnightblue" d="M902.04,-128.88C895.86,-112.18 879.96,-75.35 854,-56 815.18,-27.06 758.72,-16.73 723.46,-13.05"/>
<polygon fill="midnightblue" stroke="midnightblue" points="723.53,-9.54 713.25,-12.1 722.88,-16.51 723.53,-9.54"/>
</g>
<!-- Node21 -->
<g id="node21" class="node">
<title>Node21</title>
<g id="a_node21"><a xlink:title=" ">
<polygon fill="white" stroke="#bfbfbf" points="939.5,-62 939.5,-81 998.5,-81 998.5,-62 939.5,-62"/>
<text text-anchor="middle" x="969" y="-69" font-family="Helvetica,sans-Serif" font-size="10.00">functional</text>
</a>
</g>
</g>
<!-- Node20&#45;&gt;Node21 -->
<g id="edge31" class="edge">
<title>Node20&#45;&gt;Node21</title>
<path fill="none" stroke="midnightblue" d="M913.63,-128.73C923.8,-118.4 940.9,-101.04 953.41,-88.33"/>
<polygon fill="midnightblue" stroke="midnightblue" points="955.98,-90.71 960.51,-81.13 951,-85.8 955.98,-90.71"/>
</g>
</g>
</svg>
