<?xml version="1.0" encoding="UTF-8" standalone="no"?>
<!DOCTYPE svg PUBLIC "-//W3C//DTD SVG 1.1//EN"
 "http://www.w3.org/Graphics/SVG/1.1/DTD/svg11.dtd">
<!-- Generated by graphviz version 2.49.3 (20211027.1534)
 -->
<!-- Title: RayLib_SHMUP/include/Shmup/Collision/ColliderSettings.h Pages: 1 -->
<svg width="1592pt" height="374pt"
 viewBox="0.00 0.00 1592.00 374.00" xmlns="http://www.w3.org/2000/svg" xmlns:xlink="http://www.w3.org/1999/xlink">
<g id="graph0" class="graph" transform="scale(1 1) rotate(0) translate(4 370)">
<title>RayLib_SHMUP/include/Shmup/Collision/ColliderSettings.h</title>
<polygon fill="white" stroke="transparent" points="-4,4 -4,-370 1588,-370 1588,4 -4,4"/>
<!-- Node1 -->
<g id="node1" class="node">
<title>Node1</title>
<g id="a_node1"><a xlink:title=" ">
<polygon fill="#bfbfbf" stroke="black" points="373,-335.5 373,-365.5 542,-365.5 542,-335.5 373,-335.5"/>
<text text-anchor="start" x="381" y="-353.5" font-family="Helvetica,sans-Serif" font-size="10.00">RayLib_SHMUP/include</text>
<text text-anchor="middle" x="457.5" y="-342.5" font-family="Helvetica,sans-Serif" font-size="10.00">/Shmup/Collision/ColliderSettings.h</text>
</a>
</g>
</g>
<!-- Node2 -->
<g id="node2" class="node">
<title>Node2</title>
<g id="a_node2"><a xlink:href="../../d5/d36/_collider_8h.html" target="_top" xlink:title=" ">
<polygon fill="white" stroke="black" points="391,-268.5 391,-298.5 524,-298.5 524,-268.5 391,-268.5"/>
<text text-anchor="start" x="399" y="-286.5" font-family="Helvetica,sans-Serif" font-size="10.00">RayLib_SHMUP/include</text>
<text text-anchor="middle" x="457.5" y="-275.5" font-family="Helvetica,sans-Serif" font-size="10.00">/Shmup/Collision/Collider.h</text>
</a>
</g>
</g>
<!-- Node1&#45;&gt;Node2 -->
<g id="edge1" class="edge">
<title>Node1&#45;&gt;Node2</title>
<path fill="none" stroke="midnightblue" d="M457.5,-325.11C457.5,-316.15 457.5,-306.32 457.5,-298.58"/>
<polygon fill="midnightblue" stroke="midnightblue" points="454,-325.4 457.5,-335.4 461,-325.4 454,-325.4"/>
</g>
<!-- Node4 -->
<g id="node4" class="node">
<title>Node4</title>
<g id="a_node4"><a xlink:href="../../d7/d3e/_collision_manager_8h.html" target="_top" xlink:title=" ">
<polygon fill="white" stroke="black" points="133,-134.5 133,-164.5 308,-164.5 308,-134.5 133,-134.5"/>
<text text-anchor="start" x="141" y="-152.5" font-family="Helvetica,sans-Serif" font-size="10.00">RayLib_SHMUP/include</text>
<text text-anchor="middle" x="220.5" y="-141.5" font-family="Helvetica,sans-Serif" font-size="10.00">/Shmup/Collision/CollisionManager.h</text>
</a>
</g>
</g>
<!-- Node1&#45;&gt;Node4 -->
<g id="edge26" class="edge">
<title>Node1&#45;&gt;Node4</title>
<path fill="none" stroke="midnightblue" d="M406.75,-331.69C360.82,-313.24 294.17,-280.26 252.5,-232 235.41,-212.21 226.84,-182.22 223.06,-164.67"/>
<polygon fill="midnightblue" stroke="midnightblue" points="405.63,-335.02 416.22,-335.41 408.19,-328.5 405.63,-335.02"/>
</g>
<!-- Node20 -->
<g id="node20" class="node">
<title>Node20</title>
<g id="a_node20"><a xlink:href="../../dc/dcc/_collider_settings_8cpp.html" target="_top" xlink:title=" ">
<polygon fill="white" stroke="black" points="542.5,-268.5 542.5,-298.5 688.5,-298.5 688.5,-268.5 542.5,-268.5"/>
<text text-anchor="start" x="550.5" y="-286.5" font-family="Helvetica,sans-Serif" font-size="10.00">RayLib_SHMUP/src/Shmup</text>
<text text-anchor="middle" x="615.5" y="-275.5" font-family="Helvetica,sans-Serif" font-size="10.00">/Collision/ColliderSettings.cpp</text>
</a>
</g>
</g>
<!-- Node1&#45;&gt;Node20 -->
<g id="edge27" class="edge">
<title>Node1&#45;&gt;Node20</title>
<path fill="none" stroke="midnightblue" d="M501.15,-331.54C526.43,-321.14 557.8,-308.24 581.28,-298.58"/>
<polygon fill="midnightblue" stroke="midnightblue" points="499.7,-328.35 491.78,-335.4 502.36,-334.83 499.7,-328.35"/>
</g>
<!-- Node3 -->
<g id="node3" class="node">
<title>Node3</title>
<g id="a_node3"><a xlink:href="../../d3/d72/_a_collidable_8h.html" target="_top" xlink:title=" ">
<polygon fill="white" stroke="black" points="262,-201.5 262,-231.5 411,-231.5 411,-201.5 262,-201.5"/>
<text text-anchor="start" x="270" y="-219.5" font-family="Helvetica,sans-Serif" font-size="10.00">RayLib_SHMUP/include</text>
<text text-anchor="middle" x="336.5" y="-208.5" font-family="Helvetica,sans-Serif" font-size="10.00">/Shmup/Collision/ACollidable.h</text>
</a>
</g>
</g>
<!-- Node2&#45;&gt;Node3 -->
<g id="edge2" class="edge">
<title>Node2&#45;&gt;Node3</title>
<path fill="none" stroke="midnightblue" d="M422.27,-263.57C403.24,-253.35 380.13,-240.94 362.7,-231.58"/>
<polygon fill="midnightblue" stroke="midnightblue" points="420.78,-266.75 431.24,-268.4 424.09,-260.58 420.78,-266.75"/>
</g>
<!-- Node8 -->
<g id="node8" class="node">
<title>Node8</title>
<g id="a_node8"><a xlink:href="../../d4/d1e/_enemy_8h.html" target="_top" xlink:title=" ">
<polygon fill="white" stroke="black" points="373.5,-134.5 373.5,-164.5 503.5,-164.5 503.5,-134.5 373.5,-134.5"/>
<text text-anchor="start" x="381.5" y="-152.5" font-family="Helvetica,sans-Serif" font-size="10.00">RayLib_SHMUP/include</text>
<text text-anchor="middle" x="438.5" y="-141.5" font-family="Helvetica,sans-Serif" font-size="10.00">/Shmup/Movable/Enemy.h</text>
</a>
</g>
</g>
<!-- Node2&#45;&gt;Node8 -->
<g id="edge22" class="edge">
<title>Node2&#45;&gt;Node8</title>
<path fill="none" stroke="midnightblue" d="M454.03,-258.39C450.07,-230.9 443.74,-186.89 440.52,-164.52"/>
<polygon fill="midnightblue" stroke="midnightblue" points="450.58,-258.97 455.47,-268.37 457.51,-257.98 450.58,-258.97"/>
</g>
<!-- Node11 -->
<g id="node11" class="node">
<title>Node11</title>
<g id="a_node11"><a xlink:href="../../de/d15/_shoot_8h.html" target="_top" xlink:title=" ">
<polygon fill="white" stroke="black" points="860.5,-134.5 860.5,-164.5 986.5,-164.5 986.5,-134.5 860.5,-134.5"/>
<text text-anchor="start" x="868.5" y="-152.5" font-family="Helvetica,sans-Serif" font-size="10.00">RayLib_SHMUP/include</text>
<text text-anchor="middle" x="923.5" y="-141.5" font-family="Helvetica,sans-Serif" font-size="10.00">/Shmup/Movable/Shoot.h</text>
</a>
</g>
</g>
<!-- Node2&#45;&gt;Node11 -->
<g id="edge23" class="edge">
<title>Node2&#45;&gt;Node11</title>
<path fill="none" stroke="midnightblue" d="M462.41,-258.36C467.56,-239.57 477.64,-214.49 496.5,-201 553.41,-160.27 756.02,-152.12 860.37,-150.66"/>
<polygon fill="midnightblue" stroke="midnightblue" points="458.95,-257.76 459.97,-268.3 465.75,-259.43 458.95,-257.76"/>
</g>
<!-- Node18 -->
<g id="node18" class="node">
<title>Node18</title>
<g id="a_node18"><a xlink:href="../../dd/d3e/_collider_8cpp.html" target="_top" xlink:title=" ">
<polygon fill="white" stroke="black" points="505,-201.5 505,-231.5 644,-231.5 644,-201.5 505,-201.5"/>
<text text-anchor="start" x="513" y="-219.5" font-family="Helvetica,sans-Serif" font-size="10.00">RayLib_SHMUP/src/Shmup</text>
<text text-anchor="middle" x="574.5" y="-208.5" font-family="Helvetica,sans-Serif" font-size="10.00">/Collision/Collider.cpp</text>
</a>
</g>
</g>
<!-- Node2&#45;&gt;Node18 -->
<g id="edge24" class="edge">
<title>Node2&#45;&gt;Node18</title>
<path fill="none" stroke="midnightblue" d="M491.82,-263.44C510.17,-253.24 532.38,-240.9 549.16,-231.58"/>
<polygon fill="midnightblue" stroke="midnightblue" points="489.93,-260.48 482.89,-268.4 493.33,-266.6 489.93,-260.48"/>
</g>
<!-- Node19 -->
<g id="node19" class="node">
<title>Node19</title>
<g id="a_node19"><a xlink:href="../../d1/d01/_collider_calculation_8cpp.html" target="_top" xlink:title=" ">
<polygon fill="white" stroke="black" points="662.5,-201.5 662.5,-231.5 820.5,-231.5 820.5,-201.5 662.5,-201.5"/>
<text text-anchor="start" x="670.5" y="-219.5" font-family="Helvetica,sans-Serif" font-size="10.00">RayLib_SHMUP/src/Shmup</text>
<text text-anchor="middle" x="741.5" y="-208.5" font-family="Helvetica,sans-Serif" font-size="10.00">/Collision/ColliderCalculation.cpp</text>
</a>
</g>
</g>
<!-- Node2&#45;&gt;Node19 -->
<g id="edge25" class="edge">
<title>Node2&#45;&gt;Node19</title>
<path fill="none" stroke="midnightblue" d="M528.78,-266.19C575.29,-255.54 635.4,-241.78 679.85,-231.61"/>
<polygon fill="midnightblue" stroke="midnightblue" points="527.74,-262.83 518.77,-268.48 529.3,-269.66 527.74,-262.83"/>
</g>
<!-- Node3&#45;&gt;Node4 -->
<g id="edge3" class="edge">
<title>Node3&#45;&gt;Node4</title>
<path fill="none" stroke="midnightblue" d="M302.23,-196.3C284.08,-186.12 262.18,-173.85 245.62,-164.58"/>
<polygon fill="midnightblue" stroke="midnightblue" points="300.9,-199.56 311.33,-201.4 304.32,-193.45 300.9,-199.56"/>
</g>
<!-- Node5 -->
<g id="node5" class="node">
<title>Node5</title>
<g id="a_node5"><a xlink:href="../../d9/d84/_a_collidable_8cpp.html" target="_top" xlink:title=" ">
<polygon fill="white" stroke="black" points="0,-67.5 0,-97.5 139,-97.5 139,-67.5 0,-67.5"/>
<text text-anchor="start" x="8" y="-85.5" font-family="Helvetica,sans-Serif" font-size="10.00">RayLib_SHMUP/src/Shmup</text>
<text text-anchor="middle" x="69.5" y="-74.5" font-family="Helvetica,sans-Serif" font-size="10.00">/Collision/ACollidable.cpp</text>
</a>
</g>
</g>
<!-- Node3&#45;&gt;Node5 -->
<g id="edge20" class="edge">
<title>Node3&#45;&gt;Node5</title>
<path fill="none" stroke="midnightblue" d="M251.8,-210C210.12,-203.84 160.93,-191.12 123.5,-165 99.14,-148 82.85,-116.16 74.98,-97.71"/>
<polygon fill="midnightblue" stroke="midnightblue" points="251.56,-213.5 261.94,-211.39 252.51,-206.56 251.56,-213.5"/>
</g>
<!-- Node6 -->
<g id="node6" class="node">
<title>Node6</title>
<g id="a_node6"><a xlink:href="../../df/db7/_collision_manager_8cpp.html" target="_top" xlink:title=" ">
<polygon fill="white" stroke="black" points="195.5,-67.5 195.5,-97.5 347.5,-97.5 347.5,-67.5 195.5,-67.5"/>
<text text-anchor="start" x="203.5" y="-85.5" font-family="Helvetica,sans-Serif" font-size="10.00">RayLib_SHMUP/src/Shmup</text>
<text text-anchor="middle" x="271.5" y="-74.5" font-family="Helvetica,sans-Serif" font-size="10.00">/Collision/CollisionManager.cpp</text>
</a>
</g>
</g>
<!-- Node3&#45;&gt;Node6 -->
<g id="edge21" class="edge">
<title>Node3&#45;&gt;Node6</title>
<path fill="none" stroke="midnightblue" d="M333.67,-191.09C330.99,-174.29 325.9,-151.88 316.5,-134 309.28,-120.28 297.54,-107.28 287.87,-97.91"/>
<polygon fill="midnightblue" stroke="midnightblue" points="330.24,-191.8 335.11,-201.21 337.17,-190.82 330.24,-191.8"/>
</g>
<!-- Node3&#45;&gt;Node8 -->
<g id="edge7" class="edge">
<title>Node3&#45;&gt;Node8</title>
<path fill="none" stroke="midnightblue" d="M367.08,-196.02C382.95,-185.9 401.98,-173.77 416.41,-164.58"/>
<polygon fill="midnightblue" stroke="midnightblue" points="365.18,-193.07 358.63,-201.4 368.95,-198.97 365.18,-193.07"/>
</g>
<!-- Node3&#45;&gt;Node11 -->
<g id="edge11" class="edge">
<title>Node3&#45;&gt;Node11</title>
<path fill="none" stroke="midnightblue" d="M421.11,-205.7C434.94,-204.12 449.12,-202.5 462.5,-201 604.72,-185.03 771.69,-166.89 860.48,-157.29"/>
<polygon fill="midnightblue" stroke="midnightblue" points="420.65,-202.23 411.11,-206.85 421.45,-209.18 420.65,-202.23"/>
</g>
<!-- Node4&#45;&gt;Node5 -->
<g id="edge4" class="edge">
<title>Node4&#45;&gt;Node5</title>
<path fill="none" stroke="midnightblue" d="M178.47,-130.41C154.36,-120.03 124.55,-107.2 102.2,-97.58"/>
<polygon fill="midnightblue" stroke="midnightblue" points="177.17,-133.66 187.74,-134.4 179.93,-127.23 177.17,-133.66"/>
</g>
<!-- Node4&#45;&gt;Node6 -->
<g id="edge5" class="edge">
<title>Node4&#45;&gt;Node6</title>
<path fill="none" stroke="midnightblue" d="M237.8,-126.45C245.29,-116.9 253.84,-106 260.46,-97.58"/>
<polygon fill="midnightblue" stroke="midnightblue" points="234.99,-124.37 231.57,-134.4 240.49,-128.69 234.99,-124.37"/>
</g>
<!-- Node7 -->
<g id="node7" class="node">
<title>Node7</title>
<g id="a_node7"><a xlink:href="../../d2/d2e/_game_manager_8cpp.html" target="_top" xlink:title=" ">
<polygon fill="white" stroke="black" points="306,-0.5 306,-30.5 445,-30.5 445,-0.5 306,-0.5"/>
<text text-anchor="start" x="314" y="-18.5" font-family="Helvetica,sans-Serif" font-size="10.00">RayLib_SHMUP/src/Shmup</text>
<text text-anchor="middle" x="375.5" y="-7.5" font-family="Helvetica,sans-Serif" font-size="10.00">/GameManager.cpp</text>
</a>
</g>
</g>
<!-- Node4&#45;&gt;Node7 -->
<g id="edge6" class="edge">
<title>Node4&#45;&gt;Node7</title>
<path fill="none" stroke="midnightblue" d="M199.78,-126.46C186.01,-109.08 172.78,-84.87 186.5,-67 201.26,-47.77 258.33,-34.29 305.93,-26.12"/>
<polygon fill="midnightblue" stroke="midnightblue" points="197.34,-129 206.46,-134.39 202.69,-124.49 197.34,-129"/>
</g>
<!-- Node8&#45;&gt;Node7 -->
<g id="edge8" class="edge">
<title>Node8&#45;&gt;Node7</title>
<path fill="none" stroke="midnightblue" d="M415.89,-127.27C408.08,-118.84 399.93,-108.62 394.5,-98 383.32,-76.14 378.62,-47.62 376.72,-30.77"/>
<polygon fill="midnightblue" stroke="midnightblue" points="413.4,-129.74 422.88,-134.48 418.43,-124.86 413.4,-129.74"/>
</g>
<!-- Node9 -->
<g id="node9" class="node">
<title>Node9</title>
<g id="a_node9"><a xlink:href="../../df/dd2/_level_manager_8cpp.html" target="_top" xlink:title=" ">
<polygon fill="white" stroke="black" points="404,-67.5 404,-97.5 543,-97.5 543,-67.5 404,-67.5"/>
<text text-anchor="start" x="412" y="-85.5" font-family="Helvetica,sans-Serif" font-size="10.00">RayLib_SHMUP/src/Shmup</text>
<text text-anchor="middle" x="473.5" y="-74.5" font-family="Helvetica,sans-Serif" font-size="10.00">/LevelManager.cpp</text>
</a>
</g>
</g>
<!-- Node8&#45;&gt;Node9 -->
<g id="edge9" class="edge">
<title>Node8&#45;&gt;Node9</title>
<path fill="none" stroke="midnightblue" d="M450.84,-125.58C455.87,-116.24 461.52,-105.75 465.92,-97.58"/>
<polygon fill="midnightblue" stroke="midnightblue" points="447.75,-123.93 446.09,-134.4 453.92,-127.25 447.75,-123.93"/>
</g>
<!-- Node10 -->
<g id="node10" class="node">
<title>Node10</title>
<g id="a_node10"><a xlink:href="../../de/d34/_enemy_8cpp.html" target="_top" xlink:title=" ">
<polygon fill="white" stroke="black" points="561,-67.5 561,-97.5 700,-97.5 700,-67.5 561,-67.5"/>
<text text-anchor="start" x="569" y="-85.5" font-family="Helvetica,sans-Serif" font-size="10.00">RayLib_SHMUP/src/Shmup</text>
<text text-anchor="middle" x="630.5" y="-74.5" font-family="Helvetica,sans-Serif" font-size="10.00">/Movable/Enemy.cpp</text>
</a>
</g>
</g>
<!-- Node8&#45;&gt;Node10 -->
<g id="edge10" class="edge">
<title>Node8&#45;&gt;Node10</title>
<path fill="none" stroke="midnightblue" d="M489.92,-131.09C520.92,-120.6 559.88,-107.41 588.92,-97.58"/>
<polygon fill="midnightblue" stroke="midnightblue" points="488.51,-127.87 480.16,-134.4 490.76,-134.5 488.51,-127.87"/>
</g>
<!-- Node12 -->
<g id="node12" class="node">
<title>Node12</title>
<g id="a_node12"><a xlink:href="../../d1/d39/_player_8h.html" target="_top" xlink:title=" ">
<polygon fill="white" stroke="black" points="718.5,-67.5 718.5,-97.5 846.5,-97.5 846.5,-67.5 718.5,-67.5"/>
<text text-anchor="start" x="726.5" y="-85.5" font-family="Helvetica,sans-Serif" font-size="10.00">RayLib_SHMUP/include</text>
<text text-anchor="middle" x="782.5" y="-74.5" font-family="Helvetica,sans-Serif" font-size="10.00">/Shmup/Movable/Player.h</text>
</a>
</g>
</g>
<!-- Node11&#45;&gt;Node12 -->
<g id="edge12" class="edge">
<title>Node11&#45;&gt;Node12</title>
<path fill="none" stroke="midnightblue" d="M883.65,-130.13C861.25,-119.8 833.72,-107.11 813.04,-97.58"/>
<polygon fill="midnightblue" stroke="midnightblue" points="882.36,-133.39 892.91,-134.4 885.29,-127.03 882.36,-133.39"/>
</g>
<!-- Node13 -->
<g id="node13" class="node">
<title>Node13</title>
<g id="a_node13"><a xlink:href="../../d2/d82/_player_8cpp.html" target="_top" xlink:title=" ">
<polygon fill="white" stroke="black" points="759,-0.5 759,-30.5 898,-30.5 898,-0.5 759,-0.5"/>
<text text-anchor="start" x="767" y="-18.5" font-family="Helvetica,sans-Serif" font-size="10.00">RayLib_SHMUP/src/Shmup</text>
<text text-anchor="middle" x="828.5" y="-7.5" font-family="Helvetica,sans-Serif" font-size="10.00">/Movable/Player.cpp</text>
</a>
</g>
</g>
<!-- Node11&#45;&gt;Node13 -->
<g id="edge15" class="edge">
<title>Node11&#45;&gt;Node13</title>
<path fill="none" stroke="midnightblue" d="M907.44,-126.19C887.77,-98.86 855.04,-53.38 838.59,-30.52"/>
<polygon fill="midnightblue" stroke="midnightblue" points="904.65,-128.3 913.33,-134.37 910.33,-124.21 904.65,-128.3"/>
</g>
<!-- Node14 -->
<g id="node14" class="node">
<title>Node14</title>
<g id="a_node14"><a xlink:href="../../d6/dae/_shoot_8cpp.html" target="_top" xlink:title=" ">
<polygon fill="white" stroke="black" points="903,-67.5 903,-97.5 1042,-97.5 1042,-67.5 903,-67.5"/>
<text text-anchor="start" x="911" y="-85.5" font-family="Helvetica,sans-Serif" font-size="10.00">RayLib_SHMUP/src/Shmup</text>
<text text-anchor="middle" x="972.5" y="-74.5" font-family="Helvetica,sans-Serif" font-size="10.00">/Movable/Shoot.cpp</text>
</a>
</g>
</g>
<!-- Node11&#45;&gt;Node14 -->
<g id="edge16" class="edge">
<title>Node11&#45;&gt;Node14</title>
<path fill="none" stroke="midnightblue" d="M940.34,-126.16C947.49,-116.68 955.6,-105.92 961.89,-97.58"/>
<polygon fill="midnightblue" stroke="midnightblue" points="937.36,-124.3 934.13,-134.4 942.95,-128.52 937.36,-124.3"/>
</g>
<!-- Node15 -->
<g id="node15" class="node">
<title>Node15</title>
<g id="a_node15"><a xlink:href="../../dc/dac/_patern_linear_8cpp.html" target="_top" xlink:title=" ">
<polygon fill="white" stroke="black" points="1060.5,-67.5 1060.5,-97.5 1218.5,-97.5 1218.5,-67.5 1060.5,-67.5"/>
<text text-anchor="start" x="1068.5" y="-85.5" font-family="Helvetica,sans-Serif" font-size="10.00">RayLib_SHMUP/src/Shmup</text>
<text text-anchor="middle" x="1139.5" y="-74.5" font-family="Helvetica,sans-Serif" font-size="10.00">/Paterns/Shoot/PaternLinear.cpp</text>
</a>
</g>
</g>
<!-- Node11&#45;&gt;Node15 -->
<g id="edge17" class="edge">
<title>Node11&#45;&gt;Node15</title>
<path fill="none" stroke="midnightblue" d="M979.73,-131.58C1014.81,-121.02 1059.44,-107.59 1092.61,-97.61"/>
<polygon fill="midnightblue" stroke="midnightblue" points="978.67,-128.24 970.1,-134.48 980.69,-134.95 978.67,-128.24"/>
</g>
<!-- Node16 -->
<g id="node16" class="node">
<title>Node16</title>
<g id="a_node16"><a xlink:href="../../d8/d91/_patern_rotate_8cpp.html" target="_top" xlink:title=" ">
<polygon fill="white" stroke="black" points="1236.5,-67.5 1236.5,-97.5 1396.5,-97.5 1396.5,-67.5 1236.5,-67.5"/>
<text text-anchor="start" x="1244.5" y="-85.5" font-family="Helvetica,sans-Serif" font-size="10.00">RayLib_SHMUP/src/Shmup</text>
<text text-anchor="middle" x="1316.5" y="-74.5" font-family="Helvetica,sans-Serif" font-size="10.00">/Paterns/Shoot/PaternRotate.cpp</text>
</a>
</g>
</g>
<!-- Node11&#45;&gt;Node16 -->
<g id="edge18" class="edge">
<title>Node11&#45;&gt;Node16</title>
<path fill="none" stroke="midnightblue" d="M996.85,-136.37C1064.9,-125.11 1165.97,-108.4 1236.17,-96.79"/>
<polygon fill="midnightblue" stroke="midnightblue" points="995.94,-132.97 986.64,-138.06 997.08,-139.88 995.94,-132.97"/>
</g>
<!-- Node17 -->
<g id="node17" class="node">
<title>Node17</title>
<g id="a_node17"><a xlink:href="../../db/db4/_patern_v_spread_8cpp.html" target="_top" xlink:title=" ">
<polygon fill="white" stroke="black" points="1415,-67.5 1415,-97.5 1584,-97.5 1584,-67.5 1415,-67.5"/>
<text text-anchor="start" x="1423" y="-85.5" font-family="Helvetica,sans-Serif" font-size="10.00">RayLib_SHMUP/src/Shmup</text>
<text text-anchor="middle" x="1499.5" y="-74.5" font-family="Helvetica,sans-Serif" font-size="10.00">/Paterns/Shoot/PaternVSpread.cpp</text>
</a>
</g>
</g>
<!-- Node11&#45;&gt;Node17 -->
<g id="edge19" class="edge">
<title>Node11&#45;&gt;Node17</title>
<path fill="none" stroke="midnightblue" d="M996.81,-141.94C1091.4,-133.21 1260.99,-116.71 1405.5,-98 1408.61,-97.6 1411.78,-97.17 1414.98,-96.74"/>
<polygon fill="midnightblue" stroke="midnightblue" points="996.41,-138.46 986.78,-142.86 997.05,-145.43 996.41,-138.46"/>
</g>
<!-- Node12&#45;&gt;Node7 -->
<g id="edge13" class="edge">
<title>Node12&#45;&gt;Node7</title>
<path fill="none" stroke="midnightblue" d="M708.45,-66.86C611.4,-50.05 510.48,-35.28 445.06,-26.07"/>
<polygon fill="midnightblue" stroke="midnightblue" points="707.98,-70.33 718.44,-68.6 709.19,-63.44 707.98,-70.33"/>
</g>
<!-- Node12&#45;&gt;Node13 -->
<g id="edge14" class="edge">
<title>Node12&#45;&gt;Node13</title>
<path fill="none" stroke="midnightblue" d="M798.31,-59.16C805.02,-49.68 812.63,-38.92 818.54,-30.58"/>
<polygon fill="midnightblue" stroke="midnightblue" points="795.4,-57.21 792.48,-67.4 801.12,-61.26 795.4,-57.21"/>
</g>
</g>
</svg>
