<?xml version="1.0" encoding="UTF-8" standalone="no"?>
<!DOCTYPE svg PUBLIC "-//W3C//DTD SVG 1.1//EN"
 "http://www.w3.org/Graphics/SVG/1.1/DTD/svg11.dtd">
<!-- Generated by graphviz version 2.49.3 (20211027.1534)
 -->
<!-- Title: RayLib_SHMUP/include/Shmup/Collision/ColliderSettings.h Pages: 1 -->
<svg width="867pt" height="374pt"
 viewBox="0.00 0.00 866.58 374.00" xmlns="http://www.w3.org/2000/svg" xmlns:xlink="http://www.w3.org/1999/xlink">
<g id="graph0" class="graph" transform="scale(1 1) rotate(0) translate(4 370)">
<title>RayLib_SHMUP/include/Shmup/Collision/ColliderSettings.h</title>
<polygon fill="white" stroke="transparent" points="-4,4 -4,-370 862.58,-370 862.58,4 -4,4"/>
<!-- Node1 -->
<g id="node1" class="node">
<title>Node1</title>
<g id="a_node1"><a xlink:title=" ">
<polygon fill="#bfbfbf" stroke="black" points="266.58,-335.5 266.58,-365.5 435.58,-365.5 435.58,-335.5 266.58,-335.5"/>
<text text-anchor="start" x="274.58" y="-353.5" font-family="Helvetica,sans-Serif" font-size="10.00">RayLib_SHMUP/include</text>
<text text-anchor="middle" x="351.08" y="-342.5" font-family="Helvetica,sans-Serif" font-size="10.00">/Shmup/Collision/ColliderSettings.h</text>
</a>
</g>
</g>
<!-- Node2 -->
<g id="node2" class="node">
<title>Node2</title>
<g id="a_node2"><a xlink:href="../../d5/d36/_collider_8h.html" target="_top" xlink:title=" ">
<polygon fill="white" stroke="black" points="205.58,-268.5 205.58,-298.5 338.58,-298.5 338.58,-268.5 205.58,-268.5"/>
<text text-anchor="start" x="213.58" y="-286.5" font-family="Helvetica,sans-Serif" font-size="10.00">RayLib_SHMUP/include</text>
<text text-anchor="middle" x="272.08" y="-275.5" font-family="Helvetica,sans-Serif" font-size="10.00">/Shmup/Collision/Collider.h</text>
</a>
</g>
</g>
<!-- Node1&#45;&gt;Node2 -->
<g id="edge1" class="edge">
<title>Node1&#45;&gt;Node2</title>
<path fill="none" stroke="midnightblue" d="M326.02,-328.88C314.01,-319.01 299.94,-307.43 289.18,-298.58"/>
<polygon fill="midnightblue" stroke="midnightblue" points="323.99,-331.75 333.93,-335.4 328.44,-326.34 323.99,-331.75"/>
</g>
<!-- Node14 -->
<g id="node14" class="node">
<title>Node14</title>
<g id="a_node14"><a xlink:href="../../dc/dcc/_collider_settings_8cpp.html" target="_top" xlink:title=" ">
<polygon fill="white" stroke="black" points="357.08,-268.5 357.08,-298.5 503.08,-298.5 503.08,-268.5 357.08,-268.5"/>
<text text-anchor="start" x="365.08" y="-286.5" font-family="Helvetica,sans-Serif" font-size="10.00">RayLib_SHMUP/src/Shmup</text>
<text text-anchor="middle" x="430.08" y="-275.5" font-family="Helvetica,sans-Serif" font-size="10.00">/Collision/ColliderSettings.cpp</text>
</a>
</g>
</g>
<!-- Node1&#45;&gt;Node14 -->
<g id="edge17" class="edge">
<title>Node1&#45;&gt;Node14</title>
<path fill="none" stroke="midnightblue" d="M376.13,-328.88C388.14,-319.01 402.21,-307.43 412.97,-298.58"/>
<polygon fill="midnightblue" stroke="midnightblue" points="373.72,-326.34 368.22,-335.4 378.16,-331.75 373.72,-326.34"/>
</g>
<!-- Node3 -->
<g id="node3" class="node">
<title>Node3</title>
<g id="a_node3"><a xlink:href="../../d3/d72/_a_collidable_8h.html" target="_top" xlink:title=" ">
<polygon fill="white" stroke="black" points="146.58,-201.5 146.58,-231.5 295.58,-231.5 295.58,-201.5 146.58,-201.5"/>
<text text-anchor="start" x="154.58" y="-219.5" font-family="Helvetica,sans-Serif" font-size="10.00">RayLib_SHMUP/include</text>
<text text-anchor="middle" x="221.08" y="-208.5" font-family="Helvetica,sans-Serif" font-size="10.00">/Shmup/Collision/ACollidable.h</text>
</a>
</g>
</g>
<!-- Node2&#45;&gt;Node3 -->
<g id="edge2" class="edge">
<title>Node2&#45;&gt;Node3</title>
<path fill="none" stroke="midnightblue" d="M254.77,-260.45C247.28,-250.9 238.73,-240 232.12,-231.58"/>
<polygon fill="midnightblue" stroke="midnightblue" points="252.08,-262.69 261.01,-268.4 257.59,-258.37 252.08,-262.69"/>
</g>
<!-- Node4 -->
<g id="node4" class="node">
<title>Node4</title>
<g id="a_node4"><a xlink:href="../../d4/d1e/_enemy_8h.html" target="_top" xlink:title=" ">
<polygon fill="white" stroke="black" points="29.08,-134.5 29.08,-164.5 159.08,-164.5 159.08,-134.5 29.08,-134.5"/>
<text text-anchor="start" x="37.08" y="-152.5" font-family="Helvetica,sans-Serif" font-size="10.00">RayLib_SHMUP/include</text>
<text text-anchor="middle" x="94.08" y="-141.5" font-family="Helvetica,sans-Serif" font-size="10.00">/Shmup/Movable/Enemy.h</text>
</a>
</g>
</g>
<!-- Node2&#45;&gt;Node4 -->
<g id="edge14" class="edge">
<title>Node2&#45;&gt;Node4</title>
<path fill="none" stroke="midnightblue" d="M198.1,-265.17C177,-257.58 155.12,-246.89 138.08,-232 117.01,-213.59 104.25,-182.56 98.24,-164.56"/>
<polygon fill="midnightblue" stroke="midnightblue" points="197.14,-268.54 207.73,-268.44 199.39,-261.91 197.14,-268.54"/>
</g>
<!-- Node7 -->
<g id="node7" class="node">
<title>Node7</title>
<g id="a_node7"><a xlink:href="../../de/d15/_shoot_8h.html" target="_top" xlink:title=" ">
<polygon fill="white" stroke="black" points="265.08,-134.5 265.08,-164.5 391.08,-164.5 391.08,-134.5 265.08,-134.5"/>
<text text-anchor="start" x="273.08" y="-152.5" font-family="Helvetica,sans-Serif" font-size="10.00">RayLib_SHMUP/include</text>
<text text-anchor="middle" x="328.08" y="-141.5" font-family="Helvetica,sans-Serif" font-size="10.00">/Shmup/Movable/Shoot.h</text>
</a>
</g>
</g>
<!-- Node2&#45;&gt;Node7 -->
<g id="edge15" class="edge">
<title>Node2&#45;&gt;Node7</title>
<path fill="none" stroke="midnightblue" d="M288.49,-259.6C293.98,-251.2 299.8,-241.44 304.08,-232 314.31,-209.43 321.45,-181.38 325.14,-164.77"/>
<polygon fill="midnightblue" stroke="midnightblue" points="285.45,-257.85 282.74,-268.09 291.24,-261.77 285.45,-257.85"/>
</g>
<!-- Node13 -->
<g id="node13" class="node">
<title>Node13</title>
<g id="a_node13"><a xlink:href="../../dd/d3e/_collider_8cpp.html" target="_top" xlink:title=" ">
<polygon fill="white" stroke="black" points="351.58,-201.5 351.58,-231.5 490.58,-231.5 490.58,-201.5 351.58,-201.5"/>
<text text-anchor="start" x="359.58" y="-219.5" font-family="Helvetica,sans-Serif" font-size="10.00">RayLib_SHMUP/src/Shmup</text>
<text text-anchor="middle" x="421.08" y="-208.5" font-family="Helvetica,sans-Serif" font-size="10.00">/Collision/Collider.cpp</text>
</a>
</g>
</g>
<!-- Node2&#45;&gt;Node13 -->
<g id="edge16" class="edge">
<title>Node2&#45;&gt;Node13</title>
<path fill="none" stroke="midnightblue" d="M313.87,-264.27C337.6,-253.92 366.86,-241.15 388.81,-231.58"/>
<polygon fill="midnightblue" stroke="midnightblue" points="312.17,-261.19 304.41,-268.4 314.97,-267.61 312.17,-261.19"/>
</g>
<!-- Node3&#45;&gt;Node4 -->
<g id="edge3" class="edge">
<title>Node3&#45;&gt;Node4</title>
<path fill="none" stroke="midnightblue" d="M184.37,-196.71C164.34,-186.46 139.96,-173.98 121.58,-164.58"/>
<polygon fill="midnightblue" stroke="midnightblue" points="183.02,-199.96 193.52,-201.4 186.21,-193.72 183.02,-199.96"/>
</g>
<!-- Node3&#45;&gt;Node7 -->
<g id="edge6" class="edge">
<title>Node3&#45;&gt;Node7</title>
<path fill="none" stroke="midnightblue" d="M253.15,-196.02C269.8,-185.9 289.77,-173.77 304.9,-164.58"/>
<polygon fill="midnightblue" stroke="midnightblue" points="251.02,-193.21 244.29,-201.4 254.66,-199.2 251.02,-193.21"/>
</g>
<!-- Node5 -->
<g id="node5" class="node">
<title>Node5</title>
<g id="a_node5"><a xlink:href="../../d2/d2e/_game_manager_8cpp.html" target="_top" xlink:title=" ">
<polygon fill="white" stroke="black" points="9.58,-0.5 9.58,-30.5 148.58,-30.5 148.58,-0.5 9.58,-0.5"/>
<text text-anchor="start" x="17.58" y="-18.5" font-family="Helvetica,sans-Serif" font-size="10.00">RayLib_SHMUP/src/Shmup</text>
<text text-anchor="middle" x="79.08" y="-7.5" font-family="Helvetica,sans-Serif" font-size="10.00">/GameManager.cpp</text>
</a>
</g>
</g>
<!-- Node4&#45;&gt;Node5 -->
<g id="edge4" class="edge">
<title>Node4&#45;&gt;Node5</title>
<path fill="none" stroke="midnightblue" d="M40.6,-129.82C26.58,-122.21 13.14,-111.85 5.08,-98 -1.86,-86.09 -1.36,-79.18 5.08,-67 13.65,-50.77 30.04,-38.77 45.22,-30.56"/>
<polygon fill="midnightblue" stroke="midnightblue" points="39.34,-133.1 49.85,-134.44 42.46,-126.84 39.34,-133.1"/>
</g>
<!-- Node6 -->
<g id="node6" class="node">
<title>Node6</title>
<g id="a_node6"><a xlink:href="../../de/d34/_enemy_8cpp.html" target="_top" xlink:title=" ">
<polygon fill="white" stroke="black" points="14.58,-67.5 14.58,-97.5 153.58,-97.5 153.58,-67.5 14.58,-67.5"/>
<text text-anchor="start" x="22.58" y="-85.5" font-family="Helvetica,sans-Serif" font-size="10.00">RayLib_SHMUP/src/Shmup</text>
<text text-anchor="middle" x="84.08" y="-74.5" font-family="Helvetica,sans-Serif" font-size="10.00">/Movable/Enemy.cpp</text>
</a>
</g>
</g>
<!-- Node4&#45;&gt;Node6 -->
<g id="edge5" class="edge">
<title>Node4&#45;&gt;Node6</title>
<path fill="none" stroke="midnightblue" d="M90.37,-124.4C88.98,-115.37 87.45,-105.41 86.24,-97.58"/>
<polygon fill="midnightblue" stroke="midnightblue" points="86.93,-125.04 91.91,-134.4 93.84,-123.98 86.93,-125.04"/>
</g>
<!-- Node8 -->
<g id="node8" class="node">
<title>Node8</title>
<g id="a_node8"><a xlink:href="../../d1/d39/_player_8h.html" target="_top" xlink:title=" ">
<polygon fill="white" stroke="black" points="172.08,-67.5 172.08,-97.5 300.08,-97.5 300.08,-67.5 172.08,-67.5"/>
<text text-anchor="start" x="180.08" y="-85.5" font-family="Helvetica,sans-Serif" font-size="10.00">RayLib_SHMUP/include</text>
<text text-anchor="middle" x="236.08" y="-74.5" font-family="Helvetica,sans-Serif" font-size="10.00">/Shmup/Movable/Player.h</text>
</a>
</g>
</g>
<!-- Node7&#45;&gt;Node8 -->
<g id="edge7" class="edge">
<title>Node7&#45;&gt;Node8</title>
<path fill="none" stroke="midnightblue" d="M299.7,-128.45C285.55,-118.45 268.77,-106.6 256,-97.58"/>
<polygon fill="midnightblue" stroke="midnightblue" points="297.93,-131.48 308.11,-134.4 301.97,-125.77 297.93,-131.48"/>
</g>
<!-- Node9 -->
<g id="node9" class="node">
<title>Node9</title>
<g id="a_node9"><a xlink:href="../../d2/d82/_player_8cpp.html" target="_top" xlink:title=" ">
<polygon fill="white" stroke="black" points="212.58,-0.5 212.58,-30.5 351.58,-30.5 351.58,-0.5 212.58,-0.5"/>
<text text-anchor="start" x="220.58" y="-18.5" font-family="Helvetica,sans-Serif" font-size="10.00">RayLib_SHMUP/src/Shmup</text>
<text text-anchor="middle" x="282.08" y="-7.5" font-family="Helvetica,sans-Serif" font-size="10.00">/Movable/Player.cpp</text>
</a>
</g>
</g>
<!-- Node7&#45;&gt;Node9 -->
<g id="edge10" class="edge">
<title>Node7&#45;&gt;Node9</title>
<path fill="none" stroke="midnightblue" d="M324.18,-124.41C321.09,-107.92 316.13,-85.74 309.08,-67 304.24,-54.16 296.77,-40.49 290.92,-30.61"/>
<polygon fill="midnightblue" stroke="midnightblue" points="320.74,-125.09 325.93,-134.33 327.64,-123.87 320.74,-125.09"/>
</g>
<!-- Node10 -->
<g id="node10" class="node">
<title>Node10</title>
<g id="a_node10"><a xlink:href="../../d6/dae/_shoot_8cpp.html" target="_top" xlink:title=" ">
<polygon fill="white" stroke="black" points="356.58,-67.5 356.58,-97.5 495.58,-97.5 495.58,-67.5 356.58,-67.5"/>
<text text-anchor="start" x="364.58" y="-85.5" font-family="Helvetica,sans-Serif" font-size="10.00">RayLib_SHMUP/src/Shmup</text>
<text text-anchor="middle" x="426.08" y="-74.5" font-family="Helvetica,sans-Serif" font-size="10.00">/Movable/Shoot.cpp</text>
</a>
</g>
</g>
<!-- Node7&#45;&gt;Node10 -->
<g id="edge11" class="edge">
<title>Node7&#45;&gt;Node10</title>
<path fill="none" stroke="midnightblue" d="M357.88,-128.73C373.04,-118.68 391.12,-106.68 404.85,-97.58"/>
<polygon fill="midnightblue" stroke="midnightblue" points="355.74,-125.95 349.34,-134.4 359.61,-131.79 355.74,-125.95"/>
</g>
<!-- Node11 -->
<g id="node11" class="node">
<title>Node11</title>
<g id="a_node11"><a xlink:href="../../dc/dac/_patern_linear_8cpp.html" target="_top" xlink:title=" ">
<polygon fill="white" stroke="black" points="514.08,-67.5 514.08,-97.5 672.08,-97.5 672.08,-67.5 514.08,-67.5"/>
<text text-anchor="start" x="522.08" y="-85.5" font-family="Helvetica,sans-Serif" font-size="10.00">RayLib_SHMUP/src/Shmup</text>
<text text-anchor="middle" x="593.08" y="-74.5" font-family="Helvetica,sans-Serif" font-size="10.00">/Paterns/Shoot/PaternLinear.cpp</text>
</a>
</g>
</g>
<!-- Node7&#45;&gt;Node11 -->
<g id="edge12" class="edge">
<title>Node7&#45;&gt;Node11</title>
<path fill="none" stroke="midnightblue" d="M395.13,-132.05C438.46,-121.43 494.25,-107.74 535.55,-97.61"/>
<polygon fill="midnightblue" stroke="midnightblue" points="394.13,-128.69 385.25,-134.48 395.8,-135.49 394.13,-128.69"/>
</g>
<!-- Node12 -->
<g id="node12" class="node">
<title>Node12</title>
<g id="a_node12"><a xlink:href="../../db/db4/_patern_v_spread_8cpp.html" target="_top" xlink:title=" ">
<polygon fill="white" stroke="black" points="689.58,-67.5 689.58,-97.5 858.58,-97.5 858.58,-67.5 689.58,-67.5"/>
<text text-anchor="start" x="697.58" y="-85.5" font-family="Helvetica,sans-Serif" font-size="10.00">RayLib_SHMUP/src/Shmup</text>
<text text-anchor="middle" x="774.08" y="-74.5" font-family="Helvetica,sans-Serif" font-size="10.00">/Paterns/Shoot/PaternVSpread.cpp</text>
</a>
</g>
</g>
<!-- Node7&#45;&gt;Node12 -->
<g id="edge13" class="edge">
<title>Node7&#45;&gt;Node12</title>
<path fill="none" stroke="midnightblue" d="M401.48,-138.27C472.91,-128.26 584.49,-112.44 681.08,-98 683.82,-97.59 686.62,-97.17 689.44,-96.74"/>
<polygon fill="midnightblue" stroke="midnightblue" points="400.66,-134.85 391.24,-139.71 401.63,-141.79 400.66,-134.85"/>
</g>
<!-- Node8&#45;&gt;Node5 -->
<g id="edge8" class="edge">
<title>Node8&#45;&gt;Node5</title>
<path fill="none" stroke="midnightblue" d="M192.71,-63.54C167.58,-53.14 136.41,-40.24 113.08,-30.58"/>
<polygon fill="midnightblue" stroke="midnightblue" points="191.43,-66.8 202.01,-67.4 194.11,-60.34 191.43,-66.8"/>
</g>
<!-- Node8&#45;&gt;Node9 -->
<g id="edge9" class="edge">
<title>Node8&#45;&gt;Node9</title>
<path fill="none" stroke="midnightblue" d="M251.89,-59.16C258.6,-49.68 266.21,-38.92 272.11,-30.58"/>
<polygon fill="midnightblue" stroke="midnightblue" points="248.98,-57.21 246.06,-67.4 254.69,-61.26 248.98,-57.21"/>
</g>
</g>
</svg>
