<?xml version="1.0" encoding="UTF-8" standalone="no"?>
<!DOCTYPE svg PUBLIC "-//W3C//DTD SVG 1.1//EN"
 "http://www.w3.org/Graphics/SVG/1.1/DTD/svg11.dtd">
<!-- Generated by graphviz version 2.49.3 (20211027.1534)
 -->
<!-- Title: RayLib_SHMUP/src/Shmup/Movable/Player.cpp Pages: 1 -->
<!--zoomable 397 -->
<svg id="main" version="1.1" xmlns="http://www.w3.org/2000/svg" xmlns:xlink="http://www.w3.org/1999/xlink" xml:space="preserve" onload="init(evt)">
<style type="text/css"><![CDATA[
.edge:hover path { stroke: red; }
.edge:hover polygon { stroke: red; fill: red; }
]]></style>
<script type="text/javascript"><![CDATA[
var edges = document.getElementsByTagName('g');
if (edges && edges.length) {
  for (var i=0;i<edges.length;i++) {
    if (edges[i].id.substr(0,4)=='edge') {
      edges[i].setAttribute('class','edge');
    }
  }
}
]]></script>
        <defs>
                <circle id="rim" cx="0" cy="0" r="7"/>
                <circle id="rim2" cx="0" cy="0" r="3.5"/>
                <g id="zoomPlus">
                        <use xlink:href="#rim" fill="#404040">
                                <set attributeName="fill" to="#808080" begin="zoomplus.mouseover" end="zoomplus.mouseout"/>
                        </use>
                        <path d="M-4,0h8M0,-4v8" fill="none" stroke="white" stroke-width="1.5" pointer-events="none"/>
                </g>
                <g id="zoomMin">
                        <use xlink:href="#rim" fill="#404040">
                                <set attributeName="fill" to="#808080" begin="zoomminus.mouseover" end="zoomminus.mouseout"/>
                        </use>
                        <path d="M-4,0h8" fill="none" stroke="white" stroke-width="1.5" pointer-events="none"/>
                </g>
                <g id="dirArrow">
                        <path fill="none" stroke="white" stroke-width="1.5" d="M0,-3.0v7 M-2.5,-0.5L0,-3.0L2.5,-0.5"/>
                </g>
               <g id="resetDef">
                       <use xlink:href="#rim2" fill="#404040">
                               <set attributeName="fill" to="#808080" begin="reset.mouseover" end="reset.mouseout"/>
                       </use>
               </g>
        </defs>

<script type="text/javascript">
var viewWidth = 1125;
var viewHeight = 397;
var sectionId = 'dynsection-0';
</script>
<script xlink:href="../../svgpan.js"/>
<svg id="graph" class="graph">
<g id="viewport">
<title>RayLib_SHMUP/src/Shmup/Movable/Player.cpp</title>
<polygon fill="white" stroke="transparent" points="-4,4 -4,-393 1121,-393 1121,4 -4,4"/>
<!-- Node1 -->
<g id="node1" class="node">
<title>Node1</title>
<g id="a_node1"><a xlink:title=" ">
<polygon fill="#bfbfbf" stroke="black" points="636.5,-358.5 636.5,-388.5 775.5,-388.5 775.5,-358.5 636.5,-358.5"/>
<text text-anchor="start" x="644.5" y="-376.5" font-family="Helvetica,sans-Serif" font-size="10.00">RayLib_SHMUP/src/Shmup</text>
<text text-anchor="middle" x="706" y="-365.5" font-family="Helvetica,sans-Serif" font-size="10.00">/Movable/Player.cpp</text>
</a>
</g>
</g>
<!-- Node2 -->
<g id="node2" class="node">
<title>Node2</title>
<g id="a_node2"><a xlink:title=" ">
<polygon fill="white" stroke="#bfbfbf" points="19,-0.5 19,-19.5 73,-19.5 73,-0.5 19,-0.5"/>
<text text-anchor="middle" x="46" y="-7.5" font-family="Helvetica,sans-Serif" font-size="10.00">iostream</text>
</a>
</g>
</g>
<!-- Node1&#45;&gt;Node2 -->
<g id="edge1" class="edge">
<title>Node1&#45;&gt;Node2</title>
<path fill="none" stroke="midnightblue" d="M636.37,-367.83C458.26,-354.96 0,-315.62 0,-251.5 0,-251.5 0,-251.5 0,-132 0,-97.18 5.68,-88.17 19,-56 23.01,-46.32 28.87,-36.26 34.1,-28.11"/>
<polygon fill="midnightblue" stroke="midnightblue" points="37.17,-29.82 39.81,-19.56 31.35,-25.93 37.17,-29.82"/>
</g>
<!-- Node3 -->
<g id="node3" class="node">
<title>Node3</title>
<g id="a_node3"><a xlink:title=" ">
<polygon fill="white" stroke="#bfbfbf" points="909.5,-302.5 909.5,-321.5 958.5,-321.5 958.5,-302.5 909.5,-302.5"/>
<text text-anchor="middle" x="934" y="-309.5" font-family="Helvetica,sans-Serif" font-size="10.00">cassert</text>
</a>
</g>
</g>
<!-- Node1&#45;&gt;Node3 -->
<g id="edge2" class="edge">
<title>Node1&#45;&gt;Node3</title>
<path fill="none" stroke="midnightblue" d="M759.74,-358.47C802.95,-347.2 862.35,-331.7 899.44,-322.02"/>
<polygon fill="midnightblue" stroke="midnightblue" points="900.49,-325.36 909.28,-319.45 898.72,-318.59 900.49,-325.36"/>
</g>
<!-- Node4 -->
<g id="node4" class="node">
<title>Node4</title>
<g id="a_node4"><a xlink:title=" ">
<polygon fill="white" stroke="#bfbfbf" points="530.5,-0.5 530.5,-19.5 577.5,-19.5 577.5,-0.5 530.5,-0.5"/>
<text text-anchor="middle" x="554" y="-7.5" font-family="Helvetica,sans-Serif" font-size="10.00">raylib.h</text>
</a>
</g>
</g>
<!-- Node1&#45;&gt;Node4 -->
<g id="edge3" class="edge">
<title>Node1&#45;&gt;Node4</title>
<path fill="none" stroke="midnightblue" d="M772.83,-358.4C797,-350.74 823.19,-339.2 843,-322 869.88,-298.67 881,-287.1 881,-251.5 881,-251.5 881,-251.5 881,-132 881,-69.89 670.86,-29.6 587.49,-16.06"/>
<polygon fill="midnightblue" stroke="midnightblue" points="587.94,-12.59 577.52,-14.47 586.84,-19.5 587.94,-12.59"/>
</g>
<!-- Node5 -->
<g id="node5" class="node">
<title>Node5</title>
<g id="a_node5"><a xlink:title=" ">
<polygon fill="white" stroke="#bfbfbf" points="664.5,-241 664.5,-260 723.5,-260 723.5,-241 664.5,-241"/>
<text text-anchor="middle" x="694" y="-248" font-family="Helvetica,sans-Serif" font-size="10.00">raymath.h</text>
</a>
</g>
</g>
<!-- Node1&#45;&gt;Node5 -->
<g id="edge4" class="edge">
<title>Node1&#45;&gt;Node5</title>
<path fill="none" stroke="midnightblue" d="M696.3,-358.21C690.3,-348.47 683.16,-335.03 680,-322 675.74,-304.41 680.8,-284.12 685.99,-269.84"/>
<polygon fill="midnightblue" stroke="midnightblue" points="689.36,-270.82 689.83,-260.23 682.86,-268.22 689.36,-270.82"/>
</g>
<!-- Node6 -->
<g id="node6" class="node">
<title>Node6</title>
<g id="a_node6"><a xlink:href="../../d1/d39/_player_8h.html" target="_top" xlink:title=" ">
<polygon fill="white" stroke="black" points="360.5,-302.5 360.5,-321.5 485.5,-321.5 485.5,-302.5 360.5,-302.5"/>
<text text-anchor="middle" x="423" y="-309.5" font-family="Helvetica,sans-Serif" font-size="10.00">Shmup/Movable/Player.h</text>
</a>
</g>
</g>
<!-- Node1&#45;&gt;Node6 -->
<g id="edge5" class="edge">
<title>Node1&#45;&gt;Node6</title>
<path fill="none" stroke="midnightblue" d="M639.29,-358.47C588.44,-347.78 519.51,-333.29 473.26,-323.57"/>
<polygon fill="midnightblue" stroke="midnightblue" points="473.97,-320.14 463.46,-321.51 472.52,-326.99 473.97,-320.14"/>
</g>
<!-- Node7 -->
<g id="node7" class="node">
<title>Node7</title>
<g id="a_node7"><a xlink:href="../../de/d15/_shoot_8h.html" target="_top" xlink:title=" ">
<polygon fill="white" stroke="black" points="222.5,-241 222.5,-260 345.5,-260 345.5,-241 222.5,-241"/>
<text text-anchor="middle" x="284" y="-248" font-family="Helvetica,sans-Serif" font-size="10.00">Shmup/Movable/Shoot.h</text>
</a>
</g>
</g>
<!-- Node1&#45;&gt;Node7 -->
<g id="edge30" class="edge">
<title>Node1&#45;&gt;Node7</title>
<path fill="none" stroke="midnightblue" d="M636.41,-368.03C547.53,-361.4 399.41,-346.96 351,-322 326.94,-309.59 306.74,-285.08 295,-268.49"/>
<polygon fill="midnightblue" stroke="midnightblue" points="297.89,-266.51 289.38,-260.21 292.1,-270.45 297.89,-266.51"/>
</g>
<!-- Node19 -->
<g id="node19" class="node">
<title>Node19</title>
<g id="a_node19"><a xlink:href="../../d2/da5/_math_utils_8h.html" target="_top" xlink:title=" ">
<polygon fill="white" stroke="black" points="505.5,-302.5 505.5,-321.5 632.5,-321.5 632.5,-302.5 505.5,-302.5"/>
<text text-anchor="middle" x="569" y="-309.5" font-family="Helvetica,sans-Serif" font-size="10.00">Namespaces/MathUtils.h</text>
</a>
</g>
</g>
<!-- Node1&#45;&gt;Node19 -->
<g id="edge31" class="edge">
<title>Node1&#45;&gt;Node19</title>
<path fill="none" stroke="midnightblue" d="M673.53,-358.4C650.65,-348.46 620.27,-335.26 598.16,-325.66"/>
<polygon fill="midnightblue" stroke="midnightblue" points="599.5,-322.43 588.93,-321.66 596.71,-328.85 599.5,-322.43"/>
</g>
<!-- Node20 -->
<g id="node20" class="node">
<title>Node20</title>
<g id="a_node20"><a xlink:href="../../d2/d94/_controller_8h.html" target="_top" xlink:title=" ">
<polygon fill="white" stroke="black" points="689,-302.5 689,-321.5 815,-321.5 815,-302.5 689,-302.5"/>
<text text-anchor="middle" x="752" y="-309.5" font-family="Helvetica,sans-Serif" font-size="10.00">Namespaces/Controller.h</text>
</a>
</g>
</g>
<!-- Node1&#45;&gt;Node20 -->
<g id="edge34" class="edge">
<title>Node1&#45;&gt;Node20</title>
<path fill="none" stroke="midnightblue" d="M716.9,-358.4C723.59,-349.75 732.18,-338.64 739.18,-329.58"/>
<polygon fill="midnightblue" stroke="midnightblue" points="741.96,-331.71 745.31,-321.66 736.42,-327.43 741.96,-331.71"/>
</g>
<!-- Node21 -->
<g id="node21" class="node">
<title>Node21</title>
<g id="a_node21"><a xlink:href="../../d5/daf/_game_status_8h.html" target="_top" xlink:title=" ">
<polygon fill="white" stroke="black" points="977,-302.5 977,-321.5 1117,-321.5 1117,-302.5 977,-302.5"/>
<text text-anchor="middle" x="1047" y="-309.5" font-family="Helvetica,sans-Serif" font-size="10.00">Namespaces/GameStatus.h</text>
</a>
</g>
</g>
<!-- Node1&#45;&gt;Node21 -->
<g id="edge37" class="edge">
<title>Node1&#45;&gt;Node21</title>
<path fill="none" stroke="midnightblue" d="M775.83,-360.32C838.46,-349.39 929.31,-333.53 988.28,-323.25"/>
<polygon fill="midnightblue" stroke="midnightblue" points="988.93,-326.68 998.18,-321.52 987.73,-319.79 988.93,-326.68"/>
</g>
<!-- Node22 -->
<g id="node22" class="node">
<title>Node22</title>
<g id="a_node22"><a xlink:href="../../dc/da7/_files_8h.html" target="_top" xlink:title=" ">
<polygon fill="white" stroke="black" points="747,-123.5 747,-142.5 853,-142.5 853,-123.5 747,-123.5"/>
<text text-anchor="middle" x="800" y="-130.5" font-family="Helvetica,sans-Serif" font-size="10.00">Namespaces/Files.h</text>
</a>
</g>
</g>
<!-- Node1&#45;&gt;Node22 -->
<g id="edge38" class="edge">
<title>Node1&#45;&gt;Node22</title>
<path fill="none" stroke="midnightblue" d="M774.1,-358.43C793.49,-350.94 812.46,-339.48 824,-322 859.29,-268.51 826.99,-187.58 809.52,-151.94"/>
<polygon fill="midnightblue" stroke="midnightblue" points="812.51,-150.1 804.86,-142.77 806.27,-153.27 812.51,-150.1"/>
</g>
<!-- Node6&#45;&gt;Node7 -->
<g id="edge6" class="edge">
<title>Node6&#45;&gt;Node7</title>
<path fill="none" stroke="midnightblue" d="M403.08,-302.48C379.55,-292.4 340.19,-275.55 313.21,-264"/>
<polygon fill="midnightblue" stroke="midnightblue" points="314.45,-260.73 303.88,-260.01 311.69,-267.16 314.45,-260.73"/>
</g>
<!-- Node17 -->
<g id="node17" class="node">
<title>Node17</title>
<g id="a_node17"><a xlink:href="../../df/db3/_patern_v_spread_8h.html" target="_top" xlink:title=" ">
<polygon fill="white" stroke="black" points="363.5,-235.5 363.5,-265.5 476.5,-265.5 476.5,-235.5 363.5,-235.5"/>
<text text-anchor="start" x="371.5" y="-253.5" font-family="Helvetica,sans-Serif" font-size="10.00">Shmup/Paterns/Shoot</text>
<text text-anchor="middle" x="420" y="-242.5" font-family="Helvetica,sans-Serif" font-size="10.00">/PaternVSpread.h</text>
</a>
</g>
</g>
<!-- Node6&#45;&gt;Node17 -->
<g id="edge26" class="edge">
<title>Node6&#45;&gt;Node17</title>
<path fill="none" stroke="midnightblue" d="M422.57,-302.48C422.22,-295.47 421.7,-285.19 421.22,-275.7"/>
<polygon fill="midnightblue" stroke="midnightblue" points="424.71,-275.33 420.71,-265.52 417.72,-275.69 424.71,-275.33"/>
</g>
<!-- Node18 -->
<g id="node18" class="node">
<title>Node18</title>
<g id="a_node18"><a xlink:href="../../d3/dff/_patern_linear_8h.html" target="_top" xlink:title=" ">
<polygon fill="white" stroke="black" points="494.5,-235.5 494.5,-265.5 607.5,-265.5 607.5,-235.5 494.5,-235.5"/>
<text text-anchor="start" x="502.5" y="-253.5" font-family="Helvetica,sans-Serif" font-size="10.00">Shmup/Paterns/Shoot</text>
<text text-anchor="middle" x="551" y="-242.5" font-family="Helvetica,sans-Serif" font-size="10.00">/PaternLinear.h</text>
</a>
</g>
</g>
<!-- Node6&#45;&gt;Node18 -->
<g id="edge28" class="edge">
<title>Node6&#45;&gt;Node18</title>
<path fill="none" stroke="midnightblue" d="M441.34,-302.48C459.57,-294 488.1,-280.74 511.5,-269.86"/>
<polygon fill="midnightblue" stroke="midnightblue" points="513.24,-272.91 520.83,-265.52 510.29,-266.56 513.24,-272.91"/>
</g>
<!-- Node7&#45;&gt;Node4 -->
<g id="edge7" class="edge">
<title>Node7&#45;&gt;Node4</title>
<path fill="none" stroke="midnightblue" d="M326.6,-240.95C357.23,-233.39 398.52,-220.19 430,-199 484.87,-162.06 494.89,-144.26 528,-87 538.55,-68.76 545.7,-45.57 549.8,-29.63"/>
<polygon fill="midnightblue" stroke="midnightblue" points="553.2,-30.44 552.14,-19.9 546.39,-28.8 553.2,-30.44"/>
</g>
<!-- Node8 -->
<g id="node8" class="node">
<title>Node8</title>
<g id="a_node8"><a xlink:href="../../db/d1b/_a_movable_8h.html" target="_top" xlink:title=" ">
<polygon fill="white" stroke="black" points="320.5,-179.5 320.5,-198.5 421.5,-198.5 421.5,-179.5 320.5,-179.5"/>
<text text-anchor="middle" x="371" y="-186.5" font-family="Helvetica,sans-Serif" font-size="10.00">Shmup/AMovable.h</text>
</a>
</g>
</g>
<!-- Node7&#45;&gt;Node8 -->
<g id="edge8" class="edge">
<title>Node7&#45;&gt;Node8</title>
<path fill="none" stroke="midnightblue" d="M296.46,-240.98C310.42,-231.43 333.26,-215.81 349.99,-204.37"/>
<polygon fill="midnightblue" stroke="midnightblue" points="352.28,-207.04 358.56,-198.51 348.33,-201.27 352.28,-207.04"/>
</g>
<!-- Node13 -->
<g id="node13" class="node">
<title>Node13</title>
<g id="a_node13"><a xlink:href="../../df/d50/_a_patern_8h.html" target="_top" xlink:title=" ">
<polygon fill="white" stroke="black" points="478,-179.5 478,-198.5 608,-198.5 608,-179.5 478,-179.5"/>
<text text-anchor="middle" x="543" y="-186.5" font-family="Helvetica,sans-Serif" font-size="10.00">Shmup/Paterns/APatern.h</text>
</a>
</g>
</g>
<!-- Node7&#45;&gt;Node13 -->
<g id="edge17" class="edge">
<title>Node7&#45;&gt;Node13</title>
<path fill="none" stroke="midnightblue" d="M321.11,-240.98C367.17,-230.39 445.77,-212.34 496,-200.8"/>
<polygon fill="midnightblue" stroke="midnightblue" points="497,-204.16 505.96,-198.51 495.43,-197.34 497,-204.16"/>
</g>
<!-- Node14 -->
<g id="node14" class="node">
<title>Node14</title>
<g id="a_node14"><a xlink:href="../../d5/d36/_collider_8h.html" target="_top" xlink:title=" ">
<polygon fill="white" stroke="black" points="198,-123.5 198,-142.5 328,-142.5 328,-123.5 198,-123.5"/>
<text text-anchor="middle" x="263" y="-130.5" font-family="Helvetica,sans-Serif" font-size="10.00">Shmup/Collision/Collider.h</text>
</a>
</g>
</g>
<!-- Node7&#45;&gt;Node14 -->
<g id="edge18" class="edge">
<title>Node7&#45;&gt;Node14</title>
<path fill="none" stroke="midnightblue" d="M282.42,-240.82C279.03,-222.17 270.99,-177.94 266.39,-152.63"/>
<polygon fill="midnightblue" stroke="midnightblue" points="269.83,-151.99 264.6,-142.78 262.94,-153.25 269.83,-151.99"/>
</g>
<!-- Node16 -->
<g id="node16" class="node">
<title>Node16</title>
<g id="a_node16"><a xlink:href="../../d3/d72/_a_collidable_8h.html" target="_top" xlink:title=" ">
<polygon fill="white" stroke="black" points="110,-179.5 110,-198.5 256,-198.5 256,-179.5 110,-179.5"/>
<text text-anchor="middle" x="183" y="-186.5" font-family="Helvetica,sans-Serif" font-size="10.00">Shmup/Collision/ACollidable.h</text>
</a>
</g>
</g>
<!-- Node7&#45;&gt;Node16 -->
<g id="edge23" class="edge">
<title>Node7&#45;&gt;Node16</title>
<path fill="none" stroke="midnightblue" d="M269.53,-240.98C253.03,-231.25 225.82,-215.23 206.32,-203.74"/>
<polygon fill="midnightblue" stroke="midnightblue" points="207.84,-200.57 197.44,-198.51 204.28,-206.6 207.84,-200.57"/>
</g>
<!-- Node8&#45;&gt;Node4 -->
<g id="edge9" class="edge">
<title>Node8&#45;&gt;Node4</title>
<path fill="none" stroke="midnightblue" d="M389.97,-179.36C406.37,-171.35 430.17,-158.37 448,-143 488.84,-107.79 525.59,-55.25 543.13,-28.31"/>
<polygon fill="midnightblue" stroke="midnightblue" points="546.25,-29.92 548.7,-19.62 540.36,-26.15 546.25,-29.92"/>
</g>
<!-- Node9 -->
<g id="node9" class="node">
<title>Node9</title>
<g id="a_node9"><a xlink:href="../../d7/daf/_a_graphic_object_8h.html" target="_top" xlink:title=" ">
<polygon fill="white" stroke="black" points="346.5,-123.5 346.5,-142.5 439.5,-142.5 439.5,-123.5 346.5,-123.5"/>
<text text-anchor="middle" x="393" y="-130.5" font-family="Helvetica,sans-Serif" font-size="10.00">AGraphicObject.h</text>
</a>
</g>
</g>
<!-- Node8&#45;&gt;Node9 -->
<g id="edge10" class="edge">
<title>Node8&#45;&gt;Node9</title>
<path fill="none" stroke="midnightblue" d="M374.63,-179.08C377.61,-171.77 381.93,-161.18 385.62,-152.1"/>
<polygon fill="midnightblue" stroke="midnightblue" points="388.9,-153.33 389.43,-142.75 382.42,-150.69 388.9,-153.33"/>
</g>
<!-- Node9&#45;&gt;Node4 -->
<g id="edge11" class="edge">
<title>Node9&#45;&gt;Node4</title>
<path fill="none" stroke="midnightblue" d="M406.36,-123.33C419.84,-114.47 441.16,-100.19 459,-87 486.4,-66.75 516.98,-41.85 535.86,-26.19"/>
<polygon fill="midnightblue" stroke="midnightblue" points="538.22,-28.79 543.66,-19.7 533.74,-23.41 538.22,-28.79"/>
</g>
<!-- Node10 -->
<g id="node10" class="node">
<title>Node10</title>
<g id="a_node10"><a xlink:href="../../dc/d80/_instance_list_8h.html" target="_top" xlink:title=" ">
<polygon fill="white" stroke="black" points="28,-62 28,-81 140,-81 140,-62 28,-62"/>
<text text-anchor="middle" x="84" y="-69" font-family="Helvetica,sans-Serif" font-size="10.00">Shmup/InstanceList.h</text>
</a>
</g>
</g>
<!-- Node9&#45;&gt;Node10 -->
<g id="edge12" class="edge">
<title>Node9&#45;&gt;Node10</title>
<path fill="none" stroke="midnightblue" d="M346.12,-123.89C296.93,-115.25 217.38,-100.93 149,-87 143.19,-85.82 137.11,-84.53 131.09,-83.22"/>
<polygon fill="midnightblue" stroke="midnightblue" points="131.59,-79.75 121.07,-81.02 130.09,-86.58 131.59,-79.75"/>
</g>
<!-- Node12 -->
<g id="node12" class="node">
<title>Node12</title>
<g id="a_node12"><a xlink:href="../../da/d02/_transform2_d_8h.html" target="_top" xlink:title=" ">
<polygon fill="white" stroke="black" points="336,-62 336,-81 450,-81 450,-62 336,-62"/>
<text text-anchor="middle" x="393" y="-69" font-family="Helvetica,sans-Serif" font-size="10.00">Shmup/Transform2D.h</text>
</a>
</g>
</g>
<!-- Node9&#45;&gt;Node12 -->
<g id="edge15" class="edge">
<title>Node9&#45;&gt;Node12</title>
<path fill="none" stroke="midnightblue" d="M393,-123.48C393,-115.08 393,-101.98 393,-91.16"/>
<polygon fill="midnightblue" stroke="midnightblue" points="396.5,-91.01 393,-81.01 389.5,-91.01 396.5,-91.01"/>
</g>
<!-- Node10&#45;&gt;Node2 -->
<g id="edge13" class="edge">
<title>Node10&#45;&gt;Node2</title>
<path fill="none" stroke="midnightblue" d="M78.56,-61.98C72.91,-53.14 63.94,-39.09 56.84,-27.98"/>
<polygon fill="midnightblue" stroke="midnightblue" points="59.77,-26.05 51.43,-19.51 53.87,-29.82 59.77,-26.05"/>
</g>
<!-- Node11 -->
<g id="node11" class="node">
<title>Node11</title>
<g id="a_node11"><a xlink:title=" ">
<polygon fill="white" stroke="#bfbfbf" points="99,-0.5 99,-19.5 143,-19.5 143,-0.5 99,-0.5"/>
<text text-anchor="middle" x="121" y="-7.5" font-family="Helvetica,sans-Serif" font-size="10.00">vector</text>
</a>
</g>
</g>
<!-- Node10&#45;&gt;Node11 -->
<g id="edge14" class="edge">
<title>Node10&#45;&gt;Node11</title>
<path fill="none" stroke="midnightblue" d="M89.3,-61.98C94.74,-53.23 103.36,-39.37 110.24,-28.31"/>
<polygon fill="midnightblue" stroke="midnightblue" points="113.4,-29.85 115.71,-19.51 107.46,-26.15 113.4,-29.85"/>
</g>
<!-- Node12&#45;&gt;Node4 -->
<g id="edge16" class="edge">
<title>Node12&#45;&gt;Node4</title>
<path fill="none" stroke="midnightblue" d="M416.07,-61.98C443.68,-51.77 490.12,-34.61 521.4,-23.05"/>
<polygon fill="midnightblue" stroke="midnightblue" points="522.81,-26.26 530.98,-19.51 520.38,-19.69 522.81,-26.26"/>
</g>
<!-- Node14&#45;&gt;Node4 -->
<g id="edge19" class="edge">
<title>Node14&#45;&gt;Node4</title>
<path fill="none" stroke="midnightblue" d="M267.65,-123.28C276.74,-107.17 298.48,-72.84 327,-56 388.31,-19.81 473.5,-12.16 520.14,-10.88"/>
<polygon fill="midnightblue" stroke="midnightblue" points="520.38,-14.37 530.31,-10.68 520.24,-7.38 520.38,-14.37"/>
</g>
<!-- Node14&#45;&gt;Node12 -->
<g id="edge20" class="edge">
<title>Node14&#45;&gt;Node12</title>
<path fill="none" stroke="midnightblue" d="M281.63,-123.48C303.44,-113.49 339.8,-96.85 365.02,-85.31"/>
<polygon fill="midnightblue" stroke="midnightblue" points="366.77,-88.35 374.41,-81.01 363.86,-81.99 366.77,-88.35"/>
</g>
<!-- Node15 -->
<g id="node15" class="node">
<title>Node15</title>
<g id="a_node15"><a xlink:href="../../de/d60/_collider_settings_8h.html" target="_top" xlink:title=" ">
<polygon fill="white" stroke="black" points="158,-56.5 158,-86.5 280,-86.5 280,-56.5 158,-56.5"/>
<text text-anchor="start" x="166" y="-74.5" font-family="Helvetica,sans-Serif" font-size="10.00">Shmup/Collision/Collider</text>
<text text-anchor="middle" x="219" y="-63.5" font-family="Helvetica,sans-Serif" font-size="10.00">Settings.h</text>
</a>
</g>
</g>
<!-- Node14&#45;&gt;Node15 -->
<g id="edge21" class="edge">
<title>Node14&#45;&gt;Node15</title>
<path fill="none" stroke="midnightblue" d="M256.7,-123.48C251.13,-115.94 242.76,-104.63 235.32,-94.57"/>
<polygon fill="midnightblue" stroke="midnightblue" points="238.13,-92.48 229.37,-86.52 232.5,-96.64 238.13,-92.48"/>
</g>
<!-- Node15&#45;&gt;Node11 -->
<g id="edge22" class="edge">
<title>Node15&#45;&gt;Node11</title>
<path fill="none" stroke="midnightblue" d="M195.78,-56.4C180.21,-46.95 159.8,-34.56 144.24,-25.11"/>
<polygon fill="midnightblue" stroke="midnightblue" points="145.62,-21.86 135.26,-19.66 141.99,-27.84 145.62,-21.86"/>
</g>
<!-- Node16&#45;&gt;Node10 -->
<g id="edge25" class="edge">
<title>Node16&#45;&gt;Node10</title>
<path fill="none" stroke="midnightblue" d="M175.56,-179.32C159.15,-160.17 119.61,-114.04 98.25,-89.13"/>
<polygon fill="midnightblue" stroke="midnightblue" points="100.69,-86.6 91.53,-81.28 95.38,-91.15 100.69,-86.6"/>
</g>
<!-- Node16&#45;&gt;Node14 -->
<g id="edge24" class="edge">
<title>Node16&#45;&gt;Node14</title>
<path fill="none" stroke="midnightblue" d="M195.85,-179.32C208.22,-170.98 227.13,-158.21 241.74,-148.35"/>
<polygon fill="midnightblue" stroke="midnightblue" points="243.85,-151.15 250.18,-142.65 239.93,-145.35 243.85,-151.15"/>
</g>
<!-- Node17&#45;&gt;Node13 -->
<g id="edge27" class="edge">
<title>Node17&#45;&gt;Node13</title>
<path fill="none" stroke="midnightblue" d="M449.15,-235.4C469.42,-225.59 496.24,-212.62 516.02,-203.05"/>
<polygon fill="midnightblue" stroke="midnightblue" points="517.62,-206.16 525.1,-198.66 514.58,-199.86 517.62,-206.16"/>
</g>
<!-- Node18&#45;&gt;Node13 -->
<g id="edge29" class="edge">
<title>Node18&#45;&gt;Node13</title>
<path fill="none" stroke="midnightblue" d="M549.1,-235.4C548.03,-227.38 546.66,-217.23 545.5,-208.57"/>
<polygon fill="midnightblue" stroke="midnightblue" points="548.97,-208.1 544.16,-198.66 542.03,-209.04 548.97,-208.1"/>
</g>
<!-- Node19&#45;&gt;Node4 -->
<g id="edge32" class="edge">
<title>Node19&#45;&gt;Node4</title>
<path fill="none" stroke="midnightblue" d="M581.23,-302.4C591.96,-294.23 607.17,-280.99 616,-266 633.72,-235.9 636,-224.93 636,-190 636,-190 636,-190 636,-132 636,-87.51 597.54,-47.2 573.3,-26.22"/>
<polygon fill="midnightblue" stroke="midnightblue" points="575.32,-23.35 565.4,-19.63 570.83,-28.72 575.32,-23.35"/>
</g>
<!-- Node19&#45;&gt;Node5 -->
<g id="edge33" class="edge">
<title>Node19&#45;&gt;Node5</title>
<path fill="none" stroke="midnightblue" d="M586.91,-302.48C607.89,-292.49 642.85,-275.85 667.09,-264.31"/>
<polygon fill="midnightblue" stroke="midnightblue" points="668.6,-267.47 676.12,-260.01 665.59,-261.15 668.6,-267.47"/>
</g>
<!-- Node20&#45;&gt;Node4 -->
<g id="edge35" class="edge">
<title>Node20&#45;&gt;Node4</title>
<path fill="none" stroke="midnightblue" d="M750.51,-302.32C747.86,-287.95 741.69,-258.45 732,-235 696.86,-149.96 692.41,-121.71 628,-56 615.14,-42.88 597.69,-32.03 582.96,-24.27"/>
<polygon fill="midnightblue" stroke="midnightblue" points="584.26,-21 573.76,-19.63 581.11,-27.26 584.26,-21"/>
</g>
<!-- Node20&#45;&gt;Node5 -->
<g id="edge36" class="edge">
<title>Node20&#45;&gt;Node5</title>
<path fill="none" stroke="midnightblue" d="M743.69,-302.48C734.82,-293.37 720.55,-278.74 709.58,-267.48"/>
<polygon fill="midnightblue" stroke="midnightblue" points="711.78,-264.73 702.29,-260.01 706.77,-269.61 711.78,-264.73"/>
</g>
<!-- Node22&#45;&gt;Node4 -->
<g id="edge39" class="edge">
<title>Node22&#45;&gt;Node4</title>
<path fill="none" stroke="midnightblue" d="M794.94,-123.42C785.11,-107.54 761.84,-73.57 733,-56 687.48,-28.26 625.53,-17.57 587.73,-13.49"/>
<polygon fill="midnightblue" stroke="midnightblue" points="588.04,-10 577.74,-12.5 587.35,-16.96 588.04,-10"/>
</g>
</g>
</svg>
        <g id="navigator" transform="translate(0 0)" fill="#404254">
                <rect fill="#f2f5e9" fill-opacity="0.5" stroke="#606060" stroke-width=".5" x="0" y="0" width="60" height="60"/>
                <use id="zoomplus" xlink:href="#zoomPlus" x="17" y="9" onmousedown="handleZoom(evt,'in')"/>
                <use id="zoomminus" xlink:href="#zoomMin" x="42" y="9" onmousedown="handleZoom(evt,'out')"/>
                <use id="reset" xlink:href="#resetDef" x="30" y="36" onmousedown="handleReset()"/>
                <g id="arrowUp" xlink:href="#dirArrow" transform="translate(30 24)" onmousedown="handlePan(0,-1)">
                  <use xlink:href="#rim" fill="#404040">
                        <set attributeName="fill" to="#808080" begin="arrowUp.mouseover" end="arrowUp.mouseout"/>
                  </use>
                  <path fill="none" stroke="white" stroke-width="1.5" d="M0,-3.0v7 M-2.5,-0.5L0,-3.0L2.5,-0.5"/>
                </g>
                <g id="arrowRight" xlink:href="#dirArrow" transform="rotate(90) translate(36 -43)" onmousedown="handlePan(1,0)">
                  <use xlink:href="#rim" fill="#404040">
                        <set attributeName="fill" to="#808080" begin="arrowRight.mouseover" end="arrowRight.mouseout"/>
                  </use>
                  <path fill="none" stroke="white" stroke-width="1.5" d="M0,-3.0v7 M-2.5,-0.5L0,-3.0L2.5,-0.5"/>
                </g>
                <g id="arrowDown" xlink:href="#dirArrow" transform="rotate(180) translate(-30 -48)" onmousedown="handlePan(0,1)">
                  <use xlink:href="#rim" fill="#404040">
                        <set attributeName="fill" to="#808080" begin="arrowDown.mouseover" end="arrowDown.mouseout"/>
                  </use>
                  <path fill="none" stroke="white" stroke-width="1.5" d="M0,-3.0v7 M-2.5,-0.5L0,-3.0L2.5,-0.5"/>
                </g>
                <g id="arrowLeft" xlink:href="#dirArrow" transform="rotate(270) translate(-36 17)" onmousedown="handlePan(-1,0)">
                  <use xlink:href="#rim" fill="#404040">
                        <set attributeName="fill" to="#808080" begin="arrowLeft.mouseover" end="arrowLeft.mouseout"/>
                  </use>
                  <path fill="none" stroke="white" stroke-width="1.5" d="M0,-3.0v7 M-2.5,-0.5L0,-3.0L2.5,-0.5"/>
                </g>
        </g>
        <svg viewBox="0 0 15 15" width="100%" height="30px" preserveAspectRatio="xMaxYMin meet">
         <g id="arrow_out" transform="scale(0.3 0.3)">
          <a xlink:href="_player_8cpp__incl_org.svg" target="_base">
           <rect id="button" ry="5" rx="5" y="6" x="6" height="38" width="38"
                fill="#f2f5e9" fill-opacity="0.5" stroke="#606060" stroke-width="1.0"/>
           <path id="arrow"
             d="M 11.500037,31.436501 C 11.940474,20.09759 22.043105,11.32322 32.158766,21.979434 L 37.068811,17.246167 C 37.068811,17.246167 37.088388,32 37.088388,32 L 22.160133,31.978069 C 22.160133,31.978069 26.997745,27.140456 26.997745,27.140456 C 18.528582,18.264221 13.291696,25.230495 11.500037,31.436501 z"
             style="fill:#404040;"/>
          </a>
         </g>
        </svg>
</svg>
