<?xml version="1.0" encoding="UTF-8" standalone="no"?>
<!DOCTYPE svg PUBLIC "-//W3C//DTD SVG 1.1//EN"
 "http://www.w3.org/Graphics/SVG/1.1/DTD/svg11.dtd">
<!-- Generated by graphviz version 2.49.3 (20211027.1534)
 -->
<!-- Title: RayLib_SHMUP/src/Shmup/Movable/Player.cpp Pages: 1 -->
<!--zoomable 397 -->
<svg id="main" version="1.1" xmlns="http://www.w3.org/2000/svg" xmlns:xlink="http://www.w3.org/1999/xlink" xml:space="preserve" onload="init(evt)">
<style type="text/css"><![CDATA[
.edge:hover path { stroke: red; }
.edge:hover polygon { stroke: red; fill: red; }
]]></style>
<script type="text/javascript"><![CDATA[
var edges = document.getElementsByTagName('g');
if (edges && edges.length) {
  for (var i=0;i<edges.length;i++) {
    if (edges[i].id.substr(0,4)=='edge') {
      edges[i].setAttribute('class','edge');
    }
  }
}
]]></script>
        <defs>
                <circle id="rim" cx="0" cy="0" r="7"/>
                <circle id="rim2" cx="0" cy="0" r="3.5"/>
                <g id="zoomPlus">
                        <use xlink:href="#rim" fill="#404040">
                                <set attributeName="fill" to="#808080" begin="zoomplus.mouseover" end="zoomplus.mouseout"/>
                        </use>
                        <path d="M-4,0h8M0,-4v8" fill="none" stroke="white" stroke-width="1.5" pointer-events="none"/>
                </g>
                <g id="zoomMin">
                        <use xlink:href="#rim" fill="#404040">
                                <set attributeName="fill" to="#808080" begin="zoomminus.mouseover" end="zoomminus.mouseout"/>
                        </use>
                        <path d="M-4,0h8" fill="none" stroke="white" stroke-width="1.5" pointer-events="none"/>
                </g>
                <g id="dirArrow">
                        <path fill="none" stroke="white" stroke-width="1.5" d="M0,-3.0v7 M-2.5,-0.5L0,-3.0L2.5,-0.5"/>
                </g>
               <g id="resetDef">
                       <use xlink:href="#rim2" fill="#404040">
                               <set attributeName="fill" to="#808080" begin="reset.mouseover" end="reset.mouseout"/>
                       </use>
               </g>
        </defs>

<script type="text/javascript">
var viewWidth = 968;
var viewHeight = 397;
var sectionId = 'dynsection-0';
</script>
<script xlink:href="../../svgpan.js"/>
<svg id="graph" class="graph">
<g id="viewport">
<title>RayLib_SHMUP/src/Shmup/Movable/Player.cpp</title>
<polygon fill="white" stroke="transparent" points="-4,4 -4,-393 963.81,-393 963.81,4 -4,4"/>
<!-- Node1 -->
<g id="node1" class="node">
<title>Node1</title>
<g id="a_node1"><a xlink:title=" ">
<polygon fill="#bfbfbf" stroke="black" points="549.5,-358.5 549.5,-388.5 688.5,-388.5 688.5,-358.5 549.5,-358.5"/>
<text text-anchor="start" x="557.5" y="-376.5" font-family="Helvetica,sans-Serif" font-size="10.00">RayLib_SHMUP/src/Shmup</text>
<text text-anchor="middle" x="619" y="-365.5" font-family="Helvetica,sans-Serif" font-size="10.00">/Movable/Player.cpp</text>
</a>
</g>
</g>
<!-- Node2 -->
<g id="node2" class="node">
<title>Node2</title>
<g id="a_node2"><a xlink:title=" ">
<polygon fill="white" stroke="#bfbfbf" points="21,-0.5 21,-19.5 75,-19.5 75,-0.5 21,-0.5"/>
<text text-anchor="middle" x="48" y="-7.5" font-family="Helvetica,sans-Serif" font-size="10.00">iostream</text>
</a>
</g>
</g>
<!-- Node1&#45;&gt;Node2 -->
<g id="edge1" class="edge">
<title>Node1&#45;&gt;Node2</title>
<path fill="none" stroke="midnightblue" d="M549.5,-373.38C387.79,-373.56 0,-362.44 0,-251.5 0,-251.5 0,-251.5 0,-132 0,-92.65 22.21,-50.85 36.41,-28.14"/>
<polygon fill="midnightblue" stroke="midnightblue" points="39.42,-29.93 41.92,-19.64 33.55,-26.12 39.42,-29.93"/>
</g>
<!-- Node3 -->
<g id="node3" class="node">
<title>Node3</title>
<g id="a_node3"><a xlink:title=" ">
<polygon fill="white" stroke="#bfbfbf" points="341.5,-302.5 341.5,-321.5 390.5,-321.5 390.5,-302.5 341.5,-302.5"/>
<text text-anchor="middle" x="366" y="-309.5" font-family="Helvetica,sans-Serif" font-size="10.00">cassert</text>
</a>
</g>
</g>
<!-- Node1&#45;&gt;Node3 -->
<g id="edge2" class="edge">
<title>Node1&#45;&gt;Node3</title>
<path fill="none" stroke="midnightblue" d="M555.62,-358.45C514.22,-349.14 458.73,-336.42 400.91,-322.17"/>
<polygon fill="midnightblue" stroke="midnightblue" points="401.41,-318.68 390.86,-319.68 399.72,-325.48 401.41,-318.68"/>
</g>
<!-- Node4 -->
<g id="node4" class="node">
<title>Node4</title>
<g id="a_node4"><a xlink:title=" ">
<polygon fill="white" stroke="#bfbfbf" points="534.5,-0.5 534.5,-19.5 581.5,-19.5 581.5,-0.5 534.5,-0.5"/>
<text text-anchor="middle" x="558" y="-7.5" font-family="Helvetica,sans-Serif" font-size="10.00">raylib.h</text>
</a>
</g>
</g>
<!-- Node1&#45;&gt;Node4 -->
<g id="edge3" class="edge">
<title>Node1&#45;&gt;Node4</title>
<path fill="none" stroke="midnightblue" d="M662.1,-358.34C706.1,-340.86 768,-306.48 768,-251.5 768,-251.5 768,-251.5 768,-132 768,-96.3 768.35,-80.09 742,-56 720.22,-36.09 638.58,-21.99 591.69,-15.33"/>
<polygon fill="midnightblue" stroke="midnightblue" points="592.07,-11.85 581.69,-13.94 591.12,-18.78 592.07,-11.85"/>
</g>
<!-- Node5 -->
<g id="node5" class="node">
<title>Node5</title>
<g id="a_node5"><a xlink:title=" ">
<polygon fill="white" stroke="#bfbfbf" points="673.5,-62 673.5,-81 732.5,-81 732.5,-62 673.5,-62"/>
<text text-anchor="middle" x="703" y="-69" font-family="Helvetica,sans-Serif" font-size="10.00">raymath.h</text>
</a>
</g>
</g>
<!-- Node1&#45;&gt;Node5 -->
<g id="edge4" class="edge">
<title>Node1&#45;&gt;Node5</title>
<path fill="none" stroke="midnightblue" d="M645.87,-358.48C678.72,-339.18 730,-301.1 730,-251.5 730,-251.5 730,-251.5 730,-188 730,-152.78 717.95,-113.07 709.95,-90.59"/>
<polygon fill="midnightblue" stroke="midnightblue" points="713.17,-89.2 706.42,-81.03 706.6,-91.63 713.17,-89.2"/>
</g>
<!-- Node6 -->
<g id="node6" class="node">
<title>Node6</title>
<g id="a_node6"><a xlink:href="../../d1/d39/_player_8h.html" target="_top" xlink:title=" ">
<polygon fill="white" stroke="black" points="408.5,-302.5 408.5,-321.5 533.5,-321.5 533.5,-302.5 408.5,-302.5"/>
<text text-anchor="middle" x="471" y="-309.5" font-family="Helvetica,sans-Serif" font-size="10.00">Shmup/Movable/Player.h</text>
</a>
</g>
</g>
<!-- Node1&#45;&gt;Node6 -->
<g id="edge5" class="edge">
<title>Node1&#45;&gt;Node6</title>
<path fill="none" stroke="midnightblue" d="M583.93,-358.4C558.98,-348.37 525.79,-335.03 501.86,-325.4"/>
<polygon fill="midnightblue" stroke="midnightblue" points="503.12,-322.14 492.54,-321.66 500.51,-328.64 503.12,-322.14"/>
</g>
<!-- Node7 -->
<g id="node7" class="node">
<title>Node7</title>
<g id="a_node7"><a xlink:href="../../de/d15/_shoot_8h.html" target="_top" xlink:title=" ">
<polygon fill="white" stroke="black" points="423.5,-241 423.5,-260 546.5,-260 546.5,-241 423.5,-241"/>
<text text-anchor="middle" x="485" y="-248" font-family="Helvetica,sans-Serif" font-size="10.00">Shmup/Movable/Shoot.h</text>
</a>
</g>
</g>
<!-- Node1&#45;&gt;Node7 -->
<g id="edge31" class="edge">
<title>Node1&#45;&gt;Node7</title>
<path fill="none" stroke="midnightblue" d="M613.03,-358.32C606,-342.93 593.07,-318.38 576,-302 559.02,-285.7 535.75,-272.91 516.99,-264.28"/>
<polygon fill="midnightblue" stroke="midnightblue" points="518.21,-260.99 507.65,-260.15 515.38,-267.4 518.21,-260.99"/>
</g>
<!-- Node19 -->
<g id="node19" class="node">
<title>Node19</title>
<g id="a_node19"><a xlink:href="../../d2/da5/_math_utils_8h.html" target="_top" xlink:title=" ">
<polygon fill="white" stroke="black" points="574.5,-123.5 574.5,-142.5 701.5,-142.5 701.5,-123.5 574.5,-123.5"/>
<text text-anchor="middle" x="638" y="-130.5" font-family="Helvetica,sans-Serif" font-size="10.00">Namespaces/MathUtils.h</text>
</a>
</g>
</g>
<!-- Node1&#45;&gt;Node19 -->
<g id="edge32" class="edge">
<title>Node1&#45;&gt;Node19</title>
<path fill="none" stroke="midnightblue" d="M620.13,-358.29C623.39,-317.43 632.78,-199.55 636.48,-153.12"/>
<polygon fill="midnightblue" stroke="midnightblue" points="639.98,-153.19 637.29,-142.95 633,-152.64 639.98,-153.19"/>
</g>
<!-- Node20 -->
<g id="node20" class="node">
<title>Node20</title>
<g id="a_node20"><a xlink:href="../../d2/d94/_controller_8h.html" target="_top" xlink:title=" ">
<polygon fill="white" stroke="black" points="796,-123.5 796,-142.5 922,-142.5 922,-123.5 796,-123.5"/>
<text text-anchor="middle" x="859" y="-130.5" font-family="Helvetica,sans-Serif" font-size="10.00">Namespaces/Controller.h</text>
</a>
</g>
</g>
<!-- Node1&#45;&gt;Node20 -->
<g id="edge35" class="edge">
<title>Node1&#45;&gt;Node20</title>
<path fill="none" stroke="midnightblue" d="M688.68,-371.9C774.42,-369.51 912.67,-359.72 945,-322 991.47,-267.78 913.77,-184.29 876.83,-149.77"/>
<polygon fill="midnightblue" stroke="midnightblue" points="878.96,-146.98 869.22,-142.81 874.24,-152.14 878.96,-146.98"/>
</g>
<!-- Node21 -->
<g id="node21" class="node">
<title>Node21</title>
<g id="a_node21"><a xlink:href="../../d5/daf/_game_status_8h.html" target="_top" xlink:title=" ">
<polygon fill="white" stroke="black" points="796,-302.5 796,-321.5 936,-321.5 936,-302.5 796,-302.5"/>
<text text-anchor="middle" x="866" y="-309.5" font-family="Helvetica,sans-Serif" font-size="10.00">Namespaces/GameStatus.h</text>
</a>
</g>
</g>
<!-- Node1&#45;&gt;Node21 -->
<g id="edge38" class="edge">
<title>Node1&#45;&gt;Node21</title>
<path fill="none" stroke="midnightblue" d="M677.22,-358.47C721.14,-347.9 780.51,-333.59 820.86,-323.87"/>
<polygon fill="midnightblue" stroke="midnightblue" points="821.79,-327.25 830.69,-321.51 820.15,-320.45 821.79,-327.25"/>
</g>
<!-- Node22 -->
<g id="node22" class="node">
<title>Node22</title>
<g id="a_node22"><a xlink:href="../../dc/da7/_files_8h.html" target="_top" xlink:title=" ">
<polygon fill="white" stroke="black" points="299,-241 299,-260 405,-260 405,-241 299,-241"/>
<text text-anchor="middle" x="352" y="-248" font-family="Helvetica,sans-Serif" font-size="10.00">Namespaces/Files.h</text>
</a>
</g>
</g>
<!-- Node1&#45;&gt;Node22 -->
<g id="edge39" class="edge">
<title>Node1&#45;&gt;Node22</title>
<path fill="none" stroke="midnightblue" d="M607.62,-358.4C593.94,-342.39 569.49,-316.58 543,-302 530.23,-294.97 450.15,-275 397.82,-262.38"/>
<polygon fill="midnightblue" stroke="midnightblue" points="398.62,-258.97 388.07,-260.04 396.98,-265.78 398.62,-258.97"/>
</g>
<!-- Node6&#45;&gt;Node7 -->
<g id="edge6" class="edge">
<title>Node6&#45;&gt;Node7</title>
<path fill="none" stroke="midnightblue" d="M473.01,-302.48C475,-293.99 478.13,-280.7 480.69,-269.82"/>
<polygon fill="midnightblue" stroke="midnightblue" points="484.11,-270.54 483,-260.01 477.3,-268.94 484.11,-270.54"/>
</g>
<!-- Node17 -->
<g id="node17" class="node">
<title>Node17</title>
<g id="a_node17"><a xlink:href="../../df/db3/_patern_v_spread_8h.html" target="_top" xlink:title=" ">
<polygon fill="white" stroke="black" points="36.5,-235.5 36.5,-265.5 149.5,-265.5 149.5,-235.5 36.5,-235.5"/>
<text text-anchor="start" x="44.5" y="-253.5" font-family="Helvetica,sans-Serif" font-size="10.00">Shmup/Paterns/Shoot</text>
<text text-anchor="middle" x="93" y="-242.5" font-family="Helvetica,sans-Serif" font-size="10.00">/PaternVSpread.h</text>
</a>
</g>
</g>
<!-- Node6&#45;&gt;Node17 -->
<g id="edge27" class="edge">
<title>Node6&#45;&gt;Node17</title>
<path fill="none" stroke="midnightblue" d="M408.36,-302.57C335.6,-292.69 218.88,-276.52 159.69,-266.2"/>
<polygon fill="midnightblue" stroke="midnightblue" points="160.13,-262.73 149.67,-264.41 158.9,-269.62 160.13,-262.73"/>
</g>
<!-- Node18 -->
<g id="node18" class="node">
<title>Node18</title>
<g id="a_node18"><a xlink:href="../../d3/dff/_patern_linear_8h.html" target="_top" xlink:title=" ">
<polygon fill="white" stroke="black" points="167.5,-235.5 167.5,-265.5 280.5,-265.5 280.5,-235.5 167.5,-235.5"/>
<text text-anchor="start" x="175.5" y="-253.5" font-family="Helvetica,sans-Serif" font-size="10.00">Shmup/Paterns/Shoot</text>
<text text-anchor="middle" x="224" y="-242.5" font-family="Helvetica,sans-Serif" font-size="10.00">/PaternLinear.h</text>
</a>
</g>
</g>
<!-- Node6&#45;&gt;Node18 -->
<g id="edge29" class="edge">
<title>Node6&#45;&gt;Node18</title>
<path fill="none" stroke="midnightblue" d="M435.61,-302.48C397.88,-293.39 337.24,-278.78 290.53,-267.53"/>
<polygon fill="midnightblue" stroke="midnightblue" points="291.33,-264.12 280.79,-265.18 289.69,-270.92 291.33,-264.12"/>
</g>
<!-- Node7&#45;&gt;Node4 -->
<g id="edge7" class="edge">
<title>Node7&#45;&gt;Node4</title>
<path fill="none" stroke="midnightblue" d="M490.67,-240.82C505.68,-217.3 546.2,-149.82 560,-87 564.2,-67.89 562.86,-45.43 561,-29.91"/>
<polygon fill="midnightblue" stroke="midnightblue" points="564.4,-28.98 559.55,-19.56 557.47,-29.95 564.4,-28.98"/>
</g>
<!-- Node8 -->
<g id="node8" class="node">
<title>Node8</title>
<g id="a_node8"><a xlink:href="../../db/d1b/_a_movable_8h.html" target="_top" xlink:title=" ">
<polygon fill="white" stroke="black" points="214.5,-179.5 214.5,-198.5 315.5,-198.5 315.5,-179.5 214.5,-179.5"/>
<text text-anchor="middle" x="265" y="-186.5" font-family="Helvetica,sans-Serif" font-size="10.00">Shmup/AMovable.h</text>
</a>
</g>
</g>
<!-- Node7&#45;&gt;Node8 -->
<g id="edge8" class="edge">
<title>Node7&#45;&gt;Node8</title>
<path fill="none" stroke="midnightblue" d="M453.48,-240.98C414.76,-230.5 348.98,-212.71 306.26,-201.16"/>
<polygon fill="midnightblue" stroke="midnightblue" points="307.03,-197.74 296.46,-198.51 305.2,-204.5 307.03,-197.74"/>
</g>
<!-- Node13 -->
<g id="node13" class="node">
<title>Node13</title>
<g id="a_node13"><a xlink:href="../../df/d50/_a_patern_8h.html" target="_top" xlink:title=" ">
<polygon fill="white" stroke="black" points="28,-179.5 28,-198.5 158,-198.5 158,-179.5 28,-179.5"/>
<text text-anchor="middle" x="93" y="-186.5" font-family="Helvetica,sans-Serif" font-size="10.00">Shmup/Paterns/APatern.h</text>
</a>
</g>
</g>
<!-- Node7&#45;&gt;Node13 -->
<g id="edge17" class="edge">
<title>Node7&#45;&gt;Node13</title>
<path fill="none" stroke="midnightblue" d="M445.28,-240.93C435.11,-238.87 424.17,-236.75 414,-235 330.17,-220.58 233.41,-207.5 168.23,-199.2"/>
<polygon fill="midnightblue" stroke="midnightblue" points="168.41,-195.7 158.05,-197.91 167.53,-202.64 168.41,-195.7"/>
</g>
<!-- Node14 -->
<g id="node14" class="node">
<title>Node14</title>
<g id="a_node14"><a xlink:href="../../d5/d36/_collider_8h.html" target="_top" xlink:title=" ">
<polygon fill="white" stroke="black" points="388,-123.5 388,-142.5 518,-142.5 518,-123.5 388,-123.5"/>
<text text-anchor="middle" x="453" y="-130.5" font-family="Helvetica,sans-Serif" font-size="10.00">Shmup/Collision/Collider.h</text>
</a>
</g>
</g>
<!-- Node7&#45;&gt;Node14 -->
<g id="edge18" class="edge">
<title>Node7&#45;&gt;Node14</title>
<path fill="none" stroke="midnightblue" d="M487.54,-240.96C491.13,-227.39 496.47,-200.29 489,-179 485.21,-168.21 477.63,-158.08 470.4,-150.18"/>
<polygon fill="midnightblue" stroke="midnightblue" points="472.67,-147.49 463.16,-142.81 467.67,-152.4 472.67,-147.49"/>
</g>
<!-- Node16 -->
<g id="node16" class="node">
<title>Node16</title>
<g id="a_node16"><a xlink:href="../../d3/d72/_a_collidable_8h.html" target="_top" xlink:title=" ">
<polygon fill="white" stroke="black" points="334,-179.5 334,-198.5 480,-198.5 480,-179.5 334,-179.5"/>
<text text-anchor="middle" x="407" y="-186.5" font-family="Helvetica,sans-Serif" font-size="10.00">Shmup/Collision/ACollidable.h</text>
</a>
</g>
</g>
<!-- Node7&#45;&gt;Node16 -->
<g id="edge24" class="edge">
<title>Node7&#45;&gt;Node16</title>
<path fill="none" stroke="midnightblue" d="M473.82,-240.98C461.43,-231.52 441.21,-216.1 426.25,-204.69"/>
<polygon fill="midnightblue" stroke="midnightblue" points="428.23,-201.79 418.15,-198.51 423.98,-207.36 428.23,-201.79"/>
</g>
<!-- Node8&#45;&gt;Node4 -->
<g id="edge9" class="edge">
<title>Node8&#45;&gt;Node4</title>
<path fill="none" stroke="midnightblue" d="M288.82,-179.44C315.51,-168.42 353.19,-147.73 338,-123 319.48,-92.85 285.52,-117.15 267,-87 259.79,-75.26 258.03,-66.46 267,-56 299.77,-17.78 454.37,-11.73 523.94,-10.98"/>
<polygon fill="midnightblue" stroke="midnightblue" points="524.37,-14.47 534.34,-10.9 524.31,-7.47 524.37,-14.47"/>
</g>
<!-- Node9 -->
<g id="node9" class="node">
<title>Node9</title>
<g id="a_node9"><a xlink:href="../../d7/daf/_a_graphic_object_8h.html" target="_top" xlink:title=" ">
<polygon fill="white" stroke="black" points="236.5,-123.5 236.5,-142.5 329.5,-142.5 329.5,-123.5 236.5,-123.5"/>
<text text-anchor="middle" x="283" y="-130.5" font-family="Helvetica,sans-Serif" font-size="10.00">AGraphicObject.h</text>
</a>
</g>
</g>
<!-- Node8&#45;&gt;Node9 -->
<g id="edge10" class="edge">
<title>Node8&#45;&gt;Node9</title>
<path fill="none" stroke="midnightblue" d="M267.97,-179.08C270.38,-171.85 273.86,-161.41 276.87,-152.4"/>
<polygon fill="midnightblue" stroke="midnightblue" points="280.24,-153.34 280.08,-142.75 273.6,-151.13 280.24,-153.34"/>
</g>
<!-- Node9&#45;&gt;Node4 -->
<g id="edge11" class="edge">
<title>Node9&#45;&gt;Node4</title>
<path fill="none" stroke="midnightblue" d="M270.36,-123.47C250.13,-108.81 214.62,-78.26 234,-56 271.32,-13.14 448.35,-9.79 523.8,-10.37"/>
<polygon fill="midnightblue" stroke="midnightblue" points="524.13,-13.87 534.17,-10.48 524.21,-6.87 524.13,-13.87"/>
</g>
<!-- Node10 -->
<g id="node10" class="node">
<title>Node10</title>
<g id="a_node10"><a xlink:href="../../dc/d80/_instance_list_8h.html" target="_top" xlink:title=" ">
<polygon fill="white" stroke="black" points="30,-62 30,-81 142,-81 142,-62 30,-62"/>
<text text-anchor="middle" x="86" y="-69" font-family="Helvetica,sans-Serif" font-size="10.00">Shmup/InstanceList.h</text>
</a>
</g>
</g>
<!-- Node9&#45;&gt;Node10 -->
<g id="edge12" class="edge">
<title>Node9&#45;&gt;Node10</title>
<path fill="none" stroke="midnightblue" d="M254.77,-123.48C220.4,-113.09 162.19,-95.51 123.92,-83.95"/>
<polygon fill="midnightblue" stroke="midnightblue" points="124.76,-80.55 114.17,-81.01 122.73,-87.25 124.76,-80.55"/>
</g>
<!-- Node12 -->
<g id="node12" class="node">
<title>Node12</title>
<g id="a_node12"><a xlink:href="../../da/d02/_transform2_d_8h.html" target="_top" xlink:title=" ">
<polygon fill="white" stroke="black" points="276,-62 276,-81 390,-81 390,-62 276,-62"/>
<text text-anchor="middle" x="333" y="-69" font-family="Helvetica,sans-Serif" font-size="10.00">Shmup/Transform2D.h</text>
</a>
</g>
</g>
<!-- Node9&#45;&gt;Node12 -->
<g id="edge15" class="edge">
<title>Node9&#45;&gt;Node12</title>
<path fill="none" stroke="midnightblue" d="M290.16,-123.48C297.74,-114.46 309.87,-100.02 319.29,-88.81"/>
<polygon fill="midnightblue" stroke="midnightblue" points="322.1,-90.92 325.85,-81.01 316.74,-86.41 322.1,-90.92"/>
</g>
<!-- Node10&#45;&gt;Node2 -->
<g id="edge13" class="edge">
<title>Node10&#45;&gt;Node2</title>
<path fill="none" stroke="midnightblue" d="M80.56,-61.98C74.91,-53.14 65.94,-39.09 58.84,-27.98"/>
<polygon fill="midnightblue" stroke="midnightblue" points="61.77,-26.05 53.43,-19.51 55.87,-29.82 61.77,-26.05"/>
</g>
<!-- Node11 -->
<g id="node11" class="node">
<title>Node11</title>
<g id="a_node11"><a xlink:title=" ">
<polygon fill="white" stroke="#bfbfbf" points="102,-0.5 102,-19.5 146,-19.5 146,-0.5 102,-0.5"/>
<text text-anchor="middle" x="124" y="-7.5" font-family="Helvetica,sans-Serif" font-size="10.00">vector</text>
</a>
</g>
</g>
<!-- Node10&#45;&gt;Node11 -->
<g id="edge14" class="edge">
<title>Node10&#45;&gt;Node11</title>
<path fill="none" stroke="midnightblue" d="M91.44,-61.98C97.09,-53.14 106.06,-39.09 113.16,-27.98"/>
<polygon fill="midnightblue" stroke="midnightblue" points="116.13,-29.82 118.57,-19.51 110.23,-26.05 116.13,-29.82"/>
</g>
<!-- Node12&#45;&gt;Node4 -->
<g id="edge16" class="edge">
<title>Node12&#45;&gt;Node4</title>
<path fill="none" stroke="midnightblue" d="M365.24,-61.98C407.65,-50.76 481.81,-31.15 524.73,-19.8"/>
<polygon fill="midnightblue" stroke="midnightblue" points="525.64,-23.18 534.42,-17.24 523.85,-16.41 525.64,-23.18"/>
</g>
<!-- Node14&#45;&gt;Node4 -->
<g id="edge19" class="edge">
<title>Node14&#45;&gt;Node4</title>
<path fill="none" stroke="midnightblue" d="M482.63,-123.48C501.44,-116.58 524.83,-105.01 539,-87 551.99,-70.5 556.22,-46.26 557.53,-29.62"/>
<polygon fill="midnightblue" stroke="midnightblue" points="561.04,-29.67 558.05,-19.5 554.05,-29.31 561.04,-29.67"/>
</g>
<!-- Node14&#45;&gt;Node5 -->
<g id="edge20" class="edge">
<title>Node14&#45;&gt;Node5</title>
<path fill="none" stroke="midnightblue" d="M488.82,-123.48C535.11,-112.46 615.44,-93.34 663.47,-81.91"/>
<polygon fill="midnightblue" stroke="midnightblue" points="664.58,-85.24 673.49,-79.52 662.96,-78.43 664.58,-85.24"/>
</g>
<!-- Node14&#45;&gt;Node12 -->
<g id="edge21" class="edge">
<title>Node14&#45;&gt;Node12</title>
<path fill="none" stroke="midnightblue" d="M435.81,-123.48C415.76,-113.53 382.4,-96.99 359.14,-85.46"/>
<polygon fill="midnightblue" stroke="midnightblue" points="360.68,-82.32 350.16,-81.01 357.57,-88.59 360.68,-82.32"/>
</g>
<!-- Node15 -->
<g id="node15" class="node">
<title>Node15</title>
<g id="a_node15"><a xlink:href="../../de/d60/_collider_settings_8h.html" target="_top" xlink:title=" ">
<polygon fill="white" stroke="black" points="408,-56.5 408,-86.5 530,-86.5 530,-56.5 408,-56.5"/>
<text text-anchor="start" x="416" y="-74.5" font-family="Helvetica,sans-Serif" font-size="10.00">Shmup/Collision/Collider</text>
<text text-anchor="middle" x="469" y="-63.5" font-family="Helvetica,sans-Serif" font-size="10.00">Settings.h</text>
</a>
</g>
</g>
<!-- Node14&#45;&gt;Node15 -->
<g id="edge22" class="edge">
<title>Node14&#45;&gt;Node15</title>
<path fill="none" stroke="midnightblue" d="M455.29,-123.48C457.2,-116.4 460,-105.97 462.58,-96.39"/>
<polygon fill="midnightblue" stroke="midnightblue" points="466.01,-97.09 465.23,-86.52 459.25,-95.27 466.01,-97.09"/>
</g>
<!-- Node15&#45;&gt;Node11 -->
<g id="edge23" class="edge">
<title>Node15&#45;&gt;Node11</title>
<path fill="none" stroke="midnightblue" d="M407.95,-57.7C404.92,-57.11 401.93,-56.54 399,-56 311.51,-39.79 207.79,-23.64 156.32,-15.84"/>
<polygon fill="midnightblue" stroke="midnightblue" points="156.57,-12.34 146.16,-14.3 155.52,-19.26 156.57,-12.34"/>
</g>
<!-- Node16&#45;&gt;Node10 -->
<g id="edge26" class="edge">
<title>Node16&#45;&gt;Node10</title>
<path fill="none" stroke="midnightblue" d="M362.06,-179.5C325.37,-171.89 272.49,-159.42 228,-143 184.81,-127.06 137.43,-101.85 109.78,-86.29"/>
<polygon fill="midnightblue" stroke="midnightblue" points="111.29,-83.12 100.86,-81.22 107.83,-89.2 111.29,-83.12"/>
</g>
<!-- Node16&#45;&gt;Node14 -->
<g id="edge25" class="edge">
<title>Node16&#45;&gt;Node14</title>
<path fill="none" stroke="midnightblue" d="M414.6,-179.08C421.23,-171.3 431.02,-159.8 439.06,-150.37"/>
<polygon fill="midnightblue" stroke="midnightblue" points="441.73,-152.63 445.55,-142.75 436.4,-148.09 441.73,-152.63"/>
</g>
<!-- Node17&#45;&gt;Node13 -->
<g id="edge28" class="edge">
<title>Node17&#45;&gt;Node13</title>
<path fill="none" stroke="midnightblue" d="M93,-235.4C93,-227.47 93,-217.46 93,-208.86"/>
<polygon fill="midnightblue" stroke="midnightblue" points="96.5,-208.66 93,-198.66 89.5,-208.66 96.5,-208.66"/>
</g>
<!-- Node18&#45;&gt;Node13 -->
<g id="edge30" class="edge">
<title>Node18&#45;&gt;Node13</title>
<path fill="none" stroke="midnightblue" d="M192.95,-235.4C171.27,-225.55 142.54,-212.5 121.45,-202.92"/>
<polygon fill="midnightblue" stroke="midnightblue" points="122.61,-199.61 112.06,-198.66 119.72,-205.98 122.61,-199.61"/>
</g>
<!-- Node19&#45;&gt;Node4 -->
<g id="edge33" class="edge">
<title>Node19&#45;&gt;Node4</title>
<path fill="none" stroke="midnightblue" d="M636.31,-123.36C633.09,-108.54 625.04,-77.74 610,-56 601.83,-44.19 589.85,-33.54 579.45,-25.57"/>
<polygon fill="midnightblue" stroke="midnightblue" points="581.34,-22.62 571.21,-19.54 577.21,-28.27 581.34,-22.62"/>
</g>
<!-- Node19&#45;&gt;Node5 -->
<g id="edge34" class="edge">
<title>Node19&#45;&gt;Node5</title>
<path fill="none" stroke="midnightblue" d="M647.31,-123.48C657.45,-114.2 673.86,-99.17 686.25,-87.83"/>
<polygon fill="midnightblue" stroke="midnightblue" points="688.69,-90.34 693.7,-81.01 683.96,-85.18 688.69,-90.34"/>
</g>
<!-- Node20&#45;&gt;Node4 -->
<g id="edge36" class="edge">
<title>Node20&#45;&gt;Node4</title>
<path fill="none" stroke="midnightblue" d="M852.94,-123.3C841.23,-107.21 813.84,-72.93 782,-56 720.39,-23.25 637.69,-14.26 591.97,-11.84"/>
<polygon fill="midnightblue" stroke="midnightblue" points="591.87,-8.33 581.72,-11.38 591.55,-15.33 591.87,-8.33"/>
</g>
<!-- Node20&#45;&gt;Node5 -->
<g id="edge37" class="edge">
<title>Node20&#45;&gt;Node5</title>
<path fill="none" stroke="midnightblue" d="M836.65,-123.48C810.01,-113.31 765.29,-96.26 734.99,-84.7"/>
<polygon fill="midnightblue" stroke="midnightblue" points="735.9,-81.3 725.31,-81.01 733.41,-87.84 735.9,-81.3"/>
</g>
<!-- Node22&#45;&gt;Node4 -->
<g id="edge40" class="edge">
<title>Node22&#45;&gt;Node4</title>
<path fill="none" stroke="midnightblue" d="M320.97,-240.92C279.94,-229.25 211.96,-208.75 205,-199 180.27,-164.36 99.03,-178.63 225,-56 266.93,-15.18 447.67,-10.7 523.89,-10.68"/>
<polygon fill="midnightblue" stroke="midnightblue" points="524.34,-14.18 534.35,-10.7 524.36,-7.18 524.34,-14.18"/>
</g>
</g>
</svg>
        <g id="navigator" transform="translate(0 0)" fill="#404254">
                <rect fill="#f2f5e9" fill-opacity="0.5" stroke="#606060" stroke-width=".5" x="0" y="0" width="60" height="60"/>
                <use id="zoomplus" xlink:href="#zoomPlus" x="17" y="9" onmousedown="handleZoom(evt,'in')"/>
                <use id="zoomminus" xlink:href="#zoomMin" x="42" y="9" onmousedown="handleZoom(evt,'out')"/>
                <use id="reset" xlink:href="#resetDef" x="30" y="36" onmousedown="handleReset()"/>
                <g id="arrowUp" xlink:href="#dirArrow" transform="translate(30 24)" onmousedown="handlePan(0,-1)">
                  <use xlink:href="#rim" fill="#404040">
                        <set attributeName="fill" to="#808080" begin="arrowUp.mouseover" end="arrowUp.mouseout"/>
                  </use>
                  <path fill="none" stroke="white" stroke-width="1.5" d="M0,-3.0v7 M-2.5,-0.5L0,-3.0L2.5,-0.5"/>
                </g>
                <g id="arrowRight" xlink:href="#dirArrow" transform="rotate(90) translate(36 -43)" onmousedown="handlePan(1,0)">
                  <use xlink:href="#rim" fill="#404040">
                        <set attributeName="fill" to="#808080" begin="arrowRight.mouseover" end="arrowRight.mouseout"/>
                  </use>
                  <path fill="none" stroke="white" stroke-width="1.5" d="M0,-3.0v7 M-2.5,-0.5L0,-3.0L2.5,-0.5"/>
                </g>
                <g id="arrowDown" xlink:href="#dirArrow" transform="rotate(180) translate(-30 -48)" onmousedown="handlePan(0,1)">
                  <use xlink:href="#rim" fill="#404040">
                        <set attributeName="fill" to="#808080" begin="arrowDown.mouseover" end="arrowDown.mouseout"/>
                  </use>
                  <path fill="none" stroke="white" stroke-width="1.5" d="M0,-3.0v7 M-2.5,-0.5L0,-3.0L2.5,-0.5"/>
                </g>
                <g id="arrowLeft" xlink:href="#dirArrow" transform="rotate(270) translate(-36 17)" onmousedown="handlePan(-1,0)">
                  <use xlink:href="#rim" fill="#404040">
                        <set attributeName="fill" to="#808080" begin="arrowLeft.mouseover" end="arrowLeft.mouseout"/>
                  </use>
                  <path fill="none" stroke="white" stroke-width="1.5" d="M0,-3.0v7 M-2.5,-0.5L0,-3.0L2.5,-0.5"/>
                </g>
        </g>
        <svg viewBox="0 0 15 15" width="100%" height="30px" preserveAspectRatio="xMaxYMin meet">
         <g id="arrow_out" transform="scale(0.3 0.3)">
          <a xlink:href="_player_8cpp__incl_org.svg" target="_base">
           <rect id="button" ry="5" rx="5" y="6" x="6" height="38" width="38"
                fill="#f2f5e9" fill-opacity="0.5" stroke="#606060" stroke-width="1.0"/>
           <path id="arrow"
             d="M 11.500037,31.436501 C 11.940474,20.09759 22.043105,11.32322 32.158766,21.979434 L 37.068811,17.246167 C 37.068811,17.246167 37.088388,32 37.088388,32 L 22.160133,31.978069 C 22.160133,31.978069 26.997745,27.140456 26.997745,27.140456 C 18.528582,18.264221 13.291696,25.230495 11.500037,31.436501 z"
             style="fill:#404040;"/>
          </a>
         </g>
        </svg>
</svg>
