<?xml version="1.0" encoding="UTF-8" standalone="no"?>
<!DOCTYPE svg PUBLIC "-//W3C//DTD SVG 1.1//EN"
 "http://www.w3.org/Graphics/SVG/1.1/DTD/svg11.dtd">
<!-- Generated by graphviz version 2.49.3 (20211027.1534)
 -->
<!-- Title: RayLib_SHMUP/src/Shmup/Movable/Player.cpp Pages: 1 -->
<svg width="1207pt" height="397pt"
 viewBox="0.00 0.00 1207.00 397.00" xmlns="http://www.w3.org/2000/svg" xmlns:xlink="http://www.w3.org/1999/xlink">
<g id="graph0" class="graph" transform="scale(1 1) rotate(0) translate(4 393)">
<title>RayLib_SHMUP/src/Shmup/Movable/Player.cpp</title>
<polygon fill="white" stroke="transparent" points="-4,4 -4,-393 1203,-393 1203,4 -4,4"/>
<!-- Node1 -->
<g id="node1" class="node">
<title>Node1</title>
<g id="a_node1"><a xlink:title=" ">
<polygon fill="#bfbfbf" stroke="black" points="718.5,-358.5 718.5,-388.5 857.5,-388.5 857.5,-358.5 718.5,-358.5"/>
<text text-anchor="start" x="726.5" y="-376.5" font-family="Helvetica,sans-Serif" font-size="10.00">RayLib_SHMUP/src/Shmup</text>
<text text-anchor="middle" x="788" y="-365.5" font-family="Helvetica,sans-Serif" font-size="10.00">/Movable/Player.cpp</text>
</a>
</g>
</g>
<!-- Node2 -->
<g id="node2" class="node">
<title>Node2</title>
<g id="a_node2"><a xlink:title=" ">
<polygon fill="white" stroke="#bfbfbf" points="0,-0.5 0,-19.5 54,-19.5 54,-0.5 0,-0.5"/>
<text text-anchor="middle" x="27" y="-7.5" font-family="Helvetica,sans-Serif" font-size="10.00">iostream</text>
</a>
</g>
</g>
<!-- Node1&#45;&gt;Node2 -->
<g id="edge1" class="edge">
<title>Node1&#45;&gt;Node2</title>
<path fill="none" stroke="midnightblue" d="M718.4,-368.82C529.1,-357.91 19,-321.95 19,-251.5 19,-251.5 19,-251.5 19,-132 19,-95.82 22.61,-53.68 24.98,-29.89"/>
<polygon fill="midnightblue" stroke="midnightblue" points="28.47,-30.1 26.02,-19.79 21.51,-29.38 28.47,-30.1"/>
</g>
<!-- Node3 -->
<g id="node3" class="node">
<title>Node3</title>
<g id="a_node3"><a xlink:title=" ">
<polygon fill="white" stroke="#bfbfbf" points="991.5,-302.5 991.5,-321.5 1040.5,-321.5 1040.5,-302.5 991.5,-302.5"/>
<text text-anchor="middle" x="1016" y="-309.5" font-family="Helvetica,sans-Serif" font-size="10.00">cassert</text>
</a>
</g>
</g>
<!-- Node1&#45;&gt;Node3 -->
<g id="edge2" class="edge">
<title>Node1&#45;&gt;Node3</title>
<path fill="none" stroke="midnightblue" d="M841.74,-358.47C884.95,-347.2 944.35,-331.7 981.44,-322.02"/>
<polygon fill="midnightblue" stroke="midnightblue" points="982.49,-325.36 991.28,-319.45 980.72,-318.59 982.49,-325.36"/>
</g>
<!-- Node4 -->
<g id="node4" class="node">
<title>Node4</title>
<g id="a_node4"><a xlink:title=" ">
<polygon fill="white" stroke="#bfbfbf" points="549.5,-0.5 549.5,-19.5 596.5,-19.5 596.5,-0.5 549.5,-0.5"/>
<text text-anchor="middle" x="573" y="-7.5" font-family="Helvetica,sans-Serif" font-size="10.00">raylib.h</text>
</a>
</g>
</g>
<!-- Node1&#45;&gt;Node4 -->
<g id="edge3" class="edge">
<title>Node1&#45;&gt;Node4</title>
<path fill="none" stroke="midnightblue" d="M854.83,-358.4C879,-350.74 905.19,-339.2 925,-322 951.88,-298.67 963,-287.1 963,-251.5 963,-251.5 963,-251.5 963,-132 963,-57.68 701.39,-23.93 606.7,-14.15"/>
<polygon fill="midnightblue" stroke="midnightblue" points="606.82,-10.65 596.52,-13.13 606.12,-17.61 606.82,-10.65"/>
</g>
<!-- Node5 -->
<g id="node5" class="node">
<title>Node5</title>
<g id="a_node5"><a xlink:title=" ">
<polygon fill="white" stroke="#bfbfbf" points="746.5,-241 746.5,-260 805.5,-260 805.5,-241 746.5,-241"/>
<text text-anchor="middle" x="776" y="-248" font-family="Helvetica,sans-Serif" font-size="10.00">raymath.h</text>
</a>
</g>
</g>
<!-- Node1&#45;&gt;Node5 -->
<g id="edge4" class="edge">
<title>Node1&#45;&gt;Node5</title>
<path fill="none" stroke="midnightblue" d="M778.3,-358.21C772.3,-348.47 765.16,-335.03 762,-322 757.74,-304.41 762.8,-284.12 767.99,-269.84"/>
<polygon fill="midnightblue" stroke="midnightblue" points="771.36,-270.82 771.83,-260.23 764.86,-268.22 771.36,-270.82"/>
</g>
<!-- Node6 -->
<g id="node6" class="node">
<title>Node6</title>
<g id="a_node6"><a xlink:href="../../d1/d39/_player_8h.html" target="_top" xlink:title=" ">
<polygon fill="white" stroke="black" points="439.5,-302.5 439.5,-321.5 564.5,-321.5 564.5,-302.5 439.5,-302.5"/>
<text text-anchor="middle" x="502" y="-309.5" font-family="Helvetica,sans-Serif" font-size="10.00">Shmup/Movable/Player.h</text>
</a>
</g>
</g>
<!-- Node1&#45;&gt;Node6 -->
<g id="edge5" class="edge">
<title>Node1&#45;&gt;Node6</title>
<path fill="none" stroke="midnightblue" d="M720.58,-358.47C669.2,-347.78 599.53,-333.29 552.79,-323.57"/>
<polygon fill="midnightblue" stroke="midnightblue" points="553.39,-320.12 542.89,-321.51 551.97,-326.97 553.39,-320.12"/>
</g>
<!-- Node7 -->
<g id="node7" class="node">
<title>Node7</title>
<g id="a_node7"><a xlink:href="../../de/d15/_shoot_8h.html" target="_top" xlink:title=" ">
<polygon fill="white" stroke="black" points="173.5,-241 173.5,-260 296.5,-260 296.5,-241 173.5,-241"/>
<text text-anchor="middle" x="235" y="-248" font-family="Helvetica,sans-Serif" font-size="10.00">Shmup/Movable/Shoot.h</text>
</a>
</g>
</g>
<!-- Node1&#45;&gt;Node7 -->
<g id="edge32" class="edge">
<title>Node1&#45;&gt;Node7</title>
<path fill="none" stroke="midnightblue" d="M718.22,-366.96C645.47,-360.19 528.53,-346.48 430,-322 369.39,-306.94 301.37,-279.91 263.82,-264.06"/>
<polygon fill="midnightblue" stroke="midnightblue" points="265.08,-260.79 254.51,-260.09 262.34,-267.23 265.08,-260.79"/>
</g>
<!-- Node20 -->
<g id="node20" class="node">
<title>Node20</title>
<g id="a_node20"><a xlink:href="../../d2/da5/_math_utils_8h.html" target="_top" xlink:title=" ">
<polygon fill="white" stroke="black" points="587.5,-302.5 587.5,-321.5 714.5,-321.5 714.5,-302.5 587.5,-302.5"/>
<text text-anchor="middle" x="651" y="-309.5" font-family="Helvetica,sans-Serif" font-size="10.00">Namespaces/MathUtils.h</text>
</a>
</g>
</g>
<!-- Node1&#45;&gt;Node20 -->
<g id="edge33" class="edge">
<title>Node1&#45;&gt;Node20</title>
<path fill="none" stroke="midnightblue" d="M755.53,-358.4C732.65,-348.46 702.27,-335.26 680.16,-325.66"/>
<polygon fill="midnightblue" stroke="midnightblue" points="681.5,-322.43 670.93,-321.66 678.71,-328.85 681.5,-322.43"/>
</g>
<!-- Node21 -->
<g id="node21" class="node">
<title>Node21</title>
<g id="a_node21"><a xlink:href="../../d2/d94/_controller_8h.html" target="_top" xlink:title=" ">
<polygon fill="white" stroke="black" points="771,-302.5 771,-321.5 897,-321.5 897,-302.5 771,-302.5"/>
<text text-anchor="middle" x="834" y="-309.5" font-family="Helvetica,sans-Serif" font-size="10.00">Namespaces/Controller.h</text>
</a>
</g>
</g>
<!-- Node1&#45;&gt;Node21 -->
<g id="edge36" class="edge">
<title>Node1&#45;&gt;Node21</title>
<path fill="none" stroke="midnightblue" d="M798.9,-358.4C805.59,-349.75 814.18,-338.64 821.18,-329.58"/>
<polygon fill="midnightblue" stroke="midnightblue" points="823.96,-331.71 827.31,-321.66 818.42,-327.43 823.96,-331.71"/>
</g>
<!-- Node22 -->
<g id="node22" class="node">
<title>Node22</title>
<g id="a_node22"><a xlink:href="../../d5/daf/_game_status_8h.html" target="_top" xlink:title=" ">
<polygon fill="white" stroke="black" points="1059,-302.5 1059,-321.5 1199,-321.5 1199,-302.5 1059,-302.5"/>
<text text-anchor="middle" x="1129" y="-309.5" font-family="Helvetica,sans-Serif" font-size="10.00">Namespaces/GameStatus.h</text>
</a>
</g>
</g>
<!-- Node1&#45;&gt;Node22 -->
<g id="edge39" class="edge">
<title>Node1&#45;&gt;Node22</title>
<path fill="none" stroke="midnightblue" d="M857.83,-360.32C920.46,-349.39 1011.31,-333.53 1070.28,-323.25"/>
<polygon fill="midnightblue" stroke="midnightblue" points="1070.93,-326.68 1080.18,-321.52 1069.73,-319.79 1070.93,-326.68"/>
</g>
<!-- Node23 -->
<g id="node23" class="node">
<title>Node23</title>
<g id="a_node23"><a xlink:href="../../dc/da7/_files_8h.html" target="_top" xlink:title=" ">
<polygon fill="white" stroke="black" points="829,-123.5 829,-142.5 935,-142.5 935,-123.5 829,-123.5"/>
<text text-anchor="middle" x="882" y="-130.5" font-family="Helvetica,sans-Serif" font-size="10.00">Namespaces/Files.h</text>
</a>
</g>
</g>
<!-- Node1&#45;&gt;Node23 -->
<g id="edge40" class="edge">
<title>Node1&#45;&gt;Node23</title>
<path fill="none" stroke="midnightblue" d="M856.1,-358.43C875.49,-350.94 894.46,-339.48 906,-322 941.29,-268.51 908.99,-187.58 891.52,-151.94"/>
<polygon fill="midnightblue" stroke="midnightblue" points="894.51,-150.1 886.86,-142.77 888.27,-153.27 894.51,-150.1"/>
</g>
<!-- Node6&#45;&gt;Node7 -->
<g id="edge6" class="edge">
<title>Node6&#45;&gt;Node7</title>
<path fill="none" stroke="midnightblue" d="M463.75,-302.48C416.16,-291.87 334.89,-273.76 283.12,-262.22"/>
<polygon fill="midnightblue" stroke="midnightblue" points="283.71,-258.77 273.18,-260.01 282.18,-265.6 283.71,-258.77"/>
</g>
<!-- Node17 -->
<g id="node17" class="node">
<title>Node17</title>
<g id="a_node17"><a xlink:href="../../df/db3/_patern_v_spread_8h.html" target="_top" xlink:title=" ">
<polygon fill="white" stroke="black" points="445.5,-235.5 445.5,-265.5 558.5,-265.5 558.5,-235.5 445.5,-235.5"/>
<text text-anchor="start" x="453.5" y="-253.5" font-family="Helvetica,sans-Serif" font-size="10.00">Shmup/Paterns/Shoot</text>
<text text-anchor="middle" x="502" y="-242.5" font-family="Helvetica,sans-Serif" font-size="10.00">/PaternVSpread.h</text>
</a>
</g>
</g>
<!-- Node6&#45;&gt;Node17 -->
<g id="edge26" class="edge">
<title>Node6&#45;&gt;Node17</title>
<path fill="none" stroke="midnightblue" d="M502,-302.48C502,-295.47 502,-285.19 502,-275.7"/>
<polygon fill="midnightblue" stroke="midnightblue" points="505.5,-275.52 502,-265.52 498.5,-275.52 505.5,-275.52"/>
</g>
<!-- Node18 -->
<g id="node18" class="node">
<title>Node18</title>
<g id="a_node18"><a xlink:href="../../d3/dff/_patern_linear_8h.html" target="_top" xlink:title=" ">
<polygon fill="white" stroke="black" points="576.5,-235.5 576.5,-265.5 689.5,-265.5 689.5,-235.5 576.5,-235.5"/>
<text text-anchor="start" x="584.5" y="-253.5" font-family="Helvetica,sans-Serif" font-size="10.00">Shmup/Paterns/Shoot</text>
<text text-anchor="middle" x="633" y="-242.5" font-family="Helvetica,sans-Serif" font-size="10.00">/PaternLinear.h</text>
</a>
</g>
</g>
<!-- Node6&#45;&gt;Node18 -->
<g id="edge28" class="edge">
<title>Node6&#45;&gt;Node18</title>
<path fill="none" stroke="midnightblue" d="M520.77,-302.48C539.51,-293.96 568.89,-280.62 592.89,-269.72"/>
<polygon fill="midnightblue" stroke="midnightblue" points="594.47,-272.85 602.13,-265.52 591.57,-266.47 594.47,-272.85"/>
</g>
<!-- Node19 -->
<g id="node19" class="node">
<title>Node19</title>
<g id="a_node19"><a xlink:href="../../d2/dff/_patern_rotate_8h.html" target="_top" xlink:title=" ">
<polygon fill="white" stroke="black" points="314.5,-235.5 314.5,-265.5 427.5,-265.5 427.5,-235.5 314.5,-235.5"/>
<text text-anchor="start" x="322.5" y="-253.5" font-family="Helvetica,sans-Serif" font-size="10.00">Shmup/Paterns/Shoot</text>
<text text-anchor="middle" x="371" y="-242.5" font-family="Helvetica,sans-Serif" font-size="10.00">/PaternRotate.h</text>
</a>
</g>
</g>
<!-- Node6&#45;&gt;Node19 -->
<g id="edge30" class="edge">
<title>Node6&#45;&gt;Node19</title>
<path fill="none" stroke="midnightblue" d="M483.23,-302.48C464.49,-293.96 435.11,-280.62 411.11,-269.72"/>
<polygon fill="midnightblue" stroke="midnightblue" points="412.43,-266.47 401.87,-265.52 409.53,-272.85 412.43,-266.47"/>
</g>
<!-- Node7&#45;&gt;Node4 -->
<g id="edge7" class="edge">
<title>Node7&#45;&gt;Node4</title>
<path fill="none" stroke="midnightblue" d="M275.68,-241C342.65,-226.98 468.98,-200.4 471,-199 531.32,-157.28 559.28,-68.03 568.9,-29.43"/>
<polygon fill="midnightblue" stroke="midnightblue" points="572.34,-30.11 571.23,-19.57 565.53,-28.5 572.34,-30.11"/>
</g>
<!-- Node8 -->
<g id="node8" class="node">
<title>Node8</title>
<g id="a_node8"><a xlink:href="../../db/d1b/_a_movable_8h.html" target="_top" xlink:title=" ">
<polygon fill="white" stroke="black" points="361.5,-179.5 361.5,-198.5 462.5,-198.5 462.5,-179.5 361.5,-179.5"/>
<text text-anchor="middle" x="412" y="-186.5" font-family="Helvetica,sans-Serif" font-size="10.00">Shmup/AMovable.h</text>
</a>
</g>
</g>
<!-- Node7&#45;&gt;Node8 -->
<g id="edge8" class="edge">
<title>Node7&#45;&gt;Node8</title>
<path fill="none" stroke="midnightblue" d="M260.36,-240.98C290.98,-230.68 342.66,-213.31 377.05,-201.75"/>
<polygon fill="midnightblue" stroke="midnightblue" points="378.32,-205.01 386.69,-198.51 376.09,-198.38 378.32,-205.01"/>
</g>
<!-- Node13 -->
<g id="node13" class="node">
<title>Node13</title>
<g id="a_node13"><a xlink:href="../../df/d50/_a_patern_8h.html" target="_top" xlink:title=" ">
<polygon fill="white" stroke="black" points="560,-179.5 560,-198.5 690,-198.5 690,-179.5 560,-179.5"/>
<text text-anchor="middle" x="625" y="-186.5" font-family="Helvetica,sans-Serif" font-size="10.00">Shmup/Paterns/APatern.h</text>
</a>
</g>
</g>
<!-- Node7&#45;&gt;Node13 -->
<g id="edge17" class="edge">
<title>Node7&#45;&gt;Node13</title>
<path fill="none" stroke="midnightblue" d="M273.79,-241C283.92,-238.91 294.85,-236.76 305,-235 388.42,-220.51 484.71,-207.46 549.69,-199.2"/>
<polygon fill="midnightblue" stroke="midnightblue" points="550.36,-202.64 559.84,-197.91 549.48,-195.69 550.36,-202.64"/>
</g>
<!-- Node14 -->
<g id="node14" class="node">
<title>Node14</title>
<g id="a_node14"><a xlink:href="../../d5/d36/_collider_8h.html" target="_top" xlink:title=" ">
<polygon fill="white" stroke="black" points="195,-123.5 195,-142.5 325,-142.5 325,-123.5 195,-123.5"/>
<text text-anchor="middle" x="260" y="-130.5" font-family="Helvetica,sans-Serif" font-size="10.00">Shmup/Collision/Collider.h</text>
</a>
</g>
</g>
<!-- Node7&#45;&gt;Node14 -->
<g id="edge18" class="edge">
<title>Node7&#45;&gt;Node14</title>
<path fill="none" stroke="midnightblue" d="M236.88,-240.82C240.91,-222.17 250.49,-177.94 255.97,-152.63"/>
<polygon fill="midnightblue" stroke="midnightblue" points="259.4,-153.3 258.1,-142.78 252.56,-151.82 259.4,-153.3"/>
</g>
<!-- Node16 -->
<g id="node16" class="node">
<title>Node16</title>
<g id="a_node16"><a xlink:href="../../d3/d72/_a_collidable_8h.html" target="_top" xlink:title=" ">
<polygon fill="white" stroke="black" points="86,-179.5 86,-198.5 232,-198.5 232,-179.5 86,-179.5"/>
<text text-anchor="middle" x="159" y="-186.5" font-family="Helvetica,sans-Serif" font-size="10.00">Shmup/Collision/ACollidable.h</text>
</a>
</g>
</g>
<!-- Node7&#45;&gt;Node16 -->
<g id="edge23" class="edge">
<title>Node7&#45;&gt;Node16</title>
<path fill="none" stroke="midnightblue" d="M224.11,-240.98C212.03,-231.52 192.33,-216.1 177.76,-204.69"/>
<polygon fill="midnightblue" stroke="midnightblue" points="179.9,-201.92 169.87,-198.51 175.59,-207.43 179.9,-201.92"/>
</g>
<!-- Node8&#45;&gt;Node4 -->
<g id="edge9" class="edge">
<title>Node8&#45;&gt;Node4</title>
<path fill="none" stroke="midnightblue" d="M423.98,-179.35C435.54,-170.74 453.28,-156.84 467,-143 504.78,-104.89 542.59,-54 561.17,-27.94"/>
<polygon fill="midnightblue" stroke="midnightblue" points="564.19,-29.72 567.11,-19.53 558.48,-25.68 564.19,-29.72"/>
</g>
<!-- Node9 -->
<g id="node9" class="node">
<title>Node9</title>
<g id="a_node9"><a xlink:href="../../d7/daf/_a_graphic_object_8h.html" target="_top" xlink:title=" ">
<polygon fill="white" stroke="black" points="365.5,-123.5 365.5,-142.5 458.5,-142.5 458.5,-123.5 365.5,-123.5"/>
<text text-anchor="middle" x="412" y="-130.5" font-family="Helvetica,sans-Serif" font-size="10.00">AGraphicObject.h</text>
</a>
</g>
</g>
<!-- Node8&#45;&gt;Node9 -->
<g id="edge10" class="edge">
<title>Node8&#45;&gt;Node9</title>
<path fill="none" stroke="midnightblue" d="M412,-179.08C412,-172.01 412,-161.86 412,-152.99"/>
<polygon fill="midnightblue" stroke="midnightblue" points="415.5,-152.75 412,-142.75 408.5,-152.75 415.5,-152.75"/>
</g>
<!-- Node9&#45;&gt;Node4 -->
<g id="edge11" class="edge">
<title>Node9&#45;&gt;Node4</title>
<path fill="none" stroke="midnightblue" d="M425.36,-123.33C438.84,-114.47 460.16,-100.19 478,-87 505.4,-66.75 535.98,-41.85 554.86,-26.19"/>
<polygon fill="midnightblue" stroke="midnightblue" points="557.22,-28.79 562.66,-19.7 552.74,-23.41 557.22,-28.79"/>
</g>
<!-- Node10 -->
<g id="node10" class="node">
<title>Node10</title>
<g id="a_node10"><a xlink:href="../../dc/d80/_instance_list_8h.html" target="_top" xlink:title=" ">
<polygon fill="white" stroke="black" points="47,-62 47,-81 159,-81 159,-62 47,-62"/>
<text text-anchor="middle" x="103" y="-69" font-family="Helvetica,sans-Serif" font-size="10.00">Shmup/InstanceList.h</text>
</a>
</g>
</g>
<!-- Node9&#45;&gt;Node10 -->
<g id="edge12" class="edge">
<title>Node9&#45;&gt;Node10</title>
<path fill="none" stroke="midnightblue" d="M365.12,-123.89C315.93,-115.25 236.38,-100.93 168,-87 162.19,-85.82 156.11,-84.53 150.09,-83.22"/>
<polygon fill="midnightblue" stroke="midnightblue" points="150.59,-79.75 140.07,-81.02 149.09,-86.58 150.59,-79.75"/>
</g>
<!-- Node12 -->
<g id="node12" class="node">
<title>Node12</title>
<g id="a_node12"><a xlink:href="../../da/d02/_transform2_d_8h.html" target="_top" xlink:title=" ">
<polygon fill="white" stroke="black" points="355,-62 355,-81 469,-81 469,-62 355,-62"/>
<text text-anchor="middle" x="412" y="-69" font-family="Helvetica,sans-Serif" font-size="10.00">Shmup/Transform2D.h</text>
</a>
</g>
</g>
<!-- Node9&#45;&gt;Node12 -->
<g id="edge15" class="edge">
<title>Node9&#45;&gt;Node12</title>
<path fill="none" stroke="midnightblue" d="M412,-123.48C412,-115.08 412,-101.98 412,-91.16"/>
<polygon fill="midnightblue" stroke="midnightblue" points="415.5,-91.01 412,-81.01 408.5,-91.01 415.5,-91.01"/>
</g>
<!-- Node10&#45;&gt;Node2 -->
<g id="edge13" class="edge">
<title>Node10&#45;&gt;Node2</title>
<path fill="none" stroke="midnightblue" d="M92.11,-61.98C80.03,-52.52 60.33,-37.1 45.76,-25.69"/>
<polygon fill="midnightblue" stroke="midnightblue" points="47.9,-22.92 37.87,-19.51 43.59,-28.43 47.9,-22.92"/>
</g>
<!-- Node11 -->
<g id="node11" class="node">
<title>Node11</title>
<g id="a_node11"><a xlink:title=" ">
<polygon fill="white" stroke="#bfbfbf" points="148,-0.5 148,-19.5 192,-19.5 192,-0.5 148,-0.5"/>
<text text-anchor="middle" x="170" y="-7.5" font-family="Helvetica,sans-Serif" font-size="10.00">vector</text>
</a>
</g>
</g>
<!-- Node10&#45;&gt;Node11 -->
<g id="edge14" class="edge">
<title>Node10&#45;&gt;Node11</title>
<path fill="none" stroke="midnightblue" d="M112.6,-61.98C123.05,-52.7 139.97,-37.67 152.74,-26.33"/>
<polygon fill="midnightblue" stroke="midnightblue" points="155.27,-28.77 160.42,-19.51 150.62,-23.53 155.27,-28.77"/>
</g>
<!-- Node12&#45;&gt;Node4 -->
<g id="edge16" class="edge">
<title>Node12&#45;&gt;Node4</title>
<path fill="none" stroke="midnightblue" d="M435.07,-61.98C462.68,-51.77 509.12,-34.61 540.4,-23.05"/>
<polygon fill="midnightblue" stroke="midnightblue" points="541.81,-26.26 549.98,-19.51 539.38,-19.69 541.81,-26.26"/>
</g>
<!-- Node14&#45;&gt;Node4 -->
<g id="edge19" class="edge">
<title>Node14&#45;&gt;Node4</title>
<path fill="none" stroke="midnightblue" d="M269.26,-123.32C289.6,-104.32 337.07,-60.42 346,-56 409.63,-24.49 493.6,-15.04 539.49,-12.21"/>
<polygon fill="midnightblue" stroke="midnightblue" points="539.7,-15.7 549.49,-11.66 539.32,-8.71 539.7,-15.7"/>
</g>
<!-- Node14&#45;&gt;Node12 -->
<g id="edge20" class="edge">
<title>Node14&#45;&gt;Node12</title>
<path fill="none" stroke="midnightblue" d="M281.78,-123.48C307.74,-113.31 351.31,-96.26 380.83,-84.7"/>
<polygon fill="midnightblue" stroke="midnightblue" points="382.23,-87.91 390.26,-81.01 379.67,-81.4 382.23,-87.91"/>
</g>
<!-- Node15 -->
<g id="node15" class="node">
<title>Node15</title>
<g id="a_node15"><a xlink:href="../../de/d60/_collider_settings_8h.html" target="_top" xlink:title=" ">
<polygon fill="white" stroke="black" points="177,-56.5 177,-86.5 299,-86.5 299,-56.5 177,-56.5"/>
<text text-anchor="start" x="185" y="-74.5" font-family="Helvetica,sans-Serif" font-size="10.00">Shmup/Collision/Collider</text>
<text text-anchor="middle" x="238" y="-63.5" font-family="Helvetica,sans-Serif" font-size="10.00">Settings.h</text>
</a>
</g>
</g>
<!-- Node14&#45;&gt;Node15 -->
<g id="edge21" class="edge">
<title>Node14&#45;&gt;Node15</title>
<path fill="none" stroke="midnightblue" d="M256.85,-123.48C254.2,-116.32 250.29,-105.75 246.72,-96.08"/>
<polygon fill="midnightblue" stroke="midnightblue" points="249.94,-94.69 243.18,-86.52 243.37,-97.12 249.94,-94.69"/>
</g>
<!-- Node15&#45;&gt;Node11 -->
<g id="edge22" class="edge">
<title>Node15&#45;&gt;Node11</title>
<path fill="none" stroke="midnightblue" d="M221.88,-56.4C211.6,-47.4 198.25,-35.72 187.67,-26.47"/>
<polygon fill="midnightblue" stroke="midnightblue" points="189.73,-23.61 179.89,-19.66 185.12,-28.88 189.73,-23.61"/>
</g>
<!-- Node16&#45;&gt;Node10 -->
<g id="edge25" class="edge">
<title>Node16&#45;&gt;Node10</title>
<path fill="none" stroke="midnightblue" d="M154.79,-179.32C145.67,-160.51 123.92,-115.65 111.71,-90.46"/>
<polygon fill="midnightblue" stroke="midnightblue" points="114.77,-88.75 107.26,-81.28 108.47,-91.81 114.77,-88.75"/>
</g>
<!-- Node16&#45;&gt;Node14 -->
<g id="edge24" class="edge">
<title>Node16&#45;&gt;Node14</title>
<path fill="none" stroke="midnightblue" d="M175.23,-179.32C191.35,-170.7 216.3,-157.36 234.96,-147.39"/>
<polygon fill="midnightblue" stroke="midnightblue" points="236.64,-150.46 243.81,-142.65 233.34,-144.28 236.64,-150.46"/>
</g>
<!-- Node17&#45;&gt;Node13 -->
<g id="edge27" class="edge">
<title>Node17&#45;&gt;Node13</title>
<path fill="none" stroke="midnightblue" d="M531.15,-235.4C551.42,-225.59 578.24,-212.62 598.02,-203.05"/>
<polygon fill="midnightblue" stroke="midnightblue" points="599.62,-206.16 607.1,-198.66 596.58,-199.86 599.62,-206.16"/>
</g>
<!-- Node18&#45;&gt;Node13 -->
<g id="edge29" class="edge">
<title>Node18&#45;&gt;Node13</title>
<path fill="none" stroke="midnightblue" d="M631.1,-235.4C630.03,-227.38 628.66,-217.23 627.5,-208.57"/>
<polygon fill="midnightblue" stroke="midnightblue" points="630.97,-208.1 626.16,-198.66 624.03,-209.04 630.97,-208.1"/>
</g>
<!-- Node19&#45;&gt;Node13 -->
<g id="edge31" class="edge">
<title>Node19&#45;&gt;Node13</title>
<path fill="none" stroke="midnightblue" d="M427.69,-236.22C473.17,-225.57 536.21,-210.8 578.7,-200.85"/>
<polygon fill="midnightblue" stroke="midnightblue" points="579.56,-204.24 588.5,-198.55 577.96,-197.42 579.56,-204.24"/>
</g>
<!-- Node20&#45;&gt;Node4 -->
<g id="edge34" class="edge">
<title>Node20&#45;&gt;Node4</title>
<path fill="none" stroke="midnightblue" d="M663.23,-302.4C673.96,-294.23 689.17,-280.99 698,-266 715.72,-235.9 718,-224.93 718,-190 718,-190 718,-190 718,-132 718,-74.05 648.89,-38.45 606.1,-21.95"/>
<polygon fill="midnightblue" stroke="midnightblue" points="607.21,-18.63 596.62,-18.44 604.78,-25.2 607.21,-18.63"/>
</g>
<!-- Node20&#45;&gt;Node5 -->
<g id="edge35" class="edge">
<title>Node20&#45;&gt;Node5</title>
<path fill="none" stroke="midnightblue" d="M668.91,-302.48C689.89,-292.49 724.85,-275.85 749.09,-264.31"/>
<polygon fill="midnightblue" stroke="midnightblue" points="750.6,-267.47 758.12,-260.01 747.59,-261.15 750.6,-267.47"/>
</g>
<!-- Node21&#45;&gt;Node4 -->
<g id="edge37" class="edge">
<title>Node21&#45;&gt;Node4</title>
<path fill="none" stroke="midnightblue" d="M832.61,-302.28C830.12,-287.84 824.17,-258.25 814,-235 776.21,-148.58 773.81,-114.73 700,-56 672.73,-34.3 634.19,-22.62 606.74,-16.64"/>
<polygon fill="midnightblue" stroke="midnightblue" points="607.3,-13.19 596.8,-14.62 605.9,-20.05 607.3,-13.19"/>
</g>
<!-- Node21&#45;&gt;Node5 -->
<g id="edge38" class="edge">
<title>Node21&#45;&gt;Node5</title>
<path fill="none" stroke="midnightblue" d="M825.69,-302.48C816.82,-293.37 802.55,-278.74 791.58,-267.48"/>
<polygon fill="midnightblue" stroke="midnightblue" points="793.78,-264.73 784.29,-260.01 788.77,-269.61 793.78,-264.73"/>
</g>
<!-- Node23&#45;&gt;Node4 -->
<g id="edge41" class="edge">
<title>Node23&#45;&gt;Node4</title>
<path fill="none" stroke="midnightblue" d="M877.04,-123.25C867.37,-107.08 844.37,-72.66 815,-56 748.17,-18.08 655.83,-11.23 606.79,-10.51"/>
<polygon fill="midnightblue" stroke="midnightblue" points="606.75,-7.01 596.72,-10.44 606.7,-14.01 606.75,-7.01"/>
</g>
</g>
</svg>
