<?xml version="1.0" encoding="UTF-8" standalone="no"?>
<!DOCTYPE svg PUBLIC "-//W3C//DTD SVG 1.1//EN"
 "http://www.w3.org/Graphics/SVG/1.1/DTD/svg11.dtd">
<!-- Generated by graphviz version 2.49.3 (20211027.1534)
 -->
<!-- Title: SequenceMovePatern::SequencePatern Pages: 1 -->
<svg width="434pt" height="228pt"
 viewBox="0.00 0.00 434.00 228.00" xmlns="http://www.w3.org/2000/svg" xmlns:xlink="http://www.w3.org/1999/xlink">
<g id="graph0" class="graph" transform="scale(1 1) rotate(0) translate(4 224)">
<title>SequenceMovePatern::SequencePatern</title>
<polygon fill="white" stroke="transparent" points="-4,4 -4,-224 430,-224 430,4 -4,4"/>
<!-- Node1 -->
<g id="node1" class="node">
<title>Node1</title>
<g id="a_node1"><a xlink:title="The datas of SequenceMovePatern.">
<polygon fill="#bfbfbf" stroke="black" points="256.5,-0.5 256.5,-30.5 369.5,-30.5 369.5,-0.5 256.5,-0.5"/>
<text text-anchor="start" x="264.5" y="-18.5" font-family="Helvetica,sans-Serif" font-size="10.00">SequenceMovePatern</text>
<text text-anchor="middle" x="313" y="-7.5" font-family="Helvetica,sans-Serif" font-size="10.00">::SequencePatern</text>
</a>
</g>
</g>
<!-- Node2 -->
<g id="node2" class="node">
<title>Node2</title>
<g id="a_node2"><a xlink:href="../../d1/dfd/struct_a_offsetable_patern_1_1_i_offserable_patern_data.html" target="_top" xlink:title="Datas for AOffsetablePatern.">
<polygon fill="white" stroke="black" points="129.5,-89.5 129.5,-119.5 242.5,-119.5 242.5,-89.5 129.5,-89.5"/>
<text text-anchor="start" x="137.5" y="-107.5" font-family="Helvetica,sans-Serif" font-size="10.00">AOffsetablePatern::</text>
<text text-anchor="middle" x="186" y="-96.5" font-family="Helvetica,sans-Serif" font-size="10.00">IOffserablePaternData</text>
</a>
</g>
</g>
<!-- Node2&#45;&gt;Node1 -->
<g id="edge1" class="edge">
<title>Node2&#45;&gt;Node1</title>
<path fill="none" stroke="midnightblue" d="M215.24,-83.47C238.82,-67.32 271.38,-45.01 292.32,-30.67"/>
<polygon fill="midnightblue" stroke="midnightblue" points="212.96,-80.79 206.69,-89.33 216.92,-86.56 212.96,-80.79"/>
</g>
<!-- Node3 -->
<g id="node3" class="node">
<title>Node3</title>
<g id="a_node3"><a xlink:href="../../da/dd8/struct_a_patern_1_1_i_patern_data.html" target="_top" xlink:title="Datas to pass to the patern. &#160;Overriden by the child classes.">
<polygon fill="white" stroke="black" points="0,-200.5 0,-219.5 108,-219.5 108,-200.5 0,-200.5"/>
<text text-anchor="middle" x="54" y="-207.5" font-family="Helvetica,sans-Serif" font-size="10.00">APatern::IPaternData</text>
</a>
</g>
</g>
<!-- Node3&#45;&gt;Node2 -->
<g id="edge2" class="edge">
<title>Node3&#45;&gt;Node2</title>
<path fill="none" stroke="midnightblue" d="M72.55,-193.97C90.47,-179.5 118.45,-157.07 143,-138 150.83,-131.92 159.55,-125.3 167.08,-119.63"/>
<polygon fill="midnightblue" stroke="midnightblue" points="70.19,-191.38 64.61,-200.38 74.59,-196.82 70.19,-191.38"/>
</g>
<!-- Node4 -->
<g id="node4" class="node">
<title>Node4</title>
<g id="a_node4"><a xlink:title=" ">
<polygon fill="white" stroke="#bfbfbf" points="126,-200.5 126,-219.5 176,-219.5 176,-200.5 126,-200.5"/>
<text text-anchor="middle" x="151" y="-207.5" font-family="Helvetica,sans-Serif" font-size="10.00">Vector2</text>
</a>
</g>
</g>
<!-- Node4&#45;&gt;Node2 -->
<g id="edge3" class="edge">
<title>Node4&#45;&gt;Node2</title>
<path fill="none" stroke="#9a32cd" stroke-dasharray="5,2" d="M147.44,-190.27C145.5,-175.45 144.78,-154.57 152,-138 155.07,-130.96 160.47,-124.71 166.07,-119.62"/>
<polygon fill="#9a32cd" stroke="#9a32cd" points="144,-190.93 149.04,-200.24 150.91,-189.82 144,-190.93"/>
<text text-anchor="middle" x="183.5" y="-174" font-family="Helvetica,sans-Serif" font-size="10.00"> positionOffset</text>
<text text-anchor="middle" x="183.5" y="-163" font-family="Helvetica,sans-Serif" font-size="10.00">rotationCenter</text>
<text text-anchor="middle" x="183.5" y="-152" font-family="Helvetica,sans-Serif" font-size="10.00">scaleCenter</text>
<text text-anchor="middle" x="183.5" y="-141" font-family="Helvetica,sans-Serif" font-size="10.00">scaleOffset</text>
</g>
<!-- Node5 -->
<g id="node5" class="node">
<title>Node5</title>
<g id="a_node5"><a xlink:title=" ">
<polygon fill="white" stroke="#bfbfbf" points="257.5,-200.5 257.5,-219.5 292.5,-219.5 292.5,-200.5 257.5,-200.5"/>
<text text-anchor="middle" x="275" y="-207.5" font-family="Helvetica,sans-Serif" font-size="10.00">float</text>
</a>
</g>
</g>
<!-- Node5&#45;&gt;Node1 -->
<g id="edge6" class="edge">
<title>Node5&#45;&gt;Node1</title>
<path fill="none" stroke="#9a32cd" stroke-dasharray="5,2" d="M292.38,-192.69C295.01,-189.4 297.38,-185.78 299,-182 321.41,-129.8 317.62,-59.93 314.68,-30.5"/>
<polygon fill="#9a32cd" stroke="#9a32cd" points="289.78,-190.35 285.61,-200.09 294.94,-195.08 289.78,-190.35"/>
<text text-anchor="middle" x="328" y="-102" font-family="Helvetica,sans-Serif" font-size="10.00"> time</text>
</g>
<!-- Node5&#45;&gt;Node2 -->
<g id="edge4" class="edge">
<title>Node5&#45;&gt;Node2</title>
<path fill="none" stroke="#9a32cd" stroke-dasharray="5,2" d="M251.5,-194.37C246.68,-190.71 241.89,-186.52 238,-182 223.6,-165.28 227.55,-156.15 215,-138 210.61,-131.66 205.12,-125.21 200.09,-119.75"/>
<polygon fill="#9a32cd" stroke="#9a32cd" points="249.84,-197.48 260.04,-200.36 253.86,-191.75 249.84,-197.48"/>
<text text-anchor="middle" x="268.5" y="-157.5" font-family="Helvetica,sans-Serif" font-size="10.00"> rotationOffset</text>
</g>
<!-- Node6 -->
<g id="node6" class="node">
<title>Node6</title>
<g id="a_node6"><a xlink:title=" ">
<polygon fill="white" stroke="#bfbfbf" points="353,-95 353,-114 403,-114 403,-95 353,-95"/>
<text text-anchor="middle" x="378" y="-102" font-family="Helvetica,sans-Serif" font-size="10.00">vector&lt;</text>
</a>
</g>
</g>
<!-- Node6&#45;&gt;Node1 -->
<g id="edge5" class="edge">
<title>Node6&#45;&gt;Node1</title>
<path fill="none" stroke="#9a32cd" stroke-dasharray="5,2" d="M365.47,-86.72C353.27,-70.4 334.95,-45.87 323.5,-30.55"/>
<polygon fill="#9a32cd" stroke="#9a32cd" points="362.74,-88.92 371.53,-94.84 368.35,-84.73 362.74,-88.92"/>
<text text-anchor="middle" x="389.5" y="-63" font-family="Helvetica,sans-Serif" font-size="10.00"> paternSequence</text>
<text text-anchor="middle" x="389.5" y="-52" font-family="Helvetica,sans-Serif" font-size="10.00">sequenceDone</text>
</g>
</g>
</svg>
