<?xml version="1.0" encoding="UTF-8" standalone="no"?>
<!DOCTYPE svg PUBLIC "-//W3C//DTD SVG 1.1//EN"
 "http://www.w3.org/Graphics/SVG/1.1/DTD/svg11.dtd">
<!-- Generated by graphviz version 2.49.3 (20211027.1534)
 -->
<!-- Title: SequenceMovePatern::SequencePatern Pages: 1 -->
<svg width="365pt" height="228pt"
 viewBox="0.00 0.00 365.00 228.00" xmlns="http://www.w3.org/2000/svg" xmlns:xlink="http://www.w3.org/1999/xlink">
<g id="graph0" class="graph" transform="scale(1 1) rotate(0) translate(4 224)">
<title>SequenceMovePatern::SequencePatern</title>
<polygon fill="white" stroke="transparent" points="-4,4 -4,-224 361,-224 361,4 -4,4"/>
<!-- Node1 -->
<g id="node1" class="node">
<title>Node1</title>
<g id="a_node1"><a xlink:title="The datas of SequenceMovePatern.">
<polygon fill="#bfbfbf" stroke="black" points="154.5,-0.5 154.5,-30.5 267.5,-30.5 267.5,-0.5 154.5,-0.5"/>
<text text-anchor="start" x="162.5" y="-18.5" font-family="Helvetica,sans-Serif" font-size="10.00">SequenceMovePatern</text>
<text text-anchor="middle" x="211" y="-7.5" font-family="Helvetica,sans-Serif" font-size="10.00">::SequencePatern</text>
</a>
</g>
</g>
<!-- Node2 -->
<g id="node2" class="node">
<title>Node2</title>
<g id="a_node2"><a xlink:href="../../d1/dfd/struct_a_offsetable_patern_1_1_i_offserable_patern_data.html" target="_top" xlink:title="Datas for AOffsetablePatern.">
<polygon fill="white" stroke="black" points="82.5,-89.5 82.5,-119.5 195.5,-119.5 195.5,-89.5 82.5,-89.5"/>
<text text-anchor="start" x="90.5" y="-107.5" font-family="Helvetica,sans-Serif" font-size="10.00">AOffsetablePatern::</text>
<text text-anchor="middle" x="139" y="-96.5" font-family="Helvetica,sans-Serif" font-size="10.00">IOffserablePaternData</text>
</a>
</g>
</g>
<!-- Node2&#45;&gt;Node1 -->
<g id="edge1" class="edge">
<title>Node2&#45;&gt;Node1</title>
<path fill="none" stroke="midnightblue" d="M157.36,-81.32C170.57,-65.36 187.98,-44.31 199.33,-30.6"/>
<polygon fill="midnightblue" stroke="midnightblue" points="154.57,-79.2 150.89,-89.13 159.96,-83.66 154.57,-79.2"/>
</g>
<!-- Node3 -->
<g id="node3" class="node">
<title>Node3</title>
<g id="a_node3"><a xlink:href="../../da/dd8/struct_a_patern_1_1_i_patern_data.html" target="_top" xlink:title="Datas to pass to the patern. &#160;Overriden by the child classes.">
<polygon fill="white" stroke="black" points="75,-200.5 75,-219.5 183,-219.5 183,-200.5 75,-200.5"/>
<text text-anchor="middle" x="129" y="-207.5" font-family="Helvetica,sans-Serif" font-size="10.00">APatern::IPaternData</text>
</a>
</g>
</g>
<!-- Node3&#45;&gt;Node2 -->
<g id="edge2" class="edge">
<title>Node3&#45;&gt;Node2</title>
<path fill="none" stroke="midnightblue" d="M130.84,-190C132.79,-169.74 135.85,-138.11 137.61,-119.84"/>
<polygon fill="midnightblue" stroke="midnightblue" points="127.33,-189.89 129.85,-200.18 134.3,-190.56 127.33,-189.89"/>
</g>
<!-- Node4 -->
<g id="node4" class="node">
<title>Node4</title>
<g id="a_node4"><a xlink:title=" ">
<polygon fill="white" stroke="#bfbfbf" points="0,-200.5 0,-219.5 50,-219.5 50,-200.5 0,-200.5"/>
<text text-anchor="middle" x="25" y="-207.5" font-family="Helvetica,sans-Serif" font-size="10.00">Vector2</text>
</a>
</g>
</g>
<!-- Node4&#45;&gt;Node1 -->
<g id="edge6" class="edge">
<title>Node4&#45;&gt;Node1</title>
<path fill="none" stroke="#9a32cd" stroke-dasharray="5,2" d="M20.69,-190.63C15.86,-165.22 11.28,-119.08 33,-89 61.03,-50.18 113.56,-32.1 154.32,-23.71"/>
<polygon fill="#9a32cd" stroke="#9a32cd" points="17.27,-191.38 22.77,-200.43 24.12,-189.92 17.27,-191.38"/>
<text text-anchor="middle" x="53" y="-107.5" font-family="Helvetica,sans-Serif" font-size="10.00"> direction</text>
<text text-anchor="middle" x="53" y="-96.5" font-family="Helvetica,sans-Serif" font-size="10.00">position</text>
</g>
<!-- Node4&#45;&gt;Node2 -->
<g id="edge3" class="edge">
<title>Node4&#45;&gt;Node2</title>
<path fill="none" stroke="#9a32cd" stroke-dasharray="5,2" d="M31.45,-190.75C37.84,-174.98 48.98,-152.5 65,-138 73.43,-130.37 83.93,-124.32 94.35,-119.6"/>
<polygon fill="#9a32cd" stroke="#9a32cd" points="28.06,-189.82 27.79,-200.41 34.61,-192.3 28.06,-189.82"/>
<text text-anchor="middle" x="96.5" y="-174" font-family="Helvetica,sans-Serif" font-size="10.00"> positionOffset</text>
<text text-anchor="middle" x="96.5" y="-163" font-family="Helvetica,sans-Serif" font-size="10.00">rotationCenter</text>
<text text-anchor="middle" x="96.5" y="-152" font-family="Helvetica,sans-Serif" font-size="10.00">scaleCenter</text>
<text text-anchor="middle" x="96.5" y="-141" font-family="Helvetica,sans-Serif" font-size="10.00">scaleOffset</text>
</g>
<!-- Node5 -->
<g id="node5" class="node">
<title>Node5</title>
<g id="a_node5"><a xlink:title=" ">
<polygon fill="white" stroke="#bfbfbf" points="210.5,-200.5 210.5,-219.5 245.5,-219.5 245.5,-200.5 210.5,-200.5"/>
<text text-anchor="middle" x="228" y="-207.5" font-family="Helvetica,sans-Serif" font-size="10.00">float</text>
</a>
</g>
</g>
<!-- Node5&#45;&gt;Node1 -->
<g id="edge5" class="edge">
<title>Node5&#45;&gt;Node1</title>
<path fill="none" stroke="#9a32cd" stroke-dasharray="5,2" d="M227.2,-190.18C226.53,-175.86 225.44,-155.67 224,-138 220.82,-99.1 215.5,-53.35 212.75,-30.69"/>
<polygon fill="#9a32cd" stroke="#9a32cd" points="223.7,-190.41 227.65,-200.25 230.7,-190.1 223.7,-190.41"/>
<text text-anchor="middle" x="247" y="-107.5" font-family="Helvetica,sans-Serif" font-size="10.00"> orientation</text>
<text text-anchor="middle" x="247" y="-96.5" font-family="Helvetica,sans-Serif" font-size="10.00">time</text>
</g>
<!-- Node5&#45;&gt;Node2 -->
<g id="edge4" class="edge">
<title>Node5&#45;&gt;Node2</title>
<path fill="none" stroke="#9a32cd" stroke-dasharray="5,2" d="M200.59,-200.23C185.36,-194.87 168.41,-187.92 163,-182 147.03,-164.53 141.69,-136.53 139.9,-119.69"/>
<polygon fill="#9a32cd" stroke="#9a32cd" points="199.62,-203.6 210.22,-203.5 201.87,-196.97 199.62,-203.6"/>
<text text-anchor="middle" x="193.5" y="-157.5" font-family="Helvetica,sans-Serif" font-size="10.00"> rotationOffset</text>
</g>
<!-- Node6 -->
<g id="node6" class="node">
<title>Node6</title>
<g id="a_node6"><a xlink:title=" ">
<polygon fill="white" stroke="#bfbfbf" points="304,-95 304,-114 354,-114 354,-95 304,-95"/>
<text text-anchor="middle" x="329" y="-102" font-family="Helvetica,sans-Serif" font-size="10.00">vector&lt;</text>
</a>
</g>
</g>
<!-- Node6&#45;&gt;Node1 -->
<g id="edge7" class="edge">
<title>Node6&#45;&gt;Node1</title>
<path fill="none" stroke="#9a32cd" stroke-dasharray="5,2" d="M308.95,-88.72C286.9,-72.46 251.71,-46.51 230.05,-30.55"/>
<polygon fill="#9a32cd" stroke="#9a32cd" points="307.13,-91.72 317.25,-94.84 311.28,-86.09 307.13,-91.72"/>
<text text-anchor="middle" x="320.5" y="-63" font-family="Helvetica,sans-Serif" font-size="10.00"> paternSequence</text>
<text text-anchor="middle" x="320.5" y="-52" font-family="Helvetica,sans-Serif" font-size="10.00">sequenceDone</text>
</g>
</g>
</svg>
