<?xml version="1.0" encoding="UTF-8" standalone="no"?>
<!DOCTYPE svg PUBLIC "-//W3C//DTD SVG 1.1//EN"
 "http://www.w3.org/Graphics/SVG/1.1/DTD/svg11.dtd">
<!-- Generated by graphviz version 2.49.3 (20211027.1534)
 -->
<!-- Title: RayLib_SHMUP/src/Namespaces/Parser.cpp Pages: 1 -->
<svg width="651pt" height="285pt"
 viewBox="0.00 0.00 650.55 285.00" xmlns="http://www.w3.org/2000/svg" xmlns:xlink="http://www.w3.org/1999/xlink">
<g id="graph0" class="graph" transform="scale(1 1) rotate(0) translate(4 281)">
<title>RayLib_SHMUP/src/Namespaces/Parser.cpp</title>
<polygon fill="white" stroke="transparent" points="-4,4 -4,-281 646.55,-281 646.55,4 -4,4"/>
<!-- Node1 -->
<g id="node1" class="node">
<title>Node1</title>
<g id="a_node1"><a xlink:title=" ">
<polygon fill="#bfbfbf" stroke="black" points="291.55,-246.5 291.55,-276.5 457.55,-276.5 457.55,-246.5 291.55,-246.5"/>
<text text-anchor="start" x="299.55" y="-264.5" font-family="Helvetica,sans-Serif" font-size="10.00">RayLib_SHMUP/src/Namespaces</text>
<text text-anchor="middle" x="374.55" y="-253.5" font-family="Helvetica,sans-Serif" font-size="10.00">/Parser.cpp</text>
</a>
</g>
</g>
<!-- Node2 -->
<g id="node2" class="node">
<title>Node2</title>
<g id="a_node2"><a xlink:title=" ">
<polygon fill="white" stroke="#bfbfbf" points="91.05,-0.5 91.05,-19.5 138.05,-19.5 138.05,-0.5 91.05,-0.5"/>
<text text-anchor="middle" x="114.55" y="-7.5" font-family="Helvetica,sans-Serif" font-size="10.00">raylib.h</text>
</a>
</g>
</g>
<!-- Node1&#45;&gt;Node2 -->
<g id="edge1" class="edge">
<title>Node1&#45;&gt;Node2</title>
<path fill="none" stroke="midnightblue" d="M291.27,-258.54C234.52,-254.09 159.31,-241.92 100.55,-210 31.66,-172.58 -28.02,-121.83 14.55,-56 29.07,-33.54 57.77,-22.18 80.71,-16.5"/>
<polygon fill="midnightblue" stroke="midnightblue" points="81.77,-19.85 90.78,-14.27 80.26,-13.02 81.77,-19.85"/>
</g>
<!-- Node3 -->
<g id="node3" class="node">
<title>Node3</title>
<g id="a_node3"><a xlink:title=" ">
<polygon fill="white" stroke="#bfbfbf" points="23.55,-62 23.55,-81 77.55,-81 77.55,-62 23.55,-62"/>
<text text-anchor="middle" x="50.55" y="-69" font-family="Helvetica,sans-Serif" font-size="10.00">iostream</text>
</a>
</g>
</g>
<!-- Node1&#45;&gt;Node3 -->
<g id="edge2" class="edge">
<title>Node1&#45;&gt;Node3</title>
<path fill="none" stroke="midnightblue" d="M291.25,-255.83C219.23,-247.04 118.32,-222.37 63.55,-154 49.37,-136.3 47.76,-109.34 48.59,-91.33"/>
<polygon fill="midnightblue" stroke="midnightblue" points="52.09,-91.45 49.36,-81.21 45.11,-90.92 52.09,-91.45"/>
</g>
<!-- Node4 -->
<g id="node4" class="node">
<title>Node4</title>
<g id="a_node4"><a xlink:title=" ">
<polygon fill="white" stroke="#bfbfbf" points="392.05,-62 392.05,-81 433.05,-81 433.05,-62 392.05,-62"/>
<text text-anchor="middle" x="412.55" y="-69" font-family="Helvetica,sans-Serif" font-size="10.00">string</text>
</a>
</g>
</g>
<!-- Node1&#45;&gt;Node4 -->
<g id="edge3" class="edge">
<title>Node1&#45;&gt;Node4</title>
<path fill="none" stroke="midnightblue" d="M394.42,-246.26C418.02,-228 456.11,-193.88 471.55,-154 476.52,-141.15 477.31,-135.52 471.55,-123 464.45,-107.58 450.06,-95.11 437.26,-86.42"/>
<polygon fill="midnightblue" stroke="midnightblue" points="439.09,-83.43 428.77,-81.01 435.33,-89.34 439.09,-83.43"/>
</g>
<!-- Node5 -->
<g id="node5" class="node">
<title>Node5</title>
<g id="a_node5"><a xlink:title=" ">
<polygon fill="white" stroke="#bfbfbf" points="518.55,-190.5 518.55,-209.5 574.55,-209.5 574.55,-190.5 518.55,-190.5"/>
<text text-anchor="middle" x="546.55" y="-197.5" font-family="Helvetica,sans-Serif" font-size="10.00">algorithm</text>
</a>
</g>
</g>
<!-- Node1&#45;&gt;Node5 -->
<g id="edge4" class="edge">
<title>Node1&#45;&gt;Node5</title>
<path fill="none" stroke="midnightblue" d="M415.31,-246.4C444.77,-236.21 484.14,-222.59 512.05,-212.93"/>
<polygon fill="midnightblue" stroke="midnightblue" points="513.47,-216.15 521.77,-209.57 511.18,-209.53 513.47,-216.15"/>
</g>
<!-- Node6 -->
<g id="node6" class="node">
<title>Node6</title>
<g id="a_node6"><a xlink:title=" ">
<polygon fill="white" stroke="#bfbfbf" points="403.05,-129 403.05,-148 462.05,-148 462.05,-129 403.05,-129"/>
<text text-anchor="middle" x="432.55" y="-136" font-family="Helvetica,sans-Serif" font-size="10.00">stdexcept</text>
</a>
</g>
</g>
<!-- Node1&#45;&gt;Node6 -->
<g id="edge5" class="edge">
<title>Node1&#45;&gt;Node6</title>
<path fill="none" stroke="midnightblue" d="M381.43,-246.14C392.09,-223.91 412.57,-181.19 424.11,-157.11"/>
<polygon fill="midnightblue" stroke="midnightblue" points="427.28,-158.58 428.45,-148.05 420.97,-155.56 427.28,-158.58"/>
</g>
<!-- Node7 -->
<g id="node7" class="node">
<title>Node7</title>
<g id="a_node7"><a xlink:title=" ">
<polygon fill="white" stroke="#bfbfbf" points="592.55,-190.5 592.55,-209.5 642.55,-209.5 642.55,-190.5 592.55,-190.5"/>
<text text-anchor="middle" x="617.55" y="-197.5" font-family="Helvetica,sans-Serif" font-size="10.00">typeinfo</text>
</a>
</g>
</g>
<!-- Node1&#45;&gt;Node7 -->
<g id="edge6" class="edge">
<title>Node1&#45;&gt;Node7</title>
<path fill="none" stroke="midnightblue" d="M434.09,-246.48C473.58,-237.09 526.81,-224.28 582.3,-210.28"/>
<polygon fill="midnightblue" stroke="midnightblue" points="583.48,-213.59 592.31,-207.75 581.76,-206.81 583.48,-213.59"/>
</g>
<!-- Node8 -->
<g id="node8" class="node">
<title>Node8</title>
<g id="a_node8"><a xlink:href="../../d9/dc1/_utils_8h.html" target="_top" xlink:title=" ">
<polygon fill="white" stroke="black" points="100.05,-129 100.05,-148 205.05,-148 205.05,-129 100.05,-129"/>
<text text-anchor="middle" x="152.55" y="-136" font-family="Helvetica,sans-Serif" font-size="10.00">Namespaces/Utils.h</text>
</a>
</g>
</g>
<!-- Node1&#45;&gt;Node8 -->
<g id="edge7" class="edge">
<title>Node1&#45;&gt;Node8</title>
<path fill="none" stroke="midnightblue" d="M321.68,-246.43C294.58,-238 261.67,-225.82 234.55,-210 208.59,-194.85 183.03,-171.08 167.52,-155.39"/>
<polygon fill="midnightblue" stroke="midnightblue" points="169.85,-152.77 160.38,-148.02 164.82,-157.63 169.85,-152.77"/>
</g>
<!-- Node11 -->
<g id="node11" class="node">
<title>Node11</title>
<g id="a_node11"><a xlink:href="../../de/d40/_parser_8h.html" target="_top" xlink:title=" ">
<polygon fill="white" stroke="black" points="244.05,-190.5 244.05,-209.5 357.05,-209.5 357.05,-190.5 244.05,-190.5"/>
<text text-anchor="middle" x="300.55" y="-197.5" font-family="Helvetica,sans-Serif" font-size="10.00">Namespaces/Parser.h</text>
</a>
</g>
</g>
<!-- Node1&#45;&gt;Node11 -->
<g id="edge12" class="edge">
<title>Node1&#45;&gt;Node11</title>
<path fill="none" stroke="midnightblue" d="M357.01,-246.4C345.71,-237.31 331.01,-225.49 319.44,-216.19"/>
<polygon fill="midnightblue" stroke="midnightblue" points="321.3,-213.2 311.32,-209.66 316.92,-218.65 321.3,-213.2"/>
</g>
<!-- Node8&#45;&gt;Node3 -->
<g id="edge8" class="edge">
<title>Node8&#45;&gt;Node3</title>
<path fill="none" stroke="midnightblue" d="M138.79,-128.73C121.82,-117.92 92.74,-99.38 72.62,-86.57"/>
<polygon fill="midnightblue" stroke="midnightblue" points="74.4,-83.55 64.09,-81.13 70.64,-89.45 74.4,-83.55"/>
</g>
<!-- Node8&#45;&gt;Node4 -->
<g id="edge9" class="edge">
<title>Node8&#45;&gt;Node4</title>
<path fill="none" stroke="midnightblue" d="M188,-128.92C196.37,-126.94 205.27,-124.87 213.55,-123 288.47,-106.12 309.9,-111.89 382.55,-87 384.17,-86.45 385.81,-85.83 387.45,-85.16"/>
<polygon fill="midnightblue" stroke="midnightblue" points="388.95,-88.33 396.66,-81.06 386.1,-81.94 388.95,-88.33"/>
</g>
<!-- Node9 -->
<g id="node9" class="node">
<title>Node9</title>
<g id="a_node9"><a xlink:title=" ">
<polygon fill="white" stroke="#bfbfbf" points="173.55,-62 173.55,-81 217.55,-81 217.55,-62 173.55,-62"/>
<text text-anchor="middle" x="195.55" y="-69" font-family="Helvetica,sans-Serif" font-size="10.00">vector</text>
</a>
</g>
</g>
<!-- Node8&#45;&gt;Node9 -->
<g id="edge10" class="edge">
<title>Node8&#45;&gt;Node9</title>
<path fill="none" stroke="midnightblue" d="M158.35,-128.73C164.93,-118.79 175.81,-102.34 184.11,-89.79"/>
<polygon fill="midnightblue" stroke="midnightblue" points="187.24,-91.4 189.84,-81.13 181.41,-87.54 187.24,-91.4"/>
</g>
<!-- Node10 -->
<g id="node10" class="node">
<title>Node10</title>
<g id="a_node10"><a xlink:title=" ">
<polygon fill="white" stroke="#bfbfbf" points="96.05,-62 96.05,-81 155.05,-81 155.05,-62 96.05,-62"/>
<text text-anchor="middle" x="125.55" y="-69" font-family="Helvetica,sans-Serif" font-size="10.00">functional</text>
</a>
</g>
</g>
<!-- Node8&#45;&gt;Node10 -->
<g id="edge11" class="edge">
<title>Node8&#45;&gt;Node10</title>
<path fill="none" stroke="midnightblue" d="M148.91,-128.73C144.86,-118.99 138.21,-102.98 133.04,-90.53"/>
<polygon fill="midnightblue" stroke="midnightblue" points="136.2,-89.02 129.13,-81.13 129.74,-91.7 136.2,-89.02"/>
</g>
<!-- Node11&#45;&gt;Node3 -->
<g id="edge13" class="edge">
<title>Node11&#45;&gt;Node3</title>
<path fill="none" stroke="midnightblue" d="M244.02,-192.51C190.22,-185.34 114.06,-172.35 90.55,-154 70.4,-138.27 59.73,-109.76 54.61,-90.98"/>
<polygon fill="midnightblue" stroke="midnightblue" points="58,-90.09 52.21,-81.21 51.2,-91.76 58,-90.09"/>
</g>
<!-- Node11&#45;&gt;Node4 -->
<g id="edge14" class="edge">
<title>Node11&#45;&gt;Node4</title>
<path fill="none" stroke="midnightblue" d="M313.18,-190.23C324.9,-181.74 342.46,-168.11 355.55,-154 374.2,-133.89 391.65,-107.36 402.21,-90.12"/>
<polygon fill="midnightblue" stroke="midnightblue" points="405.44,-91.54 407.59,-81.16 399.44,-87.93 405.44,-91.54"/>
</g>
<!-- Node11&#45;&gt;Node6 -->
<g id="edge15" class="edge">
<title>Node11&#45;&gt;Node6</title>
<path fill="none" stroke="midnightblue" d="M319.46,-190.48C341.71,-180.45 378.86,-163.7 404.48,-152.15"/>
<polygon fill="midnightblue" stroke="midnightblue" points="405.99,-155.31 413.67,-148.01 403.12,-148.93 405.99,-155.31"/>
</g>
<!-- Node11&#45;&gt;Node8 -->
<g id="edge16" class="edge">
<title>Node11&#45;&gt;Node8</title>
<path fill="none" stroke="midnightblue" d="M279.35,-190.48C254.18,-180.36 212.01,-163.4 183.27,-151.85"/>
<polygon fill="midnightblue" stroke="midnightblue" points="184.3,-148.49 173.72,-148.01 181.69,-154.99 184.3,-148.49"/>
</g>
<!-- Node12 -->
<g id="node12" class="node">
<title>Node12</title>
<g id="a_node12"><a xlink:href="../../d1/d98/_sequence_move_patern_8h.html" target="_top" xlink:title=" ">
<polygon fill="white" stroke="black" points="223.05,-123.5 223.05,-153.5 346.05,-153.5 346.05,-123.5 223.05,-123.5"/>
<text text-anchor="start" x="231.05" y="-141.5" font-family="Helvetica,sans-Serif" font-size="10.00">Shmup/Paterns/Enemy</text>
<text text-anchor="middle" x="284.55" y="-130.5" font-family="Helvetica,sans-Serif" font-size="10.00">/SequenceMovePatern.h</text>
</a>
</g>
</g>
<!-- Node11&#45;&gt;Node12 -->
<g id="edge17" class="edge">
<title>Node11&#45;&gt;Node12</title>
<path fill="none" stroke="midnightblue" d="M298.26,-190.48C296.35,-183.4 293.55,-172.97 290.97,-163.39"/>
<polygon fill="midnightblue" stroke="midnightblue" points="294.3,-162.27 288.32,-153.52 287.54,-164.09 294.3,-162.27"/>
</g>
<!-- Node12&#45;&gt;Node3 -->
<g id="edge21" class="edge">
<title>Node12&#45;&gt;Node3</title>
<path fill="none" stroke="midnightblue" d="M222.85,-124C183.47,-114.83 131.56,-101.73 86.55,-87 84.42,-86.3 82.23,-85.54 80.04,-84.74"/>
<polygon fill="midnightblue" stroke="midnightblue" points="81.15,-81.42 70.56,-81.11 78.64,-87.96 81.15,-81.42"/>
</g>
<!-- Node12&#45;&gt;Node4 -->
<g id="edge22" class="edge">
<title>Node12&#45;&gt;Node4</title>
<path fill="none" stroke="midnightblue" d="M312.32,-123.4C334.48,-112.14 365.29,-96.5 386.88,-85.54"/>
<polygon fill="midnightblue" stroke="midnightblue" points="388.47,-88.66 395.8,-81.01 385.3,-82.41 388.47,-88.66"/>
</g>
<!-- Node12&#45;&gt;Node9 -->
<g id="edge23" class="edge">
<title>Node12&#45;&gt;Node9</title>
<path fill="none" stroke="midnightblue" d="M265.24,-123.4C250.59,-112.7 230.51,-98.03 215.67,-87.19"/>
<polygon fill="midnightblue" stroke="midnightblue" points="217.34,-84.08 207.2,-81.01 213.21,-89.73 217.34,-84.08"/>
</g>
<!-- Node13 -->
<g id="node13" class="node">
<title>Node13</title>
<g id="a_node13"><a xlink:href="../../dc/d8f/_a_offsetable_patern_8h.html" target="_top" xlink:title=" ">
<polygon fill="white" stroke="black" points="235.55,-56.5 235.55,-86.5 373.55,-86.5 373.55,-56.5 235.55,-56.5"/>
<text text-anchor="start" x="243.55" y="-74.5" font-family="Helvetica,sans-Serif" font-size="10.00">Shmup/Paterns/AOffsetable</text>
<text text-anchor="middle" x="304.55" y="-63.5" font-family="Helvetica,sans-Serif" font-size="10.00">Patern.h</text>
</a>
</g>
</g>
<!-- Node12&#45;&gt;Node13 -->
<g id="edge18" class="edge">
<title>Node12&#45;&gt;Node13</title>
<path fill="none" stroke="midnightblue" d="M288.89,-123.4C291.33,-115.47 294.43,-105.38 297.24,-96.27"/>
<polygon fill="midnightblue" stroke="midnightblue" points="300.62,-97.16 300.22,-86.58 293.93,-95.1 300.62,-97.16"/>
</g>
<!-- Node13&#45;&gt;Node2 -->
<g id="edge19" class="edge">
<title>Node13&#45;&gt;Node2</title>
<path fill="none" stroke="midnightblue" d="M259.52,-56.4C225.31,-45.69 179.01,-31.19 148.03,-21.48"/>
<polygon fill="midnightblue" stroke="midnightblue" points="148.74,-18.04 138.15,-18.39 146.65,-24.72 148.74,-18.04"/>
</g>
<!-- Node14 -->
<g id="node14" class="node">
<title>Node14</title>
<g id="a_node14"><a xlink:href="../../df/d50/_a_patern_8h.html" target="_top" xlink:title=" ">
<polygon fill="white" stroke="black" points="275.05,-0.5 275.05,-19.5 334.05,-19.5 334.05,-0.5 275.05,-0.5"/>
<text text-anchor="middle" x="304.55" y="-7.5" font-family="Helvetica,sans-Serif" font-size="10.00">APatern.h</text>
</a>
</g>
</g>
<!-- Node13&#45;&gt;Node14 -->
<g id="edge20" class="edge">
<title>Node13&#45;&gt;Node14</title>
<path fill="none" stroke="midnightblue" d="M304.55,-56.4C304.55,-48.47 304.55,-38.46 304.55,-29.86"/>
<polygon fill="midnightblue" stroke="midnightblue" points="308.05,-29.66 304.55,-19.66 301.05,-29.66 308.05,-29.66"/>
</g>
</g>
</svg>
