<?xml version="1.0" encoding="UTF-8" standalone="no"?>
<!DOCTYPE svg PUBLIC "-//W3C//DTD SVG 1.1//EN"
 "http://www.w3.org/Graphics/SVG/1.1/DTD/svg11.dtd">
<!-- Generated by graphviz version 2.49.3 (20211027.1534)
 -->
<!-- Title: RayLib_SHMUP/src/Namespaces/Parser.cpp Pages: 1 -->
<svg width="571pt" height="285pt"
 viewBox="0.00 0.00 570.99 285.00" xmlns="http://www.w3.org/2000/svg" xmlns:xlink="http://www.w3.org/1999/xlink">
<g id="graph0" class="graph" transform="scale(1 1) rotate(0) translate(4 281)">
<title>RayLib_SHMUP/src/Namespaces/Parser.cpp</title>
<polygon fill="white" stroke="transparent" points="-4,4 -4,-281 566.99,-281 566.99,4 -4,4"/>
<!-- Node1 -->
<g id="node1" class="node">
<title>Node1</title>
<g id="a_node1"><a xlink:title=" ">
<polygon fill="#bfbfbf" stroke="black" points="195.99,-246.5 195.99,-276.5 361.99,-276.5 361.99,-246.5 195.99,-246.5"/>
<text text-anchor="start" x="203.99" y="-264.5" font-family="Helvetica,sans-Serif" font-size="10.00">RayLib_SHMUP/src/Namespaces</text>
<text text-anchor="middle" x="278.99" y="-253.5" font-family="Helvetica,sans-Serif" font-size="10.00">/Parser.cpp</text>
</a>
</g>
</g>
<!-- Node2 -->
<g id="node2" class="node">
<title>Node2</title>
<g id="a_node2"><a xlink:title=" ">
<polygon fill="white" stroke="#bfbfbf" points="85.49,-0.5 85.49,-19.5 132.49,-19.5 132.49,-0.5 85.49,-0.5"/>
<text text-anchor="middle" x="108.99" y="-7.5" font-family="Helvetica,sans-Serif" font-size="10.00">raylib.h</text>
</a>
</g>
</g>
<!-- Node1&#45;&gt;Node2 -->
<g id="edge1" class="edge">
<title>Node1&#45;&gt;Node2</title>
<path fill="none" stroke="midnightblue" d="M195.61,-249.04C161.34,-241.64 122.4,-229.57 90.99,-210 62.92,-192.51 60.34,-181.51 41.99,-154 16.49,-115.77 -15.96,-94.59 8.99,-56 23.51,-33.54 52.21,-22.18 75.15,-16.5"/>
<polygon fill="midnightblue" stroke="midnightblue" points="76.21,-19.85 85.22,-14.27 74.7,-13.02 76.21,-19.85"/>
</g>
<!-- Node3 -->
<g id="node3" class="node">
<title>Node3</title>
<g id="a_node3"><a xlink:title=" ">
<polygon fill="white" stroke="#bfbfbf" points="17.99,-62 17.99,-81 71.99,-81 71.99,-62 17.99,-62"/>
<text text-anchor="middle" x="44.99" y="-69" font-family="Helvetica,sans-Serif" font-size="10.00">iostream</text>
</a>
</g>
</g>
<!-- Node1&#45;&gt;Node3 -->
<g id="edge2" class="edge">
<title>Node1&#45;&gt;Node3</title>
<path fill="none" stroke="midnightblue" d="M213.76,-246.48C163.16,-232.07 95.51,-204.39 57.99,-154 44.45,-135.81 42.68,-108.97 43.31,-91.12"/>
<polygon fill="midnightblue" stroke="midnightblue" points="46.8,-91.3 43.94,-81.1 39.82,-90.86 46.8,-91.3"/>
</g>
<!-- Node4 -->
<g id="node4" class="node">
<title>Node4</title>
<g id="a_node4"><a xlink:title=" ">
<polygon fill="white" stroke="#bfbfbf" points="386.49,-62 386.49,-81 427.49,-81 427.49,-62 386.49,-62"/>
<text text-anchor="middle" x="406.99" y="-69" font-family="Helvetica,sans-Serif" font-size="10.00">string</text>
</a>
</g>
</g>
<!-- Node1&#45;&gt;Node4 -->
<g id="edge3" class="edge">
<title>Node1&#45;&gt;Node4</title>
<path fill="none" stroke="midnightblue" d="M332.5,-246.43C377.09,-231.56 437.71,-203.24 465.99,-154 472.85,-142.05 471.75,-135.52 465.99,-123 458.89,-107.58 444.5,-95.11 431.71,-86.42"/>
<polygon fill="midnightblue" stroke="midnightblue" points="433.53,-83.43 423.22,-81.01 429.77,-89.34 433.53,-83.43"/>
</g>
<!-- Node5 -->
<g id="node5" class="node">
<title>Node5</title>
<g id="a_node5"><a xlink:title=" ">
<polygon fill="white" stroke="#bfbfbf" points="397.49,-129 397.49,-148 456.49,-148 456.49,-129 397.49,-129"/>
<text text-anchor="middle" x="426.99" y="-136" font-family="Helvetica,sans-Serif" font-size="10.00">stdexcept</text>
</a>
</g>
</g>
<!-- Node1&#45;&gt;Node5 -->
<g id="edge4" class="edge">
<title>Node1&#45;&gt;Node5</title>
<path fill="none" stroke="midnightblue" d="M297.99,-246.41C311.3,-236.44 329.42,-222.64 344.99,-210 367.71,-191.57 393.16,-169.45 409.59,-154.97"/>
<polygon fill="midnightblue" stroke="midnightblue" points="412.13,-157.39 417.3,-148.15 407.49,-152.15 412.13,-157.39"/>
</g>
<!-- Node6 -->
<g id="node6" class="node">
<title>Node6</title>
<g id="a_node6"><a xlink:title=" ">
<polygon fill="white" stroke="#bfbfbf" points="512.99,-190.5 512.99,-209.5 562.99,-209.5 562.99,-190.5 512.99,-190.5"/>
<text text-anchor="middle" x="537.99" y="-197.5" font-family="Helvetica,sans-Serif" font-size="10.00">typeinfo</text>
</a>
</g>
</g>
<!-- Node1&#45;&gt;Node6 -->
<g id="edge5" class="edge">
<title>Node1&#45;&gt;Node6</title>
<path fill="none" stroke="midnightblue" d="M340.16,-246.48C384.31,-236.35 445.34,-222.35 498.99,-210 500.25,-209.71 501.53,-209.42 502.82,-209.12"/>
<polygon fill="midnightblue" stroke="midnightblue" points="503.86,-212.47 512.82,-206.81 502.29,-205.65 503.86,-212.47"/>
</g>
<!-- Node7 -->
<g id="node7" class="node">
<title>Node7</title>
<g id="a_node7"><a xlink:href="../../d9/dc1/_utils_8h.html" target="_top" xlink:title=" ">
<polygon fill="white" stroke="black" points="94.49,-129 94.49,-148 199.49,-148 199.49,-129 94.49,-129"/>
<text text-anchor="middle" x="146.99" y="-136" font-family="Helvetica,sans-Serif" font-size="10.00">Namespaces/Utils.h</text>
</a>
</g>
</g>
<!-- Node1&#45;&gt;Node7 -->
<g id="edge6" class="edge">
<title>Node1&#45;&gt;Node7</title>
<path fill="none" stroke="midnightblue" d="M258.67,-246.29C245.26,-236.6 227.54,-223.17 212.99,-210 193.87,-192.69 173.9,-170.73 161.01,-155.96"/>
<polygon fill="midnightblue" stroke="midnightblue" points="163.47,-153.46 154.29,-148.18 158.18,-158.04 163.47,-153.46"/>
</g>
<!-- Node10 -->
<g id="node10" class="node">
<title>Node10</title>
<g id="a_node10"><a xlink:href="../../de/d40/_parser_8h.html" target="_top" xlink:title=" ">
<polygon fill="white" stroke="black" points="222.49,-190.5 222.49,-209.5 335.49,-209.5 335.49,-190.5 222.49,-190.5"/>
<text text-anchor="middle" x="278.99" y="-197.5" font-family="Helvetica,sans-Serif" font-size="10.00">Namespaces/Parser.h</text>
</a>
</g>
</g>
<!-- Node1&#45;&gt;Node10 -->
<g id="edge11" class="edge">
<title>Node1&#45;&gt;Node10</title>
<path fill="none" stroke="midnightblue" d="M278.99,-246.4C278.99,-238.47 278.99,-228.46 278.99,-219.86"/>
<polygon fill="midnightblue" stroke="midnightblue" points="282.49,-219.66 278.99,-209.66 275.49,-219.66 282.49,-219.66"/>
</g>
<!-- Node7&#45;&gt;Node3 -->
<g id="edge7" class="edge">
<title>Node7&#45;&gt;Node3</title>
<path fill="none" stroke="midnightblue" d="M133.24,-128.73C116.26,-117.92 87.18,-99.38 67.06,-86.57"/>
<polygon fill="midnightblue" stroke="midnightblue" points="68.84,-83.55 58.53,-81.13 65.08,-89.45 68.84,-83.55"/>
</g>
<!-- Node7&#45;&gt;Node4 -->
<g id="edge8" class="edge">
<title>Node7&#45;&gt;Node4</title>
<path fill="none" stroke="midnightblue" d="M182.44,-128.92C190.81,-126.94 199.71,-124.87 207.99,-123 282.91,-106.12 304.34,-111.89 376.99,-87 378.61,-86.45 380.25,-85.83 381.9,-85.16"/>
<polygon fill="midnightblue" stroke="midnightblue" points="383.39,-88.33 391.1,-81.06 380.54,-81.94 383.39,-88.33"/>
</g>
<!-- Node8 -->
<g id="node8" class="node">
<title>Node8</title>
<g id="a_node8"><a xlink:title=" ">
<polygon fill="white" stroke="#bfbfbf" points="167.99,-62 167.99,-81 211.99,-81 211.99,-62 167.99,-62"/>
<text text-anchor="middle" x="189.99" y="-69" font-family="Helvetica,sans-Serif" font-size="10.00">vector</text>
</a>
</g>
</g>
<!-- Node7&#45;&gt;Node8 -->
<g id="edge9" class="edge">
<title>Node7&#45;&gt;Node8</title>
<path fill="none" stroke="midnightblue" d="M152.79,-128.73C159.37,-118.79 170.25,-102.34 178.55,-89.79"/>
<polygon fill="midnightblue" stroke="midnightblue" points="181.69,-91.4 184.28,-81.13 175.85,-87.54 181.69,-91.4"/>
</g>
<!-- Node9 -->
<g id="node9" class="node">
<title>Node9</title>
<g id="a_node9"><a xlink:title=" ">
<polygon fill="white" stroke="#bfbfbf" points="90.49,-62 90.49,-81 149.49,-81 149.49,-62 90.49,-62"/>
<text text-anchor="middle" x="119.99" y="-69" font-family="Helvetica,sans-Serif" font-size="10.00">functional</text>
</a>
</g>
</g>
<!-- Node7&#45;&gt;Node9 -->
<g id="edge10" class="edge">
<title>Node7&#45;&gt;Node9</title>
<path fill="none" stroke="midnightblue" d="M143.35,-128.73C139.3,-118.99 132.65,-102.98 127.48,-90.53"/>
<polygon fill="midnightblue" stroke="midnightblue" points="130.64,-89.02 123.58,-81.13 124.18,-91.7 130.64,-89.02"/>
</g>
<!-- Node10&#45;&gt;Node3 -->
<g id="edge12" class="edge">
<title>Node10&#45;&gt;Node3</title>
<path fill="none" stroke="midnightblue" d="M222.47,-198.48C180.49,-195.33 123.98,-184.97 84.99,-154 64.98,-138.1 54.27,-109.64 49.11,-90.91"/>
<polygon fill="midnightblue" stroke="midnightblue" points="52.5,-90.04 46.68,-81.18 45.7,-91.73 52.5,-90.04"/>
</g>
<!-- Node10&#45;&gt;Node4 -->
<g id="edge13" class="edge">
<title>Node10&#45;&gt;Node4</title>
<path fill="none" stroke="midnightblue" d="M296.38,-190.5C311.64,-182.49 333.85,-169.43 349.99,-154 369.92,-134.95 387.16,-107.96 397.32,-90.35"/>
<polygon fill="midnightblue" stroke="midnightblue" points="400.61,-91.62 402.45,-81.19 394.51,-88.2 400.61,-91.62"/>
</g>
<!-- Node10&#45;&gt;Node5 -->
<g id="edge14" class="edge">
<title>Node10&#45;&gt;Node5</title>
<path fill="none" stroke="midnightblue" d="M300.2,-190.48C325.36,-180.36 367.53,-163.4 396.27,-151.85"/>
<polygon fill="midnightblue" stroke="midnightblue" points="397.85,-154.99 405.83,-148.01 395.24,-148.49 397.85,-154.99"/>
</g>
<!-- Node10&#45;&gt;Node7 -->
<g id="edge15" class="edge">
<title>Node10&#45;&gt;Node7</title>
<path fill="none" stroke="midnightblue" d="M260.08,-190.48C237.83,-180.45 200.68,-163.7 175.07,-152.15"/>
<polygon fill="midnightblue" stroke="midnightblue" points="176.42,-148.93 165.87,-148.01 173.55,-155.31 176.42,-148.93"/>
</g>
<!-- Node11 -->
<g id="node11" class="node">
<title>Node11</title>
<g id="a_node11"><a xlink:href="../../d1/d98/_sequence_move_patern_8h.html" target="_top" xlink:title=" ">
<polygon fill="white" stroke="black" points="217.49,-123.5 217.49,-153.5 340.49,-153.5 340.49,-123.5 217.49,-123.5"/>
<text text-anchor="start" x="225.49" y="-141.5" font-family="Helvetica,sans-Serif" font-size="10.00">Shmup/Paterns/Enemy</text>
<text text-anchor="middle" x="278.99" y="-130.5" font-family="Helvetica,sans-Serif" font-size="10.00">/SequenceMovePatern.h</text>
</a>
</g>
</g>
<!-- Node10&#45;&gt;Node11 -->
<g id="edge16" class="edge">
<title>Node10&#45;&gt;Node11</title>
<path fill="none" stroke="midnightblue" d="M278.99,-190.48C278.99,-183.47 278.99,-173.19 278.99,-163.7"/>
<polygon fill="midnightblue" stroke="midnightblue" points="282.49,-163.52 278.99,-153.52 275.49,-163.52 282.49,-163.52"/>
</g>
<!-- Node11&#45;&gt;Node3 -->
<g id="edge20" class="edge">
<title>Node11&#45;&gt;Node3</title>
<path fill="none" stroke="midnightblue" d="M217.29,-124C177.91,-114.83 126,-101.73 80.99,-87 78.86,-86.3 76.67,-85.54 74.48,-84.74"/>
<polygon fill="midnightblue" stroke="midnightblue" points="75.59,-81.42 65,-81.11 73.08,-87.96 75.59,-81.42"/>
</g>
<!-- Node11&#45;&gt;Node4 -->
<g id="edge21" class="edge">
<title>Node11&#45;&gt;Node4</title>
<path fill="none" stroke="midnightblue" d="M306.77,-123.4C328.93,-112.14 359.73,-96.5 381.32,-85.54"/>
<polygon fill="midnightblue" stroke="midnightblue" points="382.91,-88.66 390.24,-81.01 379.74,-82.41 382.91,-88.66"/>
</g>
<!-- Node11&#45;&gt;Node8 -->
<g id="edge22" class="edge">
<title>Node11&#45;&gt;Node8</title>
<path fill="none" stroke="midnightblue" d="M259.68,-123.4C245.03,-112.7 224.95,-98.03 210.11,-87.19"/>
<polygon fill="midnightblue" stroke="midnightblue" points="211.78,-84.08 201.64,-81.01 207.65,-89.73 211.78,-84.08"/>
</g>
<!-- Node12 -->
<g id="node12" class="node">
<title>Node12</title>
<g id="a_node12"><a xlink:href="../../dc/d8f/_a_offsetable_patern_8h.html" target="_top" xlink:title=" ">
<polygon fill="white" stroke="black" points="229.99,-56.5 229.99,-86.5 367.99,-86.5 367.99,-56.5 229.99,-56.5"/>
<text text-anchor="start" x="237.99" y="-74.5" font-family="Helvetica,sans-Serif" font-size="10.00">Shmup/Paterns/AOffsetable</text>
<text text-anchor="middle" x="298.99" y="-63.5" font-family="Helvetica,sans-Serif" font-size="10.00">Patern.h</text>
</a>
</g>
</g>
<!-- Node11&#45;&gt;Node12 -->
<g id="edge17" class="edge">
<title>Node11&#45;&gt;Node12</title>
<path fill="none" stroke="midnightblue" d="M283.33,-123.4C285.77,-115.47 288.88,-105.38 291.68,-96.27"/>
<polygon fill="midnightblue" stroke="midnightblue" points="295.06,-97.16 294.66,-86.58 288.37,-95.1 295.06,-97.16"/>
</g>
<!-- Node12&#45;&gt;Node2 -->
<g id="edge18" class="edge">
<title>Node12&#45;&gt;Node2</title>
<path fill="none" stroke="midnightblue" d="M253.96,-56.4C219.75,-45.69 173.45,-31.19 142.47,-21.48"/>
<polygon fill="midnightblue" stroke="midnightblue" points="143.18,-18.04 132.59,-18.39 141.09,-24.72 143.18,-18.04"/>
</g>
<!-- Node13 -->
<g id="node13" class="node">
<title>Node13</title>
<g id="a_node13"><a xlink:href="../../df/d50/_a_patern_8h.html" target="_top" xlink:title=" ">
<polygon fill="white" stroke="black" points="269.49,-0.5 269.49,-19.5 328.49,-19.5 328.49,-0.5 269.49,-0.5"/>
<text text-anchor="middle" x="298.99" y="-7.5" font-family="Helvetica,sans-Serif" font-size="10.00">APatern.h</text>
</a>
</g>
</g>
<!-- Node12&#45;&gt;Node13 -->
<g id="edge19" class="edge">
<title>Node12&#45;&gt;Node13</title>
<path fill="none" stroke="midnightblue" d="M298.99,-56.4C298.99,-48.47 298.99,-38.46 298.99,-29.86"/>
<polygon fill="midnightblue" stroke="midnightblue" points="302.49,-29.66 298.99,-19.66 295.49,-29.66 302.49,-29.66"/>
</g>
</g>
</svg>
