<?xml version="1.0" encoding="UTF-8" standalone="no"?>
<!DOCTYPE svg PUBLIC "-//W3C//DTD SVG 1.1//EN"
 "http://www.w3.org/Graphics/SVG/1.1/DTD/svg11.dtd">
<!-- Generated by graphviz version 2.49.3 (20211027.1534)
 -->
<!-- Title: RayLib_SHMUP/include/Shmup/InstanceList.h Pages: 1 -->
<svg width="1333pt" height="374pt"
 viewBox="0.00 0.00 1333.00 374.00" xmlns="http://www.w3.org/2000/svg" xmlns:xlink="http://www.w3.org/1999/xlink">
<g id="graph0" class="graph" transform="scale(1 1) rotate(0) translate(4 370)">
<title>RayLib_SHMUP/include/Shmup/InstanceList.h</title>
<polygon fill="white" stroke="transparent" points="-4,4 -4,-370 1329,-370 1329,4 -4,4"/>
<!-- Node1 -->
<g id="node1" class="node">
<title>Node1</title>
<g id="a_node1"><a xlink:title=" ">
<polygon fill="#bfbfbf" stroke="black" points="1105.5,-335.5 1105.5,-365.5 1227.5,-365.5 1227.5,-335.5 1105.5,-335.5"/>
<text text-anchor="start" x="1113.5" y="-353.5" font-family="Helvetica,sans-Serif" font-size="10.00">RayLib_SHMUP/include</text>
<text text-anchor="middle" x="1166.5" y="-342.5" font-family="Helvetica,sans-Serif" font-size="10.00">/Shmup/InstanceList.h</text>
</a>
</g>
</g>
<!-- Node2 -->
<g id="node2" class="node">
<title>Node2</title>
<g id="a_node2"><a xlink:href="../../d7/daf/_a_graphic_object_8h.html" target="_top" xlink:title=" ">
<polygon fill="white" stroke="black" points="841.5,-268.5 841.5,-298.5 971.5,-298.5 971.5,-268.5 841.5,-268.5"/>
<text text-anchor="start" x="849.5" y="-286.5" font-family="Helvetica,sans-Serif" font-size="10.00">RayLib_SHMUP/include</text>
<text text-anchor="middle" x="906.5" y="-275.5" font-family="Helvetica,sans-Serif" font-size="10.00">/Shmup/AGraphicObject.h</text>
</a>
</g>
</g>
<!-- Node1&#45;&gt;Node2 -->
<g id="edge1" class="edge">
<title>Node1&#45;&gt;Node2</title>
<path fill="none" stroke="midnightblue" d="M1100.44,-332.98C1057.97,-322.37 1003.38,-308.72 962.94,-298.61"/>
<polygon fill="midnightblue" stroke="midnightblue" points="1099.85,-336.45 1110.4,-335.48 1101.55,-329.66 1099.85,-336.45"/>
</g>
<!-- Node20 -->
<g id="node20" class="node">
<title>Node20</title>
<g id="a_node20"><a xlink:href="../../d3/d72/_a_collidable_8h.html" target="_top" xlink:title=" ">
<polygon fill="white" stroke="black" points="1092,-201.5 1092,-231.5 1241,-231.5 1241,-201.5 1092,-201.5"/>
<text text-anchor="start" x="1100" y="-219.5" font-family="Helvetica,sans-Serif" font-size="10.00">RayLib_SHMUP/include</text>
<text text-anchor="middle" x="1166.5" y="-208.5" font-family="Helvetica,sans-Serif" font-size="10.00">/Shmup/Collision/ACollidable.h</text>
</a>
</g>
</g>
<!-- Node1&#45;&gt;Node20 -->
<g id="edge22" class="edge">
<title>Node1&#45;&gt;Node20</title>
<path fill="none" stroke="midnightblue" d="M1166.5,-325.02C1166.5,-297.51 1166.5,-253.79 1166.5,-231.52"/>
<polygon fill="midnightblue" stroke="midnightblue" points="1163,-325.37 1166.5,-335.37 1170,-325.37 1163,-325.37"/>
</g>
<!-- Node21 -->
<g id="node21" class="node">
<title>Node21</title>
<g id="a_node21"><a xlink:href="../../d8/d97/_instance_list_8hpp.html" target="_top" xlink:title=" ">
<polygon fill="white" stroke="black" points="1200,-268.5 1200,-298.5 1325,-298.5 1325,-268.5 1200,-268.5"/>
<text text-anchor="start" x="1208" y="-286.5" font-family="Helvetica,sans-Serif" font-size="10.00">RayLib_SHMUP/include</text>
<text text-anchor="middle" x="1262.5" y="-275.5" font-family="Helvetica,sans-Serif" font-size="10.00">/Shmup/InstanceList.hpp</text>
</a>
</g>
</g>
<!-- Node1&#45;&gt;Node21 -->
<g id="edge25" class="edge">
<title>Node1&#45;&gt;Node21</title>
<path fill="none" stroke="midnightblue" d="M1195.69,-329.73C1210.55,-319.68 1228.26,-307.68 1241.71,-298.58"/>
<polygon fill="midnightblue" stroke="midnightblue" points="1193.65,-326.89 1187.33,-335.4 1197.57,-332.69 1193.65,-326.89"/>
</g>
<!-- Node3 -->
<g id="node3" class="node">
<title>Node3</title>
<g id="a_node3"><a xlink:href="../../db/d1b/_a_movable_8h.html" target="_top" xlink:title=" ">
<polygon fill="white" stroke="black" points="756.5,-201.5 756.5,-231.5 878.5,-231.5 878.5,-201.5 756.5,-201.5"/>
<text text-anchor="start" x="764.5" y="-219.5" font-family="Helvetica,sans-Serif" font-size="10.00">RayLib_SHMUP/include</text>
<text text-anchor="middle" x="817.5" y="-208.5" font-family="Helvetica,sans-Serif" font-size="10.00">/Shmup/AMovable.h</text>
</a>
</g>
</g>
<!-- Node2&#45;&gt;Node3 -->
<g id="edge2" class="edge">
<title>Node2&#45;&gt;Node3</title>
<path fill="none" stroke="midnightblue" d="M879.05,-262.45C865.36,-252.45 849.13,-240.6 836.77,-231.58"/>
<polygon fill="midnightblue" stroke="midnightblue" points="877.05,-265.32 887.19,-268.4 881.18,-259.67 877.05,-265.32"/>
</g>
<!-- Node8 -->
<g id="node8" class="node">
<title>Node8</title>
<g id="a_node8"><a xlink:href="../../d2/d2e/_game_manager_8cpp.html" target="_top" xlink:title=" ">
<polygon fill="white" stroke="black" points="1022,-0.5 1022,-30.5 1161,-30.5 1161,-0.5 1022,-0.5"/>
<text text-anchor="start" x="1030" y="-18.5" font-family="Helvetica,sans-Serif" font-size="10.00">RayLib_SHMUP/src/Shmup</text>
<text text-anchor="middle" x="1091.5" y="-7.5" font-family="Helvetica,sans-Serif" font-size="10.00">/GameManager.cpp</text>
</a>
</g>
</g>
<!-- Node2&#45;&gt;Node8 -->
<g id="edge21" class="edge">
<title>Node2&#45;&gt;Node8</title>
<path fill="none" stroke="midnightblue" d="M907.99,-258.17C909.99,-241.07 914.66,-218.25 925.5,-201 964.36,-139.18 1008.46,-155.47 1053.5,-98 1069.97,-76.99 1081.39,-47.68 1087.16,-30.54"/>
<polygon fill="midnightblue" stroke="midnightblue" points="904.47,-258.18 907.02,-268.47 911.44,-258.84 904.47,-258.18"/>
</g>
<!-- Node17 -->
<g id="node17" class="node">
<title>Node17</title>
<g id="a_node17"><a xlink:href="../../d9/dee/_explosion_8h.html" target="_top" xlink:title=" ">
<polygon fill="white" stroke="black" points="325.5,-201.5 325.5,-231.5 447.5,-231.5 447.5,-201.5 325.5,-201.5"/>
<text text-anchor="start" x="333.5" y="-219.5" font-family="Helvetica,sans-Serif" font-size="10.00">RayLib_SHMUP/include</text>
<text text-anchor="middle" x="386.5" y="-208.5" font-family="Helvetica,sans-Serif" font-size="10.00">/Shmup/Explosion.h</text>
</a>
</g>
</g>
<!-- Node2&#45;&gt;Node17 -->
<g id="edge18" class="edge">
<title>Node2&#45;&gt;Node17</title>
<path fill="none" stroke="midnightblue" d="M831.36,-273.11C727.8,-260.16 543.18,-237.08 447.6,-225.14"/>
<polygon fill="midnightblue" stroke="midnightblue" points="831.07,-276.6 841.43,-274.37 831.94,-269.65 831.07,-276.6"/>
</g>
<!-- Node19 -->
<g id="node19" class="node">
<title>Node19</title>
<g id="a_node19"><a xlink:href="../../de/d53/_a_graphic_object_8cpp.html" target="_top" xlink:title=" ">
<polygon fill="white" stroke="black" points="935,-201.5 935,-231.5 1074,-231.5 1074,-201.5 935,-201.5"/>
<text text-anchor="start" x="943" y="-219.5" font-family="Helvetica,sans-Serif" font-size="10.00">RayLib_SHMUP/src/Shmup</text>
<text text-anchor="middle" x="1004.5" y="-208.5" font-family="Helvetica,sans-Serif" font-size="10.00">/AGraphicObject.cpp</text>
</a>
</g>
</g>
<!-- Node2&#45;&gt;Node19 -->
<g id="edge20" class="edge">
<title>Node2&#45;&gt;Node19</title>
<path fill="none" stroke="midnightblue" d="M936.3,-262.73C951.47,-252.68 969.54,-240.68 983.28,-231.58"/>
<polygon fill="midnightblue" stroke="midnightblue" points="934.16,-259.95 927.76,-268.4 938.03,-265.79 934.16,-259.95"/>
</g>
<!-- Node4 -->
<g id="node4" class="node">
<title>Node4</title>
<g id="a_node4"><a xlink:href="../../d3/d22/_patern_computer_8h.html" target="_top" xlink:title=" ">
<polygon fill="white" stroke="black" points="271.5,-134.5 271.5,-164.5 425.5,-164.5 425.5,-134.5 271.5,-134.5"/>
<text text-anchor="start" x="279.5" y="-152.5" font-family="Helvetica,sans-Serif" font-size="10.00">RayLib_SHMUP/include</text>
<text text-anchor="middle" x="348.5" y="-141.5" font-family="Helvetica,sans-Serif" font-size="10.00">/PaternEditor/PaternComputer.h</text>
</a>
</g>
</g>
<!-- Node3&#45;&gt;Node4 -->
<g id="edge3" class="edge">
<title>Node3&#45;&gt;Node4</title>
<path fill="none" stroke="midnightblue" d="M746.21,-205.62C659.82,-193.65 514.82,-173.55 425.81,-161.21"/>
<polygon fill="midnightblue" stroke="midnightblue" points="745.8,-209.1 756.19,-207 746.76,-202.16 745.8,-209.1"/>
</g>
<!-- Node7 -->
<g id="node7" class="node">
<title>Node7</title>
<g id="a_node7"><a xlink:href="../../d4/d1e/_enemy_8h.html" target="_top" xlink:title=" ">
<polygon fill="white" stroke="black" points="1073.5,-134.5 1073.5,-164.5 1203.5,-164.5 1203.5,-134.5 1073.5,-134.5"/>
<text text-anchor="start" x="1081.5" y="-152.5" font-family="Helvetica,sans-Serif" font-size="10.00">RayLib_SHMUP/include</text>
<text text-anchor="middle" x="1138.5" y="-141.5" font-family="Helvetica,sans-Serif" font-size="10.00">/Shmup/Movable/Enemy.h</text>
</a>
</g>
</g>
<!-- Node3&#45;&gt;Node7 -->
<g id="edge6" class="edge">
<title>Node3&#45;&gt;Node7</title>
<path fill="none" stroke="midnightblue" d="M888.69,-201.08C943.92,-189.9 1019.85,-174.53 1073.46,-163.67"/>
<polygon fill="midnightblue" stroke="midnightblue" points="887.74,-197.71 878.63,-203.12 889.13,-204.57 887.74,-197.71"/>
</g>
<!-- Node10 -->
<g id="node10" class="node">
<title>Node10</title>
<g id="a_node10"><a xlink:href="../../de/d15/_shoot_8h.html" target="_top" xlink:title=" ">
<polygon fill="white" stroke="black" points="755.5,-134.5 755.5,-164.5 881.5,-164.5 881.5,-134.5 755.5,-134.5"/>
<text text-anchor="start" x="763.5" y="-152.5" font-family="Helvetica,sans-Serif" font-size="10.00">RayLib_SHMUP/include</text>
<text text-anchor="middle" x="818.5" y="-141.5" font-family="Helvetica,sans-Serif" font-size="10.00">/Shmup/Movable/Shoot.h</text>
</a>
</g>
</g>
<!-- Node3&#45;&gt;Node10 -->
<g id="edge9" class="edge">
<title>Node3&#45;&gt;Node10</title>
<path fill="none" stroke="midnightblue" d="M817.88,-191.11C818.01,-182.15 818.16,-172.32 818.28,-164.58"/>
<polygon fill="midnightblue" stroke="midnightblue" points="814.37,-191.34 817.72,-201.4 821.37,-191.45 814.37,-191.34"/>
</g>
<!-- Node16 -->
<g id="node16" class="node">
<title>Node16</title>
<g id="a_node16"><a xlink:href="../../df/d32/_sequence_move_patern_8cpp.html" target="_top" xlink:title=" ">
<polygon fill="white" stroke="black" points="534,-134.5 534,-164.5 737,-164.5 737,-134.5 534,-134.5"/>
<text text-anchor="start" x="542" y="-152.5" font-family="Helvetica,sans-Serif" font-size="10.00">RayLib_SHMUP/src/Shmup</text>
<text text-anchor="middle" x="635.5" y="-141.5" font-family="Helvetica,sans-Serif" font-size="10.00">/Paterns/Enemy/SequenceMovePatern.cpp</text>
</a>
</g>
</g>
<!-- Node3&#45;&gt;Node16 -->
<g id="edge17" class="edge">
<title>Node3&#45;&gt;Node16</title>
<path fill="none" stroke="midnightblue" d="M768.37,-197.96C739.06,-187.48 702.32,-174.37 674.91,-164.58"/>
<polygon fill="midnightblue" stroke="midnightblue" points="767.41,-201.33 778.01,-201.4 769.77,-194.74 767.41,-201.33"/>
</g>
<!-- Node5 -->
<g id="node5" class="node">
<title>Node5</title>
<g id="a_node5"><a xlink:href="../../d3/d32/_patern_computer_8cpp.html" target="_top" xlink:title=" ">
<polygon fill="white" stroke="black" points="0,-67.5 0,-97.5 161,-97.5 161,-67.5 0,-67.5"/>
<text text-anchor="start" x="8" y="-85.5" font-family="Helvetica,sans-Serif" font-size="10.00">RayLib_SHMUP/src/PaternEditor</text>
<text text-anchor="middle" x="80.5" y="-74.5" font-family="Helvetica,sans-Serif" font-size="10.00">/PaternComputer.cpp</text>
</a>
</g>
</g>
<!-- Node4&#45;&gt;Node5 -->
<g id="edge4" class="edge">
<title>Node4&#45;&gt;Node5</title>
<path fill="none" stroke="midnightblue" d="M280.96,-132.12C237.11,-121.48 180.54,-107.76 138.68,-97.61"/>
<polygon fill="midnightblue" stroke="midnightblue" points="280.13,-135.52 290.68,-134.48 281.78,-128.72 280.13,-135.52"/>
</g>
<!-- Node6 -->
<g id="node6" class="node">
<title>Node6</title>
<g id="a_node6"><a xlink:href="../../d5/d58/_patern_editor_main_8cpp.html" target="_top" xlink:title=" ">
<polygon fill="white" stroke="black" points="179,-67.5 179,-97.5 340,-97.5 340,-67.5 179,-67.5"/>
<text text-anchor="start" x="187" y="-85.5" font-family="Helvetica,sans-Serif" font-size="10.00">RayLib_SHMUP/src/PaternEditor</text>
<text text-anchor="middle" x="259.5" y="-74.5" font-family="Helvetica,sans-Serif" font-size="10.00">Main.cpp</text>
</a>
</g>
</g>
<!-- Node4&#45;&gt;Node6 -->
<g id="edge5" class="edge">
<title>Node4&#45;&gt;Node6</title>
<path fill="none" stroke="midnightblue" d="M321.05,-128.45C307.36,-118.45 291.13,-106.6 278.77,-97.58"/>
<polygon fill="midnightblue" stroke="midnightblue" points="319.05,-131.32 329.19,-134.4 323.18,-125.67 319.05,-131.32"/>
</g>
<!-- Node7&#45;&gt;Node8 -->
<g id="edge7" class="edge">
<title>Node7&#45;&gt;Node8</title>
<path fill="none" stroke="midnightblue" d="M1130.04,-124.75C1120.27,-97.29 1104.49,-52.99 1096.49,-30.52"/>
<polygon fill="midnightblue" stroke="midnightblue" points="1126.82,-126.13 1133.47,-134.37 1133.41,-123.78 1126.82,-126.13"/>
</g>
<!-- Node9 -->
<g id="node9" class="node">
<title>Node9</title>
<g id="a_node9"><a xlink:href="../../de/d34/_enemy_8cpp.html" target="_top" xlink:title=" ">
<polygon fill="white" stroke="black" points="1139,-67.5 1139,-97.5 1278,-97.5 1278,-67.5 1139,-67.5"/>
<text text-anchor="start" x="1147" y="-85.5" font-family="Helvetica,sans-Serif" font-size="10.00">RayLib_SHMUP/src/Shmup</text>
<text text-anchor="middle" x="1208.5" y="-74.5" font-family="Helvetica,sans-Serif" font-size="10.00">/Movable/Enemy.cpp</text>
</a>
</g>
</g>
<!-- Node7&#45;&gt;Node9 -->
<g id="edge8" class="edge">
<title>Node7&#45;&gt;Node9</title>
<path fill="none" stroke="midnightblue" d="M1161.32,-127.31C1171.82,-117.56 1183.99,-106.26 1193.34,-97.58"/>
<polygon fill="midnightblue" stroke="midnightblue" points="1158.64,-125.03 1153.69,-134.4 1163.4,-130.16 1158.64,-125.03"/>
</g>
<!-- Node11 -->
<g id="node11" class="node">
<title>Node11</title>
<g id="a_node11"><a xlink:href="../../d1/d39/_player_8h.html" target="_top" xlink:title=" ">
<polygon fill="white" stroke="black" points="916.5,-67.5 916.5,-97.5 1044.5,-97.5 1044.5,-67.5 916.5,-67.5"/>
<text text-anchor="start" x="924.5" y="-85.5" font-family="Helvetica,sans-Serif" font-size="10.00">RayLib_SHMUP/include</text>
<text text-anchor="middle" x="980.5" y="-74.5" font-family="Helvetica,sans-Serif" font-size="10.00">/Shmup/Movable/Player.h</text>
</a>
</g>
</g>
<!-- Node10&#45;&gt;Node11 -->
<g id="edge10" class="edge">
<title>Node10&#45;&gt;Node11</title>
<path fill="none" stroke="midnightblue" d="M863.25,-130.54C889.17,-120.14 921.34,-107.24 945.42,-97.58"/>
<polygon fill="midnightblue" stroke="midnightblue" points="861.63,-127.42 853.65,-134.4 864.24,-133.92 861.63,-127.42"/>
</g>
<!-- Node12 -->
<g id="node12" class="node">
<title>Node12</title>
<g id="a_node12"><a xlink:href="../../d2/d82/_player_8cpp.html" target="_top" xlink:title=" ">
<polygon fill="white" stroke="black" points="592,-0.5 592,-30.5 731,-30.5 731,-0.5 592,-0.5"/>
<text text-anchor="start" x="600" y="-18.5" font-family="Helvetica,sans-Serif" font-size="10.00">RayLib_SHMUP/src/Shmup</text>
<text text-anchor="middle" x="661.5" y="-7.5" font-family="Helvetica,sans-Serif" font-size="10.00">/Movable/Player.cpp</text>
</a>
</g>
</g>
<!-- Node10&#45;&gt;Node12 -->
<g id="edge13" class="edge">
<title>Node10&#45;&gt;Node12</title>
<path fill="none" stroke="midnightblue" d="M745.08,-134.29C650.1,-124.6 438.35,-155.31 386.5,-98 325.45,-30.52 491.7,-17.85 591.84,-16.12"/>
<polygon fill="midnightblue" stroke="midnightblue" points="744.9,-137.79 755.26,-135.55 745.77,-130.84 744.9,-137.79"/>
</g>
<!-- Node13 -->
<g id="node13" class="node">
<title>Node13</title>
<g id="a_node13"><a xlink:href="../../d6/dae/_shoot_8cpp.html" target="_top" xlink:title=" ">
<polygon fill="white" stroke="black" points="583,-67.5 583,-97.5 722,-97.5 722,-67.5 583,-67.5"/>
<text text-anchor="start" x="591" y="-85.5" font-family="Helvetica,sans-Serif" font-size="10.00">RayLib_SHMUP/src/Shmup</text>
<text text-anchor="middle" x="652.5" y="-74.5" font-family="Helvetica,sans-Serif" font-size="10.00">/Movable/Shoot.cpp</text>
</a>
</g>
</g>
<!-- Node10&#45;&gt;Node13 -->
<g id="edge14" class="edge">
<title>Node10&#45;&gt;Node13</title>
<path fill="none" stroke="midnightblue" d="M772.99,-130.68C746.37,-120.26 713.23,-107.28 688.45,-97.58"/>
<polygon fill="midnightblue" stroke="midnightblue" points="771.89,-134.01 782.48,-134.4 774.45,-127.49 771.89,-134.01"/>
</g>
<!-- Node14 -->
<g id="node14" class="node">
<title>Node14</title>
<g id="a_node14"><a xlink:href="../../dc/dac/_patern_linear_8cpp.html" target="_top" xlink:title=" ">
<polygon fill="white" stroke="black" points="740.5,-67.5 740.5,-97.5 898.5,-97.5 898.5,-67.5 740.5,-67.5"/>
<text text-anchor="start" x="748.5" y="-85.5" font-family="Helvetica,sans-Serif" font-size="10.00">RayLib_SHMUP/src/Shmup</text>
<text text-anchor="middle" x="819.5" y="-74.5" font-family="Helvetica,sans-Serif" font-size="10.00">/Paterns/Shoot/PaternLinear.cpp</text>
</a>
</g>
</g>
<!-- Node10&#45;&gt;Node14 -->
<g id="edge15" class="edge">
<title>Node10&#45;&gt;Node14</title>
<path fill="none" stroke="midnightblue" d="M818.88,-124.11C819.01,-115.15 819.16,-105.32 819.28,-97.58"/>
<polygon fill="midnightblue" stroke="midnightblue" points="815.37,-124.34 818.72,-134.4 822.37,-124.45 815.37,-124.34"/>
</g>
<!-- Node15 -->
<g id="node15" class="node">
<title>Node15</title>
<g id="a_node15"><a xlink:href="../../db/db4/_patern_v_spread_8cpp.html" target="_top" xlink:title=" ">
<polygon fill="white" stroke="black" points="396,-67.5 396,-97.5 565,-97.5 565,-67.5 396,-67.5"/>
<text text-anchor="start" x="404" y="-85.5" font-family="Helvetica,sans-Serif" font-size="10.00">RayLib_SHMUP/src/Shmup</text>
<text text-anchor="middle" x="480.5" y="-74.5" font-family="Helvetica,sans-Serif" font-size="10.00">/Paterns/Shoot/PaternVSpread.cpp</text>
</a>
</g>
</g>
<!-- Node10&#45;&gt;Node15 -->
<g id="edge16" class="edge">
<title>Node10&#45;&gt;Node15</title>
<path fill="none" stroke="midnightblue" d="M745.24,-133.96C674.73,-120.26 605.79,-107.14 555.06,-97.55"/>
<polygon fill="midnightblue" stroke="midnightblue" points="744.71,-137.42 755.2,-135.9 746.05,-130.55 744.71,-137.42"/>
</g>
<!-- Node11&#45;&gt;Node8 -->
<g id="edge11" class="edge">
<title>Node11&#45;&gt;Node8</title>
<path fill="none" stroke="midnightblue" d="M1013.3,-62.3C1030.66,-52.12 1051.62,-39.85 1067.46,-30.58"/>
<polygon fill="midnightblue" stroke="midnightblue" points="1011.45,-59.32 1004.59,-67.4 1014.98,-65.36 1011.45,-59.32"/>
</g>
<!-- Node11&#45;&gt;Node12 -->
<g id="edge12" class="edge">
<title>Node11&#45;&gt;Node12</title>
<path fill="none" stroke="midnightblue" d="M906.29,-66.38C853.15,-55.55 782.12,-41.08 730.26,-30.51"/>
<polygon fill="midnightblue" stroke="midnightblue" points="905.83,-69.86 916.33,-68.42 907.23,-63 905.83,-69.86"/>
</g>
<!-- Node18 -->
<g id="node18" class="node">
<title>Node18</title>
<g id="a_node18"><a xlink:href="../../d5/d01/_explosion_8cpp.html" target="_top" xlink:title=" ">
<polygon fill="white" stroke="black" points="114,-134.5 114,-164.5 253,-164.5 253,-134.5 114,-134.5"/>
<text text-anchor="start" x="122" y="-152.5" font-family="Helvetica,sans-Serif" font-size="10.00">RayLib_SHMUP/src/Shmup</text>
<text text-anchor="middle" x="183.5" y="-141.5" font-family="Helvetica,sans-Serif" font-size="10.00">/Explosion.cpp</text>
</a>
</g>
</g>
<!-- Node17&#45;&gt;Node18 -->
<g id="edge19" class="edge">
<title>Node17&#45;&gt;Node18</title>
<path fill="none" stroke="midnightblue" d="M332.56,-198.23C299.72,-187.71 258.3,-174.45 227.46,-164.58"/>
<polygon fill="midnightblue" stroke="midnightblue" points="331.86,-201.68 342.45,-201.4 334,-195.01 331.86,-201.68"/>
</g>
<!-- Node20&#45;&gt;Node7 -->
<g id="edge23" class="edge">
<title>Node20&#45;&gt;Node7</title>
<path fill="none" stroke="midnightblue" d="M1156.37,-191.99C1152.42,-182.8 1148.01,-172.58 1144.56,-164.58"/>
<polygon fill="midnightblue" stroke="midnightblue" points="1153.25,-193.6 1160.42,-201.4 1159.68,-190.83 1153.25,-193.6"/>
</g>
<!-- Node20&#45;&gt;Node10 -->
<g id="edge24" class="edge">
<title>Node20&#45;&gt;Node10</title>
<path fill="none" stroke="midnightblue" d="M1081.73,-199.67C1019.99,-188.13 937.7,-172.76 881.67,-162.3"/>
<polygon fill="midnightblue" stroke="midnightblue" points="1081.37,-203.16 1091.85,-201.56 1082.66,-196.28 1081.37,-203.16"/>
</g>
<!-- Node21&#45;&gt;Node8 -->
<g id="edge27" class="edge">
<title>Node21&#45;&gt;Node8</title>
<path fill="none" stroke="midnightblue" d="M1274.85,-259.26C1295.75,-216.39 1331.7,-124.03 1287.5,-67 1271.87,-46.83 1210.88,-33.29 1161.03,-25.35"/>
<polygon fill="midnightblue" stroke="midnightblue" points="1271.65,-257.83 1270.29,-268.34 1277.91,-260.98 1271.65,-257.83"/>
</g>
<!-- Node21&#45;&gt;Node9 -->
<g id="edge28" class="edge">
<title>Node21&#45;&gt;Node9</title>
<path fill="none" stroke="midnightblue" d="M1260.19,-258.18C1258.33,-241.85 1255.23,-219.94 1250.5,-201 1240.95,-162.75 1223.75,-119.5 1214.6,-97.69"/>
<polygon fill="midnightblue" stroke="midnightblue" points="1256.75,-258.92 1261.28,-268.49 1263.71,-258.18 1256.75,-258.92"/>
</g>
<!-- Node21&#45;&gt;Node19 -->
<g id="edge26" class="edge">
<title>Node21&#45;&gt;Node19</title>
<path fill="none" stroke="midnightblue" d="M1196.95,-265.98C1154.8,-255.37 1100.64,-241.72 1060.51,-231.61"/>
<polygon fill="midnightblue" stroke="midnightblue" points="1196.28,-269.43 1206.84,-268.48 1197.99,-262.64 1196.28,-269.43"/>
</g>
</g>
</svg>
