<?xml version="1.0" encoding="UTF-8" standalone="no"?>
<!DOCTYPE svg PUBLIC "-//W3C//DTD SVG 1.1//EN"
 "http://www.w3.org/Graphics/SVG/1.1/DTD/svg11.dtd">
<!-- Generated by graphviz version 2.49.3 (20211027.1534)
 -->
<!-- Title: RayLib_SHMUP/include/Shmup/InstanceList.h Pages: 1 -->
<svg width="2161pt" height="374pt"
 viewBox="0.00 0.00 2161.21 374.00" xmlns="http://www.w3.org/2000/svg" xmlns:xlink="http://www.w3.org/1999/xlink">
<g id="graph0" class="graph" transform="scale(1 1) rotate(0) translate(4 370)">
<title>RayLib_SHMUP/include/Shmup/InstanceList.h</title>
<polygon fill="white" stroke="transparent" points="-4,4 -4,-370 2157.21,-370 2157.21,4 -4,4"/>
<!-- Node1 -->
<g id="node1" class="node">
<title>Node1</title>
<g id="a_node1"><a xlink:title=" ">
<polygon fill="#bfbfbf" stroke="black" points="1684.5,-335.5 1684.5,-365.5 1806.5,-365.5 1806.5,-335.5 1684.5,-335.5"/>
<text text-anchor="start" x="1692.5" y="-353.5" font-family="Helvetica,sans-Serif" font-size="10.00">RayLib_SHMUP/include</text>
<text text-anchor="middle" x="1745.5" y="-342.5" font-family="Helvetica,sans-Serif" font-size="10.00">/Shmup/InstanceList.h</text>
</a>
</g>
</g>
<!-- Node2 -->
<g id="node2" class="node">
<title>Node2</title>
<g id="a_node2"><a xlink:href="../../d7/daf/_a_graphic_object_8h.html" target="_top" xlink:title=" ">
<polygon fill="white" stroke="black" points="1587.5,-268.5 1587.5,-298.5 1717.5,-298.5 1717.5,-268.5 1587.5,-268.5"/>
<text text-anchor="start" x="1595.5" y="-286.5" font-family="Helvetica,sans-Serif" font-size="10.00">RayLib_SHMUP/include</text>
<text text-anchor="middle" x="1652.5" y="-275.5" font-family="Helvetica,sans-Serif" font-size="10.00">/Shmup/AGraphicObject.h</text>
</a>
</g>
</g>
<!-- Node1&#45;&gt;Node2 -->
<g id="edge1" class="edge">
<title>Node1&#45;&gt;Node2</title>
<path fill="none" stroke="midnightblue" d="M1716.81,-329.45C1702.51,-319.45 1685.55,-307.6 1672.64,-298.58"/>
<polygon fill="midnightblue" stroke="midnightblue" points="1715.12,-332.54 1725.32,-335.4 1719.13,-326.8 1715.12,-332.54"/>
</g>
<!-- Node22 -->
<g id="node22" class="node">
<title>Node22</title>
<g id="a_node22"><a xlink:href="../../d3/d72/_a_collidable_8h.html" target="_top" xlink:title=" ">
<polygon fill="white" stroke="black" points="1773,-201.5 1773,-231.5 1922,-231.5 1922,-201.5 1773,-201.5"/>
<text text-anchor="start" x="1781" y="-219.5" font-family="Helvetica,sans-Serif" font-size="10.00">RayLib_SHMUP/include</text>
<text text-anchor="middle" x="1847.5" y="-208.5" font-family="Helvetica,sans-Serif" font-size="10.00">/Shmup/Collision/ACollidable.h</text>
</a>
</g>
</g>
<!-- Node1&#45;&gt;Node22 -->
<g id="edge25" class="edge">
<title>Node1&#45;&gt;Node22</title>
<path fill="none" stroke="midnightblue" d="M1762.74,-327.19C1783.86,-299.86 1819,-254.38 1836.66,-231.52"/>
<polygon fill="midnightblue" stroke="midnightblue" points="1759.76,-325.32 1756.42,-335.37 1765.3,-329.6 1759.76,-325.32"/>
</g>
<!-- Node26 -->
<g id="node26" class="node">
<title>Node26</title>
<g id="a_node26"><a xlink:href="../../d8/d97/_instance_list_8hpp.html" target="_top" xlink:title=" ">
<polygon fill="white" stroke="black" points="1689,-134.5 1689,-164.5 1814,-164.5 1814,-134.5 1689,-134.5"/>
<text text-anchor="start" x="1697" y="-152.5" font-family="Helvetica,sans-Serif" font-size="10.00">RayLib_SHMUP/include</text>
<text text-anchor="middle" x="1751.5" y="-141.5" font-family="Helvetica,sans-Serif" font-size="10.00">/Shmup/InstanceList.hpp</text>
</a>
</g>
</g>
<!-- Node1&#45;&gt;Node26 -->
<g id="edge34" class="edge">
<title>Node1&#45;&gt;Node26</title>
<path fill="none" stroke="midnightblue" d="M1746.24,-325C1747.51,-282.93 1750.06,-198.26 1751.07,-164.68"/>
<polygon fill="midnightblue" stroke="midnightblue" points="1742.73,-325.09 1745.93,-335.19 1749.73,-325.3 1742.73,-325.09"/>
</g>
<!-- Node3 -->
<g id="node3" class="node">
<title>Node3</title>
<g id="a_node3"><a xlink:href="../../db/d1b/_a_movable_8h.html" target="_top" xlink:title=" ">
<polygon fill="white" stroke="black" points="841.5,-201.5 841.5,-231.5 963.5,-231.5 963.5,-201.5 841.5,-201.5"/>
<text text-anchor="start" x="849.5" y="-219.5" font-family="Helvetica,sans-Serif" font-size="10.00">RayLib_SHMUP/include</text>
<text text-anchor="middle" x="902.5" y="-208.5" font-family="Helvetica,sans-Serif" font-size="10.00">/Shmup/AMovable.h</text>
</a>
</g>
</g>
<!-- Node2&#45;&gt;Node3 -->
<g id="edge2" class="edge">
<title>Node2&#45;&gt;Node3</title>
<path fill="none" stroke="midnightblue" d="M1576.85,-275.94C1428.04,-263.05 1099.87,-234.61 963.64,-222.8"/>
<polygon fill="midnightblue" stroke="midnightblue" points="1576.99,-279.47 1587.25,-276.85 1577.59,-272.49 1576.99,-279.47"/>
</g>
<!-- Node8 -->
<g id="node8" class="node">
<title>Node8</title>
<g id="a_node8"><a xlink:href="../../d2/d2e/_game_manager_8cpp.html" target="_top" xlink:title=" ">
<polygon fill="white" stroke="black" points="1693,-0.5 1693,-30.5 1832,-30.5 1832,-0.5 1693,-0.5"/>
<text text-anchor="start" x="1701" y="-18.5" font-family="Helvetica,sans-Serif" font-size="10.00">RayLib_SHMUP/src/Shmup</text>
<text text-anchor="middle" x="1762.5" y="-7.5" font-family="Helvetica,sans-Serif" font-size="10.00">/GameManager.cpp</text>
</a>
</g>
</g>
<!-- Node2&#45;&gt;Node8 -->
<g id="edge24" class="edge">
<title>Node2&#45;&gt;Node8</title>
<path fill="none" stroke="midnightblue" d="M1727.85,-275.89C1817.19,-264.99 1967.43,-236.74 2074.5,-165 2111.08,-140.49 2129.78,-138.32 2147.5,-98 2153.04,-85.39 2156.59,-77.36 2147.5,-67 2127.08,-43.72 1937.62,-27.84 1832.31,-20.73"/>
<polygon fill="midnightblue" stroke="midnightblue" points="1727.32,-272.43 1717.8,-277.08 1728.14,-279.38 1727.32,-272.43"/>
</g>
<!-- Node19 -->
<g id="node19" class="node">
<title>Node19</title>
<g id="a_node19"><a xlink:href="../../d9/dee/_explosion_8h.html" target="_top" xlink:title=" ">
<polygon fill="white" stroke="black" points="1510.5,-201.5 1510.5,-231.5 1632.5,-231.5 1632.5,-201.5 1510.5,-201.5"/>
<text text-anchor="start" x="1518.5" y="-219.5" font-family="Helvetica,sans-Serif" font-size="10.00">RayLib_SHMUP/include</text>
<text text-anchor="middle" x="1571.5" y="-208.5" font-family="Helvetica,sans-Serif" font-size="10.00">/Shmup/Explosion.h</text>
</a>
</g>
</g>
<!-- Node2&#45;&gt;Node19 -->
<g id="edge20" class="edge">
<title>Node2&#45;&gt;Node19</title>
<path fill="none" stroke="midnightblue" d="M1626.81,-261.88C1614.5,-252.01 1600.07,-240.43 1589.04,-231.58"/>
<polygon fill="midnightblue" stroke="midnightblue" points="1624.93,-264.87 1634.92,-268.4 1629.32,-259.41 1624.93,-264.87"/>
</g>
<!-- Node21 -->
<g id="node21" class="node">
<title>Node21</title>
<g id="a_node21"><a xlink:href="../../de/d53/_a_graphic_object_8cpp.html" target="_top" xlink:title=" ">
<polygon fill="white" stroke="black" points="1595,-67.5 1595,-97.5 1734,-97.5 1734,-67.5 1595,-67.5"/>
<text text-anchor="start" x="1603" y="-85.5" font-family="Helvetica,sans-Serif" font-size="10.00">RayLib_SHMUP/src/Shmup</text>
<text text-anchor="middle" x="1664.5" y="-74.5" font-family="Helvetica,sans-Serif" font-size="10.00">/AGraphicObject.cpp</text>
</a>
</g>
</g>
<!-- Node2&#45;&gt;Node21 -->
<g id="edge23" class="edge">
<title>Node2&#45;&gt;Node21</title>
<path fill="none" stroke="midnightblue" d="M1653.98,-258C1656.51,-215.93 1661.62,-131.26 1663.64,-97.68"/>
<polygon fill="midnightblue" stroke="midnightblue" points="1650.47,-258 1653.36,-268.19 1657.46,-258.42 1650.47,-258"/>
</g>
<!-- Node4 -->
<g id="node4" class="node">
<title>Node4</title>
<g id="a_node4"><a xlink:href="../../d3/d22/_patern_computer_8h.html" target="_top" xlink:title=" ">
<polygon fill="white" stroke="black" points="182.5,-134.5 182.5,-164.5 336.5,-164.5 336.5,-134.5 182.5,-134.5"/>
<text text-anchor="start" x="190.5" y="-152.5" font-family="Helvetica,sans-Serif" font-size="10.00">RayLib_SHMUP/include</text>
<text text-anchor="middle" x="259.5" y="-141.5" font-family="Helvetica,sans-Serif" font-size="10.00">/PaternEditor/PaternComputer.h</text>
</a>
</g>
</g>
<!-- Node3&#45;&gt;Node4 -->
<g id="edge3" class="edge">
<title>Node3&#45;&gt;Node4</title>
<path fill="none" stroke="midnightblue" d="M831.47,-208.32C709.79,-196.02 462.47,-171.02 336.69,-158.3"/>
<polygon fill="midnightblue" stroke="midnightblue" points="831.13,-211.8 841.43,-209.33 831.83,-204.84 831.13,-211.8"/>
</g>
<!-- Node7 -->
<g id="node7" class="node">
<title>Node7</title>
<g id="a_node7"><a xlink:href="../../d4/d1e/_enemy_8h.html" target="_top" xlink:title=" ">
<polygon fill="white" stroke="black" points="1270.5,-134.5 1270.5,-164.5 1400.5,-164.5 1400.5,-134.5 1270.5,-134.5"/>
<text text-anchor="start" x="1278.5" y="-152.5" font-family="Helvetica,sans-Serif" font-size="10.00">RayLib_SHMUP/include</text>
<text text-anchor="middle" x="1335.5" y="-141.5" font-family="Helvetica,sans-Serif" font-size="10.00">/Shmup/Movable/Enemy.h</text>
</a>
</g>
</g>
<!-- Node3&#45;&gt;Node7 -->
<g id="edge6" class="edge">
<title>Node3&#45;&gt;Node7</title>
<path fill="none" stroke="midnightblue" d="M973.65,-204.82C1056.07,-192.45 1190.72,-172.23 1270.45,-160.27"/>
<polygon fill="midnightblue" stroke="midnightblue" points="972.99,-201.38 963.62,-206.32 974.03,-208.3 972.99,-201.38"/>
</g>
<!-- Node11 -->
<g id="node11" class="node">
<title>Node11</title>
<g id="a_node11"><a xlink:href="../../de/d15/_shoot_8h.html" target="_top" xlink:title=" ">
<polygon fill="white" stroke="black" points="839.5,-134.5 839.5,-164.5 965.5,-164.5 965.5,-134.5 839.5,-134.5"/>
<text text-anchor="start" x="847.5" y="-152.5" font-family="Helvetica,sans-Serif" font-size="10.00">RayLib_SHMUP/include</text>
<text text-anchor="middle" x="902.5" y="-141.5" font-family="Helvetica,sans-Serif" font-size="10.00">/Shmup/Movable/Shoot.h</text>
</a>
</g>
</g>
<!-- Node3&#45;&gt;Node11 -->
<g id="edge10" class="edge">
<title>Node3&#45;&gt;Node11</title>
<path fill="none" stroke="midnightblue" d="M902.5,-191.11C902.5,-182.15 902.5,-172.32 902.5,-164.58"/>
<polygon fill="midnightblue" stroke="midnightblue" points="899,-191.4 902.5,-201.4 906,-191.4 899,-191.4"/>
</g>
<!-- Node18 -->
<g id="node18" class="node">
<title>Node18</title>
<g id="a_node18"><a xlink:href="../../df/d32/_sequence_move_patern_8cpp.html" target="_top" xlink:title=" ">
<polygon fill="white" stroke="black" points="618,-134.5 618,-164.5 821,-164.5 821,-134.5 618,-134.5"/>
<text text-anchor="start" x="626" y="-152.5" font-family="Helvetica,sans-Serif" font-size="10.00">RayLib_SHMUP/src/Shmup</text>
<text text-anchor="middle" x="719.5" y="-141.5" font-family="Helvetica,sans-Serif" font-size="10.00">/Paterns/Enemy/SequenceMovePatern.cpp</text>
</a>
</g>
</g>
<!-- Node3&#45;&gt;Node18 -->
<g id="edge19" class="edge">
<title>Node3&#45;&gt;Node18</title>
<path fill="none" stroke="midnightblue" d="M853.1,-197.96C823.63,-187.48 786.69,-174.37 759.13,-164.58"/>
<polygon fill="midnightblue" stroke="midnightblue" points="852.2,-201.35 862.79,-201.4 854.54,-194.75 852.2,-201.35"/>
</g>
<!-- Node5 -->
<g id="node5" class="node">
<title>Node5</title>
<g id="a_node5"><a xlink:href="../../d3/d32/_patern_computer_8cpp.html" target="_top" xlink:title=" ">
<polygon fill="white" stroke="black" points="179,-67.5 179,-97.5 340,-97.5 340,-67.5 179,-67.5"/>
<text text-anchor="start" x="187" y="-85.5" font-family="Helvetica,sans-Serif" font-size="10.00">RayLib_SHMUP/src/PaternEditor</text>
<text text-anchor="middle" x="259.5" y="-74.5" font-family="Helvetica,sans-Serif" font-size="10.00">/PaternComputer.cpp</text>
</a>
</g>
</g>
<!-- Node4&#45;&gt;Node5 -->
<g id="edge4" class="edge">
<title>Node4&#45;&gt;Node5</title>
<path fill="none" stroke="midnightblue" d="M259.5,-124.11C259.5,-115.15 259.5,-105.32 259.5,-97.58"/>
<polygon fill="midnightblue" stroke="midnightblue" points="256,-124.4 259.5,-134.4 263,-124.4 256,-124.4"/>
</g>
<!-- Node6 -->
<g id="node6" class="node">
<title>Node6</title>
<g id="a_node6"><a xlink:href="../../d5/d58/_patern_editor_main_8cpp.html" target="_top" xlink:title=" ">
<polygon fill="white" stroke="black" points="0,-67.5 0,-97.5 161,-97.5 161,-67.5 0,-67.5"/>
<text text-anchor="start" x="8" y="-85.5" font-family="Helvetica,sans-Serif" font-size="10.00">RayLib_SHMUP/src/PaternEditor</text>
<text text-anchor="middle" x="80.5" y="-74.5" font-family="Helvetica,sans-Serif" font-size="10.00">Main.cpp</text>
</a>
</g>
</g>
<!-- Node4&#45;&gt;Node6 -->
<g id="edge5" class="edge">
<title>Node4&#45;&gt;Node6</title>
<path fill="none" stroke="midnightblue" d="M211.18,-130.96C182.35,-120.48 146.22,-107.37 119.26,-97.58"/>
<polygon fill="midnightblue" stroke="midnightblue" points="210.07,-134.27 220.66,-134.4 212.45,-127.69 210.07,-134.27"/>
</g>
<!-- Node7&#45;&gt;Node8 -->
<g id="edge7" class="edge">
<title>Node7&#45;&gt;Node8</title>
<path fill="none" stroke="midnightblue" d="M1302.93,-128.85C1278.9,-111.96 1253.28,-87.19 1271.5,-67 1299.2,-36.3 1564.21,-23.19 1692.96,-18.59"/>
<polygon fill="midnightblue" stroke="midnightblue" points="1301.04,-131.8 1311.29,-134.48 1304.95,-125.99 1301.04,-131.8"/>
</g>
<!-- Node9 -->
<g id="node9" class="node">
<title>Node9</title>
<g id="a_node9"><a xlink:href="../../df/dd2/_level_manager_8cpp.html" target="_top" xlink:title=" ">
<polygon fill="white" stroke="black" points="1281,-67.5 1281,-97.5 1420,-97.5 1420,-67.5 1281,-67.5"/>
<text text-anchor="start" x="1289" y="-85.5" font-family="Helvetica,sans-Serif" font-size="10.00">RayLib_SHMUP/src/Shmup</text>
<text text-anchor="middle" x="1350.5" y="-74.5" font-family="Helvetica,sans-Serif" font-size="10.00">/LevelManager.cpp</text>
</a>
</g>
</g>
<!-- Node7&#45;&gt;Node9 -->
<g id="edge8" class="edge">
<title>Node7&#45;&gt;Node9</title>
<path fill="none" stroke="midnightblue" d="M1341.06,-124.4C1343.15,-115.37 1345.44,-105.41 1347.25,-97.58"/>
<polygon fill="midnightblue" stroke="midnightblue" points="1337.59,-123.87 1338.75,-134.4 1344.41,-125.44 1337.59,-123.87"/>
</g>
<!-- Node10 -->
<g id="node10" class="node">
<title>Node10</title>
<g id="a_node10"><a xlink:href="../../de/d34/_enemy_8cpp.html" target="_top" xlink:title=" ">
<polygon fill="white" stroke="black" points="1438,-67.5 1438,-97.5 1577,-97.5 1577,-67.5 1438,-67.5"/>
<text text-anchor="start" x="1446" y="-85.5" font-family="Helvetica,sans-Serif" font-size="10.00">RayLib_SHMUP/src/Shmup</text>
<text text-anchor="middle" x="1507.5" y="-74.5" font-family="Helvetica,sans-Serif" font-size="10.00">/Movable/Enemy.cpp</text>
</a>
</g>
</g>
<!-- Node7&#45;&gt;Node10 -->
<g id="edge9" class="edge">
<title>Node7&#45;&gt;Node10</title>
<path fill="none" stroke="midnightblue" d="M1382.29,-130.82C1409.93,-120.37 1444.46,-107.32 1470.25,-97.58"/>
<polygon fill="midnightblue" stroke="midnightblue" points="1380.94,-127.59 1372.82,-134.4 1383.41,-134.13 1380.94,-127.59"/>
</g>
<!-- Node12 -->
<g id="node12" class="node">
<title>Node12</title>
<g id="a_node12"><a xlink:href="../../d1/d39/_player_8h.html" target="_top" xlink:title=" ">
<polygon fill="white" stroke="black" points="1096.5,-67.5 1096.5,-97.5 1224.5,-97.5 1224.5,-67.5 1096.5,-67.5"/>
<text text-anchor="start" x="1104.5" y="-85.5" font-family="Helvetica,sans-Serif" font-size="10.00">RayLib_SHMUP/include</text>
<text text-anchor="middle" x="1160.5" y="-74.5" font-family="Helvetica,sans-Serif" font-size="10.00">/Shmup/Movable/Player.h</text>
</a>
</g>
</g>
<!-- Node11&#45;&gt;Node12 -->
<g id="edge11" class="edge">
<title>Node11&#45;&gt;Node12</title>
<path fill="none" stroke="midnightblue" d="M968.05,-131.98C1010.2,-121.37 1064.36,-107.72 1104.49,-97.61"/>
<polygon fill="midnightblue" stroke="midnightblue" points="967.01,-128.64 958.16,-134.48 968.72,-135.43 967.01,-128.64"/>
</g>
<!-- Node13 -->
<g id="node13" class="node">
<title>Node13</title>
<g id="a_node13"><a xlink:href="../../d2/d82/_player_8cpp.html" target="_top" xlink:title=" ">
<polygon fill="white" stroke="black" points="695,-0.5 695,-30.5 834,-30.5 834,-0.5 695,-0.5"/>
<text text-anchor="start" x="703" y="-18.5" font-family="Helvetica,sans-Serif" font-size="10.00">RayLib_SHMUP/src/Shmup</text>
<text text-anchor="middle" x="764.5" y="-7.5" font-family="Helvetica,sans-Serif" font-size="10.00">/Movable/Player.cpp</text>
</a>
</g>
</g>
<!-- Node11&#45;&gt;Node13 -->
<g id="edge14" class="edge">
<title>Node11&#45;&gt;Node13</title>
<path fill="none" stroke="midnightblue" d="M829.11,-134.41C747.69,-127.75 419.33,-132.53 387.5,-98 378.16,-87.87 378.43,-77.37 387.5,-67 407.39,-44.26 591.49,-28.23 694.87,-20.93"/>
<polygon fill="midnightblue" stroke="midnightblue" points="828.96,-137.91 839.27,-135.48 829.69,-130.95 828.96,-137.91"/>
</g>
<!-- Node14 -->
<g id="node14" class="node">
<title>Node14</title>
<g id="a_node14"><a xlink:href="../../d6/dae/_shoot_8cpp.html" target="_top" xlink:title=" ">
<polygon fill="white" stroke="black" points="397,-67.5 397,-97.5 536,-97.5 536,-67.5 397,-67.5"/>
<text text-anchor="start" x="405" y="-85.5" font-family="Helvetica,sans-Serif" font-size="10.00">RayLib_SHMUP/src/Shmup</text>
<text text-anchor="middle" x="466.5" y="-74.5" font-family="Helvetica,sans-Serif" font-size="10.00">/Movable/Shoot.cpp</text>
</a>
</g>
</g>
<!-- Node11&#45;&gt;Node14 -->
<g id="edge15" class="edge">
<title>Node11&#45;&gt;Node14</title>
<path fill="none" stroke="midnightblue" d="M829.13,-134.02C702.2,-113.78 668.04,-117 545.5,-98 542.47,-97.53 539.37,-97.03 536.25,-96.52"/>
<polygon fill="midnightblue" stroke="midnightblue" points="828.81,-137.52 839.24,-135.65 829.93,-130.61 828.81,-137.52"/>
</g>
<!-- Node15 -->
<g id="node15" class="node">
<title>Node15</title>
<g id="a_node15"><a xlink:href="../../dc/dac/_patern_linear_8cpp.html" target="_top" xlink:title=" ">
<polygon fill="white" stroke="black" points="554.5,-67.5 554.5,-97.5 712.5,-97.5 712.5,-67.5 554.5,-67.5"/>
<text text-anchor="start" x="562.5" y="-85.5" font-family="Helvetica,sans-Serif" font-size="10.00">RayLib_SHMUP/src/Shmup</text>
<text text-anchor="middle" x="633.5" y="-74.5" font-family="Helvetica,sans-Serif" font-size="10.00">/Paterns/Shoot/PaternLinear.cpp</text>
</a>
</g>
</g>
<!-- Node11&#45;&gt;Node15 -->
<g id="edge16" class="edge">
<title>Node11&#45;&gt;Node15</title>
<path fill="none" stroke="midnightblue" d="M834.71,-132.12C790.69,-121.48 733.91,-107.76 691.9,-97.61"/>
<polygon fill="midnightblue" stroke="midnightblue" points="833.92,-135.53 844.46,-134.48 835.56,-128.73 833.92,-135.53"/>
</g>
<!-- Node16 -->
<g id="node16" class="node">
<title>Node16</title>
<g id="a_node16"><a xlink:href="../../d8/d91/_patern_rotate_8cpp.html" target="_top" xlink:title=" ">
<polygon fill="white" stroke="black" points="730.5,-67.5 730.5,-97.5 890.5,-97.5 890.5,-67.5 730.5,-67.5"/>
<text text-anchor="start" x="738.5" y="-85.5" font-family="Helvetica,sans-Serif" font-size="10.00">RayLib_SHMUP/src/Shmup</text>
<text text-anchor="middle" x="810.5" y="-74.5" font-family="Helvetica,sans-Serif" font-size="10.00">/Paterns/Shoot/PaternRotate.cpp</text>
</a>
</g>
</g>
<!-- Node11&#45;&gt;Node16 -->
<g id="edge17" class="edge">
<title>Node11&#45;&gt;Node16</title>
<path fill="none" stroke="midnightblue" d="M874.12,-128.45C859.97,-118.45 843.19,-106.6 830.42,-97.58"/>
<polygon fill="midnightblue" stroke="midnightblue" points="872.35,-131.48 882.54,-134.4 876.39,-125.77 872.35,-131.48"/>
</g>
<!-- Node17 -->
<g id="node17" class="node">
<title>Node17</title>
<g id="a_node17"><a xlink:href="../../db/db4/_patern_v_spread_8cpp.html" target="_top" xlink:title=" ">
<polygon fill="white" stroke="black" points="909,-67.5 909,-97.5 1078,-97.5 1078,-67.5 909,-67.5"/>
<text text-anchor="start" x="917" y="-85.5" font-family="Helvetica,sans-Serif" font-size="10.00">RayLib_SHMUP/src/Shmup</text>
<text text-anchor="middle" x="993.5" y="-74.5" font-family="Helvetica,sans-Serif" font-size="10.00">/Paterns/Shoot/PaternVSpread.cpp</text>
</a>
</g>
</g>
<!-- Node11&#45;&gt;Node17 -->
<g id="edge18" class="edge">
<title>Node11&#45;&gt;Node17</title>
<path fill="none" stroke="midnightblue" d="M930.57,-128.45C944.57,-118.45 961.16,-106.6 973.79,-97.58"/>
<polygon fill="midnightblue" stroke="midnightblue" points="928.35,-125.74 922.25,-134.4 932.42,-131.43 928.35,-125.74"/>
</g>
<!-- Node12&#45;&gt;Node8 -->
<g id="edge12" class="edge">
<title>Node12&#45;&gt;Node8</title>
<path fill="none" stroke="midnightblue" d="M1234.67,-67.55C1235.96,-67.36 1237.23,-67.18 1238.5,-67 1400.5,-44.18 1592.14,-28.58 1692.77,-21.26"/>
<polygon fill="midnightblue" stroke="midnightblue" points="1234.04,-64.11 1224.7,-69.1 1235.12,-71.03 1234.04,-64.11"/>
</g>
<!-- Node12&#45;&gt;Node13 -->
<g id="edge13" class="edge">
<title>Node12&#45;&gt;Node13</title>
<path fill="none" stroke="midnightblue" d="M1086.8,-67.05C1086.7,-67.04 1086.6,-67.02 1086.5,-67 999.71,-51.7 899.33,-36.32 834.03,-26.63"/>
<polygon fill="midnightblue" stroke="midnightblue" points="1085.89,-70.45 1096.35,-68.78 1087.13,-63.56 1085.89,-70.45"/>
</g>
<!-- Node19&#45;&gt;Node10 -->
<g id="edge22" class="edge">
<title>Node19&#45;&gt;Node10</title>
<path fill="none" stroke="midnightblue" d="M1574.81,-191.21C1576.01,-174.3 1575.31,-151.7 1566.5,-134 1558.93,-118.79 1544.52,-106.32 1531.83,-97.58"/>
<polygon fill="midnightblue" stroke="midnightblue" points="1571.31,-191.1 1573.82,-201.39 1578.28,-191.78 1571.31,-191.1"/>
</g>
<!-- Node20 -->
<g id="node20" class="node">
<title>Node20</title>
<g id="a_node20"><a xlink:href="../../d5/d01/_explosion_8cpp.html" target="_top" xlink:title=" ">
<polygon fill="white" stroke="black" points="1419,-134.5 1419,-164.5 1558,-164.5 1558,-134.5 1419,-134.5"/>
<text text-anchor="start" x="1427" y="-152.5" font-family="Helvetica,sans-Serif" font-size="10.00">RayLib_SHMUP/src/Shmup</text>
<text text-anchor="middle" x="1488.5" y="-141.5" font-family="Helvetica,sans-Serif" font-size="10.00">/Explosion.cpp</text>
</a>
</g>
</g>
<!-- Node19&#45;&gt;Node20 -->
<g id="edge21" class="edge">
<title>Node19&#45;&gt;Node20</title>
<path fill="none" stroke="midnightblue" d="M1545.54,-195.17C1532.85,-185.23 1517.89,-173.51 1506.47,-164.58"/>
<polygon fill="midnightblue" stroke="midnightblue" points="1543.46,-197.99 1553.49,-201.4 1547.78,-192.47 1543.46,-197.99"/>
</g>
<!-- Node22&#45;&gt;Node7 -->
<g id="edge30" class="edge">
<title>Node22&#45;&gt;Node7</title>
<path fill="none" stroke="midnightblue" d="M1762.88,-207.74C1674.47,-199.16 1531.86,-184.01 1409.5,-165 1406.65,-164.56 1403.75,-164.08 1400.82,-163.59"/>
<polygon fill="midnightblue" stroke="midnightblue" points="1762.57,-211.22 1772.86,-208.7 1763.24,-204.26 1762.57,-211.22"/>
</g>
<!-- Node22&#45;&gt;Node11 -->
<g id="edge31" class="edge">
<title>Node22&#45;&gt;Node11</title>
<path fill="none" stroke="midnightblue" d="M1762.37,-209.47C1725.25,-206.85 1681.22,-203.76 1641.5,-201 1391.34,-183.65 1093.5,-163.43 965.77,-154.78"/>
<polygon fill="midnightblue" stroke="midnightblue" points="1762.43,-212.98 1772.65,-210.19 1762.92,-206 1762.43,-212.98"/>
</g>
<!-- Node23 -->
<g id="node23" class="node">
<title>Node23</title>
<g id="a_node23"><a xlink:href="../../d7/d3e/_collision_manager_8h.html" target="_top" xlink:title=" ">
<polygon fill="white" stroke="black" points="1871,-134.5 1871,-164.5 2046,-164.5 2046,-134.5 1871,-134.5"/>
<text text-anchor="start" x="1879" y="-152.5" font-family="Helvetica,sans-Serif" font-size="10.00">RayLib_SHMUP/include</text>
<text text-anchor="middle" x="1958.5" y="-141.5" font-family="Helvetica,sans-Serif" font-size="10.00">/Shmup/Collision/CollisionManager.h</text>
</a>
</g>
</g>
<!-- Node22&#45;&gt;Node23 -->
<g id="edge26" class="edge">
<title>Node22&#45;&gt;Node23</title>
<path fill="none" stroke="midnightblue" d="M1880.3,-196.3C1897.66,-186.12 1918.62,-173.85 1934.46,-164.58"/>
<polygon fill="midnightblue" stroke="midnightblue" points="1878.45,-193.32 1871.59,-201.4 1881.98,-199.36 1878.45,-193.32"/>
</g>
<!-- Node24 -->
<g id="node24" class="node">
<title>Node24</title>
<g id="a_node24"><a xlink:href="../../d9/d84/_a_collidable_8cpp.html" target="_top" xlink:title=" ">
<polygon fill="white" stroke="black" points="1791,-67.5 1791,-97.5 1930,-97.5 1930,-67.5 1791,-67.5"/>
<text text-anchor="start" x="1799" y="-85.5" font-family="Helvetica,sans-Serif" font-size="10.00">RayLib_SHMUP/src/Shmup</text>
<text text-anchor="middle" x="1860.5" y="-74.5" font-family="Helvetica,sans-Serif" font-size="10.00">/Collision/ACollidable.cpp</text>
</a>
</g>
</g>
<!-- Node22&#45;&gt;Node24 -->
<g id="edge32" class="edge">
<title>Node22&#45;&gt;Node24</title>
<path fill="none" stroke="midnightblue" d="M1849.87,-191.39C1852.58,-163.9 1856.92,-119.89 1859.12,-97.52"/>
<polygon fill="midnightblue" stroke="midnightblue" points="1846.39,-191.08 1848.89,-201.37 1853.35,-191.76 1846.39,-191.08"/>
</g>
<!-- Node25 -->
<g id="node25" class="node">
<title>Node25</title>
<g id="a_node25"><a xlink:href="../../df/db7/_collision_manager_8cpp.html" target="_top" xlink:title=" ">
<polygon fill="white" stroke="black" points="1986.5,-67.5 1986.5,-97.5 2138.5,-97.5 2138.5,-67.5 1986.5,-67.5"/>
<text text-anchor="start" x="1994.5" y="-85.5" font-family="Helvetica,sans-Serif" font-size="10.00">RayLib_SHMUP/src/Shmup</text>
<text text-anchor="middle" x="2062.5" y="-74.5" font-family="Helvetica,sans-Serif" font-size="10.00">/Collision/CollisionManager.cpp</text>
</a>
</g>
</g>
<!-- Node22&#45;&gt;Node25 -->
<g id="edge33" class="edge">
<title>Node22&#45;&gt;Node25</title>
<path fill="none" stroke="midnightblue" d="M1932.03,-205.08C1982.22,-197.04 2039.17,-184.04 2055.5,-165 2071.5,-146.35 2069.07,-115.69 2065.81,-97.77"/>
<polygon fill="midnightblue" stroke="midnightblue" points="1931.44,-201.63 1922.1,-206.62 1932.52,-208.54 1931.44,-201.63"/>
</g>
<!-- Node23&#45;&gt;Node8 -->
<g id="edge29" class="edge">
<title>Node23&#45;&gt;Node8</title>
<path fill="none" stroke="midnightblue" d="M1959.07,-124.34C1958.18,-106.3 1954.01,-82.23 1939.5,-67 1911.84,-37.96 1868.77,-25.25 1832.03,-19.85"/>
<polygon fill="midnightblue" stroke="midnightblue" points="1955.57,-124.48 1959.27,-134.41 1962.57,-124.34 1955.57,-124.48"/>
</g>
<!-- Node23&#45;&gt;Node24 -->
<g id="edge27" class="edge">
<title>Node23&#45;&gt;Node24</title>
<path fill="none" stroke="midnightblue" d="M1928.7,-128.73C1913.53,-118.68 1895.46,-106.68 1881.72,-97.58"/>
<polygon fill="midnightblue" stroke="midnightblue" points="1926.97,-131.79 1937.24,-134.4 1930.84,-125.95 1926.97,-131.79"/>
</g>
<!-- Node23&#45;&gt;Node25 -->
<g id="edge28" class="edge">
<title>Node23&#45;&gt;Node25</title>
<path fill="none" stroke="midnightblue" d="M1989.68,-129.02C2005.86,-118.9 2025.27,-106.77 2039.98,-97.58"/>
<polygon fill="midnightblue" stroke="midnightblue" points="1987.69,-126.13 1981.07,-134.4 1991.4,-132.06 1987.69,-126.13"/>
</g>
<!-- Node26&#45;&gt;Node8 -->
<g id="edge38" class="edge">
<title>Node26&#45;&gt;Node8</title>
<path fill="none" stroke="midnightblue" d="M1753.51,-124.39C1755.8,-96.9 1759.47,-52.89 1761.33,-30.52"/>
<polygon fill="midnightblue" stroke="midnightblue" points="1750.02,-124.12 1752.68,-134.37 1757,-124.7 1750.02,-124.12"/>
</g>
<!-- Node26&#45;&gt;Node10 -->
<g id="edge39" class="edge">
<title>Node26&#45;&gt;Node10</title>
<path fill="none" stroke="midnightblue" d="M1689,-131.85C1649.22,-121.25 1598.26,-107.68 1560.47,-97.61"/>
<polygon fill="midnightblue" stroke="midnightblue" points="1688.29,-135.28 1698.86,-134.48 1690.09,-128.52 1688.29,-135.28"/>
</g>
<!-- Node26&#45;&gt;Node21 -->
<g id="edge35" class="edge">
<title>Node26&#45;&gt;Node21</title>
<path fill="none" stroke="midnightblue" d="M1724.29,-128.17C1710.98,-118.23 1695.3,-106.51 1683.34,-97.58"/>
<polygon fill="midnightblue" stroke="midnightblue" points="1722.52,-131.21 1732.62,-134.4 1726.71,-125.61 1722.52,-131.21"/>
</g>
<!-- Node26&#45;&gt;Node24 -->
<g id="edge36" class="edge">
<title>Node26&#45;&gt;Node24</title>
<path fill="none" stroke="midnightblue" d="M1784.17,-129.02C1801.14,-118.9 1821.48,-106.77 1836.89,-97.58"/>
<polygon fill="midnightblue" stroke="midnightblue" points="1781.95,-126.27 1775.15,-134.4 1785.53,-132.28 1781.95,-126.27"/>
</g>
<!-- Node26&#45;&gt;Node25 -->
<g id="edge37" class="edge">
<title>Node26&#45;&gt;Node25</title>
<path fill="none" stroke="midnightblue" d="M1823.85,-133.38C1875.66,-122.55 1944.91,-108.08 1995.46,-97.51"/>
<polygon fill="midnightblue" stroke="midnightblue" points="1823.13,-129.95 1814.06,-135.42 1824.57,-136.8 1823.13,-129.95"/>
</g>
</g>
</svg>
