<?xml version="1.0" encoding="UTF-8" standalone="no"?>
<!DOCTYPE svg PUBLIC "-//W3C//DTD SVG 1.1//EN"
 "http://www.w3.org/Graphics/SVG/1.1/DTD/svg11.dtd">
<!-- Generated by graphviz version 2.49.3 (20211027.1534)
 -->
<!-- Title: RayLib_SHMUP/include/Shmup/InstanceList.h Pages: 1 -->
<svg width="1830pt" height="374pt"
 viewBox="0.00 0.00 1830.08 374.00" xmlns="http://www.w3.org/2000/svg" xmlns:xlink="http://www.w3.org/1999/xlink">
<g id="graph0" class="graph" transform="scale(1 1) rotate(0) translate(4 370)">
<title>RayLib_SHMUP/include/Shmup/InstanceList.h</title>
<polygon fill="white" stroke="transparent" points="-4,4 -4,-370 1826.08,-370 1826.08,4 -4,4"/>
<!-- Node1 -->
<g id="node1" class="node">
<title>Node1</title>
<g id="a_node1"><a xlink:title=" ">
<polygon fill="#bfbfbf" stroke="black" points="1331.5,-335.5 1331.5,-365.5 1453.5,-365.5 1453.5,-335.5 1331.5,-335.5"/>
<text text-anchor="start" x="1339.5" y="-353.5" font-family="Helvetica,sans-Serif" font-size="10.00">RayLib_SHMUP/include</text>
<text text-anchor="middle" x="1392.5" y="-342.5" font-family="Helvetica,sans-Serif" font-size="10.00">/Shmup/InstanceList.h</text>
</a>
</g>
</g>
<!-- Node2 -->
<g id="node2" class="node">
<title>Node2</title>
<g id="a_node2"><a xlink:href="../../d7/daf/_a_graphic_object_8h.html" target="_top" xlink:title=" ">
<polygon fill="white" stroke="black" points="1165.5,-268.5 1165.5,-298.5 1295.5,-298.5 1295.5,-268.5 1165.5,-268.5"/>
<text text-anchor="start" x="1173.5" y="-286.5" font-family="Helvetica,sans-Serif" font-size="10.00">RayLib_SHMUP/include</text>
<text text-anchor="middle" x="1230.5" y="-275.5" font-family="Helvetica,sans-Serif" font-size="10.00">/Shmup/AGraphicObject.h</text>
</a>
</g>
</g>
<!-- Node1&#45;&gt;Node2 -->
<g id="edge1" class="edge">
<title>Node1&#45;&gt;Node2</title>
<path fill="none" stroke="midnightblue" d="M1347.75,-331.54C1321.83,-321.14 1289.66,-308.24 1265.58,-298.58"/>
<polygon fill="midnightblue" stroke="midnightblue" points="1346.76,-334.92 1357.35,-335.4 1349.37,-328.42 1346.76,-334.92"/>
</g>
<!-- Node20 -->
<g id="node20" class="node">
<title>Node20</title>
<g id="a_node20"><a xlink:href="../../d3/d72/_a_collidable_8h.html" target="_top" xlink:title=" ">
<polygon fill="white" stroke="black" points="1420,-201.5 1420,-231.5 1569,-231.5 1569,-201.5 1420,-201.5"/>
<text text-anchor="start" x="1428" y="-219.5" font-family="Helvetica,sans-Serif" font-size="10.00">RayLib_SHMUP/include</text>
<text text-anchor="middle" x="1494.5" y="-208.5" font-family="Helvetica,sans-Serif" font-size="10.00">/Shmup/Collision/ACollidable.h</text>
</a>
</g>
</g>
<!-- Node1&#45;&gt;Node20 -->
<g id="edge23" class="edge">
<title>Node1&#45;&gt;Node20</title>
<path fill="none" stroke="midnightblue" d="M1409.74,-327.19C1430.86,-299.86 1466,-254.38 1483.66,-231.52"/>
<polygon fill="midnightblue" stroke="midnightblue" points="1406.76,-325.32 1403.42,-335.37 1412.3,-329.6 1406.76,-325.32"/>
</g>
<!-- Node24 -->
<g id="node24" class="node">
<title>Node24</title>
<g id="a_node24"><a xlink:href="../../d8/d97/_instance_list_8hpp.html" target="_top" xlink:title=" ">
<polygon fill="white" stroke="black" points="1335,-134.5 1335,-164.5 1460,-164.5 1460,-134.5 1335,-134.5"/>
<text text-anchor="start" x="1343" y="-152.5" font-family="Helvetica,sans-Serif" font-size="10.00">RayLib_SHMUP/include</text>
<text text-anchor="middle" x="1397.5" y="-141.5" font-family="Helvetica,sans-Serif" font-size="10.00">/Shmup/InstanceList.hpp</text>
</a>
</g>
</g>
<!-- Node1&#45;&gt;Node24 -->
<g id="edge32" class="edge">
<title>Node1&#45;&gt;Node24</title>
<path fill="none" stroke="midnightblue" d="M1393.12,-325C1394.17,-282.93 1396.3,-198.26 1397.14,-164.68"/>
<polygon fill="midnightblue" stroke="midnightblue" points="1389.61,-325.1 1392.86,-335.19 1396.61,-325.28 1389.61,-325.1"/>
</g>
<!-- Node3 -->
<g id="node3" class="node">
<title>Node3</title>
<g id="a_node3"><a xlink:href="../../db/d1b/_a_movable_8h.html" target="_top" xlink:title=" ">
<polygon fill="white" stroke="black" points="896.5,-201.5 896.5,-231.5 1018.5,-231.5 1018.5,-201.5 896.5,-201.5"/>
<text text-anchor="start" x="904.5" y="-219.5" font-family="Helvetica,sans-Serif" font-size="10.00">RayLib_SHMUP/include</text>
<text text-anchor="middle" x="957.5" y="-208.5" font-family="Helvetica,sans-Serif" font-size="10.00">/Shmup/AMovable.h</text>
</a>
</g>
</g>
<!-- Node2&#45;&gt;Node3 -->
<g id="edge2" class="edge">
<title>Node2&#45;&gt;Node3</title>
<path fill="none" stroke="midnightblue" d="M1161.7,-266.12C1117.03,-255.48 1059.4,-241.76 1016.77,-231.61"/>
<polygon fill="midnightblue" stroke="midnightblue" points="1161.06,-269.56 1171.6,-268.48 1162.68,-262.75 1161.06,-269.56"/>
</g>
<!-- Node8 -->
<g id="node8" class="node">
<title>Node8</title>
<g id="a_node8"><a xlink:href="../../d2/d2e/_game_manager_8cpp.html" target="_top" xlink:title=" ">
<polygon fill="white" stroke="black" points="1199,-0.5 1199,-30.5 1338,-30.5 1338,-0.5 1199,-0.5"/>
<text text-anchor="start" x="1207" y="-18.5" font-family="Helvetica,sans-Serif" font-size="10.00">RayLib_SHMUP/src/Shmup</text>
<text text-anchor="middle" x="1268.5" y="-7.5" font-family="Helvetica,sans-Serif" font-size="10.00">/GameManager.cpp</text>
</a>
</g>
</g>
<!-- Node2&#45;&gt;Node8 -->
<g id="edge22" class="edge">
<title>Node2&#45;&gt;Node8</title>
<path fill="none" stroke="midnightblue" d="M1233.99,-258.07C1241.78,-203.57 1260.35,-73.52 1266.49,-30.55"/>
<polygon fill="midnightblue" stroke="midnightblue" points="1230.49,-257.8 1232.54,-268.2 1237.42,-258.79 1230.49,-257.8"/>
</g>
<!-- Node17 -->
<g id="node17" class="node">
<title>Node17</title>
<g id="a_node17"><a xlink:href="../../d9/dee/_explosion_8h.html" target="_top" xlink:title=" ">
<polygon fill="white" stroke="black" points="756.5,-201.5 756.5,-231.5 878.5,-231.5 878.5,-201.5 756.5,-201.5"/>
<text text-anchor="start" x="764.5" y="-219.5" font-family="Helvetica,sans-Serif" font-size="10.00">RayLib_SHMUP/include</text>
<text text-anchor="middle" x="817.5" y="-208.5" font-family="Helvetica,sans-Serif" font-size="10.00">/Shmup/Explosion.h</text>
</a>
</g>
</g>
<!-- Node2&#45;&gt;Node17 -->
<g id="edge18" class="edge">
<title>Node2&#45;&gt;Node17</title>
<path fill="none" stroke="midnightblue" d="M1155.2,-272.69C1085.57,-263.32 979.3,-248.25 887.5,-232 884.57,-231.48 881.57,-230.93 878.54,-230.36"/>
<polygon fill="midnightblue" stroke="midnightblue" points="1154.82,-276.17 1165.2,-274.03 1155.75,-269.24 1154.82,-276.17"/>
</g>
<!-- Node19 -->
<g id="node19" class="node">
<title>Node19</title>
<g id="a_node19"><a xlink:href="../../de/d53/_a_graphic_object_8cpp.html" target="_top" xlink:title=" ">
<polygon fill="white" stroke="black" points="1297,-67.5 1297,-97.5 1436,-97.5 1436,-67.5 1297,-67.5"/>
<text text-anchor="start" x="1305" y="-85.5" font-family="Helvetica,sans-Serif" font-size="10.00">RayLib_SHMUP/src/Shmup</text>
<text text-anchor="middle" x="1366.5" y="-74.5" font-family="Helvetica,sans-Serif" font-size="10.00">/AGraphicObject.cpp</text>
</a>
</g>
</g>
<!-- Node2&#45;&gt;Node19 -->
<g id="edge21" class="edge">
<title>Node2&#45;&gt;Node19</title>
<path fill="none" stroke="midnightblue" d="M1244.13,-259.46C1261.92,-229.8 1294.45,-176.98 1325.5,-134 1334.63,-121.37 1345.83,-107.68 1354.21,-97.74"/>
<polygon fill="midnightblue" stroke="midnightblue" points="1241.01,-257.85 1238.89,-268.23 1247.02,-261.44 1241.01,-257.85"/>
</g>
<!-- Node4 -->
<g id="node4" class="node">
<title>Node4</title>
<g id="a_node4"><a xlink:href="../../d3/d22/_patern_computer_8h.html" target="_top" xlink:title=" ">
<polygon fill="white" stroke="black" points="339.5,-134.5 339.5,-164.5 493.5,-164.5 493.5,-134.5 339.5,-134.5"/>
<text text-anchor="start" x="347.5" y="-152.5" font-family="Helvetica,sans-Serif" font-size="10.00">RayLib_SHMUP/include</text>
<text text-anchor="middle" x="416.5" y="-141.5" font-family="Helvetica,sans-Serif" font-size="10.00">/PaternEditor/PaternComputer.h</text>
</a>
</g>
</g>
<!-- Node3&#45;&gt;Node4 -->
<g id="edge3" class="edge">
<title>Node3&#45;&gt;Node4</title>
<path fill="none" stroke="midnightblue" d="M886.56,-200.95C742.34,-178.7 585.38,-164.05 493.9,-156.47"/>
<polygon fill="midnightblue" stroke="midnightblue" points="886.06,-204.41 896.48,-202.5 887.14,-197.5 886.06,-204.41"/>
</g>
<!-- Node7 -->
<g id="node7" class="node">
<title>Node7</title>
<g id="a_node7"><a xlink:href="../../d4/d1e/_enemy_8h.html" target="_top" xlink:title=" ">
<polygon fill="white" stroke="black" points="1072.5,-134.5 1072.5,-164.5 1202.5,-164.5 1202.5,-134.5 1072.5,-134.5"/>
<text text-anchor="start" x="1080.5" y="-152.5" font-family="Helvetica,sans-Serif" font-size="10.00">RayLib_SHMUP/include</text>
<text text-anchor="middle" x="1137.5" y="-141.5" font-family="Helvetica,sans-Serif" font-size="10.00">/Shmup/Movable/Enemy.h</text>
</a>
</g>
</g>
<!-- Node3&#45;&gt;Node7 -->
<g id="edge6" class="edge">
<title>Node3&#45;&gt;Node7</title>
<path fill="none" stroke="midnightblue" d="M1006.09,-197.96C1035.08,-187.48 1071.41,-174.37 1098.52,-164.58"/>
<polygon fill="midnightblue" stroke="midnightblue" points="1004.77,-194.71 996.56,-201.4 1007.15,-201.29 1004.77,-194.71"/>
</g>
<!-- Node10 -->
<g id="node10" class="node">
<title>Node10</title>
<g id="a_node10"><a xlink:href="../../de/d15/_shoot_8h.html" target="_top" xlink:title=" ">
<polygon fill="white" stroke="black" points="668.5,-134.5 668.5,-164.5 794.5,-164.5 794.5,-134.5 668.5,-134.5"/>
<text text-anchor="start" x="676.5" y="-152.5" font-family="Helvetica,sans-Serif" font-size="10.00">RayLib_SHMUP/include</text>
<text text-anchor="middle" x="731.5" y="-141.5" font-family="Helvetica,sans-Serif" font-size="10.00">/Shmup/Movable/Shoot.h</text>
</a>
</g>
</g>
<!-- Node3&#45;&gt;Node10 -->
<g id="edge9" class="edge">
<title>Node3&#45;&gt;Node10</title>
<path fill="none" stroke="midnightblue" d="M898.67,-198.58C861.96,-188.02 815.27,-174.59 780.56,-164.61"/>
<polygon fill="midnightblue" stroke="midnightblue" points="898.16,-202.08 908.74,-201.48 900.1,-195.35 898.16,-202.08"/>
</g>
<!-- Node16 -->
<g id="node16" class="node">
<title>Node16</title>
<g id="a_node16"><a xlink:href="../../df/d32/_sequence_move_patern_8cpp.html" target="_top" xlink:title=" ">
<polygon fill="white" stroke="black" points="851,-134.5 851,-164.5 1054,-164.5 1054,-134.5 851,-134.5"/>
<text text-anchor="start" x="859" y="-152.5" font-family="Helvetica,sans-Serif" font-size="10.00">RayLib_SHMUP/src/Shmup</text>
<text text-anchor="middle" x="952.5" y="-141.5" font-family="Helvetica,sans-Serif" font-size="10.00">/Paterns/Enemy/SequenceMovePatern.cpp</text>
</a>
</g>
</g>
<!-- Node3&#45;&gt;Node16 -->
<g id="edge17" class="edge">
<title>Node3&#45;&gt;Node16</title>
<path fill="none" stroke="midnightblue" d="M955.65,-191.4C954.95,-182.37 954.19,-172.41 953.58,-164.58"/>
<polygon fill="midnightblue" stroke="midnightblue" points="952.16,-191.69 956.42,-201.4 959.14,-191.16 952.16,-191.69"/>
</g>
<!-- Node5 -->
<g id="node5" class="node">
<title>Node5</title>
<g id="a_node5"><a xlink:href="../../d3/d32/_patern_computer_8cpp.html" target="_top" xlink:title=" ">
<polygon fill="white" stroke="black" points="179,-67.5 179,-97.5 340,-97.5 340,-67.5 179,-67.5"/>
<text text-anchor="start" x="187" y="-85.5" font-family="Helvetica,sans-Serif" font-size="10.00">RayLib_SHMUP/src/PaternEditor</text>
<text text-anchor="middle" x="259.5" y="-74.5" font-family="Helvetica,sans-Serif" font-size="10.00">/PaternComputer.cpp</text>
</a>
</g>
</g>
<!-- Node4&#45;&gt;Node5 -->
<g id="edge4" class="edge">
<title>Node4&#45;&gt;Node5</title>
<path fill="none" stroke="midnightblue" d="M373.13,-130.54C348.01,-120.14 316.84,-107.24 293.5,-97.58"/>
<polygon fill="midnightblue" stroke="midnightblue" points="371.86,-133.8 382.43,-134.4 374.53,-127.34 371.86,-133.8"/>
</g>
<!-- Node6 -->
<g id="node6" class="node">
<title>Node6</title>
<g id="a_node6"><a xlink:href="../../d5/d58/_patern_editor_main_8cpp.html" target="_top" xlink:title=" ">
<polygon fill="white" stroke="black" points="0,-67.5 0,-97.5 161,-97.5 161,-67.5 0,-67.5"/>
<text text-anchor="start" x="8" y="-85.5" font-family="Helvetica,sans-Serif" font-size="10.00">RayLib_SHMUP/src/PaternEditor</text>
<text text-anchor="middle" x="80.5" y="-74.5" font-family="Helvetica,sans-Serif" font-size="10.00">Main.cpp</text>
</a>
</g>
</g>
<!-- Node4&#45;&gt;Node6 -->
<g id="edge5" class="edge">
<title>Node4&#45;&gt;Node6</title>
<path fill="none" stroke="midnightblue" d="M333.87,-132.52C278.52,-121.81 206.31,-107.84 153.15,-97.55"/>
<polygon fill="midnightblue" stroke="midnightblue" points="333.52,-136.01 344.01,-134.48 334.85,-129.14 333.52,-136.01"/>
</g>
<!-- Node7&#45;&gt;Node8 -->
<g id="edge7" class="edge">
<title>Node7&#45;&gt;Node8</title>
<path fill="none" stroke="midnightblue" d="M1112.07,-127.43C1094.62,-110.39 1077.03,-86.18 1091.5,-67 1104.78,-49.4 1155.18,-36.1 1198.82,-27.58"/>
<polygon fill="midnightblue" stroke="midnightblue" points="1109.73,-130.03 1119.44,-134.25 1114.48,-124.89 1109.73,-130.03"/>
</g>
<!-- Node9 -->
<g id="node9" class="node">
<title>Node9</title>
<g id="a_node9"><a xlink:href="../../de/d34/_enemy_8cpp.html" target="_top" xlink:title=" ">
<polygon fill="white" stroke="black" points="1101,-67.5 1101,-97.5 1240,-97.5 1240,-67.5 1101,-67.5"/>
<text text-anchor="start" x="1109" y="-85.5" font-family="Helvetica,sans-Serif" font-size="10.00">RayLib_SHMUP/src/Shmup</text>
<text text-anchor="middle" x="1170.5" y="-74.5" font-family="Helvetica,sans-Serif" font-size="10.00">/Movable/Enemy.cpp</text>
</a>
</g>
</g>
<!-- Node7&#45;&gt;Node9 -->
<g id="edge8" class="edge">
<title>Node7&#45;&gt;Node9</title>
<path fill="none" stroke="midnightblue" d="M1149.29,-125.28C1153.99,-116.02 1159.25,-105.66 1163.35,-97.58"/>
<polygon fill="midnightblue" stroke="midnightblue" points="1146.07,-123.89 1144.66,-134.4 1152.31,-127.06 1146.07,-123.89"/>
</g>
<!-- Node11 -->
<g id="node11" class="node">
<title>Node11</title>
<g id="a_node11"><a xlink:href="../../d1/d39/_player_8h.html" target="_top" xlink:title=" ">
<polygon fill="white" stroke="black" points="396.5,-67.5 396.5,-97.5 524.5,-97.5 524.5,-67.5 396.5,-67.5"/>
<text text-anchor="start" x="404.5" y="-85.5" font-family="Helvetica,sans-Serif" font-size="10.00">RayLib_SHMUP/include</text>
<text text-anchor="middle" x="460.5" y="-74.5" font-family="Helvetica,sans-Serif" font-size="10.00">/Shmup/Movable/Player.h</text>
</a>
</g>
</g>
<!-- Node10&#45;&gt;Node11 -->
<g id="edge10" class="edge">
<title>Node10&#45;&gt;Node11</title>
<path fill="none" stroke="midnightblue" d="M663.2,-132.12C618.86,-121.48 561.66,-107.76 519.33,-97.61"/>
<polygon fill="midnightblue" stroke="midnightblue" points="662.49,-135.55 673.03,-134.48 664.12,-128.74 662.49,-135.55"/>
</g>
<!-- Node12 -->
<g id="node12" class="node">
<title>Node12</title>
<g id="a_node12"><a xlink:href="../../d2/d82/_player_8cpp.html" target="_top" xlink:title=" ">
<polygon fill="white" stroke="black" points="345,-0.5 345,-30.5 484,-30.5 484,-0.5 345,-0.5"/>
<text text-anchor="start" x="353" y="-18.5" font-family="Helvetica,sans-Serif" font-size="10.00">RayLib_SHMUP/src/Shmup</text>
<text text-anchor="middle" x="414.5" y="-7.5" font-family="Helvetica,sans-Serif" font-size="10.00">/Movable/Player.cpp</text>
</a>
</g>
</g>
<!-- Node10&#45;&gt;Node12 -->
<g id="edge13" class="edge">
<title>Node10&#45;&gt;Node12</title>
<path fill="none" stroke="midnightblue" d="M658.12,-142.79C562.38,-134.58 404.94,-118.19 387.5,-98 370.74,-78.6 388.69,-48.48 402.27,-30.8"/>
<polygon fill="midnightblue" stroke="midnightblue" points="658.07,-146.3 668.33,-143.65 658.66,-139.32 658.07,-146.3"/>
</g>
<!-- Node13 -->
<g id="node13" class="node">
<title>Node13</title>
<g id="a_node13"><a xlink:href="../../d6/dae/_shoot_8cpp.html" target="_top" xlink:title=" ">
<polygon fill="white" stroke="black" points="543,-67.5 543,-97.5 682,-97.5 682,-67.5 543,-67.5"/>
<text text-anchor="start" x="551" y="-85.5" font-family="Helvetica,sans-Serif" font-size="10.00">RayLib_SHMUP/src/Shmup</text>
<text text-anchor="middle" x="612.5" y="-74.5" font-family="Helvetica,sans-Serif" font-size="10.00">/Movable/Shoot.cpp</text>
</a>
</g>
</g>
<!-- Node10&#45;&gt;Node13 -->
<g id="edge14" class="edge">
<title>Node10&#45;&gt;Node13</title>
<path fill="none" stroke="midnightblue" d="M696.85,-129.57C678.13,-119.35 655.41,-106.94 638.27,-97.58"/>
<polygon fill="midnightblue" stroke="midnightblue" points="695.22,-132.67 705.68,-134.4 698.58,-126.53 695.22,-132.67"/>
</g>
<!-- Node14 -->
<g id="node14" class="node">
<title>Node14</title>
<g id="a_node14"><a xlink:href="../../dc/dac/_patern_linear_8cpp.html" target="_top" xlink:title=" ">
<polygon fill="white" stroke="black" points="700.5,-67.5 700.5,-97.5 858.5,-97.5 858.5,-67.5 700.5,-67.5"/>
<text text-anchor="start" x="708.5" y="-85.5" font-family="Helvetica,sans-Serif" font-size="10.00">RayLib_SHMUP/src/Shmup</text>
<text text-anchor="middle" x="779.5" y="-74.5" font-family="Helvetica,sans-Serif" font-size="10.00">/Paterns/Shoot/PaternLinear.cpp</text>
</a>
</g>
</g>
<!-- Node10&#45;&gt;Node14 -->
<g id="edge15" class="edge">
<title>Node10&#45;&gt;Node14</title>
<path fill="none" stroke="midnightblue" d="M748,-126.16C755,-116.68 762.94,-105.92 769.11,-97.58"/>
<polygon fill="midnightblue" stroke="midnightblue" points="745.04,-124.27 741.92,-134.4 750.67,-128.43 745.04,-124.27"/>
</g>
<!-- Node15 -->
<g id="node15" class="node">
<title>Node15</title>
<g id="a_node15"><a xlink:href="../../db/db4/_patern_v_spread_8cpp.html" target="_top" xlink:title=" ">
<polygon fill="white" stroke="black" points="876,-67.5 876,-97.5 1045,-97.5 1045,-67.5 876,-67.5"/>
<text text-anchor="start" x="884" y="-85.5" font-family="Helvetica,sans-Serif" font-size="10.00">RayLib_SHMUP/src/Shmup</text>
<text text-anchor="middle" x="960.5" y="-74.5" font-family="Helvetica,sans-Serif" font-size="10.00">/Paterns/Shoot/PaternVSpread.cpp</text>
</a>
</g>
</g>
<!-- Node10&#45;&gt;Node15 -->
<g id="edge16" class="edge">
<title>Node10&#45;&gt;Node15</title>
<path fill="none" stroke="midnightblue" d="M790.64,-131.71C827.9,-121.14 875.47,-107.63 910.79,-97.61"/>
<polygon fill="midnightblue" stroke="midnightblue" points="789.57,-128.38 780.91,-134.48 791.48,-135.11 789.57,-128.38"/>
</g>
<!-- Node11&#45;&gt;Node8 -->
<g id="edge11" class="edge">
<title>Node11&#45;&gt;Node8</title>
<path fill="none" stroke="midnightblue" d="M534.51,-66.98C784.27,-34.32 1069.62,-22.37 1198.79,-18.33"/>
<polygon fill="midnightblue" stroke="midnightblue" points="533.97,-63.52 524.52,-68.3 534.89,-70.46 533.97,-63.52"/>
</g>
<!-- Node11&#45;&gt;Node12 -->
<g id="edge12" class="edge">
<title>Node11&#45;&gt;Node12</title>
<path fill="none" stroke="midnightblue" d="M444.69,-59.16C437.98,-49.68 430.37,-38.92 424.46,-30.58"/>
<polygon fill="midnightblue" stroke="midnightblue" points="441.88,-61.26 450.52,-67.4 447.6,-57.21 441.88,-61.26"/>
</g>
<!-- Node17&#45;&gt;Node9 -->
<g id="edge20" class="edge">
<title>Node17&#45;&gt;Node9</title>
<path fill="none" stroke="midnightblue" d="M817.99,-191.25C819.74,-172.79 825.25,-148.2 841.5,-134 851.21,-125.51 1007.33,-104.31 1100.97,-92.25"/>
<polygon fill="midnightblue" stroke="midnightblue" points="814.5,-191.08 817.35,-201.29 821.48,-191.53 814.5,-191.08"/>
</g>
<!-- Node18 -->
<g id="node18" class="node">
<title>Node18</title>
<g id="a_node18"><a xlink:href="../../d5/d01/_explosion_8cpp.html" target="_top" xlink:title=" ">
<polygon fill="white" stroke="black" points="182,-134.5 182,-164.5 321,-164.5 321,-134.5 182,-134.5"/>
<text text-anchor="start" x="190" y="-152.5" font-family="Helvetica,sans-Serif" font-size="10.00">RayLib_SHMUP/src/Shmup</text>
<text text-anchor="middle" x="251.5" y="-141.5" font-family="Helvetica,sans-Serif" font-size="10.00">/Explosion.cpp</text>
</a>
</g>
</g>
<!-- Node17&#45;&gt;Node18 -->
<g id="edge19" class="edge">
<title>Node17&#45;&gt;Node18</title>
<path fill="none" stroke="midnightblue" d="M746.11,-209.86C651.01,-201.94 477.64,-186.1 330.5,-165 327.46,-164.56 324.37,-164.1 321.24,-163.61"/>
<polygon fill="midnightblue" stroke="midnightblue" points="745.94,-213.35 756.19,-210.69 746.51,-206.38 745.94,-213.35"/>
</g>
<!-- Node20&#45;&gt;Node7 -->
<g id="edge28" class="edge">
<title>Node20&#45;&gt;Node7</title>
<path fill="none" stroke="midnightblue" d="M1409.68,-200.06C1346.24,-188.51 1260.77,-172.94 1202.65,-162.36"/>
<polygon fill="midnightblue" stroke="midnightblue" points="1409.2,-203.53 1419.66,-201.87 1410.45,-196.64 1409.2,-203.53"/>
</g>
<!-- Node20&#45;&gt;Node10 -->
<g id="edge29" class="edge">
<title>Node20&#45;&gt;Node10</title>
<path fill="none" stroke="midnightblue" d="M1409.72,-210.41C1285.04,-202.59 1045,-186.27 841.5,-165 826.27,-163.41 809.89,-161.41 794.54,-159.4"/>
<polygon fill="midnightblue" stroke="midnightblue" points="1409.76,-213.92 1419.95,-211.05 1410.19,-206.93 1409.76,-213.92"/>
</g>
<!-- Node21 -->
<g id="node21" class="node">
<title>Node21</title>
<g id="a_node21"><a xlink:href="../../d7/d3e/_collision_manager_8h.html" target="_top" xlink:title=" ">
<polygon fill="white" stroke="black" points="1523,-134.5 1523,-164.5 1698,-164.5 1698,-134.5 1523,-134.5"/>
<text text-anchor="start" x="1531" y="-152.5" font-family="Helvetica,sans-Serif" font-size="10.00">RayLib_SHMUP/include</text>
<text text-anchor="middle" x="1610.5" y="-141.5" font-family="Helvetica,sans-Serif" font-size="10.00">/Shmup/Collision/CollisionManager.h</text>
</a>
</g>
</g>
<!-- Node20&#45;&gt;Node21 -->
<g id="edge24" class="edge">
<title>Node20&#45;&gt;Node21</title>
<path fill="none" stroke="midnightblue" d="M1528.77,-196.3C1546.92,-186.12 1568.82,-173.85 1585.38,-164.58"/>
<polygon fill="midnightblue" stroke="midnightblue" points="1526.68,-193.45 1519.67,-201.4 1530.1,-199.56 1526.68,-193.45"/>
</g>
<!-- Node22 -->
<g id="node22" class="node">
<title>Node22</title>
<g id="a_node22"><a xlink:href="../../d9/d84/_a_collidable_8cpp.html" target="_top" xlink:title=" ">
<polygon fill="white" stroke="black" points="1493,-67.5 1493,-97.5 1632,-97.5 1632,-67.5 1493,-67.5"/>
<text text-anchor="start" x="1501" y="-85.5" font-family="Helvetica,sans-Serif" font-size="10.00">RayLib_SHMUP/src/Shmup</text>
<text text-anchor="middle" x="1562.5" y="-74.5" font-family="Helvetica,sans-Serif" font-size="10.00">/Collision/ACollidable.cpp</text>
</a>
</g>
</g>
<!-- Node20&#45;&gt;Node22 -->
<g id="edge30" class="edge">
<title>Node20&#45;&gt;Node22</title>
<path fill="none" stroke="midnightblue" d="M1497.1,-191.29C1499.69,-174.42 1504.75,-151.83 1514.5,-134 1522.16,-119.99 1534.68,-107 1545.02,-97.71"/>
<polygon fill="midnightblue" stroke="midnightblue" points="1493.6,-191.07 1495.73,-201.44 1500.54,-192 1493.6,-191.07"/>
</g>
<!-- Node23 -->
<g id="node23" class="node">
<title>Node23</title>
<g id="a_node23"><a xlink:href="../../df/db7/_collision_manager_8cpp.html" target="_top" xlink:title=" ">
<polygon fill="white" stroke="black" points="1650.5,-67.5 1650.5,-97.5 1802.5,-97.5 1802.5,-67.5 1650.5,-67.5"/>
<text text-anchor="start" x="1658.5" y="-85.5" font-family="Helvetica,sans-Serif" font-size="10.00">RayLib_SHMUP/src/Shmup</text>
<text text-anchor="middle" x="1726.5" y="-74.5" font-family="Helvetica,sans-Serif" font-size="10.00">/Collision/CollisionManager.cpp</text>
</a>
</g>
</g>
<!-- Node20&#45;&gt;Node23 -->
<g id="edge31" class="edge">
<title>Node20&#45;&gt;Node23</title>
<path fill="none" stroke="midnightblue" d="M1579.34,-204.63C1630.54,-196.36 1689.3,-183.27 1707.5,-165 1725.34,-147.09 1727.71,-115.88 1727.39,-97.72"/>
<polygon fill="midnightblue" stroke="midnightblue" points="1578.55,-201.21 1569.22,-206.22 1579.64,-208.12 1578.55,-201.21"/>
</g>
<!-- Node21&#45;&gt;Node8 -->
<g id="edge27" class="edge">
<title>Node21&#45;&gt;Node8</title>
<path fill="none" stroke="midnightblue" d="M1708.05,-139.16C1776.25,-128.92 1848.97,-108.12 1811.5,-67 1780.19,-32.65 1477.4,-21.28 1338.05,-17.85"/>
<polygon fill="midnightblue" stroke="midnightblue" points="1707.43,-135.71 1698.03,-140.6 1708.43,-142.64 1707.43,-135.71"/>
</g>
<!-- Node21&#45;&gt;Node22 -->
<g id="edge25" class="edge">
<title>Node21&#45;&gt;Node22</title>
<path fill="none" stroke="midnightblue" d="M1594,-126.16C1587,-116.68 1579.06,-105.92 1572.89,-97.58"/>
<polygon fill="midnightblue" stroke="midnightblue" points="1591.33,-128.43 1600.08,-134.4 1596.96,-124.27 1591.33,-128.43"/>
</g>
<!-- Node21&#45;&gt;Node23 -->
<g id="edge26" class="edge">
<title>Node21&#45;&gt;Node23</title>
<path fill="none" stroke="midnightblue" d="M1644.77,-129.3C1662.92,-119.12 1684.82,-106.85 1701.38,-97.58"/>
<polygon fill="midnightblue" stroke="midnightblue" points="1642.68,-126.45 1635.67,-134.4 1646.1,-132.56 1642.68,-126.45"/>
</g>
<!-- Node24&#45;&gt;Node8 -->
<g id="edge36" class="edge">
<title>Node24&#45;&gt;Node8</title>
<path fill="none" stroke="midnightblue" d="M1423.78,-127.54C1441.84,-110.57 1460.13,-86.38 1445.5,-67 1432.22,-49.4 1381.82,-36.1 1338.18,-27.58"/>
<polygon fill="midnightblue" stroke="midnightblue" points="1421.29,-125.07 1416.15,-134.33 1425.95,-130.3 1421.29,-125.07"/>
</g>
<!-- Node24&#45;&gt;Node9 -->
<g id="edge37" class="edge">
<title>Node24&#45;&gt;Node9</title>
<path fill="none" stroke="midnightblue" d="M1338.88,-131.71C1301.94,-121.14 1254.79,-107.63 1219.78,-97.61"/>
<polygon fill="midnightblue" stroke="midnightblue" points="1337.95,-135.09 1348.52,-134.48 1339.87,-128.36 1337.95,-135.09"/>
</g>
<!-- Node24&#45;&gt;Node19 -->
<g id="edge33" class="edge">
<title>Node24&#45;&gt;Node19</title>
<path fill="none" stroke="midnightblue" d="M1386.43,-125.28C1382.01,-116.02 1377.07,-105.66 1373.21,-97.58"/>
<polygon fill="midnightblue" stroke="midnightblue" points="1383.31,-126.88 1390.77,-134.4 1389.63,-123.86 1383.31,-126.88"/>
</g>
<!-- Node24&#45;&gt;Node22 -->
<g id="edge34" class="edge">
<title>Node24&#45;&gt;Node22</title>
<path fill="none" stroke="midnightblue" d="M1442.73,-130.68C1469.19,-120.26 1502.13,-107.28 1526.77,-97.58"/>
<polygon fill="midnightblue" stroke="midnightblue" points="1441.32,-127.47 1433.3,-134.4 1443.89,-133.99 1441.32,-127.47"/>
</g>
<!-- Node24&#45;&gt;Node23 -->
<g id="edge35" class="edge">
<title>Node24&#45;&gt;Node23</title>
<path fill="none" stroke="midnightblue" d="M1470.21,-134.13C1525.37,-123.24 1600.78,-108.34 1655.51,-97.53"/>
<polygon fill="midnightblue" stroke="midnightblue" points="1469.29,-130.75 1460.16,-136.12 1470.65,-137.62 1469.29,-130.75"/>
</g>
</g>
</svg>
