<?xml version="1.0" encoding="UTF-8" standalone="no"?>
<!DOCTYPE svg PUBLIC "-//W3C//DTD SVG 1.1//EN"
 "http://www.w3.org/Graphics/SVG/1.1/DTD/svg11.dtd">
<!-- Generated by graphviz version 2.49.3 (20211027.1534)
 -->
<!-- Title: RayLib_SHMUP/include/Namespaces/Controller.h Pages: 1 -->
<svg width="646pt" height="106pt"
 viewBox="0.00 0.00 645.50 106.00" xmlns="http://www.w3.org/2000/svg" xmlns:xlink="http://www.w3.org/1999/xlink">
<g id="graph0" class="graph" transform="scale(1 1) rotate(0) translate(4 102)">
<title>RayLib_SHMUP/include/Namespaces/Controller.h</title>
<polygon fill="white" stroke="transparent" points="-4,4 -4,-102 641.5,-102 641.5,4 -4,4"/>
<!-- Node1 -->
<g id="node1" class="node">
<title>Node1</title>
<g id="a_node1"><a xlink:title=" ">
<polygon fill="#bfbfbf" stroke="black" points="267.5,-67.5 267.5,-97.5 396.5,-97.5 396.5,-67.5 267.5,-67.5"/>
<text text-anchor="start" x="275.5" y="-85.5" font-family="Helvetica,sans-Serif" font-size="10.00">RayLib_SHMUP/include</text>
<text text-anchor="middle" x="332" y="-74.5" font-family="Helvetica,sans-Serif" font-size="10.00">/Namespaces/Controller.h</text>
</a>
</g>
</g>
<!-- Node2 -->
<g id="node2" class="node">
<title>Node2</title>
<g id="a_node2"><a xlink:href="../../d3/dec/_controller_8cpp.html" target="_top" xlink:title=" ">
<polygon fill="white" stroke="black" points="0,-0.5 0,-30.5 166,-30.5 166,-0.5 0,-0.5"/>
<text text-anchor="start" x="8" y="-18.5" font-family="Helvetica,sans-Serif" font-size="10.00">RayLib_SHMUP/src/Namespaces</text>
<text text-anchor="middle" x="83" y="-7.5" font-family="Helvetica,sans-Serif" font-size="10.00">/Controller.cpp</text>
</a>
</g>
</g>
<!-- Node1&#45;&gt;Node2 -->
<g id="edge1" class="edge">
<title>Node1&#45;&gt;Node2</title>
<path fill="none" stroke="midnightblue" d="M268.47,-64.92C227.84,-54.31 175.7,-40.7 137.06,-30.61"/>
<polygon fill="midnightblue" stroke="midnightblue" points="267.72,-68.34 278.28,-67.48 269.49,-61.56 267.72,-68.34"/>
</g>
<!-- Node3 -->
<g id="node3" class="node">
<title>Node3</title>
<g id="a_node3"><a xlink:href="../../d2/d2e/_game_manager_8cpp.html" target="_top" xlink:title=" ">
<polygon fill="white" stroke="black" points="184.5,-0.5 184.5,-30.5 323.5,-30.5 323.5,-0.5 184.5,-0.5"/>
<text text-anchor="start" x="192.5" y="-18.5" font-family="Helvetica,sans-Serif" font-size="10.00">RayLib_SHMUP/src/Shmup</text>
<text text-anchor="middle" x="254" y="-7.5" font-family="Helvetica,sans-Serif" font-size="10.00">/GameManager.cpp</text>
</a>
</g>
</g>
<!-- Node1&#45;&gt;Node3 -->
<g id="edge2" class="edge">
<title>Node1&#45;&gt;Node3</title>
<path fill="none" stroke="midnightblue" d="M307.26,-60.88C295.41,-51.01 281.52,-39.43 270.89,-30.58"/>
<polygon fill="midnightblue" stroke="midnightblue" points="305.15,-63.68 315.08,-67.4 309.63,-58.31 305.15,-63.68"/>
</g>
<!-- Node4 -->
<g id="node4" class="node">
<title>Node4</title>
<g id="a_node4"><a xlink:href="../../d2/d82/_player_8cpp.html" target="_top" xlink:title=" ">
<polygon fill="white" stroke="black" points="341.5,-0.5 341.5,-30.5 480.5,-30.5 480.5,-0.5 341.5,-0.5"/>
<text text-anchor="start" x="349.5" y="-18.5" font-family="Helvetica,sans-Serif" font-size="10.00">RayLib_SHMUP/src/Shmup</text>
<text text-anchor="middle" x="411" y="-7.5" font-family="Helvetica,sans-Serif" font-size="10.00">/Movable/Player.cpp</text>
</a>
</g>
</g>
<!-- Node1&#45;&gt;Node4 -->
<g id="edge3" class="edge">
<title>Node1&#45;&gt;Node4</title>
<path fill="none" stroke="midnightblue" d="M357.06,-60.88C369.06,-51.01 383.13,-39.43 393.89,-30.58"/>
<polygon fill="midnightblue" stroke="midnightblue" points="354.64,-58.34 349.14,-67.4 359.09,-63.75 354.64,-58.34"/>
</g>
<!-- Node5 -->
<g id="node5" class="node">
<title>Node5</title>
<g id="a_node5"><a xlink:href="../../d6/dae/_shoot_8cpp.html" target="_top" xlink:title=" ">
<polygon fill="white" stroke="black" points="498.5,-0.5 498.5,-30.5 637.5,-30.5 637.5,-0.5 498.5,-0.5"/>
<text text-anchor="start" x="506.5" y="-18.5" font-family="Helvetica,sans-Serif" font-size="10.00">RayLib_SHMUP/src/Shmup</text>
<text text-anchor="middle" x="568" y="-7.5" font-family="Helvetica,sans-Serif" font-size="10.00">/Movable/Shoot.cpp</text>
</a>
</g>
</g>
<!-- Node1&#45;&gt;Node5 -->
<g id="edge4" class="edge">
<title>Node1&#45;&gt;Node5</title>
<path fill="none" stroke="midnightblue" d="M392.94,-64.71C431.35,-54.14 480.37,-40.63 516.77,-30.61"/>
<polygon fill="midnightblue" stroke="midnightblue" points="391.63,-61.45 382.92,-67.48 393.49,-68.19 391.63,-61.45"/>
</g>
</g>
</svg>
