<?xml version="1.0" encoding="UTF-8" standalone="no"?>
<!DOCTYPE svg PUBLIC "-//W3C//DTD SVG 1.1//EN"
 "http://www.w3.org/Graphics/SVG/1.1/DTD/svg11.dtd">
<!-- Generated by graphviz version 2.49.3 (20211027.1534)
 -->
<!-- Title: RayLib_SHMUP/include/Namespaces/Parser.h Pages: 1 -->
<svg width="494pt" height="229pt"
 viewBox="0.00 0.00 493.50 229.00" xmlns="http://www.w3.org/2000/svg" xmlns:xlink="http://www.w3.org/1999/xlink">
<g id="graph0" class="graph" transform="scale(1 1) rotate(0) translate(4 225)">
<title>RayLib_SHMUP/include/Namespaces/Parser.h</title>
<polygon fill="white" stroke="transparent" points="-4,4 -4,-225 489.5,-225 489.5,4 -4,4"/>
<!-- Node1 -->
<g id="node1" class="node">
<title>Node1</title>
<g id="a_node1"><a xlink:title=" ">
<polygon fill="#bfbfbf" stroke="black" points="256,-190.5 256,-220.5 378,-220.5 378,-190.5 256,-190.5"/>
<text text-anchor="start" x="264" y="-208.5" font-family="Helvetica,sans-Serif" font-size="10.00">RayLib_SHMUP/include</text>
<text text-anchor="middle" x="317" y="-197.5" font-family="Helvetica,sans-Serif" font-size="10.00">/Namespaces/Parser.h</text>
</a>
</g>
</g>
<!-- Node2 -->
<g id="node2" class="node">
<title>Node2</title>
<g id="a_node2"><a xlink:title=" ">
<polygon fill="white" stroke="#bfbfbf" points="156,-62 156,-81 210,-81 210,-62 156,-62"/>
<text text-anchor="middle" x="183" y="-69" font-family="Helvetica,sans-Serif" font-size="10.00">iostream</text>
</a>
</g>
</g>
<!-- Node1&#45;&gt;Node2 -->
<g id="edge1" class="edge">
<title>Node1&#45;&gt;Node2</title>
<path fill="none" stroke="midnightblue" d="M255.79,-197.47C202.88,-189.98 132.27,-176.12 115,-154 96.03,-129.7 130.88,-102.36 157.32,-86.33"/>
<polygon fill="midnightblue" stroke="midnightblue" points="159.34,-89.2 166.22,-81.15 155.82,-83.15 159.34,-89.2"/>
</g>
<!-- Node3 -->
<g id="node3" class="node">
<title>Node3</title>
<g id="a_node3"><a xlink:title=" ">
<polygon fill="white" stroke="#bfbfbf" points="367.5,-62 367.5,-81 408.5,-81 408.5,-62 367.5,-62"/>
<text text-anchor="middle" x="388" y="-69" font-family="Helvetica,sans-Serif" font-size="10.00">string</text>
</a>
</g>
</g>
<!-- Node1&#45;&gt;Node3 -->
<g id="edge2" class="edge">
<title>Node1&#45;&gt;Node3</title>
<path fill="none" stroke="midnightblue" d="M342.57,-190.33C355.72,-181.64 370.7,-169.24 379,-154 389.61,-134.51 390.64,-108.55 389.82,-91.21"/>
<polygon fill="midnightblue" stroke="midnightblue" points="393.31,-90.94 389.09,-81.22 386.32,-91.45 393.31,-90.94"/>
</g>
<!-- Node4 -->
<g id="node4" class="node">
<title>Node4</title>
<g id="a_node4"><a xlink:title=" ">
<polygon fill="white" stroke="#bfbfbf" points="426.5,-129 426.5,-148 485.5,-148 485.5,-129 426.5,-129"/>
<text text-anchor="middle" x="456" y="-136" font-family="Helvetica,sans-Serif" font-size="10.00">stdexcept</text>
</a>
</g>
</g>
<!-- Node1&#45;&gt;Node4 -->
<g id="edge3" class="edge">
<title>Node1&#45;&gt;Node4</title>
<path fill="none" stroke="midnightblue" d="M347.16,-190.4C371.44,-179.04 405.28,-163.22 428.75,-152.24"/>
<polygon fill="midnightblue" stroke="midnightblue" points="430.23,-155.41 437.81,-148.01 427.27,-149.07 430.23,-155.41"/>
</g>
<!-- Node5 -->
<g id="node5" class="node">
<title>Node5</title>
<g id="a_node5"><a xlink:href="../../d9/dc1/_utils_8h.html" target="_top" xlink:title=" ">
<polygon fill="white" stroke="black" points="264.5,-129 264.5,-148 369.5,-148 369.5,-129 264.5,-129"/>
<text text-anchor="middle" x="317" y="-136" font-family="Helvetica,sans-Serif" font-size="10.00">Namespaces/Utils.h</text>
</a>
</g>
</g>
<!-- Node1&#45;&gt;Node5 -->
<g id="edge4" class="edge">
<title>Node1&#45;&gt;Node5</title>
<path fill="none" stroke="midnightblue" d="M317,-190.4C317,-181.06 317,-168.71 317,-158.52"/>
<polygon fill="midnightblue" stroke="midnightblue" points="320.5,-158.19 317,-148.19 313.5,-158.19 320.5,-158.19"/>
</g>
<!-- Node8 -->
<g id="node8" class="node">
<title>Node8</title>
<g id="a_node8"><a xlink:href="../../d1/d98/_sequence_move_patern_8h.html" target="_top" xlink:title=" ">
<polygon fill="white" stroke="black" points="123.5,-123.5 123.5,-153.5 246.5,-153.5 246.5,-123.5 123.5,-123.5"/>
<text text-anchor="start" x="131.5" y="-141.5" font-family="Helvetica,sans-Serif" font-size="10.00">Shmup/Paterns/Enemy</text>
<text text-anchor="middle" x="185" y="-130.5" font-family="Helvetica,sans-Serif" font-size="10.00">/SequenceMovePatern.h</text>
</a>
</g>
</g>
<!-- Node1&#45;&gt;Node8 -->
<g id="edge9" class="edge">
<title>Node1&#45;&gt;Node8</title>
<path fill="none" stroke="midnightblue" d="M288.36,-190.4C269.16,-180.94 243.67,-168.39 222.81,-158.12"/>
<polygon fill="midnightblue" stroke="midnightblue" points="224.1,-154.85 213.59,-153.58 221.01,-161.13 224.1,-154.85"/>
</g>
<!-- Node5&#45;&gt;Node2 -->
<g id="edge5" class="edge">
<title>Node5&#45;&gt;Node2</title>
<path fill="none" stroke="midnightblue" d="M299.21,-128.87C276.38,-117.8 236.57,-98.49 210,-85.6"/>
<polygon fill="midnightblue" stroke="midnightblue" points="211.39,-82.38 200.87,-81.17 208.34,-88.68 211.39,-82.38"/>
</g>
<!-- Node5&#45;&gt;Node3 -->
<g id="edge6" class="edge">
<title>Node5&#45;&gt;Node3</title>
<path fill="none" stroke="midnightblue" d="M326.58,-128.73C337.97,-118.31 357.19,-100.71 371.1,-87.97"/>
<polygon fill="midnightblue" stroke="midnightblue" points="373.56,-90.46 378.58,-81.13 368.84,-85.3 373.56,-90.46"/>
</g>
<!-- Node6 -->
<g id="node6" class="node">
<title>Node6</title>
<g id="a_node6"><a xlink:title=" ">
<polygon fill="white" stroke="#bfbfbf" points="228,-62 228,-81 272,-81 272,-62 228,-62"/>
<text text-anchor="middle" x="250" y="-69" font-family="Helvetica,sans-Serif" font-size="10.00">vector</text>
</a>
</g>
</g>
<!-- Node5&#45;&gt;Node6 -->
<g id="edge7" class="edge">
<title>Node5&#45;&gt;Node6</title>
<path fill="none" stroke="midnightblue" d="M307.96,-128.73C297.32,-118.4 279.42,-101.04 266.32,-88.33"/>
<polygon fill="midnightblue" stroke="midnightblue" points="268.51,-85.58 258.89,-81.13 263.63,-90.6 268.51,-85.58"/>
</g>
<!-- Node7 -->
<g id="node7" class="node">
<title>Node7</title>
<g id="a_node7"><a xlink:title=" ">
<polygon fill="white" stroke="#bfbfbf" points="290.5,-62 290.5,-81 349.5,-81 349.5,-62 290.5,-62"/>
<text text-anchor="middle" x="320" y="-69" font-family="Helvetica,sans-Serif" font-size="10.00">functional</text>
</a>
</g>
</g>
<!-- Node5&#45;&gt;Node7 -->
<g id="edge8" class="edge">
<title>Node5&#45;&gt;Node7</title>
<path fill="none" stroke="midnightblue" d="M317.4,-128.73C317.85,-119.18 318.56,-103.62 319.13,-91.28"/>
<polygon fill="midnightblue" stroke="midnightblue" points="322.64,-91.28 319.6,-81.13 315.64,-90.96 322.64,-91.28"/>
</g>
<!-- Node8&#45;&gt;Node2 -->
<g id="edge13" class="edge">
<title>Node8&#45;&gt;Node2</title>
<path fill="none" stroke="midnightblue" d="M184.57,-123.4C184.28,-114.06 183.9,-101.71 183.59,-91.52"/>
<polygon fill="midnightblue" stroke="midnightblue" points="187.07,-91.08 183.27,-81.19 180.08,-91.3 187.07,-91.08"/>
</g>
<!-- Node8&#45;&gt;Node3 -->
<g id="edge14" class="edge">
<title>Node8&#45;&gt;Node3</title>
<path fill="none" stroke="midnightblue" d="M243.08,-123.46C277.33,-114.5 321.21,-101.79 359,-87 360.38,-86.46 361.77,-85.88 363.18,-85.27"/>
<polygon fill="midnightblue" stroke="midnightblue" points="364.71,-88.42 372.28,-81.01 361.74,-82.08 364.71,-88.42"/>
</g>
<!-- Node8&#45;&gt;Node6 -->
<g id="edge15" class="edge">
<title>Node8&#45;&gt;Node6</title>
<path fill="none" stroke="midnightblue" d="M199.1,-123.4C209.44,-113.06 223.48,-99.02 234.19,-88.31"/>
<polygon fill="midnightblue" stroke="midnightblue" points="236.71,-90.74 241.31,-81.19 231.76,-85.79 236.71,-90.74"/>
</g>
<!-- Node9 -->
<g id="node9" class="node">
<title>Node9</title>
<g id="a_node9"><a xlink:href="../../dc/d8f/_a_offsetable_patern_8h.html" target="_top" xlink:title=" ">
<polygon fill="white" stroke="black" points="0,-56.5 0,-86.5 138,-86.5 138,-56.5 0,-56.5"/>
<text text-anchor="start" x="8" y="-74.5" font-family="Helvetica,sans-Serif" font-size="10.00">Shmup/Paterns/AOffsetable</text>
<text text-anchor="middle" x="69" y="-63.5" font-family="Helvetica,sans-Serif" font-size="10.00">Patern.h</text>
</a>
</g>
</g>
<!-- Node8&#45;&gt;Node9 -->
<g id="edge10" class="edge">
<title>Node8&#45;&gt;Node9</title>
<path fill="none" stroke="midnightblue" d="M159.83,-123.4C143.26,-114.11 121.36,-101.84 103.22,-91.67"/>
<polygon fill="midnightblue" stroke="midnightblue" points="104.56,-88.41 94.12,-86.58 101.13,-94.52 104.56,-88.41"/>
</g>
<!-- Node10 -->
<g id="node10" class="node">
<title>Node10</title>
<g id="a_node10"><a xlink:title=" ">
<polygon fill="white" stroke="#bfbfbf" points="10.5,-0.5 10.5,-19.5 57.5,-19.5 57.5,-0.5 10.5,-0.5"/>
<text text-anchor="middle" x="34" y="-7.5" font-family="Helvetica,sans-Serif" font-size="10.00">raylib.h</text>
</a>
</g>
</g>
<!-- Node9&#45;&gt;Node10 -->
<g id="edge11" class="edge">
<title>Node9&#45;&gt;Node10</title>
<path fill="none" stroke="midnightblue" d="M60.71,-56.4C55.78,-48.02 49.49,-37.33 44.25,-28.42"/>
<polygon fill="midnightblue" stroke="midnightblue" points="47.18,-26.5 39.09,-19.66 41.15,-30.05 47.18,-26.5"/>
</g>
<!-- Node11 -->
<g id="node11" class="node">
<title>Node11</title>
<g id="a_node11"><a xlink:href="../../df/d50/_a_patern_8h.html" target="_top" xlink:title=" ">
<polygon fill="white" stroke="black" points="75.5,-0.5 75.5,-19.5 134.5,-19.5 134.5,-0.5 75.5,-0.5"/>
<text text-anchor="middle" x="105" y="-7.5" font-family="Helvetica,sans-Serif" font-size="10.00">APatern.h</text>
</a>
</g>
</g>
<!-- Node9&#45;&gt;Node11 -->
<g id="edge12" class="edge">
<title>Node9&#45;&gt;Node11</title>
<path fill="none" stroke="midnightblue" d="M77.53,-56.4C82.6,-48.02 89.07,-37.33 94.46,-28.42"/>
<polygon fill="midnightblue" stroke="midnightblue" points="97.58,-30.03 99.76,-19.66 91.59,-26.4 97.58,-30.03"/>
</g>
</g>
</svg>
