<?xml version="1.0" encoding="UTF-8" standalone="no"?>
<!DOCTYPE svg PUBLIC "-//W3C//DTD SVG 1.1//EN"
 "http://www.w3.org/Graphics/SVG/1.1/DTD/svg11.dtd">
<!-- Generated by graphviz version 2.49.3 (20211027.1534)
 -->
<!-- Title: Shoot Pages: 1 -->
<svg width="318pt" height="285pt"
 viewBox="0.00 0.00 318.00 285.00" xmlns="http://www.w3.org/2000/svg" xmlns:xlink="http://www.w3.org/1999/xlink">
<g id="graph0" class="graph" transform="scale(1 1) rotate(0) translate(4 281)">
<title>Shoot</title>
<polygon fill="white" stroke="transparent" points="-4,4 -4,-281 314,-281 314,4 -4,4"/>
<!-- Node1 -->
<g id="node1" class="node">
<title>Node1</title>
<g id="a_node1"><a xlink:title="An shoot (player or enemy)">
<polygon fill="#bfbfbf" stroke="black" points="168,-0.5 168,-19.5 210,-19.5 210,-0.5 168,-0.5"/>
<text text-anchor="middle" x="189" y="-7.5" font-family="Helvetica,sans-Serif" font-size="10.00">Shoot</text>
</a>
</g>
</g>
<!-- Node2 -->
<g id="node2" class="node">
<title>Node2</title>
<g id="a_node2"><a xlink:href="../../d5/d15/class_a_movable.html" target="_top" xlink:title=" ">
<polygon fill="white" stroke="black" points="126,-57.5 126,-76.5 186,-76.5 186,-57.5 126,-57.5"/>
<text text-anchor="middle" x="156" y="-64.5" font-family="Helvetica,sans-Serif" font-size="10.00">AMovable</text>
</a>
</g>
</g>
<!-- Node2&#45;&gt;Node1 -->
<g id="edge1" class="edge">
<title>Node2&#45;&gt;Node1</title>
<path fill="none" stroke="midnightblue" d="M166.42,-48.64C172.19,-39.01 179.12,-27.46 183.77,-19.71"/>
<polygon fill="midnightblue" stroke="midnightblue" points="163.3,-47.03 161.16,-57.41 169.3,-50.63 163.3,-47.03"/>
</g>
<!-- Node3 -->
<g id="node3" class="node">
<title>Node3</title>
<g id="a_node3"><a xlink:href="../../d3/d92/class_a_graphic_object.html" target="_top" xlink:title=" ">
<polygon fill="white" stroke="black" points="104,-133.5 104,-152.5 190,-152.5 190,-133.5 104,-133.5"/>
<text text-anchor="middle" x="147" y="-140.5" font-family="Helvetica,sans-Serif" font-size="10.00">AGraphicObject</text>
</a>
</g>
</g>
<!-- Node3&#45;&gt;Node2 -->
<g id="edge2" class="edge">
<title>Node3&#45;&gt;Node2</title>
<path fill="none" stroke="midnightblue" d="M149.3,-123.07C151.11,-108.18 153.55,-88.11 154.93,-76.77"/>
<polygon fill="midnightblue" stroke="midnightblue" points="145.8,-122.87 148.07,-133.22 152.75,-123.72 145.8,-122.87"/>
</g>
<!-- Node4 -->
<g id="node4" class="node">
<title>Node4</title>
<g id="a_node4"><a xlink:href="../../db/d70/class_instance_list.html" target="_top" xlink:title=" ">
<polygon fill="white" stroke="black" points="0,-190.5 0,-209.5 156,-209.5 156,-190.5 0,-190.5"/>
<text text-anchor="middle" x="78" y="-197.5" font-family="Helvetica,sans-Serif" font-size="10.00">InstanceList&lt; AGraphicObject &gt;</text>
</a>
</g>
</g>
<!-- Node4&#45;&gt;Node3 -->
<g id="edge3" class="edge">
<title>Node4&#45;&gt;Node3</title>
<path fill="none" stroke="midnightblue" d="M96.82,-184C109.41,-173.96 125.54,-161.1 136.07,-152.71"/>
<polygon fill="midnightblue" stroke="midnightblue" points="94.42,-181.44 88.78,-190.41 98.78,-186.91 94.42,-181.44"/>
</g>
<!-- Node5 -->
<g id="node5" class="node">
<title>Node5</title>
<g id="a_node5"><a xlink:href="../../db/d70/class_instance_list.html" target="_top" xlink:title="Add a static list for the class T">
<polygon fill="white" stroke="black" points="112.5,-257.5 112.5,-276.5 205.5,-276.5 205.5,-257.5 112.5,-257.5"/>
<text text-anchor="middle" x="159" y="-264.5" font-family="Helvetica,sans-Serif" font-size="10.00">InstanceList&lt; T &gt;</text>
</a>
</g>
</g>
<!-- Node5&#45;&gt;Node4 -->
<g id="edge4" class="edge">
<title>Node5&#45;&gt;Node4</title>
<path fill="none" stroke="orange" stroke-dasharray="5,2" d="M136.08,-251.93C130.05,-247.96 123.65,-243.49 118,-239 106.3,-229.71 94,-217.63 86.19,-209.61"/>
<polygon fill="orange" stroke="orange" points="134.22,-254.9 144.53,-257.35 138,-249.01 134.22,-254.9"/>
<text text-anchor="middle" x="162" y="-231" font-family="Helvetica,sans-Serif" font-size="10.00"> &lt; AGraphicObject &gt;</text>
</g>
<!-- Node7 -->
<g id="node7" class="node">
<title>Node7</title>
<g id="a_node7"><a xlink:href="../../db/d70/class_instance_list.html" target="_top" xlink:title=" ">
<polygon fill="white" stroke="black" points="174,-190.5 174,-209.5 310,-209.5 310,-190.5 174,-190.5"/>
<text text-anchor="middle" x="242" y="-197.5" font-family="Helvetica,sans-Serif" font-size="10.00">InstanceList&lt; ACollidable &gt;</text>
</a>
</g>
</g>
<!-- Node5&#45;&gt;Node7 -->
<g id="edge7" class="edge">
<title>Node5&#45;&gt;Node7</title>
<path fill="none" stroke="orange" stroke-dasharray="5,2" d="M185.76,-252.42C192.62,-248.46 199.8,-243.88 206,-239 217.28,-230.12 228.35,-217.72 235.17,-209.54"/>
<polygon fill="orange" stroke="orange" points="183.81,-249.5 176.74,-257.39 187.18,-255.63 183.81,-249.5"/>
<text text-anchor="middle" x="251" y="-231" font-family="Helvetica,sans-Serif" font-size="10.00"> &lt; ACollidable &gt;</text>
</g>
<!-- Node6 -->
<g id="node6" class="node">
<title>Node6</title>
<g id="a_node6"><a xlink:href="../../d0/d76/class_a_collidable.html" target="_top" xlink:title=" ">
<polygon fill="white" stroke="black" points="193.5,-95.5 193.5,-114.5 258.5,-114.5 258.5,-95.5 193.5,-95.5"/>
<text text-anchor="middle" x="226" y="-102.5" font-family="Helvetica,sans-Serif" font-size="10.00">ACollidable</text>
</a>
</g>
</g>
<!-- Node6&#45;&gt;Node1 -->
<g id="edge5" class="edge">
<title>Node6&#45;&gt;Node1</title>
<path fill="none" stroke="midnightblue" d="M218.8,-85.9C210.84,-65.91 198.38,-34.56 192.41,-19.56"/>
<polygon fill="midnightblue" stroke="midnightblue" points="215.64,-87.42 222.59,-95.42 222.14,-84.83 215.64,-87.42"/>
</g>
<!-- Node7&#45;&gt;Node6 -->
<g id="edge6" class="edge">
<title>Node7&#45;&gt;Node6</title>
<path fill="none" stroke="midnightblue" d="M238.79,-180.34C235.35,-160.33 230.03,-129.43 227.47,-114.56"/>
<polygon fill="midnightblue" stroke="midnightblue" points="235.38,-181.16 240.52,-190.42 242.28,-179.97 235.38,-181.16"/>
</g>
</g>
</svg>
