<?xml version="1.0" encoding="UTF-8" standalone="no"?>
<!DOCTYPE svg PUBLIC "-//W3C//DTD SVG 1.1//EN"
 "http://www.w3.org/Graphics/SVG/1.1/DTD/svg11.dtd">
<!-- Generated by graphviz version 2.49.3 (20211027.1534)
 -->
<!-- Title: RayLib_SHMUP/include/Shmup/Transform2D.h Pages: 1 -->
<!--zoomable 374 -->
<svg id="main" version="1.1" xmlns="http://www.w3.org/2000/svg" xmlns:xlink="http://www.w3.org/1999/xlink" xml:space="preserve" onload="init(evt)">
<style type="text/css"><![CDATA[
.edge:hover path { stroke: red; }
.edge:hover polygon { stroke: red; fill: red; }
]]></style>
<script type="text/javascript"><![CDATA[
var edges = document.getElementsByTagName('g');
if (edges && edges.length) {
  for (var i=0;i<edges.length;i++) {
    if (edges[i].id.substr(0,4)=='edge') {
      edges[i].setAttribute('class','edge');
    }
  }
}
]]></script>
        <defs>
                <circle id="rim" cx="0" cy="0" r="7"/>
                <circle id="rim2" cx="0" cy="0" r="3.5"/>
                <g id="zoomPlus">
                        <use xlink:href="#rim" fill="#404040">
                                <set attributeName="fill" to="#808080" begin="zoomplus.mouseover" end="zoomplus.mouseout"/>
                        </use>
                        <path d="M-4,0h8M0,-4v8" fill="none" stroke="white" stroke-width="1.5" pointer-events="none"/>
                </g>
                <g id="zoomMin">
                        <use xlink:href="#rim" fill="#404040">
                                <set attributeName="fill" to="#808080" begin="zoomminus.mouseover" end="zoomminus.mouseout"/>
                        </use>
                        <path d="M-4,0h8" fill="none" stroke="white" stroke-width="1.5" pointer-events="none"/>
                </g>
                <g id="dirArrow">
                        <path fill="none" stroke="white" stroke-width="1.5" d="M0,-3.0v7 M-2.5,-0.5L0,-3.0L2.5,-0.5"/>
                </g>
               <g id="resetDef">
                       <use xlink:href="#rim2" fill="#404040">
                               <set attributeName="fill" to="#808080" begin="reset.mouseover" end="reset.mouseout"/>
                       </use>
               </g>
        </defs>

<script type="text/javascript">
var viewWidth = 1314;
var viewHeight = 374;
var sectionId = 'dynsection-1';
</script>
<script xlink:href="../../svgpan.js"/>
<svg id="graph" class="graph">
<g id="viewport">
<title>RayLib_SHMUP/include/Shmup/Transform2D.h</title>
<polygon fill="white" stroke="transparent" points="-4,4 -4,-370 1310.46,-370 1310.46,4 -4,4"/>
<!-- Node1 -->
<g id="node1" class="node">
<title>Node1</title>
<g id="a_node1"><a xlink:title=" ">
<polygon fill="#bfbfbf" stroke="black" points="404.96,-335.5 404.96,-365.5 526.96,-365.5 526.96,-335.5 404.96,-335.5"/>
<text text-anchor="start" x="412.96" y="-353.5" font-family="Helvetica,sans-Serif" font-size="10.00">RayLib_SHMUP/include</text>
<text text-anchor="middle" x="465.96" y="-342.5" font-family="Helvetica,sans-Serif" font-size="10.00">/Shmup/Transform2D.h</text>
</a>
</g>
</g>
<!-- Node2 -->
<g id="node2" class="node">
<title>Node2</title>
<g id="a_node2"><a xlink:href="../../d7/daf/_a_graphic_object_8h.html" target="_top" xlink:title=" ">
<polygon fill="white" stroke="black" points="211.96,-268.5 211.96,-298.5 341.96,-298.5 341.96,-268.5 211.96,-268.5"/>
<text text-anchor="start" x="219.96" y="-286.5" font-family="Helvetica,sans-Serif" font-size="10.00">RayLib_SHMUP/include</text>
<text text-anchor="middle" x="276.96" y="-275.5" font-family="Helvetica,sans-Serif" font-size="10.00">/Shmup/AGraphicObject.h</text>
</a>
</g>
</g>
<!-- Node1&#45;&gt;Node2 -->
<g id="edge1" class="edge">
<title>Node1&#45;&gt;Node2</title>
<path fill="none" stroke="midnightblue" d="M415.35,-332.09C384.84,-321.6 346.48,-308.41 317.89,-298.58"/>
<polygon fill="midnightblue" stroke="midnightblue" points="414.36,-335.45 424.95,-335.4 416.64,-328.83 414.36,-335.45"/>
</g>
<!-- Node20 -->
<g id="node20" class="node">
<title>Node20</title>
<g id="a_node20"><a xlink:href="../../d5/d36/_collider_8h.html" target="_top" xlink:title=" ">
<polygon fill="white" stroke="black" points="620.46,-268.5 620.46,-298.5 753.46,-298.5 753.46,-268.5 620.46,-268.5"/>
<text text-anchor="start" x="628.46" y="-286.5" font-family="Helvetica,sans-Serif" font-size="10.00">RayLib_SHMUP/include</text>
<text text-anchor="middle" x="686.96" y="-275.5" font-family="Helvetica,sans-Serif" font-size="10.00">/Shmup/Collision/Collider.h</text>
</a>
</g>
</g>
<!-- Node1&#45;&gt;Node20 -->
<g id="edge22" class="edge">
<title>Node1&#45;&gt;Node20</title>
<path fill="none" stroke="midnightblue" d="M523.49,-332.58C559.39,-322.02 605.05,-308.59 638.99,-298.61"/>
<polygon fill="midnightblue" stroke="midnightblue" points="522.25,-329.3 513.65,-335.48 524.23,-336.01 522.25,-329.3"/>
</g>
<!-- Node3 -->
<g id="node3" class="node">
<title>Node3</title>
<g id="a_node3"><a xlink:href="../../db/d1b/_a_movable_8h.html" target="_top" xlink:title=" ">
<polygon fill="white" stroke="black" points="396.96,-201.5 396.96,-231.5 518.96,-231.5 518.96,-201.5 396.96,-201.5"/>
<text text-anchor="start" x="404.96" y="-219.5" font-family="Helvetica,sans-Serif" font-size="10.00">RayLib_SHMUP/include</text>
<text text-anchor="middle" x="457.96" y="-208.5" font-family="Helvetica,sans-Serif" font-size="10.00">/Shmup/AMovable.h</text>
</a>
</g>
</g>
<!-- Node2&#45;&gt;Node3 -->
<g id="edge2" class="edge">
<title>Node2&#45;&gt;Node3</title>
<path fill="none" stroke="midnightblue" d="M325.82,-264.96C354.98,-254.48 391.51,-241.37 418.77,-231.58"/>
<polygon fill="midnightblue" stroke="midnightblue" points="324.47,-261.72 316.24,-268.4 326.83,-268.31 324.47,-261.72"/>
</g>
<!-- Node8 -->
<g id="node8" class="node">
<title>Node8</title>
<g id="a_node8"><a xlink:href="../../d2/d2e/_game_manager_8cpp.html" target="_top" xlink:title=" ">
<polygon fill="white" stroke="black" points="364.46,-0.5 364.46,-30.5 503.46,-30.5 503.46,-0.5 364.46,-0.5"/>
<text text-anchor="start" x="372.46" y="-18.5" font-family="Helvetica,sans-Serif" font-size="10.00">RayLib_SHMUP/src/Shmup</text>
<text text-anchor="middle" x="433.96" y="-7.5" font-family="Helvetica,sans-Serif" font-size="10.00">/GameManager.cpp</text>
</a>
</g>
</g>
<!-- Node2&#45;&gt;Node8 -->
<g id="edge21" class="edge">
<title>Node2&#45;&gt;Node8</title>
<path fill="none" stroke="midnightblue" d="M201.72,-274.23C142.32,-266.3 65.65,-252.47 41.96,-232 -13.52,-184.05 -14.77,-112.23 42.96,-67 91.52,-28.96 265.54,-19.45 364.28,-17.16"/>
<polygon fill="midnightblue" stroke="midnightblue" points="201.47,-277.73 211.84,-275.55 202.38,-270.79 201.47,-277.73"/>
</g>
<!-- Node17 -->
<g id="node17" class="node">
<title>Node17</title>
<g id="a_node17"><a xlink:href="../../d9/dee/_explosion_8h.html" target="_top" xlink:title=" ">
<polygon fill="white" stroke="black" points="50.96,-201.5 50.96,-231.5 172.96,-231.5 172.96,-201.5 50.96,-201.5"/>
<text text-anchor="start" x="58.96" y="-219.5" font-family="Helvetica,sans-Serif" font-size="10.00">RayLib_SHMUP/include</text>
<text text-anchor="middle" x="111.96" y="-208.5" font-family="Helvetica,sans-Serif" font-size="10.00">/Shmup/Explosion.h</text>
</a>
</g>
</g>
<!-- Node2&#45;&gt;Node17 -->
<g id="edge18" class="edge">
<title>Node2&#45;&gt;Node17</title>
<path fill="none" stroke="midnightblue" d="M231.73,-264.68C205.27,-254.26 172.33,-241.28 147.7,-231.58"/>
<polygon fill="midnightblue" stroke="midnightblue" points="230.57,-267.99 241.16,-268.4 233.14,-261.47 230.57,-267.99"/>
</g>
<!-- Node19 -->
<g id="node19" class="node">
<title>Node19</title>
<g id="a_node19"><a xlink:href="../../de/d53/_a_graphic_object_8cpp.html" target="_top" xlink:title=" ">
<polygon fill="white" stroke="black" points="207.46,-201.5 207.46,-231.5 346.46,-231.5 346.46,-201.5 207.46,-201.5"/>
<text text-anchor="start" x="215.46" y="-219.5" font-family="Helvetica,sans-Serif" font-size="10.00">RayLib_SHMUP/src/Shmup</text>
<text text-anchor="middle" x="276.96" y="-208.5" font-family="Helvetica,sans-Serif" font-size="10.00">/AGraphicObject.cpp</text>
</a>
</g>
</g>
<!-- Node2&#45;&gt;Node19 -->
<g id="edge20" class="edge">
<title>Node2&#45;&gt;Node19</title>
<path fill="none" stroke="midnightblue" d="M276.96,-258.11C276.96,-249.15 276.96,-239.32 276.96,-231.58"/>
<polygon fill="midnightblue" stroke="midnightblue" points="273.46,-258.4 276.96,-268.4 280.46,-258.4 273.46,-258.4"/>
</g>
<!-- Node4 -->
<g id="node4" class="node">
<title>Node4</title>
<g id="a_node4"><a xlink:href="../../d3/d22/_patern_computer_8h.html" target="_top" xlink:title=" ">
<polygon fill="white" stroke="black" points="183.96,-134.5 183.96,-164.5 337.96,-164.5 337.96,-134.5 183.96,-134.5"/>
<text text-anchor="start" x="191.96" y="-152.5" font-family="Helvetica,sans-Serif" font-size="10.00">RayLib_SHMUP/include</text>
<text text-anchor="middle" x="260.96" y="-141.5" font-family="Helvetica,sans-Serif" font-size="10.00">/PaternEditor/PaternComputer.h</text>
</a>
</g>
</g>
<!-- Node3&#45;&gt;Node4 -->
<g id="edge3" class="edge">
<title>Node3&#45;&gt;Node4</title>
<path fill="none" stroke="midnightblue" d="M405.62,-198.23C373.75,-187.71 333.55,-174.45 303.63,-164.58"/>
<polygon fill="midnightblue" stroke="midnightblue" points="404.62,-201.59 415.22,-201.4 406.82,-194.94 404.62,-201.59"/>
</g>
<!-- Node7 -->
<g id="node7" class="node">
<title>Node7</title>
<g id="a_node7"><a xlink:href="../../d4/d1e/_enemy_8h.html" target="_top" xlink:title=" ">
<polygon fill="white" stroke="black" points="577.96,-134.5 577.96,-164.5 707.96,-164.5 707.96,-134.5 577.96,-134.5"/>
<text text-anchor="start" x="585.96" y="-152.5" font-family="Helvetica,sans-Serif" font-size="10.00">RayLib_SHMUP/include</text>
<text text-anchor="middle" x="642.96" y="-141.5" font-family="Helvetica,sans-Serif" font-size="10.00">/Shmup/Movable/Enemy.h</text>
</a>
</g>
</g>
<!-- Node3&#45;&gt;Node7 -->
<g id="edge6" class="edge">
<title>Node3&#45;&gt;Node7</title>
<path fill="none" stroke="midnightblue" d="M507.9,-197.96C537.7,-187.48 575.04,-174.37 602.9,-164.58"/>
<polygon fill="midnightblue" stroke="midnightblue" points="506.38,-194.78 498.11,-201.4 508.7,-201.38 506.38,-194.78"/>
</g>
<!-- Node10 -->
<g id="node10" class="node">
<title>Node10</title>
<g id="a_node10"><a xlink:href="../../de/d15/_shoot_8h.html" target="_top" xlink:title=" ">
<polygon fill="white" stroke="black" points="725.96,-134.5 725.96,-164.5 851.96,-164.5 851.96,-134.5 725.96,-134.5"/>
<text text-anchor="start" x="733.96" y="-152.5" font-family="Helvetica,sans-Serif" font-size="10.00">RayLib_SHMUP/include</text>
<text text-anchor="middle" x="788.96" y="-141.5" font-family="Helvetica,sans-Serif" font-size="10.00">/Shmup/Movable/Shoot.h</text>
</a>
</g>
</g>
<!-- Node3&#45;&gt;Node10 -->
<g id="edge9" class="edge">
<title>Node3&#45;&gt;Node10</title>
<path fill="none" stroke="midnightblue" d="M529.34,-201.71C581.37,-191.62 653.56,-177.57 716.96,-165 719.84,-164.43 722.78,-163.85 725.75,-163.25"/>
<polygon fill="midnightblue" stroke="midnightblue" points="528.36,-198.33 519.21,-203.67 529.69,-205.2 528.36,-198.33"/>
</g>
<!-- Node16 -->
<g id="node16" class="node">
<title>Node16</title>
<g id="a_node16"><a xlink:href="../../df/d32/_sequence_move_patern_8cpp.html" target="_top" xlink:title=" ">
<polygon fill="white" stroke="black" points="356.46,-134.5 356.46,-164.5 559.46,-164.5 559.46,-134.5 356.46,-134.5"/>
<text text-anchor="start" x="364.46" y="-152.5" font-family="Helvetica,sans-Serif" font-size="10.00">RayLib_SHMUP/src/Shmup</text>
<text text-anchor="middle" x="457.96" y="-141.5" font-family="Helvetica,sans-Serif" font-size="10.00">/Paterns/Enemy/SequenceMovePatern.cpp</text>
</a>
</g>
</g>
<!-- Node3&#45;&gt;Node16 -->
<g id="edge17" class="edge">
<title>Node3&#45;&gt;Node16</title>
<path fill="none" stroke="midnightblue" d="M457.96,-191.11C457.96,-182.15 457.96,-172.32 457.96,-164.58"/>
<polygon fill="midnightblue" stroke="midnightblue" points="454.46,-191.4 457.96,-201.4 461.46,-191.4 454.46,-191.4"/>
</g>
<!-- Node5 -->
<g id="node5" class="node">
<title>Node5</title>
<g id="a_node5"><a xlink:href="../../d3/d32/_patern_computer_8cpp.html" target="_top" xlink:title=" ">
<polygon fill="white" stroke="black" points="52.46,-67.5 52.46,-97.5 213.46,-97.5 213.46,-67.5 52.46,-67.5"/>
<text text-anchor="start" x="60.46" y="-85.5" font-family="Helvetica,sans-Serif" font-size="10.00">RayLib_SHMUP/src/PaternEditor</text>
<text text-anchor="middle" x="132.96" y="-74.5" font-family="Helvetica,sans-Serif" font-size="10.00">/PaternComputer.cpp</text>
</a>
</g>
</g>
<!-- Node4&#45;&gt;Node5 -->
<g id="edge4" class="edge">
<title>Node4&#45;&gt;Node5</title>
<path fill="none" stroke="midnightblue" d="M224.24,-129.85C204.01,-119.58 179.29,-107.03 160.68,-97.58"/>
<polygon fill="midnightblue" stroke="midnightblue" points="222.69,-132.99 233.19,-134.4 225.86,-126.75 222.69,-132.99"/>
</g>
<!-- Node6 -->
<g id="node6" class="node">
<title>Node6</title>
<g id="a_node6"><a xlink:href="../../d5/d58/_patern_editor_main_8cpp.html" target="_top" xlink:title=" ">
<polygon fill="white" stroke="black" points="231.46,-67.5 231.46,-97.5 392.46,-97.5 392.46,-67.5 231.46,-67.5"/>
<text text-anchor="start" x="239.46" y="-85.5" font-family="Helvetica,sans-Serif" font-size="10.00">RayLib_SHMUP/src/PaternEditor</text>
<text text-anchor="middle" x="311.96" y="-74.5" font-family="Helvetica,sans-Serif" font-size="10.00">Main.cpp</text>
</a>
</g>
</g>
<!-- Node4&#45;&gt;Node6 -->
<g id="edge5" class="edge">
<title>Node4&#45;&gt;Node6</title>
<path fill="none" stroke="midnightblue" d="M278.27,-126.45C285.76,-116.9 294.31,-106 300.92,-97.58"/>
<polygon fill="midnightblue" stroke="midnightblue" points="275.45,-124.37 272.03,-134.4 280.96,-128.69 275.45,-124.37"/>
</g>
<!-- Node7&#45;&gt;Node8 -->
<g id="edge7" class="edge">
<title>Node7&#45;&gt;Node8</title>
<path fill="none" stroke="midnightblue" d="M568.05,-132.45C518.58,-121.19 461.37,-106.67 452.96,-98 435.36,-79.85 432.91,-48.72 433.15,-30.64"/>
<polygon fill="midnightblue" stroke="midnightblue" points="567.3,-135.86 577.82,-134.65 568.84,-129.04 567.3,-135.86"/>
</g>
<!-- Node9 -->
<g id="node9" class="node">
<title>Node9</title>
<g id="a_node9"><a xlink:href="../../de/d34/_enemy_8cpp.html" target="_top" xlink:title=" ">
<polygon fill="white" stroke="black" points="462.46,-67.5 462.46,-97.5 601.46,-97.5 601.46,-67.5 462.46,-67.5"/>
<text text-anchor="start" x="470.46" y="-85.5" font-family="Helvetica,sans-Serif" font-size="10.00">RayLib_SHMUP/src/Shmup</text>
<text text-anchor="middle" x="531.96" y="-74.5" font-family="Helvetica,sans-Serif" font-size="10.00">/Movable/Enemy.cpp</text>
</a>
</g>
</g>
<!-- Node7&#45;&gt;Node9 -->
<g id="edge8" class="edge">
<title>Node7&#45;&gt;Node9</title>
<path fill="none" stroke="midnightblue" d="M610.17,-129.3C592.8,-119.12 571.85,-106.85 556,-97.58"/>
<polygon fill="midnightblue" stroke="midnightblue" points="608.48,-132.36 618.88,-134.4 612.02,-126.32 608.48,-132.36"/>
</g>
<!-- Node11 -->
<g id="node11" class="node">
<title>Node11</title>
<g id="a_node11"><a xlink:href="../../d1/d39/_player_8h.html" target="_top" xlink:title=" ">
<polygon fill="white" stroke="black" points="619.96,-67.5 619.96,-97.5 747.96,-97.5 747.96,-67.5 619.96,-67.5"/>
<text text-anchor="start" x="627.96" y="-85.5" font-family="Helvetica,sans-Serif" font-size="10.00">RayLib_SHMUP/include</text>
<text text-anchor="middle" x="683.96" y="-74.5" font-family="Helvetica,sans-Serif" font-size="10.00">/Shmup/Movable/Player.h</text>
</a>
</g>
</g>
<!-- Node10&#45;&gt;Node11 -->
<g id="edge10" class="edge">
<title>Node10&#45;&gt;Node11</title>
<path fill="none" stroke="midnightblue" d="M757.49,-129.02C741.15,-118.9 721.55,-106.77 706.7,-97.58"/>
<polygon fill="midnightblue" stroke="midnightblue" points="755.84,-132.11 766.18,-134.4 759.52,-126.16 755.84,-132.11"/>
</g>
<!-- Node12 -->
<g id="node12" class="node">
<title>Node12</title>
<g id="a_node12"><a xlink:href="../../d2/d82/_player_8cpp.html" target="_top" xlink:title=" ">
<polygon fill="white" stroke="black" points="660.46,-0.5 660.46,-30.5 799.46,-30.5 799.46,-0.5 660.46,-0.5"/>
<text text-anchor="start" x="668.46" y="-18.5" font-family="Helvetica,sans-Serif" font-size="10.00">RayLib_SHMUP/src/Shmup</text>
<text text-anchor="middle" x="729.96" y="-7.5" font-family="Helvetica,sans-Serif" font-size="10.00">/Movable/Player.cpp</text>
</a>
</g>
</g>
<!-- Node10&#45;&gt;Node12 -->
<g id="edge13" class="edge">
<title>Node10&#45;&gt;Node12</title>
<path fill="none" stroke="midnightblue" d="M780.41,-124.59C774.35,-108.18 765.75,-86.02 756.96,-67 751.21,-54.54 743.82,-40.84 738.22,-30.86"/>
<polygon fill="midnightblue" stroke="midnightblue" points="777.3,-126.26 784.01,-134.45 783.87,-123.85 777.3,-126.26"/>
</g>
<!-- Node13 -->
<g id="node13" class="node">
<title>Node13</title>
<g id="a_node13"><a xlink:href="../../d6/dae/_shoot_8cpp.html" target="_top" xlink:title=" ">
<polygon fill="white" stroke="black" points="804.46,-67.5 804.46,-97.5 943.46,-97.5 943.46,-67.5 804.46,-67.5"/>
<text text-anchor="start" x="812.46" y="-85.5" font-family="Helvetica,sans-Serif" font-size="10.00">RayLib_SHMUP/src/Shmup</text>
<text text-anchor="middle" x="873.96" y="-74.5" font-family="Helvetica,sans-Serif" font-size="10.00">/Movable/Shoot.cpp</text>
</a>
</g>
</g>
<!-- Node10&#45;&gt;Node13 -->
<g id="edge14" class="edge">
<title>Node10&#45;&gt;Node13</title>
<path fill="none" stroke="midnightblue" d="M815.55,-128.17C828.55,-118.23 843.87,-106.51 855.56,-97.58"/>
<polygon fill="midnightblue" stroke="midnightblue" points="813.22,-125.54 807.41,-134.4 817.48,-131.1 813.22,-125.54"/>
</g>
<!-- Node14 -->
<g id="node14" class="node">
<title>Node14</title>
<g id="a_node14"><a xlink:href="../../dc/dac/_patern_linear_8cpp.html" target="_top" xlink:title=" ">
<polygon fill="white" stroke="black" points="961.96,-67.5 961.96,-97.5 1119.96,-97.5 1119.96,-67.5 961.96,-67.5"/>
<text text-anchor="start" x="969.96" y="-85.5" font-family="Helvetica,sans-Serif" font-size="10.00">RayLib_SHMUP/src/Shmup</text>
<text text-anchor="middle" x="1040.96" y="-74.5" font-family="Helvetica,sans-Serif" font-size="10.00">/Paterns/Shoot/PaternLinear.cpp</text>
</a>
</g>
</g>
<!-- Node10&#45;&gt;Node14 -->
<g id="edge15" class="edge">
<title>Node10&#45;&gt;Node14</title>
<path fill="none" stroke="midnightblue" d="M853.25,-131.92C894.38,-121.31 947.15,-107.7 986.26,-97.61"/>
<polygon fill="midnightblue" stroke="midnightblue" points="852.14,-128.59 843.33,-134.48 853.89,-135.37 852.14,-128.59"/>
</g>
<!-- Node15 -->
<g id="node15" class="node">
<title>Node15</title>
<g id="a_node15"><a xlink:href="../../db/db4/_patern_v_spread_8cpp.html" target="_top" xlink:title=" ">
<polygon fill="white" stroke="black" points="1137.46,-67.5 1137.46,-97.5 1306.46,-97.5 1306.46,-67.5 1137.46,-67.5"/>
<text text-anchor="start" x="1145.46" y="-85.5" font-family="Helvetica,sans-Serif" font-size="10.00">RayLib_SHMUP/src/Shmup</text>
<text text-anchor="middle" x="1221.96" y="-74.5" font-family="Helvetica,sans-Serif" font-size="10.00">/Paterns/Shoot/PaternVSpread.cpp</text>
</a>
</g>
</g>
<!-- Node10&#45;&gt;Node15 -->
<g id="edge16" class="edge">
<title>Node10&#45;&gt;Node15</title>
<path fill="none" stroke="midnightblue" d="M862.58,-137.72C931.47,-127.6 1037.22,-111.97 1128.96,-98 1131.71,-97.58 1134.5,-97.16 1137.32,-96.72"/>
<polygon fill="midnightblue" stroke="midnightblue" points="861.66,-134.32 852.27,-139.24 862.68,-141.25 861.66,-134.32"/>
</g>
<!-- Node11&#45;&gt;Node8 -->
<g id="edge11" class="edge">
<title>Node11&#45;&gt;Node8</title>
<path fill="none" stroke="midnightblue" d="M620.18,-64.92C579.39,-54.31 527.04,-40.7 488.24,-30.61"/>
<polygon fill="midnightblue" stroke="midnightblue" points="619.47,-68.35 630.03,-67.48 621.23,-61.57 619.47,-68.35"/>
</g>
<!-- Node11&#45;&gt;Node12 -->
<g id="edge12" class="edge">
<title>Node11&#45;&gt;Node12</title>
<path fill="none" stroke="midnightblue" d="M699.78,-59.16C706.48,-49.68 714.1,-38.92 720,-30.58"/>
<polygon fill="midnightblue" stroke="midnightblue" points="696.86,-57.21 693.94,-67.4 702.58,-61.26 696.86,-57.21"/>
</g>
<!-- Node18 -->
<g id="node18" class="node">
<title>Node18</title>
<g id="a_node18"><a xlink:href="../../d5/d01/_explosion_8cpp.html" target="_top" xlink:title=" ">
<polygon fill="white" stroke="black" points="26.46,-134.5 26.46,-164.5 165.46,-164.5 165.46,-134.5 26.46,-134.5"/>
<text text-anchor="start" x="34.46" y="-152.5" font-family="Helvetica,sans-Serif" font-size="10.00">RayLib_SHMUP/src/Shmup</text>
<text text-anchor="middle" x="95.96" y="-141.5" font-family="Helvetica,sans-Serif" font-size="10.00">/Explosion.cpp</text>
</a>
</g>
</g>
<!-- Node17&#45;&gt;Node18 -->
<g id="edge19" class="edge">
<title>Node17&#45;&gt;Node18</title>
<path fill="none" stroke="midnightblue" d="M106.03,-191.4C103.81,-182.37 101.36,-172.41 99.43,-164.58"/>
<polygon fill="midnightblue" stroke="midnightblue" points="102.7,-192.52 108.49,-201.4 109.5,-190.85 102.7,-192.52"/>
</g>
<!-- Node20&#45;&gt;Node7 -->
<g id="edge26" class="edge">
<title>Node20&#45;&gt;Node7</title>
<path fill="none" stroke="midnightblue" d="M638.08,-263.71C624.62,-256.01 611.62,-245.63 603.96,-232 591.05,-209.03 611.88,-181.11 627.73,-164.63"/>
<polygon fill="midnightblue" stroke="midnightblue" points="636.47,-266.81 646.94,-268.38 639.73,-260.62 636.47,-266.81"/>
</g>
<!-- Node20&#45;&gt;Node10 -->
<g id="edge27" class="edge">
<title>Node20&#45;&gt;Node10</title>
<path fill="none" stroke="midnightblue" d="M733.22,-263.51C747.24,-255.67 761.43,-245.26 770.96,-232 785.51,-211.77 788.64,-181.93 789.12,-164.53"/>
<polygon fill="midnightblue" stroke="midnightblue" points="731.32,-260.56 724.08,-268.3 734.57,-266.76 731.32,-260.56"/>
</g>
<!-- Node21 -->
<g id="node21" class="node">
<title>Node21</title>
<g id="a_node21"><a xlink:href="../../d3/d72/_a_collidable_8h.html" target="_top" xlink:title=" ">
<polygon fill="white" stroke="black" points="612.46,-201.5 612.46,-231.5 761.46,-231.5 761.46,-201.5 612.46,-201.5"/>
<text text-anchor="start" x="620.46" y="-219.5" font-family="Helvetica,sans-Serif" font-size="10.00">RayLib_SHMUP/include</text>
<text text-anchor="middle" x="686.96" y="-208.5" font-family="Helvetica,sans-Serif" font-size="10.00">/Shmup/Collision/ACollidable.h</text>
</a>
</g>
</g>
<!-- Node20&#45;&gt;Node21 -->
<g id="edge23" class="edge">
<title>Node20&#45;&gt;Node21</title>
<path fill="none" stroke="midnightblue" d="M686.96,-258.11C686.96,-249.15 686.96,-239.32 686.96,-231.58"/>
<polygon fill="midnightblue" stroke="midnightblue" points="683.46,-258.4 686.96,-268.4 690.46,-258.4 683.46,-258.4"/>
</g>
<!-- Node22 -->
<g id="node22" class="node">
<title>Node22</title>
<g id="a_node22"><a xlink:href="../../dd/d3e/_collider_8cpp.html" target="_top" xlink:title=" ">
<polygon fill="white" stroke="black" points="817.46,-201.5 817.46,-231.5 956.46,-231.5 956.46,-201.5 817.46,-201.5"/>
<text text-anchor="start" x="825.46" y="-219.5" font-family="Helvetica,sans-Serif" font-size="10.00">RayLib_SHMUP/src/Shmup</text>
<text text-anchor="middle" x="886.96" y="-208.5" font-family="Helvetica,sans-Serif" font-size="10.00">/Collision/Collider.cpp</text>
</a>
</g>
</g>
<!-- Node20&#45;&gt;Node22 -->
<g id="edge28" class="edge">
<title>Node20&#45;&gt;Node22</title>
<path fill="none" stroke="midnightblue" d="M740.11,-265.23C772.46,-254.71 813.27,-241.45 843.65,-231.58"/>
<polygon fill="midnightblue" stroke="midnightblue" points="738.79,-261.98 730.36,-268.4 740.95,-268.63 738.79,-261.98"/>
</g>
<!-- Node21&#45;&gt;Node7 -->
<g id="edge24" class="edge">
<title>Node21&#45;&gt;Node7</title>
<path fill="none" stroke="midnightblue" d="M671.64,-192.87C665.27,-183.46 658.08,-172.83 652.49,-164.58"/>
<polygon fill="midnightblue" stroke="midnightblue" points="668.91,-195.08 677.42,-201.4 674.71,-191.15 668.91,-195.08"/>
</g>
<!-- Node21&#45;&gt;Node10 -->
<g id="edge25" class="edge">
<title>Node21&#45;&gt;Node10</title>
<path fill="none" stroke="midnightblue" d="M717.54,-196.02C733.41,-185.9 752.45,-173.77 766.87,-164.58"/>
<polygon fill="midnightblue" stroke="midnightblue" points="715.65,-193.07 709.1,-201.4 719.41,-198.97 715.65,-193.07"/>
</g>
</g>
</svg>
        <g id="navigator" transform="translate(0 0)" fill="#404254">
                <rect fill="#f2f5e9" fill-opacity="0.5" stroke="#606060" stroke-width=".5" x="0" y="0" width="60" height="60"/>
                <use id="zoomplus" xlink:href="#zoomPlus" x="17" y="9" onmousedown="handleZoom(evt,'in')"/>
                <use id="zoomminus" xlink:href="#zoomMin" x="42" y="9" onmousedown="handleZoom(evt,'out')"/>
                <use id="reset" xlink:href="#resetDef" x="30" y="36" onmousedown="handleReset()"/>
                <g id="arrowUp" xlink:href="#dirArrow" transform="translate(30 24)" onmousedown="handlePan(0,-1)">
                  <use xlink:href="#rim" fill="#404040">
                        <set attributeName="fill" to="#808080" begin="arrowUp.mouseover" end="arrowUp.mouseout"/>
                  </use>
                  <path fill="none" stroke="white" stroke-width="1.5" d="M0,-3.0v7 M-2.5,-0.5L0,-3.0L2.5,-0.5"/>
                </g>
                <g id="arrowRight" xlink:href="#dirArrow" transform="rotate(90) translate(36 -43)" onmousedown="handlePan(1,0)">
                  <use xlink:href="#rim" fill="#404040">
                        <set attributeName="fill" to="#808080" begin="arrowRight.mouseover" end="arrowRight.mouseout"/>
                  </use>
                  <path fill="none" stroke="white" stroke-width="1.5" d="M0,-3.0v7 M-2.5,-0.5L0,-3.0L2.5,-0.5"/>
                </g>
                <g id="arrowDown" xlink:href="#dirArrow" transform="rotate(180) translate(-30 -48)" onmousedown="handlePan(0,1)">
                  <use xlink:href="#rim" fill="#404040">
                        <set attributeName="fill" to="#808080" begin="arrowDown.mouseover" end="arrowDown.mouseout"/>
                  </use>
                  <path fill="none" stroke="white" stroke-width="1.5" d="M0,-3.0v7 M-2.5,-0.5L0,-3.0L2.5,-0.5"/>
                </g>
                <g id="arrowLeft" xlink:href="#dirArrow" transform="rotate(270) translate(-36 17)" onmousedown="handlePan(-1,0)">
                  <use xlink:href="#rim" fill="#404040">
                        <set attributeName="fill" to="#808080" begin="arrowLeft.mouseover" end="arrowLeft.mouseout"/>
                  </use>
                  <path fill="none" stroke="white" stroke-width="1.5" d="M0,-3.0v7 M-2.5,-0.5L0,-3.0L2.5,-0.5"/>
                </g>
        </g>
        <svg viewBox="0 0 15 15" width="100%" height="30px" preserveAspectRatio="xMaxYMin meet">
         <g id="arrow_out" transform="scale(0.3 0.3)">
          <a xlink:href="_transform2_d_8h__dep__incl_org.svg" target="_base">
           <rect id="button" ry="5" rx="5" y="6" x="6" height="38" width="38"
                fill="#f2f5e9" fill-opacity="0.5" stroke="#606060" stroke-width="1.0"/>
           <path id="arrow"
             d="M 11.500037,31.436501 C 11.940474,20.09759 22.043105,11.32322 32.158766,21.979434 L 37.068811,17.246167 C 37.068811,17.246167 37.088388,32 37.088388,32 L 22.160133,31.978069 C 22.160133,31.978069 26.997745,27.140456 26.997745,27.140456 C 18.528582,18.264221 13.291696,25.230495 11.500037,31.436501 z"
             style="fill:#404040;"/>
          </a>
         </g>
        </svg>
</svg>
