<?xml version="1.0" encoding="UTF-8" standalone="no"?>
<!DOCTYPE svg PUBLIC "-//W3C//DTD SVG 1.1//EN"
 "http://www.w3.org/Graphics/SVG/1.1/DTD/svg11.dtd">
<!-- Generated by graphviz version 2.49.3 (20211027.1534)
 -->
<!-- Title: RayLib_SHMUP/include/Shmup/Transform2D.h Pages: 1 -->
<!--zoomable 374 -->
<svg id="main" version="1.1" xmlns="http://www.w3.org/2000/svg" xmlns:xlink="http://www.w3.org/1999/xlink" xml:space="preserve" onload="init(evt)">
<style type="text/css"><![CDATA[
.edge:hover path { stroke: red; }
.edge:hover polygon { stroke: red; fill: red; }
]]></style>
<script type="text/javascript"><![CDATA[
var edges = document.getElementsByTagName('g');
if (edges && edges.length) {
  for (var i=0;i<edges.length;i++) {
    if (edges[i].id.substr(0,4)=='edge') {
      edges[i].setAttribute('class','edge');
    }
  }
}
]]></script>
        <defs>
                <circle id="rim" cx="0" cy="0" r="7"/>
                <circle id="rim2" cx="0" cy="0" r="3.5"/>
                <g id="zoomPlus">
                        <use xlink:href="#rim" fill="#404040">
                                <set attributeName="fill" to="#808080" begin="zoomplus.mouseover" end="zoomplus.mouseout"/>
                        </use>
                        <path d="M-4,0h8M0,-4v8" fill="none" stroke="white" stroke-width="1.5" pointer-events="none"/>
                </g>
                <g id="zoomMin">
                        <use xlink:href="#rim" fill="#404040">
                                <set attributeName="fill" to="#808080" begin="zoomminus.mouseover" end="zoomminus.mouseout"/>
                        </use>
                        <path d="M-4,0h8" fill="none" stroke="white" stroke-width="1.5" pointer-events="none"/>
                </g>
                <g id="dirArrow">
                        <path fill="none" stroke="white" stroke-width="1.5" d="M0,-3.0v7 M-2.5,-0.5L0,-3.0L2.5,-0.5"/>
                </g>
               <g id="resetDef">
                       <use xlink:href="#rim2" fill="#404040">
                               <set attributeName="fill" to="#808080" begin="reset.mouseover" end="reset.mouseout"/>
                       </use>
               </g>
        </defs>

<script type="text/javascript">
var viewWidth = 1653;
var viewHeight = 374;
var sectionId = 'dynsection-1';
</script>
<script xlink:href="../../svgpan.js"/>
<svg id="graph" class="graph">
<g id="viewport">
<title>RayLib_SHMUP/include/Shmup/Transform2D.h</title>
<polygon fill="white" stroke="transparent" points="-4,4 -4,-370 1649,-370 1649,4 -4,4"/>
<!-- Node1 -->
<g id="node1" class="node">
<title>Node1</title>
<g id="a_node1"><a xlink:title=" ">
<polygon fill="#bfbfbf" stroke="black" points="921.5,-335.5 921.5,-365.5 1043.5,-365.5 1043.5,-335.5 921.5,-335.5"/>
<text text-anchor="start" x="929.5" y="-353.5" font-family="Helvetica,sans-Serif" font-size="10.00">RayLib_SHMUP/include</text>
<text text-anchor="middle" x="982.5" y="-342.5" font-family="Helvetica,sans-Serif" font-size="10.00">/Shmup/Transform2D.h</text>
</a>
</g>
</g>
<!-- Node2 -->
<g id="node2" class="node">
<title>Node2</title>
<g id="a_node2"><a xlink:href="../../d7/daf/_a_graphic_object_8h.html" target="_top" xlink:title=" ">
<polygon fill="white" stroke="black" points="303.5,-268.5 303.5,-298.5 433.5,-298.5 433.5,-268.5 303.5,-268.5"/>
<text text-anchor="start" x="311.5" y="-286.5" font-family="Helvetica,sans-Serif" font-size="10.00">RayLib_SHMUP/include</text>
<text text-anchor="middle" x="368.5" y="-275.5" font-family="Helvetica,sans-Serif" font-size="10.00">/Shmup/AGraphicObject.h</text>
</a>
</g>
</g>
<!-- Node1&#45;&gt;Node2 -->
<g id="edge1" class="edge">
<title>Node1&#45;&gt;Node2</title>
<path fill="none" stroke="midnightblue" d="M911.18,-341.95C790.88,-329.21 549.43,-303.65 433.51,-291.38"/>
<polygon fill="midnightblue" stroke="midnightblue" points="911.07,-345.46 921.38,-343.03 911.81,-338.5 911.07,-345.46"/>
</g>
<!-- Node20 -->
<g id="node20" class="node">
<title>Node20</title>
<g id="a_node20"><a xlink:href="../../d5/d36/_collider_8h.html" target="_top" xlink:title=" ">
<polygon fill="white" stroke="black" points="916,-268.5 916,-298.5 1049,-298.5 1049,-268.5 916,-268.5"/>
<text text-anchor="start" x="924" y="-286.5" font-family="Helvetica,sans-Serif" font-size="10.00">RayLib_SHMUP/include</text>
<text text-anchor="middle" x="982.5" y="-275.5" font-family="Helvetica,sans-Serif" font-size="10.00">/Shmup/Collision/Collider.h</text>
</a>
</g>
</g>
<!-- Node1&#45;&gt;Node20 -->
<g id="edge23" class="edge">
<title>Node1&#45;&gt;Node20</title>
<path fill="none" stroke="midnightblue" d="M982.5,-325.11C982.5,-316.15 982.5,-306.32 982.5,-298.58"/>
<polygon fill="midnightblue" stroke="midnightblue" points="979,-325.4 982.5,-335.4 986,-325.4 979,-325.4"/>
</g>
<!-- Node27 -->
<g id="node27" class="node">
<title>Node27</title>
<g id="a_node27"><a xlink:href="../../d1/d77/_collider_calculation_8h.html" target="_top" xlink:title=" ">
<polygon fill="white" stroke="black" points="1067,-268.5 1067,-298.5 1248,-298.5 1248,-268.5 1067,-268.5"/>
<text text-anchor="start" x="1075" y="-286.5" font-family="Helvetica,sans-Serif" font-size="10.00">RayLib_SHMUP/include</text>
<text text-anchor="middle" x="1157.5" y="-275.5" font-family="Helvetica,sans-Serif" font-size="10.00">/Shmup/Collision/ColliderCalculation.h</text>
</a>
</g>
</g>
<!-- Node1&#45;&gt;Node27 -->
<g id="edge37" class="edge">
<title>Node1&#45;&gt;Node27</title>
<path fill="none" stroke="midnightblue" d="M1030.1,-331.82C1058.23,-321.37 1093.36,-308.32 1119.6,-298.58"/>
<polygon fill="midnightblue" stroke="midnightblue" points="1028.63,-328.63 1020.47,-335.4 1031.07,-335.2 1028.63,-328.63"/>
</g>
<!-- Node3 -->
<g id="node3" class="node">
<title>Node3</title>
<g id="a_node3"><a xlink:href="../../db/d1b/_a_movable_8h.html" target="_top" xlink:title=" ">
<polygon fill="white" stroke="black" points="475.5,-201.5 475.5,-231.5 597.5,-231.5 597.5,-201.5 475.5,-201.5"/>
<text text-anchor="start" x="483.5" y="-219.5" font-family="Helvetica,sans-Serif" font-size="10.00">RayLib_SHMUP/include</text>
<text text-anchor="middle" x="536.5" y="-208.5" font-family="Helvetica,sans-Serif" font-size="10.00">/Shmup/AMovable.h</text>
</a>
</g>
</g>
<!-- Node2&#45;&gt;Node3 -->
<g id="edge2" class="edge">
<title>Node2&#45;&gt;Node3</title>
<path fill="none" stroke="midnightblue" d="M414.55,-264.68C441.5,-254.26 475.04,-241.28 500.12,-231.58"/>
<polygon fill="midnightblue" stroke="midnightblue" points="413.02,-261.52 404.95,-268.4 415.54,-268.05 413.02,-261.52"/>
</g>
<!-- Node8 -->
<g id="node8" class="node">
<title>Node8</title>
<g id="a_node8"><a xlink:href="../../d2/d2e/_game_manager_8cpp.html" target="_top" xlink:title=" ">
<polygon fill="white" stroke="black" points="769,-0.5 769,-30.5 908,-30.5 908,-0.5 769,-0.5"/>
<text text-anchor="start" x="777" y="-18.5" font-family="Helvetica,sans-Serif" font-size="10.00">RayLib_SHMUP/src/Shmup</text>
<text text-anchor="middle" x="838.5" y="-7.5" font-family="Helvetica,sans-Serif" font-size="10.00">/GameManager.cpp</text>
</a>
</g>
</g>
<!-- Node2&#45;&gt;Node8 -->
<g id="edge22" class="edge">
<title>Node2&#45;&gt;Node8</title>
<path fill="none" stroke="midnightblue" d="M361.97,-258.29C351.57,-213.71 337.19,-118.51 387.5,-67 413.61,-40.26 648.79,-25.42 768.77,-19.52"/>
<polygon fill="midnightblue" stroke="midnightblue" points="358.63,-259.36 364.42,-268.23 365.43,-257.68 358.63,-259.36"/>
</g>
<!-- Node17 -->
<g id="node17" class="node">
<title>Node17</title>
<g id="a_node17"><a xlink:href="../../d9/dee/_explosion_8h.html" target="_top" xlink:title=" ">
<polygon fill="white" stroke="black" points="60.5,-201.5 60.5,-231.5 182.5,-231.5 182.5,-201.5 60.5,-201.5"/>
<text text-anchor="start" x="68.5" y="-219.5" font-family="Helvetica,sans-Serif" font-size="10.00">RayLib_SHMUP/include</text>
<text text-anchor="middle" x="121.5" y="-208.5" font-family="Helvetica,sans-Serif" font-size="10.00">/Shmup/Explosion.h</text>
</a>
</g>
</g>
<!-- Node2&#45;&gt;Node17 -->
<g id="edge18" class="edge">
<title>Node2&#45;&gt;Node17</title>
<path fill="none" stroke="midnightblue" d="M305.49,-265.92C265.18,-255.31 213.46,-241.7 175.12,-231.61"/>
<polygon fill="midnightblue" stroke="midnightblue" points="304.65,-269.32 315.21,-268.48 306.43,-262.55 304.65,-269.32"/>
</g>
<!-- Node19 -->
<g id="node19" class="node">
<title>Node19</title>
<g id="a_node19"><a xlink:href="../../de/d53/_a_graphic_object_8cpp.html" target="_top" xlink:title=" ">
<polygon fill="white" stroke="black" points="201,-201.5 201,-231.5 340,-231.5 340,-201.5 201,-201.5"/>
<text text-anchor="start" x="209" y="-219.5" font-family="Helvetica,sans-Serif" font-size="10.00">RayLib_SHMUP/src/Shmup</text>
<text text-anchor="middle" x="270.5" y="-208.5" font-family="Helvetica,sans-Serif" font-size="10.00">/AGraphicObject.cpp</text>
</a>
</g>
</g>
<!-- Node2&#45;&gt;Node19 -->
<g id="edge21" class="edge">
<title>Node2&#45;&gt;Node19</title>
<path fill="none" stroke="midnightblue" d="M338.7,-262.73C323.53,-252.68 305.46,-240.68 291.72,-231.58"/>
<polygon fill="midnightblue" stroke="midnightblue" points="336.97,-265.79 347.24,-268.4 340.84,-259.95 336.97,-265.79"/>
</g>
<!-- Node4 -->
<g id="node4" class="node">
<title>Node4</title>
<g id="a_node4"><a xlink:href="../../d3/d22/_patern_computer_8h.html" target="_top" xlink:title=" ">
<polygon fill="white" stroke="black" points="184.5,-134.5 184.5,-164.5 338.5,-164.5 338.5,-134.5 184.5,-134.5"/>
<text text-anchor="start" x="192.5" y="-152.5" font-family="Helvetica,sans-Serif" font-size="10.00">RayLib_SHMUP/include</text>
<text text-anchor="middle" x="261.5" y="-141.5" font-family="Helvetica,sans-Serif" font-size="10.00">/PaternEditor/PaternComputer.h</text>
</a>
</g>
</g>
<!-- Node3&#45;&gt;Node4 -->
<g id="edge3" class="edge">
<title>Node3&#45;&gt;Node4</title>
<path fill="none" stroke="midnightblue" d="M467.19,-199.12C422.2,-188.48 364.15,-174.76 321.2,-164.61"/>
<polygon fill="midnightblue" stroke="midnightblue" points="466.63,-202.58 477.17,-201.48 468.24,-195.77 466.63,-202.58"/>
</g>
<!-- Node7 -->
<g id="node7" class="node">
<title>Node7</title>
<g id="a_node7"><a xlink:href="../../d4/d1e/_enemy_8h.html" target="_top" xlink:title=" ">
<polygon fill="white" stroke="black" points="656.5,-134.5 656.5,-164.5 786.5,-164.5 786.5,-134.5 656.5,-134.5"/>
<text text-anchor="start" x="664.5" y="-152.5" font-family="Helvetica,sans-Serif" font-size="10.00">RayLib_SHMUP/include</text>
<text text-anchor="middle" x="721.5" y="-141.5" font-family="Helvetica,sans-Serif" font-size="10.00">/Shmup/Movable/Enemy.h</text>
</a>
</g>
</g>
<!-- Node3&#45;&gt;Node7 -->
<g id="edge6" class="edge">
<title>Node3&#45;&gt;Node7</title>
<path fill="none" stroke="midnightblue" d="M586.44,-197.96C616.24,-187.48 653.57,-174.37 681.44,-164.58"/>
<polygon fill="midnightblue" stroke="midnightblue" points="584.92,-194.78 576.64,-201.4 587.24,-201.38 584.92,-194.78"/>
</g>
<!-- Node10 -->
<g id="node10" class="node">
<title>Node10</title>
<g id="a_node10"><a xlink:href="../../de/d15/_shoot_8h.html" target="_top" xlink:title=" ">
<polygon fill="white" stroke="black" points="875.5,-134.5 875.5,-164.5 1001.5,-164.5 1001.5,-134.5 875.5,-134.5"/>
<text text-anchor="start" x="883.5" y="-152.5" font-family="Helvetica,sans-Serif" font-size="10.00">RayLib_SHMUP/include</text>
<text text-anchor="middle" x="938.5" y="-141.5" font-family="Helvetica,sans-Serif" font-size="10.00">/Shmup/Movable/Shoot.h</text>
</a>
</g>
</g>
<!-- Node3&#45;&gt;Node10 -->
<g id="edge9" class="edge">
<title>Node3&#45;&gt;Node10</title>
<path fill="none" stroke="midnightblue" d="M607.5,-204.02C683.35,-191.76 802.46,-172.5 875.21,-160.73"/>
<polygon fill="midnightblue" stroke="midnightblue" points="606.87,-200.58 597.56,-205.63 607.99,-207.49 606.87,-200.58"/>
</g>
<!-- Node16 -->
<g id="node16" class="node">
<title>Node16</title>
<g id="a_node16"><a xlink:href="../../df/d32/_sequence_move_patern_8cpp.html" target="_top" xlink:title=" ">
<polygon fill="white" stroke="black" points="435,-134.5 435,-164.5 638,-164.5 638,-134.5 435,-134.5"/>
<text text-anchor="start" x="443" y="-152.5" font-family="Helvetica,sans-Serif" font-size="10.00">RayLib_SHMUP/src/Shmup</text>
<text text-anchor="middle" x="536.5" y="-141.5" font-family="Helvetica,sans-Serif" font-size="10.00">/Paterns/Enemy/SequenceMovePatern.cpp</text>
</a>
</g>
</g>
<!-- Node3&#45;&gt;Node16 -->
<g id="edge17" class="edge">
<title>Node3&#45;&gt;Node16</title>
<path fill="none" stroke="midnightblue" d="M536.5,-191.11C536.5,-182.15 536.5,-172.32 536.5,-164.58"/>
<polygon fill="midnightblue" stroke="midnightblue" points="533,-191.4 536.5,-201.4 540,-191.4 533,-191.4"/>
</g>
<!-- Node5 -->
<g id="node5" class="node">
<title>Node5</title>
<g id="a_node5"><a xlink:href="../../d3/d32/_patern_computer_8cpp.html" target="_top" xlink:title=" ">
<polygon fill="white" stroke="black" points="179,-67.5 179,-97.5 340,-97.5 340,-67.5 179,-67.5"/>
<text text-anchor="start" x="187" y="-85.5" font-family="Helvetica,sans-Serif" font-size="10.00">RayLib_SHMUP/src/PaternEditor</text>
<text text-anchor="middle" x="259.5" y="-74.5" font-family="Helvetica,sans-Serif" font-size="10.00">/PaternComputer.cpp</text>
</a>
</g>
</g>
<!-- Node4&#45;&gt;Node5 -->
<g id="edge4" class="edge">
<title>Node4&#45;&gt;Node5</title>
<path fill="none" stroke="midnightblue" d="M260.75,-124.11C260.47,-115.15 260.17,-105.32 259.93,-97.58"/>
<polygon fill="midnightblue" stroke="midnightblue" points="257.26,-124.51 261.07,-134.4 264.26,-124.29 257.26,-124.51"/>
</g>
<!-- Node6 -->
<g id="node6" class="node">
<title>Node6</title>
<g id="a_node6"><a xlink:href="../../d5/d58/_patern_editor_main_8cpp.html" target="_top" xlink:title=" ">
<polygon fill="white" stroke="black" points="0,-67.5 0,-97.5 161,-97.5 161,-67.5 0,-67.5"/>
<text text-anchor="start" x="8" y="-85.5" font-family="Helvetica,sans-Serif" font-size="10.00">RayLib_SHMUP/src/PaternEditor</text>
<text text-anchor="middle" x="80.5" y="-74.5" font-family="Helvetica,sans-Serif" font-size="10.00">Main.cpp</text>
</a>
</g>
</g>
<!-- Node4&#45;&gt;Node6 -->
<g id="edge5" class="edge">
<title>Node4&#45;&gt;Node6</title>
<path fill="none" stroke="midnightblue" d="M212.64,-130.96C183.49,-120.48 146.96,-107.37 119.7,-97.58"/>
<polygon fill="midnightblue" stroke="midnightblue" points="211.63,-134.31 222.23,-134.4 214,-127.72 211.63,-134.31"/>
</g>
<!-- Node7&#45;&gt;Node8 -->
<g id="edge7" class="edge">
<title>Node7&#45;&gt;Node8</title>
<path fill="none" stroke="midnightblue" d="M646.78,-131.7C602.75,-118.29 560.05,-96.8 584.5,-67 607.43,-39.07 701.71,-26.3 768.7,-20.67"/>
<polygon fill="midnightblue" stroke="midnightblue" points="645.89,-135.09 656.47,-134.53 647.85,-128.37 645.89,-135.09"/>
</g>
<!-- Node9 -->
<g id="node9" class="node">
<title>Node9</title>
<g id="a_node9"><a xlink:href="../../de/d34/_enemy_8cpp.html" target="_top" xlink:title=" ">
<polygon fill="white" stroke="black" points="397,-67.5 397,-97.5 536,-97.5 536,-67.5 397,-67.5"/>
<text text-anchor="start" x="405" y="-85.5" font-family="Helvetica,sans-Serif" font-size="10.00">RayLib_SHMUP/src/Shmup</text>
<text text-anchor="middle" x="466.5" y="-74.5" font-family="Helvetica,sans-Serif" font-size="10.00">/Movable/Enemy.cpp</text>
</a>
</g>
</g>
<!-- Node7&#45;&gt;Node9 -->
<g id="edge8" class="edge">
<title>Node7&#45;&gt;Node9</title>
<path fill="none" stroke="midnightblue" d="M656.71,-131.98C615.06,-121.37 561.52,-107.72 521.86,-97.61"/>
<polygon fill="midnightblue" stroke="midnightblue" points="655.93,-135.4 666.48,-134.48 657.66,-128.61 655.93,-135.4"/>
</g>
<!-- Node11 -->
<g id="node11" class="node">
<title>Node11</title>
<g id="a_node11"><a xlink:href="../../d1/d39/_player_8h.html" target="_top" xlink:title=" ">
<polygon fill="white" stroke="black" points="1113.5,-67.5 1113.5,-97.5 1241.5,-97.5 1241.5,-67.5 1113.5,-67.5"/>
<text text-anchor="start" x="1121.5" y="-85.5" font-family="Helvetica,sans-Serif" font-size="10.00">RayLib_SHMUP/include</text>
<text text-anchor="middle" x="1177.5" y="-74.5" font-family="Helvetica,sans-Serif" font-size="10.00">/Shmup/Movable/Player.h</text>
</a>
</g>
</g>
<!-- Node10&#45;&gt;Node11 -->
<g id="edge10" class="edge">
<title>Node10&#45;&gt;Node11</title>
<path fill="none" stroke="midnightblue" d="M999.72,-131.85C1038.69,-121.25 1088.6,-107.68 1125.62,-97.61"/>
<polygon fill="midnightblue" stroke="midnightblue" points="998.8,-128.47 990.07,-134.48 1000.63,-135.23 998.8,-128.47"/>
</g>
<!-- Node12 -->
<g id="node12" class="node">
<title>Node12</title>
<g id="a_node12"><a xlink:href="../../d2/d82/_player_8cpp.html" target="_top" xlink:title=" ">
<polygon fill="white" stroke="black" points="1154,-0.5 1154,-30.5 1293,-30.5 1293,-0.5 1154,-0.5"/>
<text text-anchor="start" x="1162" y="-18.5" font-family="Helvetica,sans-Serif" font-size="10.00">RayLib_SHMUP/src/Shmup</text>
<text text-anchor="middle" x="1223.5" y="-7.5" font-family="Helvetica,sans-Serif" font-size="10.00">/Movable/Player.cpp</text>
</a>
</g>
</g>
<!-- Node10&#45;&gt;Node12 -->
<g id="edge13" class="edge">
<title>Node10&#45;&gt;Node12</title>
<path fill="none" stroke="midnightblue" d="M1011.65,-141.63C1098.95,-132.67 1235.17,-116.01 1250.5,-98 1267.12,-78.48 1249.22,-48.4 1235.68,-30.76"/>
<polygon fill="midnightblue" stroke="midnightblue" points="1011.11,-138.16 1001.52,-142.65 1011.82,-145.13 1011.11,-138.16"/>
</g>
<!-- Node13 -->
<g id="node13" class="node">
<title>Node13</title>
<g id="a_node13"><a xlink:href="../../d6/dae/_shoot_8cpp.html" target="_top" xlink:title=" ">
<polygon fill="white" stroke="black" points="593,-67.5 593,-97.5 732,-97.5 732,-67.5 593,-67.5"/>
<text text-anchor="start" x="601" y="-85.5" font-family="Helvetica,sans-Serif" font-size="10.00">RayLib_SHMUP/src/Shmup</text>
<text text-anchor="middle" x="662.5" y="-74.5" font-family="Helvetica,sans-Serif" font-size="10.00">/Movable/Shoot.cpp</text>
</a>
</g>
</g>
<!-- Node10&#45;&gt;Node13 -->
<g id="edge14" class="edge">
<title>Node10&#45;&gt;Node13</title>
<path fill="none" stroke="midnightblue" d="M868.94,-132.12C823.78,-121.48 765.52,-107.76 722.42,-97.61"/>
<polygon fill="midnightblue" stroke="midnightblue" points="868.42,-135.59 878.95,-134.48 870.02,-128.78 868.42,-135.59"/>
</g>
<!-- Node14 -->
<g id="node14" class="node">
<title>Node14</title>
<g id="a_node14"><a xlink:href="../../dc/dac/_patern_linear_8cpp.html" target="_top" xlink:title=" ">
<polygon fill="white" stroke="black" points="750.5,-67.5 750.5,-97.5 908.5,-97.5 908.5,-67.5 750.5,-67.5"/>
<text text-anchor="start" x="758.5" y="-85.5" font-family="Helvetica,sans-Serif" font-size="10.00">RayLib_SHMUP/src/Shmup</text>
<text text-anchor="middle" x="829.5" y="-74.5" font-family="Helvetica,sans-Serif" font-size="10.00">/Paterns/Shoot/PaternLinear.cpp</text>
</a>
</g>
</g>
<!-- Node10&#45;&gt;Node14 -->
<g id="edge15" class="edge">
<title>Node10&#45;&gt;Node14</title>
<path fill="none" stroke="midnightblue" d="M905.83,-129.02C888.86,-118.9 868.52,-106.77 853.11,-97.58"/>
<polygon fill="midnightblue" stroke="midnightblue" points="904.47,-132.28 914.85,-134.4 908.05,-126.27 904.47,-132.28"/>
</g>
<!-- Node15 -->
<g id="node15" class="node">
<title>Node15</title>
<g id="a_node15"><a xlink:href="../../db/db4/_patern_v_spread_8cpp.html" target="_top" xlink:title=" ">
<polygon fill="white" stroke="black" points="926,-67.5 926,-97.5 1095,-97.5 1095,-67.5 926,-67.5"/>
<text text-anchor="start" x="934" y="-85.5" font-family="Helvetica,sans-Serif" font-size="10.00">RayLib_SHMUP/src/Shmup</text>
<text text-anchor="middle" x="1010.5" y="-74.5" font-family="Helvetica,sans-Serif" font-size="10.00">/Paterns/Shoot/PaternVSpread.cpp</text>
</a>
</g>
</g>
<!-- Node10&#45;&gt;Node15 -->
<g id="edge16" class="edge">
<title>Node10&#45;&gt;Node15</title>
<path fill="none" stroke="midnightblue" d="M961.65,-127.6C972.52,-117.78 985.2,-106.34 994.91,-97.58"/>
<polygon fill="midnightblue" stroke="midnightblue" points="959.2,-125.1 954.12,-134.4 963.89,-130.29 959.2,-125.1"/>
</g>
<!-- Node11&#45;&gt;Node8 -->
<g id="edge11" class="edge">
<title>Node11&#45;&gt;Node8</title>
<path fill="none" stroke="midnightblue" d="M1103.24,-66.76C1031.16,-52.79 959.52,-39.22 908.26,-29.58"/>
<polygon fill="midnightblue" stroke="midnightblue" points="1102.93,-70.27 1113.41,-68.74 1104.26,-63.4 1102.93,-70.27"/>
</g>
<!-- Node11&#45;&gt;Node12 -->
<g id="edge12" class="edge">
<title>Node11&#45;&gt;Node12</title>
<path fill="none" stroke="midnightblue" d="M1193.31,-59.16C1200.02,-49.68 1207.63,-38.92 1213.54,-30.58"/>
<polygon fill="midnightblue" stroke="midnightblue" points="1190.4,-57.21 1187.48,-67.4 1196.12,-61.26 1190.4,-57.21"/>
</g>
<!-- Node17&#45;&gt;Node9 -->
<g id="edge20" class="edge">
<title>Node17&#45;&gt;Node9</title>
<path fill="none" stroke="midnightblue" d="M192.53,-200.31C256.04,-186.62 340.23,-168.16 347.5,-165 387.69,-147.53 428.54,-115.86 450.37,-97.57"/>
<polygon fill="midnightblue" stroke="midnightblue" points="191.57,-196.93 182.53,-202.46 193.04,-203.78 191.57,-196.93"/>
</g>
<!-- Node18 -->
<g id="node18" class="node">
<title>Node18</title>
<g id="a_node18"><a xlink:href="../../d5/d01/_explosion_8cpp.html" target="_top" xlink:title=" ">
<polygon fill="white" stroke="black" points="27,-134.5 27,-164.5 166,-164.5 166,-134.5 27,-134.5"/>
<text text-anchor="start" x="35" y="-152.5" font-family="Helvetica,sans-Serif" font-size="10.00">RayLib_SHMUP/src/Shmup</text>
<text text-anchor="middle" x="96.5" y="-141.5" font-family="Helvetica,sans-Serif" font-size="10.00">/Explosion.cpp</text>
</a>
</g>
</g>
<!-- Node17&#45;&gt;Node18 -->
<g id="edge19" class="edge">
<title>Node17&#45;&gt;Node18</title>
<path fill="none" stroke="midnightblue" d="M112.46,-191.99C108.92,-182.8 104.99,-172.58 101.91,-164.58"/>
<polygon fill="midnightblue" stroke="midnightblue" points="109.22,-193.32 116.08,-201.4 115.75,-190.81 109.22,-193.32"/>
</g>
<!-- Node20&#45;&gt;Node7 -->
<g id="edge33" class="edge">
<title>Node20&#45;&gt;Node7</title>
<path fill="none" stroke="midnightblue" d="M945.53,-263.8C892.61,-237.04 796.48,-188.42 749.23,-164.52"/>
<polygon fill="midnightblue" stroke="midnightblue" points="944.07,-266.98 954.57,-268.37 947.22,-260.74 944.07,-266.98"/>
</g>
<!-- Node20&#45;&gt;Node10 -->
<g id="edge34" class="edge">
<title>Node20&#45;&gt;Node10</title>
<path fill="none" stroke="midnightblue" d="M938.59,-263.46C925.93,-255.65 913.62,-245.27 906.5,-232 894.43,-209.49 911.99,-181.43 925.48,-164.79"/>
<polygon fill="midnightblue" stroke="midnightblue" points="936.94,-266.54 947.36,-268.45 940.4,-260.46 936.94,-266.54"/>
</g>
<!-- Node21 -->
<g id="node21" class="node">
<title>Node21</title>
<g id="a_node21"><a xlink:href="../../d3/d72/_a_collidable_8h.html" target="_top" xlink:title=" ">
<polygon fill="white" stroke="black" points="915,-201.5 915,-231.5 1064,-231.5 1064,-201.5 915,-201.5"/>
<text text-anchor="start" x="923" y="-219.5" font-family="Helvetica,sans-Serif" font-size="10.00">RayLib_SHMUP/include</text>
<text text-anchor="middle" x="989.5" y="-208.5" font-family="Helvetica,sans-Serif" font-size="10.00">/Shmup/Collision/ACollidable.h</text>
</a>
</g>
</g>
<!-- Node20&#45;&gt;Node21 -->
<g id="edge24" class="edge">
<title>Node20&#45;&gt;Node21</title>
<path fill="none" stroke="midnightblue" d="M985.1,-258.4C986.07,-249.37 987.14,-239.41 987.98,-231.58"/>
<polygon fill="midnightblue" stroke="midnightblue" points="981.61,-258.08 984.02,-268.4 988.57,-258.83 981.61,-258.08"/>
</g>
<!-- Node25 -->
<g id="node25" class="node">
<title>Node25</title>
<g id="a_node25"><a xlink:href="../../dd/d3e/_collider_8cpp.html" target="_top" xlink:title=" ">
<polygon fill="white" stroke="black" points="1082,-201.5 1082,-231.5 1221,-231.5 1221,-201.5 1082,-201.5"/>
<text text-anchor="start" x="1090" y="-219.5" font-family="Helvetica,sans-Serif" font-size="10.00">RayLib_SHMUP/src/Shmup</text>
<text text-anchor="middle" x="1151.5" y="-208.5" font-family="Helvetica,sans-Serif" font-size="10.00">/Collision/Collider.cpp</text>
</a>
</g>
</g>
<!-- Node20&#45;&gt;Node25 -->
<g id="edge35" class="edge">
<title>Node20&#45;&gt;Node25</title>
<path fill="none" stroke="midnightblue" d="M1028.83,-264.68C1055.93,-254.26 1089.67,-241.28 1114.9,-231.58"/>
<polygon fill="midnightblue" stroke="midnightblue" points="1027.25,-261.54 1019.17,-268.4 1029.76,-268.07 1027.25,-261.54"/>
</g>
<!-- Node26 -->
<g id="node26" class="node">
<title>Node26</title>
<g id="a_node26"><a xlink:href="../../d1/d01/_collider_calculation_8cpp.html" target="_top" xlink:title=" ">
<polygon fill="white" stroke="black" points="1239.5,-201.5 1239.5,-231.5 1397.5,-231.5 1397.5,-201.5 1239.5,-201.5"/>
<text text-anchor="start" x="1247.5" y="-219.5" font-family="Helvetica,sans-Serif" font-size="10.00">RayLib_SHMUP/src/Shmup</text>
<text text-anchor="middle" x="1318.5" y="-208.5" font-family="Helvetica,sans-Serif" font-size="10.00">/Collision/ColliderCalculation.cpp</text>
</a>
</g>
</g>
<!-- Node20&#45;&gt;Node26 -->
<g id="edge36" class="edge">
<title>Node20&#45;&gt;Node26</title>
<path fill="none" stroke="midnightblue" d="M1059.17,-267.67C1115.28,-256.81 1190.92,-242.18 1246.02,-231.52"/>
<polygon fill="midnightblue" stroke="midnightblue" points="1058.44,-264.24 1049.28,-269.58 1059.77,-271.12 1058.44,-264.24"/>
</g>
<!-- Node21&#45;&gt;Node7 -->
<g id="edge29" class="edge">
<title>Node21&#45;&gt;Node7</title>
<path fill="none" stroke="midnightblue" d="M921.96,-199.12C878.11,-188.48 821.54,-174.76 779.68,-164.61"/>
<polygon fill="midnightblue" stroke="midnightblue" points="921.13,-202.52 931.68,-201.48 922.78,-195.72 921.13,-202.52"/>
</g>
<!-- Node21&#45;&gt;Node10 -->
<g id="edge30" class="edge">
<title>Node21&#45;&gt;Node10</title>
<path fill="none" stroke="midnightblue" d="M972.2,-193.45C964.71,-183.9 956.16,-173 949.54,-164.58"/>
<polygon fill="midnightblue" stroke="midnightblue" points="969.51,-195.69 978.43,-201.4 975.01,-191.37 969.51,-195.69"/>
</g>
<!-- Node22 -->
<g id="node22" class="node">
<title>Node22</title>
<g id="a_node22"><a xlink:href="../../d7/d3e/_collision_manager_8h.html" target="_top" xlink:title=" ">
<polygon fill="white" stroke="black" points="1307,-134.5 1307,-164.5 1482,-164.5 1482,-134.5 1307,-134.5"/>
<text text-anchor="start" x="1315" y="-152.5" font-family="Helvetica,sans-Serif" font-size="10.00">RayLib_SHMUP/include</text>
<text text-anchor="middle" x="1394.5" y="-141.5" font-family="Helvetica,sans-Serif" font-size="10.00">/Shmup/Collision/CollisionManager.h</text>
</a>
</g>
</g>
<!-- Node21&#45;&gt;Node22 -->
<g id="edge25" class="edge">
<title>Node21&#45;&gt;Node22</title>
<path fill="none" stroke="midnightblue" d="M1074.24,-200.89C1159.22,-186.92 1244.8,-173.52 1306.91,-163.92"/>
<polygon fill="midnightblue" stroke="midnightblue" points="1073.44,-197.48 1064.15,-202.56 1074.58,-204.38 1073.44,-197.48"/>
</g>
<!-- Node23 -->
<g id="node23" class="node">
<title>Node23</title>
<g id="a_node23"><a xlink:href="../../d9/d84/_a_collidable_8cpp.html" target="_top" xlink:title=" ">
<polygon fill="white" stroke="black" points="1506,-67.5 1506,-97.5 1645,-97.5 1645,-67.5 1506,-67.5"/>
<text text-anchor="start" x="1514" y="-85.5" font-family="Helvetica,sans-Serif" font-size="10.00">RayLib_SHMUP/src/Shmup</text>
<text text-anchor="middle" x="1575.5" y="-74.5" font-family="Helvetica,sans-Serif" font-size="10.00">/Collision/ACollidable.cpp</text>
</a>
</g>
</g>
<!-- Node21&#45;&gt;Node23 -->
<g id="edge31" class="edge">
<title>Node21&#45;&gt;Node23</title>
<path fill="none" stroke="midnightblue" d="M1074.05,-201.12C1180.86,-189.92 1409.33,-202.5 1491.5,-165 1524.22,-150.07 1551.85,-116.82 1565.79,-97.73"/>
<polygon fill="midnightblue" stroke="midnightblue" points="1073.63,-197.65 1064.11,-202.28 1074.44,-204.6 1073.63,-197.65"/>
</g>
<!-- Node24 -->
<g id="node24" class="node">
<title>Node24</title>
<g id="a_node24"><a xlink:href="../../df/db7/_collision_manager_8cpp.html" target="_top" xlink:title=" ">
<polygon fill="white" stroke="black" points="1297.5,-67.5 1297.5,-97.5 1449.5,-97.5 1449.5,-67.5 1297.5,-67.5"/>
<text text-anchor="start" x="1305.5" y="-85.5" font-family="Helvetica,sans-Serif" font-size="10.00">RayLib_SHMUP/src/Shmup</text>
<text text-anchor="middle" x="1373.5" y="-74.5" font-family="Helvetica,sans-Serif" font-size="10.00">/Collision/CollisionManager.cpp</text>
</a>
</g>
</g>
<!-- Node21&#45;&gt;Node24 -->
<g id="edge32" class="edge">
<title>Node21&#45;&gt;Node24</title>
<path fill="none" stroke="midnightblue" d="M1039.7,-198.24C1116.53,-171.83 1261.79,-121.9 1332.61,-97.56"/>
<polygon fill="midnightblue" stroke="midnightblue" points="1038.55,-194.94 1030.23,-201.5 1040.83,-201.56 1038.55,-194.94"/>
</g>
<!-- Node22&#45;&gt;Node8 -->
<g id="edge28" class="edge">
<title>Node22&#45;&gt;Node8</title>
<path fill="none" stroke="midnightblue" d="M1427.18,-128.75C1451.28,-111.8 1476.93,-87 1458.5,-67 1440.05,-46.99 1066.07,-27.17 908.03,-19.66"/>
<polygon fill="midnightblue" stroke="midnightblue" points="1425.13,-125.91 1418.79,-134.4 1429.04,-131.72 1425.13,-125.91"/>
</g>
<!-- Node22&#45;&gt;Node23 -->
<g id="edge26" class="edge">
<title>Node22&#45;&gt;Node23</title>
<path fill="none" stroke="midnightblue" d="M1443.36,-130.96C1472.51,-120.48 1509.04,-107.37 1536.3,-97.58"/>
<polygon fill="midnightblue" stroke="midnightblue" points="1442,-127.72 1433.77,-134.4 1444.37,-134.31 1442,-127.72"/>
</g>
<!-- Node22&#45;&gt;Node24 -->
<g id="edge27" class="edge">
<title>Node22&#45;&gt;Node24</title>
<path fill="none" stroke="midnightblue" d="M1386.81,-124.7C1383.87,-115.59 1380.61,-105.49 1378.05,-97.58"/>
<polygon fill="midnightblue" stroke="midnightblue" points="1383.54,-125.96 1389.94,-134.4 1390.2,-123.8 1383.54,-125.96"/>
</g>
<!-- Node27&#45;&gt;Node25 -->
<g id="edge38" class="edge">
<title>Node27&#45;&gt;Node25</title>
<path fill="none" stroke="midnightblue" d="M1155.28,-258.4C1154.44,-249.37 1153.52,-239.41 1152.8,-231.58"/>
<polygon fill="midnightblue" stroke="midnightblue" points="1151.79,-258.76 1156.2,-268.4 1158.76,-258.12 1151.79,-258.76"/>
</g>
<!-- Node27&#45;&gt;Node26 -->
<g id="edge39" class="edge">
<title>Node27&#45;&gt;Node26</title>
<path fill="none" stroke="midnightblue" d="M1201.98,-264.54C1227.74,-254.14 1259.7,-241.24 1283.63,-231.58"/>
<polygon fill="midnightblue" stroke="midnightblue" points="1200.4,-261.41 1192.43,-268.4 1203.02,-267.9 1200.4,-261.41"/>
</g>
</g>
</svg>
        <g id="navigator" transform="translate(0 0)" fill="#404254">
                <rect fill="#f2f5e9" fill-opacity="0.5" stroke="#606060" stroke-width=".5" x="0" y="0" width="60" height="60"/>
                <use id="zoomplus" xlink:href="#zoomPlus" x="17" y="9" onmousedown="handleZoom(evt,'in')"/>
                <use id="zoomminus" xlink:href="#zoomMin" x="42" y="9" onmousedown="handleZoom(evt,'out')"/>
                <use id="reset" xlink:href="#resetDef" x="30" y="36" onmousedown="handleReset()"/>
                <g id="arrowUp" xlink:href="#dirArrow" transform="translate(30 24)" onmousedown="handlePan(0,-1)">
                  <use xlink:href="#rim" fill="#404040">
                        <set attributeName="fill" to="#808080" begin="arrowUp.mouseover" end="arrowUp.mouseout"/>
                  </use>
                  <path fill="none" stroke="white" stroke-width="1.5" d="M0,-3.0v7 M-2.5,-0.5L0,-3.0L2.5,-0.5"/>
                </g>
                <g id="arrowRight" xlink:href="#dirArrow" transform="rotate(90) translate(36 -43)" onmousedown="handlePan(1,0)">
                  <use xlink:href="#rim" fill="#404040">
                        <set attributeName="fill" to="#808080" begin="arrowRight.mouseover" end="arrowRight.mouseout"/>
                  </use>
                  <path fill="none" stroke="white" stroke-width="1.5" d="M0,-3.0v7 M-2.5,-0.5L0,-3.0L2.5,-0.5"/>
                </g>
                <g id="arrowDown" xlink:href="#dirArrow" transform="rotate(180) translate(-30 -48)" onmousedown="handlePan(0,1)">
                  <use xlink:href="#rim" fill="#404040">
                        <set attributeName="fill" to="#808080" begin="arrowDown.mouseover" end="arrowDown.mouseout"/>
                  </use>
                  <path fill="none" stroke="white" stroke-width="1.5" d="M0,-3.0v7 M-2.5,-0.5L0,-3.0L2.5,-0.5"/>
                </g>
                <g id="arrowLeft" xlink:href="#dirArrow" transform="rotate(270) translate(-36 17)" onmousedown="handlePan(-1,0)">
                  <use xlink:href="#rim" fill="#404040">
                        <set attributeName="fill" to="#808080" begin="arrowLeft.mouseover" end="arrowLeft.mouseout"/>
                  </use>
                  <path fill="none" stroke="white" stroke-width="1.5" d="M0,-3.0v7 M-2.5,-0.5L0,-3.0L2.5,-0.5"/>
                </g>
        </g>
        <svg viewBox="0 0 15 15" width="100%" height="30px" preserveAspectRatio="xMaxYMin meet">
         <g id="arrow_out" transform="scale(0.3 0.3)">
          <a xlink:href="_transform2_d_8h__dep__incl_org.svg" target="_base">
           <rect id="button" ry="5" rx="5" y="6" x="6" height="38" width="38"
                fill="#f2f5e9" fill-opacity="0.5" stroke="#606060" stroke-width="1.0"/>
           <path id="arrow"
             d="M 11.500037,31.436501 C 11.940474,20.09759 22.043105,11.32322 32.158766,21.979434 L 37.068811,17.246167 C 37.068811,17.246167 37.088388,32 37.088388,32 L 22.160133,31.978069 C 22.160133,31.978069 26.997745,27.140456 26.997745,27.140456 C 18.528582,18.264221 13.291696,25.230495 11.500037,31.436501 z"
             style="fill:#404040;"/>
          </a>
         </g>
        </svg>
</svg>
