<?xml version="1.0" encoding="UTF-8" standalone="no"?>
<!DOCTYPE svg PUBLIC "-//W3C//DTD SVG 1.1//EN"
 "http://www.w3.org/Graphics/SVG/1.1/DTD/svg11.dtd">
<!-- Generated by graphviz version 2.49.3 (20211027.1534)
 -->
<!-- Title: RayLib_SHMUP/include/Shmup/Transform2D.h Pages: 1 -->
<!--zoomable 374 -->
<svg id="main" version="1.1" xmlns="http://www.w3.org/2000/svg" xmlns:xlink="http://www.w3.org/1999/xlink" xml:space="preserve" onload="init(evt)">
<style type="text/css"><![CDATA[
.edge:hover path { stroke: red; }
.edge:hover polygon { stroke: red; fill: red; }
]]></style>
<script type="text/javascript"><![CDATA[
var edges = document.getElementsByTagName('g');
if (edges && edges.length) {
  for (var i=0;i<edges.length;i++) {
    if (edges[i].id.substr(0,4)=='edge') {
      edges[i].setAttribute('class','edge');
    }
  }
}
]]></script>
        <defs>
                <circle id="rim" cx="0" cy="0" r="7"/>
                <circle id="rim2" cx="0" cy="0" r="3.5"/>
                <g id="zoomPlus">
                        <use xlink:href="#rim" fill="#404040">
                                <set attributeName="fill" to="#808080" begin="zoomplus.mouseover" end="zoomplus.mouseout"/>
                        </use>
                        <path d="M-4,0h8M0,-4v8" fill="none" stroke="white" stroke-width="1.5" pointer-events="none"/>
                </g>
                <g id="zoomMin">
                        <use xlink:href="#rim" fill="#404040">
                                <set attributeName="fill" to="#808080" begin="zoomminus.mouseover" end="zoomminus.mouseout"/>
                        </use>
                        <path d="M-4,0h8" fill="none" stroke="white" stroke-width="1.5" pointer-events="none"/>
                </g>
                <g id="dirArrow">
                        <path fill="none" stroke="white" stroke-width="1.5" d="M0,-3.0v7 M-2.5,-0.5L0,-3.0L2.5,-0.5"/>
                </g>
               <g id="resetDef">
                       <use xlink:href="#rim2" fill="#404040">
                               <set attributeName="fill" to="#808080" begin="reset.mouseover" end="reset.mouseout"/>
                       </use>
               </g>
        </defs>

<script type="text/javascript">
var viewWidth = 1989;
var viewHeight = 374;
var sectionId = 'dynsection-1';
</script>
<script xlink:href="../../svgpan.js"/>
<svg id="graph" class="graph">
<g id="viewport">
<title>RayLib_SHMUP/include/Shmup/Transform2D.h</title>
<polygon fill="white" stroke="transparent" points="-4,4 -4,-370 1985,-370 1985,4 -4,4"/>
<!-- Node1 -->
<g id="node1" class="node">
<title>Node1</title>
<g id="a_node1"><a xlink:title=" ">
<polygon fill="#bfbfbf" stroke="black" points="1116.5,-335.5 1116.5,-365.5 1238.5,-365.5 1238.5,-335.5 1116.5,-335.5"/>
<text text-anchor="start" x="1124.5" y="-353.5" font-family="Helvetica,sans-Serif" font-size="10.00">RayLib_SHMUP/include</text>
<text text-anchor="middle" x="1177.5" y="-342.5" font-family="Helvetica,sans-Serif" font-size="10.00">/Shmup/Transform2D.h</text>
</a>
</g>
</g>
<!-- Node2 -->
<g id="node2" class="node">
<title>Node2</title>
<g id="a_node2"><a xlink:href="../../d7/daf/_a_graphic_object_8h.html" target="_top" xlink:title=" ">
<polygon fill="white" stroke="black" points="303.5,-268.5 303.5,-298.5 433.5,-298.5 433.5,-268.5 303.5,-268.5"/>
<text text-anchor="start" x="311.5" y="-286.5" font-family="Helvetica,sans-Serif" font-size="10.00">RayLib_SHMUP/include</text>
<text text-anchor="middle" x="368.5" y="-275.5" font-family="Helvetica,sans-Serif" font-size="10.00">/Shmup/AGraphicObject.h</text>
</a>
</g>
</g>
<!-- Node1&#45;&gt;Node2 -->
<g id="edge1" class="edge">
<title>Node1&#45;&gt;Node2</title>
<path fill="none" stroke="midnightblue" d="M1105.98,-343.75C950.38,-331.25 583.14,-301.75 433.59,-289.73"/>
<polygon fill="midnightblue" stroke="midnightblue" points="1106.11,-347.28 1116.36,-344.59 1106.67,-340.3 1106.11,-347.28"/>
</g>
<!-- Node22 -->
<g id="node22" class="node">
<title>Node22</title>
<g id="a_node22"><a xlink:href="../../d5/d36/_collider_8h.html" target="_top" xlink:title=" ">
<polygon fill="white" stroke="black" points="1111,-268.5 1111,-298.5 1244,-298.5 1244,-268.5 1111,-268.5"/>
<text text-anchor="start" x="1119" y="-286.5" font-family="Helvetica,sans-Serif" font-size="10.00">RayLib_SHMUP/include</text>
<text text-anchor="middle" x="1177.5" y="-275.5" font-family="Helvetica,sans-Serif" font-size="10.00">/Shmup/Collision/Collider.h</text>
</a>
</g>
</g>
<!-- Node1&#45;&gt;Node22 -->
<g id="edge25" class="edge">
<title>Node1&#45;&gt;Node22</title>
<path fill="none" stroke="midnightblue" d="M1177.5,-325.11C1177.5,-316.15 1177.5,-306.32 1177.5,-298.58"/>
<polygon fill="midnightblue" stroke="midnightblue" points="1174,-325.4 1177.5,-335.4 1181,-325.4 1174,-325.4"/>
</g>
<!-- Node29 -->
<g id="node29" class="node">
<title>Node29</title>
<g id="a_node29"><a xlink:href="../../d1/d77/_collider_calculation_8h.html" target="_top" xlink:title=" ">
<polygon fill="white" stroke="black" points="1262,-268.5 1262,-298.5 1443,-298.5 1443,-268.5 1262,-268.5"/>
<text text-anchor="start" x="1270" y="-286.5" font-family="Helvetica,sans-Serif" font-size="10.00">RayLib_SHMUP/include</text>
<text text-anchor="middle" x="1352.5" y="-275.5" font-family="Helvetica,sans-Serif" font-size="10.00">/Shmup/Collision/ColliderCalculation.h</text>
</a>
</g>
</g>
<!-- Node1&#45;&gt;Node29 -->
<g id="edge39" class="edge">
<title>Node1&#45;&gt;Node29</title>
<path fill="none" stroke="midnightblue" d="M1225.1,-331.82C1253.23,-321.37 1288.36,-308.32 1314.6,-298.58"/>
<polygon fill="midnightblue" stroke="midnightblue" points="1223.63,-328.63 1215.47,-335.4 1226.07,-335.2 1223.63,-328.63"/>
</g>
<!-- Node3 -->
<g id="node3" class="node">
<title>Node3</title>
<g id="a_node3"><a xlink:href="../../db/d1b/_a_movable_8h.html" target="_top" xlink:title=" ">
<polygon fill="white" stroke="black" points="475.5,-201.5 475.5,-231.5 597.5,-231.5 597.5,-201.5 475.5,-201.5"/>
<text text-anchor="start" x="483.5" y="-219.5" font-family="Helvetica,sans-Serif" font-size="10.00">RayLib_SHMUP/include</text>
<text text-anchor="middle" x="536.5" y="-208.5" font-family="Helvetica,sans-Serif" font-size="10.00">/Shmup/AMovable.h</text>
</a>
</g>
</g>
<!-- Node2&#45;&gt;Node3 -->
<g id="edge2" class="edge">
<title>Node2&#45;&gt;Node3</title>
<path fill="none" stroke="midnightblue" d="M414.55,-264.68C441.5,-254.26 475.04,-241.28 500.12,-231.58"/>
<polygon fill="midnightblue" stroke="midnightblue" points="413.02,-261.52 404.95,-268.4 415.54,-268.05 413.02,-261.52"/>
</g>
<!-- Node8 -->
<g id="node8" class="node">
<title>Node8</title>
<g id="a_node8"><a xlink:href="../../d2/d2e/_game_manager_8cpp.html" target="_top" xlink:title=" ">
<polygon fill="white" stroke="black" points="643,-0.5 643,-30.5 782,-30.5 782,-0.5 643,-0.5"/>
<text text-anchor="start" x="651" y="-18.5" font-family="Helvetica,sans-Serif" font-size="10.00">RayLib_SHMUP/src/Shmup</text>
<text text-anchor="middle" x="712.5" y="-7.5" font-family="Helvetica,sans-Serif" font-size="10.00">/GameManager.cpp</text>
</a>
</g>
</g>
<!-- Node2&#45;&gt;Node8 -->
<g id="edge24" class="edge">
<title>Node2&#45;&gt;Node8</title>
<path fill="none" stroke="midnightblue" d="M362.18,-258.49C352.13,-214.24 338.3,-119.57 387.5,-67 421.25,-30.94 557.81,-20.55 642.81,-17.61"/>
<polygon fill="midnightblue" stroke="midnightblue" points="358.81,-259.45 364.55,-268.35 365.62,-257.81 358.81,-259.45"/>
</g>
<!-- Node19 -->
<g id="node19" class="node">
<title>Node19</title>
<g id="a_node19"><a xlink:href="../../d9/dee/_explosion_8h.html" target="_top" xlink:title=" ">
<polygon fill="white" stroke="black" points="60.5,-201.5 60.5,-231.5 182.5,-231.5 182.5,-201.5 60.5,-201.5"/>
<text text-anchor="start" x="68.5" y="-219.5" font-family="Helvetica,sans-Serif" font-size="10.00">RayLib_SHMUP/include</text>
<text text-anchor="middle" x="121.5" y="-208.5" font-family="Helvetica,sans-Serif" font-size="10.00">/Shmup/Explosion.h</text>
</a>
</g>
</g>
<!-- Node2&#45;&gt;Node19 -->
<g id="edge20" class="edge">
<title>Node2&#45;&gt;Node19</title>
<path fill="none" stroke="midnightblue" d="M305.49,-265.92C265.18,-255.31 213.46,-241.7 175.12,-231.61"/>
<polygon fill="midnightblue" stroke="midnightblue" points="304.65,-269.32 315.21,-268.48 306.43,-262.55 304.65,-269.32"/>
</g>
<!-- Node21 -->
<g id="node21" class="node">
<title>Node21</title>
<g id="a_node21"><a xlink:href="../../de/d53/_a_graphic_object_8cpp.html" target="_top" xlink:title=" ">
<polygon fill="white" stroke="black" points="201,-201.5 201,-231.5 340,-231.5 340,-201.5 201,-201.5"/>
<text text-anchor="start" x="209" y="-219.5" font-family="Helvetica,sans-Serif" font-size="10.00">RayLib_SHMUP/src/Shmup</text>
<text text-anchor="middle" x="270.5" y="-208.5" font-family="Helvetica,sans-Serif" font-size="10.00">/AGraphicObject.cpp</text>
</a>
</g>
</g>
<!-- Node2&#45;&gt;Node21 -->
<g id="edge23" class="edge">
<title>Node2&#45;&gt;Node21</title>
<path fill="none" stroke="midnightblue" d="M338.7,-262.73C323.53,-252.68 305.46,-240.68 291.72,-231.58"/>
<polygon fill="midnightblue" stroke="midnightblue" points="336.97,-265.79 347.24,-268.4 340.84,-259.95 336.97,-265.79"/>
</g>
<!-- Node4 -->
<g id="node4" class="node">
<title>Node4</title>
<g id="a_node4"><a xlink:href="../../d3/d22/_patern_computer_8h.html" target="_top" xlink:title=" ">
<polygon fill="white" stroke="black" points="184.5,-134.5 184.5,-164.5 338.5,-164.5 338.5,-134.5 184.5,-134.5"/>
<text text-anchor="start" x="192.5" y="-152.5" font-family="Helvetica,sans-Serif" font-size="10.00">RayLib_SHMUP/include</text>
<text text-anchor="middle" x="261.5" y="-141.5" font-family="Helvetica,sans-Serif" font-size="10.00">/PaternEditor/PaternComputer.h</text>
</a>
</g>
</g>
<!-- Node3&#45;&gt;Node4 -->
<g id="edge3" class="edge">
<title>Node3&#45;&gt;Node4</title>
<path fill="none" stroke="midnightblue" d="M467.19,-199.12C422.2,-188.48 364.15,-174.76 321.2,-164.61"/>
<polygon fill="midnightblue" stroke="midnightblue" points="466.63,-202.58 477.17,-201.48 468.24,-195.77 466.63,-202.58"/>
</g>
<!-- Node7 -->
<g id="node7" class="node">
<title>Node7</title>
<g id="a_node7"><a xlink:href="../../d4/d1e/_enemy_8h.html" target="_top" xlink:title=" ">
<polygon fill="white" stroke="black" points="656.5,-134.5 656.5,-164.5 786.5,-164.5 786.5,-134.5 656.5,-134.5"/>
<text text-anchor="start" x="664.5" y="-152.5" font-family="Helvetica,sans-Serif" font-size="10.00">RayLib_SHMUP/include</text>
<text text-anchor="middle" x="721.5" y="-141.5" font-family="Helvetica,sans-Serif" font-size="10.00">/Shmup/Movable/Enemy.h</text>
</a>
</g>
</g>
<!-- Node3&#45;&gt;Node7 -->
<g id="edge6" class="edge">
<title>Node3&#45;&gt;Node7</title>
<path fill="none" stroke="midnightblue" d="M586.44,-197.96C616.24,-187.48 653.57,-174.37 681.44,-164.58"/>
<polygon fill="midnightblue" stroke="midnightblue" points="584.92,-194.78 576.64,-201.4 587.24,-201.38 584.92,-194.78"/>
</g>
<!-- Node11 -->
<g id="node11" class="node">
<title>Node11</title>
<g id="a_node11"><a xlink:href="../../de/d15/_shoot_8h.html" target="_top" xlink:title=" ">
<polygon fill="white" stroke="black" points="1070.5,-134.5 1070.5,-164.5 1196.5,-164.5 1196.5,-134.5 1070.5,-134.5"/>
<text text-anchor="start" x="1078.5" y="-152.5" font-family="Helvetica,sans-Serif" font-size="10.00">RayLib_SHMUP/include</text>
<text text-anchor="middle" x="1133.5" y="-141.5" font-family="Helvetica,sans-Serif" font-size="10.00">/Shmup/Movable/Shoot.h</text>
</a>
</g>
</g>
<!-- Node3&#45;&gt;Node11 -->
<g id="edge10" class="edge">
<title>Node3&#45;&gt;Node11</title>
<path fill="none" stroke="midnightblue" d="M607.56,-207.76C725.09,-194.97 958.09,-169.6 1070.26,-157.39"/>
<polygon fill="midnightblue" stroke="midnightblue" points="607.15,-204.29 597.58,-208.85 607.9,-211.25 607.15,-204.29"/>
</g>
<!-- Node18 -->
<g id="node18" class="node">
<title>Node18</title>
<g id="a_node18"><a xlink:href="../../df/d32/_sequence_move_patern_8cpp.html" target="_top" xlink:title=" ">
<polygon fill="white" stroke="black" points="435,-134.5 435,-164.5 638,-164.5 638,-134.5 435,-134.5"/>
<text text-anchor="start" x="443" y="-152.5" font-family="Helvetica,sans-Serif" font-size="10.00">RayLib_SHMUP/src/Shmup</text>
<text text-anchor="middle" x="536.5" y="-141.5" font-family="Helvetica,sans-Serif" font-size="10.00">/Paterns/Enemy/SequenceMovePatern.cpp</text>
</a>
</g>
</g>
<!-- Node3&#45;&gt;Node18 -->
<g id="edge19" class="edge">
<title>Node3&#45;&gt;Node18</title>
<path fill="none" stroke="midnightblue" d="M536.5,-191.11C536.5,-182.15 536.5,-172.32 536.5,-164.58"/>
<polygon fill="midnightblue" stroke="midnightblue" points="533,-191.4 536.5,-201.4 540,-191.4 533,-191.4"/>
</g>
<!-- Node5 -->
<g id="node5" class="node">
<title>Node5</title>
<g id="a_node5"><a xlink:href="../../d3/d32/_patern_computer_8cpp.html" target="_top" xlink:title=" ">
<polygon fill="white" stroke="black" points="0,-67.5 0,-97.5 161,-97.5 161,-67.5 0,-67.5"/>
<text text-anchor="start" x="8" y="-85.5" font-family="Helvetica,sans-Serif" font-size="10.00">RayLib_SHMUP/src/PaternEditor</text>
<text text-anchor="middle" x="80.5" y="-74.5" font-family="Helvetica,sans-Serif" font-size="10.00">/PaternComputer.cpp</text>
</a>
</g>
</g>
<!-- Node4&#45;&gt;Node5 -->
<g id="edge4" class="edge">
<title>Node4&#45;&gt;Node5</title>
<path fill="none" stroke="midnightblue" d="M212.64,-130.96C183.49,-120.48 146.96,-107.37 119.7,-97.58"/>
<polygon fill="midnightblue" stroke="midnightblue" points="211.63,-134.31 222.23,-134.4 214,-127.72 211.63,-134.31"/>
</g>
<!-- Node6 -->
<g id="node6" class="node">
<title>Node6</title>
<g id="a_node6"><a xlink:href="../../d5/d58/_patern_editor_main_8cpp.html" target="_top" xlink:title=" ">
<polygon fill="white" stroke="black" points="179,-67.5 179,-97.5 340,-97.5 340,-67.5 179,-67.5"/>
<text text-anchor="start" x="187" y="-85.5" font-family="Helvetica,sans-Serif" font-size="10.00">RayLib_SHMUP/src/PaternEditor</text>
<text text-anchor="middle" x="259.5" y="-74.5" font-family="Helvetica,sans-Serif" font-size="10.00">Main.cpp</text>
</a>
</g>
</g>
<!-- Node4&#45;&gt;Node6 -->
<g id="edge5" class="edge">
<title>Node4&#45;&gt;Node6</title>
<path fill="none" stroke="midnightblue" d="M260.75,-124.11C260.47,-115.15 260.17,-105.32 259.93,-97.58"/>
<polygon fill="midnightblue" stroke="midnightblue" points="257.26,-124.51 261.07,-134.4 264.26,-124.29 257.26,-124.51"/>
</g>
<!-- Node7&#45;&gt;Node8 -->
<g id="edge7" class="edge">
<title>Node7&#45;&gt;Node8</title>
<path fill="none" stroke="midnightblue" d="M654.3,-131.55C624.08,-122.44 593.23,-110.52 584.5,-98 562.13,-65.91 608.78,-43.62 651.91,-30.57"/>
<polygon fill="midnightblue" stroke="midnightblue" points="653.48,-134.96 664.06,-134.41 655.45,-128.24 653.48,-134.96"/>
</g>
<!-- Node9 -->
<g id="node9" class="node">
<title>Node9</title>
<g id="a_node9"><a xlink:href="../../df/dd2/_level_manager_8cpp.html" target="_top" xlink:title=" ">
<polygon fill="white" stroke="black" points="593,-67.5 593,-97.5 732,-97.5 732,-67.5 593,-67.5"/>
<text text-anchor="start" x="601" y="-85.5" font-family="Helvetica,sans-Serif" font-size="10.00">RayLib_SHMUP/src/Shmup</text>
<text text-anchor="middle" x="662.5" y="-74.5" font-family="Helvetica,sans-Serif" font-size="10.00">/LevelManager.cpp</text>
</a>
</g>
</g>
<!-- Node7&#45;&gt;Node9 -->
<g id="edge8" class="edge">
<title>Node7&#45;&gt;Node9</title>
<path fill="none" stroke="midnightblue" d="M701.75,-126.74C693.02,-117.12 683,-106.09 675.28,-97.58"/>
<polygon fill="midnightblue" stroke="midnightblue" points="699.39,-129.34 708.7,-134.4 704.57,-124.64 699.39,-129.34"/>
</g>
<!-- Node10 -->
<g id="node10" class="node">
<title>Node10</title>
<g id="a_node10"><a xlink:href="../../de/d34/_enemy_8cpp.html" target="_top" xlink:title=" ">
<polygon fill="white" stroke="black" points="397,-67.5 397,-97.5 536,-97.5 536,-67.5 397,-67.5"/>
<text text-anchor="start" x="405" y="-85.5" font-family="Helvetica,sans-Serif" font-size="10.00">RayLib_SHMUP/src/Shmup</text>
<text text-anchor="middle" x="466.5" y="-74.5" font-family="Helvetica,sans-Serif" font-size="10.00">/Movable/Enemy.cpp</text>
</a>
</g>
</g>
<!-- Node7&#45;&gt;Node10 -->
<g id="edge9" class="edge">
<title>Node7&#45;&gt;Node10</title>
<path fill="none" stroke="midnightblue" d="M656.71,-131.98C615.06,-121.37 561.52,-107.72 521.86,-97.61"/>
<polygon fill="midnightblue" stroke="midnightblue" points="655.93,-135.4 666.48,-134.48 657.66,-128.61 655.93,-135.4"/>
</g>
<!-- Node12 -->
<g id="node12" class="node">
<title>Node12</title>
<g id="a_node12"><a xlink:href="../../d1/d39/_player_8h.html" target="_top" xlink:title=" ">
<polygon fill="white" stroke="black" points="750.5,-67.5 750.5,-97.5 878.5,-97.5 878.5,-67.5 750.5,-67.5"/>
<text text-anchor="start" x="758.5" y="-85.5" font-family="Helvetica,sans-Serif" font-size="10.00">RayLib_SHMUP/include</text>
<text text-anchor="middle" x="814.5" y="-74.5" font-family="Helvetica,sans-Serif" font-size="10.00">/Shmup/Movable/Player.h</text>
</a>
</g>
</g>
<!-- Node11&#45;&gt;Node12 -->
<g id="edge11" class="edge">
<title>Node11&#45;&gt;Node12</title>
<path fill="none" stroke="midnightblue" d="M1060.48,-133.62C1005.67,-122.45 931.32,-107.3 878.76,-96.59"/>
<polygon fill="midnightblue" stroke="midnightblue" points="1059.98,-137.09 1070.48,-135.66 1061.38,-130.23 1059.98,-137.09"/>
</g>
<!-- Node13 -->
<g id="node13" class="node">
<title>Node13</title>
<g id="a_node13"><a xlink:href="../../d2/d82/_player_8cpp.html" target="_top" xlink:title=" ">
<polygon fill="white" stroke="black" points="846,-0.5 846,-30.5 985,-30.5 985,-0.5 846,-0.5"/>
<text text-anchor="start" x="854" y="-18.5" font-family="Helvetica,sans-Serif" font-size="10.00">RayLib_SHMUP/src/Shmup</text>
<text text-anchor="middle" x="915.5" y="-7.5" font-family="Helvetica,sans-Serif" font-size="10.00">/Movable/Player.cpp</text>
</a>
</g>
</g>
<!-- Node11&#45;&gt;Node13 -->
<g id="edge14" class="edge">
<title>Node11&#45;&gt;Node13</title>
<path fill="none" stroke="midnightblue" d="M1206.91,-145.6C1328.93,-140.02 1562.62,-125.81 1587.5,-98 1596.69,-87.73 1596.87,-77.1 1587.5,-67 1547.14,-23.5 1148.72,-17.23 985.09,-16.5"/>
<polygon fill="midnightblue" stroke="midnightblue" points="1206.73,-142.11 1196.89,-146.05 1207.04,-149.1 1206.73,-142.11"/>
</g>
<!-- Node14 -->
<g id="node14" class="node">
<title>Node14</title>
<g id="a_node14"><a xlink:href="../../d6/dae/_shoot_8cpp.html" target="_top" xlink:title=" ">
<polygon fill="white" stroke="black" points="897,-67.5 897,-97.5 1036,-97.5 1036,-67.5 897,-67.5"/>
<text text-anchor="start" x="905" y="-85.5" font-family="Helvetica,sans-Serif" font-size="10.00">RayLib_SHMUP/src/Shmup</text>
<text text-anchor="middle" x="966.5" y="-74.5" font-family="Helvetica,sans-Serif" font-size="10.00">/Movable/Shoot.cpp</text>
</a>
</g>
</g>
<!-- Node11&#45;&gt;Node14 -->
<g id="edge15" class="edge">
<title>Node11&#45;&gt;Node14</title>
<path fill="none" stroke="midnightblue" d="M1087.72,-130.68C1060.94,-120.26 1027.6,-107.28 1002.67,-97.58"/>
<polygon fill="midnightblue" stroke="midnightblue" points="1086.67,-134.03 1097.26,-134.4 1089.21,-127.51 1086.67,-134.03"/>
</g>
<!-- Node15 -->
<g id="node15" class="node">
<title>Node15</title>
<g id="a_node15"><a xlink:href="../../dc/dac/_patern_linear_8cpp.html" target="_top" xlink:title=" ">
<polygon fill="white" stroke="black" points="1054.5,-67.5 1054.5,-97.5 1212.5,-97.5 1212.5,-67.5 1054.5,-67.5"/>
<text text-anchor="start" x="1062.5" y="-85.5" font-family="Helvetica,sans-Serif" font-size="10.00">RayLib_SHMUP/src/Shmup</text>
<text text-anchor="middle" x="1133.5" y="-74.5" font-family="Helvetica,sans-Serif" font-size="10.00">/Paterns/Shoot/PaternLinear.cpp</text>
</a>
</g>
</g>
<!-- Node11&#45;&gt;Node15 -->
<g id="edge16" class="edge">
<title>Node11&#45;&gt;Node15</title>
<path fill="none" stroke="midnightblue" d="M1133.5,-124.11C1133.5,-115.15 1133.5,-105.32 1133.5,-97.58"/>
<polygon fill="midnightblue" stroke="midnightblue" points="1130,-124.4 1133.5,-134.4 1137,-124.4 1130,-124.4"/>
</g>
<!-- Node16 -->
<g id="node16" class="node">
<title>Node16</title>
<g id="a_node16"><a xlink:href="../../d8/d91/_patern_rotate_8cpp.html" target="_top" xlink:title=" ">
<polygon fill="white" stroke="black" points="1230.5,-67.5 1230.5,-97.5 1390.5,-97.5 1390.5,-67.5 1230.5,-67.5"/>
<text text-anchor="start" x="1238.5" y="-85.5" font-family="Helvetica,sans-Serif" font-size="10.00">RayLib_SHMUP/src/Shmup</text>
<text text-anchor="middle" x="1310.5" y="-74.5" font-family="Helvetica,sans-Serif" font-size="10.00">/Paterns/Shoot/PaternRotate.cpp</text>
</a>
</g>
</g>
<!-- Node11&#45;&gt;Node16 -->
<g id="edge17" class="edge">
<title>Node11&#45;&gt;Node16</title>
<path fill="none" stroke="midnightblue" d="M1181.65,-130.82C1210.1,-120.37 1245.63,-107.32 1272.17,-97.58"/>
<polygon fill="midnightblue" stroke="midnightblue" points="1180.09,-127.66 1171.91,-134.4 1182.5,-134.23 1180.09,-127.66"/>
</g>
<!-- Node17 -->
<g id="node17" class="node">
<title>Node17</title>
<g id="a_node17"><a xlink:href="../../db/db4/_patern_v_spread_8cpp.html" target="_top" xlink:title=" ">
<polygon fill="white" stroke="black" points="1409,-67.5 1409,-97.5 1578,-97.5 1578,-67.5 1409,-67.5"/>
<text text-anchor="start" x="1417" y="-85.5" font-family="Helvetica,sans-Serif" font-size="10.00">RayLib_SHMUP/src/Shmup</text>
<text text-anchor="middle" x="1493.5" y="-74.5" font-family="Helvetica,sans-Serif" font-size="10.00">/Paterns/Shoot/PaternVSpread.cpp</text>
</a>
</g>
</g>
<!-- Node11&#45;&gt;Node17 -->
<g id="edge18" class="edge">
<title>Node11&#45;&gt;Node17</title>
<path fill="none" stroke="midnightblue" d="M1206.52,-135.32C1267.31,-124.34 1353.63,-108.75 1415.7,-97.55"/>
<polygon fill="midnightblue" stroke="midnightblue" points="1205.84,-131.88 1196.62,-137.1 1207.08,-138.77 1205.84,-131.88"/>
</g>
<!-- Node12&#45;&gt;Node8 -->
<g id="edge12" class="edge">
<title>Node12&#45;&gt;Node8</title>
<path fill="none" stroke="midnightblue" d="M783.92,-62.02C768.05,-51.9 749.02,-39.77 734.59,-30.58"/>
<polygon fill="midnightblue" stroke="midnightblue" points="782.05,-64.97 792.37,-67.4 785.82,-59.07 782.05,-64.97"/>
</g>
<!-- Node12&#45;&gt;Node13 -->
<g id="edge13" class="edge">
<title>Node12&#45;&gt;Node13</title>
<path fill="none" stroke="midnightblue" d="M845.21,-61.73C860.84,-51.68 879.47,-39.68 893.63,-30.58"/>
<polygon fill="midnightblue" stroke="midnightblue" points="842.93,-59.04 836.42,-67.4 846.72,-64.93 842.93,-59.04"/>
</g>
<!-- Node19&#45;&gt;Node10 -->
<g id="edge22" class="edge">
<title>Node19&#45;&gt;Node10</title>
<path fill="none" stroke="midnightblue" d="M192.53,-200.31C256.04,-186.62 340.23,-168.16 347.5,-165 387.69,-147.53 428.54,-115.86 450.37,-97.57"/>
<polygon fill="midnightblue" stroke="midnightblue" points="191.57,-196.93 182.53,-202.46 193.04,-203.78 191.57,-196.93"/>
</g>
<!-- Node20 -->
<g id="node20" class="node">
<title>Node20</title>
<g id="a_node20"><a xlink:href="../../d5/d01/_explosion_8cpp.html" target="_top" xlink:title=" ">
<polygon fill="white" stroke="black" points="27,-134.5 27,-164.5 166,-164.5 166,-134.5 27,-134.5"/>
<text text-anchor="start" x="35" y="-152.5" font-family="Helvetica,sans-Serif" font-size="10.00">RayLib_SHMUP/src/Shmup</text>
<text text-anchor="middle" x="96.5" y="-141.5" font-family="Helvetica,sans-Serif" font-size="10.00">/Explosion.cpp</text>
</a>
</g>
</g>
<!-- Node19&#45;&gt;Node20 -->
<g id="edge21" class="edge">
<title>Node19&#45;&gt;Node20</title>
<path fill="none" stroke="midnightblue" d="M112.46,-191.99C108.92,-182.8 104.99,-172.58 101.91,-164.58"/>
<polygon fill="midnightblue" stroke="midnightblue" points="109.22,-193.32 116.08,-201.4 115.75,-190.81 109.22,-193.32"/>
</g>
<!-- Node22&#45;&gt;Node7 -->
<g id="edge35" class="edge">
<title>Node22&#45;&gt;Node7</title>
<path fill="none" stroke="midnightblue" d="M1119.27,-265.64C1028.41,-239.34 854.59,-189.03 770.06,-164.56"/>
<polygon fill="midnightblue" stroke="midnightblue" points="1118.55,-269.08 1129.13,-268.5 1120.5,-262.36 1118.55,-269.08"/>
</g>
<!-- Node22&#45;&gt;Node11 -->
<g id="edge36" class="edge">
<title>Node22&#45;&gt;Node11</title>
<path fill="none" stroke="midnightblue" d="M1133.59,-263.46C1120.93,-255.65 1108.62,-245.27 1101.5,-232 1089.43,-209.49 1106.99,-181.43 1120.48,-164.79"/>
<polygon fill="midnightblue" stroke="midnightblue" points="1131.94,-266.54 1142.36,-268.45 1135.4,-260.46 1131.94,-266.54"/>
</g>
<!-- Node23 -->
<g id="node23" class="node">
<title>Node23</title>
<g id="a_node23"><a xlink:href="../../d3/d72/_a_collidable_8h.html" target="_top" xlink:title=" ">
<polygon fill="white" stroke="black" points="1110,-201.5 1110,-231.5 1259,-231.5 1259,-201.5 1110,-201.5"/>
<text text-anchor="start" x="1118" y="-219.5" font-family="Helvetica,sans-Serif" font-size="10.00">RayLib_SHMUP/include</text>
<text text-anchor="middle" x="1184.5" y="-208.5" font-family="Helvetica,sans-Serif" font-size="10.00">/Shmup/Collision/ACollidable.h</text>
</a>
</g>
</g>
<!-- Node22&#45;&gt;Node23 -->
<g id="edge26" class="edge">
<title>Node22&#45;&gt;Node23</title>
<path fill="none" stroke="midnightblue" d="M1180.1,-258.4C1181.07,-249.37 1182.14,-239.41 1182.98,-231.58"/>
<polygon fill="midnightblue" stroke="midnightblue" points="1176.61,-258.08 1179.02,-268.4 1183.57,-258.83 1176.61,-258.08"/>
</g>
<!-- Node27 -->
<g id="node27" class="node">
<title>Node27</title>
<g id="a_node27"><a xlink:href="../../dd/d3e/_collider_8cpp.html" target="_top" xlink:title=" ">
<polygon fill="white" stroke="black" points="1277,-201.5 1277,-231.5 1416,-231.5 1416,-201.5 1277,-201.5"/>
<text text-anchor="start" x="1285" y="-219.5" font-family="Helvetica,sans-Serif" font-size="10.00">RayLib_SHMUP/src/Shmup</text>
<text text-anchor="middle" x="1346.5" y="-208.5" font-family="Helvetica,sans-Serif" font-size="10.00">/Collision/Collider.cpp</text>
</a>
</g>
</g>
<!-- Node22&#45;&gt;Node27 -->
<g id="edge37" class="edge">
<title>Node22&#45;&gt;Node27</title>
<path fill="none" stroke="midnightblue" d="M1223.83,-264.68C1250.93,-254.26 1284.67,-241.28 1309.9,-231.58"/>
<polygon fill="midnightblue" stroke="midnightblue" points="1222.25,-261.54 1214.17,-268.4 1224.76,-268.07 1222.25,-261.54"/>
</g>
<!-- Node28 -->
<g id="node28" class="node">
<title>Node28</title>
<g id="a_node28"><a xlink:href="../../d1/d01/_collider_calculation_8cpp.html" target="_top" xlink:title=" ">
<polygon fill="white" stroke="black" points="1434.5,-201.5 1434.5,-231.5 1592.5,-231.5 1592.5,-201.5 1434.5,-201.5"/>
<text text-anchor="start" x="1442.5" y="-219.5" font-family="Helvetica,sans-Serif" font-size="10.00">RayLib_SHMUP/src/Shmup</text>
<text text-anchor="middle" x="1513.5" y="-208.5" font-family="Helvetica,sans-Serif" font-size="10.00">/Collision/ColliderCalculation.cpp</text>
</a>
</g>
</g>
<!-- Node22&#45;&gt;Node28 -->
<g id="edge38" class="edge">
<title>Node22&#45;&gt;Node28</title>
<path fill="none" stroke="midnightblue" d="M1254.17,-267.67C1310.28,-256.81 1385.92,-242.18 1441.02,-231.52"/>
<polygon fill="midnightblue" stroke="midnightblue" points="1253.44,-264.24 1244.28,-269.58 1254.77,-271.12 1253.44,-264.24"/>
</g>
<!-- Node23&#45;&gt;Node7 -->
<g id="edge31" class="edge">
<title>Node23&#45;&gt;Node7</title>
<path fill="none" stroke="midnightblue" d="M1099.92,-203.63C1009.67,-190.96 868.65,-171.16 786.65,-159.65"/>
<polygon fill="midnightblue" stroke="midnightblue" points="1099.46,-207.1 1109.85,-205.02 1100.44,-200.16 1099.46,-207.1"/>
</g>
<!-- Node23&#45;&gt;Node11 -->
<g id="edge32" class="edge">
<title>Node23&#45;&gt;Node11</title>
<path fill="none" stroke="midnightblue" d="M1167.2,-193.45C1159.71,-183.9 1151.16,-173 1144.54,-164.58"/>
<polygon fill="midnightblue" stroke="midnightblue" points="1164.51,-195.69 1173.43,-201.4 1170.01,-191.37 1164.51,-195.69"/>
</g>
<!-- Node24 -->
<g id="node24" class="node">
<title>Node24</title>
<g id="a_node24"><a xlink:href="../../d7/d3e/_collision_manager_8h.html" target="_top" xlink:title=" ">
<polygon fill="white" stroke="black" points="1643,-134.5 1643,-164.5 1818,-164.5 1818,-134.5 1643,-134.5"/>
<text text-anchor="start" x="1651" y="-152.5" font-family="Helvetica,sans-Serif" font-size="10.00">RayLib_SHMUP/include</text>
<text text-anchor="middle" x="1730.5" y="-141.5" font-family="Helvetica,sans-Serif" font-size="10.00">/Shmup/Collision/CollisionManager.h</text>
</a>
</g>
</g>
<!-- Node23&#45;&gt;Node24 -->
<g id="edge27" class="edge">
<title>Node23&#45;&gt;Node24</title>
<path fill="none" stroke="midnightblue" d="M1269.33,-200.94C1405.68,-181.97 1551.76,-167.08 1642.59,-158.47"/>
<polygon fill="midnightblue" stroke="midnightblue" points="1268.53,-197.52 1259.12,-202.37 1269.51,-204.45 1268.53,-197.52"/>
</g>
<!-- Node25 -->
<g id="node25" class="node">
<title>Node25</title>
<g id="a_node25"><a xlink:href="../../d9/d84/_a_collidable_8cpp.html" target="_top" xlink:title=" ">
<polygon fill="white" stroke="black" points="1842,-67.5 1842,-97.5 1981,-97.5 1981,-67.5 1842,-67.5"/>
<text text-anchor="start" x="1850" y="-85.5" font-family="Helvetica,sans-Serif" font-size="10.00">RayLib_SHMUP/src/Shmup</text>
<text text-anchor="middle" x="1911.5" y="-74.5" font-family="Helvetica,sans-Serif" font-size="10.00">/Collision/ACollidable.cpp</text>
</a>
</g>
</g>
<!-- Node23&#45;&gt;Node25 -->
<g id="edge33" class="edge">
<title>Node23&#45;&gt;Node25</title>
<path fill="none" stroke="midnightblue" d="M1269.17,-201.12C1407.7,-187.76 1716.48,-214.22 1827.5,-165 1860.56,-150.34 1888.26,-116.67 1902.07,-97.5"/>
<polygon fill="midnightblue" stroke="midnightblue" points="1268.67,-197.65 1259.09,-202.2 1269.41,-204.61 1268.67,-197.65"/>
</g>
<!-- Node26 -->
<g id="node26" class="node">
<title>Node26</title>
<g id="a_node26"><a xlink:href="../../df/db7/_collision_manager_8cpp.html" target="_top" xlink:title=" ">
<polygon fill="white" stroke="black" points="1633.5,-67.5 1633.5,-97.5 1785.5,-97.5 1785.5,-67.5 1633.5,-67.5"/>
<text text-anchor="start" x="1641.5" y="-85.5" font-family="Helvetica,sans-Serif" font-size="10.00">RayLib_SHMUP/src/Shmup</text>
<text text-anchor="middle" x="1709.5" y="-74.5" font-family="Helvetica,sans-Serif" font-size="10.00">/Collision/CollisionManager.cpp</text>
</a>
</g>
</g>
<!-- Node23&#45;&gt;Node26 -->
<g id="edge34" class="edge">
<title>Node23&#45;&gt;Node26</title>
<path fill="none" stroke="midnightblue" d="M1249.96,-199.04C1354.11,-172.85 1555.78,-122.15 1653.59,-97.56"/>
<polygon fill="midnightblue" stroke="midnightblue" points="1249.03,-195.67 1240.19,-201.5 1250.74,-202.45 1249.03,-195.67"/>
</g>
<!-- Node24&#45;&gt;Node8 -->
<g id="edge30" class="edge">
<title>Node24&#45;&gt;Node8</title>
<path fill="none" stroke="midnightblue" d="M1763.39,-128.55C1787.63,-111.46 1813.37,-86.59 1794.5,-67 1757.59,-28.68 890.55,-35.07 837.5,-31 819.53,-29.62 800.16,-27.63 782.16,-25.55"/>
<polygon fill="midnightblue" stroke="midnightblue" points="1761.29,-125.75 1754.96,-134.25 1765.2,-131.55 1761.29,-125.75"/>
</g>
<!-- Node24&#45;&gt;Node25 -->
<g id="edge28" class="edge">
<title>Node24&#45;&gt;Node25</title>
<path fill="none" stroke="midnightblue" d="M1779.36,-130.96C1808.51,-120.48 1845.04,-107.37 1872.3,-97.58"/>
<polygon fill="midnightblue" stroke="midnightblue" points="1778,-127.72 1769.77,-134.4 1780.37,-134.31 1778,-127.72"/>
</g>
<!-- Node24&#45;&gt;Node26 -->
<g id="edge29" class="edge">
<title>Node24&#45;&gt;Node26</title>
<path fill="none" stroke="midnightblue" d="M1722.81,-124.7C1719.87,-115.59 1716.61,-105.49 1714.05,-97.58"/>
<polygon fill="midnightblue" stroke="midnightblue" points="1719.54,-125.96 1725.94,-134.4 1726.2,-123.8 1719.54,-125.96"/>
</g>
<!-- Node29&#45;&gt;Node27 -->
<g id="edge40" class="edge">
<title>Node29&#45;&gt;Node27</title>
<path fill="none" stroke="midnightblue" d="M1350.28,-258.4C1349.44,-249.37 1348.52,-239.41 1347.8,-231.58"/>
<polygon fill="midnightblue" stroke="midnightblue" points="1346.79,-258.76 1351.2,-268.4 1353.76,-258.12 1346.79,-258.76"/>
</g>
<!-- Node29&#45;&gt;Node28 -->
<g id="edge41" class="edge">
<title>Node29&#45;&gt;Node28</title>
<path fill="none" stroke="midnightblue" d="M1396.98,-264.54C1422.74,-254.14 1454.7,-241.24 1478.63,-231.58"/>
<polygon fill="midnightblue" stroke="midnightblue" points="1395.4,-261.41 1387.43,-268.4 1398.02,-267.9 1395.4,-261.41"/>
</g>
</g>
</svg>
        <g id="navigator" transform="translate(0 0)" fill="#404254">
                <rect fill="#f2f5e9" fill-opacity="0.5" stroke="#606060" stroke-width=".5" x="0" y="0" width="60" height="60"/>
                <use id="zoomplus" xlink:href="#zoomPlus" x="17" y="9" onmousedown="handleZoom(evt,'in')"/>
                <use id="zoomminus" xlink:href="#zoomMin" x="42" y="9" onmousedown="handleZoom(evt,'out')"/>
                <use id="reset" xlink:href="#resetDef" x="30" y="36" onmousedown="handleReset()"/>
                <g id="arrowUp" xlink:href="#dirArrow" transform="translate(30 24)" onmousedown="handlePan(0,-1)">
                  <use xlink:href="#rim" fill="#404040">
                        <set attributeName="fill" to="#808080" begin="arrowUp.mouseover" end="arrowUp.mouseout"/>
                  </use>
                  <path fill="none" stroke="white" stroke-width="1.5" d="M0,-3.0v7 M-2.5,-0.5L0,-3.0L2.5,-0.5"/>
                </g>
                <g id="arrowRight" xlink:href="#dirArrow" transform="rotate(90) translate(36 -43)" onmousedown="handlePan(1,0)">
                  <use xlink:href="#rim" fill="#404040">
                        <set attributeName="fill" to="#808080" begin="arrowRight.mouseover" end="arrowRight.mouseout"/>
                  </use>
                  <path fill="none" stroke="white" stroke-width="1.5" d="M0,-3.0v7 M-2.5,-0.5L0,-3.0L2.5,-0.5"/>
                </g>
                <g id="arrowDown" xlink:href="#dirArrow" transform="rotate(180) translate(-30 -48)" onmousedown="handlePan(0,1)">
                  <use xlink:href="#rim" fill="#404040">
                        <set attributeName="fill" to="#808080" begin="arrowDown.mouseover" end="arrowDown.mouseout"/>
                  </use>
                  <path fill="none" stroke="white" stroke-width="1.5" d="M0,-3.0v7 M-2.5,-0.5L0,-3.0L2.5,-0.5"/>
                </g>
                <g id="arrowLeft" xlink:href="#dirArrow" transform="rotate(270) translate(-36 17)" onmousedown="handlePan(-1,0)">
                  <use xlink:href="#rim" fill="#404040">
                        <set attributeName="fill" to="#808080" begin="arrowLeft.mouseover" end="arrowLeft.mouseout"/>
                  </use>
                  <path fill="none" stroke="white" stroke-width="1.5" d="M0,-3.0v7 M-2.5,-0.5L0,-3.0L2.5,-0.5"/>
                </g>
        </g>
        <svg viewBox="0 0 15 15" width="100%" height="30px" preserveAspectRatio="xMaxYMin meet">
         <g id="arrow_out" transform="scale(0.3 0.3)">
          <a xlink:href="_transform2_d_8h__dep__incl_org.svg" target="_base">
           <rect id="button" ry="5" rx="5" y="6" x="6" height="38" width="38"
                fill="#f2f5e9" fill-opacity="0.5" stroke="#606060" stroke-width="1.0"/>
           <path id="arrow"
             d="M 11.500037,31.436501 C 11.940474,20.09759 22.043105,11.32322 32.158766,21.979434 L 37.068811,17.246167 C 37.068811,17.246167 37.088388,32 37.088388,32 L 22.160133,31.978069 C 22.160133,31.978069 26.997745,27.140456 26.997745,27.140456 C 18.528582,18.264221 13.291696,25.230495 11.500037,31.436501 z"
             style="fill:#404040;"/>
          </a>
         </g>
        </svg>
</svg>
