<?xml version="1.0" encoding="UTF-8" standalone="no"?>
<!DOCTYPE svg PUBLIC "-//W3C//DTD SVG 1.1//EN"
 "http://www.w3.org/Graphics/SVG/1.1/DTD/svg11.dtd">
<!-- Generated by graphviz version 2.49.3 (20211027.1534)
 -->
<!-- Title: RayLib_SHMUP/include/Shmup/Movable/Enemy.h Pages: 1 -->
<svg width="851pt" height="285pt"
 viewBox="0.00 0.00 850.56 285.00" xmlns="http://www.w3.org/2000/svg" xmlns:xlink="http://www.w3.org/1999/xlink">
<g id="graph0" class="graph" transform="scale(1 1) rotate(0) translate(4 281)">
<title>RayLib_SHMUP/include/Shmup/Movable/Enemy.h</title>
<polygon fill="white" stroke="transparent" points="-4,4 -4,-281 846.56,-281 846.56,4 -4,4"/>
<!-- Node1 -->
<g id="node1" class="node">
<title>Node1</title>
<g id="a_node1"><a xlink:title=" ">
<polygon fill="#bfbfbf" stroke="black" points="515.56,-246.5 515.56,-276.5 645.56,-276.5 645.56,-246.5 515.56,-246.5"/>
<text text-anchor="start" x="523.56" y="-264.5" font-family="Helvetica,sans-Serif" font-size="10.00">RayLib_SHMUP/include</text>
<text text-anchor="middle" x="580.56" y="-253.5" font-family="Helvetica,sans-Serif" font-size="10.00">/Shmup/Movable/Enemy.h</text>
</a>
</g>
</g>
<!-- Node2 -->
<g id="node2" class="node">
<title>Node2</title>
<g id="a_node2"><a xlink:title=" ">
<polygon fill="white" stroke="#bfbfbf" points="637.56,-0.5 637.56,-19.5 691.56,-19.5 691.56,-0.5 637.56,-0.5"/>
<text text-anchor="middle" x="664.56" y="-7.5" font-family="Helvetica,sans-Serif" font-size="10.00">iostream</text>
</a>
</g>
</g>
<!-- Node1&#45;&gt;Node2 -->
<g id="edge1" class="edge">
<title>Node1&#45;&gt;Node2</title>
<path fill="none" stroke="midnightblue" d="M604.17,-246.31C644.05,-220.61 722.44,-161.99 743.56,-87 747.3,-73.74 750.48,-67.91 743.56,-56 734.36,-40.18 717.29,-29.46 701.37,-22.46"/>
<polygon fill="midnightblue" stroke="midnightblue" points="702.27,-19.05 691.68,-18.58 699.66,-25.55 702.27,-19.05"/>
</g>
<!-- Node3 -->
<g id="node3" class="node">
<title>Node3</title>
<g id="a_node3"><a xlink:title=" ">
<polygon fill="white" stroke="#bfbfbf" points="790.56,-190.5 790.56,-209.5 842.56,-209.5 842.56,-190.5 790.56,-190.5"/>
<text text-anchor="middle" x="816.56" y="-197.5" font-family="Helvetica,sans-Serif" font-size="10.00">sstream</text>
</a>
</g>
</g>
<!-- Node1&#45;&gt;Node3 -->
<g id="edge2" class="edge">
<title>Node1&#45;&gt;Node3</title>
<path fill="none" stroke="midnightblue" d="M636.19,-246.47C680.85,-235.22 742.23,-219.74 780.64,-210.06"/>
<polygon fill="midnightblue" stroke="midnightblue" points="781.51,-213.45 790.35,-207.61 779.8,-206.66 781.51,-213.45"/>
</g>
<!-- Node4 -->
<g id="node4" class="node">
<title>Node4</title>
<g id="a_node4"><a xlink:href="../../db/d1b/_a_movable_8h.html" target="_top" xlink:title=" ">
<polygon fill="white" stroke="black" points="27.06,-190.5 27.06,-209.5 128.06,-209.5 128.06,-190.5 27.06,-190.5"/>
<text text-anchor="middle" x="77.56" y="-197.5" font-family="Helvetica,sans-Serif" font-size="10.00">Shmup/AMovable.h</text>
</a>
</g>
</g>
<!-- Node1&#45;&gt;Node4 -->
<g id="edge3" class="edge">
<title>Node1&#45;&gt;Node4</title>
<path fill="none" stroke="midnightblue" d="M515.32,-252.78C417.34,-241.19 233.58,-219.46 138.31,-208.19"/>
<polygon fill="midnightblue" stroke="midnightblue" points="138.6,-204.7 128.25,-207 137.77,-211.65 138.6,-204.7"/>
</g>
<!-- Node10 -->
<g id="node10" class="node">
<title>Node10</title>
<g id="a_node10"><a xlink:href="../../d1/d98/_sequence_move_patern_8h.html" target="_top" xlink:title=" ">
<polygon fill="white" stroke="black" points="570.06,-123.5 570.06,-153.5 693.06,-153.5 693.06,-123.5 570.06,-123.5"/>
<text text-anchor="start" x="578.06" y="-141.5" font-family="Helvetica,sans-Serif" font-size="10.00">Shmup/Paterns/Enemy</text>
<text text-anchor="middle" x="631.56" y="-130.5" font-family="Helvetica,sans-Serif" font-size="10.00">/SequenceMovePatern.h</text>
</a>
</g>
</g>
<!-- Node1&#45;&gt;Node10 -->
<g id="edge12" class="edge">
<title>Node1&#45;&gt;Node10</title>
<path fill="none" stroke="midnightblue" d="M591.32,-246.13C598.2,-236.37 606.88,-222.92 612.56,-210 619.1,-195.11 623.86,-177.44 626.98,-163.51"/>
<polygon fill="midnightblue" stroke="midnightblue" points="630.41,-164.21 629.04,-153.7 623.56,-162.76 630.41,-164.21"/>
</g>
<!-- Node14 -->
<g id="node14" class="node">
<title>Node14</title>
<g id="a_node14"><a xlink:href="../../d5/d36/_collider_8h.html" target="_top" xlink:title=" ">
<polygon fill="white" stroke="black" points="342.56,-129 342.56,-148 472.56,-148 472.56,-129 342.56,-129"/>
<text text-anchor="middle" x="407.56" y="-136" font-family="Helvetica,sans-Serif" font-size="10.00">Shmup/Collision/Collider.h</text>
</a>
</g>
</g>
<!-- Node1&#45;&gt;Node14 -->
<g id="edge19" class="edge">
<title>Node1&#45;&gt;Node14</title>
<path fill="none" stroke="midnightblue" d="M519.12,-246.49C495.15,-238.73 468.65,-227.09 448.56,-210 432.08,-195.99 420.67,-173.6 414.15,-157.82"/>
<polygon fill="midnightblue" stroke="midnightblue" points="417.28,-156.2 410.41,-148.13 410.74,-158.72 417.28,-156.2"/>
</g>
<!-- Node16 -->
<g id="node16" class="node">
<title>Node16</title>
<g id="a_node16"><a xlink:href="../../d3/d72/_a_collidable_8h.html" target="_top" xlink:title=" ">
<polygon fill="white" stroke="black" points="457.56,-190.5 457.56,-209.5 603.56,-209.5 603.56,-190.5 457.56,-190.5"/>
<text text-anchor="middle" x="530.56" y="-197.5" font-family="Helvetica,sans-Serif" font-size="10.00">Shmup/Collision/ACollidable.h</text>
</a>
</g>
</g>
<!-- Node1&#45;&gt;Node16 -->
<g id="edge24" class="edge">
<title>Node1&#45;&gt;Node16</title>
<path fill="none" stroke="midnightblue" d="M568.71,-246.4C561.44,-237.75 552.11,-226.64 544.49,-217.58"/>
<polygon fill="midnightblue" stroke="midnightblue" points="546.95,-215.06 537.84,-209.66 541.59,-219.57 546.95,-215.06"/>
</g>
<!-- Node5 -->
<g id="node5" class="node">
<title>Node5</title>
<g id="a_node5"><a xlink:title=" ">
<polygon fill="white" stroke="#bfbfbf" points="54.06,-0.5 54.06,-19.5 101.06,-19.5 101.06,-0.5 54.06,-0.5"/>
<text text-anchor="middle" x="77.56" y="-7.5" font-family="Helvetica,sans-Serif" font-size="10.00">raylib.h</text>
</a>
</g>
</g>
<!-- Node4&#45;&gt;Node5 -->
<g id="edge4" class="edge">
<title>Node4&#45;&gt;Node5</title>
<path fill="none" stroke="midnightblue" d="M62.22,-190.46C49.49,-182.59 31.85,-169.77 21.56,-154 4.71,-128.18 7.59,-117.57 3.56,-87 1.76,-73.34 -3.19,-68.01 3.56,-56 12.41,-40.26 29.24,-29.39 44.61,-22.28"/>
<polygon fill="midnightblue" stroke="midnightblue" points="46.08,-25.46 53.91,-18.33 43.34,-19.01 46.08,-25.46"/>
</g>
<!-- Node6 -->
<g id="node6" class="node">
<title>Node6</title>
<g id="a_node6"><a xlink:href="../../d7/daf/_a_graphic_object_8h.html" target="_top" xlink:title=" ">
<polygon fill="white" stroke="black" points="31.06,-129 31.06,-148 124.06,-148 124.06,-129 31.06,-129"/>
<text text-anchor="middle" x="77.56" y="-136" font-family="Helvetica,sans-Serif" font-size="10.00">AGraphicObject.h</text>
</a>
</g>
</g>
<!-- Node4&#45;&gt;Node6 -->
<g id="edge5" class="edge">
<title>Node4&#45;&gt;Node6</title>
<path fill="none" stroke="midnightblue" d="M77.56,-190.48C77.56,-182.08 77.56,-168.98 77.56,-158.16"/>
<polygon fill="midnightblue" stroke="midnightblue" points="81.06,-158.01 77.56,-148.01 74.06,-158.01 81.06,-158.01"/>
</g>
<!-- Node6&#45;&gt;Node5 -->
<g id="edge6" class="edge">
<title>Node6&#45;&gt;Node5</title>
<path fill="none" stroke="midnightblue" d="M58.23,-128.84C42.44,-120.59 21.21,-106.53 11.56,-87 5.46,-74.65 5.12,-68.18 11.56,-56 18.98,-41.95 32.98,-31.47 46.18,-24.17"/>
<polygon fill="midnightblue" stroke="midnightblue" points="47.78,-27.28 55.1,-19.62 44.6,-21.04 47.78,-27.28"/>
</g>
<!-- Node7 -->
<g id="node7" class="node">
<title>Node7</title>
<g id="a_node7"><a xlink:href="../../dc/d80/_instance_list_8h.html" target="_top" xlink:title=" ">
<polygon fill="white" stroke="black" points="486.56,-62 486.56,-81 598.56,-81 598.56,-62 486.56,-62"/>
<text text-anchor="middle" x="542.56" y="-69" font-family="Helvetica,sans-Serif" font-size="10.00">Shmup/InstanceList.h</text>
</a>
</g>
</g>
<!-- Node6&#45;&gt;Node7 -->
<g id="edge7" class="edge">
<title>Node6&#45;&gt;Node7</title>
<path fill="none" stroke="midnightblue" d="M124.27,-133.04C199.14,-125.57 350.51,-109.14 477.56,-87 483.91,-85.89 490.58,-84.58 497.13,-83.2"/>
<polygon fill="midnightblue" stroke="midnightblue" points="498.23,-86.55 507.26,-81.01 496.74,-79.71 498.23,-86.55"/>
</g>
<!-- Node9 -->
<g id="node9" class="node">
<title>Node9</title>
<g id="a_node9"><a xlink:href="../../da/d02/_transform2_d_8h.html" target="_top" xlink:title=" ">
<polygon fill="white" stroke="black" points="20.56,-62 20.56,-81 134.56,-81 134.56,-62 20.56,-62"/>
<text text-anchor="middle" x="77.56" y="-69" font-family="Helvetica,sans-Serif" font-size="10.00">Shmup/Transform2D.h</text>
</a>
</g>
</g>
<!-- Node6&#45;&gt;Node9 -->
<g id="edge10" class="edge">
<title>Node6&#45;&gt;Node9</title>
<path fill="none" stroke="midnightblue" d="M77.56,-128.73C77.56,-119.18 77.56,-103.62 77.56,-91.28"/>
<polygon fill="midnightblue" stroke="midnightblue" points="81.06,-91.13 77.56,-81.13 74.06,-91.13 81.06,-91.13"/>
</g>
<!-- Node7&#45;&gt;Node2 -->
<g id="edge8" class="edge">
<title>Node7&#45;&gt;Node2</title>
<path fill="none" stroke="midnightblue" d="M560.04,-61.98C580.42,-52.03 614.34,-35.49 637.98,-23.96"/>
<polygon fill="midnightblue" stroke="midnightblue" points="639.66,-27.04 647.11,-19.51 636.59,-20.75 639.66,-27.04"/>
</g>
<!-- Node8 -->
<g id="node8" class="node">
<title>Node8</title>
<g id="a_node8"><a xlink:title=" ">
<polygon fill="white" stroke="#bfbfbf" points="520.56,-0.5 520.56,-19.5 564.56,-19.5 564.56,-0.5 520.56,-0.5"/>
<text text-anchor="middle" x="542.56" y="-7.5" font-family="Helvetica,sans-Serif" font-size="10.00">vector</text>
</a>
</g>
</g>
<!-- Node7&#45;&gt;Node8 -->
<g id="edge9" class="edge">
<title>Node7&#45;&gt;Node8</title>
<path fill="none" stroke="midnightblue" d="M542.56,-61.98C542.56,-53.58 542.56,-40.48 542.56,-29.66"/>
<polygon fill="midnightblue" stroke="midnightblue" points="546.06,-29.51 542.56,-19.51 539.06,-29.51 546.06,-29.51"/>
</g>
<!-- Node9&#45;&gt;Node5 -->
<g id="edge11" class="edge">
<title>Node9&#45;&gt;Node5</title>
<path fill="none" stroke="midnightblue" d="M77.56,-61.98C77.56,-53.58 77.56,-40.48 77.56,-29.66"/>
<polygon fill="midnightblue" stroke="midnightblue" points="81.06,-29.51 77.56,-19.51 74.06,-29.51 81.06,-29.51"/>
</g>
<!-- Node10&#45;&gt;Node2 -->
<g id="edge16" class="edge">
<title>Node10&#45;&gt;Node2</title>
<path fill="none" stroke="midnightblue" d="M635.22,-123.48C641.18,-100.62 653,-55.3 659.68,-29.71"/>
<polygon fill="midnightblue" stroke="midnightblue" points="663.13,-30.35 662.27,-19.79 656.36,-28.58 663.13,-30.35"/>
</g>
<!-- Node10&#45;&gt;Node8 -->
<g id="edge18" class="edge">
<title>Node10&#45;&gt;Node8</title>
<path fill="none" stroke="midnightblue" d="M630.27,-123.27C628.08,-105.94 622.33,-76.44 607.56,-56 598.05,-42.84 583.45,-32.24 570.5,-24.63"/>
<polygon fill="midnightblue" stroke="midnightblue" points="571.89,-21.41 561.45,-19.63 568.51,-27.53 571.89,-21.41"/>
</g>
<!-- Node11 -->
<g id="node11" class="node">
<title>Node11</title>
<g id="a_node11"><a xlink:href="../../dc/d8f/_a_offsetable_patern_8h.html" target="_top" xlink:title=" ">
<polygon fill="white" stroke="black" points="190.56,-56.5 190.56,-86.5 328.56,-86.5 328.56,-56.5 190.56,-56.5"/>
<text text-anchor="start" x="198.56" y="-74.5" font-family="Helvetica,sans-Serif" font-size="10.00">Shmup/Paterns/AOffsetable</text>
<text text-anchor="middle" x="259.56" y="-63.5" font-family="Helvetica,sans-Serif" font-size="10.00">Patern.h</text>
</a>
</g>
</g>
<!-- Node10&#45;&gt;Node11 -->
<g id="edge13" class="edge">
<title>Node10&#45;&gt;Node11</title>
<path fill="none" stroke="midnightblue" d="M569.86,-127.15C512.55,-117.49 424.55,-102.5 338.78,-87.21"/>
<polygon fill="midnightblue" stroke="midnightblue" points="339.33,-83.75 328.87,-85.44 338.1,-90.64 339.33,-83.75"/>
</g>
<!-- Node13 -->
<g id="node13" class="node">
<title>Node13</title>
<g id="a_node13"><a xlink:title=" ">
<polygon fill="white" stroke="#bfbfbf" points="693.06,-62 693.06,-81 734.06,-81 734.06,-62 693.06,-62"/>
<text text-anchor="middle" x="713.56" y="-69" font-family="Helvetica,sans-Serif" font-size="10.00">string</text>
</a>
</g>
</g>
<!-- Node10&#45;&gt;Node13 -->
<g id="edge17" class="edge">
<title>Node10&#45;&gt;Node13</title>
<path fill="none" stroke="midnightblue" d="M649.35,-123.4C662.64,-112.86 680.79,-98.48 694.4,-87.69"/>
<polygon fill="midnightblue" stroke="midnightblue" points="696.93,-90.15 702.59,-81.19 692.58,-84.66 696.93,-90.15"/>
</g>
<!-- Node11&#45;&gt;Node5 -->
<g id="edge14" class="edge">
<title>Node11&#45;&gt;Node5</title>
<path fill="none" stroke="midnightblue" d="M216.43,-56.4C184.18,-45.86 140.71,-31.64 111.05,-21.95"/>
<polygon fill="midnightblue" stroke="midnightblue" points="111.77,-18.5 101.18,-18.72 109.59,-25.16 111.77,-18.5"/>
</g>
<!-- Node12 -->
<g id="node12" class="node">
<title>Node12</title>
<g id="a_node12"><a xlink:href="../../df/d50/_a_patern_8h.html" target="_top" xlink:title=" ">
<polygon fill="white" stroke="black" points="230.06,-0.5 230.06,-19.5 289.06,-19.5 289.06,-0.5 230.06,-0.5"/>
<text text-anchor="middle" x="259.56" y="-7.5" font-family="Helvetica,sans-Serif" font-size="10.00">APatern.h</text>
</a>
</g>
</g>
<!-- Node11&#45;&gt;Node12 -->
<g id="edge15" class="edge">
<title>Node11&#45;&gt;Node12</title>
<path fill="none" stroke="midnightblue" d="M259.56,-56.4C259.56,-48.47 259.56,-38.46 259.56,-29.86"/>
<polygon fill="midnightblue" stroke="midnightblue" points="263.06,-29.66 259.56,-19.66 256.06,-29.66 263.06,-29.66"/>
</g>
<!-- Node14&#45;&gt;Node5 -->
<g id="edge20" class="edge">
<title>Node14&#45;&gt;Node5</title>
<path fill="none" stroke="midnightblue" d="M342.09,-131.01C295.48,-124.48 232.37,-111.67 181.56,-87 161.95,-77.48 161.02,-69.04 143.56,-56 129.25,-45.32 112.64,-34 99.66,-25.38"/>
<polygon fill="midnightblue" stroke="midnightblue" points="101.22,-22.22 90.94,-19.64 97.37,-28.06 101.22,-22.22"/>
</g>
<!-- Node14&#45;&gt;Node9 -->
<g id="edge21" class="edge">
<title>Node14&#45;&gt;Node9</title>
<path fill="none" stroke="midnightblue" d="M363.08,-128.95C311.47,-119 223.81,-102.02 148.56,-87 142.33,-85.76 135.79,-84.44 129.3,-83.12"/>
<polygon fill="midnightblue" stroke="midnightblue" points="129.72,-79.64 119.22,-81.07 128.32,-86.5 129.72,-79.64"/>
</g>
<!-- Node15 -->
<g id="node15" class="node">
<title>Node15</title>
<g id="a_node15"><a xlink:href="../../de/d60/_collider_settings_8h.html" target="_top" xlink:title=" ">
<polygon fill="white" stroke="black" points="346.56,-56.5 346.56,-86.5 468.56,-86.5 468.56,-56.5 346.56,-56.5"/>
<text text-anchor="start" x="354.56" y="-74.5" font-family="Helvetica,sans-Serif" font-size="10.00">Shmup/Collision/Collider</text>
<text text-anchor="middle" x="407.56" y="-63.5" font-family="Helvetica,sans-Serif" font-size="10.00">Settings.h</text>
</a>
</g>
</g>
<!-- Node14&#45;&gt;Node15 -->
<g id="edge22" class="edge">
<title>Node14&#45;&gt;Node15</title>
<path fill="none" stroke="midnightblue" d="M407.56,-128.73C407.56,-120.54 407.56,-107.92 407.56,-96.71"/>
<polygon fill="midnightblue" stroke="midnightblue" points="411.06,-96.59 407.56,-86.59 404.06,-96.59 411.06,-96.59"/>
</g>
<!-- Node15&#45;&gt;Node8 -->
<g id="edge23" class="edge">
<title>Node15&#45;&gt;Node8</title>
<path fill="none" stroke="midnightblue" d="M439.55,-56.4C462,-46.51 491.77,-33.38 513.54,-23.79"/>
<polygon fill="midnightblue" stroke="midnightblue" points="515.18,-26.89 522.92,-19.66 512.35,-20.49 515.18,-26.89"/>
</g>
<!-- Node16&#45;&gt;Node7 -->
<g id="edge26" class="edge">
<title>Node16&#45;&gt;Node7</title>
<path fill="none" stroke="midnightblue" d="M531.38,-190.31C533.31,-169.99 538.14,-119.05 540.78,-91.28"/>
<polygon fill="midnightblue" stroke="midnightblue" points="544.27,-91.54 541.73,-81.26 537.3,-90.88 544.27,-91.54"/>
</g>
<!-- Node16&#45;&gt;Node14 -->
<g id="edge25" class="edge">
<title>Node16&#45;&gt;Node14</title>
<path fill="none" stroke="midnightblue" d="M512.94,-190.48C492.39,-180.53 458.2,-163.99 434.35,-152.46"/>
<polygon fill="midnightblue" stroke="midnightblue" points="435.68,-149.21 425.15,-148.01 432.63,-155.51 435.68,-149.21"/>
</g>
</g>
</svg>
