<?xml version="1.0" encoding="UTF-8" standalone="no"?>
<!DOCTYPE svg PUBLIC "-//W3C//DTD SVG 1.1//EN"
 "http://www.w3.org/Graphics/SVG/1.1/DTD/svg11.dtd">
<!-- Generated by graphviz version 2.49.3 (20211027.1534)
 -->
<!-- Title: RayLib_SHMUP/include/Shmup/Movable/Enemy.h Pages: 1 -->
<!--zoomable 285 -->
<svg id="main" version="1.1" xmlns="http://www.w3.org/2000/svg" xmlns:xlink="http://www.w3.org/1999/xlink" xml:space="preserve" onload="init(evt)">
<style type="text/css"><![CDATA[
.edge:hover path { stroke: red; }
.edge:hover polygon { stroke: red; fill: red; }
]]></style>
<script type="text/javascript"><![CDATA[
var edges = document.getElementsByTagName('g');
if (edges && edges.length) {
  for (var i=0;i<edges.length;i++) {
    if (edges[i].id.substr(0,4)=='edge') {
      edges[i].setAttribute('class','edge');
    }
  }
}
]]></script>
        <defs>
                <circle id="rim" cx="0" cy="0" r="7"/>
                <circle id="rim2" cx="0" cy="0" r="3.5"/>
                <g id="zoomPlus">
                        <use xlink:href="#rim" fill="#404040">
                                <set attributeName="fill" to="#808080" begin="zoomplus.mouseover" end="zoomplus.mouseout"/>
                        </use>
                        <path d="M-4,0h8M0,-4v8" fill="none" stroke="white" stroke-width="1.5" pointer-events="none"/>
                </g>
                <g id="zoomMin">
                        <use xlink:href="#rim" fill="#404040">
                                <set attributeName="fill" to="#808080" begin="zoomminus.mouseover" end="zoomminus.mouseout"/>
                        </use>
                        <path d="M-4,0h8" fill="none" stroke="white" stroke-width="1.5" pointer-events="none"/>
                </g>
                <g id="dirArrow">
                        <path fill="none" stroke="white" stroke-width="1.5" d="M0,-3.0v7 M-2.5,-0.5L0,-3.0L2.5,-0.5"/>
                </g>
               <g id="resetDef">
                       <use xlink:href="#rim2" fill="#404040">
                               <set attributeName="fill" to="#808080" begin="reset.mouseover" end="reset.mouseout"/>
                       </use>
               </g>
        </defs>

<script type="text/javascript">
var viewWidth = 855;
var viewHeight = 285;
var sectionId = 'dynsection-0';
</script>
<script xlink:href="../../svgpan.js"/>
<svg id="graph" class="graph">
<g id="viewport">
<title>RayLib_SHMUP/include/Shmup/Movable/Enemy.h</title>
<polygon fill="white" stroke="transparent" points="-4,4 -4,-281 850.78,-281 850.78,4 -4,4"/>
<!-- Node1 -->
<g id="node1" class="node">
<title>Node1</title>
<g id="a_node1"><a xlink:title=" ">
<polygon fill="#bfbfbf" stroke="black" points="249.28,-246.5 249.28,-276.5 379.28,-276.5 379.28,-246.5 249.28,-246.5"/>
<text text-anchor="start" x="257.28" y="-264.5" font-family="Helvetica,sans-Serif" font-size="10.00">RayLib_SHMUP/include</text>
<text text-anchor="middle" x="314.28" y="-253.5" font-family="Helvetica,sans-Serif" font-size="10.00">/Shmup/Movable/Enemy.h</text>
</a>
</g>
</g>
<!-- Node2 -->
<g id="node2" class="node">
<title>Node2</title>
<g id="a_node2"><a xlink:title=" ">
<polygon fill="white" stroke="#bfbfbf" points="84.28,-0.5 84.28,-19.5 138.28,-19.5 138.28,-0.5 84.28,-0.5"/>
<text text-anchor="middle" x="111.28" y="-7.5" font-family="Helvetica,sans-Serif" font-size="10.00">iostream</text>
</a>
</g>
</g>
<!-- Node1&#45;&gt;Node2 -->
<g id="edge1" class="edge">
<title>Node1&#45;&gt;Node2</title>
<path fill="none" stroke="midnightblue" d="M249.17,-255.44C181.09,-248.89 80.2,-235.2 51.28,-210 -1.36,-164.14 -16.56,-115.31 20.28,-56 32.13,-36.92 54.74,-25.68 74.45,-19.21"/>
<polygon fill="midnightblue" stroke="midnightblue" points="75.55,-22.53 84.13,-16.32 73.55,-15.83 75.55,-22.53"/>
</g>
<!-- Node3 -->
<g id="node3" class="node">
<title>Node3</title>
<g id="a_node3"><a xlink:title=" ">
<polygon fill="white" stroke="#bfbfbf" points="431.28,-190.5 431.28,-209.5 483.28,-209.5 483.28,-190.5 431.28,-190.5"/>
<text text-anchor="middle" x="457.28" y="-197.5" font-family="Helvetica,sans-Serif" font-size="10.00">sstream</text>
</a>
</g>
</g>
<!-- Node1&#45;&gt;Node3 -->
<g id="edge2" class="edge">
<title>Node1&#45;&gt;Node3</title>
<path fill="none" stroke="midnightblue" d="M348.16,-246.4C372.16,-236.42 404.05,-223.15 427.15,-213.53"/>
<polygon fill="midnightblue" stroke="midnightblue" points="428.58,-216.73 436.47,-209.66 425.89,-210.27 428.58,-216.73"/>
</g>
<!-- Node4 -->
<g id="node4" class="node">
<title>Node4</title>
<g id="a_node4"><a xlink:href="../../db/d1b/_a_movable_8h.html" target="_top" xlink:title=" ">
<polygon fill="white" stroke="black" points="60.78,-190.5 60.78,-209.5 161.78,-209.5 161.78,-190.5 60.78,-190.5"/>
<text text-anchor="middle" x="111.28" y="-197.5" font-family="Helvetica,sans-Serif" font-size="10.00">Shmup/AMovable.h</text>
</a>
</g>
</g>
<!-- Node1&#45;&gt;Node4 -->
<g id="edge3" class="edge">
<title>Node1&#45;&gt;Node4</title>
<path fill="none" stroke="midnightblue" d="M266.42,-246.47C230.94,-236.08 183.19,-222.08 150.08,-212.37"/>
<polygon fill="midnightblue" stroke="midnightblue" points="150.88,-208.96 140.3,-209.51 148.91,-215.68 150.88,-208.96"/>
</g>
<!-- Node10 -->
<g id="node10" class="node">
<title>Node10</title>
<g id="a_node10"><a xlink:href="../../d1/d98/_sequence_move_patern_8h.html" target="_top" xlink:title=" ">
<polygon fill="white" stroke="black" points="314.78,-123.5 314.78,-153.5 437.78,-153.5 437.78,-123.5 314.78,-123.5"/>
<text text-anchor="start" x="322.78" y="-141.5" font-family="Helvetica,sans-Serif" font-size="10.00">Shmup/Paterns/Enemy</text>
<text text-anchor="middle" x="376.28" y="-130.5" font-family="Helvetica,sans-Serif" font-size="10.00">/SequenceMovePatern.h</text>
</a>
</g>
</g>
<!-- Node1&#45;&gt;Node10 -->
<g id="edge12" class="edge">
<title>Node1&#45;&gt;Node10</title>
<path fill="none" stroke="midnightblue" d="M324.16,-246.29C330.84,-236.37 339.62,-222.68 346.28,-210 354.29,-194.74 361.87,-176.87 367.41,-162.94"/>
<polygon fill="midnightblue" stroke="midnightblue" points="370.69,-164.18 371.06,-153.59 364.17,-161.63 370.69,-164.18"/>
</g>
<!-- Node14 -->
<g id="node14" class="node">
<title>Node14</title>
<g id="a_node14"><a xlink:href="../../d5/d36/_collider_8h.html" target="_top" xlink:title=" ">
<polygon fill="white" stroke="black" points="486.28,-129 486.28,-148 616.28,-148 616.28,-129 486.28,-129"/>
<text text-anchor="middle" x="551.28" y="-136" font-family="Helvetica,sans-Serif" font-size="10.00">Shmup/Collision/Collider.h</text>
</a>
</g>
</g>
<!-- Node1&#45;&gt;Node14 -->
<g id="edge19" class="edge">
<title>Node1&#45;&gt;Node14</title>
<path fill="none" stroke="midnightblue" d="M333.45,-246.25C354.49,-231.02 389.63,-206.82 422.28,-190 452.61,-174.37 488.94,-160.56 515.31,-151.34"/>
<polygon fill="midnightblue" stroke="midnightblue" points="516.58,-154.61 524.89,-148.04 514.3,-147.99 516.58,-154.61"/>
</g>
<!-- Node17 -->
<g id="node17" class="node">
<title>Node17</title>
<g id="a_node17"><a xlink:href="../../d3/d72/_a_collidable_8h.html" target="_top" xlink:title=" ">
<polygon fill="white" stroke="black" points="191.28,-190.5 191.28,-209.5 337.28,-209.5 337.28,-190.5 191.28,-190.5"/>
<text text-anchor="middle" x="264.28" y="-197.5" font-family="Helvetica,sans-Serif" font-size="10.00">Shmup/Collision/ACollidable.h</text>
</a>
</g>
</g>
<!-- Node1&#45;&gt;Node17 -->
<g id="edge25" class="edge">
<title>Node1&#45;&gt;Node17</title>
<path fill="none" stroke="midnightblue" d="M302.43,-246.4C295.16,-237.75 285.82,-226.64 278.21,-217.58"/>
<polygon fill="midnightblue" stroke="midnightblue" points="280.66,-215.06 271.55,-209.66 275.31,-219.57 280.66,-215.06"/>
</g>
<!-- Node5 -->
<g id="node5" class="node">
<title>Node5</title>
<g id="a_node5"><a xlink:title=" ">
<polygon fill="white" stroke="#bfbfbf" points="256.78,-0.5 256.78,-19.5 303.78,-19.5 303.78,-0.5 256.78,-0.5"/>
<text text-anchor="middle" x="280.28" y="-7.5" font-family="Helvetica,sans-Serif" font-size="10.00">raylib.h</text>
</a>
</g>
</g>
<!-- Node4&#45;&gt;Node5 -->
<g id="edge4" class="edge">
<title>Node4&#45;&gt;Node5</title>
<path fill="none" stroke="midnightblue" d="M95.94,-190.46C83.2,-182.59 65.57,-169.77 55.28,-154 31.07,-116.91 8.96,-90.05 37.28,-56 63.48,-24.49 185.89,-14.95 246.33,-12.14"/>
<polygon fill="midnightblue" stroke="midnightblue" points="246.67,-15.62 256.51,-11.7 246.37,-8.63 246.67,-15.62"/>
</g>
<!-- Node6 -->
<g id="node6" class="node">
<title>Node6</title>
<g id="a_node6"><a xlink:href="../../d7/daf/_a_graphic_object_8h.html" target="_top" xlink:title=" ">
<polygon fill="white" stroke="black" points="64.78,-129 64.78,-148 157.78,-148 157.78,-129 64.78,-129"/>
<text text-anchor="middle" x="111.28" y="-136" font-family="Helvetica,sans-Serif" font-size="10.00">AGraphicObject.h</text>
</a>
</g>
</g>
<!-- Node4&#45;&gt;Node6 -->
<g id="edge5" class="edge">
<title>Node4&#45;&gt;Node6</title>
<path fill="none" stroke="midnightblue" d="M111.28,-190.48C111.28,-182.08 111.28,-168.98 111.28,-158.16"/>
<polygon fill="midnightblue" stroke="midnightblue" points="114.78,-158.01 111.28,-148.01 107.78,-158.01 114.78,-158.01"/>
</g>
<!-- Node6&#45;&gt;Node5 -->
<g id="edge6" class="edge">
<title>Node6&#45;&gt;Node5</title>
<path fill="none" stroke="midnightblue" d="M95.37,-128.86C69.82,-113.89 24.61,-82.23 46.28,-56 71.26,-25.75 187.7,-15.62 246.34,-12.4"/>
<polygon fill="midnightblue" stroke="midnightblue" points="246.78,-15.89 256.58,-11.88 246.42,-8.9 246.78,-15.89"/>
</g>
<!-- Node7 -->
<g id="node7" class="node">
<title>Node7</title>
<g id="a_node7"><a xlink:href="../../dc/d80/_instance_list_8h.html" target="_top" xlink:title=" ">
<polygon fill="white" stroke="black" points="55.28,-62 55.28,-81 167.28,-81 167.28,-62 55.28,-62"/>
<text text-anchor="middle" x="111.28" y="-69" font-family="Helvetica,sans-Serif" font-size="10.00">Shmup/InstanceList.h</text>
</a>
</g>
</g>
<!-- Node6&#45;&gt;Node7 -->
<g id="edge7" class="edge">
<title>Node6&#45;&gt;Node7</title>
<path fill="none" stroke="midnightblue" d="M111.28,-128.73C111.28,-119.18 111.28,-103.62 111.28,-91.28"/>
<polygon fill="midnightblue" stroke="midnightblue" points="114.78,-91.13 111.28,-81.13 107.78,-91.13 114.78,-91.13"/>
</g>
<!-- Node9 -->
<g id="node9" class="node">
<title>Node9</title>
<g id="a_node9"><a xlink:href="../../da/d02/_transform2_d_8h.html" target="_top" xlink:title=" ">
<polygon fill="white" stroke="black" points="223.28,-62 223.28,-81 337.28,-81 337.28,-62 223.28,-62"/>
<text text-anchor="middle" x="280.28" y="-69" font-family="Helvetica,sans-Serif" font-size="10.00">Shmup/Transform2D.h</text>
</a>
</g>
</g>
<!-- Node6&#45;&gt;Node9 -->
<g id="edge10" class="edge">
<title>Node6&#45;&gt;Node9</title>
<path fill="none" stroke="midnightblue" d="M133.72,-128.87C163.09,-117.57 214.77,-97.7 248.25,-84.82"/>
<polygon fill="midnightblue" stroke="midnightblue" points="249.93,-87.92 258.01,-81.06 247.42,-81.39 249.93,-87.92"/>
</g>
<!-- Node7&#45;&gt;Node2 -->
<g id="edge8" class="edge">
<title>Node7&#45;&gt;Node2</title>
<path fill="none" stroke="midnightblue" d="M111.28,-61.98C111.28,-53.58 111.28,-40.48 111.28,-29.66"/>
<polygon fill="midnightblue" stroke="midnightblue" points="114.78,-29.51 111.28,-19.51 107.78,-29.51 114.78,-29.51"/>
</g>
<!-- Node8 -->
<g id="node8" class="node">
<title>Node8</title>
<g id="a_node8"><a xlink:title=" ">
<polygon fill="white" stroke="#bfbfbf" points="597.28,-0.5 597.28,-19.5 641.28,-19.5 641.28,-0.5 597.28,-0.5"/>
<text text-anchor="middle" x="619.28" y="-7.5" font-family="Helvetica,sans-Serif" font-size="10.00">vector</text>
</a>
</g>
</g>
<!-- Node7&#45;&gt;Node8 -->
<g id="edge9" class="edge">
<title>Node7&#45;&gt;Node8</title>
<path fill="none" stroke="midnightblue" d="M167.37,-62.3C182.58,-60.16 199.05,-57.92 214.28,-56 352.53,-38.59 517.78,-21.33 586.65,-14.3"/>
<polygon fill="midnightblue" stroke="midnightblue" points="587.26,-17.75 596.86,-13.26 586.55,-10.79 587.26,-17.75"/>
</g>
<!-- Node9&#45;&gt;Node5 -->
<g id="edge11" class="edge">
<title>Node9&#45;&gt;Node5</title>
<path fill="none" stroke="midnightblue" d="M280.28,-61.98C280.28,-53.58 280.28,-40.48 280.28,-29.66"/>
<polygon fill="midnightblue" stroke="midnightblue" points="283.78,-29.51 280.28,-19.51 276.78,-29.51 283.78,-29.51"/>
</g>
<!-- Node10&#45;&gt;Node2 -->
<g id="edge16" class="edge">
<title>Node10&#45;&gt;Node2</title>
<path fill="none" stroke="midnightblue" d="M314.44,-124.16C283.27,-115.98 245.54,-103.81 214.28,-87 195.08,-76.68 193.69,-69.1 176.28,-56 162.15,-45.38 145.8,-34.06 133.02,-25.43"/>
<polygon fill="midnightblue" stroke="midnightblue" points="134.69,-22.33 124.44,-19.67 130.79,-28.15 134.69,-22.33"/>
</g>
<!-- Node10&#45;&gt;Node8 -->
<g id="edge18" class="edge">
<title>Node10&#45;&gt;Node8</title>
<path fill="none" stroke="midnightblue" d="M437.89,-131.11C476.32,-124.74 525.31,-112.08 562.28,-87 584.18,-72.14 601.02,-46.04 610.54,-28.63"/>
<polygon fill="midnightblue" stroke="midnightblue" points="613.76,-30.03 615.28,-19.54 607.56,-26.79 613.76,-30.03"/>
</g>
<!-- Node11 -->
<g id="node11" class="node">
<title>Node11</title>
<g id="a_node11"><a xlink:href="../../dc/d8f/_a_offsetable_patern_8h.html" target="_top" xlink:title=" ">
<polygon fill="white" stroke="black" points="415.28,-56.5 415.28,-86.5 553.28,-86.5 553.28,-56.5 415.28,-56.5"/>
<text text-anchor="start" x="423.28" y="-74.5" font-family="Helvetica,sans-Serif" font-size="10.00">Shmup/Paterns/AOffsetable</text>
<text text-anchor="middle" x="484.28" y="-63.5" font-family="Helvetica,sans-Serif" font-size="10.00">Patern.h</text>
</a>
</g>
</g>
<!-- Node10&#45;&gt;Node11 -->
<g id="edge13" class="edge">
<title>Node10&#45;&gt;Node11</title>
<path fill="none" stroke="midnightblue" d="M399.71,-123.4C415,-114.2 435.15,-102.07 451.95,-91.95"/>
<polygon fill="midnightblue" stroke="midnightblue" points="454.12,-94.73 460.89,-86.58 450.51,-88.73 454.12,-94.73"/>
</g>
<!-- Node13 -->
<g id="node13" class="node">
<title>Node13</title>
<g id="a_node13"><a xlink:title=" ">
<polygon fill="white" stroke="#bfbfbf" points="355.78,-62 355.78,-81 396.78,-81 396.78,-62 355.78,-62"/>
<text text-anchor="middle" x="376.28" y="-69" font-family="Helvetica,sans-Serif" font-size="10.00">string</text>
</a>
</g>
</g>
<!-- Node10&#45;&gt;Node13 -->
<g id="edge17" class="edge">
<title>Node10&#45;&gt;Node13</title>
<path fill="none" stroke="midnightblue" d="M376.28,-123.4C376.28,-114.06 376.28,-101.71 376.28,-91.52"/>
<polygon fill="midnightblue" stroke="midnightblue" points="379.78,-91.19 376.28,-81.19 372.78,-91.19 379.78,-91.19"/>
</g>
<!-- Node11&#45;&gt;Node5 -->
<g id="edge14" class="edge">
<title>Node11&#45;&gt;Node5</title>
<path fill="none" stroke="midnightblue" d="M436.19,-56.47C398.51,-45.48 347.04,-30.47 313.73,-20.76"/>
<polygon fill="midnightblue" stroke="midnightblue" points="314.6,-17.36 304.02,-17.92 312.64,-24.08 314.6,-17.36"/>
</g>
<!-- Node12 -->
<g id="node12" class="node">
<title>Node12</title>
<g id="a_node12"><a xlink:href="../../df/d50/_a_patern_8h.html" target="_top" xlink:title=" ">
<polygon fill="white" stroke="black" points="454.78,-0.5 454.78,-19.5 513.78,-19.5 513.78,-0.5 454.78,-0.5"/>
<text text-anchor="middle" x="484.28" y="-7.5" font-family="Helvetica,sans-Serif" font-size="10.00">APatern.h</text>
</a>
</g>
</g>
<!-- Node11&#45;&gt;Node12 -->
<g id="edge15" class="edge">
<title>Node11&#45;&gt;Node12</title>
<path fill="none" stroke="midnightblue" d="M484.28,-56.4C484.28,-48.47 484.28,-38.46 484.28,-29.86"/>
<polygon fill="midnightblue" stroke="midnightblue" points="487.78,-29.66 484.28,-19.66 480.78,-29.66 487.78,-29.66"/>
</g>
<!-- Node14&#45;&gt;Node5 -->
<g id="edge20" class="edge">
<title>Node14&#45;&gt;Node5</title>
<path fill="none" stroke="midnightblue" d="M556.33,-128.68C564.98,-112.27 580.07,-76.86 562.28,-56 546.32,-37.3 385.85,-20.57 314.34,-13.98"/>
<polygon fill="midnightblue" stroke="midnightblue" points="314.34,-10.46 304.07,-13.04 313.71,-17.43 314.34,-10.46"/>
</g>
<!-- Node14&#45;&gt;Node9 -->
<g id="edge22" class="edge">
<title>Node14&#45;&gt;Node9</title>
<path fill="none" stroke="midnightblue" d="M515.57,-128.94C466.82,-117.24 379.42,-96.28 325.96,-83.46"/>
<polygon fill="midnightblue" stroke="midnightblue" points="326.6,-80.01 316.06,-81.08 324.97,-86.82 326.6,-80.01"/>
</g>
<!-- Node15 -->
<g id="node15" class="node">
<title>Node15</title>
<g id="a_node15"><a xlink:title=" ">
<polygon fill="white" stroke="#bfbfbf" points="787.78,-62 787.78,-81 846.78,-81 846.78,-62 787.78,-62"/>
<text text-anchor="middle" x="817.28" y="-69" font-family="Helvetica,sans-Serif" font-size="10.00">raymath.h</text>
</a>
</g>
</g>
<!-- Node14&#45;&gt;Node15 -->
<g id="edge21" class="edge">
<title>Node14&#45;&gt;Node15</title>
<path fill="none" stroke="midnightblue" d="M598.27,-129C644.52,-120.18 716.91,-105.14 778.28,-87 780.91,-86.22 783.63,-85.35 786.34,-84.44"/>
<polygon fill="midnightblue" stroke="midnightblue" points="787.74,-87.65 796,-81.01 785.4,-81.06 787.74,-87.65"/>
</g>
<!-- Node16 -->
<g id="node16" class="node">
<title>Node16</title>
<g id="a_node16"><a xlink:href="../../de/d60/_collider_settings_8h.html" target="_top" xlink:title=" ">
<polygon fill="white" stroke="black" points="647.28,-56.5 647.28,-86.5 769.28,-86.5 769.28,-56.5 647.28,-56.5"/>
<text text-anchor="start" x="655.28" y="-74.5" font-family="Helvetica,sans-Serif" font-size="10.00">Shmup/Collision/Collider</text>
<text text-anchor="middle" x="708.28" y="-63.5" font-family="Helvetica,sans-Serif" font-size="10.00">Settings.h</text>
</a>
</g>
</g>
<!-- Node14&#45;&gt;Node16 -->
<g id="edge23" class="edge">
<title>Node14&#45;&gt;Node16</title>
<path fill="none" stroke="midnightblue" d="M572.12,-128.87C595.68,-119.12 634.68,-102.97 664.91,-90.45"/>
<polygon fill="midnightblue" stroke="midnightblue" points="666.49,-93.59 674.39,-86.53 663.81,-87.12 666.49,-93.59"/>
</g>
<!-- Node16&#45;&gt;Node8 -->
<g id="edge24" class="edge">
<title>Node16&#45;&gt;Node8</title>
<path fill="none" stroke="midnightblue" d="M687.18,-56.4C673.18,-47.04 654.86,-34.79 640.78,-25.38"/>
<polygon fill="midnightblue" stroke="midnightblue" points="642.48,-22.31 632.23,-19.66 638.59,-28.13 642.48,-22.31"/>
</g>
<!-- Node17&#45;&gt;Node7 -->
<g id="edge27" class="edge">
<title>Node17&#45;&gt;Node7</title>
<path fill="none" stroke="midnightblue" d="M253.76,-190.31C228.1,-169.09 162.03,-114.46 129.68,-87.72"/>
<polygon fill="midnightblue" stroke="midnightblue" points="131.8,-84.93 121.87,-81.26 127.34,-90.33 131.8,-84.93"/>
</g>
<!-- Node17&#45;&gt;Node14 -->
<g id="edge26" class="edge">
<title>Node17&#45;&gt;Node14</title>
<path fill="none" stroke="midnightblue" d="M305.4,-190.48C356.76,-179.83 444.63,-161.61 500.24,-150.08"/>
<polygon fill="midnightblue" stroke="midnightblue" points="501.15,-153.47 510.23,-148.01 499.73,-146.61 501.15,-153.47"/>
</g>
</g>
</svg>
        <g id="navigator" transform="translate(0 0)" fill="#404254">
                <rect fill="#f2f5e9" fill-opacity="0.5" stroke="#606060" stroke-width=".5" x="0" y="0" width="60" height="60"/>
                <use id="zoomplus" xlink:href="#zoomPlus" x="17" y="9" onmousedown="handleZoom(evt,'in')"/>
                <use id="zoomminus" xlink:href="#zoomMin" x="42" y="9" onmousedown="handleZoom(evt,'out')"/>
                <use id="reset" xlink:href="#resetDef" x="30" y="36" onmousedown="handleReset()"/>
                <g id="arrowUp" xlink:href="#dirArrow" transform="translate(30 24)" onmousedown="handlePan(0,-1)">
                  <use xlink:href="#rim" fill="#404040">
                        <set attributeName="fill" to="#808080" begin="arrowUp.mouseover" end="arrowUp.mouseout"/>
                  </use>
                  <path fill="none" stroke="white" stroke-width="1.5" d="M0,-3.0v7 M-2.5,-0.5L0,-3.0L2.5,-0.5"/>
                </g>
                <g id="arrowRight" xlink:href="#dirArrow" transform="rotate(90) translate(36 -43)" onmousedown="handlePan(1,0)">
                  <use xlink:href="#rim" fill="#404040">
                        <set attributeName="fill" to="#808080" begin="arrowRight.mouseover" end="arrowRight.mouseout"/>
                  </use>
                  <path fill="none" stroke="white" stroke-width="1.5" d="M0,-3.0v7 M-2.5,-0.5L0,-3.0L2.5,-0.5"/>
                </g>
                <g id="arrowDown" xlink:href="#dirArrow" transform="rotate(180) translate(-30 -48)" onmousedown="handlePan(0,1)">
                  <use xlink:href="#rim" fill="#404040">
                        <set attributeName="fill" to="#808080" begin="arrowDown.mouseover" end="arrowDown.mouseout"/>
                  </use>
                  <path fill="none" stroke="white" stroke-width="1.5" d="M0,-3.0v7 M-2.5,-0.5L0,-3.0L2.5,-0.5"/>
                </g>
                <g id="arrowLeft" xlink:href="#dirArrow" transform="rotate(270) translate(-36 17)" onmousedown="handlePan(-1,0)">
                  <use xlink:href="#rim" fill="#404040">
                        <set attributeName="fill" to="#808080" begin="arrowLeft.mouseover" end="arrowLeft.mouseout"/>
                  </use>
                  <path fill="none" stroke="white" stroke-width="1.5" d="M0,-3.0v7 M-2.5,-0.5L0,-3.0L2.5,-0.5"/>
                </g>
        </g>
        <svg viewBox="0 0 15 15" width="100%" height="30px" preserveAspectRatio="xMaxYMin meet">
         <g id="arrow_out" transform="scale(0.3 0.3)">
          <a xlink:href="_enemy_8h__incl_org.svg" target="_base">
           <rect id="button" ry="5" rx="5" y="6" x="6" height="38" width="38"
                fill="#f2f5e9" fill-opacity="0.5" stroke="#606060" stroke-width="1.0"/>
           <path id="arrow"
             d="M 11.500037,31.436501 C 11.940474,20.09759 22.043105,11.32322 32.158766,21.979434 L 37.068811,17.246167 C 37.068811,17.246167 37.088388,32 37.088388,32 L 22.160133,31.978069 C 22.160133,31.978069 26.997745,27.140456 26.997745,27.140456 C 18.528582,18.264221 13.291696,25.230495 11.500037,31.436501 z"
             style="fill:#404040;"/>
          </a>
         </g>
        </svg>
</svg>
