<?xml version="1.0" encoding="UTF-8" standalone="no"?>
<!DOCTYPE svg PUBLIC "-//W3C//DTD SVG 1.1//EN"
 "http://www.w3.org/Graphics/SVG/1.1/DTD/svg11.dtd">
<!-- Generated by graphviz version 2.49.3 (20211027.1534)
 -->
<!-- Title: Enemy Pages: 1 -->
<svg width="1100pt" height="608pt"
 viewBox="0.00 0.00 1100.00 608.00" xmlns="http://www.w3.org/2000/svg" xmlns:xlink="http://www.w3.org/1999/xlink">
<g id="graph0" class="graph" transform="scale(1 1) rotate(0) translate(4 604)">
<title>Enemy</title>
<polygon fill="white" stroke="transparent" points="-4,4 -4,-604 1096,-604 1096,4 -4,4"/>
<!-- Node1 -->
<g id="node1" class="node">
<title>Node1</title>
<g id="a_node1"><a xlink:title="An enemy spaceship">
<polygon fill="#bfbfbf" stroke="black" points="1046,-147.5 1046,-166.5 1092,-166.5 1092,-147.5 1046,-147.5"/>
<text text-anchor="middle" x="1069" y="-154.5" font-family="Helvetica,sans-Serif" font-size="10.00">Enemy</text>
</a>
</g>
</g>
<!-- Node2 -->
<g id="node2" class="node">
<title>Node2</title>
<g id="a_node2"><a xlink:href="../../d5/d15/class_a_movable.html" target="_top" xlink:title=" ">
<polygon fill="white" stroke="black" points="850.5,-359.5 850.5,-378.5 910.5,-378.5 910.5,-359.5 850.5,-359.5"/>
<text text-anchor="middle" x="880.5" y="-366.5" font-family="Helvetica,sans-Serif" font-size="10.00">AMovable</text>
</a>
</g>
</g>
<!-- Node2&#45;&gt;Node1 -->
<g id="edge1" class="edge">
<title>Node2&#45;&gt;Node1</title>
<path fill="none" stroke="midnightblue" d="M898.62,-352.05C926.73,-323.92 983.95,-265.39 1028,-212 1040.62,-196.7 1053.9,-177.79 1061.54,-166.61"/>
<polygon fill="midnightblue" stroke="midnightblue" points="895.8,-349.92 891.19,-359.46 900.74,-354.88 895.8,-349.92"/>
</g>
<!-- Node3 -->
<g id="node3" class="node">
<title>Node3</title>
<g id="a_node3"><a xlink:href="../../d3/d92/class_a_graphic_object.html" target="_top" xlink:title="An object that can be drawn and updated">
<polygon fill="white" stroke="black" points="558.5,-471.5 558.5,-490.5 644.5,-490.5 644.5,-471.5 558.5,-471.5"/>
<text text-anchor="middle" x="601.5" y="-478.5" font-family="Helvetica,sans-Serif" font-size="10.00">AGraphicObject</text>
</a>
</g>
</g>
<!-- Node3&#45;&gt;Node2 -->
<g id="edge2" class="edge">
<title>Node3&#45;&gt;Node2</title>
<path fill="none" stroke="midnightblue" d="M654.98,-476.92C697.65,-471.88 758.37,-460.7 806,-436 833.9,-421.53 859.28,-393.77 871.62,-378.93"/>
<polygon fill="midnightblue" stroke="midnightblue" points="654.36,-473.47 644.81,-478.05 655.13,-480.43 654.36,-473.47"/>
</g>
<!-- Node4 -->
<g id="node4" class="node">
<title>Node4</title>
<g id="a_node4"><a xlink:href="../../db/d70/class_instance_list.html" target="_top" xlink:title=" ">
<polygon fill="white" stroke="black" points="217,-458.5 217,-477.5 373,-477.5 373,-458.5 217,-458.5"/>
<text text-anchor="middle" x="295" y="-465.5" font-family="Helvetica,sans-Serif" font-size="10.00">InstanceList&lt; AGraphicObject &gt;</text>
</a>
</g>
</g>
<!-- Node4&#45;&gt;Node3 -->
<g id="edge3" class="edge">
<title>Node4&#45;&gt;Node3</title>
<path fill="none" stroke="midnightblue" d="M383.38,-471.73C440.7,-474.18 513.1,-477.27 558.1,-479.19"/>
<polygon fill="midnightblue" stroke="midnightblue" points="383.37,-468.23 373.23,-471.3 383.07,-475.22 383.37,-468.23"/>
</g>
<!-- Node5 -->
<g id="node5" class="node">
<title>Node5</title>
<g id="a_node5"><a xlink:href="../../db/d70/class_instance_list.html" target="_top" xlink:title="Add a static list for the class T">
<polygon fill="white" stroke="black" points="0,-75.5 0,-94.5 93,-94.5 93,-75.5 0,-75.5"/>
<text text-anchor="middle" x="46.5" y="-82.5" font-family="Helvetica,sans-Serif" font-size="10.00">InstanceList&lt; T &gt;</text>
</a>
</g>
</g>
<!-- Node5&#45;&gt;Node4 -->
<g id="edge4" class="edge">
<title>Node5&#45;&gt;Node4</title>
<path fill="none" stroke="orange" stroke-dasharray="5,2" d="M54.84,-104.04C75.25,-155.47 136.52,-300.15 217,-401 235.79,-424.55 263.58,-446.37 280.13,-458.37"/>
<polygon fill="orange" stroke="orange" points="58.02,-102.56 51.11,-94.52 51.5,-105.11 58.02,-102.56"/>
<text text-anchor="middle" x="155" y="-372" font-family="Helvetica,sans-Serif" font-size="10.00"> &lt; AGraphicObject &gt;</text>
</g>
<!-- Node12 -->
<g id="node12" class="node">
<title>Node12</title>
<g id="a_node12"><a xlink:href="../../db/d70/class_instance_list.html" target="_top" xlink:title=" ">
<polygon fill="white" stroke="black" points="391,-60.5 391,-79.5 527,-79.5 527,-60.5 391,-60.5"/>
<text text-anchor="middle" x="459" y="-67.5" font-family="Helvetica,sans-Serif" font-size="10.00">InstanceList&lt; ACollidable &gt;</text>
</a>
</g>
</g>
<!-- Node5&#45;&gt;Node12 -->
<g id="edge14" class="edge">
<title>Node5&#45;&gt;Node12</title>
<path fill="none" stroke="orange" stroke-dasharray="5,2" d="M103.55,-82.95C178.34,-80.22 310.61,-75.39 390.7,-72.46"/>
<polygon fill="orange" stroke="orange" points="103.26,-79.46 93.39,-83.32 103.52,-86.46 103.26,-79.46"/>
<text text-anchor="middle" x="155" y="-85" font-family="Helvetica,sans-Serif" font-size="10.00"> &lt; ACollidable &gt;</text>
</g>
<!-- Node6 -->
<g id="node6" class="node">
<title>Node6</title>
<g id="a_node6"><a xlink:title=" ">
<polygon fill="white" stroke="#bfbfbf" points="270,-213.5 270,-232.5 320,-232.5 320,-213.5 270,-213.5"/>
<text text-anchor="middle" x="295" y="-220.5" font-family="Helvetica,sans-Serif" font-size="10.00">Vector2</text>
</a>
</g>
</g>
<!-- Node6&#45;&gt;Node2 -->
<g id="edge10" class="edge">
<title>Node6&#45;&gt;Node2</title>
<path fill="none" stroke="#9a32cd" stroke-dasharray="5,2" d="M310.69,-240.17C327.85,-258.92 358.12,-288.13 391,-302 500.94,-348.36 539.84,-313.42 658,-330 727.22,-339.71 807.93,-354.91 850.22,-363.17"/>
<polygon fill="#9a32cd" stroke="#9a32cd" points="313.23,-237.76 303.96,-232.61 308,-242.41 313.23,-237.76"/>
<text text-anchor="middle" x="601.5" y="-333" font-family="Helvetica,sans-Serif" font-size="10.00"> direction</text>
</g>
<!-- Node6&#45;&gt;Node3 -->
<g id="edge5" class="edge">
<title>Node6&#45;&gt;Node3</title>
<path fill="none" stroke="#9a32cd" stroke-dasharray="5,2" d="M308.42,-240.9C325.07,-263.89 356.56,-303.91 391,-330 444.56,-370.57 480.41,-347.6 527,-396 540.8,-410.34 532.84,-421.24 545,-437 555.97,-451.21 572.48,-463.53 584.64,-471.48"/>
<polygon fill="#9a32cd" stroke="#9a32cd" points="311.25,-238.84 302.6,-232.72 305.54,-242.9 311.25,-238.84"/>
<text text-anchor="middle" x="459" y="-421" font-family="Helvetica,sans-Serif" font-size="10.00"> center</text>
<text text-anchor="middle" x="459" y="-410" font-family="Helvetica,sans-Serif" font-size="10.00">position</text>
<text text-anchor="middle" x="459" y="-399" font-family="Helvetica,sans-Serif" font-size="10.00">scale</text>
</g>
<!-- Node13 -->
<g id="node13" class="node">
<title>Node13</title>
<g id="a_node13"><a xlink:href="../../dc/d1d/class_a_collider.html" target="_top" xlink:title="Contains collider&#39;s data the without the transform">
<polygon fill="white" stroke="black" points="573.5,-114.5 573.5,-133.5 629.5,-133.5 629.5,-114.5 573.5,-114.5"/>
<text text-anchor="middle" x="601.5" y="-121.5" font-family="Helvetica,sans-Serif" font-size="10.00">ACollider</text>
</a>
</g>
</g>
<!-- Node6&#45;&gt;Node13 -->
<g id="edge16" class="edge">
<title>Node6&#45;&gt;Node13</title>
<path fill="none" stroke="#9a32cd" stroke-dasharray="5,2" d="M329.48,-209.12C343.56,-202.52 359.72,-193.9 373,-184 382.33,-177.05 380.81,-170.61 391,-165 450.26,-132.4 531.5,-125.45 573.26,-124.14"/>
<polygon fill="#9a32cd" stroke="#9a32cd" points="327.79,-206.04 320.13,-213.36 330.68,-212.42 327.79,-206.04"/>
<text text-anchor="middle" x="459" y="-168" font-family="Helvetica,sans-Serif" font-size="10.00"> pivot</text>
</g>
<!-- Node19 -->
<g id="node19" class="node">
<title>Node19</title>
<g id="a_node19"><a xlink:href="../../d7/d74/struct_sequence_move_patern_1_1_sequence_patern.html" target="_top" xlink:title="The datas of SequenceMovePatern.">
<polygon fill="white" stroke="black" points="824,-211 824,-241 937,-241 937,-211 824,-211"/>
<text text-anchor="start" x="832" y="-229" font-family="Helvetica,sans-Serif" font-size="10.00">SequenceMovePatern</text>
<text text-anchor="middle" x="880.5" y="-218" font-family="Helvetica,sans-Serif" font-size="10.00">::SequencePatern</text>
</a>
</g>
</g>
<!-- Node6&#45;&gt;Node19 -->
<g id="edge28" class="edge">
<title>Node6&#45;&gt;Node19</title>
<path fill="none" stroke="#9a32cd" stroke-dasharray="5,2" d="M330.08,-213.91C394.2,-197.92 537.23,-167.59 658,-180 715.04,-185.86 779.06,-200 823.55,-211.07"/>
<polygon fill="#9a32cd" stroke="#9a32cd" points="328.95,-210.58 320.12,-216.43 330.67,-217.37 328.95,-210.58"/>
<text text-anchor="middle" x="601.5" y="-194" font-family="Helvetica,sans-Serif" font-size="10.00"> direction</text>
<text text-anchor="middle" x="601.5" y="-183" font-family="Helvetica,sans-Serif" font-size="10.00">position</text>
</g>
<!-- Node20 -->
<g id="node20" class="node">
<title>Node20</title>
<g id="a_node20"><a xlink:href="../../d1/dfd/struct_a_offsetable_patern_1_1_i_offserable_patern_data.html" target="_top" xlink:title="Datas for AOffsetablePatern.">
<polygon fill="white" stroke="black" points="545,-211 545,-241 658,-241 658,-211 545,-211"/>
<text text-anchor="start" x="553" y="-229" font-family="Helvetica,sans-Serif" font-size="10.00">AOffsetablePatern::</text>
<text text-anchor="middle" x="601.5" y="-218" font-family="Helvetica,sans-Serif" font-size="10.00">IOffserablePaternData</text>
</a>
</g>
</g>
<!-- Node6&#45;&gt;Node20 -->
<g id="edge25" class="edge">
<title>Node6&#45;&gt;Node20</title>
<path fill="none" stroke="#9a32cd" stroke-dasharray="5,2" d="M330.41,-222.9C375.54,-222.83 457.21,-222.9 527,-224 532.74,-224.09 538.74,-224.21 544.72,-224.35"/>
<polygon fill="#9a32cd" stroke="#9a32cd" points="330.27,-219.4 320.28,-222.92 330.29,-226.4 330.27,-219.4"/>
<text text-anchor="middle" x="459" y="-260" font-family="Helvetica,sans-Serif" font-size="10.00"> positionOffset</text>
<text text-anchor="middle" x="459" y="-249" font-family="Helvetica,sans-Serif" font-size="10.00">rotationCenter</text>
<text text-anchor="middle" x="459" y="-238" font-family="Helvetica,sans-Serif" font-size="10.00">scaleCenter</text>
<text text-anchor="middle" x="459" y="-227" font-family="Helvetica,sans-Serif" font-size="10.00">scaleOffset</text>
</g>
<!-- Node7 -->
<g id="node7" class="node">
<title>Node7</title>
<g id="a_node7"><a xlink:title=" ">
<polygon fill="white" stroke="#bfbfbf" points="277.5,-372.5 277.5,-391.5 312.5,-391.5 312.5,-372.5 277.5,-372.5"/>
<text text-anchor="middle" x="295" y="-379.5" font-family="Helvetica,sans-Serif" font-size="10.00">float</text>
</a>
</g>
</g>
<!-- Node7&#45;&gt;Node2 -->
<g id="edge11" class="edge">
<title>Node7&#45;&gt;Node2</title>
<path fill="none" stroke="#9a32cd" stroke-dasharray="5,2" d="M322.2,-391.21C341.06,-397.33 367.26,-404.81 391,-408 564.49,-431.31 774.66,-391.96 850.48,-375.61"/>
<polygon fill="#9a32cd" stroke="#9a32cd" points="323.13,-387.83 312.54,-387.98 320.91,-394.47 323.13,-387.83"/>
<text text-anchor="middle" x="601.5" y="-417" font-family="Helvetica,sans-Serif" font-size="10.00"> speed</text>
</g>
<!-- Node7&#45;&gt;Node3 -->
<g id="edge6" class="edge">
<title>Node7&#45;&gt;Node3</title>
<path fill="none" stroke="#9a32cd" stroke-dasharray="5,2" d="M319.13,-397.13C337.8,-408.66 365.13,-424.03 391,-433 448.99,-453.1 467.46,-442.1 527,-457 542.89,-460.97 560.32,-466.61 574.23,-471.42"/>
<polygon fill="#9a32cd" stroke="#9a32cd" points="320.79,-394.04 310.46,-391.67 317.06,-399.96 320.79,-394.04"/>
<text text-anchor="middle" x="459" y="-460" font-family="Helvetica,sans-Serif" font-size="10.00"> orientation</text>
</g>
<!-- Node7&#45;&gt;Node19 -->
<g id="edge27" class="edge">
<title>Node7&#45;&gt;Node19</title>
<path fill="none" stroke="#9a32cd" stroke-dasharray="5,2" d="M322.23,-372.82C341.1,-366.65 367.31,-358.94 391,-355 508.22,-335.52 541.71,-365.43 658,-341 726.83,-326.54 744.93,-319.89 806,-285 827.6,-272.66 849.46,-254.18 863.66,-241.19"/>
<polygon fill="#9a32cd" stroke="#9a32cd" points="320.93,-369.57 312.56,-376.06 323.15,-376.21 320.93,-369.57"/>
<text text-anchor="middle" x="601.5" y="-365" font-family="Helvetica,sans-Serif" font-size="10.00"> orientation</text>
<text text-anchor="middle" x="601.5" y="-354" font-family="Helvetica,sans-Serif" font-size="10.00">time</text>
</g>
<!-- Node7&#45;&gt;Node20 -->
<g id="edge26" class="edge">
<title>Node7&#45;&gt;Node20</title>
<path fill="none" stroke="#9a32cd" stroke-dasharray="5,2" d="M315.62,-366.02C334.17,-351.5 363.22,-330.22 391,-316 448.05,-286.79 472.29,-301.4 527,-268 536.39,-262.27 535.86,-257.12 545,-251 550.44,-247.35 556.51,-244.01 562.57,-241.03"/>
<polygon fill="#9a32cd" stroke="#9a32cd" points="313.29,-363.4 307.64,-372.36 317.65,-368.88 313.29,-363.4"/>
<text text-anchor="middle" x="459" y="-319" font-family="Helvetica,sans-Serif" font-size="10.00"> rotationOffset</text>
</g>
<!-- Node8 -->
<g id="node8" class="node">
<title>Node8</title>
<g id="a_node8"><a xlink:title=" ">
<polygon fill="white" stroke="#bfbfbf" points="264.5,-578.5 264.5,-597.5 325.5,-597.5 325.5,-578.5 264.5,-578.5"/>
<text text-anchor="middle" x="295" y="-585.5" font-family="Helvetica,sans-Serif" font-size="10.00">Texture2D</text>
</a>
</g>
</g>
<!-- Node8&#45;&gt;Node3 -->
<g id="edge7" class="edge">
<title>Node8&#45;&gt;Node3</title>
<path fill="none" stroke="#9a32cd" stroke-dasharray="5,2" d="M335.82,-590.63C383.8,-592.11 465.62,-589.09 527,-558 558.32,-542.13 583.64,-507.4 594.61,-490.55"/>
<polygon fill="#9a32cd" stroke="#9a32cd" points="335.66,-587.12 325.53,-590.23 335.39,-594.12 335.66,-587.12"/>
<text text-anchor="middle" x="459" y="-592" font-family="Helvetica,sans-Serif" font-size="10.00"> texture</text>
</g>
<!-- Node9 -->
<g id="node9" class="node">
<title>Node9</title>
<g id="a_node9"><a xlink:title=" ">
<polygon fill="white" stroke="#bfbfbf" points="265,-540.5 265,-559.5 325,-559.5 325,-540.5 265,-540.5"/>
<text text-anchor="middle" x="295" y="-547.5" font-family="Helvetica,sans-Serif" font-size="10.00">Rectangle</text>
</a>
</g>
</g>
<!-- Node9&#45;&gt;Node3 -->
<g id="edge8" class="edge">
<title>Node9&#45;&gt;Node3</title>
<path fill="none" stroke="#9a32cd" stroke-dasharray="5,2" d="M335.06,-548.15C381.66,-545.09 461.49,-537.17 527,-517 547.91,-510.56 570.26,-498.84 584.75,-490.52"/>
<polygon fill="#9a32cd" stroke="#9a32cd" points="334.85,-544.65 325.08,-548.76 335.28,-551.64 334.85,-544.65"/>
<text text-anchor="middle" x="459" y="-546" font-family="Helvetica,sans-Serif" font-size="10.00"> source</text>
</g>
<!-- Node10 -->
<g id="node10" class="node">
<title>Node10</title>
<g id="a_node10"><a xlink:title=" ">
<polygon fill="white" stroke="#bfbfbf" points="275.5,-502.5 275.5,-521.5 314.5,-521.5 314.5,-502.5 275.5,-502.5"/>
<text text-anchor="middle" x="295" y="-509.5" font-family="Helvetica,sans-Serif" font-size="10.00">Color</text>
</a>
</g>
</g>
<!-- Node10&#45;&gt;Node3 -->
<g id="edge9" class="edge">
<title>Node10&#45;&gt;Node3</title>
<path fill="none" stroke="#9a32cd" stroke-dasharray="5,2" d="M324.74,-509.22C368.44,-504.98 454.2,-496.59 527,-489 537.09,-487.95 547.95,-486.78 558.14,-485.68"/>
<polygon fill="#9a32cd" stroke="#9a32cd" points="324.19,-505.76 314.57,-510.21 324.86,-512.73 324.19,-505.76"/>
<text text-anchor="middle" x="459" y="-505" font-family="Helvetica,sans-Serif" font-size="10.00"> tint</text>
</g>
<!-- Node11 -->
<g id="node11" class="node">
<title>Node11</title>
<g id="a_node11"><a xlink:href="../../d0/d76/class_a_collidable.html" target="_top" xlink:title="An object that posses a collider">
<polygon fill="white" stroke="black" points="848,-114.5 848,-133.5 913,-133.5 913,-114.5 848,-114.5"/>
<text text-anchor="middle" x="880.5" y="-121.5" font-family="Helvetica,sans-Serif" font-size="10.00">ACollidable</text>
</a>
</g>
</g>
<!-- Node11&#45;&gt;Node1 -->
<g id="edge12" class="edge">
<title>Node11&#45;&gt;Node1</title>
<path fill="none" stroke="midnightblue" d="M923.37,-131.41C961.32,-138.12 1015.77,-147.76 1045.87,-153.08"/>
<polygon fill="midnightblue" stroke="midnightblue" points="923.59,-127.89 913.14,-129.6 922.37,-134.79 923.59,-127.89"/>
</g>
<!-- Node12&#45;&gt;Node11 -->
<g id="edge13" class="edge">
<title>Node12&#45;&gt;Node11</title>
<path fill="none" stroke="midnightblue" d="M537.33,-79.95C630.42,-91.94 782.38,-111.5 847.85,-119.93"/>
<polygon fill="midnightblue" stroke="midnightblue" points="537.76,-76.48 527.4,-78.68 536.87,-83.42 537.76,-76.48"/>
</g>
<!-- Node13&#45;&gt;Node11 -->
<g id="edge15" class="edge">
<title>Node13&#45;&gt;Node11</title>
<path fill="none" stroke="#9a32cd" stroke-dasharray="5,2" d="M639.89,-124C694.76,-124 796.16,-124 847.68,-124"/>
<polygon fill="#9a32cd" stroke="#9a32cd" points="639.56,-120.5 629.56,-124 639.56,-127.5 639.56,-120.5"/>
<text text-anchor="middle" x="741" y="-127" font-family="Helvetica,sans-Serif" font-size="10.00"> collider</text>
</g>
<!-- Node14 -->
<g id="node14" class="node">
<title>Node14</title>
<g id="a_node14"><a xlink:title=" ">
<polygon fill="white" stroke="#bfbfbf" points="256.5,-96.5 256.5,-115.5 333.5,-115.5 333.5,-96.5 256.5,-96.5"/>
<text text-anchor="middle" x="295" y="-103.5" font-family="Helvetica,sans-Serif" font-size="10.00">CollisionLayer</text>
</a>
</g>
</g>
<!-- Node14&#45;&gt;Node13 -->
<g id="edge17" class="edge">
<title>Node14&#45;&gt;Node13</title>
<path fill="none" stroke="#9a32cd" stroke-dasharray="5,2" d="M343.94,-102.66C390.8,-100.19 464.07,-98.41 527,-106 542.52,-107.87 559.49,-111.89 573.22,-115.66"/>
<polygon fill="#9a32cd" stroke="#9a32cd" points="343.56,-99.18 333.78,-103.23 343.96,-106.17 343.56,-99.18"/>
<text text-anchor="middle" x="459" y="-109" font-family="Helvetica,sans-Serif" font-size="10.00"> layer</text>
</g>
<!-- Node15 -->
<g id="node15" class="node">
<title>Node15</title>
<g id="a_node15"><a xlink:href="../../d1/d25/class_sequence_move_patern.html" target="_top" xlink:title="A patern computed by a sequence of rotation and velocity. &#160;This patern can be loaded from a file cont...">
<polygon fill="white" stroke="black" points="824,-38.5 824,-57.5 937,-57.5 937,-38.5 824,-38.5"/>
<text text-anchor="middle" x="880.5" y="-45.5" font-family="Helvetica,sans-Serif" font-size="10.00">SequenceMovePatern</text>
</a>
</g>
</g>
<!-- Node15&#45;&gt;Node1 -->
<g id="edge18" class="edge">
<title>Node15&#45;&gt;Node1</title>
<path fill="none" stroke="#9a32cd" stroke-dasharray="5,2" d="M914.17,-61.65C944.74,-75.08 991.12,-97.13 1028,-122 1039.17,-129.53 1050.61,-139.86 1058.38,-147.34"/>
<polygon fill="#9a32cd" stroke="#9a32cd" points="915.39,-58.37 904.82,-57.6 912.61,-64.79 915.39,-58.37"/>
<text text-anchor="middle" x="991.5" y="-125" font-family="Helvetica,sans-Serif" font-size="10.00"> patern</text>
</g>
<!-- Node16 -->
<g id="node16" class="node">
<title>Node16</title>
<g id="a_node16"><a xlink:href="../../d7/d67/class_a_offsetable_patern.html" target="_top" xlink:title="A patern that can have an offset (rotation, position, rotation)">
<polygon fill="white" stroke="black" points="553.5,-0.5 553.5,-19.5 649.5,-19.5 649.5,-0.5 553.5,-0.5"/>
<text text-anchor="middle" x="601.5" y="-7.5" font-family="Helvetica,sans-Serif" font-size="10.00">AOffsetablePatern</text>
</a>
</g>
</g>
<!-- Node16&#45;&gt;Node15 -->
<g id="edge19" class="edge">
<title>Node16&#45;&gt;Node15</title>
<path fill="none" stroke="midnightblue" d="M659.74,-17.85C707.84,-24.45 776.15,-33.82 823.8,-40.36"/>
<polygon fill="midnightblue" stroke="midnightblue" points="660.19,-14.38 649.8,-16.49 659.23,-21.32 660.19,-14.38"/>
</g>
<!-- Node17 -->
<g id="node17" class="node">
<title>Node17</title>
<g id="a_node17"><a xlink:href="../../dd/d61/class_a_patern.html" target="_top" xlink:title="An util class that contains methods to move a movable.">
<polygon fill="white" stroke="black" points="269,-0.5 269,-19.5 321,-19.5 321,-0.5 269,-0.5"/>
<text text-anchor="middle" x="295" y="-7.5" font-family="Helvetica,sans-Serif" font-size="10.00">APatern</text>
</a>
</g>
</g>
<!-- Node17&#45;&gt;Node16 -->
<g id="edge20" class="edge">
<title>Node17&#45;&gt;Node16</title>
<path fill="none" stroke="midnightblue" d="M331.46,-10C386.42,-10 492.19,-10 553.46,-10"/>
<polygon fill="midnightblue" stroke="midnightblue" points="331.18,-6.5 321.18,-10 331.18,-13.5 331.18,-6.5"/>
</g>
<!-- Node18 -->
<g id="node18" class="node">
<title>Node18</title>
<g id="a_node18"><a xlink:title=" ">
<polygon fill="white" stroke="#bfbfbf" points="587,-38.5 587,-57.5 616,-57.5 616,-38.5 587,-38.5"/>
<text text-anchor="middle" x="601.5" y="-45.5" font-family="Helvetica,sans-Serif" font-size="10.00">int</text>
</a>
</g>
</g>
<!-- Node18&#45;&gt;Node15 -->
<g id="edge21" class="edge">
<title>Node18&#45;&gt;Node15</title>
<path fill="none" stroke="#9a32cd" stroke-dasharray="5,2" d="M626.43,-48C670.03,-48 763.44,-48 823.76,-48"/>
<polygon fill="#9a32cd" stroke="#9a32cd" points="626.24,-44.5 616.24,-48 626.24,-51.5 626.24,-44.5"/>
<text text-anchor="middle" x="741" y="-51" font-family="Helvetica,sans-Serif" font-size="10.00"> SEQUENCE_FIELD_COUNT</text>
</g>
<!-- Node19&#45;&gt;Node1 -->
<g id="edge22" class="edge">
<title>Node19&#45;&gt;Node1</title>
<path fill="none" stroke="#9a32cd" stroke-dasharray="5,2" d="M932.09,-207.28C969.25,-193.53 1017.94,-175.52 1045.81,-165.21"/>
<polygon fill="#9a32cd" stroke="#9a32cd" points="930.59,-204.11 922.43,-210.86 933.02,-210.67 930.59,-204.11"/>
<text text-anchor="middle" x="991.5" y="-200" font-family="Helvetica,sans-Serif" font-size="10.00"> paternSequence</text>
</g>
<!-- Node20&#45;&gt;Node19 -->
<g id="edge23" class="edge">
<title>Node20&#45;&gt;Node19</title>
<path fill="none" stroke="midnightblue" d="M668.39,-226C715.78,-226 779,-226 823.87,-226"/>
<polygon fill="midnightblue" stroke="midnightblue" points="668.22,-222.5 658.22,-226 668.22,-229.5 668.22,-222.5"/>
</g>
<!-- Node21 -->
<g id="node21" class="node">
<title>Node21</title>
<g id="a_node21"><a xlink:href="../../da/dd8/struct_a_patern_1_1_i_patern_data.html" target="_top" xlink:title="Datas to pass to the patern. &#160;Overriden by the child classes.">
<polygon fill="white" stroke="black" points="241,-155.5 241,-174.5 349,-174.5 349,-155.5 241,-155.5"/>
<text text-anchor="middle" x="295" y="-162.5" font-family="Helvetica,sans-Serif" font-size="10.00">APatern::IPaternData</text>
</a>
</g>
</g>
<!-- Node21&#45;&gt;Node20 -->
<g id="edge24" class="edge">
<title>Node21&#45;&gt;Node20</title>
<path fill="none" stroke="midnightblue" d="M353.49,-176.52C408.35,-187.51 490.46,-203.96 544.74,-214.83"/>
<polygon fill="midnightblue" stroke="midnightblue" points="354.07,-173.06 343.58,-174.53 352.7,-179.93 354.07,-173.06"/>
</g>
<!-- Node22 -->
<g id="node22" class="node">
<title>Node22</title>
<g id="a_node22"><a xlink:title=" ">
<polygon fill="white" stroke="#bfbfbf" points="576.5,-260.5 576.5,-279.5 626.5,-279.5 626.5,-260.5 576.5,-260.5"/>
<text text-anchor="middle" x="601.5" y="-267.5" font-family="Helvetica,sans-Serif" font-size="10.00">vector&lt;</text>
</a>
</g>
</g>
<!-- Node22&#45;&gt;Node19 -->
<g id="edge29" class="edge">
<title>Node22&#45;&gt;Node19</title>
<path fill="none" stroke="#9a32cd" stroke-dasharray="5,2" d="M636.81,-265.39C677.32,-259.84 746.68,-250.02 806,-240 811.76,-239.03 817.77,-237.96 823.76,-236.87"/>
<polygon fill="#9a32cd" stroke="#9a32cd" points="636.11,-261.95 626.67,-266.77 637.05,-268.89 636.11,-261.95"/>
<text text-anchor="middle" x="741" y="-273" font-family="Helvetica,sans-Serif" font-size="10.00"> paternSequence</text>
<text text-anchor="middle" x="741" y="-262" font-family="Helvetica,sans-Serif" font-size="10.00">sequenceDone</text>
</g>
</g>
</svg>
