<?xml version="1.0" encoding="UTF-8" standalone="no"?>
<!DOCTYPE svg PUBLIC "-//W3C//DTD SVG 1.1//EN"
 "http://www.w3.org/Graphics/SVG/1.1/DTD/svg11.dtd">
<!-- Generated by graphviz version 2.49.3 (20211027.1534)
 -->
<!-- Title: Enemy Pages: 1 -->
<svg width="1040pt" height="446pt"
 viewBox="0.00 0.00 1040.00 446.00" xmlns="http://www.w3.org/2000/svg" xmlns:xlink="http://www.w3.org/1999/xlink">
<g id="graph0" class="graph" transform="scale(1 1) rotate(0) translate(4 442)">
<title>Enemy</title>
<polygon fill="white" stroke="transparent" points="-4,4 -4,-442 1036,-442 1036,4 -4,4"/>
<!-- Node1 -->
<g id="node1" class="node">
<title>Node1</title>
<g id="a_node1"><a xlink:title="An enemy spaceship">
<polygon fill="#bfbfbf" stroke="black" points="986,-198.5 986,-217.5 1032,-217.5 1032,-198.5 986,-198.5"/>
<text text-anchor="middle" x="1009" y="-205.5" font-family="Helvetica,sans-Serif" font-size="10.00">Enemy</text>
</a>
</g>
</g>
<!-- Node2 -->
<g id="node2" class="node">
<title>Node2</title>
<g id="a_node2"><a xlink:href="../../d5/d15/class_a_movable.html" target="_top" xlink:title=" ">
<polygon fill="white" stroke="black" points="833.5,-198.5 833.5,-217.5 893.5,-217.5 893.5,-198.5 833.5,-198.5"/>
<text text-anchor="middle" x="863.5" y="-205.5" font-family="Helvetica,sans-Serif" font-size="10.00">AMovable</text>
</a>
</g>
</g>
<!-- Node2&#45;&gt;Node1 -->
<g id="edge1" class="edge">
<title>Node2&#45;&gt;Node1</title>
<path fill="none" stroke="midnightblue" d="M903.58,-208C929.91,-208 963.69,-208 985.59,-208"/>
<polygon fill="midnightblue" stroke="midnightblue" points="903.54,-204.5 893.54,-208 903.54,-211.5 903.54,-204.5"/>
</g>
<!-- Node3 -->
<g id="node3" class="node">
<title>Node3</title>
<g id="a_node3"><a xlink:href="../../d3/d92/class_a_graphic_object.html" target="_top" xlink:title=" ">
<polygon fill="white" stroke="black" points="550,-198.5 550,-217.5 636,-217.5 636,-198.5 550,-198.5"/>
<text text-anchor="middle" x="593" y="-205.5" font-family="Helvetica,sans-Serif" font-size="10.00">AGraphicObject</text>
</a>
</g>
</g>
<!-- Node3&#45;&gt;Node2 -->
<g id="edge2" class="edge">
<title>Node3&#45;&gt;Node2</title>
<path fill="none" stroke="midnightblue" d="M646.3,-208C702.1,-208 788.52,-208 833.32,-208"/>
<polygon fill="midnightblue" stroke="midnightblue" points="646.25,-204.5 636.25,-208 646.25,-211.5 646.25,-204.5"/>
</g>
<!-- Node4 -->
<g id="node4" class="node">
<title>Node4</title>
<g id="a_node4"><a xlink:href="../../db/d70/class_instance_list.html" target="_top" xlink:title=" ">
<polygon fill="white" stroke="black" points="217,-223.5 217,-242.5 373,-242.5 373,-223.5 217,-223.5"/>
<text text-anchor="middle" x="295" y="-230.5" font-family="Helvetica,sans-Serif" font-size="10.00">InstanceList&lt; AGraphicObject &gt;</text>
</a>
</g>
</g>
<!-- Node4&#45;&gt;Node3 -->
<g id="edge3" class="edge">
<title>Node4&#45;&gt;Node3</title>
<path fill="none" stroke="midnightblue" d="M383.46,-225.61C438.34,-220.98 506.62,-215.21 549.78,-211.57"/>
<polygon fill="midnightblue" stroke="midnightblue" points="383.05,-222.13 373.38,-226.46 383.64,-229.11 383.05,-222.13"/>
</g>
<!-- Node5 -->
<g id="node5" class="node">
<title>Node5</title>
<g id="a_node5"><a xlink:href="../../db/d70/class_instance_list.html" target="_top" xlink:title="Add a static list for the class T">
<polygon fill="white" stroke="black" points="0,-326.5 0,-345.5 93,-345.5 93,-326.5 0,-326.5"/>
<text text-anchor="middle" x="46.5" y="-333.5" font-family="Helvetica,sans-Serif" font-size="10.00">InstanceList&lt; T &gt;</text>
</a>
</g>
</g>
<!-- Node5&#45;&gt;Node4 -->
<g id="edge4" class="edge">
<title>Node5&#45;&gt;Node4</title>
<path fill="none" stroke="orange" stroke-dasharray="5,2" d="M72.61,-321.37C105.04,-303 163.67,-271.53 217,-252 226.96,-248.35 237.89,-245.18 248.31,-242.53"/>
<polygon fill="orange" stroke="orange" points="70.75,-318.41 63.81,-326.41 74.22,-324.49 70.75,-318.41"/>
<text text-anchor="middle" x="155" y="-301" font-family="Helvetica,sans-Serif" font-size="10.00"> &lt; AGraphicObject &gt;</text>
</g>
<!-- Node12 -->
<g id="node12" class="node">
<title>Node12</title>
<g id="a_node12"><a xlink:href="../../db/d70/class_instance_list.html" target="_top" xlink:title=" ">
<polygon fill="white" stroke="black" points="391,-385.5 391,-404.5 527,-404.5 527,-385.5 391,-385.5"/>
<text text-anchor="middle" x="459" y="-392.5" font-family="Helvetica,sans-Serif" font-size="10.00">InstanceList&lt; ACollidable &gt;</text>
</a>
</g>
</g>
<!-- Node5&#45;&gt;Node12 -->
<g id="edge14" class="edge">
<title>Node5&#45;&gt;Node12</title>
<path fill="none" stroke="orange" stroke-dasharray="5,2" d="M103.6,-344.06C178.73,-354.86 311.83,-373.99 391.79,-385.48"/>
<polygon fill="orange" stroke="orange" points="103.79,-340.55 93.39,-342.6 102.8,-347.48 103.79,-340.55"/>
<text text-anchor="middle" x="155" y="-359" font-family="Helvetica,sans-Serif" font-size="10.00"> &lt; ACollidable &gt;</text>
</g>
<!-- Node6 -->
<g id="node6" class="node">
<title>Node6</title>
<g id="a_node6"><a xlink:title=" ">
<polygon fill="white" stroke="#bfbfbf" points="270,-326.5 270,-345.5 320,-345.5 320,-326.5 270,-326.5"/>
<text text-anchor="middle" x="295" y="-333.5" font-family="Helvetica,sans-Serif" font-size="10.00">Vector2</text>
</a>
</g>
</g>
<!-- Node6&#45;&gt;Node2 -->
<g id="edge10" class="edge">
<title>Node6&#45;&gt;Node2</title>
<path fill="none" stroke="#9a32cd" stroke-dasharray="5,2" d="M330.41,-336.76C375.86,-337.11 458.2,-335.52 527,-322 649.54,-297.92 788.7,-240.35 841.07,-217.54"/>
<polygon fill="#9a32cd" stroke="#9a32cd" points="330.25,-333.26 320.21,-336.64 330.17,-340.25 330.25,-333.26"/>
<text text-anchor="middle" x="593" y="-320" font-family="Helvetica,sans-Serif" font-size="10.00"> direction</text>
</g>
<!-- Node6&#45;&gt;Node3 -->
<g id="edge5" class="edge">
<title>Node6&#45;&gt;Node3</title>
<path fill="none" stroke="#9a32cd" stroke-dasharray="5,2" d="M320.61,-321.32C339.31,-310.8 365.99,-297.11 391,-289 449.32,-270.1 471.75,-292.56 527,-266 551.26,-254.34 573.21,-230.85 584.33,-217.62"/>
<polygon fill="#9a32cd" stroke="#9a32cd" points="318.8,-318.33 311.86,-326.34 322.28,-324.4 318.8,-318.33"/>
<text text-anchor="middle" x="459" y="-314" font-family="Helvetica,sans-Serif" font-size="10.00"> center</text>
<text text-anchor="middle" x="459" y="-303" font-family="Helvetica,sans-Serif" font-size="10.00">position</text>
<text text-anchor="middle" x="459" y="-292" font-family="Helvetica,sans-Serif" font-size="10.00">scale</text>
</g>
<!-- Node13 -->
<g id="node13" class="node">
<title>Node13</title>
<g id="a_node13"><a xlink:href="../../dc/d1d/class_a_collider.html" target="_top" xlink:title=" ">
<polygon fill="white" stroke="black" points="565,-365.5 565,-384.5 621,-384.5 621,-365.5 565,-365.5"/>
<text text-anchor="middle" x="593" y="-372.5" font-family="Helvetica,sans-Serif" font-size="10.00">ACollider</text>
</a>
</g>
</g>
<!-- Node6&#45;&gt;Node13 -->
<g id="edge16" class="edge">
<title>Node6&#45;&gt;Node13</title>
<path fill="none" stroke="#9a32cd" stroke-dasharray="5,2" d="M330.24,-340.51C389.69,-348.34 510.82,-364.3 564.89,-371.43"/>
<polygon fill="#9a32cd" stroke="#9a32cd" points="330.59,-337.03 320.22,-339.19 329.68,-343.97 330.59,-337.03"/>
<text text-anchor="middle" x="459" y="-368" font-family="Helvetica,sans-Serif" font-size="10.00"> pivot</text>
</g>
<!-- Node7 -->
<g id="node7" class="node">
<title>Node7</title>
<g id="a_node7"><a xlink:title=" ">
<polygon fill="white" stroke="#bfbfbf" points="277.5,-97.5 277.5,-116.5 312.5,-116.5 312.5,-97.5 277.5,-97.5"/>
<text text-anchor="middle" x="295" y="-104.5" font-family="Helvetica,sans-Serif" font-size="10.00">float</text>
</a>
</g>
</g>
<!-- Node7&#45;&gt;Node2 -->
<g id="edge11" class="edge">
<title>Node7&#45;&gt;Node2</title>
<path fill="none" stroke="#9a32cd" stroke-dasharray="5,2" d="M322.63,-104.67C365.81,-101.44 453.67,-97.14 527,-108 647.55,-125.85 785.07,-177.08 839.03,-198.45"/>
<polygon fill="#9a32cd" stroke="#9a32cd" points="322.34,-101.18 312.65,-105.46 322.89,-108.16 322.34,-101.18"/>
<text text-anchor="middle" x="593" y="-135" font-family="Helvetica,sans-Serif" font-size="10.00"> speed</text>
</g>
<!-- Node7&#45;&gt;Node3 -->
<g id="edge6" class="edge">
<title>Node7&#45;&gt;Node3</title>
<path fill="none" stroke="#9a32cd" stroke-dasharray="5,2" d="M322.85,-105.74C367.7,-104.76 459.57,-107.6 527,-142 553.36,-155.45 575.41,-183.66 585.72,-198.47"/>
<polygon fill="#9a32cd" stroke="#9a32cd" points="322.65,-102.24 312.76,-106.05 322.86,-109.24 322.65,-102.24"/>
<text text-anchor="middle" x="459" y="-145" font-family="Helvetica,sans-Serif" font-size="10.00"> orientation</text>
</g>
<!-- Node8 -->
<g id="node8" class="node">
<title>Node8</title>
<g id="a_node8"><a xlink:title=" ">
<polygon fill="white" stroke="#bfbfbf" points="264.5,-185.5 264.5,-204.5 325.5,-204.5 325.5,-185.5 264.5,-185.5"/>
<text text-anchor="middle" x="295" y="-192.5" font-family="Helvetica,sans-Serif" font-size="10.00">Texture2D</text>
</a>
</g>
</g>
<!-- Node8&#45;&gt;Node3 -->
<g id="edge7" class="edge">
<title>Node8&#45;&gt;Node3</title>
<path fill="none" stroke="#9a32cd" stroke-dasharray="5,2" d="M335.79,-193.03C381.91,-191.24 460.14,-189.73 527,-196 534.43,-196.7 542.27,-197.81 549.85,-199.09"/>
<polygon fill="#9a32cd" stroke="#9a32cd" points="335.47,-189.54 325.62,-193.45 335.75,-196.53 335.47,-189.54"/>
<text text-anchor="middle" x="459" y="-199" font-family="Helvetica,sans-Serif" font-size="10.00"> texture</text>
</g>
<!-- Node9 -->
<g id="node9" class="node">
<title>Node9</title>
<g id="a_node9"><a xlink:title=" ">
<polygon fill="white" stroke="#bfbfbf" points="265,-147.5 265,-166.5 325,-166.5 325,-147.5 265,-147.5"/>
<text text-anchor="middle" x="295" y="-154.5" font-family="Helvetica,sans-Serif" font-size="10.00">Rectangle</text>
</a>
</g>
</g>
<!-- Node9&#45;&gt;Node3 -->
<g id="edge8" class="edge">
<title>Node9&#45;&gt;Node3</title>
<path fill="none" stroke="#9a32cd" stroke-dasharray="5,2" d="M335.32,-155.81C381.92,-155.41 461.51,-157.89 527,-176 544.94,-180.96 563.86,-190.88 576.64,-198.37"/>
<polygon fill="#9a32cd" stroke="#9a32cd" points="335,-152.31 325.05,-155.95 335.1,-159.31 335,-152.31"/>
<text text-anchor="middle" x="459" y="-179" font-family="Helvetica,sans-Serif" font-size="10.00"> source</text>
</g>
<!-- Node10 -->
<g id="node10" class="node">
<title>Node10</title>
<g id="a_node10"><a xlink:title=" ">
<polygon fill="white" stroke="#bfbfbf" points="275.5,-261.5 275.5,-280.5 314.5,-280.5 314.5,-261.5 275.5,-261.5"/>
<text text-anchor="middle" x="295" y="-268.5" font-family="Helvetica,sans-Serif" font-size="10.00">Color</text>
</a>
</g>
</g>
<!-- Node10&#45;&gt;Node3 -->
<g id="edge9" class="edge">
<title>Node10&#45;&gt;Node3</title>
<path fill="none" stroke="#9a32cd" stroke-dasharray="5,2" d="M324.74,-266.16C386.5,-255.75 526.39,-232.16 527,-232 541.3,-228.19 556.86,-222.5 569.17,-217.62"/>
<polygon fill="#9a32cd" stroke="#9a32cd" points="324.12,-262.71 314.84,-267.82 325.29,-269.61 324.12,-262.71"/>
<text text-anchor="middle" x="459" y="-256" font-family="Helvetica,sans-Serif" font-size="10.00"> tint</text>
</g>
<!-- Node11 -->
<g id="node11" class="node">
<title>Node11</title>
<g id="a_node11"><a xlink:href="../../d0/d76/class_a_collidable.html" target="_top" xlink:title=" ">
<polygon fill="white" stroke="black" points="831,-365.5 831,-384.5 896,-384.5 896,-365.5 831,-365.5"/>
<text text-anchor="middle" x="863.5" y="-372.5" font-family="Helvetica,sans-Serif" font-size="10.00">ACollidable</text>
</a>
</g>
</g>
<!-- Node11&#45;&gt;Node1 -->
<g id="edge12" class="edge">
<title>Node11&#45;&gt;Node1</title>
<path fill="none" stroke="midnightblue" d="M879.91,-357.06C910.16,-321.86 976.37,-244.81 999.68,-217.69"/>
<polygon fill="midnightblue" stroke="midnightblue" points="876.91,-355.19 873.05,-365.05 882.22,-359.75 876.91,-355.19"/>
</g>
<!-- Node12&#45;&gt;Node11 -->
<g id="edge13" class="edge">
<title>Node12&#45;&gt;Node11</title>
<path fill="none" stroke="midnightblue" d="M537.08,-398.12C603.93,-399.8 703.17,-399.84 789,-390 802.84,-388.41 817.96,-385.53 830.86,-382.72"/>
<polygon fill="midnightblue" stroke="midnightblue" points="537.13,-394.62 527.04,-397.85 536.94,-401.62 537.13,-394.62"/>
</g>
<!-- Node13&#45;&gt;Node11 -->
<g id="edge15" class="edge">
<title>Node13&#45;&gt;Node11</title>
<path fill="none" stroke="#9a32cd" stroke-dasharray="5,2" d="M631.23,-375C684.29,-375 780.74,-375 830.66,-375"/>
<polygon fill="#9a32cd" stroke="#9a32cd" points="631.22,-371.5 621.22,-375 631.22,-378.5 631.22,-371.5"/>
<text text-anchor="middle" x="724" y="-378" font-family="Helvetica,sans-Serif" font-size="10.00"> collider</text>
</g>
<!-- Node14 -->
<g id="node14" class="node">
<title>Node14</title>
<g id="a_node14"><a xlink:title=" ">
<polygon fill="white" stroke="#bfbfbf" points="256.5,-418.5 256.5,-437.5 333.5,-437.5 333.5,-418.5 256.5,-418.5"/>
<text text-anchor="middle" x="295" y="-425.5" font-family="Helvetica,sans-Serif" font-size="10.00">CollisionLayer</text>
</a>
</g>
</g>
<!-- Node14&#45;&gt;Node13 -->
<g id="edge17" class="edge">
<title>Node14&#45;&gt;Node13</title>
<path fill="none" stroke="#9a32cd" stroke-dasharray="5,2" d="M343.79,-428.28C391.13,-427.43 465.28,-423.08 527,-406 544.59,-401.13 563.26,-391.73 576.05,-384.56"/>
<polygon fill="#9a32cd" stroke="#9a32cd" points="343.48,-424.78 333.53,-428.41 343.58,-431.78 343.48,-424.78"/>
<text text-anchor="middle" x="459" y="-429" font-family="Helvetica,sans-Serif" font-size="10.00"> layer</text>
</g>
<!-- Node15 -->
<g id="node15" class="node">
<title>Node15</title>
<g id="a_node15"><a xlink:href="../../d1/d25/class_sequence_move_patern.html" target="_top" xlink:title=" ">
<polygon fill="white" stroke="black" points="807,-38.5 807,-57.5 920,-57.5 920,-38.5 807,-38.5"/>
<text text-anchor="middle" x="863.5" y="-45.5" font-family="Helvetica,sans-Serif" font-size="10.00">SequenceMovePatern</text>
</a>
</g>
</g>
<!-- Node15&#45;&gt;Node1 -->
<g id="edge18" class="edge">
<title>Node15&#45;&gt;Node1</title>
<path fill="none" stroke="#9a32cd" stroke-dasharray="5,2" d="M879.88,-65.15C909.95,-98.68 975.68,-171.96 999.32,-198.32"/>
<polygon fill="#9a32cd" stroke="#9a32cd" points="882.33,-62.64 873.05,-57.53 877.12,-67.31 882.33,-62.64"/>
<text text-anchor="middle" x="953" y="-164" font-family="Helvetica,sans-Serif" font-size="10.00"> patern</text>
</g>
<!-- Node16 -->
<g id="node16" class="node">
<title>Node16</title>
<g id="a_node16"><a xlink:href="../../d7/d67/class_a_offsetable_patern.html" target="_top" xlink:title=" ">
<polygon fill="white" stroke="black" points="545,-0.5 545,-19.5 641,-19.5 641,-0.5 545,-0.5"/>
<text text-anchor="middle" x="593" y="-7.5" font-family="Helvetica,sans-Serif" font-size="10.00">AOffsetablePatern</text>
</a>
</g>
</g>
<!-- Node16&#45;&gt;Node15 -->
<g id="edge19" class="edge">
<title>Node16&#45;&gt;Node15</title>
<path fill="none" stroke="midnightblue" d="M651.16,-18.09C697.04,-24.58 761.1,-33.65 806.64,-40.09"/>
<polygon fill="midnightblue" stroke="midnightblue" points="651.47,-14.6 641.08,-16.66 650.49,-21.53 651.47,-14.6"/>
</g>
<!-- Node17 -->
<g id="node17" class="node">
<title>Node17</title>
<g id="a_node17"><a xlink:href="../../dd/d61/class_a_patern.html" target="_top" xlink:title=" ">
<polygon fill="white" stroke="black" points="269,-0.5 269,-19.5 321,-19.5 321,-0.5 269,-0.5"/>
<text text-anchor="middle" x="295" y="-7.5" font-family="Helvetica,sans-Serif" font-size="10.00">APatern</text>
</a>
</g>
</g>
<!-- Node17&#45;&gt;Node16 -->
<g id="edge20" class="edge">
<title>Node17&#45;&gt;Node16</title>
<path fill="none" stroke="midnightblue" d="M331.55,-10C384.88,-10 485.62,-10 544.97,-10"/>
<polygon fill="midnightblue" stroke="midnightblue" points="331.24,-6.5 321.24,-10 331.24,-13.5 331.24,-6.5"/>
</g>
<!-- Node18 -->
<g id="node18" class="node">
<title>Node18</title>
<g id="a_node18"><a xlink:title=" ">
<polygon fill="white" stroke="#bfbfbf" points="578.5,-38.5 578.5,-57.5 607.5,-57.5 607.5,-38.5 578.5,-38.5"/>
<text text-anchor="middle" x="593" y="-45.5" font-family="Helvetica,sans-Serif" font-size="10.00">int</text>
</a>
</g>
</g>
<!-- Node18&#45;&gt;Node15 -->
<g id="edge21" class="edge">
<title>Node18&#45;&gt;Node15</title>
<path fill="none" stroke="#9a32cd" stroke-dasharray="5,2" d="M617.8,-48C659.88,-48 748.49,-48 806.73,-48"/>
<polygon fill="#9a32cd" stroke="#9a32cd" points="617.68,-44.5 607.68,-48 617.68,-51.5 617.68,-44.5"/>
<text text-anchor="middle" x="724" y="-51" font-family="Helvetica,sans-Serif" font-size="10.00"> SEQUENCE_FIELD_COUNT</text>
</g>
</g>
</svg>
