<?xml version="1.0" encoding="UTF-8" standalone="no"?>
<!DOCTYPE svg PUBLIC "-//W3C//DTD SVG 1.1//EN"
 "http://www.w3.org/Graphics/SVG/1.1/DTD/svg11.dtd">
<!-- Generated by graphviz version 2.49.3 (20211027.1534)
 -->
<!-- Title: RayLib_SHMUP/include/Namespaces/Files.h Pages: 1 -->
<svg width="1003pt" height="106pt"
 viewBox="0.00 0.00 1002.50 106.00" xmlns="http://www.w3.org/2000/svg" xmlns:xlink="http://www.w3.org/1999/xlink">
<g id="graph0" class="graph" transform="scale(1 1) rotate(0) translate(4 102)">
<title>RayLib_SHMUP/include/Namespaces/Files.h</title>
<polygon fill="white" stroke="transparent" points="-4,4 -4,-102 998.5,-102 998.5,4 -4,4"/>
<!-- Node1 -->
<g id="node1" class="node">
<title>Node1</title>
<g id="a_node1"><a xlink:title=" ">
<polygon fill="#bfbfbf" stroke="black" points="471,-67.5 471,-97.5 593,-97.5 593,-67.5 471,-67.5"/>
<text text-anchor="start" x="479" y="-85.5" font-family="Helvetica,sans-Serif" font-size="10.00">RayLib_SHMUP/include</text>
<text text-anchor="middle" x="532" y="-74.5" font-family="Helvetica,sans-Serif" font-size="10.00">/Namespaces/Files.h</text>
</a>
</g>
</g>
<!-- Node2 -->
<g id="node2" class="node">
<title>Node2</title>
<g id="a_node2"><a xlink:href="../../da/da3/_main_release_8cpp.html" target="_top" xlink:title=" ">
<polygon fill="white" stroke="black" points="0,-6 0,-25 182,-25 182,-6 0,-6"/>
<text text-anchor="middle" x="91" y="-13" font-family="Helvetica,sans-Serif" font-size="10.00">RayLib_SHMUP/src/MainRelease.cpp</text>
</a>
</g>
</g>
<!-- Node1&#45;&gt;Node2 -->
<g id="edge1" class="edge">
<title>Node1&#45;&gt;Node2</title>
<path fill="none" stroke="midnightblue" d="M460.66,-70.98C373.92,-58.2 229.21,-36.87 148.99,-25.05"/>
<polygon fill="midnightblue" stroke="midnightblue" points="460.28,-74.47 470.68,-72.46 461.3,-67.54 460.28,-74.47"/>
</g>
<!-- Node3 -->
<g id="node3" class="node">
<title>Node3</title>
<g id="a_node3"><a xlink:href="../../d4/dce/_files_8cpp.html" target="_top" xlink:title=" ">
<polygon fill="white" stroke="black" points="200,-0.5 200,-30.5 366,-30.5 366,-0.5 200,-0.5"/>
<text text-anchor="start" x="208" y="-18.5" font-family="Helvetica,sans-Serif" font-size="10.00">RayLib_SHMUP/src/Namespaces</text>
<text text-anchor="middle" x="283" y="-7.5" font-family="Helvetica,sans-Serif" font-size="10.00">/Files.cpp</text>
</a>
</g>
</g>
<!-- Node1&#45;&gt;Node3 -->
<g id="edge2" class="edge">
<title>Node1&#45;&gt;Node3</title>
<path fill="none" stroke="midnightblue" d="M468.47,-64.92C427.84,-54.31 375.7,-40.7 337.06,-30.61"/>
<polygon fill="midnightblue" stroke="midnightblue" points="467.72,-68.34 478.28,-67.48 469.49,-61.56 467.72,-68.34"/>
</g>
<!-- Node4 -->
<g id="node4" class="node">
<title>Node4</title>
<g id="a_node4"><a xlink:href="../../d5/d01/_explosion_8cpp.html" target="_top" xlink:title=" ">
<polygon fill="white" stroke="black" points="384.5,-0.5 384.5,-30.5 523.5,-30.5 523.5,-0.5 384.5,-0.5"/>
<text text-anchor="start" x="392.5" y="-18.5" font-family="Helvetica,sans-Serif" font-size="10.00">RayLib_SHMUP/src/Shmup</text>
<text text-anchor="middle" x="454" y="-7.5" font-family="Helvetica,sans-Serif" font-size="10.00">/Explosion.cpp</text>
</a>
</g>
</g>
<!-- Node1&#45;&gt;Node4 -->
<g id="edge3" class="edge">
<title>Node1&#45;&gt;Node4</title>
<path fill="none" stroke="midnightblue" d="M507.26,-60.88C495.41,-51.01 481.52,-39.43 470.89,-30.58"/>
<polygon fill="midnightblue" stroke="midnightblue" points="505.15,-63.68 515.08,-67.4 509.63,-58.31 505.15,-63.68"/>
</g>
<!-- Node5 -->
<g id="node5" class="node">
<title>Node5</title>
<g id="a_node5"><a xlink:href="../../de/d34/_enemy_8cpp.html" target="_top" xlink:title=" ">
<polygon fill="white" stroke="black" points="541.5,-0.5 541.5,-30.5 680.5,-30.5 680.5,-0.5 541.5,-0.5"/>
<text text-anchor="start" x="549.5" y="-18.5" font-family="Helvetica,sans-Serif" font-size="10.00">RayLib_SHMUP/src/Shmup</text>
<text text-anchor="middle" x="611" y="-7.5" font-family="Helvetica,sans-Serif" font-size="10.00">/Movable/Enemy.cpp</text>
</a>
</g>
</g>
<!-- Node1&#45;&gt;Node5 -->
<g id="edge4" class="edge">
<title>Node1&#45;&gt;Node5</title>
<path fill="none" stroke="midnightblue" d="M557.06,-60.88C569.06,-51.01 583.13,-39.43 593.89,-30.58"/>
<polygon fill="midnightblue" stroke="midnightblue" points="554.64,-58.34 549.14,-67.4 559.09,-63.75 554.64,-58.34"/>
</g>
<!-- Node6 -->
<g id="node6" class="node">
<title>Node6</title>
<g id="a_node6"><a xlink:href="../../d2/d82/_player_8cpp.html" target="_top" xlink:title=" ">
<polygon fill="white" stroke="black" points="698.5,-0.5 698.5,-30.5 837.5,-30.5 837.5,-0.5 698.5,-0.5"/>
<text text-anchor="start" x="706.5" y="-18.5" font-family="Helvetica,sans-Serif" font-size="10.00">RayLib_SHMUP/src/Shmup</text>
<text text-anchor="middle" x="768" y="-7.5" font-family="Helvetica,sans-Serif" font-size="10.00">/Movable/Player.cpp</text>
</a>
</g>
</g>
<!-- Node1&#45;&gt;Node6 -->
<g id="edge5" class="edge">
<title>Node1&#45;&gt;Node6</title>
<path fill="none" stroke="midnightblue" d="M592.94,-64.71C631.35,-54.14 680.37,-40.63 716.77,-30.61"/>
<polygon fill="midnightblue" stroke="midnightblue" points="591.63,-61.45 582.92,-67.48 593.49,-68.19 591.63,-61.45"/>
</g>
<!-- Node7 -->
<g id="node7" class="node">
<title>Node7</title>
<g id="a_node7"><a xlink:href="../../d6/dae/_shoot_8cpp.html" target="_top" xlink:title=" ">
<polygon fill="white" stroke="black" points="855.5,-0.5 855.5,-30.5 994.5,-30.5 994.5,-0.5 855.5,-0.5"/>
<text text-anchor="start" x="863.5" y="-18.5" font-family="Helvetica,sans-Serif" font-size="10.00">RayLib_SHMUP/src/Shmup</text>
<text text-anchor="middle" x="925" y="-7.5" font-family="Helvetica,sans-Serif" font-size="10.00">/Movable/Shoot.cpp</text>
</a>
</g>
</g>
<!-- Node1&#45;&gt;Node7 -->
<g id="edge6" class="edge">
<title>Node1&#45;&gt;Node7</title>
<path fill="none" stroke="midnightblue" d="M603.02,-70.63C666.92,-60.73 763.34,-45.48 847,-31 849.71,-30.53 852.48,-30.05 855.27,-29.55"/>
<polygon fill="midnightblue" stroke="midnightblue" points="602.4,-67.18 593.05,-72.17 603.47,-74.1 602.4,-67.18"/>
</g>
</g>
</svg>
