<?xml version="1.0" encoding="UTF-8" standalone="no"?>
<!DOCTYPE svg PUBLIC "-//W3C//DTD SVG 1.1//EN"
 "http://www.w3.org/Graphics/SVG/1.1/DTD/svg11.dtd">
<!-- Generated by graphviz version 2.49.3 (20211027.1534)
 -->
<!-- Title: ACollider Pages: 1 -->
<svg width="154pt" height="95pt"
 viewBox="0.00 0.00 153.50 95.00" xmlns="http://www.w3.org/2000/svg" xmlns:xlink="http://www.w3.org/1999/xlink">
<g id="graph0" class="graph" transform="scale(1 1) rotate(0) translate(4 91)">
<title>ACollider</title>
<polygon fill="white" stroke="transparent" points="-4,4 -4,-91 149.5,-91 149.5,4 -4,4"/>
<!-- Node1 -->
<g id="node1" class="node">
<title>Node1</title>
<g id="a_node1"><a xlink:title="Contains collider&#39;s data the without the transform">
<polygon fill="#bfbfbf" stroke="black" points="38,-0.5 38,-19.5 94,-19.5 94,-0.5 38,-0.5"/>
<text text-anchor="middle" x="66" y="-7.5" font-family="Helvetica,sans-Serif" font-size="10.00">ACollider</text>
</a>
</g>
</g>
<!-- Node2 -->
<g id="node2" class="node">
<title>Node2</title>
<g id="a_node2"><a xlink:title=" ">
<polygon fill="white" stroke="#bfbfbf" points="0,-67.5 0,-86.5 50,-86.5 50,-67.5 0,-67.5"/>
<text text-anchor="middle" x="25" y="-74.5" font-family="Helvetica,sans-Serif" font-size="10.00">Vector2</text>
</a>
</g>
</g>
<!-- Node2&#45;&gt;Node1 -->
<g id="edge1" class="edge">
<title>Node2&#45;&gt;Node1</title>
<path fill="none" stroke="#9a32cd" stroke-dasharray="5,2" d="M36.02,-58.53C43.95,-45.95 54.33,-29.51 60.56,-19.63"/>
<polygon fill="#9a32cd" stroke="#9a32cd" points="32.9,-56.91 30.53,-67.23 38.82,-60.64 32.9,-56.91"/>
<text text-anchor="middle" x="60" y="-41" font-family="Helvetica,sans-Serif" font-size="10.00"> pivot</text>
</g>
<!-- Node3 -->
<g id="node3" class="node">
<title>Node3</title>
<g id="a_node3"><a xlink:title=" ">
<polygon fill="white" stroke="#bfbfbf" points="68.5,-67.5 68.5,-86.5 145.5,-86.5 145.5,-67.5 68.5,-67.5"/>
<text text-anchor="middle" x="107" y="-74.5" font-family="Helvetica,sans-Serif" font-size="10.00">CollisionLayer</text>
</a>
</g>
</g>
<!-- Node3&#45;&gt;Node1 -->
<g id="edge2" class="edge">
<title>Node3&#45;&gt;Node1</title>
<path fill="none" stroke="#9a32cd" stroke-dasharray="5,2" d="M95.98,-58.53C88.05,-45.95 77.67,-29.51 71.44,-19.63"/>
<polygon fill="#9a32cd" stroke="#9a32cd" points="93.18,-60.64 101.47,-67.23 99.1,-56.91 93.18,-60.64"/>
<text text-anchor="middle" x="99.5" y="-41" font-family="Helvetica,sans-Serif" font-size="10.00"> layer</text>
</g>
</g>
</svg>
