<?xml version="1.0" encoding="UTF-8" standalone="no"?>
<!DOCTYPE svg PUBLIC "-//W3C//DTD SVG 1.1//EN"
 "http://www.w3.org/Graphics/SVG/1.1/DTD/svg11.dtd">
<!-- Generated by graphviz version 2.49.3 (20211027.1534)
 -->
<!-- Title: RayLib_SHMUP/src/Shmup/Collision/CollisionManager.cpp Pages: 1 -->
<svg width="431pt" height="341pt"
 viewBox="0.00 0.00 431.17 341.00" xmlns="http://www.w3.org/2000/svg" xmlns:xlink="http://www.w3.org/1999/xlink">
<g id="graph0" class="graph" transform="scale(1 1) rotate(0) translate(4 337)">
<title>RayLib_SHMUP/src/Shmup/Collision/CollisionManager.cpp</title>
<polygon fill="white" stroke="transparent" points="-4,4 -4,-337 427.17,-337 427.17,4 -4,4"/>
<!-- Node1 -->
<g id="node1" class="node">
<title>Node1</title>
<g id="a_node1"><a xlink:title=" ">
<polygon fill="#bfbfbf" stroke="black" points="153.17,-302.5 153.17,-332.5 305.17,-332.5 305.17,-302.5 153.17,-302.5"/>
<text text-anchor="start" x="161.17" y="-320.5" font-family="Helvetica,sans-Serif" font-size="10.00">RayLib_SHMUP/src/Shmup</text>
<text text-anchor="middle" x="229.17" y="-309.5" font-family="Helvetica,sans-Serif" font-size="10.00">/Collision/CollisionManager.cpp</text>
</a>
</g>
</g>
<!-- Node2 -->
<g id="node2" class="node">
<title>Node2</title>
<g id="a_node2"><a xlink:href="../../d7/d3e/_collision_manager_8h.html" target="_top" xlink:title=" ">
<polygon fill="white" stroke="black" points="37.67,-235.5 37.67,-265.5 164.67,-265.5 164.67,-235.5 37.67,-235.5"/>
<text text-anchor="start" x="45.67" y="-253.5" font-family="Helvetica,sans-Serif" font-size="10.00">Shmup/Collision/Collision</text>
<text text-anchor="middle" x="101.17" y="-242.5" font-family="Helvetica,sans-Serif" font-size="10.00">Manager.h</text>
</a>
</g>
</g>
<!-- Node1&#45;&gt;Node2 -->
<g id="edge1" class="edge">
<title>Node1&#45;&gt;Node2</title>
<path fill="none" stroke="midnightblue" d="M201.4,-302.4C182.78,-292.94 158.06,-280.39 137.83,-270.12"/>
<polygon fill="midnightblue" stroke="midnightblue" points="139.39,-266.98 128.89,-265.58 136.23,-273.23 139.39,-266.98"/>
</g>
<!-- Node6 -->
<g id="node6" class="node">
<title>Node6</title>
<g id="a_node6"><a xlink:href="../../d3/d72/_a_collidable_8h.html" target="_top" xlink:title=" ">
<polygon fill="white" stroke="black" points="137.17,-179.5 137.17,-198.5 283.17,-198.5 283.17,-179.5 137.17,-179.5"/>
<text text-anchor="middle" x="210.17" y="-186.5" font-family="Helvetica,sans-Serif" font-size="10.00">Shmup/Collision/ACollidable.h</text>
</a>
</g>
</g>
<!-- Node1&#45;&gt;Node6 -->
<g id="edge15" class="edge">
<title>Node1&#45;&gt;Node6</title>
<path fill="none" stroke="midnightblue" d="M227.07,-302.48C223.63,-279.62 216.83,-234.3 212.98,-208.71"/>
<polygon fill="midnightblue" stroke="midnightblue" points="216.44,-208.16 211.49,-198.79 209.52,-209.2 216.44,-208.16"/>
</g>
<!-- Node12 -->
<g id="node12" class="node">
<title>Node12</title>
<g id="a_node12"><a xlink:href="../../d8/d97/_instance_list_8hpp.html" target="_top" xlink:title=" ">
<polygon fill="white" stroke="black" points="301.17,-179.5 301.17,-198.5 423.17,-198.5 423.17,-179.5 301.17,-179.5"/>
<text text-anchor="middle" x="362.17" y="-186.5" font-family="Helvetica,sans-Serif" font-size="10.00">Shmup/InstanceList.hpp</text>
</a>
</g>
</g>
<!-- Node1&#45;&gt;Node12 -->
<g id="edge16" class="edge">
<title>Node1&#45;&gt;Node12</title>
<path fill="none" stroke="midnightblue" d="M232.56,-302.39C237.47,-284.64 248.13,-254.16 267.17,-235 282.11,-219.97 303.05,-209.31 321.46,-202.16"/>
<polygon fill="midnightblue" stroke="midnightblue" points="322.91,-205.36 331.1,-198.64 320.51,-198.78 322.91,-205.36"/>
</g>
<!-- Node13 -->
<g id="node13" class="node">
<title>Node13</title>
<g id="a_node13"><a xlink:title=" ">
<polygon fill="white" stroke="#bfbfbf" points="276.17,-241 276.17,-260 332.17,-260 332.17,-241 276.17,-241"/>
<text text-anchor="middle" x="304.17" y="-248" font-family="Helvetica,sans-Serif" font-size="10.00">algorithm</text>
</a>
</g>
</g>
<!-- Node1&#45;&gt;Node13 -->
<g id="edge18" class="edge">
<title>Node1&#45;&gt;Node13</title>
<path fill="none" stroke="midnightblue" d="M245.45,-302.4C257.49,-291.96 273.88,-277.75 286.29,-267"/>
<polygon fill="midnightblue" stroke="midnightblue" points="288.88,-269.39 294.14,-260.19 284.29,-264.1 288.88,-269.39"/>
</g>
<!-- Node3 -->
<g id="node3" class="node">
<title>Node3</title>
<g id="a_node3"><a xlink:title=" ">
<polygon fill="white" stroke="#bfbfbf" points="52.17,-0.5 52.17,-19.5 96.17,-19.5 96.17,-0.5 52.17,-0.5"/>
<text text-anchor="middle" x="74.17" y="-7.5" font-family="Helvetica,sans-Serif" font-size="10.00">vector</text>
</a>
</g>
</g>
<!-- Node2&#45;&gt;Node3 -->
<g id="edge2" class="edge">
<title>Node2&#45;&gt;Node3</title>
<path fill="none" stroke="midnightblue" d="M88.66,-235.13C66.24,-208.28 20.08,-147.71 4.17,-87 0.68,-73.67 -2.43,-68.09 4.17,-56 12.47,-40.81 28.32,-29.99 42.85,-22.77"/>
<polygon fill="midnightblue" stroke="midnightblue" points="44.47,-25.87 52.11,-18.53 41.56,-19.51 44.47,-25.87"/>
</g>
<!-- Node4 -->
<g id="node4" class="node">
<title>Node4</title>
<g id="a_node4"><a xlink:title=" ">
<polygon fill="white" stroke="#bfbfbf" points="83.67,-179.5 83.67,-198.5 118.67,-198.5 118.67,-179.5 83.67,-179.5"/>
<text text-anchor="middle" x="101.17" y="-186.5" font-family="Helvetica,sans-Serif" font-size="10.00">map</text>
</a>
</g>
</g>
<!-- Node2&#45;&gt;Node4 -->
<g id="edge3" class="edge">
<title>Node2&#45;&gt;Node4</title>
<path fill="none" stroke="midnightblue" d="M101.17,-235.4C101.17,-227.47 101.17,-217.46 101.17,-208.86"/>
<polygon fill="midnightblue" stroke="midnightblue" points="104.67,-208.66 101.17,-198.66 97.67,-208.66 104.67,-208.66"/>
</g>
<!-- Node5 -->
<g id="node5" class="node">
<title>Node5</title>
<g id="a_node5"><a xlink:href="../../de/d60/_collider_settings_8h.html" target="_top" xlink:title=" ">
<polygon fill="white" stroke="black" points="13.17,-56.5 13.17,-86.5 135.17,-86.5 135.17,-56.5 13.17,-56.5"/>
<text text-anchor="start" x="21.17" y="-74.5" font-family="Helvetica,sans-Serif" font-size="10.00">Shmup/Collision/Collider</text>
<text text-anchor="middle" x="74.17" y="-63.5" font-family="Helvetica,sans-Serif" font-size="10.00">Settings.h</text>
</a>
</g>
</g>
<!-- Node2&#45;&gt;Node5 -->
<g id="edge4" class="edge">
<title>Node2&#45;&gt;Node5</title>
<path fill="none" stroke="midnightblue" d="M91.1,-235.26C84.87,-225.55 77.46,-212.12 74.17,-199 65.49,-164.33 67.85,-122.61 70.72,-96.82"/>
<polygon fill="midnightblue" stroke="midnightblue" points="74.2,-97.17 71.95,-86.81 67.25,-96.31 74.2,-97.17"/>
</g>
<!-- Node2&#45;&gt;Node6 -->
<g id="edge6" class="edge">
<title>Node2&#45;&gt;Node6</title>
<path fill="none" stroke="midnightblue" d="M127.01,-235.4C144.64,-225.77 167.87,-213.09 185.3,-203.58"/>
<polygon fill="midnightblue" stroke="midnightblue" points="187.21,-206.52 194.31,-198.66 183.86,-200.38 187.21,-206.52"/>
</g>
<!-- Node5&#45;&gt;Node3 -->
<g id="edge5" class="edge">
<title>Node5&#45;&gt;Node3</title>
<path fill="none" stroke="midnightblue" d="M74.17,-56.4C74.17,-48.47 74.17,-38.46 74.17,-29.86"/>
<polygon fill="midnightblue" stroke="midnightblue" points="77.67,-29.66 74.17,-19.66 70.67,-29.66 77.67,-29.66"/>
</g>
<!-- Node7 -->
<g id="node7" class="node">
<title>Node7</title>
<g id="a_node7"><a xlink:href="../../d5/d36/_collider_8h.html" target="_top" xlink:title=" ">
<polygon fill="white" stroke="black" points="145.17,-123.5 145.17,-142.5 275.17,-142.5 275.17,-123.5 145.17,-123.5"/>
<text text-anchor="middle" x="210.17" y="-130.5" font-family="Helvetica,sans-Serif" font-size="10.00">Shmup/Collision/Collider.h</text>
</a>
</g>
</g>
<!-- Node6&#45;&gt;Node7 -->
<g id="edge7" class="edge">
<title>Node6&#45;&gt;Node7</title>
<path fill="none" stroke="midnightblue" d="M210.17,-179.08C210.17,-172.01 210.17,-161.86 210.17,-152.99"/>
<polygon fill="midnightblue" stroke="midnightblue" points="213.67,-152.75 210.17,-142.75 206.67,-152.75 213.67,-152.75"/>
</g>
<!-- Node10 -->
<g id="node10" class="node">
<title>Node10</title>
<g id="a_node10"><a xlink:href="../../dc/d80/_instance_list_8h.html" target="_top" xlink:title=" ">
<polygon fill="white" stroke="black" points="299.17,-123.5 299.17,-142.5 411.17,-142.5 411.17,-123.5 299.17,-123.5"/>
<text text-anchor="middle" x="355.17" y="-130.5" font-family="Helvetica,sans-Serif" font-size="10.00">Shmup/InstanceList.h</text>
</a>
</g>
</g>
<!-- Node6&#45;&gt;Node10 -->
<g id="edge12" class="edge">
<title>Node6&#45;&gt;Node10</title>
<path fill="none" stroke="midnightblue" d="M233.15,-179.44C257.33,-170.44 295.59,-156.19 322.82,-146.05"/>
<polygon fill="midnightblue" stroke="midnightblue" points="324.16,-149.29 332.31,-142.52 321.71,-142.73 324.16,-149.29"/>
</g>
<!-- Node7&#45;&gt;Node5 -->
<g id="edge11" class="edge">
<title>Node7&#45;&gt;Node5</title>
<path fill="none" stroke="midnightblue" d="M190.69,-123.48C171.15,-114.93 140.46,-101.5 115.48,-90.57"/>
<polygon fill="midnightblue" stroke="midnightblue" points="116.79,-87.32 106.23,-86.52 113.99,-93.74 116.79,-87.32"/>
</g>
<!-- Node8 -->
<g id="node8" class="node">
<title>Node8</title>
<g id="a_node8"><a xlink:title=" ">
<polygon fill="white" stroke="#bfbfbf" points="228.67,-0.5 228.67,-19.5 275.67,-19.5 275.67,-0.5 228.67,-0.5"/>
<text text-anchor="middle" x="252.17" y="-7.5" font-family="Helvetica,sans-Serif" font-size="10.00">raylib.h</text>
</a>
</g>
</g>
<!-- Node7&#45;&gt;Node8 -->
<g id="edge8" class="edge">
<title>Node7&#45;&gt;Node8</title>
<path fill="none" stroke="midnightblue" d="M232.63,-123.38C247.94,-116.18 267.04,-104.29 276.17,-87 286.23,-67.98 275.21,-44.03 265.02,-28.15"/>
<polygon fill="midnightblue" stroke="midnightblue" points="267.84,-26.07 259.27,-19.84 262.08,-30.05 267.84,-26.07"/>
</g>
<!-- Node9 -->
<g id="node9" class="node">
<title>Node9</title>
<g id="a_node9"><a xlink:href="../../da/d02/_transform2_d_8h.html" target="_top" xlink:title=" ">
<polygon fill="white" stroke="black" points="153.17,-62 153.17,-81 267.17,-81 267.17,-62 153.17,-62"/>
<text text-anchor="middle" x="210.17" y="-69" font-family="Helvetica,sans-Serif" font-size="10.00">Shmup/Transform2D.h</text>
</a>
</g>
</g>
<!-- Node7&#45;&gt;Node9 -->
<g id="edge9" class="edge">
<title>Node7&#45;&gt;Node9</title>
<path fill="none" stroke="midnightblue" d="M210.17,-123.48C210.17,-115.08 210.17,-101.98 210.17,-91.16"/>
<polygon fill="midnightblue" stroke="midnightblue" points="213.67,-91.01 210.17,-81.01 206.67,-91.01 213.67,-91.01"/>
</g>
<!-- Node9&#45;&gt;Node8 -->
<g id="edge10" class="edge">
<title>Node9&#45;&gt;Node8</title>
<path fill="none" stroke="midnightblue" d="M216.19,-61.98C222.43,-53.14 232.35,-39.09 240.19,-27.98"/>
<polygon fill="midnightblue" stroke="midnightblue" points="243.26,-29.7 246.17,-19.51 237.54,-25.66 243.26,-29.7"/>
</g>
<!-- Node10&#45;&gt;Node3 -->
<g id="edge14" class="edge">
<title>Node10&#45;&gt;Node3</title>
<path fill="none" stroke="midnightblue" d="M348.87,-123.37C336.71,-107.39 308.37,-73.28 276.17,-56 221.28,-26.53 148.07,-16.34 106.54,-12.83"/>
<polygon fill="midnightblue" stroke="midnightblue" points="106.69,-9.33 96.45,-12.06 106.16,-16.31 106.69,-9.33"/>
</g>
<!-- Node11 -->
<g id="node11" class="node">
<title>Node11</title>
<g id="a_node11"><a xlink:title=" ">
<polygon fill="white" stroke="#bfbfbf" points="361.17,-62 361.17,-81 415.17,-81 415.17,-62 361.17,-62"/>
<text text-anchor="middle" x="388.17" y="-69" font-family="Helvetica,sans-Serif" font-size="10.00">iostream</text>
</a>
</g>
</g>
<!-- Node10&#45;&gt;Node11 -->
<g id="edge13" class="edge">
<title>Node10&#45;&gt;Node11</title>
<path fill="none" stroke="midnightblue" d="M359.9,-123.48C364.75,-114.73 372.44,-100.87 378.57,-89.81"/>
<polygon fill="midnightblue" stroke="midnightblue" points="381.67,-91.45 383.45,-81.01 375.54,-88.06 381.67,-91.45"/>
</g>
<!-- Node12&#45;&gt;Node10 -->
<g id="edge17" class="edge">
<title>Node12&#45;&gt;Node10</title>
<path fill="none" stroke="midnightblue" d="M361.02,-179.08C360.09,-171.93 358.76,-161.64 357.6,-152.69"/>
<polygon fill="midnightblue" stroke="midnightblue" points="361.06,-152.22 356.31,-142.75 354.12,-153.12 361.06,-152.22"/>
</g>
</g>
</svg>
