<?xml version="1.0" encoding="UTF-8" standalone="no"?>
<!DOCTYPE svg PUBLIC "-//W3C//DTD SVG 1.1//EN"
 "http://www.w3.org/Graphics/SVG/1.1/DTD/svg11.dtd">
<!-- Generated by graphviz version 2.49.3 (20211027.1534)
 -->
<!-- Title: RayLib_SHMUP/src/Shmup/Paterns/Shoot/PaternRotate.cpp Pages: 1 -->
<!--zoomable 341 -->
<svg id="main" version="1.1" xmlns="http://www.w3.org/2000/svg" xmlns:xlink="http://www.w3.org/1999/xlink" xml:space="preserve" onload="init(evt)">
<style type="text/css"><![CDATA[
.edge:hover path { stroke: red; }
.edge:hover polygon { stroke: red; fill: red; }
]]></style>
<script type="text/javascript"><![CDATA[
var edges = document.getElementsByTagName('g');
if (edges && edges.length) {
  for (var i=0;i<edges.length;i++) {
    if (edges[i].id.substr(0,4)=='edge') {
      edges[i].setAttribute('class','edge');
    }
  }
}
]]></script>
        <defs>
                <circle id="rim" cx="0" cy="0" r="7"/>
                <circle id="rim2" cx="0" cy="0" r="3.5"/>
                <g id="zoomPlus">
                        <use xlink:href="#rim" fill="#404040">
                                <set attributeName="fill" to="#808080" begin="zoomplus.mouseover" end="zoomplus.mouseout"/>
                        </use>
                        <path d="M-4,0h8M0,-4v8" fill="none" stroke="white" stroke-width="1.5" pointer-events="none"/>
                </g>
                <g id="zoomMin">
                        <use xlink:href="#rim" fill="#404040">
                                <set attributeName="fill" to="#808080" begin="zoomminus.mouseover" end="zoomminus.mouseout"/>
                        </use>
                        <path d="M-4,0h8" fill="none" stroke="white" stroke-width="1.5" pointer-events="none"/>
                </g>
                <g id="dirArrow">
                        <path fill="none" stroke="white" stroke-width="1.5" d="M0,-3.0v7 M-2.5,-0.5L0,-3.0L2.5,-0.5"/>
                </g>
               <g id="resetDef">
                       <use xlink:href="#rim2" fill="#404040">
                               <set attributeName="fill" to="#808080" begin="reset.mouseover" end="reset.mouseout"/>
                       </use>
               </g>
        </defs>

<script type="text/javascript">
var viewWidth = 956;
var viewHeight = 341;
var sectionId = 'dynsection-0';
</script>
<script xlink:href="../../svgpan.js"/>
<svg id="graph" class="graph">
<g id="viewport">
<title>RayLib_SHMUP/src/Shmup/Paterns/Shoot/PaternRotate.cpp</title>
<polygon fill="white" stroke="transparent" points="-4,4 -4,-337 952,-337 952,4 -4,4"/>
<!-- Node1 -->
<g id="node1" class="node">
<title>Node1</title>
<g id="a_node1"><a xlink:title=" ">
<polygon fill="#bfbfbf" stroke="black" points="132,-302.5 132,-332.5 292,-332.5 292,-302.5 132,-302.5"/>
<text text-anchor="start" x="140" y="-320.5" font-family="Helvetica,sans-Serif" font-size="10.00">RayLib_SHMUP/src/Shmup</text>
<text text-anchor="middle" x="212" y="-309.5" font-family="Helvetica,sans-Serif" font-size="10.00">/Paterns/Shoot/PaternRotate.cpp</text>
</a>
</g>
</g>
<!-- Node2 -->
<g id="node2" class="node">
<title>Node2</title>
<g id="a_node2"><a xlink:title=" ">
<polygon fill="white" stroke="#bfbfbf" points="436.5,-0.5 436.5,-19.5 483.5,-19.5 483.5,-0.5 436.5,-0.5"/>
<text text-anchor="middle" x="460" y="-7.5" font-family="Helvetica,sans-Serif" font-size="10.00">raylib.h</text>
</a>
</g>
</g>
<!-- Node1&#45;&gt;Node2 -->
<g id="edge1" class="edge">
<title>Node1&#45;&gt;Node2</title>
<path fill="none" stroke="midnightblue" d="M133.06,-302.46C72.78,-286.67 0,-254.29 0,-190 0,-190 0,-190 0,-132 0,-43.88 319.71,-18.59 426.06,-12.62"/>
<polygon fill="midnightblue" stroke="midnightblue" points="426.44,-16.1 436.24,-12.07 426.06,-9.11 426.44,-16.1"/>
</g>
<!-- Node3 -->
<g id="node3" class="node">
<title>Node3</title>
<g id="a_node3"><a xlink:title=" ">
<polygon fill="white" stroke="#bfbfbf" points="116.5,-179.5 116.5,-198.5 175.5,-198.5 175.5,-179.5 116.5,-179.5"/>
<text text-anchor="middle" x="146" y="-186.5" font-family="Helvetica,sans-Serif" font-size="10.00">raymath.h</text>
</a>
</g>
</g>
<!-- Node1&#45;&gt;Node3 -->
<g id="edge2" class="edge">
<title>Node1&#45;&gt;Node3</title>
<path fill="none" stroke="midnightblue" d="M131.65,-309.52C103.39,-302.74 74.37,-289.93 57,-266 48.91,-254.85 49.78,-246.74 57,-235 67.92,-217.25 88.24,-206.24 106.72,-199.56"/>
<polygon fill="midnightblue" stroke="midnightblue" points="108.03,-202.81 116.43,-196.36 105.84,-196.16 108.03,-202.81"/>
</g>
<!-- Node4 -->
<g id="node4" class="node">
<title>Node4</title>
<g id="a_node4"><a xlink:href="../../d5/daf/_game_status_8h.html" target="_top" xlink:title=" ">
<polygon fill="white" stroke="black" points="66,-241 66,-260 206,-260 206,-241 66,-241"/>
<text text-anchor="middle" x="136" y="-248" font-family="Helvetica,sans-Serif" font-size="10.00">Namespaces/GameStatus.h</text>
</a>
</g>
</g>
<!-- Node1&#45;&gt;Node4 -->
<g id="edge3" class="edge">
<title>Node1&#45;&gt;Node4</title>
<path fill="none" stroke="midnightblue" d="M195.51,-302.4C183.31,-291.96 166.69,-277.75 154.12,-267"/>
<polygon fill="midnightblue" stroke="midnightblue" points="156.04,-264.03 146.17,-260.19 151.49,-269.35 156.04,-264.03"/>
</g>
<!-- Node5 -->
<g id="node5" class="node">
<title>Node5</title>
<g id="a_node5"><a xlink:href="../../d2/da5/_math_utils_8h.html" target="_top" xlink:title=" ">
<polygon fill="white" stroke="black" points="224.5,-241 224.5,-260 351.5,-260 351.5,-241 224.5,-241"/>
<text text-anchor="middle" x="288" y="-248" font-family="Helvetica,sans-Serif" font-size="10.00">Namespaces/MathUtils.h</text>
</a>
</g>
</g>
<!-- Node1&#45;&gt;Node5 -->
<g id="edge4" class="edge">
<title>Node1&#45;&gt;Node5</title>
<path fill="none" stroke="midnightblue" d="M228.49,-302.4C240.69,-291.96 257.31,-277.75 269.88,-267"/>
<polygon fill="midnightblue" stroke="midnightblue" points="272.51,-269.35 277.83,-260.19 267.96,-264.03 272.51,-269.35"/>
</g>
<!-- Node6 -->
<g id="node6" class="node">
<title>Node6</title>
<g id="a_node6"><a xlink:href="../../d2/dff/_patern_rotate_8h.html" target="_top" xlink:title=" ">
<polygon fill="white" stroke="black" points="369.5,-235.5 369.5,-265.5 482.5,-265.5 482.5,-235.5 369.5,-235.5"/>
<text text-anchor="start" x="377.5" y="-253.5" font-family="Helvetica,sans-Serif" font-size="10.00">Shmup/Paterns/Shoot</text>
<text text-anchor="middle" x="426" y="-242.5" font-family="Helvetica,sans-Serif" font-size="10.00">/PaternRotate.h</text>
</a>
</g>
</g>
<!-- Node1&#45;&gt;Node6 -->
<g id="edge7" class="edge">
<title>Node1&#45;&gt;Node6</title>
<path fill="none" stroke="midnightblue" d="M258.17,-302.48C290.83,-292.56 334.8,-279.2 369.54,-268.65"/>
<polygon fill="midnightblue" stroke="midnightblue" points="370.99,-271.87 379.54,-265.61 368.96,-265.17 370.99,-271.87"/>
</g>
<!-- Node8 -->
<g id="node8" class="node">
<title>Node8</title>
<g id="a_node8"><a xlink:href="../../de/d15/_shoot_8h.html" target="_top" xlink:title=" ">
<polygon fill="white" stroke="black" points="500.5,-241 500.5,-260 623.5,-260 623.5,-241 500.5,-241"/>
<text text-anchor="middle" x="562" y="-248" font-family="Helvetica,sans-Serif" font-size="10.00">Shmup/Movable/Shoot.h</text>
</a>
</g>
</g>
<!-- Node1&#45;&gt;Node8 -->
<g id="edge9" class="edge">
<title>Node1&#45;&gt;Node8</title>
<path fill="none" stroke="midnightblue" d="M292.06,-302.5C347.88,-292.62 424.05,-278.89 491,-266 497.56,-264.74 504.45,-263.37 511.25,-262.01"/>
<polygon fill="midnightblue" stroke="midnightblue" points="512,-265.43 521.11,-260.01 510.61,-258.57 512,-265.43"/>
</g>
<!-- Node5&#45;&gt;Node2 -->
<g id="edge5" class="edge">
<title>Node5&#45;&gt;Node2</title>
<path fill="none" stroke="midnightblue" d="M290.58,-240.84C294.89,-227.11 304.32,-199.79 317,-179 354.74,-117.13 414.81,-54.94 443.58,-26.7"/>
<polygon fill="midnightblue" stroke="midnightblue" points="446.09,-29.15 450.83,-19.67 441.22,-24.13 446.09,-29.15"/>
</g>
<!-- Node5&#45;&gt;Node3 -->
<g id="edge6" class="edge">
<title>Node5&#45;&gt;Node3</title>
<path fill="none" stroke="midnightblue" d="M267.65,-240.98C243.61,-230.9 203.4,-214.05 175.84,-202.5"/>
<polygon fill="midnightblue" stroke="midnightblue" points="176.88,-199.15 166.31,-198.51 174.18,-205.6 176.88,-199.15"/>
</g>
<!-- Node7 -->
<g id="node7" class="node">
<title>Node7</title>
<g id="a_node7"><a xlink:href="../../df/d50/_a_patern_8h.html" target="_top" xlink:title=" ">
<polygon fill="white" stroke="black" points="326.5,-179.5 326.5,-198.5 393.5,-198.5 393.5,-179.5 326.5,-179.5"/>
<text text-anchor="middle" x="360" y="-186.5" font-family="Helvetica,sans-Serif" font-size="10.00">../APatern.h</text>
</a>
</g>
</g>
<!-- Node6&#45;&gt;Node7 -->
<g id="edge8" class="edge">
<title>Node6&#45;&gt;Node7</title>
<path fill="none" stroke="midnightblue" d="M410.36,-235.4C400.37,-226.4 387.42,-214.72 377.15,-205.47"/>
<polygon fill="midnightblue" stroke="midnightblue" points="379.37,-202.75 369.6,-198.66 374.69,-207.95 379.37,-202.75"/>
</g>
<!-- Node8&#45;&gt;Node2 -->
<g id="edge10" class="edge">
<title>Node8&#45;&gt;Node2</title>
<path fill="none" stroke="midnightblue" d="M546.39,-240.97C531.94,-232.29 510.95,-217.48 499,-199 464.19,-145.19 459.67,-66.16 459.58,-30.15"/>
<polygon fill="midnightblue" stroke="midnightblue" points="463.08,-29.72 459.68,-19.68 456.08,-29.65 463.08,-29.72"/>
</g>
<!-- Node8&#45;&gt;Node7 -->
<g id="edge20" class="edge">
<title>Node8&#45;&gt;Node7</title>
<path fill="none" stroke="midnightblue" d="M533.06,-240.98C497.73,-230.57 437.87,-212.94 398.64,-201.38"/>
<polygon fill="midnightblue" stroke="midnightblue" points="399.47,-197.98 388.89,-198.51 397.49,-204.69 399.47,-197.98"/>
</g>
<!-- Node9 -->
<g id="node9" class="node">
<title>Node9</title>
<g id="a_node9"><a xlink:href="../../db/d1b/_a_movable_8h.html" target="_top" xlink:title=" ">
<polygon fill="white" stroke="black" points="508.5,-179.5 508.5,-198.5 609.5,-198.5 609.5,-179.5 508.5,-179.5"/>
<text text-anchor="middle" x="559" y="-186.5" font-family="Helvetica,sans-Serif" font-size="10.00">Shmup/AMovable.h</text>
</a>
</g>
</g>
<!-- Node8&#45;&gt;Node9 -->
<g id="edge11" class="edge">
<title>Node8&#45;&gt;Node9</title>
<path fill="none" stroke="midnightblue" d="M561.57,-240.98C561.15,-232.58 560.49,-219.48 559.94,-208.66"/>
<polygon fill="midnightblue" stroke="midnightblue" points="563.43,-208.32 559.43,-198.51 556.44,-208.67 563.43,-208.32"/>
</g>
<!-- Node15 -->
<g id="node15" class="node">
<title>Node15</title>
<g id="a_node15"><a xlink:href="../../d5/d36/_collider_8h.html" target="_top" xlink:title=" ">
<polygon fill="white" stroke="black" points="733,-123.5 733,-142.5 863,-142.5 863,-123.5 733,-123.5"/>
<text text-anchor="middle" x="798" y="-130.5" font-family="Helvetica,sans-Serif" font-size="10.00">Shmup/Collision/Collider.h</text>
</a>
</g>
</g>
<!-- Node8&#45;&gt;Node15 -->
<g id="edge21" class="edge">
<title>Node8&#45;&gt;Node15</title>
<path fill="none" stroke="midnightblue" d="M623.6,-242.76C680.96,-235.23 760.85,-221.1 783,-199 795.03,-186.99 798.2,-167.39 798.71,-152.85"/>
<polygon fill="midnightblue" stroke="midnightblue" points="802.21,-152.5 798.67,-142.51 795.21,-152.52 802.21,-152.5"/>
</g>
<!-- Node17 -->
<g id="node17" class="node">
<title>Node17</title>
<g id="a_node17"><a xlink:href="../../d3/d72/_a_collidable_8h.html" target="_top" xlink:title=" ">
<polygon fill="white" stroke="black" points="628,-179.5 628,-198.5 774,-198.5 774,-179.5 628,-179.5"/>
<text text-anchor="middle" x="701" y="-186.5" font-family="Helvetica,sans-Serif" font-size="10.00">Shmup/Collision/ACollidable.h</text>
</a>
</g>
</g>
<!-- Node8&#45;&gt;Node17 -->
<g id="edge26" class="edge">
<title>Node8&#45;&gt;Node17</title>
<path fill="none" stroke="midnightblue" d="M581.92,-240.98C605.45,-230.9 644.81,-214.05 671.79,-202.5"/>
<polygon fill="midnightblue" stroke="midnightblue" points="673.31,-205.66 681.12,-198.51 670.55,-199.23 673.31,-205.66"/>
</g>
<!-- Node9&#45;&gt;Node2 -->
<g id="edge12" class="edge">
<title>Node9&#45;&gt;Node2</title>
<path fill="none" stroke="midnightblue" d="M548.95,-179.48C539.35,-170.96 524.91,-157.13 515,-143 489.43,-106.54 472.69,-56.37 464.96,-29.6"/>
<polygon fill="midnightblue" stroke="midnightblue" points="468.25,-28.37 462.2,-19.67 461.5,-30.24 468.25,-28.37"/>
</g>
<!-- Node10 -->
<g id="node10" class="node">
<title>Node10</title>
<g id="a_node10"><a xlink:href="../../d7/daf/_a_graphic_object_8h.html" target="_top" xlink:title=" ">
<polygon fill="white" stroke="black" points="524.5,-123.5 524.5,-142.5 617.5,-142.5 617.5,-123.5 524.5,-123.5"/>
<text text-anchor="middle" x="571" y="-130.5" font-family="Helvetica,sans-Serif" font-size="10.00">AGraphicObject.h</text>
</a>
</g>
</g>
<!-- Node9&#45;&gt;Node10 -->
<g id="edge13" class="edge">
<title>Node9&#45;&gt;Node10</title>
<path fill="none" stroke="midnightblue" d="M560.98,-179.08C562.57,-171.93 564.86,-161.64 566.85,-152.69"/>
<polygon fill="midnightblue" stroke="midnightblue" points="570.3,-153.27 569.06,-142.75 563.47,-151.75 570.3,-153.27"/>
</g>
<!-- Node10&#45;&gt;Node2 -->
<g id="edge14" class="edge">
<title>Node10&#45;&gt;Node2</title>
<path fill="none" stroke="midnightblue" d="M559.16,-123.41C547.74,-114.84 530.28,-100.98 517,-87 499.34,-68.41 482.1,-44.36 471.29,-28.35"/>
<polygon fill="midnightblue" stroke="midnightblue" points="474.16,-26.35 465.72,-19.95 468.33,-30.22 474.16,-26.35"/>
</g>
<!-- Node11 -->
<g id="node11" class="node">
<title>Node11</title>
<g id="a_node11"><a xlink:href="../../dc/d80/_instance_list_8h.html" target="_top" xlink:title=" ">
<polygon fill="white" stroke="black" points="658,-62 658,-81 770,-81 770,-62 658,-62"/>
<text text-anchor="middle" x="714" y="-69" font-family="Helvetica,sans-Serif" font-size="10.00">Shmup/InstanceList.h</text>
</a>
</g>
</g>
<!-- Node10&#45;&gt;Node11 -->
<g id="edge15" class="edge">
<title>Node10&#45;&gt;Node11</title>
<path fill="none" stroke="midnightblue" d="M591.49,-123.48C615.81,-113.36 656.55,-96.4 684.32,-84.85"/>
<polygon fill="midnightblue" stroke="midnightblue" points="685.66,-88.08 693.55,-81.01 682.97,-81.62 685.66,-88.08"/>
</g>
<!-- Node14 -->
<g id="node14" class="node">
<title>Node14</title>
<g id="a_node14"><a xlink:href="../../da/d02/_transform2_d_8h.html" target="_top" xlink:title=" ">
<polygon fill="white" stroke="black" points="526,-62 526,-81 640,-81 640,-62 526,-62"/>
<text text-anchor="middle" x="583" y="-69" font-family="Helvetica,sans-Serif" font-size="10.00">Shmup/Transform2D.h</text>
</a>
</g>
</g>
<!-- Node10&#45;&gt;Node14 -->
<g id="edge18" class="edge">
<title>Node10&#45;&gt;Node14</title>
<path fill="none" stroke="midnightblue" d="M572.72,-123.48C574.43,-114.99 577.11,-101.7 579.3,-90.82"/>
<polygon fill="midnightblue" stroke="midnightblue" points="582.74,-91.5 581.28,-81.01 575.88,-90.12 582.74,-91.5"/>
</g>
<!-- Node12 -->
<g id="node12" class="node">
<title>Node12</title>
<g id="a_node12"><a xlink:title=" ">
<polygon fill="white" stroke="#bfbfbf" points="687,-0.5 687,-19.5 741,-19.5 741,-0.5 687,-0.5"/>
<text text-anchor="middle" x="714" y="-7.5" font-family="Helvetica,sans-Serif" font-size="10.00">iostream</text>
</a>
</g>
</g>
<!-- Node11&#45;&gt;Node12 -->
<g id="edge16" class="edge">
<title>Node11&#45;&gt;Node12</title>
<path fill="none" stroke="midnightblue" d="M714,-61.98C714,-53.58 714,-40.48 714,-29.66"/>
<polygon fill="midnightblue" stroke="midnightblue" points="717.5,-29.51 714,-19.51 710.5,-29.51 717.5,-29.51"/>
</g>
<!-- Node13 -->
<g id="node13" class="node">
<title>Node13</title>
<g id="a_node13"><a xlink:title=" ">
<polygon fill="white" stroke="#bfbfbf" points="812,-0.5 812,-19.5 856,-19.5 856,-0.5 812,-0.5"/>
<text text-anchor="middle" x="834" y="-7.5" font-family="Helvetica,sans-Serif" font-size="10.00">vector</text>
</a>
</g>
</g>
<!-- Node11&#45;&gt;Node13 -->
<g id="edge17" class="edge">
<title>Node11&#45;&gt;Node13</title>
<path fill="none" stroke="midnightblue" d="M731.19,-61.98C751.24,-52.03 784.6,-35.49 807.86,-23.96"/>
<polygon fill="midnightblue" stroke="midnightblue" points="809.43,-27.09 816.84,-19.51 806.32,-20.82 809.43,-27.09"/>
</g>
<!-- Node14&#45;&gt;Node2 -->
<g id="edge19" class="edge">
<title>Node14&#45;&gt;Node2</title>
<path fill="none" stroke="midnightblue" d="M565.38,-61.98C544.83,-52.03 510.64,-35.49 486.79,-23.96"/>
<polygon fill="midnightblue" stroke="midnightblue" points="488.12,-20.71 477.59,-19.51 485.07,-27.01 488.12,-20.71"/>
</g>
<!-- Node15&#45;&gt;Node2 -->
<g id="edge22" class="edge">
<title>Node15&#45;&gt;Node2</title>
<path fill="none" stroke="midnightblue" d="M798.67,-123.4C799.39,-107.49 798.41,-73.47 779,-56 737.6,-18.73 567.48,-12.21 494.03,-11.16"/>
<polygon fill="midnightblue" stroke="midnightblue" points="493.96,-7.66 483.92,-11.04 493.87,-14.66 493.96,-7.66"/>
</g>
<!-- Node15&#45;&gt;Node14 -->
<g id="edge23" class="edge">
<title>Node15&#45;&gt;Node14</title>
<path fill="none" stroke="midnightblue" d="M767.2,-123.48C729.44,-113.03 665.34,-95.29 623.59,-83.73"/>
<polygon fill="midnightblue" stroke="midnightblue" points="624.32,-80.3 613.75,-81.01 622.45,-87.05 624.32,-80.3"/>
</g>
<!-- Node16 -->
<g id="node16" class="node">
<title>Node16</title>
<g id="a_node16"><a xlink:href="../../de/d60/_collider_settings_8h.html" target="_top" xlink:title=" ">
<polygon fill="white" stroke="black" points="826,-56.5 826,-86.5 948,-86.5 948,-56.5 826,-56.5"/>
<text text-anchor="start" x="834" y="-74.5" font-family="Helvetica,sans-Serif" font-size="10.00">Shmup/Collision/Collider</text>
<text text-anchor="middle" x="887" y="-63.5" font-family="Helvetica,sans-Serif" font-size="10.00">Settings.h</text>
</a>
</g>
</g>
<!-- Node15&#45;&gt;Node16 -->
<g id="edge24" class="edge">
<title>Node15&#45;&gt;Node16</title>
<path fill="none" stroke="midnightblue" d="M810.75,-123.48C822.92,-115.34 841.69,-102.79 857.56,-92.18"/>
<polygon fill="midnightblue" stroke="midnightblue" points="859.66,-94.99 866.02,-86.52 855.77,-89.17 859.66,-94.99"/>
</g>
<!-- Node16&#45;&gt;Node13 -->
<g id="edge25" class="edge">
<title>Node16&#45;&gt;Node13</title>
<path fill="none" stroke="midnightblue" d="M874.44,-56.4C866.66,-47.66 856.64,-36.41 848.52,-27.3"/>
<polygon fill="midnightblue" stroke="midnightblue" points="850.98,-24.8 841.71,-19.66 845.75,-29.45 850.98,-24.8"/>
</g>
<!-- Node17&#45;&gt;Node11 -->
<g id="edge28" class="edge">
<title>Node17&#45;&gt;Node11</title>
<path fill="none" stroke="midnightblue" d="M701.98,-179.32C704.07,-160.76 709.01,-116.84 711.86,-91.47"/>
<polygon fill="midnightblue" stroke="midnightblue" points="715.37,-91.61 713.01,-81.28 708.41,-90.83 715.37,-91.61"/>
</g>
<!-- Node17&#45;&gt;Node15 -->
<g id="edge27" class="edge">
<title>Node17&#45;&gt;Node15</title>
<path fill="none" stroke="midnightblue" d="M716.58,-179.32C732,-170.74 755.81,-157.49 773.71,-147.52"/>
<polygon fill="midnightblue" stroke="midnightblue" points="775.42,-150.58 782.45,-142.65 772.01,-144.46 775.42,-150.58"/>
</g>
</g>
</svg>
        <g id="navigator" transform="translate(0 0)" fill="#404254">
                <rect fill="#f2f5e9" fill-opacity="0.5" stroke="#606060" stroke-width=".5" x="0" y="0" width="60" height="60"/>
                <use id="zoomplus" xlink:href="#zoomPlus" x="17" y="9" onmousedown="handleZoom(evt,'in')"/>
                <use id="zoomminus" xlink:href="#zoomMin" x="42" y="9" onmousedown="handleZoom(evt,'out')"/>
                <use id="reset" xlink:href="#resetDef" x="30" y="36" onmousedown="handleReset()"/>
                <g id="arrowUp" xlink:href="#dirArrow" transform="translate(30 24)" onmousedown="handlePan(0,-1)">
                  <use xlink:href="#rim" fill="#404040">
                        <set attributeName="fill" to="#808080" begin="arrowUp.mouseover" end="arrowUp.mouseout"/>
                  </use>
                  <path fill="none" stroke="white" stroke-width="1.5" d="M0,-3.0v7 M-2.5,-0.5L0,-3.0L2.5,-0.5"/>
                </g>
                <g id="arrowRight" xlink:href="#dirArrow" transform="rotate(90) translate(36 -43)" onmousedown="handlePan(1,0)">
                  <use xlink:href="#rim" fill="#404040">
                        <set attributeName="fill" to="#808080" begin="arrowRight.mouseover" end="arrowRight.mouseout"/>
                  </use>
                  <path fill="none" stroke="white" stroke-width="1.5" d="M0,-3.0v7 M-2.5,-0.5L0,-3.0L2.5,-0.5"/>
                </g>
                <g id="arrowDown" xlink:href="#dirArrow" transform="rotate(180) translate(-30 -48)" onmousedown="handlePan(0,1)">
                  <use xlink:href="#rim" fill="#404040">
                        <set attributeName="fill" to="#808080" begin="arrowDown.mouseover" end="arrowDown.mouseout"/>
                  </use>
                  <path fill="none" stroke="white" stroke-width="1.5" d="M0,-3.0v7 M-2.5,-0.5L0,-3.0L2.5,-0.5"/>
                </g>
                <g id="arrowLeft" xlink:href="#dirArrow" transform="rotate(270) translate(-36 17)" onmousedown="handlePan(-1,0)">
                  <use xlink:href="#rim" fill="#404040">
                        <set attributeName="fill" to="#808080" begin="arrowLeft.mouseover" end="arrowLeft.mouseout"/>
                  </use>
                  <path fill="none" stroke="white" stroke-width="1.5" d="M0,-3.0v7 M-2.5,-0.5L0,-3.0L2.5,-0.5"/>
                </g>
        </g>
        <svg viewBox="0 0 15 15" width="100%" height="30px" preserveAspectRatio="xMaxYMin meet">
         <g id="arrow_out" transform="scale(0.3 0.3)">
          <a xlink:href="_patern_rotate_8cpp__incl_org.svg" target="_base">
           <rect id="button" ry="5" rx="5" y="6" x="6" height="38" width="38"
                fill="#f2f5e9" fill-opacity="0.5" stroke="#606060" stroke-width="1.0"/>
           <path id="arrow"
             d="M 11.500037,31.436501 C 11.940474,20.09759 22.043105,11.32322 32.158766,21.979434 L 37.068811,17.246167 C 37.068811,17.246167 37.088388,32 37.088388,32 L 22.160133,31.978069 C 22.160133,31.978069 26.997745,27.140456 26.997745,27.140456 C 18.528582,18.264221 13.291696,25.230495 11.500037,31.436501 z"
             style="fill:#404040;"/>
          </a>
         </g>
        </svg>
</svg>
