<?xml version="1.0" encoding="UTF-8" standalone="no"?>
<!DOCTYPE svg PUBLIC "-//W3C//DTD SVG 1.1//EN"
 "http://www.w3.org/Graphics/SVG/1.1/DTD/svg11.dtd">
<!-- Generated by graphviz version 2.49.3 (20211027.1534)
 -->
<!-- Title: RectCollider Pages: 1 -->
<svg width="156pt" height="173pt"
 viewBox="0.00 0.00 155.50 173.00" xmlns="http://www.w3.org/2000/svg" xmlns:xlink="http://www.w3.org/1999/xlink">
<g id="graph0" class="graph" transform="scale(1 1) rotate(0) translate(4 169)">
<title>RectCollider</title>
<polygon fill="white" stroke="transparent" points="-4,4 -4,-169 151.5,-169 151.5,4 -4,4"/>
<!-- Node1 -->
<g id="node1" class="node">
<title>Node1</title>
<g id="a_node1"><a xlink:title=" ">
<polygon fill="#bfbfbf" stroke="black" points="63.5,-0.5 63.5,-19.5 132.5,-19.5 132.5,-0.5 63.5,-0.5"/>
<text text-anchor="middle" x="98" y="-7.5" font-family="Helvetica,sans-Serif" font-size="10.00">RectCollider</text>
</a>
</g>
</g>
<!-- Node2 -->
<g id="node2" class="node">
<title>Node2</title>
<g id="a_node2"><a xlink:href="../../dc/d1d/class_a_collider.html" target="_top" xlink:title=" ">
<polygon fill="white" stroke="black" points="38,-78.5 38,-97.5 94,-97.5 94,-78.5 38,-78.5"/>
<text text-anchor="middle" x="66" y="-85.5" font-family="Helvetica,sans-Serif" font-size="10.00">ACollider</text>
</a>
</g>
</g>
<!-- Node2&#45;&gt;Node1 -->
<g id="edge1" class="edge">
<title>Node2&#45;&gt;Node1</title>
<path fill="none" stroke="midnightblue" d="M73.72,-68.67C80.27,-53.11 89.38,-31.47 94.37,-19.62"/>
<polygon fill="midnightblue" stroke="midnightblue" points="70.33,-67.71 69.67,-78.28 76.78,-70.42 70.33,-67.71"/>
</g>
<!-- Node3 -->
<g id="node3" class="node">
<title>Node3</title>
<g id="a_node3"><a xlink:title=" ">
<polygon fill="white" stroke="#bfbfbf" points="0,-145.5 0,-164.5 50,-164.5 50,-145.5 0,-145.5"/>
<text text-anchor="middle" x="25" y="-152.5" font-family="Helvetica,sans-Serif" font-size="10.00">Vector2</text>
</a>
</g>
</g>
<!-- Node3&#45;&gt;Node2 -->
<g id="edge2" class="edge">
<title>Node3&#45;&gt;Node2</title>
<path fill="none" stroke="#9a32cd" stroke-dasharray="5,2" d="M36.02,-136.53C43.95,-123.95 54.33,-107.51 60.56,-97.63"/>
<polygon fill="#9a32cd" stroke="#9a32cd" points="32.9,-134.91 30.53,-145.23 38.82,-138.64 32.9,-134.91"/>
<text text-anchor="middle" x="60" y="-119" font-family="Helvetica,sans-Serif" font-size="10.00"> pivot</text>
</g>
<!-- Node4 -->
<g id="node4" class="node">
<title>Node4</title>
<g id="a_node4"><a xlink:title=" ">
<polygon fill="white" stroke="#bfbfbf" points="68.5,-145.5 68.5,-164.5 145.5,-164.5 145.5,-145.5 68.5,-145.5"/>
<text text-anchor="middle" x="107" y="-152.5" font-family="Helvetica,sans-Serif" font-size="10.00">CollisionLayer</text>
</a>
</g>
</g>
<!-- Node4&#45;&gt;Node2 -->
<g id="edge3" class="edge">
<title>Node4&#45;&gt;Node2</title>
<path fill="none" stroke="#9a32cd" stroke-dasharray="5,2" d="M95.98,-136.53C88.05,-123.95 77.67,-107.51 71.44,-97.63"/>
<polygon fill="#9a32cd" stroke="#9a32cd" points="93.18,-138.64 101.47,-145.23 99.1,-134.91 93.18,-138.64"/>
<text text-anchor="middle" x="100.5" y="-119" font-family="Helvetica,sans-Serif" font-size="10.00"> layer</text>
</g>
<!-- Node5 -->
<g id="node5" class="node">
<title>Node5</title>
<g id="a_node5"><a xlink:title=" ">
<polygon fill="white" stroke="#bfbfbf" points="112.5,-78.5 112.5,-97.5 147.5,-97.5 147.5,-78.5 112.5,-78.5"/>
<text text-anchor="middle" x="130" y="-85.5" font-family="Helvetica,sans-Serif" font-size="10.00">float</text>
</a>
</g>
</g>
<!-- Node5&#45;&gt;Node1 -->
<g id="edge4" class="edge">
<title>Node5&#45;&gt;Node1</title>
<path fill="none" stroke="#9a32cd" stroke-dasharray="5,2" d="M122.28,-68.67C115.73,-53.11 106.62,-31.47 101.63,-19.62"/>
<polygon fill="#9a32cd" stroke="#9a32cd" points="119.22,-70.42 126.33,-78.28 125.67,-67.71 119.22,-70.42"/>
<text text-anchor="middle" x="131.5" y="-52" font-family="Helvetica,sans-Serif" font-size="10.00"> height</text>
<text text-anchor="middle" x="131.5" y="-41" font-family="Helvetica,sans-Serif" font-size="10.00">width</text>
</g>
</g>
</svg>
