<?xml version="1.0" encoding="UTF-8" standalone="no"?>
<!DOCTYPE svg PUBLIC "-//W3C//DTD SVG 1.1//EN"
 "http://www.w3.org/Graphics/SVG/1.1/DTD/svg11.dtd">
<!-- Generated by graphviz version 2.49.3 (20211027.1534)
 -->
<!-- Title: RayLib_SHMUP/include/Shmup/AMovable.h Pages: 1 -->
<svg width="342pt" height="207pt"
 viewBox="0.00 0.00 342.00 207.00" xmlns="http://www.w3.org/2000/svg" xmlns:xlink="http://www.w3.org/1999/xlink">
<g id="graph0" class="graph" transform="scale(1 1) rotate(0) translate(4 203)">
<title>RayLib_SHMUP/include/Shmup/AMovable.h</title>
<polygon fill="white" stroke="transparent" points="-4,4 -4,-203 338,-203 338,4 -4,4"/>
<!-- Node1 -->
<g id="node1" class="node">
<title>Node1</title>
<g id="a_node1"><a xlink:title=" ">
<polygon fill="#bfbfbf" stroke="black" points="0,-168.5 0,-198.5 122,-198.5 122,-168.5 0,-168.5"/>
<text text-anchor="start" x="8" y="-186.5" font-family="Helvetica,sans-Serif" font-size="10.00">RayLib_SHMUP/include</text>
<text text-anchor="middle" x="61" y="-175.5" font-family="Helvetica,sans-Serif" font-size="10.00">/Shmup/AMovable.h</text>
</a>
</g>
</g>
<!-- Node2 -->
<g id="node2" class="node">
<title>Node2</title>
<g id="a_node2"><a xlink:title=" ">
<polygon fill="white" stroke="#bfbfbf" points="38.5,-0.5 38.5,-19.5 85.5,-19.5 85.5,-0.5 38.5,-0.5"/>
<text text-anchor="middle" x="62" y="-7.5" font-family="Helvetica,sans-Serif" font-size="10.00">raylib.h</text>
</a>
</g>
</g>
<!-- Node1&#45;&gt;Node2 -->
<g id="edge1" class="edge">
<title>Node1&#45;&gt;Node2</title>
<path fill="none" stroke="midnightblue" d="M61.08,-168.47C61.26,-137.7 61.69,-64.33 61.89,-29.7"/>
<polygon fill="midnightblue" stroke="midnightblue" points="65.39,-29.58 61.95,-19.56 58.39,-29.54 65.39,-29.58"/>
</g>
<!-- Node3 -->
<g id="node3" class="node">
<title>Node3</title>
<g id="a_node3"><a xlink:href="../../d7/daf/_a_graphic_object_8h.html" target="_top" xlink:title=" ">
<polygon fill="white" stroke="black" points="76.5,-112.5 76.5,-131.5 169.5,-131.5 169.5,-112.5 76.5,-112.5"/>
<text text-anchor="middle" x="123" y="-119.5" font-family="Helvetica,sans-Serif" font-size="10.00">AGraphicObject.h</text>
</a>
</g>
</g>
<!-- Node1&#45;&gt;Node3 -->
<g id="edge2" class="edge">
<title>Node1&#45;&gt;Node3</title>
<path fill="none" stroke="midnightblue" d="M75.69,-168.4C84.98,-159.49 97,-147.95 106.6,-138.74"/>
<polygon fill="midnightblue" stroke="midnightblue" points="109.19,-141.11 113.98,-131.66 104.34,-136.06 109.19,-141.11"/>
</g>
<!-- Node3&#45;&gt;Node2 -->
<g id="edge3" class="edge">
<title>Node3&#45;&gt;Node2</title>
<path fill="none" stroke="midnightblue" d="M112.56,-112.4C103.04,-104.03 89.25,-90.49 81,-76 72.82,-61.63 67.89,-43.44 65.11,-29.95"/>
<polygon fill="midnightblue" stroke="midnightblue" points="68.52,-29.12 63.26,-19.92 61.64,-30.39 68.52,-29.12"/>
</g>
<!-- Node4 -->
<g id="node4" class="node">
<title>Node4</title>
<g id="a_node4"><a xlink:href="../../dc/d80/_instance_list_8h.html" target="_top" xlink:title=" ">
<polygon fill="white" stroke="black" points="222,-56.5 222,-75.5 334,-75.5 334,-56.5 222,-56.5"/>
<text text-anchor="middle" x="278" y="-63.5" font-family="Helvetica,sans-Serif" font-size="10.00">Shmup/InstanceList.h</text>
</a>
</g>
</g>
<!-- Node3&#45;&gt;Node4 -->
<g id="edge4" class="edge">
<title>Node3&#45;&gt;Node4</title>
<path fill="none" stroke="midnightblue" d="M147.56,-112.44C173.52,-103.4 214.67,-89.06 243.8,-78.92"/>
<polygon fill="midnightblue" stroke="midnightblue" points="245.26,-82.11 253.55,-75.52 242.96,-75.5 245.26,-82.11"/>
</g>
<!-- Node7 -->
<g id="node7" class="node">
<title>Node7</title>
<g id="a_node7"><a xlink:href="../../da/d02/_transform2_d_8h.html" target="_top" xlink:title=" ">
<polygon fill="white" stroke="black" points="90,-56.5 90,-75.5 204,-75.5 204,-56.5 90,-56.5"/>
<text text-anchor="middle" x="147" y="-63.5" font-family="Helvetica,sans-Serif" font-size="10.00">Shmup/Transform2D.h</text>
</a>
</g>
</g>
<!-- Node3&#45;&gt;Node7 -->
<g id="edge7" class="edge">
<title>Node3&#45;&gt;Node7</title>
<path fill="none" stroke="midnightblue" d="M126.96,-112.08C130.21,-104.77 134.92,-94.18 138.95,-85.1"/>
<polygon fill="midnightblue" stroke="midnightblue" points="142.25,-86.31 143.11,-75.75 135.85,-83.47 142.25,-86.31"/>
</g>
<!-- Node5 -->
<g id="node5" class="node">
<title>Node5</title>
<g id="a_node5"><a xlink:title=" ">
<polygon fill="white" stroke="#bfbfbf" points="217,-0.5 217,-19.5 271,-19.5 271,-0.5 217,-0.5"/>
<text text-anchor="middle" x="244" y="-7.5" font-family="Helvetica,sans-Serif" font-size="10.00">iostream</text>
</a>
</g>
</g>
<!-- Node4&#45;&gt;Node5 -->
<g id="edge5" class="edge">
<title>Node4&#45;&gt;Node5</title>
<path fill="none" stroke="midnightblue" d="M272.39,-56.08C267.63,-48.53 260.68,-37.49 254.85,-28.23"/>
<polygon fill="midnightblue" stroke="midnightblue" points="257.8,-26.35 249.51,-19.75 251.88,-30.08 257.8,-26.35"/>
</g>
<!-- Node6 -->
<g id="node6" class="node">
<title>Node6</title>
<g id="a_node6"><a xlink:title=" ">
<polygon fill="white" stroke="#bfbfbf" points="289,-0.5 289,-19.5 333,-19.5 333,-0.5 289,-0.5"/>
<text text-anchor="middle" x="311" y="-7.5" font-family="Helvetica,sans-Serif" font-size="10.00">vector</text>
</a>
</g>
</g>
<!-- Node4&#45;&gt;Node6 -->
<g id="edge6" class="edge">
<title>Node4&#45;&gt;Node6</title>
<path fill="none" stroke="midnightblue" d="M283.45,-56.08C288.01,-48.61 294.67,-37.72 300.29,-28.52"/>
<polygon fill="midnightblue" stroke="midnightblue" points="303.42,-30.11 305.65,-19.75 297.45,-26.46 303.42,-30.11"/>
</g>
<!-- Node7&#45;&gt;Node2 -->
<g id="edge8" class="edge">
<title>Node7&#45;&gt;Node2</title>
<path fill="none" stroke="midnightblue" d="M133.34,-56.32C120.08,-47.9 99.73,-34.97 84.15,-25.07"/>
<polygon fill="midnightblue" stroke="midnightblue" points="85.94,-22.06 75.62,-19.65 82.19,-27.97 85.94,-22.06"/>
</g>
</g>
</svg>
