<?xml version="1.0" encoding="UTF-8" standalone="no"?>
<!DOCTYPE svg PUBLIC "-//W3C//DTD SVG 1.1//EN"
 "http://www.w3.org/Graphics/SVG/1.1/DTD/svg11.dtd">
<!-- Generated by graphviz version 2.49.3 (20211027.1534)
 -->
<!-- Title: ACollidable Pages: 1 -->
<svg width="144pt" height="209pt"
 viewBox="0.00 0.00 144.00 209.00" xmlns="http://www.w3.org/2000/svg" xmlns:xlink="http://www.w3.org/1999/xlink">
<g id="graph0" class="graph" transform="scale(1 1) rotate(0) translate(4 205)">
<title>ACollidable</title>
<polygon fill="white" stroke="transparent" points="-4,4 -4,-205 140,-205 140,4 -4,4"/>
<!-- Node1 -->
<g id="node1" class="node">
<title>Node1</title>
<g id="a_node1"><a xlink:title=" ">
<polygon fill="#bfbfbf" stroke="black" points="35.5,-57.5 35.5,-76.5 100.5,-76.5 100.5,-57.5 35.5,-57.5"/>
<text text-anchor="middle" x="68" y="-64.5" font-family="Helvetica,sans-Serif" font-size="10.00">ACollidable</text>
</a>
</g>
</g>
<!-- Node4 -->
<g id="node4" class="node">
<title>Node4</title>
<g id="a_node4"><a xlink:href="../../dd/d7a/class_enemy.html" target="_top" xlink:title="An enemy spaceship">
<polygon fill="white" stroke="black" points="14,-0.5 14,-19.5 60,-19.5 60,-0.5 14,-0.5"/>
<text text-anchor="middle" x="37" y="-7.5" font-family="Helvetica,sans-Serif" font-size="10.00">Enemy</text>
</a>
</g>
</g>
<!-- Node1&#45;&gt;Node4 -->
<g id="edge3" class="edge">
<title>Node1&#45;&gt;Node4</title>
<path fill="none" stroke="midnightblue" d="M58.21,-48.64C52.79,-39.01 46.28,-27.46 41.91,-19.71"/>
<polygon fill="midnightblue" stroke="midnightblue" points="55.2,-50.41 63.16,-57.41 61.3,-46.98 55.2,-50.41"/>
</g>
<!-- Node5 -->
<g id="node5" class="node">
<title>Node5</title>
<g id="a_node5"><a xlink:href="../../d0/d85/class_shoot.html" target="_top" xlink:title="An shoot (player or enemy)">
<polygon fill="white" stroke="black" points="78,-0.5 78,-19.5 120,-19.5 120,-0.5 78,-0.5"/>
<text text-anchor="middle" x="99" y="-7.5" font-family="Helvetica,sans-Serif" font-size="10.00">Shoot</text>
</a>
</g>
</g>
<!-- Node1&#45;&gt;Node5 -->
<g id="edge4" class="edge">
<title>Node1&#45;&gt;Node5</title>
<path fill="none" stroke="midnightblue" d="M77.79,-48.64C83.21,-39.01 89.72,-27.46 94.09,-19.71"/>
<polygon fill="midnightblue" stroke="midnightblue" points="74.7,-46.98 72.84,-57.41 80.8,-50.41 74.7,-46.98"/>
</g>
<!-- Node2 -->
<g id="node2" class="node">
<title>Node2</title>
<g id="a_node2"><a xlink:href="../../db/d70/class_instance_list.html" target="_top" xlink:title=" ">
<polygon fill="white" stroke="black" points="0,-114.5 0,-133.5 136,-133.5 136,-114.5 0,-114.5"/>
<text text-anchor="middle" x="68" y="-121.5" font-family="Helvetica,sans-Serif" font-size="10.00">InstanceList&lt; ACollidable &gt;</text>
</a>
</g>
</g>
<!-- Node2&#45;&gt;Node1 -->
<g id="edge1" class="edge">
<title>Node2&#45;&gt;Node1</title>
<path fill="none" stroke="midnightblue" d="M68,-104.12C68,-94.82 68,-84.06 68,-76.71"/>
<polygon fill="midnightblue" stroke="midnightblue" points="64.5,-104.41 68,-114.41 71.5,-104.41 64.5,-104.41"/>
</g>
<!-- Node3 -->
<g id="node3" class="node">
<title>Node3</title>
<g id="a_node3"><a xlink:href="../../db/d70/class_instance_list.html" target="_top" xlink:title="Add a static list for the class T">
<polygon fill="white" stroke="black" points="21.5,-181.5 21.5,-200.5 114.5,-200.5 114.5,-181.5 21.5,-181.5"/>
<text text-anchor="middle" x="68" y="-188.5" font-family="Helvetica,sans-Serif" font-size="10.00">InstanceList&lt; T &gt;</text>
</a>
</g>
</g>
<!-- Node3&#45;&gt;Node2 -->
<g id="edge2" class="edge">
<title>Node3&#45;&gt;Node2</title>
<path fill="none" stroke="orange" stroke-dasharray="5,2" d="M68,-171.04C68,-158.67 68,-143.12 68,-133.63"/>
<polygon fill="orange" stroke="orange" points="64.5,-171.23 68,-181.23 71.5,-171.23 64.5,-171.23"/>
<text text-anchor="middle" x="102" y="-155" font-family="Helvetica,sans-Serif" font-size="10.00"> &lt; ACollidable &gt;</text>
</g>
</g>
</svg>
