<?xml version="1.0" encoding="UTF-8" standalone="no"?>
<!DOCTYPE svg PUBLIC "-//W3C//DTD SVG 1.1//EN"
 "http://www.w3.org/Graphics/SVG/1.1/DTD/svg11.dtd">
<!-- Generated by graphviz version 2.49.3 (20211027.1534)
 -->
<!-- Title: RayLib_SHMUP/include/Shmup/LevelManager.h Pages: 1 -->
<svg width="340pt" height="229pt"
 viewBox="0.00 0.00 340.00 229.00" xmlns="http://www.w3.org/2000/svg" xmlns:xlink="http://www.w3.org/1999/xlink">
<g id="graph0" class="graph" transform="scale(1 1) rotate(0) translate(4 225)">
<title>RayLib_SHMUP/include/Shmup/LevelManager.h</title>
<polygon fill="white" stroke="transparent" points="-4,4 -4,-225 336,-225 336,4 -4,4"/>
<!-- Node1 -->
<g id="node1" class="node">
<title>Node1</title>
<g id="a_node1"><a xlink:title=" ">
<polygon fill="#bfbfbf" stroke="black" points="84,-190.5 84,-220.5 206,-220.5 206,-190.5 84,-190.5"/>
<text text-anchor="start" x="92" y="-208.5" font-family="Helvetica,sans-Serif" font-size="10.00">RayLib_SHMUP/include</text>
<text text-anchor="middle" x="145" y="-197.5" font-family="Helvetica,sans-Serif" font-size="10.00">/Shmup/LevelManager.h</text>
</a>
</g>
</g>
<!-- Node2 -->
<g id="node2" class="node">
<title>Node2</title>
<g id="a_node2"><a xlink:title=" ">
<polygon fill="white" stroke="#bfbfbf" points="0,-62 0,-81 54,-81 54,-62 0,-62"/>
<text text-anchor="middle" x="27" y="-69" font-family="Helvetica,sans-Serif" font-size="10.00">iostream</text>
</a>
</g>
</g>
<!-- Node1&#45;&gt;Node2 -->
<g id="edge1" class="edge">
<title>Node1&#45;&gt;Node2</title>
<path fill="none" stroke="midnightblue" d="M131.71,-190.47C122.22,-180.4 109.22,-166.46 98,-154 77.9,-131.68 55.17,-105.4 40.96,-88.85"/>
<polygon fill="midnightblue" stroke="midnightblue" points="43.53,-86.47 34.37,-81.15 38.22,-91.02 43.53,-86.47"/>
</g>
<!-- Node3 -->
<g id="node3" class="node">
<title>Node3</title>
<g id="a_node3"><a xlink:title=" ">
<polygon fill="white" stroke="#bfbfbf" points="72.5,-62 72.5,-81 113.5,-81 113.5,-62 72.5,-62"/>
<text text-anchor="middle" x="93" y="-69" font-family="Helvetica,sans-Serif" font-size="10.00">string</text>
</a>
</g>
</g>
<!-- Node1&#45;&gt;Node3 -->
<g id="edge2" class="edge">
<title>Node1&#45;&gt;Node3</title>
<path fill="none" stroke="midnightblue" d="M133.74,-190.25C126.56,-180.53 117.6,-167.1 112,-154 103.28,-133.59 98.2,-108.52 95.52,-91.62"/>
<polygon fill="midnightblue" stroke="midnightblue" points="98.94,-90.77 94.04,-81.38 92.01,-91.78 98.94,-90.77"/>
</g>
<!-- Node4 -->
<g id="node4" class="node">
<title>Node4</title>
<g id="a_node4"><a xlink:title=" ">
<polygon fill="white" stroke="#bfbfbf" points="288,-62 288,-81 332,-81 332,-62 288,-62"/>
<text text-anchor="middle" x="310" y="-69" font-family="Helvetica,sans-Serif" font-size="10.00">vector</text>
</a>
</g>
</g>
<!-- Node1&#45;&gt;Node4 -->
<g id="edge3" class="edge">
<title>Node1&#45;&gt;Node4</title>
<path fill="none" stroke="midnightblue" d="M206.08,-194.88C233.15,-187.75 263.45,-175.38 284,-154 300.36,-136.97 306.43,-109.66 308.68,-91.4"/>
<polygon fill="midnightblue" stroke="midnightblue" points="312.17,-91.67 309.64,-81.38 305.2,-91 312.17,-91.67"/>
</g>
<!-- Node5 -->
<g id="node5" class="node">
<title>Node5</title>
<g id="a_node5"><a xlink:href="../../d1/d98/_sequence_move_patern_8h.html" target="_top" xlink:title=" ">
<polygon fill="white" stroke="black" points="121.5,-123.5 121.5,-153.5 274.5,-153.5 274.5,-123.5 121.5,-123.5"/>
<text text-anchor="start" x="129.5" y="-141.5" font-family="Helvetica,sans-Serif" font-size="10.00">Paterns/Enemy/SequenceMove</text>
<text text-anchor="middle" x="198" y="-130.5" font-family="Helvetica,sans-Serif" font-size="10.00">Patern.h</text>
</a>
</g>
</g>
<!-- Node1&#45;&gt;Node5 -->
<g id="edge4" class="edge">
<title>Node1&#45;&gt;Node5</title>
<path fill="none" stroke="midnightblue" d="M156.5,-190.4C163.38,-181.96 172.26,-171.07 180.04,-161.52"/>
<polygon fill="midnightblue" stroke="midnightblue" points="182.92,-163.54 186.52,-153.58 177.49,-159.11 182.92,-163.54"/>
</g>
<!-- Node5&#45;&gt;Node2 -->
<g id="edge8" class="edge">
<title>Node5&#45;&gt;Node2</title>
<path fill="none" stroke="midnightblue" d="M159.79,-123.5C132.7,-113.5 95.54,-99.64 63,-87 61.16,-86.29 59.28,-85.55 57.37,-84.8"/>
<polygon fill="midnightblue" stroke="midnightblue" points="58.49,-81.47 47.9,-81.02 55.9,-87.98 58.49,-81.47"/>
</g>
<!-- Node5&#45;&gt;Node3 -->
<g id="edge9" class="edge">
<title>Node5&#45;&gt;Node3</title>
<path fill="none" stroke="midnightblue" d="M175.22,-123.4C157.45,-112.39 132.9,-97.2 115.26,-86.28"/>
<polygon fill="midnightblue" stroke="midnightblue" points="117.09,-83.29 106.74,-81.01 113.4,-89.25 117.09,-83.29"/>
</g>
<!-- Node5&#45;&gt;Node4 -->
<g id="edge10" class="edge">
<title>Node5&#45;&gt;Node4</title>
<path fill="none" stroke="midnightblue" d="M222.3,-123.4C241.35,-112.34 267.68,-97.06 286.51,-86.13"/>
<polygon fill="midnightblue" stroke="midnightblue" points="288.45,-89.05 295.34,-81.01 284.94,-83 288.45,-89.05"/>
</g>
<!-- Node6 -->
<g id="node6" class="node">
<title>Node6</title>
<g id="a_node6"><a xlink:href="../../dc/d8f/_a_offsetable_patern_8h.html" target="_top" xlink:title=" ">
<polygon fill="white" stroke="black" points="132,-56.5 132,-86.5 270,-86.5 270,-56.5 132,-56.5"/>
<text text-anchor="start" x="140" y="-74.5" font-family="Helvetica,sans-Serif" font-size="10.00">Shmup/Paterns/AOffsetable</text>
<text text-anchor="middle" x="201" y="-63.5" font-family="Helvetica,sans-Serif" font-size="10.00">Patern.h</text>
</a>
</g>
</g>
<!-- Node5&#45;&gt;Node6 -->
<g id="edge5" class="edge">
<title>Node5&#45;&gt;Node6</title>
<path fill="none" stroke="midnightblue" d="M198.65,-123.4C199.01,-115.64 199.46,-105.81 199.88,-96.86"/>
<polygon fill="midnightblue" stroke="midnightblue" points="203.39,-96.73 200.35,-86.58 196.39,-96.4 203.39,-96.73"/>
</g>
<!-- Node7 -->
<g id="node7" class="node">
<title>Node7</title>
<g id="a_node7"><a xlink:title=" ">
<polygon fill="white" stroke="#bfbfbf" points="141.5,-0.5 141.5,-19.5 188.5,-19.5 188.5,-0.5 141.5,-0.5"/>
<text text-anchor="middle" x="165" y="-7.5" font-family="Helvetica,sans-Serif" font-size="10.00">raylib.h</text>
</a>
</g>
</g>
<!-- Node6&#45;&gt;Node7 -->
<g id="edge6" class="edge">
<title>Node6&#45;&gt;Node7</title>
<path fill="none" stroke="midnightblue" d="M192.47,-56.4C187.4,-48.02 180.93,-37.33 175.54,-28.42"/>
<polygon fill="midnightblue" stroke="midnightblue" points="178.41,-26.4 170.24,-19.66 172.42,-30.03 178.41,-26.4"/>
</g>
<!-- Node8 -->
<g id="node8" class="node">
<title>Node8</title>
<g id="a_node8"><a xlink:href="../../df/d50/_a_patern_8h.html" target="_top" xlink:title=" ">
<polygon fill="white" stroke="black" points="206.5,-0.5 206.5,-19.5 265.5,-19.5 265.5,-0.5 206.5,-0.5"/>
<text text-anchor="middle" x="236" y="-7.5" font-family="Helvetica,sans-Serif" font-size="10.00">APatern.h</text>
</a>
</g>
</g>
<!-- Node6&#45;&gt;Node8 -->
<g id="edge7" class="edge">
<title>Node6&#45;&gt;Node8</title>
<path fill="none" stroke="midnightblue" d="M209.29,-56.4C214.22,-48.02 220.51,-37.33 225.75,-28.42"/>
<polygon fill="midnightblue" stroke="midnightblue" points="228.85,-30.05 230.91,-19.66 222.82,-26.5 228.85,-30.05"/>
</g>
</g>
</svg>
