<?xml version="1.0" encoding="UTF-8" standalone="no"?>
<!DOCTYPE svg PUBLIC "-//W3C//DTD SVG 1.1//EN"
 "http://www.w3.org/Graphics/SVG/1.1/DTD/svg11.dtd">
<!-- Generated by graphviz version 2.49.3 (20211027.1534)
 -->
<!-- Title: PaternComputer Pages: 1 -->
<svg width="923pt" height="362pt"
 viewBox="0.00 0.00 923.00 362.00" xmlns="http://www.w3.org/2000/svg" xmlns:xlink="http://www.w3.org/1999/xlink">
<g id="graph0" class="graph" transform="scale(1 1) rotate(0) translate(4 358)">
<title>PaternComputer</title>
<polygon fill="white" stroke="transparent" points="-4,4 -4,-358 919,-358 919,4 -4,4"/>
<!-- Node1 -->
<g id="node1" class="node">
<title>Node1</title>
<g id="a_node1"><a xlink:title=" ">
<polygon fill="#bfbfbf" stroke="black" points="694.5,-0.5 694.5,-19.5 781.5,-19.5 781.5,-0.5 694.5,-0.5"/>
<text text-anchor="middle" x="738" y="-7.5" font-family="Helvetica,sans-Serif" font-size="10.00">PaternComputer</text>
</a>
</g>
</g>
<!-- Node2 -->
<g id="node2" class="node">
<title>Node2</title>
<g id="a_node2"><a xlink:href="../../d5/d15/class_a_movable.html" target="_top" xlink:title=" ">
<polygon fill="white" stroke="black" points="486,-73 486,-92 546,-92 546,-73 486,-73"/>
<text text-anchor="middle" x="516" y="-80" font-family="Helvetica,sans-Serif" font-size="10.00">AMovable</text>
</a>
</g>
</g>
<!-- Node2&#45;&gt;Node1 -->
<g id="edge1" class="edge">
<title>Node2&#45;&gt;Node1</title>
<path fill="none" stroke="midnightblue" d="M552.35,-69.96C596.91,-55.8 671.4,-32.15 711.13,-19.53"/>
<polygon fill="midnightblue" stroke="midnightblue" points="551.25,-66.63 542.78,-73 553.37,-73.31 551.25,-66.63"/>
</g>
<!-- Node3 -->
<g id="node3" class="node">
<title>Node3</title>
<g id="a_node3"><a xlink:href="../../d3/d92/class_a_graphic_object.html" target="_top" xlink:title=" ">
<polygon fill="white" stroke="black" points="251,-162 251,-181 337,-181 337,-162 251,-162"/>
<text text-anchor="middle" x="294" y="-169" font-family="Helvetica,sans-Serif" font-size="10.00">AGraphicObject</text>
</a>
</g>
</g>
<!-- Node3&#45;&gt;Node2 -->
<g id="edge2" class="edge">
<title>Node3&#45;&gt;Node2</title>
<path fill="none" stroke="midnightblue" d="M313.94,-155.99C331.58,-143.76 358.42,-126.6 384,-116 417.58,-102.08 458.52,-93.15 485.82,-88.24"/>
<polygon fill="midnightblue" stroke="midnightblue" points="311.76,-153.24 305.61,-161.87 315.8,-158.96 311.76,-153.24"/>
</g>
<!-- Node4 -->
<g id="node4" class="node">
<title>Node4</title>
<g id="a_node4"><a xlink:href="../../db/d70/class_instance_list.html" target="_top" xlink:title=" ">
<polygon fill="white" stroke="black" points="136,-267.5 136,-286.5 292,-286.5 292,-267.5 136,-267.5"/>
<text text-anchor="middle" x="214" y="-274.5" font-family="Helvetica,sans-Serif" font-size="10.00">InstanceList&lt; AGraphicObject &gt;</text>
</a>
</g>
</g>
<!-- Node4&#45;&gt;Node3 -->
<g id="edge3" class="edge">
<title>Node4&#45;&gt;Node3</title>
<path fill="none" stroke="midnightblue" d="M226.97,-259.22C244.26,-236.85 274.21,-198.1 287.42,-181.01"/>
<polygon fill="midnightblue" stroke="midnightblue" points="224.17,-257.12 220.82,-267.18 229.71,-261.4 224.17,-257.12"/>
</g>
<!-- Node5 -->
<g id="node5" class="node">
<title>Node5</title>
<g id="a_node5"><a xlink:href="../../db/d70/class_instance_list.html" target="_top" xlink:title="Add a static list for the class T">
<polygon fill="white" stroke="black" points="167.5,-334.5 167.5,-353.5 260.5,-353.5 260.5,-334.5 167.5,-334.5"/>
<text text-anchor="middle" x="214" y="-341.5" font-family="Helvetica,sans-Serif" font-size="10.00">InstanceList&lt; T &gt;</text>
</a>
</g>
</g>
<!-- Node5&#45;&gt;Node4 -->
<g id="edge4" class="edge">
<title>Node5&#45;&gt;Node4</title>
<path fill="none" stroke="orange" stroke-dasharray="5,2" d="M214,-324.04C214,-311.67 214,-296.12 214,-286.63"/>
<polygon fill="orange" stroke="orange" points="210.5,-324.23 214,-334.23 217.5,-324.23 210.5,-324.23"/>
<text text-anchor="middle" x="258" y="-308" font-family="Helvetica,sans-Serif" font-size="10.00"> &lt; AGraphicObject &gt;</text>
</g>
<!-- Node6 -->
<g id="node6" class="node">
<title>Node6</title>
<g id="a_node6"><a xlink:title=" ">
<polygon fill="white" stroke="#bfbfbf" points="390,-267.5 390,-286.5 440,-286.5 440,-267.5 390,-267.5"/>
<text text-anchor="middle" x="415" y="-274.5" font-family="Helvetica,sans-Serif" font-size="10.00">Vector2</text>
</a>
</g>
</g>
<!-- Node6&#45;&gt;Node2 -->
<g id="edge10" class="edge">
<title>Node6&#45;&gt;Node2</title>
<path fill="none" stroke="#9a32cd" stroke-dasharray="5,2" d="M410.39,-257.49C407.63,-242.79 405.73,-221.97 412,-205 430.77,-154.21 481.29,-110.3 504.3,-92.26"/>
<polygon fill="#9a32cd" stroke="#9a32cd" points="407,-258.34 412.55,-267.36 413.83,-256.85 407,-258.34"/>
<text text-anchor="middle" x="459" y="-169" font-family="Helvetica,sans-Serif" font-size="10.00"> direction</text>
</g>
<!-- Node6&#45;&gt;Node3 -->
<g id="edge5" class="edge">
<title>Node6&#45;&gt;Node3</title>
<path fill="none" stroke="#9a32cd" stroke-dasharray="5,2" d="M380.35,-266.69C369.71,-262.57 358.56,-256.83 350,-249 333.73,-234.1 340.13,-222.73 327,-205 320.4,-196.08 311.32,-187.33 304.36,-181.17"/>
<polygon fill="#9a32cd" stroke="#9a32cd" points="379.3,-270.03 389.89,-270.03 381.61,-263.42 379.3,-270.03"/>
<text text-anchor="middle" x="367" y="-235.5" font-family="Helvetica,sans-Serif" font-size="10.00"> center</text>
<text text-anchor="middle" x="367" y="-224.5" font-family="Helvetica,sans-Serif" font-size="10.00">position</text>
<text text-anchor="middle" x="367" y="-213.5" font-family="Helvetica,sans-Serif" font-size="10.00">scale</text>
</g>
<!-- Node12 -->
<g id="node12" class="node">
<title>Node12</title>
<g id="a_node12"><a xlink:href="../../d1/dfd/struct_a_offsetable_patern_1_1_i_offserable_patern_data.html" target="_top" xlink:title=" ">
<polygon fill="white" stroke="black" points="523.5,-156.5 523.5,-186.5 636.5,-186.5 636.5,-156.5 523.5,-156.5"/>
<text text-anchor="start" x="531.5" y="-174.5" font-family="Helvetica,sans-Serif" font-size="10.00">AOffsetablePatern::</text>
<text text-anchor="middle" x="580" y="-163.5" font-family="Helvetica,sans-Serif" font-size="10.00">IOffserablePaternData</text>
</a>
</g>
</g>
<!-- Node6&#45;&gt;Node12 -->
<g id="edge15" class="edge">
<title>Node6&#45;&gt;Node12</title>
<path fill="none" stroke="#9a32cd" stroke-dasharray="5,2" d="M414.34,-256.82C414.87,-240.78 418.31,-218.43 432,-205 445,-192.24 487.26,-183.77 523.3,-178.69"/>
<polygon fill="#9a32cd" stroke="#9a32cd" points="410.84,-257.17 414.36,-267.17 417.84,-257.16 410.84,-257.17"/>
<text text-anchor="middle" x="463.5" y="-241" font-family="Helvetica,sans-Serif" font-size="10.00"> positionOffset</text>
<text text-anchor="middle" x="463.5" y="-230" font-family="Helvetica,sans-Serif" font-size="10.00">rotationCenter</text>
<text text-anchor="middle" x="463.5" y="-219" font-family="Helvetica,sans-Serif" font-size="10.00">scaleCenter</text>
<text text-anchor="middle" x="463.5" y="-208" font-family="Helvetica,sans-Serif" font-size="10.00">scaleOffset</text>
</g>
<!-- Node7 -->
<g id="node7" class="node">
<title>Node7</title>
<g id="a_node7"><a xlink:title=" ">
<polygon fill="white" stroke="#bfbfbf" points="671.5,-267.5 671.5,-286.5 706.5,-286.5 706.5,-267.5 671.5,-267.5"/>
<text text-anchor="middle" x="689" y="-274.5" font-family="Helvetica,sans-Serif" font-size="10.00">float</text>
</a>
</g>
</g>
<!-- Node7&#45;&gt;Node1 -->
<g id="edge19" class="edge">
<title>Node7&#45;&gt;Node1</title>
<path fill="none" stroke="#9a32cd" stroke-dasharray="5,2" d="M716.35,-267.56C750.48,-255.51 807.88,-229.96 837,-187 854.82,-160.71 855.84,-145.85 845,-116 828.3,-70.01 778.42,-34.94 753.1,-19.55"/>
<polygon fill="#9a32cd" stroke="#9a32cd" points="714.92,-264.35 706.57,-270.87 717.16,-270.98 714.92,-264.35"/>
<text text-anchor="middle" x="883" y="-130" font-family="Helvetica,sans-Serif" font-size="10.00"> startPositionX</text>
<text text-anchor="middle" x="883" y="-119" font-family="Helvetica,sans-Serif" font-size="10.00">startPositionY</text>
</g>
<!-- Node7&#45;&gt;Node2 -->
<g id="edge11" class="edge">
<title>Node7&#45;&gt;Node2</title>
<path fill="none" stroke="#9a32cd" stroke-dasharray="5,2" d="M687.35,-257.28C684.04,-231.07 674.3,-183.58 646,-156 614.54,-125.34 567.54,-103.43 539.5,-92.17"/>
<polygon fill="#9a32cd" stroke="#9a32cd" points="683.88,-257.81 688.43,-267.38 690.84,-257.06 683.88,-257.81"/>
<text text-anchor="middle" x="680.5" y="-169" font-family="Helvetica,sans-Serif" font-size="10.00"> speed</text>
</g>
<!-- Node7&#45;&gt;Node3 -->
<g id="edge6" class="edge">
<title>Node7&#45;&gt;Node3</title>
<path fill="none" stroke="#9a32cd" stroke-dasharray="5,2" d="M660.92,-270.41C655.01,-269.26 648.8,-268.07 643,-267 596.87,-258.5 580.64,-270.59 539,-249 514.45,-236.27 519.68,-217.47 495,-205 447.26,-180.88 428.79,-195.66 376,-187 363.45,-184.94 349.83,-182.58 337.37,-180.38"/>
<polygon fill="#9a32cd" stroke="#9a32cd" points="660.62,-273.91 671.1,-272.4 661.97,-267.04 660.62,-273.91"/>
<text text-anchor="middle" x="563" y="-224.5" font-family="Helvetica,sans-Serif" font-size="10.00"> orientation</text>
</g>
<!-- Node11 -->
<g id="node11" class="node">
<title>Node11</title>
<g id="a_node11"><a xlink:href="../../d7/d74/struct_sequence_move_patern_1_1_sequence_patern.html" target="_top" xlink:title=" ">
<polygon fill="white" stroke="black" points="681.5,-67.5 681.5,-97.5 794.5,-97.5 794.5,-67.5 681.5,-67.5"/>
<text text-anchor="start" x="689.5" y="-85.5" font-family="Helvetica,sans-Serif" font-size="10.00">SequenceMovePatern</text>
<text text-anchor="middle" x="738" y="-74.5" font-family="Helvetica,sans-Serif" font-size="10.00">::SequencePatern</text>
</a>
</g>
</g>
<!-- Node7&#45;&gt;Node11 -->
<g id="edge18" class="edge">
<title>Node7&#45;&gt;Node11</title>
<path fill="none" stroke="#9a32cd" stroke-dasharray="5,2" d="M699.04,-258.29C700.51,-255.26 701.9,-252.08 703,-249 722.38,-194.8 732.6,-126.58 736.33,-97.58"/>
<polygon fill="#9a32cd" stroke="#9a32cd" points="695.87,-256.8 694.29,-267.27 702.06,-260.07 695.87,-256.8"/>
<text text-anchor="middle" x="737" y="-169" font-family="Helvetica,sans-Serif" font-size="10.00"> time</text>
</g>
<!-- Node7&#45;&gt;Node12 -->
<g id="edge16" class="edge">
<title>Node7&#45;&gt;Node12</title>
<path fill="none" stroke="#9a32cd" stroke-dasharray="5,2" d="M661.37,-271.58C645.83,-267.85 627.01,-261.1 614,-249 604.47,-240.14 591.65,-206.27 584.79,-186.7"/>
<polygon fill="#9a32cd" stroke="#9a32cd" points="660.98,-275.07 671.48,-273.71 662.42,-268.22 660.98,-275.07"/>
<text text-anchor="middle" x="644.5" y="-224.5" font-family="Helvetica,sans-Serif" font-size="10.00"> rotationOffset</text>
</g>
<!-- Node8 -->
<g id="node8" class="node">
<title>Node8</title>
<g id="a_node8"><a xlink:title=" ">
<polygon fill="white" stroke="#bfbfbf" points="310.5,-267.5 310.5,-286.5 371.5,-286.5 371.5,-267.5 310.5,-267.5"/>
<text text-anchor="middle" x="341" y="-274.5" font-family="Helvetica,sans-Serif" font-size="10.00">Texture2D</text>
</a>
</g>
</g>
<!-- Node8&#45;&gt;Node3 -->
<g id="edge7" class="edge">
<title>Node8&#45;&gt;Node3</title>
<path fill="none" stroke="#9a32cd" stroke-dasharray="5,2" d="M307.52,-262.08C302.53,-258.55 298.04,-254.23 295,-249 282.45,-227.41 287.79,-196.27 291.52,-181.26"/>
<polygon fill="#9a32cd" stroke="#9a32cd" points="305.86,-265.17 316.24,-267.31 309.46,-259.17 305.86,-265.17"/>
<text text-anchor="middle" x="311" y="-224.5" font-family="Helvetica,sans-Serif" font-size="10.00"> texture</text>
</g>
<!-- Node9 -->
<g id="node9" class="node">
<title>Node9</title>
<g id="a_node9"><a xlink:title=" ">
<polygon fill="white" stroke="#bfbfbf" points="0,-267.5 0,-286.5 60,-286.5 60,-267.5 0,-267.5"/>
<text text-anchor="middle" x="30" y="-274.5" font-family="Helvetica,sans-Serif" font-size="10.00">Rectangle</text>
</a>
</g>
</g>
<!-- Node9&#45;&gt;Node3 -->
<g id="edge8" class="edge">
<title>Node9&#45;&gt;Node3</title>
<path fill="none" stroke="#9a32cd" stroke-dasharray="5,2" d="M42.83,-259.05C56.37,-242.46 79.3,-217.87 105,-205 151.29,-181.82 211.08,-174.81 250.89,-172.88"/>
<polygon fill="#9a32cd" stroke="#9a32cd" points="39.75,-257.3 36.31,-267.32 45.25,-261.63 39.75,-257.3"/>
<text text-anchor="middle" x="121" y="-224.5" font-family="Helvetica,sans-Serif" font-size="10.00"> source</text>
</g>
<!-- Node10 -->
<g id="node10" class="node">
<title>Node10</title>
<g id="a_node10"><a xlink:title=" ">
<polygon fill="white" stroke="#bfbfbf" points="78.5,-267.5 78.5,-286.5 117.5,-286.5 117.5,-267.5 78.5,-267.5"/>
<text text-anchor="middle" x="98" y="-274.5" font-family="Helvetica,sans-Serif" font-size="10.00">Color</text>
</a>
</g>
</g>
<!-- Node10&#45;&gt;Node3 -->
<g id="edge9" class="edge">
<title>Node10&#45;&gt;Node3</title>
<path fill="none" stroke="#9a32cd" stroke-dasharray="5,2" d="M119.22,-261.75C142.23,-246.61 180.33,-222.52 215,-205 233.13,-195.84 254.48,-187.17 270.41,-181.1"/>
<polygon fill="#9a32cd" stroke="#9a32cd" points="117.01,-259.01 110.61,-267.45 120.88,-264.84 117.01,-259.01"/>
<text text-anchor="middle" x="223" y="-224.5" font-family="Helvetica,sans-Serif" font-size="10.00"> tint</text>
</g>
<!-- Node11&#45;&gt;Node1 -->
<g id="edge12" class="edge">
<title>Node11&#45;&gt;Node1</title>
<path fill="none" stroke="#9a32cd" stroke-dasharray="5,2" d="M738,-57.09C738,-44.21 738,-29.2 738,-19.89"/>
<polygon fill="#9a32cd" stroke="#9a32cd" points="734.5,-57.23 738,-67.23 741.5,-57.23 734.5,-57.23"/>
<text text-anchor="middle" x="749" y="-41" font-family="Helvetica,sans-Serif" font-size="10.00"> data</text>
</g>
<!-- Node12&#45;&gt;Node11 -->
<g id="edge13" class="edge">
<title>Node12&#45;&gt;Node11</title>
<path fill="none" stroke="midnightblue" d="M614.87,-151.3C644.4,-135.04 686.05,-112.11 712.54,-97.52"/>
<polygon fill="midnightblue" stroke="midnightblue" points="612.81,-148.44 605.74,-156.33 616.19,-154.57 612.81,-148.44"/>
</g>
<!-- Node13 -->
<g id="node13" class="node">
<title>Node13</title>
<g id="a_node13"><a xlink:href="../../da/dd8/struct_a_patern_1_1_i_patern_data.html" target="_top" xlink:title=" ">
<polygon fill="white" stroke="black" points="526,-267.5 526,-286.5 634,-286.5 634,-267.5 526,-267.5"/>
<text text-anchor="middle" x="580" y="-274.5" font-family="Helvetica,sans-Serif" font-size="10.00">APatern::IPaternData</text>
</a>
</g>
</g>
<!-- Node13&#45;&gt;Node12 -->
<g id="edge14" class="edge">
<title>Node13&#45;&gt;Node12</title>
<path fill="none" stroke="midnightblue" d="M580,-257C580,-236.74 580,-205.11 580,-186.84"/>
<polygon fill="midnightblue" stroke="midnightblue" points="576.5,-257.18 580,-267.18 583.5,-257.18 576.5,-257.18"/>
</g>
<!-- Node14 -->
<g id="node14" class="node">
<title>Node14</title>
<g id="a_node14"><a xlink:title=" ">
<polygon fill="white" stroke="#bfbfbf" points="778,-162 778,-181 828,-181 828,-162 778,-162"/>
<text text-anchor="middle" x="803" y="-169" font-family="Helvetica,sans-Serif" font-size="10.00">vector&lt;</text>
</a>
</g>
</g>
<!-- Node14&#45;&gt;Node11 -->
<g id="edge17" class="edge">
<title>Node14&#45;&gt;Node11</title>
<path fill="none" stroke="#9a32cd" stroke-dasharray="5,2" d="M786.53,-154.53C781.62,-149.44 776.39,-143.66 772,-138 762.02,-125.14 752.36,-109.22 745.91,-97.91"/>
<polygon fill="#9a32cd" stroke="#9a32cd" points="784.26,-157.22 793.79,-161.84 789.23,-152.28 784.26,-157.22"/>
<text text-anchor="middle" x="808.5" y="-130" font-family="Helvetica,sans-Serif" font-size="10.00"> paternSequence</text>
<text text-anchor="middle" x="808.5" y="-119" font-family="Helvetica,sans-Serif" font-size="10.00">sequenceDone</text>
</g>
</g>
</svg>
