<?xml version="1.0" encoding="UTF-8" standalone="no"?>
<!DOCTYPE svg PUBLIC "-//W3C//DTD SVG 1.1//EN"
 "http://www.w3.org/Graphics/SVG/1.1/DTD/svg11.dtd">
<!-- Generated by graphviz version 2.49.3 (20211027.1534)
 -->
<!-- Title: PaternComputer Pages: 1 -->
<!--zoomable 362 -->
<svg id="main" version="1.1" xmlns="http://www.w3.org/2000/svg" xmlns:xlink="http://www.w3.org/1999/xlink" xml:space="preserve" onload="init(evt)">
<style type="text/css"><![CDATA[
.edge:hover path { stroke: red; }
.edge:hover polygon { stroke: red; fill: red; }
]]></style>
<script type="text/javascript"><![CDATA[
var edges = document.getElementsByTagName('g');
if (edges && edges.length) {
  for (var i=0;i<edges.length;i++) {
    if (edges[i].id.substr(0,4)=='edge') {
      edges[i].setAttribute('class','edge');
    }
  }
}
]]></script>
        <defs>
                <circle id="rim" cx="0" cy="0" r="7"/>
                <circle id="rim2" cx="0" cy="0" r="3.5"/>
                <g id="zoomPlus">
                        <use xlink:href="#rim" fill="#404040">
                                <set attributeName="fill" to="#808080" begin="zoomplus.mouseover" end="zoomplus.mouseout"/>
                        </use>
                        <path d="M-4,0h8M0,-4v8" fill="none" stroke="white" stroke-width="1.5" pointer-events="none"/>
                </g>
                <g id="zoomMin">
                        <use xlink:href="#rim" fill="#404040">
                                <set attributeName="fill" to="#808080" begin="zoomminus.mouseover" end="zoomminus.mouseout"/>
                        </use>
                        <path d="M-4,0h8" fill="none" stroke="white" stroke-width="1.5" pointer-events="none"/>
                </g>
                <g id="dirArrow">
                        <path fill="none" stroke="white" stroke-width="1.5" d="M0,-3.0v7 M-2.5,-0.5L0,-3.0L2.5,-0.5"/>
                </g>
               <g id="resetDef">
                       <use xlink:href="#rim2" fill="#404040">
                               <set attributeName="fill" to="#808080" begin="reset.mouseover" end="reset.mouseout"/>
                       </use>
               </g>
        </defs>

<script type="text/javascript">
var viewWidth = 958;
var viewHeight = 362;
var sectionId = 'dynsection-1';
</script>
<script xlink:href="../../svgpan.js"/>
<svg id="graph" class="graph">
<g id="viewport">
<title>PaternComputer</title>
<polygon fill="white" stroke="transparent" points="-4,4 -4,-358 953.5,-358 953.5,4 -4,4"/>
<!-- Node1 -->
<g id="node1" class="node">
<title>Node1</title>
<g id="a_node1"><a xlink:title=" ">
<polygon fill="#bfbfbf" stroke="black" points="672,-0.5 672,-19.5 759,-19.5 759,-0.5 672,-0.5"/>
<text text-anchor="middle" x="715.5" y="-7.5" font-family="Helvetica,sans-Serif" font-size="10.00">PaternComputer</text>
</a>
</g>
</g>
<!-- Node2 -->
<g id="node2" class="node">
<title>Node2</title>
<g id="a_node2"><a xlink:href="../../d5/d15/class_a_movable.html" target="_top" xlink:title=" ">
<polygon fill="white" stroke="black" points="511.5,-73 511.5,-92 571.5,-92 571.5,-73 511.5,-73"/>
<text text-anchor="middle" x="541.5" y="-80" font-family="Helvetica,sans-Serif" font-size="10.00">AMovable</text>
</a>
</g>
</g>
<!-- Node2&#45;&gt;Node1 -->
<g id="edge1" class="edge">
<title>Node2&#45;&gt;Node1</title>
<path fill="none" stroke="midnightblue" d="M571.77,-69.24C606.87,-55.01 663.82,-31.94 694.44,-19.53"/>
<polygon fill="midnightblue" stroke="midnightblue" points="570.44,-66 562.49,-73 573.07,-72.48 570.44,-66"/>
</g>
<!-- Node3 -->
<g id="node3" class="node">
<title>Node3</title>
<g id="a_node3"><a xlink:href="../../d3/d92/class_a_graphic_object.html" target="_top" xlink:title="An object that can be drawn and updated">
<polygon fill="white" stroke="black" points="274.5,-162 274.5,-181 360.5,-181 360.5,-162 274.5,-162"/>
<text text-anchor="middle" x="317.5" y="-169" font-family="Helvetica,sans-Serif" font-size="10.00">AGraphicObject</text>
</a>
</g>
</g>
<!-- Node3&#45;&gt;Node2 -->
<g id="edge2" class="edge">
<title>Node3&#45;&gt;Node2</title>
<path fill="none" stroke="midnightblue" d="M337.43,-155.96C355.07,-143.72 381.9,-126.56 407.5,-116 441.8,-101.85 483.69,-92.92 511.4,-88.08"/>
<polygon fill="midnightblue" stroke="midnightblue" points="335.24,-153.22 329.1,-161.86 339.29,-158.94 335.24,-153.22"/>
</g>
<!-- Node4 -->
<g id="node4" class="node">
<title>Node4</title>
<g id="a_node4"><a xlink:href="../../db/d70/class_instance_list.html" target="_top" xlink:title=" ">
<polygon fill="white" stroke="black" points="57.5,-267.5 57.5,-286.5 213.5,-286.5 213.5,-267.5 57.5,-267.5"/>
<text text-anchor="middle" x="135.5" y="-274.5" font-family="Helvetica,sans-Serif" font-size="10.00">InstanceList&lt; AGraphicObject &gt;</text>
</a>
</g>
</g>
<!-- Node4&#45;&gt;Node3 -->
<g id="edge3" class="edge">
<title>Node4&#45;&gt;Node3</title>
<path fill="none" stroke="midnightblue" d="M159.11,-262.39C184.03,-248.05 224.47,-224.84 259.5,-205 273.96,-196.81 290.51,-187.55 302.21,-181.01"/>
<polygon fill="midnightblue" stroke="midnightblue" points="157.28,-259.41 150.36,-267.43 160.78,-265.47 157.28,-259.41"/>
</g>
<!-- Node5 -->
<g id="node5" class="node">
<title>Node5</title>
<g id="a_node5"><a xlink:href="../../db/d70/class_instance_list.html" target="_top" xlink:title="Add a static list for the class T">
<polygon fill="white" stroke="black" points="89,-334.5 89,-353.5 182,-353.5 182,-334.5 89,-334.5"/>
<text text-anchor="middle" x="135.5" y="-341.5" font-family="Helvetica,sans-Serif" font-size="10.00">InstanceList&lt; T &gt;</text>
</a>
</g>
</g>
<!-- Node5&#45;&gt;Node4 -->
<g id="edge4" class="edge">
<title>Node5&#45;&gt;Node4</title>
<path fill="none" stroke="orange" stroke-dasharray="5,2" d="M135.5,-324.04C135.5,-311.67 135.5,-296.12 135.5,-286.63"/>
<polygon fill="orange" stroke="orange" points="132,-324.23 135.5,-334.23 139,-324.23 132,-324.23"/>
<text text-anchor="middle" x="179.5" y="-308" font-family="Helvetica,sans-Serif" font-size="10.00"> &lt; AGraphicObject &gt;</text>
</g>
<!-- Node6 -->
<g id="node6" class="node">
<title>Node6</title>
<g id="a_node6"><a xlink:title=" ">
<polygon fill="white" stroke="#bfbfbf" points="444.5,-267.5 444.5,-286.5 494.5,-286.5 494.5,-267.5 444.5,-267.5"/>
<text text-anchor="middle" x="469.5" y="-274.5" font-family="Helvetica,sans-Serif" font-size="10.00">Vector2</text>
</a>
</g>
</g>
<!-- Node6&#45;&gt;Node2 -->
<g id="edge10" class="edge">
<title>Node6&#45;&gt;Node2</title>
<path fill="none" stroke="#9a32cd" stroke-dasharray="5,2" d="M444.97,-261.12C441.14,-257.65 437.72,-253.59 435.5,-249 427,-231.39 431.73,-224.19 435.5,-205 440.03,-181.92 441.66,-175.02 455.5,-156 475.72,-128.21 508.79,-104.36 527.48,-92.17"/>
<polygon fill="#9a32cd" stroke="#9a32cd" points="443.11,-264.11 453.17,-267.44 447.38,-258.56 443.11,-264.11"/>
<text text-anchor="middle" x="475.5" y="-169" font-family="Helvetica,sans-Serif" font-size="10.00"> direction</text>
</g>
<!-- Node6&#45;&gt;Node3 -->
<g id="edge5" class="edge">
<title>Node6&#45;&gt;Node3</title>
<path fill="none" stroke="#9a32cd" stroke-dasharray="5,2" d="M434.01,-272.91C414.39,-269.62 390.59,-262.87 373.5,-249 356.36,-235.1 363.63,-222.73 350.5,-205 343.9,-196.08 334.82,-187.33 327.86,-181.17"/>
<polygon fill="#9a32cd" stroke="#9a32cd" points="433.73,-276.4 444.13,-274.36 434.73,-269.47 433.73,-276.4"/>
<text text-anchor="middle" x="390.5" y="-235.5" font-family="Helvetica,sans-Serif" font-size="10.00"> center</text>
<text text-anchor="middle" x="390.5" y="-224.5" font-family="Helvetica,sans-Serif" font-size="10.00">position</text>
<text text-anchor="middle" x="390.5" y="-213.5" font-family="Helvetica,sans-Serif" font-size="10.00">scale</text>
</g>
<!-- Node11 -->
<g id="node11" class="node">
<title>Node11</title>
<g id="a_node11"><a xlink:href="../../d7/d74/struct_sequence_move_patern_1_1_sequence_patern.html" target="_top" xlink:title="The datas of SequenceMovePatern.">
<polygon fill="white" stroke="black" points="659,-67.5 659,-97.5 772,-97.5 772,-67.5 659,-67.5"/>
<text text-anchor="start" x="667" y="-85.5" font-family="Helvetica,sans-Serif" font-size="10.00">SequenceMovePatern</text>
<text text-anchor="middle" x="715.5" y="-74.5" font-family="Helvetica,sans-Serif" font-size="10.00">::SequencePatern</text>
</a>
</g>
</g>
<!-- Node6&#45;&gt;Node11 -->
<g id="edge18" class="edge">
<title>Node6&#45;&gt;Node11</title>
<path fill="none" stroke="#9a32cd" stroke-dasharray="5,2" d="M492.21,-261.13C496.41,-257.56 500.44,-253.47 503.5,-249 527.98,-213.29 503.05,-187.74 532.5,-156 565.5,-120.43 618.2,-102.01 658.59,-92.66"/>
<polygon fill="#9a32cd" stroke="#9a32cd" points="489.93,-258.47 484.1,-267.32 494.18,-264.03 489.93,-258.47"/>
<text text-anchor="middle" x="552.5" y="-174.5" font-family="Helvetica,sans-Serif" font-size="10.00"> direction</text>
<text text-anchor="middle" x="552.5" y="-163.5" font-family="Helvetica,sans-Serif" font-size="10.00">position</text>
</g>
<!-- Node12 -->
<g id="node12" class="node">
<title>Node12</title>
<g id="a_node12"><a xlink:href="../../d1/dfd/struct_a_offsetable_patern_1_1_i_offserable_patern_data.html" target="_top" xlink:title="Datas for AOffsetablePatern.">
<polygon fill="white" stroke="black" points="709,-156.5 709,-186.5 822,-186.5 822,-156.5 709,-156.5"/>
<text text-anchor="start" x="717" y="-174.5" font-family="Helvetica,sans-Serif" font-size="10.00">AOffsetablePatern::</text>
<text text-anchor="middle" x="765.5" y="-163.5" font-family="Helvetica,sans-Serif" font-size="10.00">IOffserablePaternData</text>
</a>
</g>
</g>
<!-- Node6&#45;&gt;Node12 -->
<g id="edge15" class="edge">
<title>Node6&#45;&gt;Node12</title>
<path fill="none" stroke="#9a32cd" stroke-dasharray="5,2" d="M499.45,-263.26C508.88,-259 519.25,-254.04 528.5,-249 560.45,-231.61 563.61,-218.19 597.5,-205 640.4,-188.3 654.34,-195.94 699.5,-187 702.49,-186.41 705.56,-185.79 708.65,-185.15"/>
<polygon fill="#9a32cd" stroke="#9a32cd" points="497.77,-260.18 490.05,-267.43 500.61,-266.58 497.77,-260.18"/>
<text text-anchor="middle" x="629" y="-241" font-family="Helvetica,sans-Serif" font-size="10.00"> positionOffset</text>
<text text-anchor="middle" x="629" y="-230" font-family="Helvetica,sans-Serif" font-size="10.00">rotationCenter</text>
<text text-anchor="middle" x="629" y="-219" font-family="Helvetica,sans-Serif" font-size="10.00">scaleCenter</text>
<text text-anchor="middle" x="629" y="-208" font-family="Helvetica,sans-Serif" font-size="10.00">scaleOffset</text>
</g>
<!-- Node7 -->
<g id="node7" class="node">
<title>Node7</title>
<g id="a_node7"><a xlink:title=" ">
<polygon fill="white" stroke="#bfbfbf" points="748,-267.5 748,-286.5 783,-286.5 783,-267.5 748,-267.5"/>
<text text-anchor="middle" x="765.5" y="-274.5" font-family="Helvetica,sans-Serif" font-size="10.00">float</text>
</a>
</g>
</g>
<!-- Node7&#45;&gt;Node1 -->
<g id="edge20" class="edge">
<title>Node7&#45;&gt;Node1</title>
<path fill="none" stroke="#9a32cd" stroke-dasharray="5,2" d="M793.35,-272.11C811.53,-268.48 835.05,-261.65 852.5,-249 889.52,-222.16 916.29,-197.22 896.5,-156 862.43,-85.04 774.84,-37.9 735.34,-19.58"/>
<polygon fill="#9a32cd" stroke="#9a32cd" points="792.57,-268.69 783.34,-273.89 793.8,-275.58 792.57,-268.69"/>
<text text-anchor="middle" x="917.5" y="-130" font-family="Helvetica,sans-Serif" font-size="10.00"> startPositionX</text>
<text text-anchor="middle" x="917.5" y="-119" font-family="Helvetica,sans-Serif" font-size="10.00">startPositionY</text>
</g>
<!-- Node7&#45;&gt;Node2 -->
<g id="edge11" class="edge">
<title>Node7&#45;&gt;Node2</title>
<path fill="none" stroke="#9a32cd" stroke-dasharray="5,2" d="M742.12,-262.26C717,-247.64 675.78,-224.03 639.5,-205 623.3,-196.51 615.94,-199.4 602.5,-187 571.85,-158.7 551.86,-111.45 544.58,-92.13"/>
<polygon fill="#9a32cd" stroke="#9a32cd" points="740.52,-265.38 750.92,-267.4 744.05,-259.34 740.52,-265.38"/>
<text text-anchor="middle" x="617" y="-169" font-family="Helvetica,sans-Serif" font-size="10.00"> speed</text>
</g>
<!-- Node7&#45;&gt;Node3 -->
<g id="edge6" class="edge">
<title>Node7&#45;&gt;Node3</title>
<path fill="none" stroke="#9a32cd" stroke-dasharray="5,2" d="M737.95,-272.4C724.04,-270.65 706.89,-268.58 691.5,-267 596.11,-257.21 566.92,-280.91 476.5,-249 443.6,-237.39 442.7,-220.61 411.5,-205 391.43,-194.95 367.5,-186.73 348.81,-181.07"/>
<polygon fill="#9a32cd" stroke="#9a32cd" points="737.51,-275.87 747.88,-273.67 738.4,-268.93 737.51,-275.87"/>
<text text-anchor="middle" x="500.5" y="-224.5" font-family="Helvetica,sans-Serif" font-size="10.00"> orientation</text>
</g>
<!-- Node7&#45;&gt;Node11 -->
<g id="edge17" class="edge">
<title>Node7&#45;&gt;Node11</title>
<path fill="none" stroke="#9a32cd" stroke-dasharray="5,2" d="M793.16,-271.75C806.79,-268.12 822.07,-261.41 830.5,-249 853.72,-214.81 851.54,-192.15 831.5,-156 815.79,-127.65 783.85,-108.92 757.46,-97.61"/>
<polygon fill="#9a32cd" stroke="#9a32cd" points="792.2,-268.38 783.2,-273.97 793.72,-275.21 792.2,-268.38"/>
<text text-anchor="middle" x="868.5" y="-174.5" font-family="Helvetica,sans-Serif" font-size="10.00"> orientation</text>
<text text-anchor="middle" x="868.5" y="-163.5" font-family="Helvetica,sans-Serif" font-size="10.00">time</text>
</g>
<!-- Node7&#45;&gt;Node12 -->
<g id="edge16" class="edge">
<title>Node7&#45;&gt;Node12</title>
<path fill="none" stroke="#9a32cd" stroke-dasharray="5,2" d="M765.5,-257C765.5,-236.74 765.5,-205.11 765.5,-186.84"/>
<polygon fill="#9a32cd" stroke="#9a32cd" points="762,-257.18 765.5,-267.18 769,-257.18 762,-257.18"/>
<text text-anchor="middle" x="796" y="-224.5" font-family="Helvetica,sans-Serif" font-size="10.00"> rotationOffset</text>
</g>
<!-- Node8 -->
<g id="node8" class="node">
<title>Node8</title>
<g id="a_node8"><a xlink:title=" ">
<polygon fill="white" stroke="#bfbfbf" points="232,-267.5 232,-286.5 293,-286.5 293,-267.5 232,-267.5"/>
<text text-anchor="middle" x="262.5" y="-274.5" font-family="Helvetica,sans-Serif" font-size="10.00">Texture2D</text>
</a>
</g>
</g>
<!-- Node8&#45;&gt;Node3 -->
<g id="edge7" class="edge">
<title>Node8&#45;&gt;Node3</title>
<path fill="none" stroke="#9a32cd" stroke-dasharray="5,2" d="M262.7,-257.3C263.64,-242.19 266.8,-220.9 276.5,-205 282.65,-194.92 293.12,-186.7 301.95,-181.04"/>
<polygon fill="#9a32cd" stroke="#9a32cd" points="259.2,-257.33 262.34,-267.45 266.19,-257.58 259.2,-257.33"/>
<text text-anchor="middle" x="292.5" y="-224.5" font-family="Helvetica,sans-Serif" font-size="10.00"> texture</text>
</g>
<!-- Node9 -->
<g id="node9" class="node">
<title>Node9</title>
<g id="a_node9"><a xlink:title=" ">
<polygon fill="white" stroke="#bfbfbf" points="311.5,-267.5 311.5,-286.5 371.5,-286.5 371.5,-267.5 311.5,-267.5"/>
<text text-anchor="middle" x="341.5" y="-274.5" font-family="Helvetica,sans-Serif" font-size="10.00">Rectangle</text>
</a>
</g>
</g>
<!-- Node9&#45;&gt;Node3 -->
<g id="edge8" class="edge">
<title>Node9&#45;&gt;Node3</title>
<path fill="none" stroke="#9a32cd" stroke-dasharray="5,2" d="M324.4,-259.41C322,-256.19 319.88,-252.67 318.5,-249 309.81,-225.87 313.22,-195.97 315.73,-181.34"/>
<polygon fill="#9a32cd" stroke="#9a32cd" points="321.91,-261.87 331.12,-267.09 327.18,-257.26 321.91,-261.87"/>
<text text-anchor="middle" x="334.5" y="-224.5" font-family="Helvetica,sans-Serif" font-size="10.00"> source</text>
</g>
<!-- Node10 -->
<g id="node10" class="node">
<title>Node10</title>
<g id="a_node10"><a xlink:title=" ">
<polygon fill="white" stroke="#bfbfbf" points="0,-267.5 0,-286.5 39,-286.5 39,-267.5 0,-267.5"/>
<text text-anchor="middle" x="19.5" y="-274.5" font-family="Helvetica,sans-Serif" font-size="10.00">Color</text>
</a>
</g>
</g>
<!-- Node10&#45;&gt;Node3 -->
<g id="edge9" class="edge">
<title>Node10&#45;&gt;Node3</title>
<path fill="none" stroke="#9a32cd" stroke-dasharray="5,2" d="M42.45,-262.31C70.06,-246.39 118.22,-220.35 162.5,-205 199.26,-192.25 242.74,-183.67 274.28,-178.54"/>
<polygon fill="#9a32cd" stroke="#9a32cd" points="40.46,-259.42 33.59,-267.48 43.99,-265.47 40.46,-259.42"/>
<text text-anchor="middle" x="170.5" y="-224.5" font-family="Helvetica,sans-Serif" font-size="10.00"> tint</text>
</g>
<!-- Node11&#45;&gt;Node1 -->
<g id="edge12" class="edge">
<title>Node11&#45;&gt;Node1</title>
<path fill="none" stroke="#9a32cd" stroke-dasharray="5,2" d="M715.5,-57.09C715.5,-44.21 715.5,-29.2 715.5,-19.89"/>
<polygon fill="#9a32cd" stroke="#9a32cd" points="712,-57.23 715.5,-67.23 719,-57.23 712,-57.23"/>
<text text-anchor="middle" x="726.5" y="-41" font-family="Helvetica,sans-Serif" font-size="10.00"> data</text>
</g>
<!-- Node12&#45;&gt;Node11 -->
<g id="edge13" class="edge">
<title>Node12&#45;&gt;Node11</title>
<path fill="none" stroke="midnightblue" d="M757.14,-146.52C753.29,-136.73 748.28,-125.51 742.5,-116 738.61,-109.61 733.54,-103.15 728.84,-97.69"/>
<polygon fill="midnightblue" stroke="midnightblue" points="753.93,-147.92 760.72,-156.06 760.49,-145.46 753.93,-147.92"/>
</g>
<!-- Node13 -->
<g id="node13" class="node">
<title>Node13</title>
<g id="a_node13"><a xlink:href="../../da/dd8/struct_a_patern_1_1_i_patern_data.html" target="_top" xlink:title="Datas to pass to the patern. &#160;Overriden by the child classes.">
<polygon fill="white" stroke="black" points="574.5,-267.5 574.5,-286.5 682.5,-286.5 682.5,-267.5 574.5,-267.5"/>
<text text-anchor="middle" x="628.5" y="-274.5" font-family="Helvetica,sans-Serif" font-size="10.00">APatern::IPaternData</text>
</a>
</g>
</g>
<!-- Node13&#45;&gt;Node12 -->
<g id="edge14" class="edge">
<title>Node13&#45;&gt;Node12</title>
<path fill="none" stroke="midnightblue" d="M648.27,-261.06C674.55,-241.21 720.65,-206.38 746.52,-186.84"/>
<polygon fill="midnightblue" stroke="midnightblue" points="646.05,-258.36 640.18,-267.18 650.27,-263.94 646.05,-258.36"/>
</g>
<!-- Node14 -->
<g id="node14" class="node">
<title>Node14</title>
<g id="a_node14"><a xlink:title=" ">
<polygon fill="white" stroke="#bfbfbf" points="640.5,-162 640.5,-181 690.5,-181 690.5,-162 640.5,-162"/>
<text text-anchor="middle" x="665.5" y="-169" font-family="Helvetica,sans-Serif" font-size="10.00">vector&lt;</text>
</a>
</g>
</g>
<!-- Node14&#45;&gt;Node11 -->
<g id="edge19" class="edge">
<title>Node14&#45;&gt;Node11</title>
<path fill="none" stroke="#9a32cd" stroke-dasharray="5,2" d="M661.25,-151.87C659.73,-140.8 659.61,-126.85 665.5,-116 669.6,-108.45 676.3,-102.38 683.47,-97.62"/>
<polygon fill="#9a32cd" stroke="#9a32cd" points="657.82,-152.56 663.08,-161.76 664.71,-151.29 657.82,-152.56"/>
<text text-anchor="middle" x="702" y="-130" font-family="Helvetica,sans-Serif" font-size="10.00"> paternSequence</text>
<text text-anchor="middle" x="702" y="-119" font-family="Helvetica,sans-Serif" font-size="10.00">sequenceDone</text>
</g>
</g>
</svg>
        <g id="navigator" transform="translate(0 0)" fill="#404254">
                <rect fill="#f2f5e9" fill-opacity="0.5" stroke="#606060" stroke-width=".5" x="0" y="0" width="60" height="60"/>
                <use id="zoomplus" xlink:href="#zoomPlus" x="17" y="9" onmousedown="handleZoom(evt,'in')"/>
                <use id="zoomminus" xlink:href="#zoomMin" x="42" y="9" onmousedown="handleZoom(evt,'out')"/>
                <use id="reset" xlink:href="#resetDef" x="30" y="36" onmousedown="handleReset()"/>
                <g id="arrowUp" xlink:href="#dirArrow" transform="translate(30 24)" onmousedown="handlePan(0,-1)">
                  <use xlink:href="#rim" fill="#404040">
                        <set attributeName="fill" to="#808080" begin="arrowUp.mouseover" end="arrowUp.mouseout"/>
                  </use>
                  <path fill="none" stroke="white" stroke-width="1.5" d="M0,-3.0v7 M-2.5,-0.5L0,-3.0L2.5,-0.5"/>
                </g>
                <g id="arrowRight" xlink:href="#dirArrow" transform="rotate(90) translate(36 -43)" onmousedown="handlePan(1,0)">
                  <use xlink:href="#rim" fill="#404040">
                        <set attributeName="fill" to="#808080" begin="arrowRight.mouseover" end="arrowRight.mouseout"/>
                  </use>
                  <path fill="none" stroke="white" stroke-width="1.5" d="M0,-3.0v7 M-2.5,-0.5L0,-3.0L2.5,-0.5"/>
                </g>
                <g id="arrowDown" xlink:href="#dirArrow" transform="rotate(180) translate(-30 -48)" onmousedown="handlePan(0,1)">
                  <use xlink:href="#rim" fill="#404040">
                        <set attributeName="fill" to="#808080" begin="arrowDown.mouseover" end="arrowDown.mouseout"/>
                  </use>
                  <path fill="none" stroke="white" stroke-width="1.5" d="M0,-3.0v7 M-2.5,-0.5L0,-3.0L2.5,-0.5"/>
                </g>
                <g id="arrowLeft" xlink:href="#dirArrow" transform="rotate(270) translate(-36 17)" onmousedown="handlePan(-1,0)">
                  <use xlink:href="#rim" fill="#404040">
                        <set attributeName="fill" to="#808080" begin="arrowLeft.mouseover" end="arrowLeft.mouseout"/>
                  </use>
                  <path fill="none" stroke="white" stroke-width="1.5" d="M0,-3.0v7 M-2.5,-0.5L0,-3.0L2.5,-0.5"/>
                </g>
        </g>
        <svg viewBox="0 0 15 15" width="100%" height="30px" preserveAspectRatio="xMaxYMin meet">
         <g id="arrow_out" transform="scale(0.3 0.3)">
          <a xlink:href="class_patern_computer__coll__graph_org.svg" target="_base">
           <rect id="button" ry="5" rx="5" y="6" x="6" height="38" width="38"
                fill="#f2f5e9" fill-opacity="0.5" stroke="#606060" stroke-width="1.0"/>
           <path id="arrow"
             d="M 11.500037,31.436501 C 11.940474,20.09759 22.043105,11.32322 32.158766,21.979434 L 37.068811,17.246167 C 37.068811,17.246167 37.088388,32 37.088388,32 L 22.160133,31.978069 C 22.160133,31.978069 26.997745,27.140456 26.997745,27.140456 C 18.528582,18.264221 13.291696,25.230495 11.500037,31.436501 z"
             style="fill:#404040;"/>
          </a>
         </g>
        </svg>
</svg>
