<?xml version="1.0" encoding="UTF-8" standalone="no"?>
<!DOCTYPE svg PUBLIC "-//W3C//DTD SVG 1.1//EN"
 "http://www.w3.org/Graphics/SVG/1.1/DTD/svg11.dtd">
<!-- Generated by graphviz version 2.49.3 (20211027.1534)
 -->
<!-- Title: RayLib_SHMUP/src/Shmup/AGraphicObject.cpp Pages: 1 -->
<svg width="447pt" height="207pt"
 viewBox="0.00 0.00 447.44 207.00" xmlns="http://www.w3.org/2000/svg" xmlns:xlink="http://www.w3.org/1999/xlink">
<g id="graph0" class="graph" transform="scale(1 1) rotate(0) translate(4 203)">
<title>RayLib_SHMUP/src/Shmup/AGraphicObject.cpp</title>
<polygon fill="white" stroke="transparent" points="-4,4 -4,-203 443.44,-203 443.44,4 -4,4"/>
<!-- Node1 -->
<g id="node1" class="node">
<title>Node1</title>
<g id="a_node1"><a xlink:title=" ">
<polygon fill="#bfbfbf" stroke="black" points="118.44,-168.5 118.44,-198.5 257.44,-198.5 257.44,-168.5 118.44,-168.5"/>
<text text-anchor="start" x="126.44" y="-186.5" font-family="Helvetica,sans-Serif" font-size="10.00">RayLib_SHMUP/src/Shmup</text>
<text text-anchor="middle" x="187.94" y="-175.5" font-family="Helvetica,sans-Serif" font-size="10.00">/AGraphicObject.cpp</text>
</a>
</g>
</g>
<!-- Node2 -->
<g id="node2" class="node">
<title>Node2</title>
<g id="a_node2"><a xlink:title=" ">
<polygon fill="white" stroke="#bfbfbf" points="15.94,-0.5 15.94,-19.5 69.94,-19.5 69.94,-0.5 15.94,-0.5"/>
<text text-anchor="middle" x="42.94" y="-7.5" font-family="Helvetica,sans-Serif" font-size="10.00">iostream</text>
</a>
</g>
</g>
<!-- Node1&#45;&gt;Node2 -->
<g id="edge1" class="edge">
<title>Node1&#45;&gt;Node2</title>
<path fill="none" stroke="midnightblue" d="M118.34,-171.57C74.35,-163.07 23.35,-149.75 9.94,-132 -13.91,-100.44 12.72,-52.73 30.18,-27.69"/>
<polygon fill="midnightblue" stroke="midnightblue" points="33.04,-29.71 36.09,-19.56 27.38,-25.59 33.04,-29.71"/>
</g>
<!-- Node3 -->
<g id="node3" class="node">
<title>Node3</title>
<g id="a_node3"><a xlink:title=" ">
<polygon fill="white" stroke="#bfbfbf" points="98.94,-0.5 98.94,-19.5 142.94,-19.5 142.94,-0.5 98.94,-0.5"/>
<text text-anchor="middle" x="120.94" y="-7.5" font-family="Helvetica,sans-Serif" font-size="10.00">vector</text>
</a>
</g>
</g>
<!-- Node1&#45;&gt;Node3 -->
<g id="edge2" class="edge">
<title>Node1&#45;&gt;Node3</title>
<path fill="none" stroke="midnightblue" d="M184.44,-168.48C178.28,-144.76 164.49,-95.44 146.94,-56 142.72,-46.52 137.05,-36.48 132.08,-28.29"/>
<polygon fill="midnightblue" stroke="midnightblue" points="134.96,-26.3 126.69,-19.67 129.02,-30.01 134.96,-26.3"/>
</g>
<!-- Node4 -->
<g id="node4" class="node">
<title>Node4</title>
<g id="a_node4"><a xlink:title=" ">
<polygon fill="white" stroke="#bfbfbf" points="221.44,-0.5 221.44,-19.5 268.44,-19.5 268.44,-0.5 221.44,-0.5"/>
<text text-anchor="middle" x="244.94" y="-7.5" font-family="Helvetica,sans-Serif" font-size="10.00">raylib.h</text>
</a>
</g>
</g>
<!-- Node1&#45;&gt;Node4 -->
<g id="edge3" class="edge">
<title>Node1&#45;&gt;Node4</title>
<path fill="none" stroke="midnightblue" d="M192.61,-168.47C202.87,-137.57 227.43,-63.69 238.88,-29.25"/>
<polygon fill="midnightblue" stroke="midnightblue" points="242.26,-30.15 242.1,-19.56 235.62,-27.95 242.26,-30.15"/>
</g>
<!-- Node5 -->
<g id="node5" class="node">
<title>Node5</title>
<g id="a_node5"><a xlink:title=" ">
<polygon fill="white" stroke="#bfbfbf" points="380.44,-112.5 380.44,-131.5 439.44,-131.5 439.44,-112.5 380.44,-112.5"/>
<text text-anchor="middle" x="409.94" y="-119.5" font-family="Helvetica,sans-Serif" font-size="10.00">raymath.h</text>
</a>
</g>
</g>
<!-- Node1&#45;&gt;Node5 -->
<g id="edge4" class="edge">
<title>Node1&#45;&gt;Node5</title>
<path fill="none" stroke="midnightblue" d="M240.27,-168.47C280.23,-157.77 334.42,-143.24 370.7,-133.52"/>
<polygon fill="midnightblue" stroke="midnightblue" points="371.68,-136.88 380.43,-130.91 369.87,-130.12 371.68,-136.88"/>
</g>
<!-- Node6 -->
<g id="node6" class="node">
<title>Node6</title>
<g id="a_node6"><a xlink:href="../../d7/daf/_a_graphic_object_8h.html" target="_top" xlink:title=" ">
<polygon fill="white" stroke="black" points="235.44,-112.5 235.44,-131.5 362.44,-131.5 362.44,-112.5 235.44,-112.5"/>
<text text-anchor="middle" x="298.94" y="-119.5" font-family="Helvetica,sans-Serif" font-size="10.00">Shmup/AGraphicObject.h</text>
</a>
</g>
</g>
<!-- Node1&#45;&gt;Node6 -->
<g id="edge5" class="edge">
<title>Node1&#45;&gt;Node6</title>
<path fill="none" stroke="midnightblue" d="M214.25,-168.4C232.21,-158.77 255.87,-146.09 273.61,-136.58"/>
<polygon fill="midnightblue" stroke="midnightblue" points="275.63,-139.47 282.79,-131.66 272.32,-133.3 275.63,-139.47"/>
</g>
<!-- Node9 -->
<g id="node9" class="node">
<title>Node9</title>
<g id="a_node9"><a xlink:href="../../d8/d97/_instance_list_8hpp.html" target="_top" xlink:title=" ">
<polygon fill="white" stroke="black" points="18.94,-112.5 18.94,-131.5 140.94,-131.5 140.94,-112.5 18.94,-112.5"/>
<text text-anchor="middle" x="79.94" y="-119.5" font-family="Helvetica,sans-Serif" font-size="10.00">Shmup/InstanceList.hpp</text>
</a>
</g>
</g>
<!-- Node1&#45;&gt;Node9 -->
<g id="edge12" class="edge">
<title>Node1&#45;&gt;Node9</title>
<path fill="none" stroke="midnightblue" d="M162.35,-168.4C144.87,-158.77 121.85,-146.09 104.59,-136.58"/>
<polygon fill="midnightblue" stroke="midnightblue" points="106.1,-133.42 95.66,-131.66 102.73,-139.55 106.1,-133.42"/>
</g>
<!-- Node6&#45;&gt;Node4 -->
<g id="edge6" class="edge">
<title>Node6&#45;&gt;Node4</title>
<path fill="none" stroke="midnightblue" d="M290.61,-112.39C282.73,-103.8 271.06,-89.92 263.94,-76 256.41,-61.28 251.42,-43.12 248.45,-29.74"/>
<polygon fill="midnightblue" stroke="midnightblue" points="251.85,-28.9 246.42,-19.8 245,-30.3 251.85,-28.9"/>
</g>
<!-- Node7 -->
<g id="node7" class="node">
<title>Node7</title>
<g id="a_node7"><a xlink:href="../../dc/d80/_instance_list_8h.html" target="_top" xlink:title=" ">
<polygon fill="white" stroke="black" points="25.94,-56.5 25.94,-75.5 137.94,-75.5 137.94,-56.5 25.94,-56.5"/>
<text text-anchor="middle" x="81.94" y="-63.5" font-family="Helvetica,sans-Serif" font-size="10.00">Shmup/InstanceList.h</text>
</a>
</g>
</g>
<!-- Node6&#45;&gt;Node7 -->
<g id="edge7" class="edge">
<title>Node6&#45;&gt;Node7</title>
<path fill="none" stroke="midnightblue" d="M264.56,-112.44C227.02,-103.1 166.81,-88.12 125.87,-77.93"/>
<polygon fill="midnightblue" stroke="midnightblue" points="126.71,-74.53 116.17,-75.52 125.02,-81.33 126.71,-74.53"/>
</g>
<!-- Node8 -->
<g id="node8" class="node">
<title>Node8</title>
<g id="a_node8"><a xlink:href="../../da/d02/_transform2_d_8h.html" target="_top" xlink:title=" ">
<polygon fill="white" stroke="black" points="272.94,-56.5 272.94,-75.5 386.94,-75.5 386.94,-56.5 272.94,-56.5"/>
<text text-anchor="middle" x="329.94" y="-63.5" font-family="Helvetica,sans-Serif" font-size="10.00">Shmup/Transform2D.h</text>
</a>
</g>
</g>
<!-- Node6&#45;&gt;Node8 -->
<g id="edge10" class="edge">
<title>Node6&#45;&gt;Node8</title>
<path fill="none" stroke="midnightblue" d="M304.06,-112.08C308.35,-104.61 314.6,-93.72 319.88,-84.52"/>
<polygon fill="midnightblue" stroke="midnightblue" points="322.97,-86.17 324.92,-75.75 316.9,-82.68 322.97,-86.17"/>
</g>
<!-- Node7&#45;&gt;Node2 -->
<g id="edge8" class="edge">
<title>Node7&#45;&gt;Node2</title>
<path fill="none" stroke="midnightblue" d="M75.5,-56.08C69.99,-48.46 61.91,-37.26 55.18,-27.94"/>
<polygon fill="midnightblue" stroke="midnightblue" points="57.95,-25.81 49.26,-19.75 52.28,-29.91 57.95,-25.81"/>
</g>
<!-- Node7&#45;&gt;Node3 -->
<g id="edge9" class="edge">
<title>Node7&#45;&gt;Node3</title>
<path fill="none" stroke="midnightblue" d="M88.38,-56.08C93.89,-48.46 101.97,-37.26 108.71,-27.94"/>
<polygon fill="midnightblue" stroke="midnightblue" points="111.6,-29.91 114.62,-19.75 105.93,-25.81 111.6,-29.91"/>
</g>
<!-- Node8&#45;&gt;Node4 -->
<g id="edge11" class="edge">
<title>Node8&#45;&gt;Node4</title>
<path fill="none" stroke="midnightblue" d="M316.28,-56.32C303.03,-47.9 282.67,-34.97 267.1,-25.07"/>
<polygon fill="midnightblue" stroke="midnightblue" points="268.88,-22.06 258.56,-19.65 265.13,-27.97 268.88,-22.06"/>
</g>
<!-- Node9&#45;&gt;Node7 -->
<g id="edge13" class="edge">
<title>Node9&#45;&gt;Node7</title>
<path fill="none" stroke="midnightblue" d="M80.27,-112.08C80.53,-105.01 80.91,-94.86 81.24,-85.99"/>
<polygon fill="midnightblue" stroke="midnightblue" points="84.74,-85.87 81.62,-75.75 77.75,-85.61 84.74,-85.87"/>
</g>
</g>
</svg>
