<?xml version="1.0" encoding="UTF-8" standalone="no"?>
<!DOCTYPE svg PUBLIC "-//W3C//DTD SVG 1.1//EN"
 "http://www.w3.org/Graphics/SVG/1.1/DTD/svg11.dtd">
<!-- Generated by graphviz version 2.49.3 (20211027.1534)
 -->
<!-- Title: RayLib_SHMUP/src/Shmup/Paterns/AOffsetablePatern.cpp Pages: 1 -->
<svg width="344pt" height="162pt"
 viewBox="0.00 0.00 344.12 162.00" xmlns="http://www.w3.org/2000/svg" xmlns:xlink="http://www.w3.org/1999/xlink">
<g id="graph0" class="graph" transform="scale(1 1) rotate(0) translate(4 158)">
<title>RayLib_SHMUP/src/Shmup/Paterns/AOffsetablePatern.cpp</title>
<polygon fill="white" stroke="transparent" points="-4,4 -4,-158 340.12,-158 340.12,4 -4,4"/>
<!-- Node1 -->
<g id="node1" class="node">
<title>Node1</title>
<g id="a_node1"><a xlink:title=" ">
<polygon fill="#bfbfbf" stroke="black" points="135,-123.5 135,-153.5 289,-153.5 289,-123.5 135,-123.5"/>
<text text-anchor="start" x="143" y="-141.5" font-family="Helvetica,sans-Serif" font-size="10.00">RayLib_SHMUP/src/Shmup</text>
<text text-anchor="middle" x="212" y="-130.5" font-family="Helvetica,sans-Serif" font-size="10.00">/Paterns/AOffsetablePatern.cpp</text>
</a>
</g>
</g>
<!-- Node2 -->
<g id="node2" class="node">
<title>Node2</title>
<g id="a_node2"><a xlink:title=" ">
<polygon fill="white" stroke="#bfbfbf" points="142.5,-0.5 142.5,-19.5 189.5,-19.5 189.5,-0.5 142.5,-0.5"/>
<text text-anchor="middle" x="166" y="-7.5" font-family="Helvetica,sans-Serif" font-size="10.00">raylib.h</text>
</a>
</g>
</g>
<!-- Node1&#45;&gt;Node2 -->
<g id="edge1" class="edge">
<title>Node1&#45;&gt;Node2</title>
<path fill="none" stroke="midnightblue" d="M203.22,-123.36C197.4,-113.48 189.94,-99.8 185,-87 177.68,-68.01 172.42,-45.24 169.32,-29.61"/>
<polygon fill="midnightblue" stroke="midnightblue" points="172.73,-28.82 167.44,-19.65 165.85,-30.12 172.73,-28.82"/>
</g>
<!-- Node3 -->
<g id="node3" class="node">
<title>Node3</title>
<g id="a_node3"><a xlink:title=" ">
<polygon fill="white" stroke="#bfbfbf" points="274.5,-0.5 274.5,-19.5 333.5,-19.5 333.5,-0.5 274.5,-0.5"/>
<text text-anchor="middle" x="304" y="-7.5" font-family="Helvetica,sans-Serif" font-size="10.00">raymath.h</text>
</a>
</g>
</g>
<!-- Node1&#45;&gt;Node3 -->
<g id="edge2" class="edge">
<title>Node1&#45;&gt;Node3</title>
<path fill="none" stroke="midnightblue" d="M280.97,-123.44C300.42,-115.95 319.42,-104.5 331,-87 343.26,-68.48 329.96,-43.73 318.07,-27.58"/>
<polygon fill="midnightblue" stroke="midnightblue" points="320.71,-25.29 311.78,-19.59 315.21,-29.61 320.71,-25.29"/>
</g>
<!-- Node4 -->
<g id="node4" class="node">
<title>Node4</title>
<g id="a_node4"><a xlink:href="../../d2/da5/_math_utils_8h.html" target="_top" xlink:title=" ">
<polygon fill="white" stroke="black" points="194.5,-62 194.5,-81 321.5,-81 321.5,-62 194.5,-62"/>
<text text-anchor="middle" x="258" y="-69" font-family="Helvetica,sans-Serif" font-size="10.00">Namespaces/MathUtils.h</text>
</a>
</g>
</g>
<!-- Node1&#45;&gt;Node4 -->
<g id="edge3" class="edge">
<title>Node1&#45;&gt;Node4</title>
<path fill="none" stroke="midnightblue" d="M221.98,-123.4C229.01,-113.46 238.46,-100.11 245.92,-89.57"/>
<polygon fill="midnightblue" stroke="midnightblue" points="248.93,-91.38 251.85,-81.19 243.21,-87.34 248.93,-91.38"/>
</g>
<!-- Node5 -->
<g id="node5" class="node">
<title>Node5</title>
<g id="a_node5"><a xlink:href="../../dc/d8f/_a_offsetable_patern_8h.html" target="_top" xlink:title=" ">
<polygon fill="white" stroke="black" points="0,-56.5 0,-86.5 138,-86.5 138,-56.5 0,-56.5"/>
<text text-anchor="start" x="8" y="-74.5" font-family="Helvetica,sans-Serif" font-size="10.00">Shmup/Paterns/AOffsetable</text>
<text text-anchor="middle" x="69" y="-63.5" font-family="Helvetica,sans-Serif" font-size="10.00">Patern.h</text>
</a>
</g>
</g>
<!-- Node1&#45;&gt;Node5 -->
<g id="edge6" class="edge">
<title>Node1&#45;&gt;Node5</title>
<path fill="none" stroke="midnightblue" d="M180.97,-123.4C159.98,-113.86 132.06,-101.16 109.35,-90.84"/>
<polygon fill="midnightblue" stroke="midnightblue" points="110.52,-87.53 99.97,-86.58 107.62,-93.9 110.52,-87.53"/>
</g>
<!-- Node4&#45;&gt;Node2 -->
<g id="edge4" class="edge">
<title>Node4&#45;&gt;Node2</title>
<path fill="none" stroke="midnightblue" d="M244.82,-61.98C229.93,-52.34 205.46,-36.52 187.73,-25.05"/>
<polygon fill="midnightblue" stroke="midnightblue" points="189.45,-22 179.16,-19.51 185.65,-27.88 189.45,-22"/>
</g>
<!-- Node4&#45;&gt;Node3 -->
<g id="edge5" class="edge">
<title>Node4&#45;&gt;Node3</title>
<path fill="none" stroke="midnightblue" d="M264.59,-61.98C271.49,-53.05 282.5,-38.81 291.13,-27.64"/>
<polygon fill="midnightblue" stroke="midnightblue" points="294.07,-29.56 297.42,-19.51 288.54,-25.28 294.07,-29.56"/>
</g>
<!-- Node5&#45;&gt;Node2 -->
<g id="edge7" class="edge">
<title>Node5&#45;&gt;Node2</title>
<path fill="none" stroke="midnightblue" d="M91.99,-56.4C107.39,-46.95 127.59,-34.56 143,-25.11"/>
<polygon fill="midnightblue" stroke="midnightblue" points="145.19,-27.87 151.89,-19.66 141.53,-21.9 145.19,-27.87"/>
</g>
<!-- Node6 -->
<g id="node6" class="node">
<title>Node6</title>
<g id="a_node6"><a xlink:href="../../df/d50/_a_patern_8h.html" target="_top" xlink:title=" ">
<polygon fill="white" stroke="black" points="39.5,-0.5 39.5,-19.5 98.5,-19.5 98.5,-0.5 39.5,-0.5"/>
<text text-anchor="middle" x="69" y="-7.5" font-family="Helvetica,sans-Serif" font-size="10.00">APatern.h</text>
</a>
</g>
</g>
<!-- Node5&#45;&gt;Node6 -->
<g id="edge8" class="edge">
<title>Node5&#45;&gt;Node6</title>
<path fill="none" stroke="midnightblue" d="M69,-56.4C69,-48.47 69,-38.46 69,-29.86"/>
<polygon fill="midnightblue" stroke="midnightblue" points="72.5,-29.66 69,-19.66 65.5,-29.66 72.5,-29.66"/>
</g>
</g>
</svg>
