<?xml version="1.0" encoding="UTF-8" standalone="no"?>
<!DOCTYPE svg PUBLIC "-//W3C//DTD SVG 1.1//EN"
 "http://www.w3.org/Graphics/SVG/1.1/DTD/svg11.dtd">
<!-- Generated by graphviz version 2.49.3 (20211027.1534)
 -->
<!-- Title: RayLib_SHMUP/include/PaternEditor/PaternComputer.h Pages: 1 -->
<svg width="562pt" height="285pt"
 viewBox="0.00 0.00 561.97 285.00" xmlns="http://www.w3.org/2000/svg" xmlns:xlink="http://www.w3.org/1999/xlink">
<g id="graph0" class="graph" transform="scale(1 1) rotate(0) translate(4 281)">
<title>RayLib_SHMUP/include/PaternEditor/PaternComputer.h</title>
<polygon fill="white" stroke="transparent" points="-4,4 -4,-281 557.97,-281 557.97,4 -4,4"/>
<!-- Node1 -->
<g id="node1" class="node">
<title>Node1</title>
<g id="a_node1"><a xlink:title=" ">
<polygon fill="#bfbfbf" stroke="black" points="37.47,-246.5 37.47,-276.5 191.47,-276.5 191.47,-246.5 37.47,-246.5"/>
<text text-anchor="start" x="45.47" y="-264.5" font-family="Helvetica,sans-Serif" font-size="10.00">RayLib_SHMUP/include</text>
<text text-anchor="middle" x="114.47" y="-253.5" font-family="Helvetica,sans-Serif" font-size="10.00">/PaternEditor/PaternComputer.h</text>
</a>
</g>
</g>
<!-- Node2 -->
<g id="node2" class="node">
<title>Node2</title>
<g id="a_node2"><a xlink:href="../../d1/d98/_sequence_move_patern_8h.html" target="_top" xlink:title=" ">
<polygon fill="white" stroke="black" points="254.97,-123.5 254.97,-153.5 377.97,-153.5 377.97,-123.5 254.97,-123.5"/>
<text text-anchor="start" x="262.97" y="-141.5" font-family="Helvetica,sans-Serif" font-size="10.00">Shmup/Paterns/Enemy</text>
<text text-anchor="middle" x="316.47" y="-130.5" font-family="Helvetica,sans-Serif" font-size="10.00">/SequenceMovePatern.h</text>
</a>
</g>
</g>
<!-- Node1&#45;&gt;Node2 -->
<g id="edge1" class="edge">
<title>Node1&#45;&gt;Node2</title>
<path fill="none" stroke="midnightblue" d="M138.04,-246.38C174.23,-224.71 243.56,-183.18 284.32,-158.76"/>
<polygon fill="midnightblue" stroke="midnightblue" points="286.28,-161.67 293.06,-153.53 282.68,-155.66 286.28,-161.67"/>
</g>
<!-- Node9 -->
<g id="node9" class="node">
<title>Node9</title>
<g id="a_node9"><a xlink:href="../../db/d1b/_a_movable_8h.html" target="_top" xlink:title=" ">
<polygon fill="white" stroke="black" points="24.97,-190.5 24.97,-209.5 125.97,-209.5 125.97,-190.5 24.97,-190.5"/>
<text text-anchor="middle" x="75.47" y="-197.5" font-family="Helvetica,sans-Serif" font-size="10.00">Shmup/AMovable.h</text>
</a>
</g>
</g>
<!-- Node1&#45;&gt;Node9 -->
<g id="edge8" class="edge">
<title>Node1&#45;&gt;Node9</title>
<path fill="none" stroke="midnightblue" d="M105.23,-246.4C99.68,-237.93 92.58,-227.1 86.71,-218.14"/>
<polygon fill="midnightblue" stroke="midnightblue" points="89.56,-216.1 81.15,-209.66 83.7,-219.94 89.56,-216.1"/>
</g>
<!-- Node3 -->
<g id="node3" class="node">
<title>Node3</title>
<g id="a_node3"><a xlink:href="../../dc/d8f/_a_offsetable_patern_8h.html" target="_top" xlink:title=" ">
<polygon fill="white" stroke="black" points="150.47,-56.5 150.47,-86.5 288.47,-86.5 288.47,-56.5 150.47,-56.5"/>
<text text-anchor="start" x="158.47" y="-74.5" font-family="Helvetica,sans-Serif" font-size="10.00">Shmup/Paterns/AOffsetable</text>
<text text-anchor="middle" x="219.47" y="-63.5" font-family="Helvetica,sans-Serif" font-size="10.00">Patern.h</text>
</a>
</g>
</g>
<!-- Node2&#45;&gt;Node3 -->
<g id="edge2" class="edge">
<title>Node2&#45;&gt;Node3</title>
<path fill="none" stroke="midnightblue" d="M295.43,-123.4C281.82,-114.28 263.93,-102.29 248.93,-92.24"/>
<polygon fill="midnightblue" stroke="midnightblue" points="250.74,-89.24 240.48,-86.58 246.84,-95.05 250.74,-89.24"/>
</g>
<!-- Node6 -->
<g id="node6" class="node">
<title>Node6</title>
<g id="a_node6"><a xlink:title=" ">
<polygon fill="white" stroke="#bfbfbf" points="297.47,-0.5 297.47,-19.5 351.47,-19.5 351.47,-0.5 297.47,-0.5"/>
<text text-anchor="middle" x="324.47" y="-7.5" font-family="Helvetica,sans-Serif" font-size="10.00">iostream</text>
</a>
</g>
</g>
<!-- Node2&#45;&gt;Node6 -->
<g id="edge5" class="edge">
<title>Node2&#45;&gt;Node6</title>
<path fill="none" stroke="midnightblue" d="M317.36,-123.48C318.8,-100.72 321.65,-55.7 323.27,-30.06"/>
<polygon fill="midnightblue" stroke="midnightblue" points="326.78,-29.99 323.92,-19.79 319.79,-29.55 326.78,-29.99"/>
</g>
<!-- Node7 -->
<g id="node7" class="node">
<title>Node7</title>
<g id="a_node7"><a xlink:title=" ">
<polygon fill="white" stroke="#bfbfbf" points="512.97,-62 512.97,-81 553.97,-81 553.97,-62 512.97,-62"/>
<text text-anchor="middle" x="533.47" y="-69" font-family="Helvetica,sans-Serif" font-size="10.00">string</text>
</a>
</g>
</g>
<!-- Node2&#45;&gt;Node7 -->
<g id="edge6" class="edge">
<title>Node2&#45;&gt;Node7</title>
<path fill="none" stroke="midnightblue" d="M373.99,-123.46C410.08,-114.18 457.39,-101.15 498.47,-87 500.39,-86.34 502.34,-85.63 504.31,-84.89"/>
<polygon fill="midnightblue" stroke="midnightblue" points="506,-87.99 514.01,-81.06 503.43,-81.48 506,-87.99"/>
</g>
<!-- Node8 -->
<g id="node8" class="node">
<title>Node8</title>
<g id="a_node8"><a xlink:title=" ">
<polygon fill="white" stroke="#bfbfbf" points="420.47,-0.5 420.47,-19.5 464.47,-19.5 464.47,-0.5 420.47,-0.5"/>
<text text-anchor="middle" x="442.47" y="-7.5" font-family="Helvetica,sans-Serif" font-size="10.00">vector</text>
</a>
</g>
</g>
<!-- Node2&#45;&gt;Node8 -->
<g id="edge7" class="edge">
<title>Node2&#45;&gt;Node8</title>
<path fill="none" stroke="midnightblue" d="M378.34,-133.09C409.88,-127.34 445.66,-114.64 465.47,-87 478.1,-69.39 466.55,-44.76 455.76,-28.37"/>
<polygon fill="midnightblue" stroke="midnightblue" points="458.31,-25.92 449.68,-19.78 452.6,-29.96 458.31,-25.92"/>
</g>
<!-- Node4 -->
<g id="node4" class="node">
<title>Node4</title>
<g id="a_node4"><a xlink:title=" ">
<polygon fill="white" stroke="#bfbfbf" points="9.97,-0.5 9.97,-19.5 56.97,-19.5 56.97,-0.5 9.97,-0.5"/>
<text text-anchor="middle" x="33.47" y="-7.5" font-family="Helvetica,sans-Serif" font-size="10.00">raylib.h</text>
</a>
</g>
</g>
<!-- Node3&#45;&gt;Node4 -->
<g id="edge3" class="edge">
<title>Node3&#45;&gt;Node4</title>
<path fill="none" stroke="midnightblue" d="M175.39,-56.4C142.1,-45.75 97.1,-31.35 66.77,-21.65"/>
<polygon fill="midnightblue" stroke="midnightblue" points="67.68,-18.27 57.09,-18.56 65.55,-24.94 67.68,-18.27"/>
</g>
<!-- Node5 -->
<g id="node5" class="node">
<title>Node5</title>
<g id="a_node5"><a xlink:href="../../df/d50/_a_patern_8h.html" target="_top" xlink:title=" ">
<polygon fill="white" stroke="black" points="189.97,-0.5 189.97,-19.5 248.97,-19.5 248.97,-0.5 189.97,-0.5"/>
<text text-anchor="middle" x="219.47" y="-7.5" font-family="Helvetica,sans-Serif" font-size="10.00">APatern.h</text>
</a>
</g>
</g>
<!-- Node3&#45;&gt;Node5 -->
<g id="edge4" class="edge">
<title>Node3&#45;&gt;Node5</title>
<path fill="none" stroke="midnightblue" d="M219.47,-56.4C219.47,-48.47 219.47,-38.46 219.47,-29.86"/>
<polygon fill="midnightblue" stroke="midnightblue" points="222.97,-29.66 219.47,-19.66 215.97,-29.66 222.97,-29.66"/>
</g>
<!-- Node9&#45;&gt;Node4 -->
<g id="edge9" class="edge">
<title>Node9&#45;&gt;Node4</title>
<path fill="none" stroke="midnightblue" d="M60.08,-190.5C47.31,-182.65 29.65,-169.84 19.47,-154 2.86,-128.16 6.28,-117.48 2.47,-87 0.77,-73.33 -1.62,-69.16 2.47,-56 5.7,-45.62 12.25,-35.52 18.5,-27.53"/>
<polygon fill="midnightblue" stroke="midnightblue" points="21.26,-29.68 24.99,-19.77 15.89,-25.19 21.26,-29.68"/>
</g>
<!-- Node10 -->
<g id="node10" class="node">
<title>Node10</title>
<g id="a_node10"><a xlink:href="../../d7/daf/_a_graphic_object_8h.html" target="_top" xlink:title=" ">
<polygon fill="white" stroke="black" points="28.97,-129 28.97,-148 121.97,-148 121.97,-129 28.97,-129"/>
<text text-anchor="middle" x="75.47" y="-136" font-family="Helvetica,sans-Serif" font-size="10.00">AGraphicObject.h</text>
</a>
</g>
</g>
<!-- Node9&#45;&gt;Node10 -->
<g id="edge10" class="edge">
<title>Node9&#45;&gt;Node10</title>
<path fill="none" stroke="midnightblue" d="M75.47,-190.48C75.47,-182.08 75.47,-168.98 75.47,-158.16"/>
<polygon fill="midnightblue" stroke="midnightblue" points="78.97,-158.01 75.47,-148.01 71.97,-158.01 78.97,-158.01"/>
</g>
<!-- Node10&#45;&gt;Node4 -->
<g id="edge11" class="edge">
<title>Node10&#45;&gt;Node4</title>
<path fill="none" stroke="midnightblue" d="M56.14,-128.84C40.35,-120.59 19.12,-106.53 9.47,-87 -0.06,-67.71 10.84,-43.82 20.87,-28.03"/>
<polygon fill="midnightblue" stroke="midnightblue" points="23.77,-30 26.51,-19.76 17.99,-26.05 23.77,-30"/>
</g>
<!-- Node11 -->
<g id="node11" class="node">
<title>Node11</title>
<g id="a_node11"><a xlink:href="../../dc/d80/_instance_list_8h.html" target="_top" xlink:title=" ">
<polygon fill="white" stroke="black" points="344.47,-62 344.47,-81 456.47,-81 456.47,-62 344.47,-62"/>
<text text-anchor="middle" x="400.47" y="-69" font-family="Helvetica,sans-Serif" font-size="10.00">Shmup/InstanceList.h</text>
</a>
</g>
</g>
<!-- Node10&#45;&gt;Node11 -->
<g id="edge12" class="edge">
<title>Node10&#45;&gt;Node11</title>
<path fill="none" stroke="midnightblue" d="M118.3,-128.94C177.44,-117.11 284.05,-95.78 347.94,-83.01"/>
<polygon fill="midnightblue" stroke="midnightblue" points="348.7,-86.43 357.81,-81.03 347.32,-79.56 348.7,-86.43"/>
</g>
<!-- Node12 -->
<g id="node12" class="node">
<title>Node12</title>
<g id="a_node12"><a xlink:href="../../da/d02/_transform2_d_8h.html" target="_top" xlink:title=" ">
<polygon fill="white" stroke="black" points="18.47,-62 18.47,-81 132.47,-81 132.47,-62 18.47,-62"/>
<text text-anchor="middle" x="75.47" y="-69" font-family="Helvetica,sans-Serif" font-size="10.00">Shmup/Transform2D.h</text>
</a>
</g>
</g>
<!-- Node10&#45;&gt;Node12 -->
<g id="edge15" class="edge">
<title>Node10&#45;&gt;Node12</title>
<path fill="none" stroke="midnightblue" d="M75.47,-128.73C75.47,-119.18 75.47,-103.62 75.47,-91.28"/>
<polygon fill="midnightblue" stroke="midnightblue" points="78.97,-91.13 75.47,-81.13 71.97,-91.13 78.97,-91.13"/>
</g>
<!-- Node11&#45;&gt;Node6 -->
<g id="edge13" class="edge">
<title>Node11&#45;&gt;Node6</title>
<path fill="none" stroke="midnightblue" d="M389.58,-61.98C377.51,-52.52 357.81,-37.1 343.23,-25.69"/>
<polygon fill="midnightblue" stroke="midnightblue" points="345.37,-22.92 335.34,-19.51 341.06,-28.43 345.37,-22.92"/>
</g>
<!-- Node11&#45;&gt;Node8 -->
<g id="edge14" class="edge">
<title>Node11&#45;&gt;Node8</title>
<path fill="none" stroke="midnightblue" d="M406.49,-61.98C412.73,-53.14 422.65,-39.09 430.49,-27.98"/>
<polygon fill="midnightblue" stroke="midnightblue" points="433.56,-29.7 436.47,-19.51 427.84,-25.66 433.56,-29.7"/>
</g>
<!-- Node12&#45;&gt;Node4 -->
<g id="edge16" class="edge">
<title>Node12&#45;&gt;Node4</title>
<path fill="none" stroke="midnightblue" d="M69.46,-61.98C63.22,-53.14 53.3,-39.09 45.46,-27.98"/>
<polygon fill="midnightblue" stroke="midnightblue" points="48.11,-25.66 39.48,-19.51 42.39,-29.7 48.11,-25.66"/>
</g>
</g>
</svg>
