<?xml version="1.0" encoding="UTF-8" standalone="no"?>
<!DOCTYPE svg PUBLIC "-//W3C//DTD SVG 1.1//EN"
 "http://www.w3.org/Graphics/SVG/1.1/DTD/svg11.dtd">
<!-- Generated by graphviz version 2.49.3 (20211027.1534)
 -->
<!-- Title: RayLib_SHMUP/include/Shmup/Collision/ACollidable.h Pages: 1 -->
<svg width="866pt" height="240pt"
 viewBox="0.00 0.00 866.42 240.00" xmlns="http://www.w3.org/2000/svg" xmlns:xlink="http://www.w3.org/1999/xlink">
<g id="graph0" class="graph" transform="scale(1 1) rotate(0) translate(4 236)">
<title>RayLib_SHMUP/include/Shmup/Collision/ACollidable.h</title>
<polygon fill="white" stroke="transparent" points="-4,4 -4,-236 862.42,-236 862.42,4 -4,4"/>
<!-- Node1 -->
<g id="node1" class="node">
<title>Node1</title>
<g id="a_node1"><a xlink:title=" ">
<polygon fill="#bfbfbf" stroke="black" points="131.42,-201.5 131.42,-231.5 280.42,-231.5 280.42,-201.5 131.42,-201.5"/>
<text text-anchor="start" x="139.42" y="-219.5" font-family="Helvetica,sans-Serif" font-size="10.00">RayLib_SHMUP/include</text>
<text text-anchor="middle" x="205.92" y="-208.5" font-family="Helvetica,sans-Serif" font-size="10.00">/Shmup/Collision/ACollidable.h</text>
</a>
</g>
</g>
<!-- Node2 -->
<g id="node2" class="node">
<title>Node2</title>
<g id="a_node2"><a xlink:href="../../d4/d1e/_enemy_8h.html" target="_top" xlink:title=" ">
<polygon fill="white" stroke="black" points="18.92,-134.5 18.92,-164.5 148.92,-164.5 148.92,-134.5 18.92,-134.5"/>
<text text-anchor="start" x="26.92" y="-152.5" font-family="Helvetica,sans-Serif" font-size="10.00">RayLib_SHMUP/include</text>
<text text-anchor="middle" x="83.92" y="-141.5" font-family="Helvetica,sans-Serif" font-size="10.00">/Shmup/Movable/Enemy.h</text>
</a>
</g>
</g>
<!-- Node1&#45;&gt;Node2 -->
<g id="edge1" class="edge">
<title>Node1&#45;&gt;Node2</title>
<path fill="none" stroke="midnightblue" d="M170.4,-196.57C151.21,-186.35 127.91,-173.94 110.34,-164.58"/>
<polygon fill="midnightblue" stroke="midnightblue" points="168.97,-199.78 179.45,-201.4 172.27,-193.6 168.97,-199.78"/>
</g>
<!-- Node5 -->
<g id="node5" class="node">
<title>Node5</title>
<g id="a_node5"><a xlink:href="../../de/d15/_shoot_8h.html" target="_top" xlink:title=" ">
<polygon fill="white" stroke="black" points="313.92,-134.5 313.92,-164.5 439.92,-164.5 439.92,-134.5 313.92,-134.5"/>
<text text-anchor="start" x="321.92" y="-152.5" font-family="Helvetica,sans-Serif" font-size="10.00">RayLib_SHMUP/include</text>
<text text-anchor="middle" x="376.92" y="-141.5" font-family="Helvetica,sans-Serif" font-size="10.00">/Shmup/Movable/Shoot.h</text>
</a>
</g>
</g>
<!-- Node1&#45;&gt;Node5 -->
<g id="edge4" class="edge">
<title>Node1&#45;&gt;Node5</title>
<path fill="none" stroke="midnightblue" d="M252.43,-197.82C279.92,-187.37 314.24,-174.32 339.89,-164.58"/>
<polygon fill="midnightblue" stroke="midnightblue" points="251.13,-194.57 243.02,-201.4 253.61,-201.11 251.13,-194.57"/>
</g>
<!-- Node3 -->
<g id="node3" class="node">
<title>Node3</title>
<g id="a_node3"><a xlink:href="../../d2/d2e/_game_manager_8cpp.html" target="_top" xlink:title=" ">
<polygon fill="white" stroke="black" points="9.42,-0.5 9.42,-30.5 148.42,-30.5 148.42,-0.5 9.42,-0.5"/>
<text text-anchor="start" x="17.42" y="-18.5" font-family="Helvetica,sans-Serif" font-size="10.00">RayLib_SHMUP/src/Shmup</text>
<text text-anchor="middle" x="78.92" y="-7.5" font-family="Helvetica,sans-Serif" font-size="10.00">/GameManager.cpp</text>
</a>
</g>
</g>
<!-- Node2&#45;&gt;Node3 -->
<g id="edge2" class="edge">
<title>Node2&#45;&gt;Node3</title>
<path fill="none" stroke="midnightblue" d="M37.65,-129.41C24.72,-121.67 12.22,-111.34 4.92,-98 -1.7,-85.92 -1.52,-79.18 4.92,-67 13.49,-50.77 29.88,-38.77 45.06,-30.56"/>
<polygon fill="midnightblue" stroke="midnightblue" points="36.16,-132.59 46.6,-134.36 39.54,-126.46 36.16,-132.59"/>
</g>
<!-- Node4 -->
<g id="node4" class="node">
<title>Node4</title>
<g id="a_node4"><a xlink:href="../../de/d34/_enemy_8cpp.html" target="_top" xlink:title=" ">
<polygon fill="white" stroke="black" points="14.42,-67.5 14.42,-97.5 153.42,-97.5 153.42,-67.5 14.42,-67.5"/>
<text text-anchor="start" x="22.42" y="-85.5" font-family="Helvetica,sans-Serif" font-size="10.00">RayLib_SHMUP/src/Shmup</text>
<text text-anchor="middle" x="83.92" y="-74.5" font-family="Helvetica,sans-Serif" font-size="10.00">/Movable/Enemy.cpp</text>
</a>
</g>
</g>
<!-- Node2&#45;&gt;Node4 -->
<g id="edge3" class="edge">
<title>Node2&#45;&gt;Node4</title>
<path fill="none" stroke="midnightblue" d="M83.92,-124.11C83.92,-115.15 83.92,-105.32 83.92,-97.58"/>
<polygon fill="midnightblue" stroke="midnightblue" points="80.42,-124.4 83.92,-134.4 87.42,-124.4 80.42,-124.4"/>
</g>
<!-- Node6 -->
<g id="node6" class="node">
<title>Node6</title>
<g id="a_node6"><a xlink:href="../../d1/d39/_player_8h.html" target="_top" xlink:title=" ">
<polygon fill="white" stroke="black" points="171.92,-67.5 171.92,-97.5 299.92,-97.5 299.92,-67.5 171.92,-67.5"/>
<text text-anchor="start" x="179.92" y="-85.5" font-family="Helvetica,sans-Serif" font-size="10.00">RayLib_SHMUP/include</text>
<text text-anchor="middle" x="235.92" y="-74.5" font-family="Helvetica,sans-Serif" font-size="10.00">/Shmup/Movable/Player.h</text>
</a>
</g>
</g>
<!-- Node5&#45;&gt;Node6 -->
<g id="edge5" class="edge">
<title>Node5&#45;&gt;Node6</title>
<path fill="none" stroke="midnightblue" d="M337.07,-130.13C314.67,-119.8 287.13,-107.11 266.45,-97.58"/>
<polygon fill="midnightblue" stroke="midnightblue" points="335.78,-133.39 346.32,-134.4 338.71,-127.03 335.78,-133.39"/>
</g>
<!-- Node7 -->
<g id="node7" class="node">
<title>Node7</title>
<g id="a_node7"><a xlink:href="../../d2/d82/_player_8cpp.html" target="_top" xlink:title=" ">
<polygon fill="white" stroke="black" points="212.42,-0.5 212.42,-30.5 351.42,-30.5 351.42,-0.5 212.42,-0.5"/>
<text text-anchor="start" x="220.42" y="-18.5" font-family="Helvetica,sans-Serif" font-size="10.00">RayLib_SHMUP/src/Shmup</text>
<text text-anchor="middle" x="281.92" y="-7.5" font-family="Helvetica,sans-Serif" font-size="10.00">/Movable/Player.cpp</text>
</a>
</g>
</g>
<!-- Node5&#45;&gt;Node7 -->
<g id="edge8" class="edge">
<title>Node5&#45;&gt;Node7</title>
<path fill="none" stroke="midnightblue" d="M360.86,-126.19C341.19,-98.86 308.46,-53.38 292.01,-30.52"/>
<polygon fill="midnightblue" stroke="midnightblue" points="358.07,-128.3 366.75,-134.37 363.75,-124.21 358.07,-128.3"/>
</g>
<!-- Node8 -->
<g id="node8" class="node">
<title>Node8</title>
<g id="a_node8"><a xlink:href="../../d6/dae/_shoot_8cpp.html" target="_top" xlink:title=" ">
<polygon fill="white" stroke="black" points="356.42,-67.5 356.42,-97.5 495.42,-97.5 495.42,-67.5 356.42,-67.5"/>
<text text-anchor="start" x="364.42" y="-85.5" font-family="Helvetica,sans-Serif" font-size="10.00">RayLib_SHMUP/src/Shmup</text>
<text text-anchor="middle" x="425.92" y="-74.5" font-family="Helvetica,sans-Serif" font-size="10.00">/Movable/Shoot.cpp</text>
</a>
</g>
</g>
<!-- Node5&#45;&gt;Node8 -->
<g id="edge9" class="edge">
<title>Node5&#45;&gt;Node8</title>
<path fill="none" stroke="midnightblue" d="M393.76,-126.16C400.91,-116.68 409.02,-105.92 415.31,-97.58"/>
<polygon fill="midnightblue" stroke="midnightblue" points="390.77,-124.3 387.55,-134.4 396.36,-128.52 390.77,-124.3"/>
</g>
<!-- Node9 -->
<g id="node9" class="node">
<title>Node9</title>
<g id="a_node9"><a xlink:href="../../dc/dac/_patern_linear_8cpp.html" target="_top" xlink:title=" ">
<polygon fill="white" stroke="black" points="513.92,-67.5 513.92,-97.5 671.92,-97.5 671.92,-67.5 513.92,-67.5"/>
<text text-anchor="start" x="521.92" y="-85.5" font-family="Helvetica,sans-Serif" font-size="10.00">RayLib_SHMUP/src/Shmup</text>
<text text-anchor="middle" x="592.92" y="-74.5" font-family="Helvetica,sans-Serif" font-size="10.00">/Paterns/Shoot/PaternLinear.cpp</text>
</a>
</g>
</g>
<!-- Node5&#45;&gt;Node9 -->
<g id="edge10" class="edge">
<title>Node5&#45;&gt;Node9</title>
<path fill="none" stroke="midnightblue" d="M433.14,-131.58C468.23,-121.02 512.86,-107.59 546.03,-97.61"/>
<polygon fill="midnightblue" stroke="midnightblue" points="432.09,-128.24 423.52,-134.48 434.1,-134.95 432.09,-128.24"/>
</g>
<!-- Node10 -->
<g id="node10" class="node">
<title>Node10</title>
<g id="a_node10"><a xlink:href="../../db/db4/_patern_v_spread_8cpp.html" target="_top" xlink:title=" ">
<polygon fill="white" stroke="black" points="689.42,-67.5 689.42,-97.5 858.42,-97.5 858.42,-67.5 689.42,-67.5"/>
<text text-anchor="start" x="697.42" y="-85.5" font-family="Helvetica,sans-Serif" font-size="10.00">RayLib_SHMUP/src/Shmup</text>
<text text-anchor="middle" x="773.92" y="-74.5" font-family="Helvetica,sans-Serif" font-size="10.00">/Paterns/Shoot/PaternVSpread.cpp</text>
</a>
</g>
</g>
<!-- Node5&#45;&gt;Node10 -->
<g id="edge11" class="edge">
<title>Node5&#45;&gt;Node10</title>
<path fill="none" stroke="midnightblue" d="M450.41,-136.47C518.06,-125.39 618.38,-108.97 689.33,-97.35"/>
<polygon fill="midnightblue" stroke="midnightblue" points="449.57,-133.06 440.26,-138.13 450.7,-139.97 449.57,-133.06"/>
</g>
<!-- Node6&#45;&gt;Node3 -->
<g id="edge6" class="edge">
<title>Node6&#45;&gt;Node3</title>
<path fill="none" stroke="midnightblue" d="M192.55,-63.54C167.42,-53.14 136.25,-40.24 112.92,-30.58"/>
<polygon fill="midnightblue" stroke="midnightblue" points="191.27,-66.8 201.85,-67.4 193.95,-60.34 191.27,-66.8"/>
</g>
<!-- Node6&#45;&gt;Node7 -->
<g id="edge7" class="edge">
<title>Node6&#45;&gt;Node7</title>
<path fill="none" stroke="midnightblue" d="M251.73,-59.16C258.44,-49.68 266.05,-38.92 271.96,-30.58"/>
<polygon fill="midnightblue" stroke="midnightblue" points="248.82,-57.21 245.9,-67.4 254.53,-61.26 248.82,-57.21"/>
</g>
</g>
</svg>
