<?xml version="1.0" encoding="UTF-8" standalone="no"?>
<!DOCTYPE svg PUBLIC "-//W3C//DTD SVG 1.1//EN"
 "http://www.w3.org/Graphics/SVG/1.1/DTD/svg11.dtd">
<!-- Generated by graphviz version 2.49.3 (20211027.1534)
 -->
<!-- Title: RayLib_SHMUP/src/Shmup/LevelManager.cpp Pages: 1 -->
<!--zoomable 341 -->
<svg id="main" version="1.1" xmlns="http://www.w3.org/2000/svg" xmlns:xlink="http://www.w3.org/1999/xlink" xml:space="preserve" onload="init(evt)">
<style type="text/css"><![CDATA[
.edge:hover path { stroke: red; }
.edge:hover polygon { stroke: red; fill: red; }
]]></style>
<script type="text/javascript"><![CDATA[
var edges = document.getElementsByTagName('g');
if (edges && edges.length) {
  for (var i=0;i<edges.length;i++) {
    if (edges[i].id.substr(0,4)=='edge') {
      edges[i].setAttribute('class','edge');
    }
  }
}
]]></script>
        <defs>
                <circle id="rim" cx="0" cy="0" r="7"/>
                <circle id="rim2" cx="0" cy="0" r="3.5"/>
                <g id="zoomPlus">
                        <use xlink:href="#rim" fill="#404040">
                                <set attributeName="fill" to="#808080" begin="zoomplus.mouseover" end="zoomplus.mouseout"/>
                        </use>
                        <path d="M-4,0h8M0,-4v8" fill="none" stroke="white" stroke-width="1.5" pointer-events="none"/>
                </g>
                <g id="zoomMin">
                        <use xlink:href="#rim" fill="#404040">
                                <set attributeName="fill" to="#808080" begin="zoomminus.mouseover" end="zoomminus.mouseout"/>
                        </use>
                        <path d="M-4,0h8" fill="none" stroke="white" stroke-width="1.5" pointer-events="none"/>
                </g>
                <g id="dirArrow">
                        <path fill="none" stroke="white" stroke-width="1.5" d="M0,-3.0v7 M-2.5,-0.5L0,-3.0L2.5,-0.5"/>
                </g>
               <g id="resetDef">
                       <use xlink:href="#rim2" fill="#404040">
                               <set attributeName="fill" to="#808080" begin="reset.mouseover" end="reset.mouseout"/>
                       </use>
               </g>
        </defs>

<script type="text/javascript">
var viewWidth = 1174;
var viewHeight = 341;
var sectionId = 'dynsection-0';
</script>
<script xlink:href="../../svgpan.js"/>
<svg id="graph" class="graph">
<g id="viewport">
<title>RayLib_SHMUP/src/Shmup/LevelManager.cpp</title>
<polygon fill="white" stroke="transparent" points="-4,4 -4,-337 1169.5,-337 1169.5,4 -4,4"/>
<!-- Node1 -->
<g id="node1" class="node">
<title>Node1</title>
<g id="a_node1"><a xlink:title=" ">
<polygon fill="#bfbfbf" stroke="black" points="299.5,-302.5 299.5,-332.5 438.5,-332.5 438.5,-302.5 299.5,-302.5"/>
<text text-anchor="start" x="307.5" y="-320.5" font-family="Helvetica,sans-Serif" font-size="10.00">RayLib_SHMUP/src/Shmup</text>
<text text-anchor="middle" x="369" y="-309.5" font-family="Helvetica,sans-Serif" font-size="10.00">/LevelManager.cpp</text>
</a>
</g>
</g>
<!-- Node2 -->
<g id="node2" class="node">
<title>Node2</title>
<g id="a_node2"><a xlink:title=" ">
<polygon fill="white" stroke="#bfbfbf" points="142.5,-62 142.5,-81 183.5,-81 183.5,-62 142.5,-62"/>
<text text-anchor="middle" x="163" y="-69" font-family="Helvetica,sans-Serif" font-size="10.00">string</text>
</a>
</g>
</g>
<!-- Node1&#45;&gt;Node2 -->
<g id="edge1" class="edge">
<title>Node1&#45;&gt;Node2</title>
<path fill="none" stroke="midnightblue" d="M299.23,-312.21C231.31,-303.89 131.44,-279.73 83,-210 53.35,-167.32 110.52,-113.09 142.89,-87.35"/>
<polygon fill="midnightblue" stroke="midnightblue" points="145.12,-90.05 150.89,-81.16 140.84,-84.51 145.12,-90.05"/>
</g>
<!-- Node3 -->
<g id="node3" class="node">
<title>Node3</title>
<g id="a_node3"><a xlink:title=" ">
<polygon fill="white" stroke="#bfbfbf" points="209,-0.5 209,-19.5 253,-19.5 253,-0.5 209,-0.5"/>
<text text-anchor="middle" x="231" y="-7.5" font-family="Helvetica,sans-Serif" font-size="10.00">vector</text>
</a>
</g>
</g>
<!-- Node1&#45;&gt;Node3 -->
<g id="edge2" class="edge">
<title>Node1&#45;&gt;Node3</title>
<path fill="none" stroke="midnightblue" d="M299.16,-309.05C192.18,-295.67 0,-263.01 0,-201 0,-201 0,-201 0,-137.5 0,-48.03 134.97,-21.43 198.57,-13.86"/>
<polygon fill="midnightblue" stroke="midnightblue" points="199.29,-17.3 208.85,-12.73 198.53,-10.34 199.29,-17.3"/>
</g>
<!-- Node4 -->
<g id="node4" class="node">
<title>Node4</title>
<g id="a_node4"><a xlink:href="../../d2/dc9/_level_manager_8h.html" target="_top" xlink:title=" ">
<polygon fill="white" stroke="black" points="92.5,-190.5 92.5,-209.5 211.5,-209.5 211.5,-190.5 92.5,-190.5"/>
<text text-anchor="middle" x="152" y="-197.5" font-family="Helvetica,sans-Serif" font-size="10.00">Shmup/LevelManager.h</text>
</a>
</g>
</g>
<!-- Node1&#45;&gt;Node4 -->
<g id="edge3" class="edge">
<title>Node1&#45;&gt;Node4</title>
<path fill="none" stroke="midnightblue" d="M342.39,-302.34C300.08,-279.82 218.04,-236.15 176.85,-214.23"/>
<polygon fill="midnightblue" stroke="midnightblue" points="178.48,-211.13 168.01,-209.52 175.19,-217.31 178.48,-211.13"/>
</g>
<!-- Node10 -->
<g id="node10" class="node">
<title>Node10</title>
<g id="a_node10"><a xlink:href="../../d4/d1e/_enemy_8h.html" target="_top" xlink:title=" ">
<polygon fill="white" stroke="black" points="750.5,-246.5 750.5,-265.5 877.5,-265.5 877.5,-246.5 750.5,-246.5"/>
<text text-anchor="middle" x="814" y="-253.5" font-family="Helvetica,sans-Serif" font-size="10.00">Shmup/Movable/Enemy.h</text>
</a>
</g>
</g>
<!-- Node1&#45;&gt;Node10 -->
<g id="edge14" class="edge">
<title>Node1&#45;&gt;Node10</title>
<path fill="none" stroke="midnightblue" d="M438.53,-307.2C520.63,-296.23 656.58,-278.05 740.4,-266.84"/>
<polygon fill="midnightblue" stroke="midnightblue" points="740.91,-270.3 750.36,-265.51 739.98,-263.37 740.91,-270.3"/>
</g>
<!-- Node19 -->
<g id="node19" class="node">
<title>Node19</title>
<g id="a_node19"><a xlink:href="../../de/d40/_parser_8h.html" target="_top" xlink:title=" ">
<polygon fill="white" stroke="black" points="370.5,-190.5 370.5,-209.5 483.5,-209.5 483.5,-190.5 370.5,-190.5"/>
<text text-anchor="middle" x="427" y="-197.5" font-family="Helvetica,sans-Serif" font-size="10.00">Namespaces/Parser.h</text>
</a>
</g>
</g>
<!-- Node1&#45;&gt;Node19 -->
<g id="edge35" class="edge">
<title>Node1&#45;&gt;Node19</title>
<path fill="none" stroke="midnightblue" d="M376.11,-302.34C386.7,-281.24 406.61,-241.6 418.14,-218.65"/>
<polygon fill="midnightblue" stroke="midnightblue" points="421.29,-220.18 422.65,-209.67 415.03,-217.04 421.29,-220.18"/>
</g>
<!-- Node23 -->
<g id="node23" class="node">
<title>Node23</title>
<g id="a_node23"><a xlink:href="../../d5/daf/_game_status_8h.html" target="_top" xlink:title=" ">
<polygon fill="white" stroke="black" points="896,-246.5 896,-265.5 1036,-265.5 1036,-246.5 896,-246.5"/>
<text text-anchor="middle" x="966" y="-253.5" font-family="Helvetica,sans-Serif" font-size="10.00">Namespaces/GameStatus.h</text>
</a>
</g>
</g>
<!-- Node1&#45;&gt;Node23 -->
<g id="edge45" class="edge">
<title>Node1&#45;&gt;Node23</title>
<path fill="none" stroke="midnightblue" d="M438.58,-310.08C536.01,-301.01 718.91,-283.68 885.36,-266.16"/>
<polygon fill="midnightblue" stroke="midnightblue" points="886.22,-269.59 895.8,-265.06 885.48,-262.63 886.22,-269.59"/>
</g>
<!-- Node4&#45;&gt;Node2 -->
<g id="edge5" class="edge">
<title>Node4&#45;&gt;Node2</title>
<path fill="none" stroke="midnightblue" d="M152.76,-190.31C154.52,-169.99 158.95,-119.05 161.37,-91.28"/>
<polygon fill="midnightblue" stroke="midnightblue" points="164.86,-91.52 162.24,-81.26 157.89,-90.91 164.86,-91.52"/>
</g>
<!-- Node4&#45;&gt;Node3 -->
<g id="edge6" class="edge">
<title>Node4&#45;&gt;Node3</title>
<path fill="none" stroke="midnightblue" d="M136.22,-190.47C123.8,-182.77 107.39,-170.18 100,-154 81.89,-114.39 74.69,-91.45 100,-56 122.25,-24.84 167.5,-15.03 198.53,-12.07"/>
<polygon fill="midnightblue" stroke="midnightblue" points="199.15,-15.53 208.85,-11.28 198.62,-8.55 199.15,-15.53"/>
</g>
<!-- Node5 -->
<g id="node5" class="node">
<title>Node5</title>
<g id="a_node5"><a xlink:title=" ">
<polygon fill="white" stroke="#bfbfbf" points="692,-0.5 692,-19.5 746,-19.5 746,-0.5 692,-0.5"/>
<text text-anchor="middle" x="719" y="-7.5" font-family="Helvetica,sans-Serif" font-size="10.00">iostream</text>
</a>
</g>
</g>
<!-- Node4&#45;&gt;Node5 -->
<g id="edge4" class="edge">
<title>Node4&#45;&gt;Node5</title>
<path fill="none" stroke="midnightblue" d="M146.71,-190.18C132.56,-165.37 97.32,-94.3 133,-56 171.65,-14.52 585.55,-25.29 642,-20 654.98,-18.78 669.16,-17.2 681.78,-15.7"/>
<polygon fill="midnightblue" stroke="midnightblue" points="682.44,-19.14 691.95,-14.47 681.6,-12.19 682.44,-19.14"/>
</g>
<!-- Node6 -->
<g id="node6" class="node">
<title>Node6</title>
<g id="a_node6"><a xlink:href="../../d1/d98/_sequence_move_patern_8h.html" target="_top" xlink:title=" ">
<polygon fill="white" stroke="black" points="218.5,-123.5 218.5,-153.5 371.5,-153.5 371.5,-123.5 218.5,-123.5"/>
<text text-anchor="start" x="226.5" y="-141.5" font-family="Helvetica,sans-Serif" font-size="10.00">Paterns/Enemy/SequenceMove</text>
<text text-anchor="middle" x="295" y="-130.5" font-family="Helvetica,sans-Serif" font-size="10.00">Patern.h</text>
</a>
</g>
</g>
<!-- Node4&#45;&gt;Node6 -->
<g id="edge7" class="edge">
<title>Node4&#45;&gt;Node6</title>
<path fill="none" stroke="midnightblue" d="M172.49,-190.48C193.12,-181.89 225.58,-168.38 251.91,-157.43"/>
<polygon fill="midnightblue" stroke="midnightblue" points="253.41,-160.6 261.3,-153.52 250.72,-154.13 253.41,-160.6"/>
</g>
<!-- Node6&#45;&gt;Node2 -->
<g id="edge12" class="edge">
<title>Node6&#45;&gt;Node2</title>
<path fill="none" stroke="midnightblue" d="M266.36,-123.4C243.5,-112.14 211.74,-96.5 189.48,-85.54"/>
<polygon fill="midnightblue" stroke="midnightblue" points="190.79,-82.28 180.28,-81.01 187.7,-88.56 190.79,-82.28"/>
</g>
<!-- Node6&#45;&gt;Node3 -->
<g id="edge13" class="edge">
<title>Node6&#45;&gt;Node3</title>
<path fill="none" stroke="midnightblue" d="M270.69,-123.41C258.02,-114.66 243.61,-102.19 236,-87 227.04,-69.11 226.93,-45.83 228.33,-29.77"/>
<polygon fill="midnightblue" stroke="midnightblue" points="231.84,-29.87 229.51,-19.53 224.89,-29.06 231.84,-29.87"/>
</g>
<!-- Node6&#45;&gt;Node5 -->
<g id="edge11" class="edge">
<title>Node6&#45;&gt;Node5</title>
<path fill="none" stroke="midnightblue" d="M292.62,-123.37C290.42,-105.02 289.83,-73.27 308,-56 362.11,-4.57 567.81,-28.33 642,-20 654.96,-18.54 669.13,-16.9 681.75,-15.42"/>
<polygon fill="midnightblue" stroke="midnightblue" points="682.4,-18.87 691.92,-14.22 681.58,-11.92 682.4,-18.87"/>
</g>
<!-- Node7 -->
<g id="node7" class="node">
<title>Node7</title>
<g id="a_node7"><a xlink:href="../../dc/d8f/_a_offsetable_patern_8h.html" target="_top" xlink:title=" ">
<polygon fill="white" stroke="black" points="534,-56.5 534,-86.5 672,-86.5 672,-56.5 534,-56.5"/>
<text text-anchor="start" x="542" y="-74.5" font-family="Helvetica,sans-Serif" font-size="10.00">Shmup/Paterns/AOffsetable</text>
<text text-anchor="middle" x="603" y="-63.5" font-family="Helvetica,sans-Serif" font-size="10.00">Patern.h</text>
</a>
</g>
</g>
<!-- Node6&#45;&gt;Node7 -->
<g id="edge8" class="edge">
<title>Node6&#45;&gt;Node7</title>
<path fill="none" stroke="midnightblue" d="M361.45,-123.48C409.95,-113.24 475.78,-99.35 526.47,-88.65"/>
<polygon fill="midnightblue" stroke="midnightblue" points="527.34,-92.04 536.4,-86.55 525.89,-85.2 527.34,-92.04"/>
</g>
<!-- Node8 -->
<g id="node8" class="node">
<title>Node8</title>
<g id="a_node8"><a xlink:title=" ">
<polygon fill="white" stroke="#bfbfbf" points="1005.5,-0.5 1005.5,-19.5 1052.5,-19.5 1052.5,-0.5 1005.5,-0.5"/>
<text text-anchor="middle" x="1029" y="-7.5" font-family="Helvetica,sans-Serif" font-size="10.00">raylib.h</text>
</a>
</g>
</g>
<!-- Node7&#45;&gt;Node8 -->
<g id="edge9" class="edge">
<title>Node7&#45;&gt;Node8</title>
<path fill="none" stroke="midnightblue" d="M672.39,-60.81C765.01,-47.87 925.43,-25.47 995.09,-15.74"/>
<polygon fill="midnightblue" stroke="midnightblue" points="995.66,-19.19 1005.08,-14.34 994.69,-12.26 995.66,-19.19"/>
</g>
<!-- Node9 -->
<g id="node9" class="node">
<title>Node9</title>
<g id="a_node9"><a xlink:href="../../df/d50/_a_patern_8h.html" target="_top" xlink:title=" ">
<polygon fill="white" stroke="black" points="573.5,-0.5 573.5,-19.5 632.5,-19.5 632.5,-0.5 573.5,-0.5"/>
<text text-anchor="middle" x="603" y="-7.5" font-family="Helvetica,sans-Serif" font-size="10.00">APatern.h</text>
</a>
</g>
</g>
<!-- Node7&#45;&gt;Node9 -->
<g id="edge10" class="edge">
<title>Node7&#45;&gt;Node9</title>
<path fill="none" stroke="midnightblue" d="M603,-56.4C603,-48.47 603,-38.46 603,-29.86"/>
<polygon fill="midnightblue" stroke="midnightblue" points="606.5,-29.66 603,-19.66 599.5,-29.66 606.5,-29.66"/>
</g>
<!-- Node10&#45;&gt;Node5 -->
<g id="edge15" class="edge">
<title>Node10&#45;&gt;Node5</title>
<path fill="none" stroke="midnightblue" d="M806.76,-246.18C799.87,-237.44 789.62,-223.45 783,-210 752.06,-147.12 731.38,-65.87 723.09,-29.75"/>
<polygon fill="midnightblue" stroke="midnightblue" points="726.44,-28.68 720.83,-19.68 719.61,-30.21 726.44,-28.68"/>
</g>
<!-- Node10&#45;&gt;Node6 -->
<g id="edge26" class="edge">
<title>Node10&#45;&gt;Node6</title>
<path fill="none" stroke="midnightblue" d="M750.22,-254.08C642.27,-251.62 428.76,-242.67 362,-210 340.24,-199.36 321.83,-178.51 309.85,-162.23"/>
<polygon fill="midnightblue" stroke="midnightblue" points="312.5,-159.91 303.87,-153.75 306.78,-163.94 312.5,-159.91"/>
</g>
<!-- Node11 -->
<g id="node11" class="node">
<title>Node11</title>
<g id="a_node11"><a xlink:title=" ">
<polygon fill="white" stroke="#bfbfbf" points="956,-190.5 956,-209.5 1008,-209.5 1008,-190.5 956,-190.5"/>
<text text-anchor="middle" x="982" y="-197.5" font-family="Helvetica,sans-Serif" font-size="10.00">sstream</text>
</a>
</g>
</g>
<!-- Node10&#45;&gt;Node11 -->
<g id="edge16" class="edge">
<title>Node10&#45;&gt;Node11</title>
<path fill="none" stroke="midnightblue" d="M840.62,-246.44C869.09,-237.29 914.4,-222.73 946.03,-212.56"/>
<polygon fill="midnightblue" stroke="midnightblue" points="947.33,-215.82 955.78,-209.43 945.19,-209.16 947.33,-215.82"/>
</g>
<!-- Node12 -->
<g id="node12" class="node">
<title>Node12</title>
<g id="a_node12"><a xlink:href="../../db/d1b/_a_movable_8h.html" target="_top" xlink:title=" ">
<polygon fill="white" stroke="black" points="1064.5,-190.5 1064.5,-209.5 1165.5,-209.5 1165.5,-190.5 1064.5,-190.5"/>
<text text-anchor="middle" x="1115" y="-197.5" font-family="Helvetica,sans-Serif" font-size="10.00">Shmup/AMovable.h</text>
</a>
</g>
</g>
<!-- Node10&#45;&gt;Node12 -->
<g id="edge17" class="edge">
<title>Node10&#45;&gt;Node12</title>
<path fill="none" stroke="midnightblue" d="M861.69,-246.44C914.86,-236.9 1000.82,-221.48 1057.63,-211.29"/>
<polygon fill="midnightblue" stroke="midnightblue" points="1058.3,-214.73 1067.53,-209.52 1057.07,-207.84 1058.3,-214.73"/>
</g>
<!-- Node16 -->
<g id="node16" class="node">
<title>Node16</title>
<g id="a_node16"><a xlink:href="../../d5/d36/_collider_8h.html" target="_top" xlink:title=" ">
<polygon fill="white" stroke="black" points="882,-129 882,-148 1012,-148 1012,-129 882,-129"/>
<text text-anchor="middle" x="947" y="-136" font-family="Helvetica,sans-Serif" font-size="10.00">Shmup/Collision/Collider.h</text>
</a>
</g>
</g>
<!-- Node10&#45;&gt;Node16 -->
<g id="edge27" class="edge">
<title>Node10&#45;&gt;Node16</title>
<path fill="none" stroke="midnightblue" d="M868.67,-246.47C925.55,-237.04 1007.65,-221.65 1017,-210 1034.31,-188.44 1002.49,-166.23 976.28,-152.65"/>
<polygon fill="midnightblue" stroke="midnightblue" points="977.5,-149.34 966.98,-148.05 974.4,-155.62 977.5,-149.34"/>
</g>
<!-- Node18 -->
<g id="node18" class="node">
<title>Node18</title>
<g id="a_node18"><a xlink:href="../../d3/d72/_a_collidable_8h.html" target="_top" xlink:title=" ">
<polygon fill="white" stroke="black" points="792,-190.5 792,-209.5 938,-209.5 938,-190.5 792,-190.5"/>
<text text-anchor="middle" x="865" y="-197.5" font-family="Helvetica,sans-Serif" font-size="10.00">Shmup/Collision/ACollidable.h</text>
</a>
</g>
</g>
<!-- Node10&#45;&gt;Node18 -->
<g id="edge32" class="edge">
<title>Node10&#45;&gt;Node18</title>
<path fill="none" stroke="midnightblue" d="M822.42,-246.08C829.85,-238.22 840.85,-226.57 849.81,-217.08"/>
<polygon fill="midnightblue" stroke="midnightblue" points="852.41,-219.42 856.74,-209.75 847.32,-214.62 852.41,-219.42"/>
</g>
<!-- Node12&#45;&gt;Node8 -->
<g id="edge18" class="edge">
<title>Node12&#45;&gt;Node8</title>
<path fill="none" stroke="midnightblue" d="M1119.62,-190.34C1124.06,-181.49 1130.45,-167.22 1133,-154 1141.44,-110.17 1139.52,-90.34 1111,-56 1098.25,-40.65 1078.85,-29.67 1062.12,-22.4"/>
<polygon fill="midnightblue" stroke="midnightblue" points="1063.22,-19.07 1052.64,-18.54 1060.59,-25.55 1063.22,-19.07"/>
</g>
<!-- Node13 -->
<g id="node13" class="node">
<title>Node13</title>
<g id="a_node13"><a xlink:href="../../d7/daf/_a_graphic_object_8h.html" target="_top" xlink:title=" ">
<polygon fill="white" stroke="black" points="1030.5,-129 1030.5,-148 1123.5,-148 1123.5,-129 1030.5,-129"/>
<text text-anchor="middle" x="1077" y="-136" font-family="Helvetica,sans-Serif" font-size="10.00">AGraphicObject.h</text>
</a>
</g>
</g>
<!-- Node12&#45;&gt;Node13 -->
<g id="edge19" class="edge">
<title>Node12&#45;&gt;Node13</title>
<path fill="none" stroke="midnightblue" d="M1109.56,-190.48C1103.91,-181.64 1094.94,-167.59 1087.84,-156.48"/>
<polygon fill="midnightblue" stroke="midnightblue" points="1090.77,-154.55 1082.43,-148.01 1084.87,-158.32 1090.77,-154.55"/>
</g>
<!-- Node13&#45;&gt;Node8 -->
<g id="edge20" class="edge">
<title>Node13&#45;&gt;Node8</title>
<path fill="none" stroke="midnightblue" d="M1082.54,-128.9C1091.72,-113.44 1107.86,-80.34 1095,-56 1087.58,-41.95 1073.58,-31.47 1060.38,-24.17"/>
<polygon fill="midnightblue" stroke="midnightblue" points="1061.96,-21.04 1051.46,-19.62 1058.78,-27.28 1061.96,-21.04"/>
</g>
<!-- Node14 -->
<g id="node14" class="node">
<title>Node14</title>
<g id="a_node14"><a xlink:href="../../dc/d80/_instance_list_8h.html" target="_top" xlink:title=" ">
<polygon fill="white" stroke="black" points="804,-62 804,-81 916,-81 916,-62 804,-62"/>
<text text-anchor="middle" x="860" y="-69" font-family="Helvetica,sans-Serif" font-size="10.00">Shmup/InstanceList.h</text>
</a>
</g>
</g>
<!-- Node13&#45;&gt;Node14 -->
<g id="edge21" class="edge">
<title>Node13&#45;&gt;Node14</title>
<path fill="none" stroke="midnightblue" d="M1048.18,-128.87C1009.65,-117.33 941.24,-96.84 898.38,-84"/>
<polygon fill="midnightblue" stroke="midnightblue" points="899.17,-80.58 888.59,-81.06 897.16,-87.29 899.17,-80.58"/>
</g>
<!-- Node15 -->
<g id="node15" class="node">
<title>Node15</title>
<g id="a_node15"><a xlink:href="../../da/d02/_transform2_d_8h.html" target="_top" xlink:title=" ">
<polygon fill="white" stroke="black" points="972,-62 972,-81 1086,-81 1086,-62 972,-62"/>
<text text-anchor="middle" x="1029" y="-69" font-family="Helvetica,sans-Serif" font-size="10.00">Shmup/Transform2D.h</text>
</a>
</g>
</g>
<!-- Node13&#45;&gt;Node15 -->
<g id="edge24" class="edge">
<title>Node13&#45;&gt;Node15</title>
<path fill="none" stroke="midnightblue" d="M1070.53,-128.73C1063.11,-118.7 1050.8,-102.01 1041.5,-89.42"/>
<polygon fill="midnightblue" stroke="midnightblue" points="1044.13,-87.09 1035.37,-81.13 1038.5,-91.25 1044.13,-87.09"/>
</g>
<!-- Node14&#45;&gt;Node3 -->
<g id="edge23" class="edge">
<title>Node14&#45;&gt;Node3</title>
<path fill="none" stroke="midnightblue" d="M803.9,-65.19C675.64,-53.06 364.24,-23.6 263.22,-14.05"/>
<polygon fill="midnightblue" stroke="midnightblue" points="263.32,-10.54 253.03,-13.08 262.66,-17.51 263.32,-10.54"/>
</g>
<!-- Node14&#45;&gt;Node5 -->
<g id="edge22" class="edge">
<title>Node14&#45;&gt;Node5</title>
<path fill="none" stroke="midnightblue" d="M839.8,-61.98C815.93,-51.9 776,-35.05 748.63,-23.5"/>
<polygon fill="midnightblue" stroke="midnightblue" points="749.74,-20.17 739.16,-19.51 747.02,-26.62 749.74,-20.17"/>
</g>
<!-- Node15&#45;&gt;Node8 -->
<g id="edge25" class="edge">
<title>Node15&#45;&gt;Node8</title>
<path fill="none" stroke="midnightblue" d="M1029,-61.98C1029,-53.58 1029,-40.48 1029,-29.66"/>
<polygon fill="midnightblue" stroke="midnightblue" points="1032.5,-29.51 1029,-19.51 1025.5,-29.51 1032.5,-29.51"/>
</g>
<!-- Node16&#45;&gt;Node8 -->
<g id="edge28" class="edge">
<title>Node16&#45;&gt;Node8</title>
<path fill="none" stroke="midnightblue" d="M946.64,-128.85C946.39,-113.04 947.84,-78.99 963,-56 972,-42.36 986.69,-31.75 999.93,-24.26"/>
<polygon fill="midnightblue" stroke="midnightblue" points="1001.58,-27.35 1008.78,-19.58 998.3,-21.16 1001.58,-27.35"/>
</g>
<!-- Node16&#45;&gt;Node15 -->
<g id="edge29" class="edge">
<title>Node16&#45;&gt;Node15</title>
<path fill="none" stroke="midnightblue" d="M958.06,-128.73C971.34,-118.21 993.83,-100.38 1009.93,-87.62"/>
<polygon fill="midnightblue" stroke="midnightblue" points="1012.45,-90.08 1018.12,-81.13 1008.11,-84.6 1012.45,-90.08"/>
</g>
<!-- Node17 -->
<g id="node17" class="node">
<title>Node17</title>
<g id="a_node17"><a xlink:href="../../de/d60/_collider_settings_8h.html" target="_top" xlink:title=" ">
<polygon fill="white" stroke="black" points="394,-56.5 394,-86.5 516,-86.5 516,-56.5 394,-56.5"/>
<text text-anchor="start" x="402" y="-74.5" font-family="Helvetica,sans-Serif" font-size="10.00">Shmup/Collision/Collider</text>
<text text-anchor="middle" x="455" y="-63.5" font-family="Helvetica,sans-Serif" font-size="10.00">Settings.h</text>
</a>
</g>
</g>
<!-- Node16&#45;&gt;Node17 -->
<g id="edge30" class="edge">
<title>Node16&#45;&gt;Node17</title>
<path fill="none" stroke="midnightblue" d="M881.69,-131.43C800.59,-123.49 657.81,-108.26 525.91,-87.06"/>
<polygon fill="midnightblue" stroke="midnightblue" points="526.46,-83.61 516.03,-85.46 525.34,-90.52 526.46,-83.61"/>
</g>
<!-- Node17&#45;&gt;Node3 -->
<g id="edge31" class="edge">
<title>Node17&#45;&gt;Node3</title>
<path fill="none" stroke="midnightblue" d="M402.2,-56.47C359.11,-45.03 299.62,-29.23 263.31,-19.58"/>
<polygon fill="midnightblue" stroke="midnightblue" points="263.84,-16.1 253.28,-16.92 262.04,-22.87 263.84,-16.1"/>
</g>
<!-- Node18&#45;&gt;Node14 -->
<g id="edge34" class="edge">
<title>Node18&#45;&gt;Node14</title>
<path fill="none" stroke="midnightblue" d="M864.66,-190.31C863.85,-169.99 861.84,-119.05 860.74,-91.28"/>
<polygon fill="midnightblue" stroke="midnightblue" points="864.24,-91.11 860.35,-81.26 857.24,-91.39 864.24,-91.11"/>
</g>
<!-- Node18&#45;&gt;Node16 -->
<g id="edge33" class="edge">
<title>Node18&#45;&gt;Node16</title>
<path fill="none" stroke="midnightblue" d="M876.75,-190.48C889.78,-181.02 911.04,-165.6 926.76,-154.19"/>
<polygon fill="midnightblue" stroke="midnightblue" points="929.23,-156.71 935.27,-148.01 925.12,-151.05 929.23,-156.71"/>
</g>
<!-- Node19&#45;&gt;Node2 -->
<g id="edge37" class="edge">
<title>Node19&#45;&gt;Node2</title>
<path fill="none" stroke="midnightblue" d="M370.41,-192.57C314.95,-185.35 235.18,-172.21 210,-154 188.44,-138.41 175.28,-109.65 168.57,-90.8"/>
<polygon fill="midnightblue" stroke="midnightblue" points="171.88,-89.66 165.42,-81.26 165.23,-91.85 171.88,-89.66"/>
</g>
<!-- Node19&#45;&gt;Node5 -->
<g id="edge36" class="edge">
<title>Node19&#45;&gt;Node5</title>
<path fill="none" stroke="midnightblue" d="M483.62,-193.83C549.06,-184.54 654.38,-158.69 706,-87 717.95,-70.41 720.27,-46.56 720.19,-30.02"/>
<polygon fill="midnightblue" stroke="midnightblue" points="723.69,-29.79 719.85,-19.92 716.69,-30.03 723.69,-29.79"/>
</g>
<!-- Node19&#45;&gt;Node6 -->
<g id="edge44" class="edge">
<title>Node19&#45;&gt;Node6</title>
<path fill="none" stroke="midnightblue" d="M408.09,-190.48C389.21,-181.96 359.6,-168.62 335.42,-157.72"/>
<polygon fill="midnightblue" stroke="midnightblue" points="336.66,-154.44 326.11,-153.52 333.79,-160.82 336.66,-154.44"/>
</g>
<!-- Node20 -->
<g id="node20" class="node">
<title>Node20</title>
<g id="a_node20"><a xlink:title=" ">
<polygon fill="white" stroke="#bfbfbf" points="512.5,-129 512.5,-148 571.5,-148 571.5,-129 512.5,-129"/>
<text text-anchor="middle" x="542" y="-136" font-family="Helvetica,sans-Serif" font-size="10.00">stdexcept</text>
</a>
</g>
</g>
<!-- Node19&#45;&gt;Node20 -->
<g id="edge38" class="edge">
<title>Node19&#45;&gt;Node20</title>
<path fill="none" stroke="midnightblue" d="M443.48,-190.48C462.61,-180.58 494.37,-164.14 516.65,-152.62"/>
<polygon fill="midnightblue" stroke="midnightblue" points="518.28,-155.71 525.55,-148.01 515.06,-149.5 518.28,-155.71"/>
</g>
<!-- Node21 -->
<g id="node21" class="node">
<title>Node21</title>
<g id="a_node21"><a xlink:href="../../d9/dc1/_utils_8h.html" target="_top" xlink:title=" ">
<polygon fill="white" stroke="black" points="389.5,-129 389.5,-148 494.5,-148 494.5,-129 389.5,-129"/>
<text text-anchor="middle" x="442" y="-136" font-family="Helvetica,sans-Serif" font-size="10.00">Namespaces/Utils.h</text>
</a>
</g>
</g>
<!-- Node19&#45;&gt;Node21 -->
<g id="edge39" class="edge">
<title>Node19&#45;&gt;Node21</title>
<path fill="none" stroke="midnightblue" d="M429.15,-190.48C431.29,-181.99 434.64,-168.7 437.38,-157.82"/>
<polygon fill="midnightblue" stroke="midnightblue" points="440.8,-158.56 439.85,-148.01 434.02,-156.85 440.8,-158.56"/>
</g>
<!-- Node21&#45;&gt;Node2 -->
<g id="edge41" class="edge">
<title>Node21&#45;&gt;Node2</title>
<path fill="none" stroke="midnightblue" d="M406.2,-128.96C397.93,-126.99 389.16,-124.91 381,-123 314.23,-107.33 235.88,-89.26 193.67,-79.55"/>
<polygon fill="midnightblue" stroke="midnightblue" points="194.28,-76.1 183.75,-77.26 192.71,-82.92 194.28,-76.1"/>
</g>
<!-- Node21&#45;&gt;Node3 -->
<g id="edge42" class="edge">
<title>Node21&#45;&gt;Node3</title>
<path fill="none" stroke="midnightblue" d="M407.97,-128.96C379.74,-120.9 339.3,-107.05 308,-87 282.41,-70.61 258.41,-44.58 244.21,-27.64"/>
<polygon fill="midnightblue" stroke="midnightblue" points="246.76,-25.24 237.72,-19.71 241.35,-29.67 246.76,-25.24"/>
</g>
<!-- Node21&#45;&gt;Node5 -->
<g id="edge40" class="edge">
<title>Node21&#45;&gt;Node5</title>
<path fill="none" stroke="midnightblue" d="M477.7,-128.96C486.3,-126.96 495.47,-124.86 504,-123 582.43,-105.86 617.28,-135.83 681,-87 699.44,-72.87 709.57,-47.36 714.64,-29.82"/>
<polygon fill="midnightblue" stroke="midnightblue" points="718.16,-30.2 717.28,-19.64 711.38,-28.45 718.16,-30.2"/>
</g>
<!-- Node22 -->
<g id="node22" class="node">
<title>Node22</title>
<g id="a_node22"><a xlink:title=" ">
<polygon fill="white" stroke="#bfbfbf" points="316.5,-62 316.5,-81 375.5,-81 375.5,-62 316.5,-62"/>
<text text-anchor="middle" x="346" y="-69" font-family="Helvetica,sans-Serif" font-size="10.00">functional</text>
</a>
</g>
</g>
<!-- Node21&#45;&gt;Node22 -->
<g id="edge43" class="edge">
<title>Node21&#45;&gt;Node22</title>
<path fill="none" stroke="midnightblue" d="M429.05,-128.73C413.15,-117.96 385.95,-99.55 367.03,-86.74"/>
<polygon fill="midnightblue" stroke="midnightblue" points="368.98,-83.84 358.74,-81.13 365.06,-89.63 368.98,-83.84"/>
</g>
</g>
</svg>
        <g id="navigator" transform="translate(0 0)" fill="#404254">
                <rect fill="#f2f5e9" fill-opacity="0.5" stroke="#606060" stroke-width=".5" x="0" y="0" width="60" height="60"/>
                <use id="zoomplus" xlink:href="#zoomPlus" x="17" y="9" onmousedown="handleZoom(evt,'in')"/>
                <use id="zoomminus" xlink:href="#zoomMin" x="42" y="9" onmousedown="handleZoom(evt,'out')"/>
                <use id="reset" xlink:href="#resetDef" x="30" y="36" onmousedown="handleReset()"/>
                <g id="arrowUp" xlink:href="#dirArrow" transform="translate(30 24)" onmousedown="handlePan(0,-1)">
                  <use xlink:href="#rim" fill="#404040">
                        <set attributeName="fill" to="#808080" begin="arrowUp.mouseover" end="arrowUp.mouseout"/>
                  </use>
                  <path fill="none" stroke="white" stroke-width="1.5" d="M0,-3.0v7 M-2.5,-0.5L0,-3.0L2.5,-0.5"/>
                </g>
                <g id="arrowRight" xlink:href="#dirArrow" transform="rotate(90) translate(36 -43)" onmousedown="handlePan(1,0)">
                  <use xlink:href="#rim" fill="#404040">
                        <set attributeName="fill" to="#808080" begin="arrowRight.mouseover" end="arrowRight.mouseout"/>
                  </use>
                  <path fill="none" stroke="white" stroke-width="1.5" d="M0,-3.0v7 M-2.5,-0.5L0,-3.0L2.5,-0.5"/>
                </g>
                <g id="arrowDown" xlink:href="#dirArrow" transform="rotate(180) translate(-30 -48)" onmousedown="handlePan(0,1)">
                  <use xlink:href="#rim" fill="#404040">
                        <set attributeName="fill" to="#808080" begin="arrowDown.mouseover" end="arrowDown.mouseout"/>
                  </use>
                  <path fill="none" stroke="white" stroke-width="1.5" d="M0,-3.0v7 M-2.5,-0.5L0,-3.0L2.5,-0.5"/>
                </g>
                <g id="arrowLeft" xlink:href="#dirArrow" transform="rotate(270) translate(-36 17)" onmousedown="handlePan(-1,0)">
                  <use xlink:href="#rim" fill="#404040">
                        <set attributeName="fill" to="#808080" begin="arrowLeft.mouseover" end="arrowLeft.mouseout"/>
                  </use>
                  <path fill="none" stroke="white" stroke-width="1.5" d="M0,-3.0v7 M-2.5,-0.5L0,-3.0L2.5,-0.5"/>
                </g>
        </g>
        <svg viewBox="0 0 15 15" width="100%" height="30px" preserveAspectRatio="xMaxYMin meet">
         <g id="arrow_out" transform="scale(0.3 0.3)">
          <a xlink:href="_level_manager_8cpp__incl_org.svg" target="_base">
           <rect id="button" ry="5" rx="5" y="6" x="6" height="38" width="38"
                fill="#f2f5e9" fill-opacity="0.5" stroke="#606060" stroke-width="1.0"/>
           <path id="arrow"
             d="M 11.500037,31.436501 C 11.940474,20.09759 22.043105,11.32322 32.158766,21.979434 L 37.068811,17.246167 C 37.068811,17.246167 37.088388,32 37.088388,32 L 22.160133,31.978069 C 22.160133,31.978069 26.997745,27.140456 26.997745,27.140456 C 18.528582,18.264221 13.291696,25.230495 11.500037,31.436501 z"
             style="fill:#404040;"/>
          </a>
         </g>
        </svg>
</svg>
