<?xml version="1.0" encoding="UTF-8" standalone="no"?>
<!DOCTYPE svg PUBLIC "-//W3C//DTD SVG 1.1//EN"
 "http://www.w3.org/Graphics/SVG/1.1/DTD/svg11.dtd">
<!-- Generated by graphviz version 2.49.3 (20211027.1534)
 -->
<!-- Title: RayLib_SHMUP/src/Shmup/LevelManager.cpp Pages: 1 -->
<svg width="559pt" height="285pt"
 viewBox="0.00 0.00 559.35 285.00" xmlns="http://www.w3.org/2000/svg" xmlns:xlink="http://www.w3.org/1999/xlink">
<g id="graph0" class="graph" transform="scale(1 1) rotate(0) translate(4 281)">
<title>RayLib_SHMUP/src/Shmup/LevelManager.cpp</title>
<polygon fill="white" stroke="transparent" points="-4,4 -4,-281 555.35,-281 555.35,4 -4,4"/>
<!-- Node1 -->
<g id="node1" class="node">
<title>Node1</title>
<g id="a_node1"><a xlink:title=" ">
<polygon fill="#bfbfbf" stroke="black" points="188.71,-246.5 188.71,-276.5 327.71,-276.5 327.71,-246.5 188.71,-246.5"/>
<text text-anchor="start" x="196.71" y="-264.5" font-family="Helvetica,sans-Serif" font-size="10.00">RayLib_SHMUP/src/Shmup</text>
<text text-anchor="middle" x="258.21" y="-253.5" font-family="Helvetica,sans-Serif" font-size="10.00">/LevelManager.cpp</text>
</a>
</g>
</g>
<!-- Node2 -->
<g id="node2" class="node">
<title>Node2</title>
<g id="a_node2"><a xlink:title=" ">
<polygon fill="white" stroke="#bfbfbf" points="67.71,-62 67.71,-81 108.71,-81 108.71,-62 67.71,-62"/>
<text text-anchor="middle" x="88.21" y="-69" font-family="Helvetica,sans-Serif" font-size="10.00">string</text>
</a>
</g>
</g>
<!-- Node1&#45;&gt;Node2 -->
<g id="edge1" class="edge">
<title>Node1&#45;&gt;Node2</title>
<path fill="none" stroke="midnightblue" d="M188.47,-253.45C127.47,-243.06 42.9,-217.39 5.21,-154 -1.83,-142.16 -1.54,-135.01 5.21,-123 16.47,-102.97 39.25,-89.95 58.11,-82.16"/>
<polygon fill="midnightblue" stroke="midnightblue" points="59.44,-85.4 67.53,-78.55 56.94,-78.86 59.44,-85.4"/>
</g>
<!-- Node3 -->
<g id="node3" class="node">
<title>Node3</title>
<g id="a_node3"><a xlink:title=" ">
<polygon fill="white" stroke="#bfbfbf" points="315.21,-62 315.21,-81 359.21,-81 359.21,-62 315.21,-62"/>
<text text-anchor="middle" x="337.21" y="-69" font-family="Helvetica,sans-Serif" font-size="10.00">vector</text>
</a>
</g>
</g>
<!-- Node1&#45;&gt;Node3 -->
<g id="edge2" class="edge">
<title>Node1&#45;&gt;Node3</title>
<path fill="none" stroke="midnightblue" d="M327.91,-254.89C392.97,-245.52 486.67,-220.55 532.21,-154 596.03,-60.72 486.73,-115.78 383.21,-87 378.73,-85.75 374.03,-84.37 369.42,-82.96"/>
<polygon fill="midnightblue" stroke="midnightblue" points="370.17,-79.53 359.58,-79.89 368.08,-86.21 370.17,-79.53"/>
</g>
<!-- Node4 -->
<g id="node4" class="node">
<title>Node4</title>
<g id="a_node4"><a xlink:href="../../d2/dc9/_level_manager_8h.html" target="_top" xlink:title=" ">
<polygon fill="white" stroke="black" points="262.71,-129 262.71,-148 381.71,-148 381.71,-129 262.71,-129"/>
<text text-anchor="middle" x="322.21" y="-136" font-family="Helvetica,sans-Serif" font-size="10.00">Shmup/LevelManager.h</text>
</a>
</g>
</g>
<!-- Node1&#45;&gt;Node4 -->
<g id="edge3" class="edge">
<title>Node1&#45;&gt;Node4</title>
<path fill="none" stroke="midnightblue" d="M265.8,-246.14C277.56,-223.91 300.16,-181.19 312.89,-157.11"/>
<polygon fill="midnightblue" stroke="midnightblue" points="316.1,-158.53 317.68,-148.05 309.92,-155.26 316.1,-158.53"/>
</g>
<!-- Node6 -->
<g id="node6" class="node">
<title>Node6</title>
<g id="a_node6"><a xlink:href="../../de/d40/_parser_8h.html" target="_top" xlink:title=" ">
<polygon fill="white" stroke="black" points="117.71,-190.5 117.71,-209.5 230.71,-209.5 230.71,-190.5 117.71,-190.5"/>
<text text-anchor="middle" x="174.21" y="-197.5" font-family="Helvetica,sans-Serif" font-size="10.00">Namespaces/Parser.h</text>
</a>
</g>
</g>
<!-- Node1&#45;&gt;Node6 -->
<g id="edge7" class="edge">
<title>Node1&#45;&gt;Node6</title>
<path fill="none" stroke="midnightblue" d="M238.3,-246.4C225.21,-237.13 208.13,-225.03 194.89,-215.65"/>
<polygon fill="midnightblue" stroke="midnightblue" points="196.61,-212.58 186.43,-209.66 192.57,-218.29 196.61,-212.58"/>
</g>
<!-- Node4&#45;&gt;Node2 -->
<g id="edge5" class="edge">
<title>Node4&#45;&gt;Node2</title>
<path fill="none" stroke="midnightblue" d="M274.92,-128.96C232.78,-120.62 169.84,-106.37 117.21,-87 115.82,-86.49 114.41,-85.93 113.01,-85.34"/>
<polygon fill="midnightblue" stroke="midnightblue" points="114.43,-82.14 103.88,-81.13 111.49,-88.5 114.43,-82.14"/>
</g>
<!-- Node4&#45;&gt;Node3 -->
<g id="edge6" class="edge">
<title>Node4&#45;&gt;Node3</title>
<path fill="none" stroke="midnightblue" d="M324.23,-128.73C326.46,-119.09 330.1,-103.3 332.96,-90.91"/>
<polygon fill="midnightblue" stroke="midnightblue" points="336.38,-91.66 335.22,-81.13 329.56,-90.08 336.38,-91.66"/>
</g>
<!-- Node5 -->
<g id="node5" class="node">
<title>Node5</title>
<g id="a_node5"><a xlink:title=" ">
<polygon fill="white" stroke="#bfbfbf" points="225.21,-62 225.21,-81 279.21,-81 279.21,-62 225.21,-62"/>
<text text-anchor="middle" x="252.21" y="-69" font-family="Helvetica,sans-Serif" font-size="10.00">iostream</text>
</a>
</g>
</g>
<!-- Node4&#45;&gt;Node5 -->
<g id="edge4" class="edge">
<title>Node4&#45;&gt;Node5</title>
<path fill="none" stroke="midnightblue" d="M312.77,-128.73C301.54,-118.31 282.59,-100.71 268.87,-87.97"/>
<polygon fill="midnightblue" stroke="midnightblue" points="271.21,-85.37 261.5,-81.13 266.45,-90.5 271.21,-85.37"/>
</g>
<!-- Node6&#45;&gt;Node2 -->
<g id="edge9" class="edge">
<title>Node6&#45;&gt;Node2</title>
<path fill="none" stroke="midnightblue" d="M117.6,-190.44C76.84,-182.98 26.88,-170.73 14.21,-154 5.89,-143.02 7.77,-135.18 14.21,-123 23.56,-105.3 42.22,-92.63 58.46,-84.41"/>
<polygon fill="midnightblue" stroke="midnightblue" points="60.1,-87.5 67.65,-80.08 57.12,-81.17 60.1,-87.5"/>
</g>
<!-- Node6&#45;&gt;Node5 -->
<g id="edge8" class="edge">
<title>Node6&#45;&gt;Node5</title>
<path fill="none" stroke="midnightblue" d="M183.32,-190.33C192.03,-181.71 205.14,-167.8 214.21,-154 227.57,-133.67 238.75,-107.88 245.45,-90.82"/>
<polygon fill="midnightblue" stroke="midnightblue" points="248.89,-91.61 249.18,-81.02 242.35,-89.12 248.89,-91.61"/>
</g>
<!-- Node7 -->
<g id="node7" class="node">
<title>Node7</title>
<g id="a_node7"><a xlink:title=" ">
<polygon fill="white" stroke="#bfbfbf" points="23.71,-129 23.71,-148 82.71,-148 82.71,-129 23.71,-129"/>
<text text-anchor="middle" x="53.21" y="-136" font-family="Helvetica,sans-Serif" font-size="10.00">stdexcept</text>
</a>
</g>
</g>
<!-- Node6&#45;&gt;Node7 -->
<g id="edge10" class="edge">
<title>Node6&#45;&gt;Node7</title>
<path fill="none" stroke="midnightblue" d="M156.87,-190.48C136.66,-180.53 103.02,-163.99 79.57,-152.46"/>
<polygon fill="midnightblue" stroke="midnightblue" points="81.03,-149.28 70.51,-148.01 77.94,-155.56 81.03,-149.28"/>
</g>
<!-- Node8 -->
<g id="node8" class="node">
<title>Node8</title>
<g id="a_node8"><a xlink:href="../../d9/dc1/_utils_8h.html" target="_top" xlink:title=" ">
<polygon fill="white" stroke="black" points="100.71,-129 100.71,-148 205.71,-148 205.71,-129 100.71,-129"/>
<text text-anchor="middle" x="153.21" y="-136" font-family="Helvetica,sans-Serif" font-size="10.00">Namespaces/Utils.h</text>
</a>
</g>
</g>
<!-- Node6&#45;&gt;Node8 -->
<g id="edge11" class="edge">
<title>Node6&#45;&gt;Node8</title>
<path fill="none" stroke="midnightblue" d="M171.2,-190.48C168.17,-181.9 163.42,-168.43 159.56,-157.48"/>
<polygon fill="midnightblue" stroke="midnightblue" points="162.84,-156.27 156.21,-148.01 156.24,-158.6 162.84,-156.27"/>
</g>
<!-- Node10 -->
<g id="node10" class="node">
<title>Node10</title>
<g id="a_node10"><a xlink:href="../../d1/d98/_sequence_move_patern_8h.html" target="_top" xlink:title=" ">
<polygon fill="white" stroke="black" points="399.71,-123.5 399.71,-153.5 522.71,-153.5 522.71,-123.5 399.71,-123.5"/>
<text text-anchor="start" x="407.71" y="-141.5" font-family="Helvetica,sans-Serif" font-size="10.00">Shmup/Paterns/Enemy</text>
<text text-anchor="middle" x="461.21" y="-130.5" font-family="Helvetica,sans-Serif" font-size="10.00">/SequenceMovePatern.h</text>
</a>
</g>
</g>
<!-- Node6&#45;&gt;Node10 -->
<g id="edge16" class="edge">
<title>Node6&#45;&gt;Node10</title>
<path fill="none" stroke="midnightblue" d="M215.33,-190.48C260.71,-181.07 334.59,-165.75 389.54,-154.36"/>
<polygon fill="midnightblue" stroke="midnightblue" points="390.48,-157.74 399.57,-152.28 389.06,-150.88 390.48,-157.74"/>
</g>
<!-- Node8&#45;&gt;Node2 -->
<g id="edge13" class="edge">
<title>Node8&#45;&gt;Node2</title>
<path fill="none" stroke="midnightblue" d="M144.44,-128.73C134.11,-118.4 116.75,-101.04 104.04,-88.33"/>
<polygon fill="midnightblue" stroke="midnightblue" points="106.38,-85.72 96.84,-81.13 101.43,-90.67 106.38,-85.72"/>
</g>
<!-- Node8&#45;&gt;Node3 -->
<g id="edge14" class="edge">
<title>Node8&#45;&gt;Node3</title>
<path fill="none" stroke="midnightblue" d="M177.64,-128.87C210.53,-117.25 269.07,-96.57 305.37,-83.75"/>
<polygon fill="midnightblue" stroke="midnightblue" points="306.72,-86.98 314.98,-80.35 304.38,-80.38 306.72,-86.98"/>
</g>
<!-- Node8&#45;&gt;Node5 -->
<g id="edge12" class="edge">
<title>Node8&#45;&gt;Node5</title>
<path fill="none" stroke="midnightblue" d="M166.56,-128.73C182.96,-117.96 211.01,-99.55 230.52,-86.74"/>
<polygon fill="midnightblue" stroke="midnightblue" points="232.63,-89.54 239.07,-81.13 228.79,-83.69 232.63,-89.54"/>
</g>
<!-- Node9 -->
<g id="node9" class="node">
<title>Node9</title>
<g id="a_node9"><a xlink:title=" ">
<polygon fill="white" stroke="#bfbfbf" points="126.71,-62 126.71,-81 185.71,-81 185.71,-62 126.71,-62"/>
<text text-anchor="middle" x="156.21" y="-69" font-family="Helvetica,sans-Serif" font-size="10.00">functional</text>
</a>
</g>
</g>
<!-- Node8&#45;&gt;Node9 -->
<g id="edge15" class="edge">
<title>Node8&#45;&gt;Node9</title>
<path fill="none" stroke="midnightblue" d="M153.61,-128.73C154.05,-119.18 154.77,-103.62 155.34,-91.28"/>
<polygon fill="midnightblue" stroke="midnightblue" points="158.85,-91.28 155.81,-81.13 151.85,-90.96 158.85,-91.28"/>
</g>
<!-- Node10&#45;&gt;Node2 -->
<g id="edge21" class="edge">
<title>Node10&#45;&gt;Node2</title>
<path fill="none" stroke="midnightblue" d="M399.68,-124.66C396.48,-124.08 393.31,-123.52 390.21,-123 269.51,-102.74 234.22,-122.86 117.21,-87 115.54,-86.49 113.86,-85.89 112.18,-85.23"/>
<polygon fill="midnightblue" stroke="midnightblue" points="113.42,-81.95 102.87,-81.01 110.53,-88.33 113.42,-81.95"/>
</g>
<!-- Node10&#45;&gt;Node3 -->
<g id="edge22" class="edge">
<title>Node10&#45;&gt;Node3</title>
<path fill="none" stroke="midnightblue" d="M434.3,-123.4C412.93,-112.19 383.26,-96.64 362.36,-85.69"/>
<polygon fill="midnightblue" stroke="midnightblue" points="363.92,-82.55 353.44,-81.01 360.67,-88.75 363.92,-82.55"/>
</g>
<!-- Node10&#45;&gt;Node5 -->
<g id="edge20" class="edge">
<title>Node10&#45;&gt;Node5</title>
<path fill="none" stroke="midnightblue" d="M416.12,-123.48C378.22,-111.69 324.71,-95.05 289.27,-84.03"/>
<polygon fill="midnightblue" stroke="midnightblue" points="289.92,-80.56 279.33,-80.94 287.84,-87.25 289.92,-80.56"/>
</g>
<!-- Node11 -->
<g id="node11" class="node">
<title>Node11</title>
<g id="a_node11"><a xlink:href="../../dc/d8f/_a_offsetable_patern_8h.html" target="_top" xlink:title=" ">
<polygon fill="white" stroke="black" points="392.21,-56.5 392.21,-86.5 530.21,-86.5 530.21,-56.5 392.21,-56.5"/>
<text text-anchor="start" x="400.21" y="-74.5" font-family="Helvetica,sans-Serif" font-size="10.00">Shmup/Paterns/AOffsetable</text>
<text text-anchor="middle" x="461.21" y="-63.5" font-family="Helvetica,sans-Serif" font-size="10.00">Patern.h</text>
</a>
</g>
</g>
<!-- Node10&#45;&gt;Node11 -->
<g id="edge17" class="edge">
<title>Node10&#45;&gt;Node11</title>
<path fill="none" stroke="midnightblue" d="M461.21,-123.4C461.21,-115.64 461.21,-105.81 461.21,-96.86"/>
<polygon fill="midnightblue" stroke="midnightblue" points="464.71,-96.58 461.21,-86.58 457.71,-96.58 464.71,-96.58"/>
</g>
<!-- Node12 -->
<g id="node12" class="node">
<title>Node12</title>
<g id="a_node12"><a xlink:title=" ">
<polygon fill="white" stroke="#bfbfbf" points="402.71,-0.5 402.71,-19.5 449.71,-19.5 449.71,-0.5 402.71,-0.5"/>
<text text-anchor="middle" x="426.21" y="-7.5" font-family="Helvetica,sans-Serif" font-size="10.00">raylib.h</text>
</a>
</g>
</g>
<!-- Node11&#45;&gt;Node12 -->
<g id="edge18" class="edge">
<title>Node11&#45;&gt;Node12</title>
<path fill="none" stroke="midnightblue" d="M452.91,-56.4C447.99,-48.02 441.69,-37.33 436.46,-28.42"/>
<polygon fill="midnightblue" stroke="midnightblue" points="439.39,-26.5 431.3,-19.66 433.35,-30.05 439.39,-26.5"/>
</g>
<!-- Node13 -->
<g id="node13" class="node">
<title>Node13</title>
<g id="a_node13"><a xlink:href="../../df/d50/_a_patern_8h.html" target="_top" xlink:title=" ">
<polygon fill="white" stroke="black" points="467.71,-0.5 467.71,-19.5 526.71,-19.5 526.71,-0.5 467.71,-0.5"/>
<text text-anchor="middle" x="497.21" y="-7.5" font-family="Helvetica,sans-Serif" font-size="10.00">APatern.h</text>
</a>
</g>
</g>
<!-- Node11&#45;&gt;Node13 -->
<g id="edge19" class="edge">
<title>Node11&#45;&gt;Node13</title>
<path fill="none" stroke="midnightblue" d="M469.74,-56.4C474.81,-48.02 481.28,-37.33 486.67,-28.42"/>
<polygon fill="midnightblue" stroke="midnightblue" points="489.79,-30.03 491.97,-19.66 483.8,-26.4 489.79,-30.03"/>
</g>
</g>
</svg>
