<?xml version="1.0" encoding="UTF-8" standalone="no"?>
<!DOCTYPE svg PUBLIC "-//W3C//DTD SVG 1.1//EN"
 "http://www.w3.org/Graphics/SVG/1.1/DTD/svg11.dtd">
<!-- Generated by graphviz version 2.49.3 (20211027.1534)
 -->
<!-- Title: RayLib_SHMUP/src/Shmup/Paterns/Shoot/PaternLinear.cpp Pages: 1 -->
<!--zoomable 341 -->
<svg id="main" version="1.1" xmlns="http://www.w3.org/2000/svg" xmlns:xlink="http://www.w3.org/1999/xlink" xml:space="preserve" onload="init(evt)">
<style type="text/css"><![CDATA[
.edge:hover path { stroke: red; }
.edge:hover polygon { stroke: red; fill: red; }
]]></style>
<script type="text/javascript"><![CDATA[
var edges = document.getElementsByTagName('g');
if (edges && edges.length) {
  for (var i=0;i<edges.length;i++) {
    if (edges[i].id.substr(0,4)=='edge') {
      edges[i].setAttribute('class','edge');
    }
  }
}
]]></script>
        <defs>
                <circle id="rim" cx="0" cy="0" r="7"/>
                <circle id="rim2" cx="0" cy="0" r="3.5"/>
                <g id="zoomPlus">
                        <use xlink:href="#rim" fill="#404040">
                                <set attributeName="fill" to="#808080" begin="zoomplus.mouseover" end="zoomplus.mouseout"/>
                        </use>
                        <path d="M-4,0h8M0,-4v8" fill="none" stroke="white" stroke-width="1.5" pointer-events="none"/>
                </g>
                <g id="zoomMin">
                        <use xlink:href="#rim" fill="#404040">
                                <set attributeName="fill" to="#808080" begin="zoomminus.mouseover" end="zoomminus.mouseout"/>
                        </use>
                        <path d="M-4,0h8" fill="none" stroke="white" stroke-width="1.5" pointer-events="none"/>
                </g>
                <g id="dirArrow">
                        <path fill="none" stroke="white" stroke-width="1.5" d="M0,-3.0v7 M-2.5,-0.5L0,-3.0L2.5,-0.5"/>
                </g>
               <g id="resetDef">
                       <use xlink:href="#rim2" fill="#404040">
                               <set attributeName="fill" to="#808080" begin="reset.mouseover" end="reset.mouseout"/>
                       </use>
               </g>
        </defs>

<script type="text/javascript">
var viewWidth = 796;
var viewHeight = 341;
var sectionId = 'dynsection-0';
</script>
<script xlink:href="../../svgpan.js"/>
<svg id="graph" class="graph">
<g id="viewport">
<title>RayLib_SHMUP/src/Shmup/Paterns/Shoot/PaternLinear.cpp</title>
<polygon fill="white" stroke="transparent" points="-4,4 -4,-337 792,-337 792,4 -4,4"/>
<!-- Node1 -->
<g id="node1" class="node">
<title>Node1</title>
<g id="a_node1"><a xlink:title=" ">
<polygon fill="#bfbfbf" stroke="black" points="51,-302.5 51,-332.5 209,-332.5 209,-302.5 51,-302.5"/>
<text text-anchor="start" x="59" y="-320.5" font-family="Helvetica,sans-Serif" font-size="10.00">RayLib_SHMUP/src/Shmup</text>
<text text-anchor="middle" x="130" y="-309.5" font-family="Helvetica,sans-Serif" font-size="10.00">/Paterns/Shoot/PaternLinear.cpp</text>
</a>
</g>
</g>
<!-- Node2 -->
<g id="node2" class="node">
<title>Node2</title>
<g id="a_node2"><a xlink:title=" ">
<polygon fill="white" stroke="#bfbfbf" points="276.5,-0.5 276.5,-19.5 323.5,-19.5 323.5,-0.5 276.5,-0.5"/>
<text text-anchor="middle" x="300" y="-7.5" font-family="Helvetica,sans-Serif" font-size="10.00">raylib.h</text>
</a>
</g>
</g>
<!-- Node1&#45;&gt;Node2 -->
<g id="edge1" class="edge">
<title>Node1&#45;&gt;Node2</title>
<path fill="none" stroke="midnightblue" d="M97.87,-302.41C59.37,-283.1 0,-244.48 0,-190 0,-190 0,-190 0,-132 0,-75.03 188.44,-32.36 266.62,-17.11"/>
<polygon fill="midnightblue" stroke="midnightblue" points="267.3,-20.54 276.46,-15.22 265.98,-13.67 267.3,-20.54"/>
</g>
<!-- Node3 -->
<g id="node3" class="node">
<title>Node3</title>
<g id="a_node3"><a xlink:title=" ">
<polygon fill="white" stroke="#bfbfbf" points="39.5,-179.5 39.5,-198.5 98.5,-198.5 98.5,-179.5 39.5,-179.5"/>
<text text-anchor="middle" x="69" y="-186.5" font-family="Helvetica,sans-Serif" font-size="10.00">raymath.h</text>
</a>
</g>
</g>
<!-- Node1&#45;&gt;Node3 -->
<g id="edge2" class="edge">
<title>Node1&#45;&gt;Node3</title>
<path fill="none" stroke="midnightblue" d="M96.59,-302.34C81.61,-294.09 65.44,-282.11 57,-266 47.44,-247.75 53.75,-223.91 60.28,-207.84"/>
<polygon fill="midnightblue" stroke="midnightblue" points="63.56,-209.09 64.44,-198.53 57.17,-206.23 63.56,-209.09"/>
</g>
<!-- Node4 -->
<g id="node4" class="node">
<title>Node4</title>
<g id="a_node4"><a xlink:href="../../d2/da5/_math_utils_8h.html" target="_top" xlink:title=" ">
<polygon fill="white" stroke="black" points="66.5,-241 66.5,-260 193.5,-260 193.5,-241 66.5,-241"/>
<text text-anchor="middle" x="130" y="-248" font-family="Helvetica,sans-Serif" font-size="10.00">Namespaces/MathUtils.h</text>
</a>
</g>
</g>
<!-- Node1&#45;&gt;Node4 -->
<g id="edge3" class="edge">
<title>Node1&#45;&gt;Node4</title>
<path fill="none" stroke="midnightblue" d="M130,-302.4C130,-293.06 130,-280.71 130,-270.52"/>
<polygon fill="midnightblue" stroke="midnightblue" points="133.5,-270.19 130,-260.19 126.5,-270.19 133.5,-270.19"/>
</g>
<!-- Node5 -->
<g id="node5" class="node">
<title>Node5</title>
<g id="a_node5"><a xlink:href="../../d3/dff/_patern_linear_8h.html" target="_top" xlink:title=" ">
<polygon fill="white" stroke="black" points="211.5,-235.5 211.5,-265.5 324.5,-265.5 324.5,-235.5 211.5,-235.5"/>
<text text-anchor="start" x="219.5" y="-253.5" font-family="Helvetica,sans-Serif" font-size="10.00">Shmup/Paterns/Shoot</text>
<text text-anchor="middle" x="268" y="-242.5" font-family="Helvetica,sans-Serif" font-size="10.00">/PaternLinear.h</text>
</a>
</g>
</g>
<!-- Node1&#45;&gt;Node5 -->
<g id="edge6" class="edge">
<title>Node1&#45;&gt;Node5</title>
<path fill="none" stroke="midnightblue" d="M159.94,-302.4C180.2,-292.86 207.15,-280.16 229.06,-269.84"/>
<polygon fill="midnightblue" stroke="midnightblue" points="230.56,-273 238.11,-265.58 227.58,-266.67 230.56,-273"/>
</g>
<!-- Node7 -->
<g id="node7" class="node">
<title>Node7</title>
<g id="a_node7"><a xlink:href="../../de/d15/_shoot_8h.html" target="_top" xlink:title=" ">
<polygon fill="white" stroke="black" points="342.5,-241 342.5,-260 465.5,-260 465.5,-241 342.5,-241"/>
<text text-anchor="middle" x="404" y="-248" font-family="Helvetica,sans-Serif" font-size="10.00">Shmup/Movable/Shoot.h</text>
</a>
</g>
</g>
<!-- Node1&#45;&gt;Node7 -->
<g id="edge8" class="edge">
<title>Node1&#45;&gt;Node7</title>
<path fill="none" stroke="midnightblue" d="M189.12,-302.48C239.83,-290.45 311.86,-273.36 358.27,-262.35"/>
<polygon fill="midnightblue" stroke="midnightblue" points="359.13,-265.74 368.05,-260.03 357.51,-258.93 359.13,-265.74"/>
</g>
<!-- Node4&#45;&gt;Node2 -->
<g id="edge4" class="edge">
<title>Node4&#45;&gt;Node2</title>
<path fill="none" stroke="midnightblue" d="M132.29,-240.83C136.13,-227.09 144.7,-199.74 157,-179 193.98,-116.67 254.41,-54.7 283.43,-26.61"/>
<polygon fill="midnightblue" stroke="midnightblue" points="285.93,-29.06 290.73,-19.61 281.09,-24 285.93,-29.06"/>
</g>
<!-- Node4&#45;&gt;Node3 -->
<g id="edge5" class="edge">
<title>Node4&#45;&gt;Node3</title>
<path fill="none" stroke="midnightblue" d="M121.26,-240.98C111.84,-231.78 96.64,-216.96 85.05,-205.66"/>
<polygon fill="midnightblue" stroke="midnightblue" points="87.33,-202.99 77.72,-198.51 82.44,-208 87.33,-202.99"/>
</g>
<!-- Node6 -->
<g id="node6" class="node">
<title>Node6</title>
<g id="a_node6"><a xlink:href="../../df/d50/_a_patern_8h.html" target="_top" xlink:title=" ">
<polygon fill="white" stroke="black" points="166.5,-179.5 166.5,-198.5 233.5,-198.5 233.5,-179.5 166.5,-179.5"/>
<text text-anchor="middle" x="200" y="-186.5" font-family="Helvetica,sans-Serif" font-size="10.00">../APatern.h</text>
</a>
</g>
</g>
<!-- Node5&#45;&gt;Node6 -->
<g id="edge7" class="edge">
<title>Node5&#45;&gt;Node6</title>
<path fill="none" stroke="midnightblue" d="M251.88,-235.4C241.6,-226.4 228.25,-214.72 217.67,-205.47"/>
<polygon fill="midnightblue" stroke="midnightblue" points="219.73,-202.61 209.89,-198.66 215.12,-207.88 219.73,-202.61"/>
</g>
<!-- Node7&#45;&gt;Node2 -->
<g id="edge9" class="edge">
<title>Node7&#45;&gt;Node2</title>
<path fill="none" stroke="midnightblue" d="M386.73,-240.94C371.34,-232.41 349.39,-217.88 337,-199 301.76,-145.3 298.63,-65.64 299.22,-29.74"/>
<polygon fill="midnightblue" stroke="midnightblue" points="302.72,-29.81 299.51,-19.71 295.72,-29.61 302.72,-29.81"/>
</g>
<!-- Node7&#45;&gt;Node6 -->
<g id="edge19" class="edge">
<title>Node7&#45;&gt;Node6</title>
<path fill="none" stroke="midnightblue" d="M374.77,-240.98C339.1,-230.57 278.64,-212.94 239.02,-201.38"/>
<polygon fill="midnightblue" stroke="midnightblue" points="239.75,-197.95 229.17,-198.51 237.79,-204.67 239.75,-197.95"/>
</g>
<!-- Node8 -->
<g id="node8" class="node">
<title>Node8</title>
<g id="a_node8"><a xlink:href="../../db/d1b/_a_movable_8h.html" target="_top" xlink:title=" ">
<polygon fill="white" stroke="black" points="346.5,-179.5 346.5,-198.5 447.5,-198.5 447.5,-179.5 346.5,-179.5"/>
<text text-anchor="middle" x="397" y="-186.5" font-family="Helvetica,sans-Serif" font-size="10.00">Shmup/AMovable.h</text>
</a>
</g>
</g>
<!-- Node7&#45;&gt;Node8 -->
<g id="edge10" class="edge">
<title>Node7&#45;&gt;Node8</title>
<path fill="none" stroke="midnightblue" d="M403,-240.98C402.01,-232.58 400.47,-219.48 399.2,-208.66"/>
<polygon fill="midnightblue" stroke="midnightblue" points="402.65,-208.03 398,-198.51 395.69,-208.85 402.65,-208.03"/>
</g>
<!-- Node14 -->
<g id="node14" class="node">
<title>Node14</title>
<g id="a_node14"><a xlink:href="../../d5/d36/_collider_8h.html" target="_top" xlink:title=" ">
<polygon fill="white" stroke="black" points="573,-123.5 573,-142.5 703,-142.5 703,-123.5 573,-123.5"/>
<text text-anchor="middle" x="638" y="-130.5" font-family="Helvetica,sans-Serif" font-size="10.00">Shmup/Collision/Collider.h</text>
</a>
</g>
</g>
<!-- Node7&#45;&gt;Node14 -->
<g id="edge20" class="edge">
<title>Node7&#45;&gt;Node14</title>
<path fill="none" stroke="midnightblue" d="M465.69,-242.3C521.82,-234.51 599.14,-220.28 621,-199 633.27,-187.06 637.06,-167.45 638.06,-152.88"/>
<polygon fill="midnightblue" stroke="midnightblue" points="641.57,-152.63 638.37,-142.53 634.57,-152.42 641.57,-152.63"/>
</g>
<!-- Node16 -->
<g id="node16" class="node">
<title>Node16</title>
<g id="a_node16"><a xlink:href="../../d3/d72/_a_collidable_8h.html" target="_top" xlink:title=" ">
<polygon fill="white" stroke="black" points="466,-179.5 466,-198.5 612,-198.5 612,-179.5 466,-179.5"/>
<text text-anchor="middle" x="539" y="-186.5" font-family="Helvetica,sans-Serif" font-size="10.00">Shmup/Collision/ACollidable.h</text>
</a>
</g>
</g>
<!-- Node7&#45;&gt;Node16 -->
<g id="edge25" class="edge">
<title>Node7&#45;&gt;Node16</title>
<path fill="none" stroke="midnightblue" d="M423.34,-240.98C446.1,-230.95 484.09,-214.2 510.29,-202.65"/>
<polygon fill="midnightblue" stroke="midnightblue" points="511.95,-205.74 519.69,-198.51 509.13,-199.34 511.95,-205.74"/>
</g>
<!-- Node8&#45;&gt;Node2 -->
<g id="edge11" class="edge">
<title>Node8&#45;&gt;Node2</title>
<path fill="none" stroke="midnightblue" d="M387.15,-179.47C377.75,-170.94 363.62,-157.1 354,-143 328.97,-106.31 312.51,-56.23 304.89,-29.54"/>
<polygon fill="midnightblue" stroke="midnightblue" points="308.19,-28.35 302.17,-19.64 301.44,-30.21 308.19,-28.35"/>
</g>
<!-- Node9 -->
<g id="node9" class="node">
<title>Node9</title>
<g id="a_node9"><a xlink:href="../../d7/daf/_a_graphic_object_8h.html" target="_top" xlink:title=" ">
<polygon fill="white" stroke="black" points="363.5,-123.5 363.5,-142.5 456.5,-142.5 456.5,-123.5 363.5,-123.5"/>
<text text-anchor="middle" x="410" y="-130.5" font-family="Helvetica,sans-Serif" font-size="10.00">AGraphicObject.h</text>
</a>
</g>
</g>
<!-- Node8&#45;&gt;Node9 -->
<g id="edge12" class="edge">
<title>Node8&#45;&gt;Node9</title>
<path fill="none" stroke="midnightblue" d="M399.15,-179.08C400.87,-171.93 403.35,-161.64 405.5,-152.69"/>
<polygon fill="midnightblue" stroke="midnightblue" points="408.96,-153.29 407.89,-142.75 402.15,-151.65 408.96,-153.29"/>
</g>
<!-- Node9&#45;&gt;Node2 -->
<g id="edge13" class="edge">
<title>Node9&#45;&gt;Node2</title>
<path fill="none" stroke="midnightblue" d="M398.39,-123.37C387.2,-114.77 370.07,-100.89 357,-87 339.42,-68.33 322.17,-44.3 311.33,-28.31"/>
<polygon fill="midnightblue" stroke="midnightblue" points="314.2,-26.3 305.74,-19.93 308.38,-30.19 314.2,-26.3"/>
</g>
<!-- Node10 -->
<g id="node10" class="node">
<title>Node10</title>
<g id="a_node10"><a xlink:href="../../dc/d80/_instance_list_8h.html" target="_top" xlink:title=" ">
<polygon fill="white" stroke="black" points="498,-62 498,-81 610,-81 610,-62 498,-62"/>
<text text-anchor="middle" x="554" y="-69" font-family="Helvetica,sans-Serif" font-size="10.00">Shmup/InstanceList.h</text>
</a>
</g>
</g>
<!-- Node9&#45;&gt;Node10 -->
<g id="edge14" class="edge">
<title>Node9&#45;&gt;Node10</title>
<path fill="none" stroke="midnightblue" d="M430.63,-123.48C455.12,-113.36 496.15,-96.4 524.11,-84.85"/>
<polygon fill="midnightblue" stroke="midnightblue" points="525.5,-88.06 533.41,-81.01 522.83,-81.59 525.5,-88.06"/>
</g>
<!-- Node13 -->
<g id="node13" class="node">
<title>Node13</title>
<g id="a_node13"><a xlink:href="../../da/d02/_transform2_d_8h.html" target="_top" xlink:title=" ">
<polygon fill="white" stroke="black" points="366,-62 366,-81 480,-81 480,-62 366,-62"/>
<text text-anchor="middle" x="423" y="-69" font-family="Helvetica,sans-Serif" font-size="10.00">Shmup/Transform2D.h</text>
</a>
</g>
</g>
<!-- Node9&#45;&gt;Node13 -->
<g id="edge17" class="edge">
<title>Node9&#45;&gt;Node13</title>
<path fill="none" stroke="midnightblue" d="M411.86,-123.48C413.72,-114.99 416.62,-101.7 419,-90.82"/>
<polygon fill="midnightblue" stroke="midnightblue" points="422.43,-91.53 421.14,-81.01 415.59,-90.03 422.43,-91.53"/>
</g>
<!-- Node11 -->
<g id="node11" class="node">
<title>Node11</title>
<g id="a_node11"><a xlink:title=" ">
<polygon fill="white" stroke="#bfbfbf" points="527,-0.5 527,-19.5 581,-19.5 581,-0.5 527,-0.5"/>
<text text-anchor="middle" x="554" y="-7.5" font-family="Helvetica,sans-Serif" font-size="10.00">iostream</text>
</a>
</g>
</g>
<!-- Node10&#45;&gt;Node11 -->
<g id="edge15" class="edge">
<title>Node10&#45;&gt;Node11</title>
<path fill="none" stroke="midnightblue" d="M554,-61.98C554,-53.58 554,-40.48 554,-29.66"/>
<polygon fill="midnightblue" stroke="midnightblue" points="557.5,-29.51 554,-19.51 550.5,-29.51 557.5,-29.51"/>
</g>
<!-- Node12 -->
<g id="node12" class="node">
<title>Node12</title>
<g id="a_node12"><a xlink:title=" ">
<polygon fill="white" stroke="#bfbfbf" points="652,-0.5 652,-19.5 696,-19.5 696,-0.5 652,-0.5"/>
<text text-anchor="middle" x="674" y="-7.5" font-family="Helvetica,sans-Serif" font-size="10.00">vector</text>
</a>
</g>
</g>
<!-- Node10&#45;&gt;Node12 -->
<g id="edge16" class="edge">
<title>Node10&#45;&gt;Node12</title>
<path fill="none" stroke="midnightblue" d="M571.19,-61.98C591.24,-52.03 624.6,-35.49 647.86,-23.96"/>
<polygon fill="midnightblue" stroke="midnightblue" points="649.43,-27.09 656.84,-19.51 646.32,-20.82 649.43,-27.09"/>
</g>
<!-- Node13&#45;&gt;Node2 -->
<g id="edge18" class="edge">
<title>Node13&#45;&gt;Node2</title>
<path fill="none" stroke="midnightblue" d="M405.38,-61.98C384.83,-52.03 350.64,-35.49 326.79,-23.96"/>
<polygon fill="midnightblue" stroke="midnightblue" points="328.12,-20.71 317.59,-19.51 325.07,-27.01 328.12,-20.71"/>
</g>
<!-- Node14&#45;&gt;Node2 -->
<g id="edge21" class="edge">
<title>Node14&#45;&gt;Node2</title>
<path fill="none" stroke="midnightblue" d="M638.67,-123.4C639.39,-107.49 638.41,-73.47 619,-56 577.6,-18.73 407.48,-12.21 334.03,-11.16"/>
<polygon fill="midnightblue" stroke="midnightblue" points="333.96,-7.66 323.92,-11.04 333.87,-14.66 333.96,-7.66"/>
</g>
<!-- Node14&#45;&gt;Node13 -->
<g id="edge22" class="edge">
<title>Node14&#45;&gt;Node13</title>
<path fill="none" stroke="midnightblue" d="M607.2,-123.48C569.44,-113.03 505.34,-95.29 463.59,-83.73"/>
<polygon fill="midnightblue" stroke="midnightblue" points="464.32,-80.3 453.75,-81.01 462.45,-87.05 464.32,-80.3"/>
</g>
<!-- Node15 -->
<g id="node15" class="node">
<title>Node15</title>
<g id="a_node15"><a xlink:href="../../de/d60/_collider_settings_8h.html" target="_top" xlink:title=" ">
<polygon fill="white" stroke="black" points="666,-56.5 666,-86.5 788,-86.5 788,-56.5 666,-56.5"/>
<text text-anchor="start" x="674" y="-74.5" font-family="Helvetica,sans-Serif" font-size="10.00">Shmup/Collision/Collider</text>
<text text-anchor="middle" x="727" y="-63.5" font-family="Helvetica,sans-Serif" font-size="10.00">Settings.h</text>
</a>
</g>
</g>
<!-- Node14&#45;&gt;Node15 -->
<g id="edge23" class="edge">
<title>Node14&#45;&gt;Node15</title>
<path fill="none" stroke="midnightblue" d="M650.75,-123.48C662.92,-115.34 681.69,-102.79 697.56,-92.18"/>
<polygon fill="midnightblue" stroke="midnightblue" points="699.66,-94.99 706.02,-86.52 695.77,-89.17 699.66,-94.99"/>
</g>
<!-- Node15&#45;&gt;Node12 -->
<g id="edge24" class="edge">
<title>Node15&#45;&gt;Node12</title>
<path fill="none" stroke="midnightblue" d="M714.44,-56.4C706.66,-47.66 696.64,-36.41 688.52,-27.3"/>
<polygon fill="midnightblue" stroke="midnightblue" points="690.98,-24.8 681.71,-19.66 685.75,-29.45 690.98,-24.8"/>
</g>
<!-- Node16&#45;&gt;Node10 -->
<g id="edge27" class="edge">
<title>Node16&#45;&gt;Node10</title>
<path fill="none" stroke="midnightblue" d="M540.13,-179.32C542.54,-160.76 548.24,-116.84 551.54,-91.47"/>
<polygon fill="midnightblue" stroke="midnightblue" points="555.04,-91.65 552.86,-81.28 548.1,-90.75 555.04,-91.65"/>
</g>
<!-- Node16&#45;&gt;Node14 -->
<g id="edge26" class="edge">
<title>Node16&#45;&gt;Node14</title>
<path fill="none" stroke="midnightblue" d="M554.91,-179.32C570.64,-170.74 594.94,-157.49 613.21,-147.52"/>
<polygon fill="midnightblue" stroke="midnightblue" points="615.03,-150.52 622.13,-142.65 611.68,-144.37 615.03,-150.52"/>
</g>
</g>
</svg>
        <g id="navigator" transform="translate(0 0)" fill="#404254">
                <rect fill="#f2f5e9" fill-opacity="0.5" stroke="#606060" stroke-width=".5" x="0" y="0" width="60" height="60"/>
                <use id="zoomplus" xlink:href="#zoomPlus" x="17" y="9" onmousedown="handleZoom(evt,'in')"/>
                <use id="zoomminus" xlink:href="#zoomMin" x="42" y="9" onmousedown="handleZoom(evt,'out')"/>
                <use id="reset" xlink:href="#resetDef" x="30" y="36" onmousedown="handleReset()"/>
                <g id="arrowUp" xlink:href="#dirArrow" transform="translate(30 24)" onmousedown="handlePan(0,-1)">
                  <use xlink:href="#rim" fill="#404040">
                        <set attributeName="fill" to="#808080" begin="arrowUp.mouseover" end="arrowUp.mouseout"/>
                  </use>
                  <path fill="none" stroke="white" stroke-width="1.5" d="M0,-3.0v7 M-2.5,-0.5L0,-3.0L2.5,-0.5"/>
                </g>
                <g id="arrowRight" xlink:href="#dirArrow" transform="rotate(90) translate(36 -43)" onmousedown="handlePan(1,0)">
                  <use xlink:href="#rim" fill="#404040">
                        <set attributeName="fill" to="#808080" begin="arrowRight.mouseover" end="arrowRight.mouseout"/>
                  </use>
                  <path fill="none" stroke="white" stroke-width="1.5" d="M0,-3.0v7 M-2.5,-0.5L0,-3.0L2.5,-0.5"/>
                </g>
                <g id="arrowDown" xlink:href="#dirArrow" transform="rotate(180) translate(-30 -48)" onmousedown="handlePan(0,1)">
                  <use xlink:href="#rim" fill="#404040">
                        <set attributeName="fill" to="#808080" begin="arrowDown.mouseover" end="arrowDown.mouseout"/>
                  </use>
                  <path fill="none" stroke="white" stroke-width="1.5" d="M0,-3.0v7 M-2.5,-0.5L0,-3.0L2.5,-0.5"/>
                </g>
                <g id="arrowLeft" xlink:href="#dirArrow" transform="rotate(270) translate(-36 17)" onmousedown="handlePan(-1,0)">
                  <use xlink:href="#rim" fill="#404040">
                        <set attributeName="fill" to="#808080" begin="arrowLeft.mouseover" end="arrowLeft.mouseout"/>
                  </use>
                  <path fill="none" stroke="white" stroke-width="1.5" d="M0,-3.0v7 M-2.5,-0.5L0,-3.0L2.5,-0.5"/>
                </g>
        </g>
        <svg viewBox="0 0 15 15" width="100%" height="30px" preserveAspectRatio="xMaxYMin meet">
         <g id="arrow_out" transform="scale(0.3 0.3)">
          <a xlink:href="_patern_linear_8cpp__incl_org.svg" target="_base">
           <rect id="button" ry="5" rx="5" y="6" x="6" height="38" width="38"
                fill="#f2f5e9" fill-opacity="0.5" stroke="#606060" stroke-width="1.0"/>
           <path id="arrow"
             d="M 11.500037,31.436501 C 11.940474,20.09759 22.043105,11.32322 32.158766,21.979434 L 37.068811,17.246167 C 37.068811,17.246167 37.088388,32 37.088388,32 L 22.160133,31.978069 C 22.160133,31.978069 26.997745,27.140456 26.997745,27.140456 C 18.528582,18.264221 13.291696,25.230495 11.500037,31.436501 z"
             style="fill:#404040;"/>
          </a>
         </g>
        </svg>
</svg>
