<?xml version="1.0" encoding="UTF-8" standalone="no"?>
<!DOCTYPE svg PUBLIC "-//W3C//DTD SVG 1.1//EN"
 "http://www.w3.org/Graphics/SVG/1.1/DTD/svg11.dtd">
<!-- Generated by graphviz version 2.49.3 (20211027.1534)
 -->
<!-- Title: RayLib_SHMUP/src/Shmup/Paterns/Shoot/PaternLinear.cpp Pages: 1 -->
<svg width="722pt" height="341pt"
 viewBox="0.00 0.00 721.50 341.00" xmlns="http://www.w3.org/2000/svg" xmlns:xlink="http://www.w3.org/1999/xlink">
<g id="graph0" class="graph" transform="scale(1 1) rotate(0) translate(4 337)">
<title>RayLib_SHMUP/src/Shmup/Paterns/Shoot/PaternLinear.cpp</title>
<polygon fill="white" stroke="transparent" points="-4,4 -4,-337 717.5,-337 717.5,4 -4,4"/>
<!-- Node1 -->
<g id="node1" class="node">
<title>Node1</title>
<g id="a_node1"><a xlink:title=" ">
<polygon fill="#bfbfbf" stroke="black" points="394,-302.5 394,-332.5 552,-332.5 552,-302.5 394,-302.5"/>
<text text-anchor="start" x="402" y="-320.5" font-family="Helvetica,sans-Serif" font-size="10.00">RayLib_SHMUP/src/Shmup</text>
<text text-anchor="middle" x="473" y="-309.5" font-family="Helvetica,sans-Serif" font-size="10.00">/Paterns/Shoot/PaternLinear.cpp</text>
</a>
</g>
</g>
<!-- Node2 -->
<g id="node2" class="node">
<title>Node2</title>
<g id="a_node2"><a xlink:title=" ">
<polygon fill="white" stroke="#bfbfbf" points="90.5,-0.5 90.5,-19.5 137.5,-19.5 137.5,-0.5 90.5,-0.5"/>
<text text-anchor="middle" x="114" y="-7.5" font-family="Helvetica,sans-Serif" font-size="10.00">raylib.h</text>
</a>
</g>
</g>
<!-- Node1&#45;&gt;Node2 -->
<g id="edge1" class="edge">
<title>Node1&#45;&gt;Node2</title>
<path fill="none" stroke="midnightblue" d="M393.83,-311.63C259.18,-301.16 0,-270.54 0,-190 0,-190 0,-190 0,-132 0,-81.35 53.58,-43.28 87.27,-24.34"/>
<polygon fill="midnightblue" stroke="midnightblue" points="89.06,-27.36 96.19,-19.52 85.73,-21.2 89.06,-27.36"/>
</g>
<!-- Node3 -->
<g id="node3" class="node">
<title>Node3</title>
<g id="a_node3"><a xlink:title=" ">
<polygon fill="white" stroke="#bfbfbf" points="582.5,-62 582.5,-81 641.5,-81 641.5,-62 582.5,-62"/>
<text text-anchor="middle" x="612" y="-69" font-family="Helvetica,sans-Serif" font-size="10.00">raymath.h</text>
</a>
</g>
</g>
<!-- Node1&#45;&gt;Node3 -->
<g id="edge2" class="edge">
<title>Node1&#45;&gt;Node3</title>
<path fill="none" stroke="midnightblue" d="M498.21,-302.46C511.85,-293.64 527.93,-281.1 538,-266 574.56,-211.2 549.17,-182.71 577,-123 582.6,-110.98 591.01,-98.73 598.19,-89.31"/>
<polygon fill="midnightblue" stroke="midnightblue" points="601.11,-91.25 604.55,-81.23 595.61,-86.92 601.11,-91.25"/>
</g>
<!-- Node4 -->
<g id="node4" class="node">
<title>Node4</title>
<g id="a_node4"><a xlink:href="../../d2/da5/_math_utils_8h.html" target="_top" xlink:title=" ">
<polygon fill="white" stroke="black" points="586.5,-123.5 586.5,-142.5 713.5,-142.5 713.5,-123.5 586.5,-123.5"/>
<text text-anchor="middle" x="650" y="-130.5" font-family="Helvetica,sans-Serif" font-size="10.00">Namespaces/MathUtils.h</text>
</a>
</g>
</g>
<!-- Node1&#45;&gt;Node4 -->
<g id="edge3" class="edge">
<title>Node1&#45;&gt;Node4</title>
<path fill="none" stroke="midnightblue" d="M512.85,-302.31C532.32,-293.94 555.13,-281.86 572,-266 607.45,-232.69 632.03,-179.67 643.2,-152.06"/>
<polygon fill="midnightblue" stroke="midnightblue" points="646.55,-153.1 646.93,-142.51 640.03,-150.55 646.55,-153.1"/>
</g>
<!-- Node5 -->
<g id="node5" class="node">
<title>Node5</title>
<g id="a_node5"><a xlink:href="../../d3/dff/_patern_linear_8h.html" target="_top" xlink:title=" ">
<polygon fill="white" stroke="black" points="416.5,-235.5 416.5,-265.5 529.5,-265.5 529.5,-235.5 416.5,-235.5"/>
<text text-anchor="start" x="424.5" y="-253.5" font-family="Helvetica,sans-Serif" font-size="10.00">Shmup/Paterns/Shoot</text>
<text text-anchor="middle" x="473" y="-242.5" font-family="Helvetica,sans-Serif" font-size="10.00">/PaternLinear.h</text>
</a>
</g>
</g>
<!-- Node1&#45;&gt;Node5 -->
<g id="edge6" class="edge">
<title>Node1&#45;&gt;Node5</title>
<path fill="none" stroke="midnightblue" d="M473,-302.4C473,-294.64 473,-284.81 473,-275.86"/>
<polygon fill="midnightblue" stroke="midnightblue" points="476.5,-275.58 473,-265.58 469.5,-275.58 476.5,-275.58"/>
</g>
<!-- Node7 -->
<g id="node7" class="node">
<title>Node7</title>
<g id="a_node7"><a xlink:href="../../de/d15/_shoot_8h.html" target="_top" xlink:title=" ">
<polygon fill="white" stroke="black" points="267.5,-241 267.5,-260 390.5,-260 390.5,-241 267.5,-241"/>
<text text-anchor="middle" x="329" y="-248" font-family="Helvetica,sans-Serif" font-size="10.00">Shmup/Movable/Shoot.h</text>
</a>
</g>
</g>
<!-- Node1&#45;&gt;Node7 -->
<g id="edge8" class="edge">
<title>Node1&#45;&gt;Node7</title>
<path fill="none" stroke="midnightblue" d="M441.75,-302.4C416.6,-291.04 381.55,-275.22 357.23,-264.24"/>
<polygon fill="midnightblue" stroke="midnightblue" points="358.4,-260.93 347.85,-260.01 355.52,-267.31 358.4,-260.93"/>
</g>
<!-- Node4&#45;&gt;Node2 -->
<g id="edge4" class="edge">
<title>Node4&#45;&gt;Node2</title>
<path fill="none" stroke="midnightblue" d="M653.3,-123.38C658.66,-107.73 667.06,-74.55 650,-56 632.93,-37.44 262.97,-18.16 147.87,-12.59"/>
<polygon fill="midnightblue" stroke="midnightblue" points="147.7,-9.08 137.55,-12.1 147.37,-16.07 147.7,-9.08"/>
</g>
<!-- Node4&#45;&gt;Node3 -->
<g id="edge5" class="edge">
<title>Node4&#45;&gt;Node3</title>
<path fill="none" stroke="midnightblue" d="M644.56,-123.48C638.91,-114.64 629.94,-100.59 622.84,-89.48"/>
<polygon fill="midnightblue" stroke="midnightblue" points="625.77,-87.55 617.43,-81.01 619.87,-91.32 625.77,-87.55"/>
</g>
<!-- Node6 -->
<g id="node6" class="node">
<title>Node6</title>
<g id="a_node6"><a xlink:href="../../df/d50/_a_patern_8h.html" target="_top" xlink:title=" ">
<polygon fill="white" stroke="black" points="451.5,-179.5 451.5,-198.5 518.5,-198.5 518.5,-179.5 451.5,-179.5"/>
<text text-anchor="middle" x="485" y="-186.5" font-family="Helvetica,sans-Serif" font-size="10.00">../APatern.h</text>
</a>
</g>
</g>
<!-- Node5&#45;&gt;Node6 -->
<g id="edge7" class="edge">
<title>Node5&#45;&gt;Node6</title>
<path fill="none" stroke="midnightblue" d="M475.84,-235.4C477.46,-227.38 479.51,-217.23 481.25,-208.57"/>
<polygon fill="midnightblue" stroke="midnightblue" points="484.71,-209.15 483.25,-198.66 477.85,-207.77 484.71,-209.15"/>
</g>
<!-- Node7&#45;&gt;Node2 -->
<g id="edge9" class="edge">
<title>Node7&#45;&gt;Node2</title>
<path fill="none" stroke="midnightblue" d="M267.34,-242.42C212.92,-234.83 139.33,-220.84 120,-199 77.64,-151.15 96.53,-66.61 107.79,-29.42"/>
<polygon fill="midnightblue" stroke="midnightblue" points="111.13,-30.47 110.83,-19.88 104.46,-28.34 111.13,-30.47"/>
</g>
<!-- Node7&#45;&gt;Node6 -->
<g id="edge19" class="edge">
<title>Node7&#45;&gt;Node6</title>
<path fill="none" stroke="midnightblue" d="M351.35,-240.98C377.99,-230.81 422.71,-213.76 453.01,-202.2"/>
<polygon fill="midnightblue" stroke="midnightblue" points="454.59,-205.34 462.69,-198.51 452.1,-198.8 454.59,-205.34"/>
</g>
<!-- Node8 -->
<g id="node8" class="node">
<title>Node8</title>
<g id="a_node8"><a xlink:href="../../db/d1b/_a_movable_8h.html" target="_top" xlink:title=" ">
<polygon fill="white" stroke="black" points="129.5,-179.5 129.5,-198.5 230.5,-198.5 230.5,-179.5 129.5,-179.5"/>
<text text-anchor="middle" x="180" y="-186.5" font-family="Helvetica,sans-Serif" font-size="10.00">Shmup/AMovable.h</text>
</a>
</g>
</g>
<!-- Node7&#45;&gt;Node8 -->
<g id="edge10" class="edge">
<title>Node7&#45;&gt;Node8</title>
<path fill="none" stroke="midnightblue" d="M307.65,-240.98C282.31,-230.86 239.86,-213.9 210.93,-202.35"/>
<polygon fill="midnightblue" stroke="midnightblue" points="211.89,-198.97 201.31,-198.51 209.3,-205.47 211.89,-198.97"/>
</g>
<!-- Node14 -->
<g id="node14" class="node">
<title>Node14</title>
<g id="a_node14"><a xlink:href="../../d5/d36/_collider_8h.html" target="_top" xlink:title=" ">
<polygon fill="white" stroke="black" points="354,-123.5 354,-142.5 484,-142.5 484,-123.5 354,-123.5"/>
<text text-anchor="middle" x="419" y="-130.5" font-family="Helvetica,sans-Serif" font-size="10.00">Shmup/Collision/Collider.h</text>
</a>
</g>
</g>
<!-- Node7&#45;&gt;Node14 -->
<g id="edge20" class="edge">
<title>Node7&#45;&gt;Node14</title>
<path fill="none" stroke="midnightblue" d="M349.72,-240.84C366.89,-232.59 390.57,-218.53 404,-199 413.33,-185.43 416.92,-166.88 418.28,-153.07"/>
<polygon fill="midnightblue" stroke="midnightblue" points="421.79,-153.01 418.96,-142.8 414.8,-152.55 421.79,-153.01"/>
</g>
<!-- Node16 -->
<g id="node16" class="node">
<title>Node16</title>
<g id="a_node16"><a xlink:href="../../d3/d72/_a_collidable_8h.html" target="_top" xlink:title=" ">
<polygon fill="white" stroke="black" points="249,-179.5 249,-198.5 395,-198.5 395,-179.5 249,-179.5"/>
<text text-anchor="middle" x="322" y="-186.5" font-family="Helvetica,sans-Serif" font-size="10.00">Shmup/Collision/ACollidable.h</text>
</a>
</g>
</g>
<!-- Node7&#45;&gt;Node16 -->
<g id="edge26" class="edge">
<title>Node7&#45;&gt;Node16</title>
<path fill="none" stroke="midnightblue" d="M328,-240.98C327.01,-232.58 325.47,-219.48 324.2,-208.66"/>
<polygon fill="midnightblue" stroke="midnightblue" points="327.65,-208.03 323,-198.51 320.69,-208.85 327.65,-208.03"/>
</g>
<!-- Node8&#45;&gt;Node2 -->
<g id="edge11" class="edge">
<title>Node8&#45;&gt;Node2</title>
<path fill="none" stroke="midnightblue" d="M166.08,-179.42C154.34,-171.45 138.07,-158.49 129,-143 108.1,-107.29 109.13,-56.82 111.61,-29.8"/>
<polygon fill="midnightblue" stroke="midnightblue" points="115.1,-30.09 112.71,-19.77 108.14,-29.33 115.1,-30.09"/>
</g>
<!-- Node9 -->
<g id="node9" class="node">
<title>Node9</title>
<g id="a_node9"><a xlink:href="../../d7/daf/_a_graphic_object_8h.html" target="_top" xlink:title=" ">
<polygon fill="white" stroke="black" points="138.5,-123.5 138.5,-142.5 231.5,-142.5 231.5,-123.5 138.5,-123.5"/>
<text text-anchor="middle" x="185" y="-130.5" font-family="Helvetica,sans-Serif" font-size="10.00">AGraphicObject.h</text>
</a>
</g>
</g>
<!-- Node8&#45;&gt;Node9 -->
<g id="edge12" class="edge">
<title>Node8&#45;&gt;Node9</title>
<path fill="none" stroke="midnightblue" d="M180.83,-179.08C181.48,-172.01 182.42,-161.86 183.24,-152.99"/>
<polygon fill="midnightblue" stroke="midnightblue" points="186.75,-153.03 184.19,-142.75 179.78,-152.39 186.75,-153.03"/>
</g>
<!-- Node9&#45;&gt;Node2 -->
<g id="edge13" class="edge">
<title>Node9&#45;&gt;Node2</title>
<path fill="none" stroke="midnightblue" d="M170.93,-123.41C159.05,-115.42 142.5,-102.46 133,-87 122.22,-69.47 117.55,-46.12 115.53,-29.95"/>
<polygon fill="midnightblue" stroke="midnightblue" points="118.97,-29.22 114.48,-19.63 112.01,-29.93 118.97,-29.22"/>
</g>
<!-- Node10 -->
<g id="node10" class="node">
<title>Node10</title>
<g id="a_node10"><a xlink:href="../../dc/d80/_instance_list_8h.html" target="_top" xlink:title=" ">
<polygon fill="white" stroke="black" points="274,-62 274,-81 386,-81 386,-62 274,-62"/>
<text text-anchor="middle" x="330" y="-69" font-family="Helvetica,sans-Serif" font-size="10.00">Shmup/InstanceList.h</text>
</a>
</g>
</g>
<!-- Node9&#45;&gt;Node10 -->
<g id="edge14" class="edge">
<title>Node9&#45;&gt;Node10</title>
<path fill="none" stroke="midnightblue" d="M205.77,-123.48C230.43,-113.36 271.75,-96.4 299.9,-84.85"/>
<polygon fill="midnightblue" stroke="midnightblue" points="301.34,-88.04 309.26,-81.01 298.68,-81.57 301.34,-88.04"/>
</g>
<!-- Node13 -->
<g id="node13" class="node">
<title>Node13</title>
<g id="a_node13"><a xlink:href="../../da/d02/_transform2_d_8h.html" target="_top" xlink:title=" ">
<polygon fill="white" stroke="black" points="142,-62 142,-81 256,-81 256,-62 142,-62"/>
<text text-anchor="middle" x="199" y="-69" font-family="Helvetica,sans-Serif" font-size="10.00">Shmup/Transform2D.h</text>
</a>
</g>
</g>
<!-- Node9&#45;&gt;Node13 -->
<g id="edge17" class="edge">
<title>Node9&#45;&gt;Node13</title>
<path fill="none" stroke="midnightblue" d="M187.01,-123.48C189,-114.99 192.13,-101.7 194.69,-90.82"/>
<polygon fill="midnightblue" stroke="midnightblue" points="198.11,-91.54 197,-81.01 191.3,-89.94 198.11,-91.54"/>
</g>
<!-- Node11 -->
<g id="node11" class="node">
<title>Node11</title>
<g id="a_node11"><a xlink:title=" ">
<polygon fill="white" stroke="#bfbfbf" points="303,-0.5 303,-19.5 357,-19.5 357,-0.5 303,-0.5"/>
<text text-anchor="middle" x="330" y="-7.5" font-family="Helvetica,sans-Serif" font-size="10.00">iostream</text>
</a>
</g>
</g>
<!-- Node10&#45;&gt;Node11 -->
<g id="edge15" class="edge">
<title>Node10&#45;&gt;Node11</title>
<path fill="none" stroke="midnightblue" d="M330,-61.98C330,-53.58 330,-40.48 330,-29.66"/>
<polygon fill="midnightblue" stroke="midnightblue" points="333.5,-29.51 330,-19.51 326.5,-29.51 333.5,-29.51"/>
</g>
<!-- Node12 -->
<g id="node12" class="node">
<title>Node12</title>
<g id="a_node12"><a xlink:title=" ">
<polygon fill="white" stroke="#bfbfbf" points="428,-0.5 428,-19.5 472,-19.5 472,-0.5 428,-0.5"/>
<text text-anchor="middle" x="450" y="-7.5" font-family="Helvetica,sans-Serif" font-size="10.00">vector</text>
</a>
</g>
</g>
<!-- Node10&#45;&gt;Node12 -->
<g id="edge16" class="edge">
<title>Node10&#45;&gt;Node12</title>
<path fill="none" stroke="midnightblue" d="M347.19,-61.98C367.24,-52.03 400.6,-35.49 423.86,-23.96"/>
<polygon fill="midnightblue" stroke="midnightblue" points="425.43,-27.09 432.84,-19.51 422.32,-20.82 425.43,-27.09"/>
</g>
<!-- Node13&#45;&gt;Node2 -->
<g id="edge18" class="edge">
<title>Node13&#45;&gt;Node2</title>
<path fill="none" stroke="midnightblue" d="M186.82,-61.98C173.19,-52.43 150.87,-36.81 134.53,-25.37"/>
<polygon fill="midnightblue" stroke="midnightblue" points="136.36,-22.38 126.16,-19.51 132.34,-28.11 136.36,-22.38"/>
</g>
<!-- Node14&#45;&gt;Node2 -->
<g id="edge21" class="edge">
<title>Node14&#45;&gt;Node2</title>
<path fill="none" stroke="midnightblue" d="M419.02,-123.38C418.56,-107.43 415.11,-73.35 395,-56 358.5,-24.51 214.38,-14.88 147.91,-12.08"/>
<polygon fill="midnightblue" stroke="midnightblue" points="147.69,-8.57 137.56,-11.67 147.42,-15.57 147.69,-8.57"/>
</g>
<!-- Node14&#45;&gt;Node3 -->
<g id="edge22" class="edge">
<title>Node14&#45;&gt;Node3</title>
<path fill="none" stroke="midnightblue" d="M450.76,-123.44C482.05,-114.83 531.09,-100.89 573,-87 575.4,-86.2 577.87,-85.36 580.35,-84.48"/>
<polygon fill="midnightblue" stroke="midnightblue" points="581.61,-87.75 589.82,-81.06 579.23,-81.17 581.61,-87.75"/>
</g>
<!-- Node14&#45;&gt;Node13 -->
<g id="edge23" class="edge">
<title>Node14&#45;&gt;Node13</title>
<path fill="none" stroke="midnightblue" d="M387.48,-123.48C348.76,-113 282.98,-95.21 240.26,-83.66"/>
<polygon fill="midnightblue" stroke="midnightblue" points="241.03,-80.24 230.46,-81.01 239.2,-87 241.03,-80.24"/>
</g>
<!-- Node15 -->
<g id="node15" class="node">
<title>Node15</title>
<g id="a_node15"><a xlink:href="../../de/d60/_collider_settings_8h.html" target="_top" xlink:title=" ">
<polygon fill="white" stroke="black" points="442,-56.5 442,-86.5 564,-86.5 564,-56.5 442,-56.5"/>
<text text-anchor="start" x="450" y="-74.5" font-family="Helvetica,sans-Serif" font-size="10.00">Shmup/Collision/Collider</text>
<text text-anchor="middle" x="503" y="-63.5" font-family="Helvetica,sans-Serif" font-size="10.00">Settings.h</text>
</a>
</g>
</g>
<!-- Node14&#45;&gt;Node15 -->
<g id="edge24" class="edge">
<title>Node14&#45;&gt;Node15</title>
<path fill="none" stroke="midnightblue" d="M431.04,-123.48C442.41,-115.42 459.91,-103.02 474.8,-92.47"/>
<polygon fill="midnightblue" stroke="midnightblue" points="477.07,-95.16 483.2,-86.52 473.02,-89.45 477.07,-95.16"/>
</g>
<!-- Node15&#45;&gt;Node12 -->
<g id="edge25" class="edge">
<title>Node15&#45;&gt;Node12</title>
<path fill="none" stroke="midnightblue" d="M490.44,-56.4C482.66,-47.66 472.64,-36.41 464.52,-27.3"/>
<polygon fill="midnightblue" stroke="midnightblue" points="466.98,-24.8 457.71,-19.66 461.75,-29.45 466.98,-24.8"/>
</g>
<!-- Node16&#45;&gt;Node10 -->
<g id="edge28" class="edge">
<title>Node16&#45;&gt;Node10</title>
<path fill="none" stroke="midnightblue" d="M322.6,-179.32C323.89,-160.76 326.93,-116.84 328.69,-91.47"/>
<polygon fill="midnightblue" stroke="midnightblue" points="332.19,-91.5 329.39,-81.28 325.21,-91.02 332.19,-91.5"/>
</g>
<!-- Node16&#45;&gt;Node14 -->
<g id="edge27" class="edge">
<title>Node16&#45;&gt;Node14</title>
<path fill="none" stroke="midnightblue" d="M337.58,-179.32C353,-170.74 376.81,-157.49 394.71,-147.52"/>
<polygon fill="midnightblue" stroke="midnightblue" points="396.42,-150.58 403.45,-142.65 393.01,-144.46 396.42,-150.58"/>
</g>
</g>
</svg>
