<?xml version="1.0" encoding="UTF-8" standalone="no"?>
<!DOCTYPE svg PUBLIC "-//W3C//DTD SVG 1.1//EN"
 "http://www.w3.org/Graphics/SVG/1.1/DTD/svg11.dtd">
<!-- Generated by graphviz version 2.49.3 (20211027.1534)
 -->
<!-- Title: RayLib_SHMUP/src/Shmup/Explosion.cpp Pages: 1 -->
<svg width="408pt" height="263pt"
 viewBox="0.00 0.00 408.00 263.00" xmlns="http://www.w3.org/2000/svg" xmlns:xlink="http://www.w3.org/1999/xlink">
<g id="graph0" class="graph" transform="scale(1 1) rotate(0) translate(4 259)">
<title>RayLib_SHMUP/src/Shmup/Explosion.cpp</title>
<polygon fill="white" stroke="transparent" points="-4,4 -4,-259 404,-259 404,4 -4,4"/>
<!-- Node1 -->
<g id="node1" class="node">
<title>Node1</title>
<g id="a_node1"><a xlink:title=" ">
<polygon fill="#bfbfbf" stroke="black" points="108.5,-224.5 108.5,-254.5 247.5,-254.5 247.5,-224.5 108.5,-224.5"/>
<text text-anchor="start" x="116.5" y="-242.5" font-family="Helvetica,sans-Serif" font-size="10.00">RayLib_SHMUP/src/Shmup</text>
<text text-anchor="middle" x="178" y="-231.5" font-family="Helvetica,sans-Serif" font-size="10.00">/Explosion.cpp</text>
</a>
</g>
</g>
<!-- Node2 -->
<g id="node2" class="node">
<title>Node2</title>
<g id="a_node2"><a xlink:href="../../dc/da7/_files_8h.html" target="_top" xlink:title=" ">
<polygon fill="white" stroke="black" points="0,-168.5 0,-187.5 106,-187.5 106,-168.5 0,-168.5"/>
<text text-anchor="middle" x="53" y="-175.5" font-family="Helvetica,sans-Serif" font-size="10.00">Namespaces/Files.h</text>
</a>
</g>
</g>
<!-- Node1&#45;&gt;Node2 -->
<g id="edge1" class="edge">
<title>Node1&#45;&gt;Node2</title>
<path fill="none" stroke="midnightblue" d="M148.38,-224.4C127.78,-214.59 100.52,-201.62 80.42,-192.05"/>
<polygon fill="midnightblue" stroke="midnightblue" points="81.72,-188.8 71.19,-187.66 78.71,-195.12 81.72,-188.8"/>
</g>
<!-- Node4 -->
<g id="node4" class="node">
<title>Node4</title>
<g id="a_node4"><a xlink:href="../../d9/dee/_explosion_8h.html" target="_top" xlink:title=" ">
<polygon fill="white" stroke="black" points="128.5,-168.5 128.5,-187.5 227.5,-187.5 227.5,-168.5 128.5,-168.5"/>
<text text-anchor="middle" x="178" y="-175.5" font-family="Helvetica,sans-Serif" font-size="10.00">Shmup/Explosion.h</text>
</a>
</g>
</g>
<!-- Node1&#45;&gt;Node4 -->
<g id="edge3" class="edge">
<title>Node1&#45;&gt;Node4</title>
<path fill="none" stroke="midnightblue" d="M178,-224.4C178,-216.47 178,-206.46 178,-197.86"/>
<polygon fill="midnightblue" stroke="midnightblue" points="181.5,-197.66 178,-187.66 174.5,-197.66 181.5,-197.66"/>
</g>
<!-- Node10 -->
<g id="node10" class="node">
<title>Node10</title>
<g id="a_node10"><a xlink:href="../../d5/daf/_game_status_8h.html" target="_top" xlink:title=" ">
<polygon fill="white" stroke="black" points="260,-112.5 260,-131.5 400,-131.5 400,-112.5 260,-112.5"/>
<text text-anchor="middle" x="330" y="-119.5" font-family="Helvetica,sans-Serif" font-size="10.00">Namespaces/GameStatus.h</text>
</a>
</g>
</g>
<!-- Node1&#45;&gt;Node10 -->
<g id="edge13" class="edge">
<title>Node1&#45;&gt;Node10</title>
<path fill="none" stroke="midnightblue" d="M196.64,-224.34C225.52,-202.39 280.82,-160.37 310.32,-137.95"/>
<polygon fill="midnightblue" stroke="midnightblue" points="312.75,-140.51 318.59,-131.67 308.51,-134.93 312.75,-140.51"/>
</g>
<!-- Node3 -->
<g id="node3" class="node">
<title>Node3</title>
<g id="a_node3"><a xlink:title=" ">
<polygon fill="white" stroke="#bfbfbf" points="81.5,-0.5 81.5,-19.5 128.5,-19.5 128.5,-0.5 81.5,-0.5"/>
<text text-anchor="middle" x="105" y="-7.5" font-family="Helvetica,sans-Serif" font-size="10.00">raylib.h</text>
</a>
</g>
</g>
<!-- Node2&#45;&gt;Node3 -->
<g id="edge2" class="edge">
<title>Node2&#45;&gt;Node3</title>
<path fill="none" stroke="midnightblue" d="M52.98,-168.41C53.21,-148.07 55.5,-95.66 72,-56 76.32,-45.62 83.5,-35.41 90.06,-27.34"/>
<polygon fill="midnightblue" stroke="midnightblue" points="92.92,-29.39 96.78,-19.52 87.61,-24.83 92.92,-29.39"/>
</g>
<!-- Node4&#45;&gt;Node3 -->
<g id="edge4" class="edge">
<title>Node4&#45;&gt;Node3</title>
<path fill="none" stroke="midnightblue" d="M152.54,-168.45C136.08,-161.44 115.93,-149.75 106,-132 87.94,-99.73 94.24,-54.62 99.95,-29.59"/>
<polygon fill="midnightblue" stroke="midnightblue" points="103.41,-30.18 102.43,-19.63 96.62,-28.48 103.41,-30.18"/>
</g>
<!-- Node5 -->
<g id="node5" class="node">
<title>Node5</title>
<g id="a_node5"><a xlink:href="../../d7/daf/_a_graphic_object_8h.html" target="_top" xlink:title=" ">
<polygon fill="white" stroke="black" points="114.5,-112.5 114.5,-131.5 241.5,-131.5 241.5,-112.5 114.5,-112.5"/>
<text text-anchor="middle" x="178" y="-119.5" font-family="Helvetica,sans-Serif" font-size="10.00">Shmup/AGraphicObject.h</text>
</a>
</g>
</g>
<!-- Node4&#45;&gt;Node5 -->
<g id="edge5" class="edge">
<title>Node4&#45;&gt;Node5</title>
<path fill="none" stroke="midnightblue" d="M178,-168.08C178,-161.01 178,-150.86 178,-141.99"/>
<polygon fill="midnightblue" stroke="midnightblue" points="181.5,-141.75 178,-131.75 174.5,-141.75 181.5,-141.75"/>
</g>
<!-- Node4&#45;&gt;Node10 -->
<g id="edge12" class="edge">
<title>Node4&#45;&gt;Node10</title>
<path fill="none" stroke="midnightblue" d="M202.08,-168.44C227.54,-159.4 267.89,-145.06 296.46,-134.92"/>
<polygon fill="midnightblue" stroke="midnightblue" points="297.78,-138.16 306.03,-131.52 295.43,-131.57 297.78,-138.16"/>
</g>
<!-- Node5&#45;&gt;Node3 -->
<g id="edge6" class="edge">
<title>Node5&#45;&gt;Node3</title>
<path fill="none" stroke="midnightblue" d="M170.67,-112.29C163.33,-103.41 151.88,-89.11 143,-76 132.49,-60.47 121.83,-41.94 114.48,-28.64"/>
<polygon fill="midnightblue" stroke="midnightblue" points="117.43,-26.74 109.57,-19.63 111.29,-30.09 117.43,-26.74"/>
</g>
<!-- Node6 -->
<g id="node6" class="node">
<title>Node6</title>
<g id="a_node6"><a xlink:href="../../dc/d80/_instance_list_8h.html" target="_top" xlink:title=" ">
<polygon fill="white" stroke="black" points="284,-56.5 284,-75.5 396,-75.5 396,-56.5 284,-56.5"/>
<text text-anchor="middle" x="340" y="-63.5" font-family="Helvetica,sans-Serif" font-size="10.00">Shmup/InstanceList.h</text>
</a>
</g>
</g>
<!-- Node5&#45;&gt;Node6 -->
<g id="edge7" class="edge">
<title>Node5&#45;&gt;Node6</title>
<path fill="none" stroke="midnightblue" d="M203.67,-112.44C230.92,-103.36 274.18,-88.94 304.65,-78.78"/>
<polygon fill="midnightblue" stroke="midnightblue" points="306.07,-82 314.45,-75.52 303.86,-75.36 306.07,-82"/>
</g>
<!-- Node9 -->
<g id="node9" class="node">
<title>Node9</title>
<g id="a_node9"><a xlink:href="../../da/d02/_transform2_d_8h.html" target="_top" xlink:title=" ">
<polygon fill="white" stroke="black" points="152,-56.5 152,-75.5 266,-75.5 266,-56.5 152,-56.5"/>
<text text-anchor="middle" x="209" y="-63.5" font-family="Helvetica,sans-Serif" font-size="10.00">Shmup/Transform2D.h</text>
</a>
</g>
</g>
<!-- Node5&#45;&gt;Node9 -->
<g id="edge10" class="edge">
<title>Node5&#45;&gt;Node9</title>
<path fill="none" stroke="midnightblue" d="M183.12,-112.08C187.41,-104.61 193.66,-93.72 198.94,-84.52"/>
<polygon fill="midnightblue" stroke="midnightblue" points="202.03,-86.17 203.98,-75.75 195.96,-82.68 202.03,-86.17"/>
</g>
<!-- Node7 -->
<g id="node7" class="node">
<title>Node7</title>
<g id="a_node7"><a xlink:title=" ">
<polygon fill="white" stroke="#bfbfbf" points="279,-0.5 279,-19.5 333,-19.5 333,-0.5 279,-0.5"/>
<text text-anchor="middle" x="306" y="-7.5" font-family="Helvetica,sans-Serif" font-size="10.00">iostream</text>
</a>
</g>
</g>
<!-- Node6&#45;&gt;Node7 -->
<g id="edge8" class="edge">
<title>Node6&#45;&gt;Node7</title>
<path fill="none" stroke="midnightblue" d="M334.39,-56.08C329.63,-48.53 322.68,-37.49 316.85,-28.23"/>
<polygon fill="midnightblue" stroke="midnightblue" points="319.8,-26.35 311.51,-19.75 313.88,-30.08 319.8,-26.35"/>
</g>
<!-- Node8 -->
<g id="node8" class="node">
<title>Node8</title>
<g id="a_node8"><a xlink:title=" ">
<polygon fill="white" stroke="#bfbfbf" points="351,-0.5 351,-19.5 395,-19.5 395,-0.5 351,-0.5"/>
<text text-anchor="middle" x="373" y="-7.5" font-family="Helvetica,sans-Serif" font-size="10.00">vector</text>
</a>
</g>
</g>
<!-- Node6&#45;&gt;Node8 -->
<g id="edge9" class="edge">
<title>Node6&#45;&gt;Node8</title>
<path fill="none" stroke="midnightblue" d="M345.45,-56.08C350.01,-48.61 356.67,-37.72 362.29,-28.52"/>
<polygon fill="midnightblue" stroke="midnightblue" points="365.42,-30.11 367.65,-19.75 359.45,-26.46 365.42,-30.11"/>
</g>
<!-- Node9&#45;&gt;Node3 -->
<g id="edge11" class="edge">
<title>Node9&#45;&gt;Node3</title>
<path fill="none" stroke="midnightblue" d="M192.29,-56.32C175.69,-47.7 150,-34.36 130.78,-24.39"/>
<polygon fill="midnightblue" stroke="midnightblue" points="132.16,-21.16 121.67,-19.65 128.93,-27.37 132.16,-21.16"/>
</g>
</g>
</svg>
