<?xml version="1.0" encoding="UTF-8" standalone="no"?>
<!DOCTYPE svg PUBLIC "-//W3C//DTD SVG 1.1//EN"
 "http://www.w3.org/Graphics/SVG/1.1/DTD/svg11.dtd">
<!-- Generated by graphviz version 2.49.3 (20211027.1534)
 -->
<!-- Title: RayLib_SHMUP/src/Shmup/Explosion.cpp Pages: 1 -->
<svg width="452pt" height="263pt"
 viewBox="0.00 0.00 452.00 263.00" xmlns="http://www.w3.org/2000/svg" xmlns:xlink="http://www.w3.org/1999/xlink">
<g id="graph0" class="graph" transform="scale(1 1) rotate(0) translate(4 259)">
<title>RayLib_SHMUP/src/Shmup/Explosion.cpp</title>
<polygon fill="white" stroke="transparent" points="-4,4 -4,-259 448,-259 448,4 -4,4"/>
<!-- Node1 -->
<g id="node1" class="node">
<title>Node1</title>
<g id="a_node1"><a xlink:title=" ">
<polygon fill="#bfbfbf" stroke="black" points="24.5,-224.5 24.5,-254.5 163.5,-254.5 163.5,-224.5 24.5,-224.5"/>
<text text-anchor="start" x="32.5" y="-242.5" font-family="Helvetica,sans-Serif" font-size="10.00">RayLib_SHMUP/src/Shmup</text>
<text text-anchor="middle" x="94" y="-231.5" font-family="Helvetica,sans-Serif" font-size="10.00">/Explosion.cpp</text>
</a>
</g>
</g>
<!-- Node2 -->
<g id="node2" class="node">
<title>Node2</title>
<g id="a_node2"><a xlink:href="../../dc/da7/_files_8h.html" target="_top" xlink:title=" ">
<polygon fill="white" stroke="black" points="0,-112.5 0,-131.5 106,-131.5 106,-112.5 0,-112.5"/>
<text text-anchor="middle" x="53" y="-119.5" font-family="Helvetica,sans-Serif" font-size="10.00">Namespaces/Files.h</text>
</a>
</g>
</g>
<!-- Node1&#45;&gt;Node2 -->
<g id="edge1" class="edge">
<title>Node1&#45;&gt;Node2</title>
<path fill="none" stroke="midnightblue" d="M88.55,-224.4C84.68,-214.3 79.41,-200.35 75,-188 69.43,-172.4 63.42,-154.57 59.09,-141.53"/>
<polygon fill="midnightblue" stroke="midnightblue" points="62.36,-140.26 55.9,-131.86 55.71,-142.46 62.36,-140.26"/>
</g>
<!-- Node4 -->
<g id="node4" class="node">
<title>Node4</title>
<g id="a_node4"><a xlink:href="../../d9/dee/_explosion_8h.html" target="_top" xlink:title=" ">
<polygon fill="white" stroke="black" points="84.5,-168.5 84.5,-187.5 183.5,-187.5 183.5,-168.5 84.5,-168.5"/>
<text text-anchor="middle" x="134" y="-175.5" font-family="Helvetica,sans-Serif" font-size="10.00">Shmup/Explosion.h</text>
</a>
</g>
</g>
<!-- Node1&#45;&gt;Node4 -->
<g id="edge3" class="edge">
<title>Node1&#45;&gt;Node4</title>
<path fill="none" stroke="midnightblue" d="M103.48,-224.4C109.17,-215.93 116.45,-205.1 122.48,-196.14"/>
<polygon fill="midnightblue" stroke="midnightblue" points="125.51,-197.91 128.18,-187.66 119.7,-194 125.51,-197.91"/>
</g>
<!-- Node3 -->
<g id="node3" class="node">
<title>Node3</title>
<g id="a_node3"><a xlink:title=" ">
<polygon fill="white" stroke="#bfbfbf" points="129.5,-0.5 129.5,-19.5 176.5,-19.5 176.5,-0.5 129.5,-0.5"/>
<text text-anchor="middle" x="153" y="-7.5" font-family="Helvetica,sans-Serif" font-size="10.00">raylib.h</text>
</a>
</g>
</g>
<!-- Node2&#45;&gt;Node3 -->
<g id="edge2" class="edge">
<title>Node2&#45;&gt;Node3</title>
<path fill="none" stroke="midnightblue" d="M60.85,-112.37C77.57,-93.97 116.94,-50.67 138.41,-27.05"/>
<polygon fill="midnightblue" stroke="midnightblue" points="141.05,-29.35 145.19,-19.59 135.87,-24.64 141.05,-29.35"/>
</g>
<!-- Node4&#45;&gt;Node3 -->
<g id="edge4" class="edge">
<title>Node4&#45;&gt;Node3</title>
<path fill="none" stroke="midnightblue" d="M135.02,-168.08C138.01,-141.95 146.8,-65.21 150.87,-29.58"/>
<polygon fill="midnightblue" stroke="midnightblue" points="154.36,-29.9 152.02,-19.57 147.4,-29.11 154.36,-29.9"/>
</g>
<!-- Node5 -->
<g id="node5" class="node">
<title>Node5</title>
<g id="a_node5"><a xlink:href="../../d7/daf/_a_graphic_object_8h.html" target="_top" xlink:title=" ">
<polygon fill="white" stroke="black" points="178.5,-112.5 178.5,-131.5 305.5,-131.5 305.5,-112.5 178.5,-112.5"/>
<text text-anchor="middle" x="242" y="-119.5" font-family="Helvetica,sans-Serif" font-size="10.00">Shmup/AGraphicObject.h</text>
</a>
</g>
</g>
<!-- Node4&#45;&gt;Node5 -->
<g id="edge5" class="edge">
<title>Node4&#45;&gt;Node5</title>
<path fill="none" stroke="midnightblue" d="M151.35,-168.32C168.67,-159.66 195.52,-146.24 215.5,-136.25"/>
<polygon fill="midnightblue" stroke="midnightblue" points="217.31,-139.26 224.69,-131.65 214.18,-133 217.31,-139.26"/>
</g>
<!-- Node5&#45;&gt;Node3 -->
<g id="edge6" class="edge">
<title>Node5&#45;&gt;Node3</title>
<path fill="none" stroke="midnightblue" d="M230.09,-112.28C219.08,-103.82 202.7,-90.23 191,-76 178.96,-61.36 168.36,-42.45 161.44,-28.8"/>
<polygon fill="midnightblue" stroke="midnightblue" points="164.45,-26.98 156.9,-19.55 158.16,-30.07 164.45,-26.98"/>
</g>
<!-- Node6 -->
<g id="node6" class="node">
<title>Node6</title>
<g id="a_node6"><a xlink:href="../../dc/d80/_instance_list_8h.html" target="_top" xlink:title=" ">
<polygon fill="white" stroke="black" points="332,-56.5 332,-75.5 444,-75.5 444,-56.5 332,-56.5"/>
<text text-anchor="middle" x="388" y="-63.5" font-family="Helvetica,sans-Serif" font-size="10.00">Shmup/InstanceList.h</text>
</a>
</g>
</g>
<!-- Node5&#45;&gt;Node6 -->
<g id="edge7" class="edge">
<title>Node5&#45;&gt;Node6</title>
<path fill="none" stroke="midnightblue" d="M265.13,-112.44C289.48,-103.44 328.01,-89.19 355.42,-79.05"/>
<polygon fill="midnightblue" stroke="midnightblue" points="356.81,-82.27 364.97,-75.52 354.38,-75.7 356.81,-82.27"/>
</g>
<!-- Node9 -->
<g id="node9" class="node">
<title>Node9</title>
<g id="a_node9"><a xlink:href="../../da/d02/_transform2_d_8h.html" target="_top" xlink:title=" ">
<polygon fill="white" stroke="black" points="200,-56.5 200,-75.5 314,-75.5 314,-56.5 200,-56.5"/>
<text text-anchor="middle" x="257" y="-63.5" font-family="Helvetica,sans-Serif" font-size="10.00">Shmup/Transform2D.h</text>
</a>
</g>
</g>
<!-- Node5&#45;&gt;Node9 -->
<g id="edge10" class="edge">
<title>Node5&#45;&gt;Node9</title>
<path fill="none" stroke="midnightblue" d="M244.48,-112.08C246.49,-104.85 249.39,-94.41 251.89,-85.4"/>
<polygon fill="midnightblue" stroke="midnightblue" points="255.26,-86.32 254.57,-75.75 248.52,-84.45 255.26,-86.32"/>
</g>
<!-- Node7 -->
<g id="node7" class="node">
<title>Node7</title>
<g id="a_node7"><a xlink:title=" ">
<polygon fill="white" stroke="#bfbfbf" points="327,-0.5 327,-19.5 381,-19.5 381,-0.5 327,-0.5"/>
<text text-anchor="middle" x="354" y="-7.5" font-family="Helvetica,sans-Serif" font-size="10.00">iostream</text>
</a>
</g>
</g>
<!-- Node6&#45;&gt;Node7 -->
<g id="edge8" class="edge">
<title>Node6&#45;&gt;Node7</title>
<path fill="none" stroke="midnightblue" d="M382.39,-56.08C377.63,-48.53 370.68,-37.49 364.85,-28.23"/>
<polygon fill="midnightblue" stroke="midnightblue" points="367.8,-26.35 359.51,-19.75 361.88,-30.08 367.8,-26.35"/>
</g>
<!-- Node8 -->
<g id="node8" class="node">
<title>Node8</title>
<g id="a_node8"><a xlink:title=" ">
<polygon fill="white" stroke="#bfbfbf" points="399,-0.5 399,-19.5 443,-19.5 443,-0.5 399,-0.5"/>
<text text-anchor="middle" x="421" y="-7.5" font-family="Helvetica,sans-Serif" font-size="10.00">vector</text>
</a>
</g>
</g>
<!-- Node6&#45;&gt;Node8 -->
<g id="edge9" class="edge">
<title>Node6&#45;&gt;Node8</title>
<path fill="none" stroke="midnightblue" d="M393.45,-56.08C398.01,-48.61 404.67,-37.72 410.29,-28.52"/>
<polygon fill="midnightblue" stroke="midnightblue" points="413.42,-30.11 415.65,-19.75 407.45,-26.46 413.42,-30.11"/>
</g>
<!-- Node9&#45;&gt;Node3 -->
<g id="edge11" class="edge">
<title>Node9&#45;&gt;Node3</title>
<path fill="none" stroke="midnightblue" d="M240.29,-56.32C223.69,-47.7 198,-34.36 178.78,-24.39"/>
<polygon fill="midnightblue" stroke="midnightblue" points="180.16,-21.16 169.67,-19.65 176.93,-27.37 180.16,-21.16"/>
</g>
</g>
</svg>
