<?xml version="1.0" encoding="UTF-8" standalone="no"?>
<!DOCTYPE svg PUBLIC "-//W3C//DTD SVG 1.1//EN"
 "http://www.w3.org/Graphics/SVG/1.1/DTD/svg11.dtd">
<!-- Generated by graphviz version 2.49.3 (20211027.1534)
 -->
<!-- Title: RayLib_SHMUP/include/Namespaces/Utils.h Pages: 1 -->
<svg width="511pt" height="173pt"
 viewBox="0.00 0.00 510.50 173.00" xmlns="http://www.w3.org/2000/svg" xmlns:xlink="http://www.w3.org/1999/xlink">
<g id="graph0" class="graph" transform="scale(1 1) rotate(0) translate(4 169)">
<title>RayLib_SHMUP/include/Namespaces/Utils.h</title>
<polygon fill="white" stroke="transparent" points="-4,4 -4,-169 506.5,-169 506.5,4 -4,4"/>
<!-- Node1 -->
<g id="node1" class="node">
<title>Node1</title>
<g id="a_node1"><a xlink:title=" ">
<polygon fill="#bfbfbf" stroke="black" points="180,-134.5 180,-164.5 302,-164.5 302,-134.5 180,-134.5"/>
<text text-anchor="start" x="188" y="-152.5" font-family="Helvetica,sans-Serif" font-size="10.00">RayLib_SHMUP/include</text>
<text text-anchor="middle" x="241" y="-141.5" font-family="Helvetica,sans-Serif" font-size="10.00">/Namespaces/Utils.h</text>
</a>
</g>
</g>
<!-- Node2 -->
<g id="node2" class="node">
<title>Node2</title>
<g id="a_node2"><a xlink:href="../../de/d40/_parser_8h.html" target="_top" xlink:title=" ">
<polygon fill="white" stroke="black" points="180,-67.5 180,-97.5 302,-97.5 302,-67.5 180,-67.5"/>
<text text-anchor="start" x="188" y="-85.5" font-family="Helvetica,sans-Serif" font-size="10.00">RayLib_SHMUP/include</text>
<text text-anchor="middle" x="241" y="-74.5" font-family="Helvetica,sans-Serif" font-size="10.00">/Namespaces/Parser.h</text>
</a>
</g>
</g>
<!-- Node1&#45;&gt;Node2 -->
<g id="edge1" class="edge">
<title>Node1&#45;&gt;Node2</title>
<path fill="none" stroke="midnightblue" d="M241,-124.11C241,-115.15 241,-105.32 241,-97.58"/>
<polygon fill="midnightblue" stroke="midnightblue" points="237.5,-124.4 241,-134.4 244.5,-124.4 237.5,-124.4"/>
</g>
<!-- Node3 -->
<g id="node3" class="node">
<title>Node3</title>
<g id="a_node3"><a xlink:href="../../de/df6/_parser_8cpp.html" target="_top" xlink:title=" ">
<polygon fill="white" stroke="black" points="0,-0.5 0,-30.5 166,-30.5 166,-0.5 0,-0.5"/>
<text text-anchor="start" x="8" y="-18.5" font-family="Helvetica,sans-Serif" font-size="10.00">RayLib_SHMUP/src/Namespaces</text>
<text text-anchor="middle" x="83" y="-7.5" font-family="Helvetica,sans-Serif" font-size="10.00">/Parser.cpp</text>
</a>
</g>
</g>
<!-- Node1&#45;&gt;Node3 -->
<g id="edge5" class="edge">
<title>Node1&#45;&gt;Node3</title>
<path fill="none" stroke="midnightblue" d="M211.56,-128.47C198.82,-119.49 183.91,-108.57 171,-98 143.77,-75.71 114.14,-47.33 97.15,-30.62"/>
<polygon fill="midnightblue" stroke="midnightblue" points="209.78,-131.49 219.98,-134.34 213.78,-125.75 209.78,-131.49"/>
</g>
<!-- Node6 -->
<g id="node6" class="node">
<title>Node6</title>
<g id="a_node6"><a xlink:href="../../d6/dad/_utils_8cpp.html" target="_top" xlink:title=" ">
<polygon fill="white" stroke="black" points="320,-67.5 320,-97.5 486,-97.5 486,-67.5 320,-67.5"/>
<text text-anchor="start" x="328" y="-85.5" font-family="Helvetica,sans-Serif" font-size="10.00">RayLib_SHMUP/src/Namespaces</text>
<text text-anchor="middle" x="403" y="-74.5" font-family="Helvetica,sans-Serif" font-size="10.00">/Utils.cpp</text>
</a>
</g>
</g>
<!-- Node1&#45;&gt;Node6 -->
<g id="edge6" class="edge">
<title>Node1&#45;&gt;Node6</title>
<path fill="none" stroke="midnightblue" d="M285.75,-130.54C311.67,-120.14 343.84,-107.24 367.92,-97.58"/>
<polygon fill="midnightblue" stroke="midnightblue" points="284.13,-127.42 276.15,-134.4 286.74,-133.92 284.13,-127.42"/>
</g>
<!-- Node2&#45;&gt;Node3 -->
<g id="edge2" class="edge">
<title>Node2&#45;&gt;Node3</title>
<path fill="none" stroke="midnightblue" d="M197.35,-63.54C172.07,-53.14 140.7,-40.24 117.22,-30.58"/>
<polygon fill="midnightblue" stroke="midnightblue" points="196.14,-66.83 206.72,-67.4 198.8,-60.35 196.14,-66.83"/>
</g>
<!-- Node4 -->
<g id="node4" class="node">
<title>Node4</title>
<g id="a_node4"><a xlink:href="../../d5/d58/_patern_editor_main_8cpp.html" target="_top" xlink:title=" ">
<polygon fill="white" stroke="black" points="184.5,-0.5 184.5,-30.5 345.5,-30.5 345.5,-0.5 184.5,-0.5"/>
<text text-anchor="start" x="192.5" y="-18.5" font-family="Helvetica,sans-Serif" font-size="10.00">RayLib_SHMUP/src/PaternEditor</text>
<text text-anchor="middle" x="265" y="-7.5" font-family="Helvetica,sans-Serif" font-size="10.00">Main.cpp</text>
</a>
</g>
</g>
<!-- Node2&#45;&gt;Node4 -->
<g id="edge3" class="edge">
<title>Node2&#45;&gt;Node4</title>
<path fill="none" stroke="midnightblue" d="M249.68,-57.99C253.07,-48.8 256.85,-38.58 259.8,-30.58"/>
<polygon fill="midnightblue" stroke="midnightblue" points="246.39,-56.8 246.21,-67.4 252.95,-59.23 246.39,-56.8"/>
</g>
<!-- Node5 -->
<g id="node5" class="node">
<title>Node5</title>
<g id="a_node5"><a xlink:href="../../df/dd2/_level_manager_8cpp.html" target="_top" xlink:title=" ">
<polygon fill="white" stroke="black" points="363.5,-0.5 363.5,-30.5 502.5,-30.5 502.5,-0.5 363.5,-0.5"/>
<text text-anchor="start" x="371.5" y="-18.5" font-family="Helvetica,sans-Serif" font-size="10.00">RayLib_SHMUP/src/Shmup</text>
<text text-anchor="middle" x="433" y="-7.5" font-family="Helvetica,sans-Serif" font-size="10.00">/LevelManager.cpp</text>
</a>
</g>
</g>
<!-- Node2&#45;&gt;Node5 -->
<g id="edge4" class="edge">
<title>Node2&#45;&gt;Node5</title>
<path fill="none" stroke="midnightblue" d="M292.42,-64.09C323.42,-53.6 362.38,-40.41 391.42,-30.58"/>
<polygon fill="midnightblue" stroke="midnightblue" points="291.01,-60.87 282.66,-67.4 293.26,-67.5 291.01,-60.87"/>
</g>
</g>
</svg>
