<?xml version="1.0" encoding="UTF-8" standalone="no"?>
<!DOCTYPE svg PUBLIC "-//W3C//DTD SVG 1.1//EN"
 "http://www.w3.org/Graphics/SVG/1.1/DTD/svg11.dtd">
<!-- Generated by graphviz version 2.49.3 (20211027.1534)
 -->
<!-- Title: RayLib_SHMUP/src/Shmup/Paterns/Shoot/PaternVSpread.cpp Pages: 1 -->
<!--zoomable 341 -->
<svg id="main" version="1.1" xmlns="http://www.w3.org/2000/svg" xmlns:xlink="http://www.w3.org/1999/xlink" xml:space="preserve" onload="init(evt)">
<style type="text/css"><![CDATA[
.edge:hover path { stroke: red; }
.edge:hover polygon { stroke: red; fill: red; }
]]></style>
<script type="text/javascript"><![CDATA[
var edges = document.getElementsByTagName('g');
if (edges && edges.length) {
  for (var i=0;i<edges.length;i++) {
    if (edges[i].id.substr(0,4)=='edge') {
      edges[i].setAttribute('class','edge');
    }
  }
}
]]></script>
        <defs>
                <circle id="rim" cx="0" cy="0" r="7"/>
                <circle id="rim2" cx="0" cy="0" r="3.5"/>
                <g id="zoomPlus">
                        <use xlink:href="#rim" fill="#404040">
                                <set attributeName="fill" to="#808080" begin="zoomplus.mouseover" end="zoomplus.mouseout"/>
                        </use>
                        <path d="M-4,0h8M0,-4v8" fill="none" stroke="white" stroke-width="1.5" pointer-events="none"/>
                </g>
                <g id="zoomMin">
                        <use xlink:href="#rim" fill="#404040">
                                <set attributeName="fill" to="#808080" begin="zoomminus.mouseover" end="zoomminus.mouseout"/>
                        </use>
                        <path d="M-4,0h8" fill="none" stroke="white" stroke-width="1.5" pointer-events="none"/>
                </g>
                <g id="dirArrow">
                        <path fill="none" stroke="white" stroke-width="1.5" d="M0,-3.0v7 M-2.5,-0.5L0,-3.0L2.5,-0.5"/>
                </g>
               <g id="resetDef">
                       <use xlink:href="#rim2" fill="#404040">
                               <set attributeName="fill" to="#808080" begin="reset.mouseover" end="reset.mouseout"/>
                       </use>
               </g>
        </defs>

<script type="text/javascript">
var viewWidth = 1030;
var viewHeight = 341;
var sectionId = 'dynsection-0';
</script>
<script xlink:href="../../svgpan.js"/>
<svg id="graph" class="graph">
<g id="viewport">
<title>RayLib_SHMUP/src/Shmup/Paterns/Shoot/PaternVSpread.cpp</title>
<polygon fill="white" stroke="transparent" points="-4,4 -4,-337 1026,-337 1026,4 -4,4"/>
<!-- Node1 -->
<g id="node1" class="node">
<title>Node1</title>
<g id="a_node1"><a xlink:title=" ">
<polygon fill="#bfbfbf" stroke="black" points="197.5,-302.5 197.5,-332.5 366.5,-332.5 366.5,-302.5 197.5,-302.5"/>
<text text-anchor="start" x="205.5" y="-320.5" font-family="Helvetica,sans-Serif" font-size="10.00">RayLib_SHMUP/src/Shmup</text>
<text text-anchor="middle" x="282" y="-309.5" font-family="Helvetica,sans-Serif" font-size="10.00">/Paterns/Shoot/PaternVSpread.cpp</text>
</a>
</g>
</g>
<!-- Node2 -->
<g id="node2" class="node">
<title>Node2</title>
<g id="a_node2"><a xlink:title=" ">
<polygon fill="white" stroke="#bfbfbf" points="510.5,-0.5 510.5,-19.5 557.5,-19.5 557.5,-0.5 510.5,-0.5"/>
<text text-anchor="middle" x="534" y="-7.5" font-family="Helvetica,sans-Serif" font-size="10.00">raylib.h</text>
</a>
</g>
</g>
<!-- Node1&#45;&gt;Node2 -->
<g id="edge1" class="edge">
<title>Node1&#45;&gt;Node2</title>
<path fill="none" stroke="midnightblue" d="M197.39,-313.17C114.33,-304.83 0,-277.46 0,-190 0,-190 0,-190 0,-132 0,-28.99 382.75,-13.67 500.16,-11.4"/>
<polygon fill="midnightblue" stroke="midnightblue" points="500.43,-14.89 510.37,-11.22 500.31,-7.89 500.43,-14.89"/>
</g>
<!-- Node3 -->
<g id="node3" class="node">
<title>Node3</title>
<g id="a_node3"><a xlink:title=" ">
<polygon fill="white" stroke="#bfbfbf" points="67.5,-179.5 67.5,-198.5 126.5,-198.5 126.5,-179.5 67.5,-179.5"/>
<text text-anchor="middle" x="97" y="-186.5" font-family="Helvetica,sans-Serif" font-size="10.00">raymath.h</text>
</a>
</g>
</g>
<!-- Node1&#45;&gt;Node3 -->
<g id="edge2" class="edge">
<title>Node1&#45;&gt;Node3</title>
<path fill="none" stroke="midnightblue" d="M197.26,-308.42C141.1,-301.12 74.64,-288.03 57,-266 41.95,-247.19 61.83,-221.85 78.54,-205.72"/>
<polygon fill="midnightblue" stroke="midnightblue" points="81.3,-207.94 86.32,-198.61 76.58,-202.77 81.3,-207.94"/>
</g>
<!-- Node4 -->
<g id="node4" class="node">
<title>Node4</title>
<g id="a_node4"><a xlink:href="../../d2/da5/_math_utils_8h.html" target="_top" xlink:title=" ">
<polygon fill="white" stroke="black" points="66.5,-241 66.5,-260 193.5,-260 193.5,-241 66.5,-241"/>
<text text-anchor="middle" x="130" y="-248" font-family="Helvetica,sans-Serif" font-size="10.00">Namespaces/MathUtils.h</text>
</a>
</g>
</g>
<!-- Node1&#45;&gt;Node4 -->
<g id="edge3" class="edge">
<title>Node1&#45;&gt;Node4</title>
<path fill="none" stroke="midnightblue" d="M249.02,-302.4C222.23,-290.94 184.81,-274.94 159.12,-263.95"/>
<polygon fill="midnightblue" stroke="midnightblue" points="160.46,-260.72 149.89,-260.01 157.71,-267.16 160.46,-260.72"/>
</g>
<!-- Node5 -->
<g id="node5" class="node">
<title>Node5</title>
<g id="a_node5"><a xlink:href="../../d5/daf/_game_status_8h.html" target="_top" xlink:title=" ">
<polygon fill="white" stroke="black" points="212,-241 212,-260 352,-260 352,-241 212,-241"/>
<text text-anchor="middle" x="282" y="-248" font-family="Helvetica,sans-Serif" font-size="10.00">Namespaces/GameStatus.h</text>
</a>
</g>
</g>
<!-- Node1&#45;&gt;Node5 -->
<g id="edge6" class="edge">
<title>Node1&#45;&gt;Node5</title>
<path fill="none" stroke="midnightblue" d="M282,-302.4C282,-293.06 282,-280.71 282,-270.52"/>
<polygon fill="midnightblue" stroke="midnightblue" points="285.5,-270.19 282,-260.19 278.5,-270.19 285.5,-270.19"/>
</g>
<!-- Node6 -->
<g id="node6" class="node">
<title>Node6</title>
<g id="a_node6"><a xlink:href="../../d0/d80/_random_8h.html" target="_top" xlink:title=" ">
<polygon fill="white" stroke="black" points="370.5,-241 370.5,-260 491.5,-260 491.5,-241 370.5,-241"/>
<text text-anchor="middle" x="431" y="-248" font-family="Helvetica,sans-Serif" font-size="10.00">Namespaces/Random.h</text>
</a>
</g>
</g>
<!-- Node1&#45;&gt;Node6 -->
<g id="edge7" class="edge">
<title>Node1&#45;&gt;Node6</title>
<path fill="none" stroke="midnightblue" d="M314.33,-302.4C340.47,-290.99 376.95,-275.08 402.12,-264.1"/>
<polygon fill="midnightblue" stroke="midnightblue" points="403.73,-267.21 411.5,-260.01 400.93,-260.8 403.73,-267.21"/>
</g>
<!-- Node7 -->
<g id="node7" class="node">
<title>Node7</title>
<g id="a_node7"><a xlink:href="../../df/db3/_patern_v_spread_8h.html" target="_top" xlink:title=" ">
<polygon fill="white" stroke="black" points="509.5,-235.5 509.5,-265.5 622.5,-265.5 622.5,-235.5 509.5,-235.5"/>
<text text-anchor="start" x="517.5" y="-253.5" font-family="Helvetica,sans-Serif" font-size="10.00">Shmup/Paterns/Shoot</text>
<text text-anchor="middle" x="566" y="-242.5" font-family="Helvetica,sans-Serif" font-size="10.00">/PaternVSpread.h</text>
</a>
</g>
</g>
<!-- Node1&#45;&gt;Node7 -->
<g id="edge8" class="edge">
<title>Node1&#45;&gt;Node7</title>
<path fill="none" stroke="midnightblue" d="M343.27,-302.48C389.25,-291.95 452.13,-277.56 499.35,-266.75"/>
<polygon fill="midnightblue" stroke="midnightblue" points="500.22,-270.15 509.18,-264.5 498.65,-263.32 500.22,-270.15"/>
</g>
<!-- Node9 -->
<g id="node9" class="node">
<title>Node9</title>
<g id="a_node9"><a xlink:href="../../de/d15/_shoot_8h.html" target="_top" xlink:title=" ">
<polygon fill="white" stroke="black" points="640.5,-241 640.5,-260 763.5,-260 763.5,-241 640.5,-241"/>
<text text-anchor="middle" x="702" y="-248" font-family="Helvetica,sans-Serif" font-size="10.00">Shmup/Movable/Shoot.h</text>
</a>
</g>
</g>
<!-- Node1&#45;&gt;Node9 -->
<g id="edge10" class="edge">
<title>Node1&#45;&gt;Node9</title>
<path fill="none" stroke="midnightblue" d="M366.84,-305.62C437.65,-296.2 541.14,-281.66 631,-266 637.83,-264.81 645.01,-263.46 652.07,-262.08"/>
<polygon fill="midnightblue" stroke="midnightblue" points="653.15,-265.43 662.27,-260.03 651.78,-258.56 653.15,-265.43"/>
</g>
<!-- Node4&#45;&gt;Node2 -->
<g id="edge4" class="edge">
<title>Node4&#45;&gt;Node2</title>
<path fill="none" stroke="midnightblue" d="M144.86,-240.73C205.74,-204.78 436.46,-68.58 510.78,-24.71"/>
<polygon fill="midnightblue" stroke="midnightblue" points="512.6,-27.7 519.43,-19.6 509.04,-21.67 512.6,-27.7"/>
</g>
<!-- Node4&#45;&gt;Node3 -->
<g id="edge5" class="edge">
<title>Node4&#45;&gt;Node3</title>
<path fill="none" stroke="midnightblue" d="M125.27,-240.98C120.42,-232.23 112.73,-218.37 106.6,-207.31"/>
<polygon fill="midnightblue" stroke="midnightblue" points="109.63,-205.56 101.72,-198.51 103.51,-208.95 109.63,-205.56"/>
</g>
<!-- Node8 -->
<g id="node8" class="node">
<title>Node8</title>
<g id="a_node8"><a xlink:href="../../df/d50/_a_patern_8h.html" target="_top" xlink:title=" ">
<polygon fill="white" stroke="black" points="400.5,-179.5 400.5,-198.5 467.5,-198.5 467.5,-179.5 400.5,-179.5"/>
<text text-anchor="middle" x="434" y="-186.5" font-family="Helvetica,sans-Serif" font-size="10.00">../APatern.h</text>
</a>
</g>
</g>
<!-- Node7&#45;&gt;Node8 -->
<g id="edge9" class="edge">
<title>Node7&#45;&gt;Node8</title>
<path fill="none" stroke="midnightblue" d="M534.72,-235.4C512.77,-225.51 483.66,-212.38 462.38,-202.79"/>
<polygon fill="midnightblue" stroke="midnightblue" points="463.76,-199.58 453.21,-198.66 460.89,-205.96 463.76,-199.58"/>
</g>
<!-- Node9&#45;&gt;Node2 -->
<g id="edge11" class="edge">
<title>Node9&#45;&gt;Node2</title>
<path fill="none" stroke="midnightblue" d="M670.37,-240.98C636.08,-231.13 584.42,-214.31 571,-199 528.46,-150.47 529.15,-67.53 531.97,-30.2"/>
<polygon fill="midnightblue" stroke="midnightblue" points="535.5,-30.06 532.92,-19.78 528.53,-29.43 535.5,-30.06"/>
</g>
<!-- Node9&#45;&gt;Node8 -->
<g id="edge21" class="edge">
<title>Node9&#45;&gt;Node8</title>
<path fill="none" stroke="midnightblue" d="M663.6,-240.98C614.35,-230.04 529.13,-211.12 477.52,-199.66"/>
<polygon fill="midnightblue" stroke="midnightblue" points="478.19,-196.23 467.67,-197.47 476.67,-203.06 478.19,-196.23"/>
</g>
<!-- Node10 -->
<g id="node10" class="node">
<title>Node10</title>
<g id="a_node10"><a xlink:href="../../db/d1b/_a_movable_8h.html" target="_top" xlink:title=" ">
<polygon fill="white" stroke="black" points="580.5,-179.5 580.5,-198.5 681.5,-198.5 681.5,-179.5 580.5,-179.5"/>
<text text-anchor="middle" x="631" y="-186.5" font-family="Helvetica,sans-Serif" font-size="10.00">Shmup/AMovable.h</text>
</a>
</g>
</g>
<!-- Node9&#45;&gt;Node10 -->
<g id="edge12" class="edge">
<title>Node9&#45;&gt;Node10</title>
<path fill="none" stroke="midnightblue" d="M691.83,-240.98C680.65,-231.61 662.48,-216.38 648.91,-205.01"/>
<polygon fill="midnightblue" stroke="midnightblue" points="651.07,-202.25 641.15,-198.51 646.57,-207.61 651.07,-202.25"/>
</g>
<!-- Node16 -->
<g id="node16" class="node">
<title>Node16</title>
<g id="a_node16"><a xlink:href="../../d5/d36/_collider_8h.html" target="_top" xlink:title=" ">
<polygon fill="white" stroke="black" points="807,-123.5 807,-142.5 937,-142.5 937,-123.5 807,-123.5"/>
<text text-anchor="middle" x="872" y="-130.5" font-family="Helvetica,sans-Serif" font-size="10.00">Shmup/Collision/Collider.h</text>
</a>
</g>
</g>
<!-- Node9&#45;&gt;Node16 -->
<g id="edge22" class="edge">
<title>Node9&#45;&gt;Node16</title>
<path fill="none" stroke="midnightblue" d="M763.53,-243.16C794.91,-236.82 831.35,-224.18 855,-199 866.59,-186.65 870.5,-167.4 871.72,-153.05"/>
<polygon fill="midnightblue" stroke="midnightblue" points="875.23,-152.98 872.21,-142.82 868.23,-152.64 875.23,-152.98"/>
</g>
<!-- Node18 -->
<g id="node18" class="node">
<title>Node18</title>
<g id="a_node18"><a xlink:href="../../d3/d72/_a_collidable_8h.html" target="_top" xlink:title=" ">
<polygon fill="white" stroke="black" points="700,-179.5 700,-198.5 846,-198.5 846,-179.5 700,-179.5"/>
<text text-anchor="middle" x="773" y="-186.5" font-family="Helvetica,sans-Serif" font-size="10.00">Shmup/Collision/ACollidable.h</text>
</a>
</g>
</g>
<!-- Node9&#45;&gt;Node18 -->
<g id="edge27" class="edge">
<title>Node9&#45;&gt;Node18</title>
<path fill="none" stroke="midnightblue" d="M712.17,-240.98C723.35,-231.61 741.52,-216.38 755.09,-205.01"/>
<polygon fill="midnightblue" stroke="midnightblue" points="757.43,-207.61 762.85,-198.51 752.93,-202.25 757.43,-207.61"/>
</g>
<!-- Node10&#45;&gt;Node2 -->
<g id="edge13" class="edge">
<title>Node10&#45;&gt;Node2</title>
<path fill="none" stroke="midnightblue" d="M620.49,-179.22C610.83,-170.72 596.58,-157.1 587,-143 562.1,-106.37 546.07,-56.26 538.71,-29.55"/>
<polygon fill="midnightblue" stroke="midnightblue" points="542.03,-28.41 536.08,-19.64 535.26,-30.21 542.03,-28.41"/>
</g>
<!-- Node11 -->
<g id="node11" class="node">
<title>Node11</title>
<g id="a_node11"><a xlink:href="../../d7/daf/_a_graphic_object_8h.html" target="_top" xlink:title=" ">
<polygon fill="white" stroke="black" points="596.5,-123.5 596.5,-142.5 689.5,-142.5 689.5,-123.5 596.5,-123.5"/>
<text text-anchor="middle" x="643" y="-130.5" font-family="Helvetica,sans-Serif" font-size="10.00">AGraphicObject.h</text>
</a>
</g>
</g>
<!-- Node10&#45;&gt;Node11 -->
<g id="edge14" class="edge">
<title>Node10&#45;&gt;Node11</title>
<path fill="none" stroke="midnightblue" d="M632.98,-179.08C634.57,-171.93 636.86,-161.64 638.85,-152.69"/>
<polygon fill="midnightblue" stroke="midnightblue" points="642.3,-153.27 641.06,-142.75 635.47,-151.75 642.3,-153.27"/>
</g>
<!-- Node11&#45;&gt;Node2 -->
<g id="edge15" class="edge">
<title>Node11&#45;&gt;Node2</title>
<path fill="none" stroke="midnightblue" d="M631.63,-123.33C620.66,-114.7 603.86,-100.8 591,-87 573.51,-68.24 556.24,-44.24 545.37,-28.27"/>
<polygon fill="midnightblue" stroke="midnightblue" points="548.24,-26.26 539.76,-19.91 542.42,-30.16 548.24,-26.26"/>
</g>
<!-- Node12 -->
<g id="node12" class="node">
<title>Node12</title>
<g id="a_node12"><a xlink:href="../../dc/d80/_instance_list_8h.html" target="_top" xlink:title=" ">
<polygon fill="white" stroke="black" points="732,-62 732,-81 844,-81 844,-62 732,-62"/>
<text text-anchor="middle" x="788" y="-69" font-family="Helvetica,sans-Serif" font-size="10.00">Shmup/InstanceList.h</text>
</a>
</g>
</g>
<!-- Node11&#45;&gt;Node12 -->
<g id="edge16" class="edge">
<title>Node11&#45;&gt;Node12</title>
<path fill="none" stroke="midnightblue" d="M663.77,-123.48C688.43,-113.36 729.75,-96.4 757.9,-84.85"/>
<polygon fill="midnightblue" stroke="midnightblue" points="759.34,-88.04 767.26,-81.01 756.68,-81.57 759.34,-88.04"/>
</g>
<!-- Node15 -->
<g id="node15" class="node">
<title>Node15</title>
<g id="a_node15"><a xlink:href="../../da/d02/_transform2_d_8h.html" target="_top" xlink:title=" ">
<polygon fill="white" stroke="black" points="600,-62 600,-81 714,-81 714,-62 600,-62"/>
<text text-anchor="middle" x="657" y="-69" font-family="Helvetica,sans-Serif" font-size="10.00">Shmup/Transform2D.h</text>
</a>
</g>
</g>
<!-- Node11&#45;&gt;Node15 -->
<g id="edge19" class="edge">
<title>Node11&#45;&gt;Node15</title>
<path fill="none" stroke="midnightblue" d="M645.01,-123.48C647,-114.99 650.13,-101.7 652.69,-90.82"/>
<polygon fill="midnightblue" stroke="midnightblue" points="656.11,-91.54 655,-81.01 649.3,-89.94 656.11,-91.54"/>
</g>
<!-- Node13 -->
<g id="node13" class="node">
<title>Node13</title>
<g id="a_node13"><a xlink:title=" ">
<polygon fill="white" stroke="#bfbfbf" points="761,-0.5 761,-19.5 815,-19.5 815,-0.5 761,-0.5"/>
<text text-anchor="middle" x="788" y="-7.5" font-family="Helvetica,sans-Serif" font-size="10.00">iostream</text>
</a>
</g>
</g>
<!-- Node12&#45;&gt;Node13 -->
<g id="edge17" class="edge">
<title>Node12&#45;&gt;Node13</title>
<path fill="none" stroke="midnightblue" d="M788,-61.98C788,-53.58 788,-40.48 788,-29.66"/>
<polygon fill="midnightblue" stroke="midnightblue" points="791.5,-29.51 788,-19.51 784.5,-29.51 791.5,-29.51"/>
</g>
<!-- Node14 -->
<g id="node14" class="node">
<title>Node14</title>
<g id="a_node14"><a xlink:title=" ">
<polygon fill="white" stroke="#bfbfbf" points="886,-0.5 886,-19.5 930,-19.5 930,-0.5 886,-0.5"/>
<text text-anchor="middle" x="908" y="-7.5" font-family="Helvetica,sans-Serif" font-size="10.00">vector</text>
</a>
</g>
</g>
<!-- Node12&#45;&gt;Node14 -->
<g id="edge18" class="edge">
<title>Node12&#45;&gt;Node14</title>
<path fill="none" stroke="midnightblue" d="M805.19,-61.98C825.24,-52.03 858.6,-35.49 881.86,-23.96"/>
<polygon fill="midnightblue" stroke="midnightblue" points="883.43,-27.09 890.84,-19.51 880.32,-20.82 883.43,-27.09"/>
</g>
<!-- Node15&#45;&gt;Node2 -->
<g id="edge20" class="edge">
<title>Node15&#45;&gt;Node2</title>
<path fill="none" stroke="midnightblue" d="M639.38,-61.98C618.83,-52.03 584.64,-35.49 560.79,-23.96"/>
<polygon fill="midnightblue" stroke="midnightblue" points="562.12,-20.71 551.59,-19.51 559.07,-27.01 562.12,-20.71"/>
</g>
<!-- Node16&#45;&gt;Node2 -->
<g id="edge23" class="edge">
<title>Node16&#45;&gt;Node2</title>
<path fill="none" stroke="midnightblue" d="M872.67,-123.4C873.39,-107.49 872.41,-73.47 853,-56 811.6,-18.73 641.48,-12.21 568.03,-11.16"/>
<polygon fill="midnightblue" stroke="midnightblue" points="567.96,-7.66 557.92,-11.04 567.87,-14.66 567.96,-7.66"/>
</g>
<!-- Node16&#45;&gt;Node15 -->
<g id="edge24" class="edge">
<title>Node16&#45;&gt;Node15</title>
<path fill="none" stroke="midnightblue" d="M841.2,-123.48C803.44,-113.03 739.34,-95.29 697.59,-83.73"/>
<polygon fill="midnightblue" stroke="midnightblue" points="698.32,-80.3 687.75,-81.01 696.45,-87.05 698.32,-80.3"/>
</g>
<!-- Node17 -->
<g id="node17" class="node">
<title>Node17</title>
<g id="a_node17"><a xlink:href="../../de/d60/_collider_settings_8h.html" target="_top" xlink:title=" ">
<polygon fill="white" stroke="black" points="900,-56.5 900,-86.5 1022,-86.5 1022,-56.5 900,-56.5"/>
<text text-anchor="start" x="908" y="-74.5" font-family="Helvetica,sans-Serif" font-size="10.00">Shmup/Collision/Collider</text>
<text text-anchor="middle" x="961" y="-63.5" font-family="Helvetica,sans-Serif" font-size="10.00">Settings.h</text>
</a>
</g>
</g>
<!-- Node16&#45;&gt;Node17 -->
<g id="edge25" class="edge">
<title>Node16&#45;&gt;Node17</title>
<path fill="none" stroke="midnightblue" d="M884.75,-123.48C896.92,-115.34 915.69,-102.79 931.56,-92.18"/>
<polygon fill="midnightblue" stroke="midnightblue" points="933.66,-94.99 940.02,-86.52 929.77,-89.17 933.66,-94.99"/>
</g>
<!-- Node17&#45;&gt;Node14 -->
<g id="edge26" class="edge">
<title>Node17&#45;&gt;Node14</title>
<path fill="none" stroke="midnightblue" d="M948.44,-56.4C940.66,-47.66 930.64,-36.41 922.52,-27.3"/>
<polygon fill="midnightblue" stroke="midnightblue" points="924.98,-24.8 915.71,-19.66 919.75,-29.45 924.98,-24.8"/>
</g>
<!-- Node18&#45;&gt;Node12 -->
<g id="edge29" class="edge">
<title>Node18&#45;&gt;Node12</title>
<path fill="none" stroke="midnightblue" d="M774.13,-179.32C776.54,-160.76 782.24,-116.84 785.54,-91.47"/>
<polygon fill="midnightblue" stroke="midnightblue" points="789.04,-91.65 786.86,-81.28 782.1,-90.75 789.04,-91.65"/>
</g>
<!-- Node18&#45;&gt;Node16 -->
<g id="edge28" class="edge">
<title>Node18&#45;&gt;Node16</title>
<path fill="none" stroke="midnightblue" d="M788.91,-179.32C804.64,-170.74 828.94,-157.49 847.21,-147.52"/>
<polygon fill="midnightblue" stroke="midnightblue" points="849.03,-150.52 856.13,-142.65 845.68,-144.37 849.03,-150.52"/>
</g>
</g>
</svg>
        <g id="navigator" transform="translate(0 0)" fill="#404254">
                <rect fill="#f2f5e9" fill-opacity="0.5" stroke="#606060" stroke-width=".5" x="0" y="0" width="60" height="60"/>
                <use id="zoomplus" xlink:href="#zoomPlus" x="17" y="9" onmousedown="handleZoom(evt,'in')"/>
                <use id="zoomminus" xlink:href="#zoomMin" x="42" y="9" onmousedown="handleZoom(evt,'out')"/>
                <use id="reset" xlink:href="#resetDef" x="30" y="36" onmousedown="handleReset()"/>
                <g id="arrowUp" xlink:href="#dirArrow" transform="translate(30 24)" onmousedown="handlePan(0,-1)">
                  <use xlink:href="#rim" fill="#404040">
                        <set attributeName="fill" to="#808080" begin="arrowUp.mouseover" end="arrowUp.mouseout"/>
                  </use>
                  <path fill="none" stroke="white" stroke-width="1.5" d="M0,-3.0v7 M-2.5,-0.5L0,-3.0L2.5,-0.5"/>
                </g>
                <g id="arrowRight" xlink:href="#dirArrow" transform="rotate(90) translate(36 -43)" onmousedown="handlePan(1,0)">
                  <use xlink:href="#rim" fill="#404040">
                        <set attributeName="fill" to="#808080" begin="arrowRight.mouseover" end="arrowRight.mouseout"/>
                  </use>
                  <path fill="none" stroke="white" stroke-width="1.5" d="M0,-3.0v7 M-2.5,-0.5L0,-3.0L2.5,-0.5"/>
                </g>
                <g id="arrowDown" xlink:href="#dirArrow" transform="rotate(180) translate(-30 -48)" onmousedown="handlePan(0,1)">
                  <use xlink:href="#rim" fill="#404040">
                        <set attributeName="fill" to="#808080" begin="arrowDown.mouseover" end="arrowDown.mouseout"/>
                  </use>
                  <path fill="none" stroke="white" stroke-width="1.5" d="M0,-3.0v7 M-2.5,-0.5L0,-3.0L2.5,-0.5"/>
                </g>
                <g id="arrowLeft" xlink:href="#dirArrow" transform="rotate(270) translate(-36 17)" onmousedown="handlePan(-1,0)">
                  <use xlink:href="#rim" fill="#404040">
                        <set attributeName="fill" to="#808080" begin="arrowLeft.mouseover" end="arrowLeft.mouseout"/>
                  </use>
                  <path fill="none" stroke="white" stroke-width="1.5" d="M0,-3.0v7 M-2.5,-0.5L0,-3.0L2.5,-0.5"/>
                </g>
        </g>
        <svg viewBox="0 0 15 15" width="100%" height="30px" preserveAspectRatio="xMaxYMin meet">
         <g id="arrow_out" transform="scale(0.3 0.3)">
          <a xlink:href="_patern_v_spread_8cpp__incl_org.svg" target="_base">
           <rect id="button" ry="5" rx="5" y="6" x="6" height="38" width="38"
                fill="#f2f5e9" fill-opacity="0.5" stroke="#606060" stroke-width="1.0"/>
           <path id="arrow"
             d="M 11.500037,31.436501 C 11.940474,20.09759 22.043105,11.32322 32.158766,21.979434 L 37.068811,17.246167 C 37.068811,17.246167 37.088388,32 37.088388,32 L 22.160133,31.978069 C 22.160133,31.978069 26.997745,27.140456 26.997745,27.140456 C 18.528582,18.264221 13.291696,25.230495 11.500037,31.436501 z"
             style="fill:#404040;"/>
          </a>
         </g>
        </svg>
</svg>
