<?xml version="1.0" encoding="UTF-8" standalone="no"?>
<!DOCTYPE svg PUBLIC "-//W3C//DTD SVG 1.1//EN"
 "http://www.w3.org/Graphics/SVG/1.1/DTD/svg11.dtd">
<!-- Generated by graphviz version 2.49.3 (20211027.1534)
 -->
<!-- Title: RayLib_SHMUP/src/Shmup/Movable/Shoot.cpp Pages: 1 -->
<svg width="886pt" height="330pt"
 viewBox="0.00 0.00 885.53 330.00" xmlns="http://www.w3.org/2000/svg" xmlns:xlink="http://www.w3.org/1999/xlink">
<g id="graph0" class="graph" transform="scale(1 1) rotate(0) translate(4 326)">
<title>RayLib_SHMUP/src/Shmup/Movable/Shoot.cpp</title>
<polygon fill="white" stroke="transparent" points="-4,4 -4,-326 881.53,-326 881.53,4 -4,4"/>
<!-- Node1 -->
<g id="node1" class="node">
<title>Node1</title>
<g id="a_node1"><a xlink:title=" ">
<polygon fill="#bfbfbf" stroke="black" points="113.03,-291.5 113.03,-321.5 252.03,-321.5 252.03,-291.5 113.03,-291.5"/>
<text text-anchor="start" x="121.03" y="-309.5" font-family="Helvetica,sans-Serif" font-size="10.00">RayLib_SHMUP/src/Shmup</text>
<text text-anchor="middle" x="182.53" y="-298.5" font-family="Helvetica,sans-Serif" font-size="10.00">/Movable/Shoot.cpp</text>
</a>
</g>
</g>
<!-- Node2 -->
<g id="node2" class="node">
<title>Node2</title>
<g id="a_node2"><a xlink:title=" ">
<polygon fill="white" stroke="#bfbfbf" points="347.03,-0.5 347.03,-19.5 394.03,-19.5 394.03,-0.5 347.03,-0.5"/>
<text text-anchor="middle" x="370.53" y="-7.5" font-family="Helvetica,sans-Serif" font-size="10.00">raylib.h</text>
</a>
</g>
</g>
<!-- Node1&#45;&gt;Node2 -->
<g id="edge1" class="edge">
<title>Node1&#45;&gt;Node2</title>
<path fill="none" stroke="midnightblue" d="M112.87,-299.02C80.59,-292.59 44.05,-279.92 19.53,-255 -1.58,-233.55 0.53,-220.1 0.53,-190 0.53,-190 0.53,-190 0.53,-132 0.53,-61.63 245.38,-25.68 336.72,-14.71"/>
<polygon fill="midnightblue" stroke="midnightblue" points="337.3,-18.17 346.82,-13.53 336.48,-11.22 337.3,-18.17"/>
</g>
<!-- Node3 -->
<g id="node3" class="node">
<title>Node3</title>
<g id="a_node3"><a xlink:href="../../d2/d94/_controller_8h.html" target="_top" xlink:title=" ">
<polygon fill="white" stroke="black" points="28.53,-235.5 28.53,-254.5 154.53,-254.5 154.53,-235.5 28.53,-235.5"/>
<text text-anchor="middle" x="91.53" y="-242.5" font-family="Helvetica,sans-Serif" font-size="10.00">Namespaces/Controller.h</text>
</a>
</g>
</g>
<!-- Node1&#45;&gt;Node3 -->
<g id="edge2" class="edge">
<title>Node1&#45;&gt;Node3</title>
<path fill="none" stroke="midnightblue" d="M160.96,-291.4C146.65,-282.04 127.92,-269.79 113.52,-260.38"/>
<polygon fill="midnightblue" stroke="midnightblue" points="115.05,-257.2 104.77,-254.66 111.22,-263.06 115.05,-257.2"/>
</g>
<!-- Node5 -->
<g id="node5" class="node">
<title>Node5</title>
<g id="a_node5"><a xlink:href="../../d5/daf/_game_status_8h.html" target="_top" xlink:title=" ">
<polygon fill="white" stroke="black" points="448.53,-235.5 448.53,-254.5 588.53,-254.5 588.53,-235.5 448.53,-235.5"/>
<text text-anchor="middle" x="518.53" y="-242.5" font-family="Helvetica,sans-Serif" font-size="10.00">Namespaces/GameStatus.h</text>
</a>
</g>
</g>
<!-- Node1&#45;&gt;Node5 -->
<g id="edge5" class="edge">
<title>Node1&#45;&gt;Node5</title>
<path fill="none" stroke="midnightblue" d="M252.15,-293.17C313.71,-282.27 402.48,-266.55 460.34,-256.3"/>
<polygon fill="midnightblue" stroke="midnightblue" points="461.18,-259.71 470.41,-254.52 459.96,-252.82 461.18,-259.71"/>
</g>
<!-- Node6 -->
<g id="node6" class="node">
<title>Node6</title>
<g id="a_node6"><a xlink:href="../../dc/da7/_files_8h.html" target="_top" xlink:title=" ">
<polygon fill="white" stroke="black" points="203.53,-123.5 203.53,-142.5 309.53,-142.5 309.53,-123.5 203.53,-123.5"/>
<text text-anchor="middle" x="256.53" y="-130.5" font-family="Helvetica,sans-Serif" font-size="10.00">Namespaces/Files.h</text>
</a>
</g>
</g>
<!-- Node1&#45;&gt;Node6 -->
<g id="edge6" class="edge">
<title>Node1&#45;&gt;Node6</title>
<path fill="none" stroke="midnightblue" d="M181.47,-291.15C180.32,-266.5 180.89,-215.29 201.53,-179 208.7,-166.39 220.88,-155.87 231.96,-148.18"/>
<polygon fill="midnightblue" stroke="midnightblue" points="234.02,-151.02 240.5,-142.64 230.21,-145.15 234.02,-151.02"/>
</g>
<!-- Node7 -->
<g id="node7" class="node">
<title>Node7</title>
<g id="a_node7"><a xlink:href="../../de/d15/_shoot_8h.html" target="_top" xlink:title=" ">
<polygon fill="white" stroke="black" points="307.03,-235.5 307.03,-254.5 430.03,-254.5 430.03,-235.5 307.03,-235.5"/>
<text text-anchor="middle" x="368.53" y="-242.5" font-family="Helvetica,sans-Serif" font-size="10.00">Shmup/Movable/Shoot.h</text>
</a>
</g>
</g>
<!-- Node1&#45;&gt;Node7 -->
<g id="edge8" class="edge">
<title>Node1&#45;&gt;Node7</title>
<path fill="none" stroke="midnightblue" d="M226.61,-291.4C258.75,-281.12 301.78,-267.35 332.01,-257.68"/>
<polygon fill="midnightblue" stroke="midnightblue" points="333.28,-260.95 341.73,-254.57 331.14,-254.28 333.28,-260.95"/>
</g>
<!-- Node3&#45;&gt;Node2 -->
<g id="edge3" class="edge">
<title>Node3&#45;&gt;Node2</title>
<path fill="none" stroke="midnightblue" d="M97.55,-235.36C112.38,-214.43 152.55,-160.07 194.53,-123 235.18,-87.1 250.68,-84.98 296.53,-56 313.31,-45.39 332.47,-33.75 347.09,-24.97"/>
<polygon fill="midnightblue" stroke="midnightblue" points="349.19,-27.79 355.97,-19.65 345.6,-21.78 349.19,-27.79"/>
</g>
<!-- Node4 -->
<g id="node4" class="node">
<title>Node4</title>
<g id="a_node4"><a xlink:title=" ">
<polygon fill="white" stroke="#bfbfbf" points="57.03,-179.5 57.03,-198.5 116.03,-198.5 116.03,-179.5 57.03,-179.5"/>
<text text-anchor="middle" x="86.53" y="-186.5" font-family="Helvetica,sans-Serif" font-size="10.00">raymath.h</text>
</a>
</g>
</g>
<!-- Node3&#45;&gt;Node4 -->
<g id="edge4" class="edge">
<title>Node3&#45;&gt;Node4</title>
<path fill="none" stroke="midnightblue" d="M90.7,-235.08C90.05,-228.01 89.11,-217.86 88.29,-208.99"/>
<polygon fill="midnightblue" stroke="midnightblue" points="91.75,-208.39 87.34,-198.75 84.77,-209.03 91.75,-208.39"/>
</g>
<!-- Node6&#45;&gt;Node2 -->
<g id="edge7" class="edge">
<title>Node6&#45;&gt;Node2</title>
<path fill="none" stroke="midnightblue" d="M264.73,-123.3C283.71,-103.15 330.9,-53.06 355.34,-27.12"/>
<polygon fill="midnightblue" stroke="midnightblue" points="358.09,-29.3 362.4,-19.62 353,-24.5 358.09,-29.3"/>
</g>
<!-- Node7&#45;&gt;Node2 -->
<g id="edge9" class="edge">
<title>Node7&#45;&gt;Node2</title>
<path fill="none" stroke="midnightblue" d="M368.6,-235.43C368.89,-201.75 369.95,-77.99 370.36,-30.1"/>
<polygon fill="midnightblue" stroke="midnightblue" points="373.87,-29.93 370.45,-19.9 366.87,-29.87 373.87,-29.93"/>
</g>
<!-- Node8 -->
<g id="node8" class="node">
<title>Node8</title>
<g id="a_node8"><a xlink:href="../../db/d1b/_a_movable_8h.html" target="_top" xlink:title=" ">
<polygon fill="white" stroke="black" points="397.03,-179.5 397.03,-198.5 498.03,-198.5 498.03,-179.5 397.03,-179.5"/>
<text text-anchor="middle" x="447.53" y="-186.5" font-family="Helvetica,sans-Serif" font-size="10.00">Shmup/AMovable.h</text>
</a>
</g>
</g>
<!-- Node7&#45;&gt;Node8 -->
<g id="edge10" class="edge">
<title>Node7&#45;&gt;Node8</title>
<path fill="none" stroke="midnightblue" d="M381.22,-235.32C393.43,-226.98 412.11,-214.21 426.53,-204.35"/>
<polygon fill="midnightblue" stroke="midnightblue" points="428.59,-207.19 434.87,-198.65 424.64,-201.41 428.59,-207.19"/>
</g>
<!-- Node14 -->
<g id="node14" class="node">
<title>Node14</title>
<g id="a_node14"><a xlink:href="../../df/d50/_a_patern_8h.html" target="_top" xlink:title=" ">
<polygon fill="white" stroke="black" points="210.53,-179.5 210.53,-198.5 340.53,-198.5 340.53,-179.5 210.53,-179.5"/>
<text text-anchor="middle" x="275.53" y="-186.5" font-family="Helvetica,sans-Serif" font-size="10.00">Shmup/Paterns/APatern.h</text>
</a>
</g>
</g>
<!-- Node7&#45;&gt;Node14 -->
<g id="edge19" class="edge">
<title>Node7&#45;&gt;Node14</title>
<path fill="none" stroke="midnightblue" d="M353.59,-235.32C338.94,-226.82 316.39,-213.73 299.29,-203.8"/>
<polygon fill="midnightblue" stroke="midnightblue" points="300.84,-200.65 290.43,-198.65 297.32,-206.7 300.84,-200.65"/>
</g>
<!-- Node15 -->
<g id="node15" class="node">
<title>Node15</title>
<g id="a_node15"><a xlink:href="../../d5/d36/_collider_8h.html" target="_top" xlink:title=" ">
<polygon fill="white" stroke="black" points="529.53,-123.5 529.53,-142.5 659.53,-142.5 659.53,-123.5 529.53,-123.5"/>
<text text-anchor="middle" x="594.53" y="-130.5" font-family="Helvetica,sans-Serif" font-size="10.00">Shmup/Collision/Collider.h</text>
</a>
</g>
</g>
<!-- Node7&#45;&gt;Node15 -->
<g id="edge20" class="edge">
<title>Node7&#45;&gt;Node15</title>
<path fill="none" stroke="midnightblue" d="M405.25,-235.47C433.81,-228.03 473.93,-215.79 506.53,-199 532.98,-185.37 560.02,-164.08 577.02,-149.6"/>
<polygon fill="midnightblue" stroke="midnightblue" points="579.67,-151.93 584.93,-142.73 575.09,-146.64 579.67,-151.93"/>
</g>
<!-- Node17 -->
<g id="node17" class="node">
<title>Node17</title>
<g id="a_node17"><a xlink:href="../../d3/d72/_a_collidable_8h.html" target="_top" xlink:title=" ">
<polygon fill="white" stroke="black" points="554.53,-179.5 554.53,-198.5 700.53,-198.5 700.53,-179.5 554.53,-179.5"/>
<text text-anchor="middle" x="627.53" y="-186.5" font-family="Helvetica,sans-Serif" font-size="10.00">Shmup/Collision/ACollidable.h</text>
</a>
</g>
</g>
<!-- Node7&#45;&gt;Node17 -->
<g id="edge25" class="edge">
<title>Node7&#45;&gt;Node17</title>
<path fill="none" stroke="midnightblue" d="M409.57,-235.44C454.84,-226 527.75,-210.8 576.63,-200.61"/>
<polygon fill="midnightblue" stroke="midnightblue" points="577.61,-203.98 586.68,-198.52 576.18,-197.13 577.61,-203.98"/>
</g>
<!-- Node8&#45;&gt;Node2 -->
<g id="edge11" class="edge">
<title>Node8&#45;&gt;Node2</title>
<path fill="none" stroke="midnightblue" d="M437.85,-179.25C429.02,-170.78 416.22,-157.17 408.53,-143 388.22,-105.57 377.75,-56.13 373.28,-29.65"/>
<polygon fill="midnightblue" stroke="midnightblue" points="376.7,-28.84 371.67,-19.51 369.78,-29.94 376.7,-28.84"/>
</g>
<!-- Node9 -->
<g id="node9" class="node">
<title>Node9</title>
<g id="a_node9"><a xlink:href="../../d7/daf/_a_graphic_object_8h.html" target="_top" xlink:title=" ">
<polygon fill="white" stroke="black" points="418.03,-123.5 418.03,-142.5 511.03,-142.5 511.03,-123.5 418.03,-123.5"/>
<text text-anchor="middle" x="464.53" y="-130.5" font-family="Helvetica,sans-Serif" font-size="10.00">AGraphicObject.h</text>
</a>
</g>
</g>
<!-- Node8&#45;&gt;Node9 -->
<g id="edge12" class="edge">
<title>Node8&#45;&gt;Node9</title>
<path fill="none" stroke="midnightblue" d="M450.33,-179.08C452.61,-171.85 455.9,-161.41 458.74,-152.4"/>
<polygon fill="midnightblue" stroke="midnightblue" points="462.11,-153.34 461.77,-142.75 455.43,-151.24 462.11,-153.34"/>
</g>
<!-- Node9&#45;&gt;Node2 -->
<g id="edge13" class="edge">
<title>Node9&#45;&gt;Node2</title>
<path fill="none" stroke="midnightblue" d="M457.77,-123.3C442.25,-103.33 403.87,-53.92 383.58,-27.8"/>
<polygon fill="midnightblue" stroke="midnightblue" points="386.13,-25.37 377.23,-19.62 380.6,-29.67 386.13,-25.37"/>
</g>
<!-- Node10 -->
<g id="node10" class="node">
<title>Node10</title>
<g id="a_node10"><a xlink:href="../../dc/d80/_instance_list_8h.html" target="_top" xlink:title=" ">
<polygon fill="white" stroke="black" points="625.53,-62 625.53,-81 737.53,-81 737.53,-62 625.53,-62"/>
<text text-anchor="middle" x="681.53" y="-69" font-family="Helvetica,sans-Serif" font-size="10.00">Shmup/InstanceList.h</text>
</a>
</g>
</g>
<!-- Node9&#45;&gt;Node10 -->
<g id="edge14" class="edge">
<title>Node9&#45;&gt;Node10</title>
<path fill="none" stroke="midnightblue" d="M495.62,-123.48C533.81,-113 598.7,-95.21 640.83,-83.66"/>
<polygon fill="midnightblue" stroke="midnightblue" points="641.78,-87.03 650.49,-81.01 639.92,-80.28 641.78,-87.03"/>
</g>
<!-- Node13 -->
<g id="node13" class="node">
<title>Node13</title>
<g id="a_node13"><a xlink:href="../../da/d02/_transform2_d_8h.html" target="_top" xlink:title=" ">
<polygon fill="white" stroke="black" points="455.53,-62 455.53,-81 569.53,-81 569.53,-62 455.53,-62"/>
<text text-anchor="middle" x="512.53" y="-69" font-family="Helvetica,sans-Serif" font-size="10.00">Shmup/Transform2D.h</text>
</a>
</g>
</g>
<!-- Node9&#45;&gt;Node13 -->
<g id="edge17" class="edge">
<title>Node9&#45;&gt;Node13</title>
<path fill="none" stroke="midnightblue" d="M471.4,-123.48C478.68,-114.46 490.32,-100.02 499.37,-88.81"/>
<polygon fill="midnightblue" stroke="midnightblue" points="502.11,-90.99 505.66,-81.01 496.66,-86.59 502.11,-90.99"/>
</g>
<!-- Node11 -->
<g id="node11" class="node">
<title>Node11</title>
<g id="a_node11"><a xlink:title=" ">
<polygon fill="white" stroke="#bfbfbf" points="654.53,-0.5 654.53,-19.5 708.53,-19.5 708.53,-0.5 654.53,-0.5"/>
<text text-anchor="middle" x="681.53" y="-7.5" font-family="Helvetica,sans-Serif" font-size="10.00">iostream</text>
</a>
</g>
</g>
<!-- Node10&#45;&gt;Node11 -->
<g id="edge15" class="edge">
<title>Node10&#45;&gt;Node11</title>
<path fill="none" stroke="midnightblue" d="M681.53,-61.98C681.53,-53.58 681.53,-40.48 681.53,-29.66"/>
<polygon fill="midnightblue" stroke="midnightblue" points="685.03,-29.51 681.53,-19.51 678.03,-29.51 685.03,-29.51"/>
</g>
<!-- Node12 -->
<g id="node12" class="node">
<title>Node12</title>
<g id="a_node12"><a xlink:title=" ">
<polygon fill="white" stroke="#bfbfbf" points="760.53,-0.5 760.53,-19.5 804.53,-19.5 804.53,-0.5 760.53,-0.5"/>
<text text-anchor="middle" x="782.53" y="-7.5" font-family="Helvetica,sans-Serif" font-size="10.00">vector</text>
</a>
</g>
</g>
<!-- Node10&#45;&gt;Node12 -->
<g id="edge16" class="edge">
<title>Node10&#45;&gt;Node12</title>
<path fill="none" stroke="midnightblue" d="M696,-61.98C712.5,-52.25 739.71,-36.23 759.21,-24.74"/>
<polygon fill="midnightblue" stroke="midnightblue" points="761.24,-27.6 768.08,-19.51 757.69,-21.57 761.24,-27.6"/>
</g>
<!-- Node13&#45;&gt;Node2 -->
<g id="edge18" class="edge">
<title>Node13&#45;&gt;Node2</title>
<path fill="none" stroke="midnightblue" d="M492.18,-61.98C468.14,-51.9 427.93,-35.05 400.37,-23.5"/>
<polygon fill="midnightblue" stroke="midnightblue" points="401.41,-20.15 390.84,-19.51 398.71,-26.6 401.41,-20.15"/>
</g>
<!-- Node15&#45;&gt;Node2 -->
<g id="edge21" class="edge">
<title>Node15&#45;&gt;Node2</title>
<path fill="none" stroke="midnightblue" d="M595.47,-123.32C596.66,-107.58 596.69,-74.26 578.53,-56 554.46,-31.8 456.78,-19.09 404.29,-13.89"/>
<polygon fill="midnightblue" stroke="midnightblue" points="404.41,-10.39 394.12,-12.92 403.74,-17.36 404.41,-10.39"/>
</g>
<!-- Node15&#45;&gt;Node13 -->
<g id="edge22" class="edge">
<title>Node15&#45;&gt;Node13</title>
<path fill="none" stroke="midnightblue" d="M582.78,-123.48C569.75,-114.02 548.49,-98.6 532.77,-87.19"/>
<polygon fill="midnightblue" stroke="midnightblue" points="534.4,-84.05 524.25,-81.01 530.29,-89.71 534.4,-84.05"/>
</g>
<!-- Node16 -->
<g id="node16" class="node">
<title>Node16</title>
<g id="a_node16"><a xlink:href="../../de/d60/_collider_settings_8h.html" target="_top" xlink:title=" ">
<polygon fill="white" stroke="black" points="755.53,-56.5 755.53,-86.5 877.53,-86.5 877.53,-56.5 755.53,-56.5"/>
<text text-anchor="start" x="763.53" y="-74.5" font-family="Helvetica,sans-Serif" font-size="10.00">Shmup/Collision/Collider</text>
<text text-anchor="middle" x="816.53" y="-63.5" font-family="Helvetica,sans-Serif" font-size="10.00">Settings.h</text>
</a>
</g>
</g>
<!-- Node15&#45;&gt;Node16 -->
<g id="edge23" class="edge">
<title>Node15&#45;&gt;Node16</title>
<path fill="none" stroke="midnightblue" d="M626.33,-123.48C659.63,-114.55 712.77,-100.31 754.43,-89.14"/>
<polygon fill="midnightblue" stroke="midnightblue" points="755.45,-92.49 764.21,-86.52 753.64,-85.73 755.45,-92.49"/>
</g>
<!-- Node16&#45;&gt;Node12 -->
<g id="edge24" class="edge">
<title>Node16&#45;&gt;Node12</title>
<path fill="none" stroke="midnightblue" d="M808.47,-56.4C803.68,-48.02 797.57,-37.33 792.48,-28.42"/>
<polygon fill="midnightblue" stroke="midnightblue" points="795.48,-26.6 787.48,-19.66 789.4,-30.08 795.48,-26.6"/>
</g>
<!-- Node17&#45;&gt;Node10 -->
<g id="edge27" class="edge">
<title>Node17&#45;&gt;Node10</title>
<path fill="none" stroke="midnightblue" d="M638.42,-179.2C647.93,-170.9 661.29,-157.58 668.53,-143 676.56,-126.81 679.66,-106.31 680.84,-91.59"/>
<polygon fill="midnightblue" stroke="midnightblue" points="684.36,-91.41 681.44,-81.23 677.37,-91.01 684.36,-91.41"/>
</g>
<!-- Node17&#45;&gt;Node15 -->
<g id="edge26" class="edge">
<title>Node17&#45;&gt;Node15</title>
<path fill="none" stroke="midnightblue" d="M622.08,-179.08C617.51,-171.61 610.86,-160.72 605.23,-151.52"/>
<polygon fill="midnightblue" stroke="midnightblue" points="608.08,-149.46 599.88,-142.75 602.1,-153.11 608.08,-149.46"/>
</g>
</g>
</svg>
