<?xml version="1.0" encoding="UTF-8" standalone="no"?>
<!DOCTYPE svg PUBLIC "-//W3C//DTD SVG 1.1//EN"
 "http://www.w3.org/Graphics/SVG/1.1/DTD/svg11.dtd">
<!-- Generated by graphviz version 2.49.3 (20211027.1534)
 -->
<!-- Title: Transform2D Pages: 1 -->
<svg width="117pt" height="106pt"
 viewBox="0.00 0.00 117.00 106.00" xmlns="http://www.w3.org/2000/svg" xmlns:xlink="http://www.w3.org/1999/xlink">
<g id="graph0" class="graph" transform="scale(1 1) rotate(0) translate(4 102)">
<title>Transform2D</title>
<polygon fill="white" stroke="transparent" points="-4,4 -4,-102 113,-102 113,4 -4,4"/>
<!-- Node1 -->
<g id="node1" class="node">
<title>Node1</title>
<g id="a_node1"><a xlink:title=" ">
<polygon fill="#bfbfbf" stroke="black" points="18.5,-0.5 18.5,-19.5 91.5,-19.5 91.5,-0.5 18.5,-0.5"/>
<text text-anchor="middle" x="55" y="-7.5" font-family="Helvetica,sans-Serif" font-size="10.00">Transform2D</text>
</a>
</g>
</g>
<!-- Node2 -->
<g id="node2" class="node">
<title>Node2</title>
<g id="a_node2"><a xlink:title=" ">
<polygon fill="white" stroke="#bfbfbf" points="0,-78.5 0,-97.5 50,-97.5 50,-78.5 0,-78.5"/>
<text text-anchor="middle" x="25" y="-85.5" font-family="Helvetica,sans-Serif" font-size="10.00">Vector2</text>
</a>
</g>
</g>
<!-- Node2&#45;&gt;Node1 -->
<g id="edge1" class="edge">
<title>Node2&#45;&gt;Node1</title>
<path fill="none" stroke="#9a32cd" stroke-dasharray="5,2" d="M22.56,-68.27C22.1,-58.81 22.79,-47.38 27,-38 30.32,-30.61 36.68,-24.21 42.5,-19.51"/>
<polygon fill="#9a32cd" stroke="#9a32cd" points="19.07,-68.6 23.47,-78.24 26.04,-67.96 19.07,-68.6"/>
<text text-anchor="middle" x="45.5" y="-52" font-family="Helvetica,sans-Serif" font-size="10.00"> position</text>
<text text-anchor="middle" x="45.5" y="-41" font-family="Helvetica,sans-Serif" font-size="10.00">scale</text>
</g>
<!-- Node3 -->
<g id="node3" class="node">
<title>Node3</title>
<g id="a_node3"><a xlink:title=" ">
<polygon fill="white" stroke="#bfbfbf" points="68.5,-78.5 68.5,-97.5 103.5,-97.5 103.5,-78.5 68.5,-78.5"/>
<text text-anchor="middle" x="86" y="-85.5" font-family="Helvetica,sans-Serif" font-size="10.00">float</text>
</a>
</g>
</g>
<!-- Node3&#45;&gt;Node1 -->
<g id="edge2" class="edge">
<title>Node3&#45;&gt;Node1</title>
<path fill="none" stroke="#9a32cd" stroke-dasharray="5,2" d="M78.53,-68.67C72.18,-53.11 63.35,-31.47 58.51,-19.62"/>
<polygon fill="#9a32cd" stroke="#9a32cd" points="75.43,-70.34 82.44,-78.28 81.91,-67.7 75.43,-70.34"/>
<text text-anchor="middle" x="91.5" y="-46.5" font-family="Helvetica,sans-Serif" font-size="10.00"> rotation</text>
</g>
</g>
</svg>
