<?xml version="1.0" encoding="UTF-8" standalone="no"?>
<!DOCTYPE svg PUBLIC "-//W3C//DTD SVG 1.1//EN"
 "http://www.w3.org/Graphics/SVG/1.1/DTD/svg11.dtd">
<!-- Generated by graphviz version 2.49.3 (20211027.1534)
 -->
<!-- Title: LevelManager::LevelSequence Pages: 1 -->
<svg width="205pt" height="128pt"
 viewBox="0.00 0.00 205.00 128.00" xmlns="http://www.w3.org/2000/svg" xmlns:xlink="http://www.w3.org/1999/xlink">
<g id="graph0" class="graph" transform="scale(1 1) rotate(0) translate(4 124)">
<title>LevelManager::LevelSequence</title>
<polygon fill="white" stroke="transparent" points="-4,4 -4,-124 201,-124 201,4 -4,4"/>
<!-- Node1 -->
<g id="node1" class="node">
<title>Node1</title>
<g id="a_node1"><a xlink:title=" ">
<polygon fill="#bfbfbf" stroke="black" points="0,-0.5 0,-19.5 150,-19.5 150,-0.5 0,-0.5"/>
<text text-anchor="middle" x="75" y="-7.5" font-family="Helvetica,sans-Serif" font-size="10.00">LevelManager::LevelSequence</text>
</a>
</g>
</g>
<!-- Node2 -->
<g id="node2" class="node">
<title>Node2</title>
<g id="a_node2"><a xlink:title=" ">
<polygon fill="white" stroke="#bfbfbf" points="14.5,-100.5 14.5,-119.5 49.5,-119.5 49.5,-100.5 14.5,-100.5"/>
<text text-anchor="middle" x="32" y="-107.5" font-family="Helvetica,sans-Serif" font-size="10.00">float</text>
</a>
</g>
</g>
<!-- Node2&#45;&gt;Node1 -->
<g id="edge1" class="edge">
<title>Node2&#45;&gt;Node1</title>
<path fill="none" stroke="#9a32cd" stroke-dasharray="5,2" d="M27.67,-90.34C25.2,-75.25 24.13,-53.98 33,-38 37.46,-29.97 45.43,-23.96 53.23,-19.67"/>
<polygon fill="#9a32cd" stroke="#9a32cd" points="24.3,-91.35 29.69,-100.47 31.16,-89.98 24.3,-91.35"/>
<text text-anchor="middle" x="65" y="-63" font-family="Helvetica,sans-Serif" font-size="10.00"> spawnInterval</text>
<text text-anchor="middle" x="65" y="-52" font-family="Helvetica,sans-Serif" font-size="10.00">time</text>
</g>
<!-- Node3 -->
<g id="node3" class="node">
<title>Node3</title>
<g id="a_node3"><a xlink:title=" ">
<polygon fill="white" stroke="#bfbfbf" points="104.5,-100.5 104.5,-119.5 133.5,-119.5 133.5,-100.5 104.5,-100.5"/>
<text text-anchor="middle" x="119" y="-107.5" font-family="Helvetica,sans-Serif" font-size="10.00">int</text>
</a>
</g>
</g>
<!-- Node3&#45;&gt;Node1 -->
<g id="edge2" class="edge">
<title>Node3&#45;&gt;Node1</title>
<path fill="none" stroke="#9a32cd" stroke-dasharray="5,2" d="M115.28,-90.33C111.86,-75.54 105.94,-54.68 97,-38 93.46,-31.39 88.19,-24.85 83.69,-19.86"/>
<polygon fill="#9a32cd" stroke="#9a32cd" points="111.9,-91.24 117.42,-100.28 118.74,-89.76 111.9,-91.24"/>
<text text-anchor="middle" x="154.5" y="-74" font-family="Helvetica,sans-Serif" font-size="10.00"> enemyBulletPatern</text>
<text text-anchor="middle" x="154.5" y="-63" font-family="Helvetica,sans-Serif" font-size="10.00">enemyColor</text>
<text text-anchor="middle" x="154.5" y="-52" font-family="Helvetica,sans-Serif" font-size="10.00">enemyPatern</text>
<text text-anchor="middle" x="154.5" y="-41" font-family="Helvetica,sans-Serif" font-size="10.00">spawnCount</text>
</g>
</g>
</svg>
