<?xml version="1.0" encoding="UTF-8" standalone="no"?>
<!DOCTYPE svg PUBLIC "-//W3C//DTD SVG 1.1//EN"
 "http://www.w3.org/Graphics/SVG/1.1/DTD/svg11.dtd">
<!-- Generated by graphviz version 2.49.3 (20211027.1534)
 -->
<!-- Title: LevelManager::LevelSequence Pages: 1 -->
<svg width="399pt" height="317pt"
 viewBox="0.00 0.00 399.24 317.00" xmlns="http://www.w3.org/2000/svg" xmlns:xlink="http://www.w3.org/1999/xlink">
<g id="graph0" class="graph" transform="scale(1 1) rotate(0) translate(4 313)">
<title>LevelManager::LevelSequence</title>
<polygon fill="white" stroke="transparent" points="-4,4 -4,-313 395.24,-313 395.24,4 -4,4"/>
<!-- Node1 -->
<g id="node1" class="node">
<title>Node1</title>
<g id="a_node1"><a xlink:title=" ">
<polygon fill="#bfbfbf" stroke="black" points="100.24,-0.5 100.24,-19.5 250.24,-19.5 250.24,-0.5 100.24,-0.5"/>
<text text-anchor="middle" x="175.24" y="-7.5" font-family="Helvetica,sans-Serif" font-size="10.00">LevelManager::LevelSequence</text>
</a>
</g>
</g>
<!-- Node2 -->
<g id="node2" class="node">
<title>Node2</title>
<g id="a_node2"><a xlink:title=" ">
<polygon fill="white" stroke="#bfbfbf" points="34.74,-289.5 34.74,-308.5 69.74,-308.5 69.74,-289.5 34.74,-289.5"/>
<text text-anchor="middle" x="52.24" y="-296.5" font-family="Helvetica,sans-Serif" font-size="10.00">float</text>
</a>
</g>
</g>
<!-- Node2&#45;&gt;Node1 -->
<g id="edge1" class="edge">
<title>Node2&#45;&gt;Node1</title>
<path fill="none" stroke="#9a32cd" stroke-dasharray="5,2" d="M39.67,-280.69C19.4,-250.47 -15.9,-186.68 8.24,-138 38.98,-76 116.08,-36.07 153.79,-19.61"/>
<polygon fill="#9a32cd" stroke="#9a32cd" points="37.05,-283.04 45.63,-289.26 42.79,-279.05 37.05,-283.04"/>
<text text-anchor="middle" x="40.24" y="-152" font-family="Helvetica,sans-Serif" font-size="10.00"> spawnInterval</text>
<text text-anchor="middle" x="40.24" y="-141" font-family="Helvetica,sans-Serif" font-size="10.00">time</text>
</g>
<!-- Node4 -->
<g id="node4" class="node">
<title>Node4</title>
<g id="a_node4"><a xlink:href="../../d7/d74/struct_sequence_move_patern_1_1_sequence_patern.html" target="_top" xlink:title="The datas of SequenceMovePatern.">
<polygon fill="white" stroke="black" points="118.74,-89.5 118.74,-119.5 231.74,-119.5 231.74,-89.5 118.74,-89.5"/>
<text text-anchor="start" x="126.74" y="-107.5" font-family="Helvetica,sans-Serif" font-size="10.00">SequenceMovePatern</text>
<text text-anchor="middle" x="175.24" y="-96.5" font-family="Helvetica,sans-Serif" font-size="10.00">::SequencePatern</text>
</a>
</g>
</g>
<!-- Node2&#45;&gt;Node4 -->
<g id="edge8" class="edge">
<title>Node2&#45;&gt;Node4</title>
<path fill="none" stroke="#9a32cd" stroke-dasharray="5,2" d="M48.79,-279.43C45.18,-254.45 42.34,-209.55 61.24,-178 77.99,-150.03 110.16,-131.06 136.06,-119.56"/>
<polygon fill="#9a32cd" stroke="#9a32cd" points="45.35,-280.08 50.43,-289.38 52.26,-278.94 45.35,-280.08"/>
<text text-anchor="middle" x="85.24" y="-196.5" font-family="Helvetica,sans-Serif" font-size="10.00"> orientation</text>
<text text-anchor="middle" x="85.24" y="-185.5" font-family="Helvetica,sans-Serif" font-size="10.00">time</text>
</g>
<!-- Node5 -->
<g id="node5" class="node">
<title>Node5</title>
<g id="a_node5"><a xlink:href="../../d1/dfd/struct_a_offsetable_patern_1_1_i_offserable_patern_data.html" target="_top" xlink:title="Datas for AOffsetablePatern.">
<polygon fill="white" stroke="black" points="118.74,-178.5 118.74,-208.5 231.74,-208.5 231.74,-178.5 118.74,-178.5"/>
<text text-anchor="start" x="126.74" y="-196.5" font-family="Helvetica,sans-Serif" font-size="10.00">AOffsetablePatern::</text>
<text text-anchor="middle" x="175.24" y="-185.5" font-family="Helvetica,sans-Serif" font-size="10.00">IOffserablePaternData</text>
</a>
</g>
</g>
<!-- Node2&#45;&gt;Node5 -->
<g id="edge7" class="edge">
<title>Node2&#45;&gt;Node5</title>
<path fill="none" stroke="#9a32cd" stroke-dasharray="5,2" d="M60.31,-280.18C68.26,-264.38 81.73,-241.6 99.24,-227 108.38,-219.37 119.59,-213.27 130.56,-208.52"/>
<polygon fill="#9a32cd" stroke="#9a32cd" points="57.06,-278.87 55.91,-289.4 63.38,-281.89 57.06,-278.87"/>
<text text-anchor="middle" x="129.74" y="-246.5" font-family="Helvetica,sans-Serif" font-size="10.00"> rotationOffset</text>
</g>
<!-- Node3 -->
<g id="node3" class="node">
<title>Node3</title>
<g id="a_node3"><a xlink:title=" ">
<polygon fill="white" stroke="#bfbfbf" points="249.74,-95 249.74,-114 278.74,-114 278.74,-95 249.74,-95"/>
<text text-anchor="middle" x="264.24" y="-102" font-family="Helvetica,sans-Serif" font-size="10.00">int</text>
</a>
</g>
</g>
<!-- Node3&#45;&gt;Node1 -->
<g id="edge2" class="edge">
<title>Node3&#45;&gt;Node1</title>
<path fill="none" stroke="#9a32cd" stroke-dasharray="5,2" d="M261.14,-84.45C257.91,-70.07 251.51,-50.71 239.24,-38 231.11,-29.59 219.95,-23.67 209.23,-19.57"/>
<polygon fill="#9a32cd" stroke="#9a32cd" points="257.78,-85.53 263.11,-94.69 264.66,-84.21 257.78,-85.53"/>
<text text-anchor="middle" x="299.74" y="-63" font-family="Helvetica,sans-Serif" font-size="10.00"> enemyBulletPatern</text>
<text text-anchor="middle" x="299.74" y="-52" font-family="Helvetica,sans-Serif" font-size="10.00">enemyColor</text>
<text text-anchor="middle" x="299.74" y="-41" font-family="Helvetica,sans-Serif" font-size="10.00">spawnCount</text>
</g>
<!-- Node4&#45;&gt;Node1 -->
<g id="edge3" class="edge">
<title>Node4&#45;&gt;Node1</title>
<path fill="none" stroke="#9a32cd" stroke-dasharray="5,2" d="M175.24,-79.38C175.24,-59.74 175.24,-33.12 175.24,-19.62"/>
<polygon fill="#9a32cd" stroke="#9a32cd" points="171.74,-79.45 175.24,-89.45 178.74,-79.45 171.74,-79.45"/>
<text text-anchor="middle" x="205.24" y="-52" font-family="Helvetica,sans-Serif" font-size="10.00"> enemyPatern</text>
</g>
<!-- Node5&#45;&gt;Node4 -->
<g id="edge4" class="edge">
<title>Node5&#45;&gt;Node4</title>
<path fill="none" stroke="midnightblue" d="M175.24,-168.09C175.24,-152.44 175.24,-132.68 175.24,-119.6"/>
<polygon fill="midnightblue" stroke="midnightblue" points="171.74,-168.13 175.24,-178.13 178.74,-168.13 171.74,-168.13"/>
</g>
<!-- Node6 -->
<g id="node6" class="node">
<title>Node6</title>
<g id="a_node6"><a xlink:href="../../da/dd8/struct_a_patern_1_1_i_patern_data.html" target="_top" xlink:title="Datas to pass to the patern. &#160;Overriden by the child classes.">
<polygon fill="white" stroke="black" points="107.24,-289.5 107.24,-308.5 215.24,-308.5 215.24,-289.5 107.24,-289.5"/>
<text text-anchor="middle" x="161.24" y="-296.5" font-family="Helvetica,sans-Serif" font-size="10.00">APatern::IPaternData</text>
</a>
</g>
</g>
<!-- Node6&#45;&gt;Node5 -->
<g id="edge5" class="edge">
<title>Node6&#45;&gt;Node5</title>
<path fill="none" stroke="midnightblue" d="M163.81,-279C166.55,-258.74 170.83,-227.11 173.3,-208.84"/>
<polygon fill="midnightblue" stroke="midnightblue" points="160.3,-278.8 162.43,-289.18 167.24,-279.74 160.3,-278.8"/>
</g>
<!-- Node7 -->
<g id="node7" class="node">
<title>Node7</title>
<g id="a_node7"><a xlink:title=" ">
<polygon fill="white" stroke="#bfbfbf" points="240.24,-289.5 240.24,-308.5 290.24,-308.5 290.24,-289.5 240.24,-289.5"/>
<text text-anchor="middle" x="265.24" y="-296.5" font-family="Helvetica,sans-Serif" font-size="10.00">Vector2</text>
</a>
</g>
</g>
<!-- Node7&#45;&gt;Node4 -->
<g id="edge9" class="edge">
<title>Node7&#45;&gt;Node4</title>
<path fill="none" stroke="#9a32cd" stroke-dasharray="5,2" d="M265.26,-279.27C264.48,-254.43 260.26,-210.01 241.24,-178 227.67,-155.17 206.13,-133.25 191.37,-119.6"/>
<polygon fill="#9a32cd" stroke="#9a32cd" points="261.76,-279.52 265.41,-289.47 268.76,-279.42 261.76,-279.52"/>
<text text-anchor="middle" x="274.24" y="-196.5" font-family="Helvetica,sans-Serif" font-size="10.00"> direction</text>
<text text-anchor="middle" x="274.24" y="-185.5" font-family="Helvetica,sans-Serif" font-size="10.00">position</text>
</g>
<!-- Node7&#45;&gt;Node5 -->
<g id="edge6" class="edge">
<title>Node7&#45;&gt;Node5</title>
<path fill="none" stroke="#9a32cd" stroke-dasharray="5,2" d="M230.34,-287.83C215.45,-282.84 200.33,-276.7 195.24,-271 179.69,-253.6 175.97,-225.57 175.23,-208.71"/>
<polygon fill="#9a32cd" stroke="#9a32cd" points="229.4,-291.2 239.99,-290.92 231.53,-284.54 229.4,-291.2"/>
<text text-anchor="middle" x="226.74" y="-263" font-family="Helvetica,sans-Serif" font-size="10.00"> positionOffset</text>
<text text-anchor="middle" x="226.74" y="-252" font-family="Helvetica,sans-Serif" font-size="10.00">rotationCenter</text>
<text text-anchor="middle" x="226.74" y="-241" font-family="Helvetica,sans-Serif" font-size="10.00">scaleCenter</text>
<text text-anchor="middle" x="226.74" y="-230" font-family="Helvetica,sans-Serif" font-size="10.00">scaleOffset</text>
</g>
<!-- Node8 -->
<g id="node8" class="node">
<title>Node8</title>
<g id="a_node8"><a xlink:title=" ">
<polygon fill="white" stroke="#bfbfbf" points="330.24,-184 330.24,-203 380.24,-203 380.24,-184 330.24,-184"/>
<text text-anchor="middle" x="355.24" y="-191" font-family="Helvetica,sans-Serif" font-size="10.00">vector&lt;</text>
</a>
</g>
</g>
<!-- Node8&#45;&gt;Node4 -->
<g id="edge10" class="edge">
<title>Node8&#45;&gt;Node4</title>
<path fill="none" stroke="#9a32cd" stroke-dasharray="5,2" d="M339.32,-176.97C326.08,-164.83 306.23,-148.32 286.24,-138 269.38,-129.29 249.84,-122.59 231.9,-117.59"/>
<polygon fill="#9a32cd" stroke="#9a32cd" points="336.97,-179.57 346.65,-183.88 341.77,-174.47 336.97,-179.57"/>
<text text-anchor="middle" x="354.74" y="-152" font-family="Helvetica,sans-Serif" font-size="10.00"> paternSequence</text>
<text text-anchor="middle" x="354.74" y="-141" font-family="Helvetica,sans-Serif" font-size="10.00">sequenceDone</text>
</g>
</g>
</svg>
