<?xml version="1.0" encoding="UTF-8" standalone="no"?>
<!DOCTYPE svg PUBLIC "-//W3C//DTD SVG 1.1//EN"
 "http://www.w3.org/Graphics/SVG/1.1/DTD/svg11.dtd">
<!-- Generated by graphviz version 2.49.3 (20211027.1534)
 -->
<!-- Title: RayLib_SHMUP/include/Shmup/Collision/Collider.h Pages: 1 -->
<svg width="275pt" height="162pt"
 viewBox="0.00 0.00 274.81 162.00" xmlns="http://www.w3.org/2000/svg" xmlns:xlink="http://www.w3.org/1999/xlink">
<g id="graph0" class="graph" transform="scale(1 1) rotate(0) translate(4 158)">
<title>RayLib_SHMUP/include/Shmup/Collision/Collider.h</title>
<polygon fill="white" stroke="transparent" points="-4,4 -4,-158 270.81,-158 270.81,4 -4,4"/>
<!-- Node1 -->
<g id="node1" class="node">
<title>Node1</title>
<g id="a_node1"><a xlink:title=" ">
<polygon fill="#bfbfbf" stroke="black" points="3.31,-123.5 3.31,-153.5 136.31,-153.5 136.31,-123.5 3.31,-123.5"/>
<text text-anchor="start" x="11.31" y="-141.5" font-family="Helvetica,sans-Serif" font-size="10.00">RayLib_SHMUP/include</text>
<text text-anchor="middle" x="69.81" y="-130.5" font-family="Helvetica,sans-Serif" font-size="10.00">/Shmup/Collision/Collider.h</text>
</a>
</g>
</g>
<!-- Node2 -->
<g id="node2" class="node">
<title>Node2</title>
<g id="a_node2"><a xlink:title=" ">
<polygon fill="white" stroke="#bfbfbf" points="4.31,-0.5 4.31,-19.5 51.31,-19.5 51.31,-0.5 4.31,-0.5"/>
<text text-anchor="middle" x="27.81" y="-7.5" font-family="Helvetica,sans-Serif" font-size="10.00">raylib.h</text>
</a>
</g>
</g>
<!-- Node1&#45;&gt;Node2 -->
<g id="edge1" class="edge">
<title>Node1&#45;&gt;Node2</title>
<path fill="none" stroke="midnightblue" d="M40.9,-123.45C26.96,-114.99 11.61,-102.78 3.81,-87 -5.72,-67.71 5.18,-43.82 15.21,-28.03"/>
<polygon fill="midnightblue" stroke="midnightblue" points="18.1,-30 20.85,-19.76 12.32,-26.05 18.1,-30"/>
</g>
<!-- Node3 -->
<g id="node3" class="node">
<title>Node3</title>
<g id="a_node3"><a xlink:href="../../da/d02/_transform2_d_8h.html" target="_top" xlink:title=" ">
<polygon fill="white" stroke="black" points="12.81,-62 12.81,-81 126.81,-81 126.81,-62 12.81,-62"/>
<text text-anchor="middle" x="69.81" y="-69" font-family="Helvetica,sans-Serif" font-size="10.00">Shmup/Transform2D.h</text>
</a>
</g>
</g>
<!-- Node1&#45;&gt;Node3 -->
<g id="edge2" class="edge">
<title>Node1&#45;&gt;Node3</title>
<path fill="none" stroke="midnightblue" d="M69.81,-123.4C69.81,-114.06 69.81,-101.71 69.81,-91.52"/>
<polygon fill="midnightblue" stroke="midnightblue" points="73.31,-91.19 69.81,-81.19 66.31,-91.19 73.31,-91.19"/>
</g>
<!-- Node4 -->
<g id="node4" class="node">
<title>Node4</title>
<g id="a_node4"><a xlink:href="../../de/d60/_collider_settings_8h.html" target="_top" xlink:title=" ">
<polygon fill="white" stroke="black" points="144.81,-56.5 144.81,-86.5 266.81,-86.5 266.81,-56.5 144.81,-56.5"/>
<text text-anchor="start" x="152.81" y="-74.5" font-family="Helvetica,sans-Serif" font-size="10.00">Shmup/Collision/Collider</text>
<text text-anchor="middle" x="205.81" y="-63.5" font-family="Helvetica,sans-Serif" font-size="10.00">Settings.h</text>
</a>
</g>
</g>
<!-- Node1&#45;&gt;Node4 -->
<g id="edge4" class="edge">
<title>Node1&#45;&gt;Node4</title>
<path fill="none" stroke="midnightblue" d="M99.32,-123.4C119.19,-113.9 145.6,-101.28 167.15,-90.98"/>
<polygon fill="midnightblue" stroke="midnightblue" points="168.84,-94.05 176.36,-86.58 165.83,-87.73 168.84,-94.05"/>
</g>
<!-- Node3&#45;&gt;Node2 -->
<g id="edge3" class="edge">
<title>Node3&#45;&gt;Node2</title>
<path fill="none" stroke="midnightblue" d="M63.79,-61.98C57.56,-53.14 47.64,-39.09 39.79,-27.98"/>
<polygon fill="midnightblue" stroke="midnightblue" points="42.44,-25.66 33.82,-19.51 36.72,-29.7 42.44,-25.66"/>
</g>
<!-- Node5 -->
<g id="node5" class="node">
<title>Node5</title>
<g id="a_node5"><a xlink:title=" ">
<polygon fill="white" stroke="#bfbfbf" points="183.81,-0.5 183.81,-19.5 227.81,-19.5 227.81,-0.5 183.81,-0.5"/>
<text text-anchor="middle" x="205.81" y="-7.5" font-family="Helvetica,sans-Serif" font-size="10.00">vector</text>
</a>
</g>
</g>
<!-- Node4&#45;&gt;Node5 -->
<g id="edge5" class="edge">
<title>Node4&#45;&gt;Node5</title>
<path fill="none" stroke="midnightblue" d="M205.81,-56.4C205.81,-48.47 205.81,-38.46 205.81,-29.86"/>
<polygon fill="midnightblue" stroke="midnightblue" points="209.31,-29.66 205.81,-19.66 202.31,-29.66 209.31,-29.66"/>
</g>
</g>
</svg>
