<?xml version="1.0" encoding="UTF-8" standalone="no"?>
<!DOCTYPE svg PUBLIC "-//W3C//DTD SVG 1.1//EN"
 "http://www.w3.org/Graphics/SVG/1.1/DTD/svg11.dtd">
<!-- Generated by graphviz version 2.49.3 (20211027.1534)
 -->
<!-- Title: RayLib_SHMUP/include/Shmup/Collision/Collider.h Pages: 1 -->
<svg width="354pt" height="162pt"
 viewBox="0.00 0.00 354.07 162.00" xmlns="http://www.w3.org/2000/svg" xmlns:xlink="http://www.w3.org/1999/xlink">
<g id="graph0" class="graph" transform="scale(1 1) rotate(0) translate(4 158)">
<title>RayLib_SHMUP/include/Shmup/Collision/Collider.h</title>
<polygon fill="white" stroke="transparent" points="-4,4 -4,-158 350.07,-158 350.07,4 -4,4"/>
<!-- Node1 -->
<g id="node1" class="node">
<title>Node1</title>
<g id="a_node1"><a xlink:title=" ">
<polygon fill="#bfbfbf" stroke="black" points="29.57,-123.5 29.57,-153.5 162.57,-153.5 162.57,-123.5 29.57,-123.5"/>
<text text-anchor="start" x="37.57" y="-141.5" font-family="Helvetica,sans-Serif" font-size="10.00">RayLib_SHMUP/include</text>
<text text-anchor="middle" x="96.07" y="-130.5" font-family="Helvetica,sans-Serif" font-size="10.00">/Shmup/Collision/Collider.h</text>
</a>
</g>
</g>
<!-- Node2 -->
<g id="node2" class="node">
<title>Node2</title>
<g id="a_node2"><a xlink:title=" ">
<polygon fill="white" stroke="#bfbfbf" points="44.57,-0.5 44.57,-19.5 91.57,-19.5 91.57,-0.5 44.57,-0.5"/>
<text text-anchor="middle" x="68.07" y="-7.5" font-family="Helvetica,sans-Serif" font-size="10.00">raylib.h</text>
</a>
</g>
</g>
<!-- Node1&#45;&gt;Node2 -->
<g id="edge1" class="edge">
<title>Node1&#45;&gt;Node2</title>
<path fill="none" stroke="midnightblue" d="M50.4,-123.46C33.04,-115.65 15.06,-103.97 5.07,-87 -1.92,-75.13 -1.23,-68.25 5.07,-56 12.15,-42.25 25.59,-31.77 38.25,-24.39"/>
<polygon fill="midnightblue" stroke="midnightblue" points="40.07,-27.39 47.22,-19.57 36.76,-21.22 40.07,-27.39"/>
</g>
<!-- Node3 -->
<g id="node3" class="node">
<title>Node3</title>
<g id="a_node3"><a xlink:title=" ">
<polygon fill="white" stroke="#bfbfbf" points="14.57,-62 14.57,-81 73.57,-81 73.57,-62 14.57,-62"/>
<text text-anchor="middle" x="44.07" y="-69" font-family="Helvetica,sans-Serif" font-size="10.00">raymath.h</text>
</a>
</g>
</g>
<!-- Node1&#45;&gt;Node3 -->
<g id="edge2" class="edge">
<title>Node1&#45;&gt;Node3</title>
<path fill="none" stroke="midnightblue" d="M84.79,-123.4C76.76,-113.36 65.94,-99.84 57.47,-89.25"/>
<polygon fill="midnightblue" stroke="midnightblue" points="60.01,-86.82 51.03,-81.19 54.54,-91.19 60.01,-86.82"/>
</g>
<!-- Node4 -->
<g id="node4" class="node">
<title>Node4</title>
<g id="a_node4"><a xlink:href="../../da/d02/_transform2_d_8h.html" target="_top" xlink:title=" ">
<polygon fill="white" stroke="black" points="92.07,-62 92.07,-81 206.07,-81 206.07,-62 92.07,-62"/>
<text text-anchor="middle" x="149.07" y="-69" font-family="Helvetica,sans-Serif" font-size="10.00">Shmup/Transform2D.h</text>
</a>
</g>
</g>
<!-- Node1&#45;&gt;Node4 -->
<g id="edge3" class="edge">
<title>Node1&#45;&gt;Node4</title>
<path fill="none" stroke="midnightblue" d="M107.57,-123.4C115.75,-113.36 126.78,-99.84 135.41,-89.25"/>
<polygon fill="midnightblue" stroke="midnightblue" points="138.37,-91.16 141.98,-81.19 132.95,-86.73 138.37,-91.16"/>
</g>
<!-- Node5 -->
<g id="node5" class="node">
<title>Node5</title>
<g id="a_node5"><a xlink:href="../../de/d60/_collider_settings_8h.html" target="_top" xlink:title=" ">
<polygon fill="white" stroke="black" points="224.07,-56.5 224.07,-86.5 346.07,-86.5 346.07,-56.5 224.07,-56.5"/>
<text text-anchor="start" x="232.07" y="-74.5" font-family="Helvetica,sans-Serif" font-size="10.00">Shmup/Collision/Collider</text>
<text text-anchor="middle" x="285.07" y="-63.5" font-family="Helvetica,sans-Serif" font-size="10.00">Settings.h</text>
</a>
</g>
</g>
<!-- Node1&#45;&gt;Node5 -->
<g id="edge5" class="edge">
<title>Node1&#45;&gt;Node5</title>
<path fill="none" stroke="midnightblue" d="M137.08,-123.4C165.69,-113.56 204.04,-100.37 234.54,-89.88"/>
<polygon fill="midnightblue" stroke="midnightblue" points="235.82,-93.14 244.14,-86.58 233.55,-86.52 235.82,-93.14"/>
</g>
<!-- Node4&#45;&gt;Node2 -->
<g id="edge4" class="edge">
<title>Node4&#45;&gt;Node2</title>
<path fill="none" stroke="midnightblue" d="M137.47,-61.98C124.59,-52.52 103.6,-37.1 88.07,-25.69"/>
<polygon fill="midnightblue" stroke="midnightblue" points="89.79,-22.61 79.65,-19.51 85.64,-28.25 89.79,-22.61"/>
</g>
<!-- Node6 -->
<g id="node6" class="node">
<title>Node6</title>
<g id="a_node6"><a xlink:title=" ">
<polygon fill="white" stroke="#bfbfbf" points="263.07,-0.5 263.07,-19.5 307.07,-19.5 307.07,-0.5 263.07,-0.5"/>
<text text-anchor="middle" x="285.07" y="-7.5" font-family="Helvetica,sans-Serif" font-size="10.00">vector</text>
</a>
</g>
</g>
<!-- Node5&#45;&gt;Node6 -->
<g id="edge6" class="edge">
<title>Node5&#45;&gt;Node6</title>
<path fill="none" stroke="midnightblue" d="M285.07,-56.4C285.07,-48.47 285.07,-38.46 285.07,-29.86"/>
<polygon fill="midnightblue" stroke="midnightblue" points="288.57,-29.66 285.07,-19.66 281.57,-29.66 288.57,-29.66"/>
</g>
</g>
</svg>
