<?xml version="1.0" encoding="UTF-8" standalone="no"?>
<!DOCTYPE svg PUBLIC "-//W3C//DTD SVG 1.1//EN"
 "http://www.w3.org/Graphics/SVG/1.1/DTD/svg11.dtd">
<!-- Generated by graphviz version 2.49.3 (20211027.1534)
 -->
<!-- Title: RayLib_SHMUP/src/Namespaces/Controller.cpp Pages: 1 -->
<svg width="440pt" height="151pt"
 viewBox="0.00 0.00 440.00 151.00" xmlns="http://www.w3.org/2000/svg" xmlns:xlink="http://www.w3.org/1999/xlink">
<g id="graph0" class="graph" transform="scale(1 1) rotate(0) translate(4 147)">
<title>RayLib_SHMUP/src/Namespaces/Controller.cpp</title>
<polygon fill="white" stroke="transparent" points="-4,4 -4,-147 436,-147 436,4 -4,4"/>
<!-- Node1 -->
<g id="node1" class="node">
<title>Node1</title>
<g id="a_node1"><a xlink:title=" ">
<polygon fill="#bfbfbf" stroke="black" points="90,-112.5 90,-142.5 256,-142.5 256,-112.5 90,-112.5"/>
<text text-anchor="start" x="98" y="-130.5" font-family="Helvetica,sans-Serif" font-size="10.00">RayLib_SHMUP/src/Namespaces</text>
<text text-anchor="middle" x="173" y="-119.5" font-family="Helvetica,sans-Serif" font-size="10.00">/Controller.cpp</text>
</a>
</g>
</g>
<!-- Node2 -->
<g id="node2" class="node">
<title>Node2</title>
<g id="a_node2"><a xlink:title=" ">
<polygon fill="white" stroke="#bfbfbf" points="0,-56.5 0,-75.5 54,-75.5 54,-56.5 0,-56.5"/>
<text text-anchor="middle" x="27" y="-63.5" font-family="Helvetica,sans-Serif" font-size="10.00">iostream</text>
</a>
</g>
</g>
<!-- Node1&#45;&gt;Node2 -->
<g id="edge1" class="edge">
<title>Node1&#45;&gt;Node2</title>
<path fill="none" stroke="midnightblue" d="M138.4,-112.4C113.9,-102.42 81.34,-89.15 57.75,-79.53"/>
<polygon fill="midnightblue" stroke="midnightblue" points="58.83,-76.19 48.24,-75.66 56.18,-82.67 58.83,-76.19"/>
</g>
<!-- Node3 -->
<g id="node3" class="node">
<title>Node3</title>
<g id="a_node3"><a xlink:title=" ">
<polygon fill="white" stroke="#bfbfbf" points="68.5,-0.5 68.5,-19.5 115.5,-19.5 115.5,-0.5 68.5,-0.5"/>
<text text-anchor="middle" x="92" y="-7.5" font-family="Helvetica,sans-Serif" font-size="10.00">raylib.h</text>
</a>
</g>
</g>
<!-- Node1&#45;&gt;Node3 -->
<g id="edge2" class="edge">
<title>Node1&#45;&gt;Node3</title>
<path fill="none" stroke="midnightblue" d="M142.08,-112.33C127.24,-103.91 110.63,-91.77 101,-76 92.56,-62.18 90.72,-43.66 90.75,-29.92"/>
<polygon fill="midnightblue" stroke="midnightblue" points="94.25,-29.84 91.11,-19.72 87.26,-29.59 94.25,-29.84"/>
</g>
<!-- Node4 -->
<g id="node4" class="node">
<title>Node4</title>
<g id="a_node4"><a xlink:title=" ">
<polygon fill="white" stroke="#bfbfbf" points="188.5,-0.5 188.5,-19.5 247.5,-19.5 247.5,-0.5 188.5,-0.5"/>
<text text-anchor="middle" x="218" y="-7.5" font-family="Helvetica,sans-Serif" font-size="10.00">raymath.h</text>
</a>
</g>
</g>
<!-- Node1&#45;&gt;Node4 -->
<g id="edge3" class="edge">
<title>Node1&#45;&gt;Node4</title>
<path fill="none" stroke="midnightblue" d="M205.59,-112.44C220.47,-104.16 236.62,-92.12 245,-76 253.32,-59.99 243.06,-40.83 232.89,-27.47"/>
<polygon fill="midnightblue" stroke="midnightblue" points="235.48,-25.11 226.41,-19.63 230.08,-29.56 235.48,-25.11"/>
</g>
<!-- Node5 -->
<g id="node5" class="node">
<title>Node5</title>
<g id="a_node5"><a xlink:href="../../d2/d94/_controller_8h.html" target="_top" xlink:title=" ">
<polygon fill="white" stroke="black" points="110,-56.5 110,-75.5 236,-75.5 236,-56.5 110,-56.5"/>
<text text-anchor="middle" x="173" y="-63.5" font-family="Helvetica,sans-Serif" font-size="10.00">Namespaces/Controller.h</text>
</a>
</g>
</g>
<!-- Node1&#45;&gt;Node5 -->
<g id="edge4" class="edge">
<title>Node1&#45;&gt;Node5</title>
<path fill="none" stroke="midnightblue" d="M173,-112.4C173,-104.47 173,-94.46 173,-85.86"/>
<polygon fill="midnightblue" stroke="midnightblue" points="176.5,-85.66 173,-75.66 169.5,-85.66 176.5,-85.66"/>
</g>
<!-- Node6 -->
<g id="node6" class="node">
<title>Node6</title>
<g id="a_node6"><a xlink:href="../../d5/daf/_game_status_8h.html" target="_top" xlink:title=" ">
<polygon fill="white" stroke="black" points="292,-56.5 292,-75.5 432,-75.5 432,-56.5 292,-56.5"/>
<text text-anchor="middle" x="362" y="-63.5" font-family="Helvetica,sans-Serif" font-size="10.00">Namespaces/GameStatus.h</text>
</a>
</g>
</g>
<!-- Node1&#45;&gt;Node6 -->
<g id="edge7" class="edge">
<title>Node1&#45;&gt;Node6</title>
<path fill="none" stroke="midnightblue" d="M217.79,-112.4C250.45,-102.12 294.18,-88.35 324.89,-78.68"/>
<polygon fill="midnightblue" stroke="midnightblue" points="326.29,-81.91 334.77,-75.57 324.19,-75.24 326.29,-81.91"/>
</g>
<!-- Node5&#45;&gt;Node3 -->
<g id="edge5" class="edge">
<title>Node5&#45;&gt;Node3</title>
<path fill="none" stroke="midnightblue" d="M159.99,-56.32C147.47,-47.98 128.32,-35.21 113.53,-25.35"/>
<polygon fill="midnightblue" stroke="midnightblue" points="115.24,-22.29 104.98,-19.65 111.36,-28.11 115.24,-22.29"/>
</g>
<!-- Node5&#45;&gt;Node4 -->
<g id="edge6" class="edge">
<title>Node5&#45;&gt;Node4</title>
<path fill="none" stroke="midnightblue" d="M180.43,-56.08C186.85,-48.38 196.31,-37.03 204.12,-27.65"/>
<polygon fill="midnightblue" stroke="midnightblue" points="206.99,-29.67 210.71,-19.75 201.62,-25.19 206.99,-29.67"/>
</g>
</g>
</svg>
