<?xml version="1.0" encoding="UTF-8" standalone="no"?>
<!DOCTYPE svg PUBLIC "-//W3C//DTD SVG 1.1//EN"
 "http://www.w3.org/Graphics/SVG/1.1/DTD/svg11.dtd">
<!-- Generated by graphviz version 2.49.3 (20211027.1534)
 -->
<!-- Title: RayLib_SHMUP/src/Shmup/Paterns/Enemy/SequenceMovePatern.cpp Pages: 1 -->
<svg width="797pt" height="285pt"
 viewBox="0.00 0.00 796.93 285.00" xmlns="http://www.w3.org/2000/svg" xmlns:xlink="http://www.w3.org/1999/xlink">
<g id="graph0" class="graph" transform="scale(1 1) rotate(0) translate(4 281)">
<title>RayLib_SHMUP/src/Shmup/Paterns/Enemy/SequenceMovePatern.cpp</title>
<polygon fill="white" stroke="transparent" points="-4,4 -4,-281 792.93,-281 792.93,4 -4,4"/>
<!-- Node1 -->
<g id="node1" class="node">
<title>Node1</title>
<g id="a_node1"><a xlink:title=" ">
<polygon fill="#bfbfbf" stroke="black" points="64.43,-246.5 64.43,-276.5 267.43,-276.5 267.43,-246.5 64.43,-246.5"/>
<text text-anchor="start" x="72.43" y="-264.5" font-family="Helvetica,sans-Serif" font-size="10.00">RayLib_SHMUP/src/Shmup</text>
<text text-anchor="middle" x="165.93" y="-253.5" font-family="Helvetica,sans-Serif" font-size="10.00">/Paterns/Enemy/SequenceMovePatern.cpp</text>
</a>
</g>
</g>
<!-- Node2 -->
<g id="node2" class="node">
<title>Node2</title>
<g id="a_node2"><a xlink:title=" ">
<polygon fill="white" stroke="#bfbfbf" points="223.43,-0.5 223.43,-19.5 270.43,-19.5 270.43,-0.5 223.43,-0.5"/>
<text text-anchor="middle" x="246.93" y="-7.5" font-family="Helvetica,sans-Serif" font-size="10.00">raylib.h</text>
</a>
</g>
</g>
<!-- Node1&#45;&gt;Node2 -->
<g id="edge1" class="edge">
<title>Node1&#45;&gt;Node2</title>
<path fill="none" stroke="midnightblue" d="M64.06,-249.87C40.32,-242.36 17.69,-230.03 2.93,-210 -2.35,-202.84 1.76,-198.81 2.93,-190 6.96,-159.43 1.38,-146.85 20.93,-123 71.33,-61.5 163.94,-30.9 213.52,-18.3"/>
<polygon fill="midnightblue" stroke="midnightblue" points="214.53,-21.66 223.41,-15.88 212.87,-14.86 214.53,-21.66"/>
</g>
<!-- Node3 -->
<g id="node3" class="node">
<title>Node3</title>
<g id="a_node3"><a xlink:title=" ">
<polygon fill="white" stroke="#bfbfbf" points="30.43,-129 30.43,-148 89.43,-148 89.43,-129 30.43,-129"/>
<text text-anchor="middle" x="59.93" y="-136" font-family="Helvetica,sans-Serif" font-size="10.00">raymath.h</text>
</a>
</g>
</g>
<!-- Node1&#45;&gt;Node3 -->
<g id="edge2" class="edge">
<title>Node1&#45;&gt;Node3</title>
<path fill="none" stroke="midnightblue" d="M64.14,-247.12C43.35,-239.53 23.9,-227.86 10.93,-210 -2.97,-190.86 19.19,-168.36 38.05,-154.02"/>
<polygon fill="midnightblue" stroke="midnightblue" points="40.27,-156.73 46.34,-148.04 36.18,-151.05 40.27,-156.73"/>
</g>
<!-- Node4 -->
<g id="node4" class="node">
<title>Node4</title>
<g id="a_node4"><a xlink:href="../../d5/daf/_game_status_8h.html" target="_top" xlink:title=" ">
<polygon fill="white" stroke="black" points="19.93,-190.5 19.93,-209.5 159.93,-209.5 159.93,-190.5 19.93,-190.5"/>
<text text-anchor="middle" x="89.93" y="-197.5" font-family="Helvetica,sans-Serif" font-size="10.00">Namespaces/GameStatus.h</text>
</a>
</g>
</g>
<!-- Node1&#45;&gt;Node4 -->
<g id="edge3" class="edge">
<title>Node1&#45;&gt;Node4</title>
<path fill="none" stroke="midnightblue" d="M147.92,-246.4C136.19,-237.22 120.91,-225.26 108.98,-215.92"/>
<polygon fill="midnightblue" stroke="midnightblue" points="111.02,-213.07 100.99,-209.66 106.7,-218.58 111.02,-213.07"/>
</g>
<!-- Node5 -->
<g id="node5" class="node">
<title>Node5</title>
<g id="a_node5"><a xlink:href="../../d2/da5/_math_utils_8h.html" target="_top" xlink:title=" ">
<polygon fill="white" stroke="black" points="178.43,-190.5 178.43,-209.5 305.43,-209.5 305.43,-190.5 178.43,-190.5"/>
<text text-anchor="middle" x="241.93" y="-197.5" font-family="Helvetica,sans-Serif" font-size="10.00">Namespaces/MathUtils.h</text>
</a>
</g>
</g>
<!-- Node1&#45;&gt;Node5 -->
<g id="edge4" class="edge">
<title>Node1&#45;&gt;Node5</title>
<path fill="none" stroke="midnightblue" d="M183.94,-246.4C195.67,-237.22 210.94,-225.26 222.87,-215.92"/>
<polygon fill="midnightblue" stroke="midnightblue" points="225.15,-218.58 230.87,-209.66 220.84,-213.07 225.15,-218.58"/>
</g>
<!-- Node6 -->
<g id="node6" class="node">
<title>Node6</title>
<g id="a_node6"><a xlink:href="../../db/d1b/_a_movable_8h.html" target="_top" xlink:title=" ">
<polygon fill="white" stroke="black" points="323.43,-190.5 323.43,-209.5 424.43,-209.5 424.43,-190.5 323.43,-190.5"/>
<text text-anchor="middle" x="373.93" y="-197.5" font-family="Helvetica,sans-Serif" font-size="10.00">Shmup/AMovable.h</text>
</a>
</g>
</g>
<!-- Node1&#45;&gt;Node6 -->
<g id="edge7" class="edge">
<title>Node1&#45;&gt;Node6</title>
<path fill="none" stroke="midnightblue" d="M214.96,-246.47C251.31,-236.08 300.24,-222.08 334.17,-212.37"/>
<polygon fill="midnightblue" stroke="midnightblue" points="335.54,-215.62 344.19,-209.51 333.61,-208.89 335.54,-215.62"/>
</g>
<!-- Node12 -->
<g id="node12" class="node">
<title>Node12</title>
<g id="a_node12"><a xlink:href="../../d1/d98/_sequence_move_patern_8h.html" target="_top" xlink:title=" ">
<polygon fill="white" stroke="black" points="636.43,-123.5 636.43,-153.5 759.43,-153.5 759.43,-123.5 636.43,-123.5"/>
<text text-anchor="start" x="644.43" y="-141.5" font-family="Helvetica,sans-Serif" font-size="10.00">Shmup/Paterns/Enemy</text>
<text text-anchor="middle" x="697.93" y="-130.5" font-family="Helvetica,sans-Serif" font-size="10.00">/SequenceMovePatern.h</text>
</a>
</g>
</g>
<!-- Node1&#45;&gt;Node12 -->
<g id="edge16" class="edge">
<title>Node1&#45;&gt;Node12</title>
<path fill="none" stroke="midnightblue" d="M248.64,-246.46C301.54,-237.09 371.51,-223.96 432.93,-210 504.6,-193.71 586.21,-171.43 639.7,-156.3"/>
<polygon fill="midnightblue" stroke="midnightblue" points="640.69,-159.66 649.35,-153.57 638.78,-152.93 640.69,-159.66"/>
</g>
<!-- Node5&#45;&gt;Node2 -->
<g id="edge5" class="edge">
<title>Node5&#45;&gt;Node2</title>
<path fill="none" stroke="midnightblue" d="M226.14,-190.47C213.73,-182.77 197.32,-170.18 189.93,-154 171.82,-114.39 170.93,-95.2 189.93,-56 196.32,-42.8 208.68,-32.3 220.26,-24.78"/>
<polygon fill="midnightblue" stroke="midnightblue" points="222.08,-27.77 228.85,-19.61 218.47,-21.77 222.08,-27.77"/>
</g>
<!-- Node5&#45;&gt;Node3 -->
<g id="edge6" class="edge">
<title>Node5&#45;&gt;Node3</title>
<path fill="none" stroke="midnightblue" d="M215.85,-190.48C184.36,-180.18 131.23,-162.81 95.87,-151.25"/>
<polygon fill="midnightblue" stroke="midnightblue" points="96.55,-147.79 85.96,-148.01 94.37,-154.44 96.55,-147.79"/>
</g>
<!-- Node6&#45;&gt;Node2 -->
<g id="edge8" class="edge">
<title>Node6&#45;&gt;Node2</title>
<path fill="none" stroke="midnightblue" d="M351.79,-190.38C316.84,-175.41 250.08,-140.94 222.93,-87 213.26,-67.78 224.19,-43.87 234.26,-28.06"/>
<polygon fill="midnightblue" stroke="midnightblue" points="237.17,-30.01 239.93,-19.78 231.39,-26.06 237.17,-30.01"/>
</g>
<!-- Node7 -->
<g id="node7" class="node">
<title>Node7</title>
<g id="a_node7"><a xlink:href="../../d7/daf/_a_graphic_object_8h.html" target="_top" xlink:title=" ">
<polygon fill="white" stroke="black" points="327.43,-129 327.43,-148 420.43,-148 420.43,-129 327.43,-129"/>
<text text-anchor="middle" x="373.93" y="-136" font-family="Helvetica,sans-Serif" font-size="10.00">AGraphicObject.h</text>
</a>
</g>
</g>
<!-- Node6&#45;&gt;Node7 -->
<g id="edge9" class="edge">
<title>Node6&#45;&gt;Node7</title>
<path fill="none" stroke="midnightblue" d="M373.93,-190.48C373.93,-182.08 373.93,-168.98 373.93,-158.16"/>
<polygon fill="midnightblue" stroke="midnightblue" points="377.43,-158.01 373.93,-148.01 370.43,-158.01 377.43,-158.01"/>
</g>
<!-- Node7&#45;&gt;Node2 -->
<g id="edge10" class="edge">
<title>Node7&#45;&gt;Node2</title>
<path fill="none" stroke="midnightblue" d="M374.34,-128.76C374.63,-112.49 372.95,-77.29 354.93,-56 336.21,-33.89 304.82,-22.45 280.7,-16.65"/>
<polygon fill="midnightblue" stroke="midnightblue" points="281.38,-13.22 270.86,-14.5 279.88,-20.05 281.38,-13.22"/>
</g>
<!-- Node8 -->
<g id="node8" class="node">
<title>Node8</title>
<g id="a_node8"><a xlink:href="../../dc/d80/_instance_list_8h.html" target="_top" xlink:title=" ">
<polygon fill="white" stroke="black" points="557.93,-62 557.93,-81 669.93,-81 669.93,-62 557.93,-62"/>
<text text-anchor="middle" x="613.93" y="-69" font-family="Helvetica,sans-Serif" font-size="10.00">Shmup/InstanceList.h</text>
</a>
</g>
</g>
<!-- Node7&#45;&gt;Node8 -->
<g id="edge11" class="edge">
<title>Node7&#45;&gt;Node8</title>
<path fill="none" stroke="midnightblue" d="M405.8,-128.87C448.68,-117.25 525.03,-96.58 572.38,-83.75"/>
<polygon fill="midnightblue" stroke="midnightblue" points="573.57,-87.06 582.31,-81.06 571.74,-80.3 573.57,-87.06"/>
</g>
<!-- Node11 -->
<g id="node11" class="node">
<title>Node11</title>
<g id="a_node11"><a xlink:href="../../da/d02/_transform2_d_8h.html" target="_top" xlink:title=" ">
<polygon fill="white" stroke="black" points="231.93,-62 231.93,-81 345.93,-81 345.93,-62 231.93,-62"/>
<text text-anchor="middle" x="288.93" y="-69" font-family="Helvetica,sans-Serif" font-size="10.00">Shmup/Transform2D.h</text>
</a>
</g>
</g>
<!-- Node7&#45;&gt;Node11 -->
<g id="edge14" class="edge">
<title>Node7&#45;&gt;Node11</title>
<path fill="none" stroke="midnightblue" d="M362.46,-128.73C348.57,-118.11 324.95,-100.05 308.23,-87.26"/>
<polygon fill="midnightblue" stroke="midnightblue" points="310.28,-84.42 300.21,-81.13 306.03,-89.98 310.28,-84.42"/>
</g>
<!-- Node9 -->
<g id="node9" class="node">
<title>Node9</title>
<g id="a_node9"><a xlink:title=" ">
<polygon fill="white" stroke="#bfbfbf" points="615.93,-0.5 615.93,-19.5 669.93,-19.5 669.93,-0.5 615.93,-0.5"/>
<text text-anchor="middle" x="642.93" y="-7.5" font-family="Helvetica,sans-Serif" font-size="10.00">iostream</text>
</a>
</g>
</g>
<!-- Node8&#45;&gt;Node9 -->
<g id="edge12" class="edge">
<title>Node8&#45;&gt;Node9</title>
<path fill="none" stroke="midnightblue" d="M618.08,-61.98C622.3,-53.32 628.96,-39.65 634.33,-28.65"/>
<polygon fill="midnightblue" stroke="midnightblue" points="637.55,-30.03 638.78,-19.51 631.25,-26.96 637.55,-30.03"/>
</g>
<!-- Node10 -->
<g id="node10" class="node">
<title>Node10</title>
<g id="a_node10"><a xlink:title=" ">
<polygon fill="white" stroke="#bfbfbf" points="744.93,-0.5 744.93,-19.5 788.93,-19.5 788.93,-0.5 744.93,-0.5"/>
<text text-anchor="middle" x="766.93" y="-7.5" font-family="Helvetica,sans-Serif" font-size="10.00">vector</text>
</a>
</g>
</g>
<!-- Node8&#45;&gt;Node10 -->
<g id="edge13" class="edge">
<title>Node8&#45;&gt;Node10</title>
<path fill="none" stroke="midnightblue" d="M635.85,-61.98C661.98,-51.81 705.84,-34.76 735.56,-23.2"/>
<polygon fill="midnightblue" stroke="midnightblue" points="737,-26.4 745.05,-19.51 734.46,-19.87 737,-26.4"/>
</g>
<!-- Node11&#45;&gt;Node2 -->
<g id="edge15" class="edge">
<title>Node11&#45;&gt;Node2</title>
<path fill="none" stroke="midnightblue" d="M282.91,-61.98C276.67,-53.14 266.76,-39.09 258.91,-27.98"/>
<polygon fill="midnightblue" stroke="midnightblue" points="261.56,-25.66 252.93,-19.51 255.84,-29.7 261.56,-25.66"/>
</g>
<!-- Node12&#45;&gt;Node9 -->
<g id="edge20" class="edge">
<title>Node12&#45;&gt;Node9</title>
<path fill="none" stroke="midnightblue" d="M696.55,-123.31C694.5,-106.53 689.65,-78.09 678.93,-56 673.87,-45.58 666.02,-35.38 658.94,-27.33"/>
<polygon fill="midnightblue" stroke="midnightblue" points="661.35,-24.78 652,-19.81 656.21,-29.53 661.35,-24.78"/>
</g>
<!-- Node12&#45;&gt;Node10 -->
<g id="edge22" class="edge">
<title>Node12&#45;&gt;Node10</title>
<path fill="none" stroke="midnightblue" d="M735.24,-123.36C751.08,-115.28 767.94,-103.42 776.93,-87 786.79,-69 781.14,-45.11 775.09,-28.95"/>
<polygon fill="midnightblue" stroke="midnightblue" points="778.27,-27.49 771.21,-19.59 771.8,-30.17 778.27,-27.49"/>
</g>
<!-- Node13 -->
<g id="node13" class="node">
<title>Node13</title>
<g id="a_node13"><a xlink:href="../../dc/d8f/_a_offsetable_patern_8h.html" target="_top" xlink:title=" ">
<polygon fill="white" stroke="black" points="401.93,-56.5 401.93,-86.5 539.93,-86.5 539.93,-56.5 401.93,-56.5"/>
<text text-anchor="start" x="409.93" y="-74.5" font-family="Helvetica,sans-Serif" font-size="10.00">Shmup/Paterns/AOffsetable</text>
<text text-anchor="middle" x="470.93" y="-63.5" font-family="Helvetica,sans-Serif" font-size="10.00">Patern.h</text>
</a>
</g>
</g>
<!-- Node12&#45;&gt;Node13 -->
<g id="edge17" class="edge">
<title>Node12&#45;&gt;Node13</title>
<path fill="none" stroke="midnightblue" d="M648.95,-123.48C614.02,-113.47 566.87,-99.97 529.87,-89.38"/>
<polygon fill="midnightblue" stroke="midnightblue" points="530.78,-86 520.21,-86.61 528.86,-92.73 530.78,-86"/>
</g>
<!-- Node15 -->
<g id="node15" class="node">
<title>Node15</title>
<g id="a_node15"><a xlink:title=" ">
<polygon fill="white" stroke="#bfbfbf" points="726.43,-62 726.43,-81 767.43,-81 767.43,-62 726.43,-62"/>
<text text-anchor="middle" x="746.93" y="-69" font-family="Helvetica,sans-Serif" font-size="10.00">string</text>
</a>
</g>
</g>
<!-- Node12&#45;&gt;Node15 -->
<g id="edge21" class="edge">
<title>Node12&#45;&gt;Node15</title>
<path fill="none" stroke="midnightblue" d="M708.56,-123.4C716.12,-113.36 726.32,-99.84 734.3,-89.25"/>
<polygon fill="midnightblue" stroke="midnightblue" points="737.15,-91.29 740.37,-81.19 731.56,-87.07 737.15,-91.29"/>
</g>
<!-- Node13&#45;&gt;Node2 -->
<g id="edge18" class="edge">
<title>Node13&#45;&gt;Node2</title>
<path fill="none" stroke="midnightblue" d="M418.13,-56.47C375.63,-45.19 317.17,-29.66 280.74,-19.98"/>
<polygon fill="midnightblue" stroke="midnightblue" points="281.2,-16.48 270.63,-17.3 279.4,-23.25 281.2,-16.48"/>
</g>
<!-- Node14 -->
<g id="node14" class="node">
<title>Node14</title>
<g id="a_node14"><a xlink:href="../../df/d50/_a_patern_8h.html" target="_top" xlink:title=" ">
<polygon fill="white" stroke="black" points="441.43,-0.5 441.43,-19.5 500.43,-19.5 500.43,-0.5 441.43,-0.5"/>
<text text-anchor="middle" x="470.93" y="-7.5" font-family="Helvetica,sans-Serif" font-size="10.00">APatern.h</text>
</a>
</g>
</g>
<!-- Node13&#45;&gt;Node14 -->
<g id="edge19" class="edge">
<title>Node13&#45;&gt;Node14</title>
<path fill="none" stroke="midnightblue" d="M470.93,-56.4C470.93,-48.47 470.93,-38.46 470.93,-29.86"/>
<polygon fill="midnightblue" stroke="midnightblue" points="474.43,-29.66 470.93,-19.66 467.43,-29.66 474.43,-29.66"/>
</g>
</g>
</svg>
