<?xml version="1.0" encoding="UTF-8" standalone="no"?>
<!DOCTYPE svg PUBLIC "-//W3C//DTD SVG 1.1//EN"
 "http://www.w3.org/Graphics/SVG/1.1/DTD/svg11.dtd">
<!-- Generated by graphviz version 2.49.3 (20211027.1534)
 -->
<!-- Title: RayLib_SHMUP/include/Shmup/Collision/CollisionManager.h Pages: 1 -->
<svg width="423pt" height="274pt"
 viewBox="0.00 0.00 423.41 274.00" xmlns="http://www.w3.org/2000/svg" xmlns:xlink="http://www.w3.org/1999/xlink">
<g id="graph0" class="graph" transform="scale(1 1) rotate(0) translate(4 270)">
<title>RayLib_SHMUP/include/Shmup/Collision/CollisionManager.h</title>
<polygon fill="white" stroke="transparent" points="-4,4 -4,-270 419.41,-270 419.41,4 -4,4"/>
<!-- Node1 -->
<g id="node1" class="node">
<title>Node1</title>
<g id="a_node1"><a xlink:title=" ">
<polygon fill="#bfbfbf" stroke="black" points="51.91,-235.5 51.91,-265.5 226.91,-265.5 226.91,-235.5 51.91,-235.5"/>
<text text-anchor="start" x="59.91" y="-253.5" font-family="Helvetica,sans-Serif" font-size="10.00">RayLib_SHMUP/include</text>
<text text-anchor="middle" x="139.41" y="-242.5" font-family="Helvetica,sans-Serif" font-size="10.00">/Shmup/Collision/CollisionManager.h</text>
</a>
</g>
</g>
<!-- Node2 -->
<g id="node2" class="node">
<title>Node2</title>
<g id="a_node2"><a xlink:title=" ">
<polygon fill="white" stroke="#bfbfbf" points="52.41,-0.5 52.41,-19.5 96.41,-19.5 96.41,-0.5 52.41,-0.5"/>
<text text-anchor="middle" x="74.41" y="-7.5" font-family="Helvetica,sans-Serif" font-size="10.00">vector</text>
</a>
</g>
</g>
<!-- Node1&#45;&gt;Node2 -->
<g id="edge1" class="edge">
<title>Node1&#45;&gt;Node2</title>
<path fill="none" stroke="midnightblue" d="M121.09,-235.42C89.66,-209.93 26.7,-152.64 4.41,-87 -0.02,-73.95 -2.19,-68.09 4.41,-56 12.7,-40.81 28.55,-29.99 43.08,-22.77"/>
<polygon fill="midnightblue" stroke="midnightblue" points="44.7,-25.87 52.34,-18.53 41.79,-19.51 44.7,-25.87"/>
</g>
<!-- Node3 -->
<g id="node3" class="node">
<title>Node3</title>
<g id="a_node3"><a xlink:title=" ">
<polygon fill="white" stroke="#bfbfbf" points="274.91,-179.5 274.91,-198.5 309.91,-198.5 309.91,-179.5 274.91,-179.5"/>
<text text-anchor="middle" x="292.41" y="-186.5" font-family="Helvetica,sans-Serif" font-size="10.00">map</text>
</a>
</g>
</g>
<!-- Node1&#45;&gt;Node3 -->
<g id="edge2" class="edge">
<title>Node1&#45;&gt;Node3</title>
<path fill="none" stroke="midnightblue" d="M175.67,-235.4C203.16,-224.71 240.35,-210.24 265.3,-200.54"/>
<polygon fill="midnightblue" stroke="midnightblue" points="266.8,-203.71 274.86,-196.83 264.27,-197.19 266.8,-203.71"/>
</g>
<!-- Node4 -->
<g id="node4" class="node">
<title>Node4</title>
<g id="a_node4"><a xlink:href="../../de/d60/_collider_settings_8h.html" target="_top" xlink:title=" ">
<polygon fill="white" stroke="black" points="13.41,-56.5 13.41,-86.5 135.41,-86.5 135.41,-56.5 13.41,-56.5"/>
<text text-anchor="start" x="21.41" y="-74.5" font-family="Helvetica,sans-Serif" font-size="10.00">Shmup/Collision/Collider</text>
<text text-anchor="middle" x="74.41" y="-63.5" font-family="Helvetica,sans-Serif" font-size="10.00">Settings.h</text>
</a>
</g>
</g>
<!-- Node1&#45;&gt;Node4 -->
<g id="edge3" class="edge">
<title>Node1&#45;&gt;Node4</title>
<path fill="none" stroke="midnightblue" d="M125.9,-235.14C117.63,-225.59 107.51,-212.38 101.41,-199 86.17,-165.57 79.38,-123.19 76.47,-96.97"/>
<polygon fill="midnightblue" stroke="midnightblue" points="79.92,-96.39 75.44,-86.79 72.96,-97.09 79.92,-96.39"/>
</g>
<!-- Node5 -->
<g id="node5" class="node">
<title>Node5</title>
<g id="a_node5"><a xlink:href="../../d3/d72/_a_collidable_8h.html" target="_top" xlink:title=" ">
<polygon fill="white" stroke="black" points="110.41,-179.5 110.41,-198.5 256.41,-198.5 256.41,-179.5 110.41,-179.5"/>
<text text-anchor="middle" x="183.41" y="-186.5" font-family="Helvetica,sans-Serif" font-size="10.00">Shmup/Collision/ACollidable.h</text>
</a>
</g>
</g>
<!-- Node1&#45;&gt;Node5 -->
<g id="edge5" class="edge">
<title>Node1&#45;&gt;Node5</title>
<path fill="none" stroke="midnightblue" d="M149.84,-235.4C156.16,-226.84 164.28,-215.87 170.94,-206.86"/>
<polygon fill="midnightblue" stroke="midnightblue" points="173.87,-208.78 177.01,-198.66 168.25,-204.62 173.87,-208.78"/>
</g>
<!-- Node4&#45;&gt;Node2 -->
<g id="edge4" class="edge">
<title>Node4&#45;&gt;Node2</title>
<path fill="none" stroke="midnightblue" d="M74.41,-56.4C74.41,-48.47 74.41,-38.46 74.41,-29.86"/>
<polygon fill="midnightblue" stroke="midnightblue" points="77.91,-29.66 74.41,-19.66 70.91,-29.66 77.91,-29.66"/>
</g>
<!-- Node6 -->
<g id="node6" class="node">
<title>Node6</title>
<g id="a_node6"><a xlink:href="../../d5/d36/_collider_8h.html" target="_top" xlink:title=" ">
<polygon fill="white" stroke="black" points="120.41,-123.5 120.41,-142.5 250.41,-142.5 250.41,-123.5 120.41,-123.5"/>
<text text-anchor="middle" x="185.41" y="-130.5" font-family="Helvetica,sans-Serif" font-size="10.00">Shmup/Collision/Collider.h</text>
</a>
</g>
</g>
<!-- Node5&#45;&gt;Node6 -->
<g id="edge6" class="edge">
<title>Node5&#45;&gt;Node6</title>
<path fill="none" stroke="midnightblue" d="M183.74,-179.08C184,-172.01 184.38,-161.86 184.71,-152.99"/>
<polygon fill="midnightblue" stroke="midnightblue" points="188.21,-152.87 185.08,-142.75 181.22,-152.61 188.21,-152.87"/>
</g>
<!-- Node9 -->
<g id="node9" class="node">
<title>Node9</title>
<g id="a_node9"><a xlink:href="../../dc/d80/_instance_list_8h.html" target="_top" xlink:title=" ">
<polygon fill="white" stroke="black" points="277.41,-123.5 277.41,-142.5 389.41,-142.5 389.41,-123.5 277.41,-123.5"/>
<text text-anchor="middle" x="333.41" y="-130.5" font-family="Helvetica,sans-Serif" font-size="10.00">Shmup/InstanceList.h</text>
</a>
</g>
</g>
<!-- Node5&#45;&gt;Node9 -->
<g id="edge11" class="edge">
<title>Node5&#45;&gt;Node9</title>
<path fill="none" stroke="midnightblue" d="M207.18,-179.44C232.3,-170.4 272.12,-156.06 300.31,-145.92"/>
<polygon fill="midnightblue" stroke="midnightblue" points="301.53,-149.2 309.75,-142.52 299.16,-142.61 301.53,-149.2"/>
</g>
<!-- Node6&#45;&gt;Node4 -->
<g id="edge10" class="edge">
<title>Node6&#45;&gt;Node4</title>
<path fill="none" stroke="midnightblue" d="M169.51,-123.48C153.91,-115.12 129.61,-102.09 109.48,-91.3"/>
<polygon fill="midnightblue" stroke="midnightblue" points="111.04,-88.16 100.57,-86.52 107.73,-94.33 111.04,-88.16"/>
</g>
<!-- Node7 -->
<g id="node7" class="node">
<title>Node7</title>
<g id="a_node7"><a xlink:title=" ">
<polygon fill="white" stroke="#bfbfbf" points="228.91,-0.5 228.91,-19.5 275.91,-19.5 275.91,-0.5 228.91,-0.5"/>
<text text-anchor="middle" x="252.41" y="-7.5" font-family="Helvetica,sans-Serif" font-size="10.00">raylib.h</text>
</a>
</g>
</g>
<!-- Node6&#45;&gt;Node7 -->
<g id="edge7" class="edge">
<title>Node6&#45;&gt;Node7</title>
<path fill="none" stroke="midnightblue" d="M223.38,-123.41C242.82,-116.88 264.79,-105.72 276.41,-87 287.88,-68.53 276.22,-44.09 265.51,-27.98"/>
<polygon fill="midnightblue" stroke="midnightblue" points="268.16,-25.66 259.49,-19.56 262.46,-29.73 268.16,-25.66"/>
</g>
<!-- Node8 -->
<g id="node8" class="node">
<title>Node8</title>
<g id="a_node8"><a xlink:href="../../da/d02/_transform2_d_8h.html" target="_top" xlink:title=" ">
<polygon fill="white" stroke="black" points="153.41,-62 153.41,-81 267.41,-81 267.41,-62 153.41,-62"/>
<text text-anchor="middle" x="210.41" y="-69" font-family="Helvetica,sans-Serif" font-size="10.00">Shmup/Transform2D.h</text>
</a>
</g>
</g>
<!-- Node6&#45;&gt;Node8 -->
<g id="edge8" class="edge">
<title>Node6&#45;&gt;Node8</title>
<path fill="none" stroke="midnightblue" d="M188.99,-123.48C192.59,-114.9 198.25,-101.43 202.85,-90.48"/>
<polygon fill="midnightblue" stroke="midnightblue" points="206.19,-91.58 206.83,-81.01 199.73,-88.87 206.19,-91.58"/>
</g>
<!-- Node8&#45;&gt;Node7 -->
<g id="edge9" class="edge">
<title>Node8&#45;&gt;Node7</title>
<path fill="none" stroke="midnightblue" d="M216.43,-61.98C222.66,-53.14 232.58,-39.09 240.43,-27.98"/>
<polygon fill="midnightblue" stroke="midnightblue" points="243.49,-29.7 246.4,-19.51 237.78,-25.66 243.49,-29.7"/>
</g>
<!-- Node9&#45;&gt;Node2 -->
<g id="edge13" class="edge">
<title>Node9&#45;&gt;Node2</title>
<path fill="none" stroke="midnightblue" d="M329.49,-123.35C321.77,-107.34 303.01,-73.17 276.41,-56 223.68,-21.96 148.85,-13.42 106.64,-11.43"/>
<polygon fill="midnightblue" stroke="midnightblue" points="106.76,-7.94 96.64,-11.06 106.5,-14.93 106.76,-7.94"/>
</g>
<!-- Node10 -->
<g id="node10" class="node">
<title>Node10</title>
<g id="a_node10"><a xlink:title=" ">
<polygon fill="white" stroke="#bfbfbf" points="361.41,-62 361.41,-81 415.41,-81 415.41,-62 361.41,-62"/>
<text text-anchor="middle" x="388.41" y="-69" font-family="Helvetica,sans-Serif" font-size="10.00">iostream</text>
</a>
</g>
</g>
<!-- Node9&#45;&gt;Node10 -->
<g id="edge12" class="edge">
<title>Node9&#45;&gt;Node10</title>
<path fill="none" stroke="midnightblue" d="M341.29,-123.48C349.7,-114.37 363.23,-99.74 373.63,-88.48"/>
<polygon fill="midnightblue" stroke="midnightblue" points="376.33,-90.73 380.54,-81.01 371.19,-85.98 376.33,-90.73"/>
</g>
</g>
</svg>
