<?xml version="1.0" encoding="UTF-8" standalone="no"?>
<!DOCTYPE svg PUBLIC "-//W3C//DTD SVG 1.1//EN"
 "http://www.w3.org/Graphics/SVG/1.1/DTD/svg11.dtd">
<!-- Generated by graphviz version 2.49.3 (20211027.1534)
 -->
<!-- Title: Shoot Pages: 1 -->
<!--zoomable 353 -->
<svg id="main" version="1.1" xmlns="http://www.w3.org/2000/svg" xmlns:xlink="http://www.w3.org/1999/xlink" xml:space="preserve" onload="init(evt)">
<style type="text/css"><![CDATA[
.edge:hover path { stroke: red; }
.edge:hover polygon { stroke: red; fill: red; }
]]></style>
<script type="text/javascript"><![CDATA[
var edges = document.getElementsByTagName('g');
if (edges && edges.length) {
  for (var i=0;i<edges.length;i++) {
    if (edges[i].id.substr(0,4)=='edge') {
      edges[i].setAttribute('class','edge');
    }
  }
}
]]></script>
        <defs>
                <circle id="rim" cx="0" cy="0" r="7"/>
                <circle id="rim2" cx="0" cy="0" r="3.5"/>
                <g id="zoomPlus">
                        <use xlink:href="#rim" fill="#404040">
                                <set attributeName="fill" to="#808080" begin="zoomplus.mouseover" end="zoomplus.mouseout"/>
                        </use>
                        <path d="M-4,0h8M0,-4v8" fill="none" stroke="white" stroke-width="1.5" pointer-events="none"/>
                </g>
                <g id="zoomMin">
                        <use xlink:href="#rim" fill="#404040">
                                <set attributeName="fill" to="#808080" begin="zoomminus.mouseover" end="zoomminus.mouseout"/>
                        </use>
                        <path d="M-4,0h8" fill="none" stroke="white" stroke-width="1.5" pointer-events="none"/>
                </g>
                <g id="dirArrow">
                        <path fill="none" stroke="white" stroke-width="1.5" d="M0,-3.0v7 M-2.5,-0.5L0,-3.0L2.5,-0.5"/>
                </g>
               <g id="resetDef">
                       <use xlink:href="#rim2" fill="#404040">
                               <set attributeName="fill" to="#808080" begin="reset.mouseover" end="reset.mouseout"/>
                       </use>
               </g>
        </defs>

<script type="text/javascript">
var viewWidth = 853;
var viewHeight = 353;
var sectionId = 'dynsection-1';
</script>
<script xlink:href="../../svgpan.js"/>
<svg id="graph" class="graph">
<g id="viewport">
<title>Shoot</title>
<polygon fill="white" stroke="transparent" points="-4,4 -4,-348.53 849,-348.53 849,4 -4,4"/>
<!-- Node1 -->
<g id="node1" class="node">
<title>Node1</title>
<g id="a_node1"><a xlink:title="An shoot (player or enemy)">
<polygon fill="#bfbfbf" stroke="black" points="803,-65.59 803,-84.59 845,-84.59 845,-65.59 803,-65.59"/>
<text text-anchor="middle" x="824" y="-72.59" font-family="Helvetica,sans-Serif" font-size="10.00">Shoot</text>
</a>
</g>
</g>
<!-- Node2 -->
<g id="node2" class="node">
<title>Node2</title>
<g id="a_node2"><a xlink:href="../../d5/d15/class_a_movable.html" target="_top" xlink:title=" ">
<polygon fill="white" stroke="black" points="703.5,-146.59 703.5,-165.59 763.5,-165.59 763.5,-146.59 703.5,-146.59"/>
<text text-anchor="middle" x="733.5" y="-153.59" font-family="Helvetica,sans-Serif" font-size="10.00">AMovable</text>
</a>
</g>
</g>
<!-- Node2&#45;&gt;Node1 -->
<g id="edge1" class="edge">
<title>Node2&#45;&gt;Node1</title>
<path fill="none" stroke="midnightblue" d="M752.58,-139.55C770.63,-123.03 797.75,-98.2 812.51,-84.69"/>
<polygon fill="midnightblue" stroke="midnightblue" points="750.01,-137.15 745,-146.48 754.74,-142.31 750.01,-137.15"/>
</g>
<!-- Node3 -->
<g id="node3" class="node">
<title>Node3</title>
<g id="a_node3"><a xlink:href="../../d3/d92/class_a_graphic_object.html" target="_top" xlink:title=" ">
<polygon fill="white" stroke="black" points="545,-203.59 545,-222.59 631,-222.59 631,-203.59 545,-203.59"/>
<text text-anchor="middle" x="588" y="-210.59" font-family="Helvetica,sans-Serif" font-size="10.00">AGraphicObject</text>
</a>
</g>
</g>
<!-- Node3&#45;&gt;Node2 -->
<g id="edge2" class="edge">
<title>Node3&#45;&gt;Node2</title>
<path fill="none" stroke="midnightblue" d="M622.59,-199.75C648.9,-189.3 684.89,-175.01 708.4,-165.66"/>
<polygon fill="midnightblue" stroke="midnightblue" points="621.02,-196.61 613.02,-203.55 623.6,-203.11 621.02,-196.61"/>
</g>
<!-- Node4 -->
<g id="node4" class="node">
<title>Node4</title>
<g id="a_node4"><a xlink:href="../../db/d70/class_instance_list.html" target="_top" xlink:title=" ">
<polygon fill="white" stroke="black" points="217,-144.59 217,-163.59 373,-163.59 373,-144.59 217,-144.59"/>
<text text-anchor="middle" x="295" y="-151.59" font-family="Helvetica,sans-Serif" font-size="10.00">InstanceList&lt; AGraphicObject &gt;</text>
</a>
</g>
</g>
<!-- Node4&#45;&gt;Node3 -->
<g id="edge3" class="edge">
<title>Node4&#45;&gt;Node3</title>
<path fill="none" stroke="midnightblue" d="M352.9,-165.63C409.22,-177.05 494.13,-194.26 544.72,-204.52"/>
<polygon fill="midnightblue" stroke="midnightblue" points="353.57,-162.2 343.08,-163.64 352.18,-169.06 353.57,-162.2"/>
</g>
<!-- Node5 -->
<g id="node5" class="node">
<title>Node5</title>
<g id="a_node5"><a xlink:href="../../db/d70/class_instance_list.html" target="_top" xlink:title="Add a static list for the class T">
<polygon fill="white" stroke="black" points="0,-63.59 0,-82.59 93,-82.59 93,-63.59 0,-63.59"/>
<text text-anchor="middle" x="46.5" y="-70.59" font-family="Helvetica,sans-Serif" font-size="10.00">InstanceList&lt; T &gt;</text>
</a>
</g>
</g>
<!-- Node5&#45;&gt;Node4 -->
<g id="edge4" class="edge">
<title>Node5&#45;&gt;Node4</title>
<path fill="none" stroke="orange" stroke-dasharray="5,2" d="M86.46,-85.9C136.01,-102.18 220.43,-129.92 264.79,-144.5"/>
<polygon fill="orange" stroke="orange" points="87.34,-82.5 76.74,-82.7 85.15,-89.15 87.34,-82.5"/>
<text text-anchor="middle" x="155" y="-123.09" font-family="Helvetica,sans-Serif" font-size="10.00"> &lt; AGraphicObject &gt;</text>
</g>
<!-- Node12 -->
<g id="node12" class="node">
<title>Node12</title>
<g id="a_node12"><a xlink:href="../../db/d70/class_instance_list.html" target="_top" xlink:title=" ">
<polygon fill="white" stroke="black" points="391,-30.59 391,-49.59 527,-49.59 527,-30.59 391,-30.59"/>
<text text-anchor="middle" x="459" y="-37.59" font-family="Helvetica,sans-Serif" font-size="10.00">InstanceList&lt; ACollidable &gt;</text>
</a>
</g>
</g>
<!-- Node5&#45;&gt;Node12 -->
<g id="edge14" class="edge">
<title>Node5&#45;&gt;Node12</title>
<path fill="none" stroke="orange" stroke-dasharray="5,2" d="M103.55,-68.59C178.34,-62.57 310.61,-51.94 390.7,-45.5"/>
<polygon fill="orange" stroke="orange" points="103.08,-65.11 93.39,-69.4 103.64,-72.09 103.08,-65.11"/>
<text text-anchor="middle" x="155" y="-70.09" font-family="Helvetica,sans-Serif" font-size="10.00"> &lt; ACollidable &gt;</text>
</g>
<!-- Node6 -->
<g id="node6" class="node">
<title>Node6</title>
<g id="a_node6"><a xlink:title=" ">
<polygon fill="white" stroke="#bfbfbf" points="270,-89.59 270,-108.59 320,-108.59 320,-89.59 270,-89.59"/>
<text text-anchor="middle" x="295" y="-96.59" font-family="Helvetica,sans-Serif" font-size="10.00">Vector2</text>
</a>
</g>
</g>
<!-- Node6&#45;&gt;Node2 -->
<g id="edge10" class="edge">
<title>Node6&#45;&gt;Node2</title>
<path fill="none" stroke="#9a32cd" stroke-dasharray="5,2" d="M330.19,-99.61C375.42,-100.65 457.51,-103.77 527,-113.09 590.58,-121.63 663.87,-138.75 703.47,-148.62"/>
<polygon fill="#9a32cd" stroke="#9a32cd" points="330.13,-96.11 320.05,-99.4 329.98,-103.11 330.13,-96.11"/>
<text text-anchor="middle" x="588" y="-134.09" font-family="Helvetica,sans-Serif" font-size="10.00"> direction</text>
</g>
<!-- Node6&#45;&gt;Node3 -->
<g id="edge5" class="edge">
<title>Node6&#45;&gt;Node3</title>
<path fill="none" stroke="#9a32cd" stroke-dasharray="5,2" d="M330.3,-103.35C390.48,-111.01 510.32,-127.26 527,-137.09 554.37,-153.23 574.03,-186.96 582.45,-203.52"/>
<polygon fill="#9a32cd" stroke="#9a32cd" points="330.5,-99.84 320.14,-102.06 329.62,-106.79 330.5,-99.84"/>
<text text-anchor="middle" x="459" y="-162.09" font-family="Helvetica,sans-Serif" font-size="10.00"> center</text>
<text text-anchor="middle" x="459" y="-151.09" font-family="Helvetica,sans-Serif" font-size="10.00">position</text>
<text text-anchor="middle" x="459" y="-140.09" font-family="Helvetica,sans-Serif" font-size="10.00">scale</text>
</g>
<!-- Node13 -->
<g id="node13" class="node">
<title>Node13</title>
<g id="a_node13"><a xlink:href="../../dc/d1d/class_a_collider.html" target="_top" xlink:title=" ">
<polygon fill="white" stroke="black" points="560,-43.59 560,-62.59 616,-62.59 616,-43.59 560,-43.59"/>
<text text-anchor="middle" x="588" y="-50.59" font-family="Helvetica,sans-Serif" font-size="10.00">ACollider</text>
</a>
</g>
</g>
<!-- Node6&#45;&gt;Node13 -->
<g id="edge16" class="edge">
<title>Node6&#45;&gt;Node13</title>
<path fill="none" stroke="#9a32cd" stroke-dasharray="5,2" d="M330.12,-88.78C348.08,-83.69 370.57,-77.85 391,-74.09 450.74,-63.1 521.86,-57.25 559.87,-54.7"/>
<polygon fill="#9a32cd" stroke="#9a32cd" points="329.01,-85.46 320.38,-91.59 330.95,-92.18 329.01,-85.46"/>
<text text-anchor="middle" x="459" y="-77.09" font-family="Helvetica,sans-Serif" font-size="10.00"> pivot</text>
</g>
<!-- Node7 -->
<g id="node7" class="node">
<title>Node7</title>
<g id="a_node7"><a xlink:title=" ">
<polygon fill="white" stroke="#bfbfbf" points="277.5,-322.59 277.5,-341.59 312.5,-341.59 312.5,-322.59 277.5,-322.59"/>
<text text-anchor="middle" x="295" y="-329.59" font-family="Helvetica,sans-Serif" font-size="10.00">float</text>
</a>
</g>
</g>
<!-- Node7&#45;&gt;Node2 -->
<g id="edge11" class="edge">
<title>Node7&#45;&gt;Node2</title>
<path fill="none" stroke="#9a32cd" stroke-dasharray="5,2" d="M322.59,-337.02C366.69,-344.01 457.06,-353.25 527,-327.09 619.6,-292.47 700.37,-197.08 724.89,-166.02"/>
<polygon fill="#9a32cd" stroke="#9a32cd" points="323.1,-333.56 312.66,-335.36 321.94,-340.46 323.1,-333.56"/>
<text text-anchor="middle" x="588" y="-322.09" font-family="Helvetica,sans-Serif" font-size="10.00"> speed</text>
</g>
<!-- Node7&#45;&gt;Node3 -->
<g id="edge6" class="edge">
<title>Node7&#45;&gt;Node3</title>
<path fill="none" stroke="#9a32cd" stroke-dasharray="5,2" d="M322.81,-327.6C382.73,-317.51 522.63,-293.75 527,-291.09 554.75,-274.25 574.36,-239.45 582.63,-222.62"/>
<polygon fill="#9a32cd" stroke="#9a32cd" points="321.88,-324.2 312.6,-329.31 323.04,-331.1 321.88,-324.2"/>
<text text-anchor="middle" x="459" y="-318.09" font-family="Helvetica,sans-Serif" font-size="10.00"> orientation</text>
</g>
<!-- Node8 -->
<g id="node8" class="node">
<title>Node8</title>
<g id="a_node8"><a xlink:title=" ">
<polygon fill="white" stroke="#bfbfbf" points="264.5,-237.59 264.5,-256.59 325.5,-256.59 325.5,-237.59 264.5,-237.59"/>
<text text-anchor="middle" x="295" y="-244.59" font-family="Helvetica,sans-Serif" font-size="10.00">Texture2D</text>
</a>
</g>
</g>
<!-- Node8&#45;&gt;Node3 -->
<g id="edge7" class="edge">
<title>Node8&#45;&gt;Node3</title>
<path fill="none" stroke="#9a32cd" stroke-dasharray="5,2" d="M335.83,-244.54C381.99,-241.3 460.26,-234.92 527,-225.09 532.78,-224.24 538.85,-223.2 544.81,-222.1"/>
<polygon fill="#9a32cd" stroke="#9a32cd" points="335.39,-241.07 325.65,-245.24 335.87,-248.05 335.39,-241.07"/>
<text text-anchor="middle" x="459" y="-242.09" font-family="Helvetica,sans-Serif" font-size="10.00"> texture</text>
</g>
<!-- Node9 -->
<g id="node9" class="node">
<title>Node9</title>
<g id="a_node9"><a xlink:title=" ">
<polygon fill="white" stroke="#bfbfbf" points="265,-199.59 265,-218.59 325,-218.59 325,-199.59 265,-199.59"/>
<text text-anchor="middle" x="295" y="-206.59" font-family="Helvetica,sans-Serif" font-size="10.00">Rectangle</text>
</a>
</g>
</g>
<!-- Node9&#45;&gt;Node3 -->
<g id="edge8" class="edge">
<title>Node9&#45;&gt;Node3</title>
<path fill="none" stroke="#9a32cd" stroke-dasharray="5,2" d="M335.24,-209.63C389.96,-210.38 488.77,-211.74 544.96,-212.52"/>
<polygon fill="#9a32cd" stroke="#9a32cd" points="335.28,-206.13 325.23,-209.5 335.19,-213.13 335.28,-206.13"/>
<text text-anchor="middle" x="459" y="-215.09" font-family="Helvetica,sans-Serif" font-size="10.00"> source</text>
</g>
<!-- Node10 -->
<g id="node10" class="node">
<title>Node10</title>
<g id="a_node10"><a xlink:title=" ">
<polygon fill="white" stroke="#bfbfbf" points="275.5,-275.59 275.5,-294.59 314.5,-294.59 314.5,-275.59 275.5,-275.59"/>
<text text-anchor="middle" x="295" y="-282.59" font-family="Helvetica,sans-Serif" font-size="10.00">Color</text>
</a>
</g>
</g>
<!-- Node10&#45;&gt;Node3 -->
<g id="edge9" class="edge">
<title>Node10&#45;&gt;Node3</title>
<path fill="none" stroke="#9a32cd" stroke-dasharray="5,2" d="M324.69,-282.91C378.09,-278.57 490.6,-268.06 527,-254.09 546.08,-246.77 565.04,-232.3 576.39,-222.66"/>
<polygon fill="#9a32cd" stroke="#9a32cd" points="324.23,-279.43 314.54,-283.72 324.79,-286.41 324.23,-279.43"/>
<text text-anchor="middle" x="459" y="-279.09" font-family="Helvetica,sans-Serif" font-size="10.00"> tint</text>
</g>
<!-- Node11 -->
<g id="node11" class="node">
<title>Node11</title>
<g id="a_node11"><a xlink:href="../../d0/d76/class_a_collidable.html" target="_top" xlink:title=" ">
<polygon fill="white" stroke="black" points="701,-43.59 701,-62.59 766,-62.59 766,-43.59 701,-43.59"/>
<text text-anchor="middle" x="733.5" y="-50.59" font-family="Helvetica,sans-Serif" font-size="10.00">ACollidable</text>
</a>
</g>
</g>
<!-- Node11&#45;&gt;Node1 -->
<g id="edge12" class="edge">
<title>Node11&#45;&gt;Node1</title>
<path fill="none" stroke="midnightblue" d="M776.37,-63.5C785.62,-65.8 795.02,-68.14 802.93,-70.1"/>
<polygon fill="midnightblue" stroke="midnightblue" points="777,-60.05 766.45,-61.04 775.31,-66.84 777,-60.05"/>
</g>
<!-- Node12&#45;&gt;Node11 -->
<g id="edge13" class="edge">
<title>Node12&#45;&gt;Node11</title>
<path fill="none" stroke="midnightblue" d="M537.32,-34.4C539.91,-34.29 542.48,-34.18 545,-34.09 583.2,-32.75 592.94,-30.56 631,-34.09 654.56,-36.28 680.81,-41.26 700.71,-45.58"/>
<polygon fill="midnightblue" stroke="midnightblue" points="537.07,-30.91 527.25,-34.91 537.42,-37.9 537.07,-30.91"/>
</g>
<!-- Node13&#45;&gt;Node11 -->
<g id="edge15" class="edge">
<title>Node13&#45;&gt;Node11</title>
<path fill="none" stroke="#9a32cd" stroke-dasharray="5,2" d="M626.45,-53.09C649.54,-53.09 678.83,-53.09 700.77,-53.09"/>
<polygon fill="#9a32cd" stroke="#9a32cd" points="626.33,-49.59 616.33,-53.09 626.33,-56.59 626.33,-49.59"/>
<text text-anchor="middle" x="666" y="-56.09" font-family="Helvetica,sans-Serif" font-size="10.00"> collider</text>
</g>
<!-- Node14 -->
<g id="node14" class="node">
<title>Node14</title>
<g id="a_node14"><a xlink:title=" ">
<polygon fill="white" stroke="#bfbfbf" points="256.5,-4.59 256.5,-23.59 333.5,-23.59 333.5,-4.59 256.5,-4.59"/>
<text text-anchor="middle" x="295" y="-11.59" font-family="Helvetica,sans-Serif" font-size="10.00">CollisionLayer</text>
</a>
</g>
</g>
<!-- Node14&#45;&gt;Node13 -->
<g id="edge17" class="edge">
<title>Node14&#45;&gt;Node13</title>
<path fill="none" stroke="#9a32cd" stroke-dasharray="5,2" d="M343.8,-5.85C391.35,0.51 465.85,5.42 527,-13.09 546.41,-18.97 565.28,-33.43 576.52,-43.25"/>
<polygon fill="#9a32cd" stroke="#9a32cd" points="343.19,-2.4 333.78,-7.26 344.17,-9.33 343.19,-2.4"/>
<text text-anchor="middle" x="459" y="-16.09" font-family="Helvetica,sans-Serif" font-size="10.00"> layer</text>
</g>
</g>
</svg>
        <g id="navigator" transform="translate(0 0)" fill="#404254">
                <rect fill="#f2f5e9" fill-opacity="0.5" stroke="#606060" stroke-width=".5" x="0" y="0" width="60" height="60"/>
                <use id="zoomplus" xlink:href="#zoomPlus" x="17" y="9" onmousedown="handleZoom(evt,'in')"/>
                <use id="zoomminus" xlink:href="#zoomMin" x="42" y="9" onmousedown="handleZoom(evt,'out')"/>
                <use id="reset" xlink:href="#resetDef" x="30" y="36" onmousedown="handleReset()"/>
                <g id="arrowUp" xlink:href="#dirArrow" transform="translate(30 24)" onmousedown="handlePan(0,-1)">
                  <use xlink:href="#rim" fill="#404040">
                        <set attributeName="fill" to="#808080" begin="arrowUp.mouseover" end="arrowUp.mouseout"/>
                  </use>
                  <path fill="none" stroke="white" stroke-width="1.5" d="M0,-3.0v7 M-2.5,-0.5L0,-3.0L2.5,-0.5"/>
                </g>
                <g id="arrowRight" xlink:href="#dirArrow" transform="rotate(90) translate(36 -43)" onmousedown="handlePan(1,0)">
                  <use xlink:href="#rim" fill="#404040">
                        <set attributeName="fill" to="#808080" begin="arrowRight.mouseover" end="arrowRight.mouseout"/>
                  </use>
                  <path fill="none" stroke="white" stroke-width="1.5" d="M0,-3.0v7 M-2.5,-0.5L0,-3.0L2.5,-0.5"/>
                </g>
                <g id="arrowDown" xlink:href="#dirArrow" transform="rotate(180) translate(-30 -48)" onmousedown="handlePan(0,1)">
                  <use xlink:href="#rim" fill="#404040">
                        <set attributeName="fill" to="#808080" begin="arrowDown.mouseover" end="arrowDown.mouseout"/>
                  </use>
                  <path fill="none" stroke="white" stroke-width="1.5" d="M0,-3.0v7 M-2.5,-0.5L0,-3.0L2.5,-0.5"/>
                </g>
                <g id="arrowLeft" xlink:href="#dirArrow" transform="rotate(270) translate(-36 17)" onmousedown="handlePan(-1,0)">
                  <use xlink:href="#rim" fill="#404040">
                        <set attributeName="fill" to="#808080" begin="arrowLeft.mouseover" end="arrowLeft.mouseout"/>
                  </use>
                  <path fill="none" stroke="white" stroke-width="1.5" d="M0,-3.0v7 M-2.5,-0.5L0,-3.0L2.5,-0.5"/>
                </g>
        </g>
        <svg viewBox="0 0 15 15" width="100%" height="30px" preserveAspectRatio="xMaxYMin meet">
         <g id="arrow_out" transform="scale(0.3 0.3)">
          <a xlink:href="class_shoot__coll__graph_org.svg" target="_base">
           <rect id="button" ry="5" rx="5" y="6" x="6" height="38" width="38"
                fill="#f2f5e9" fill-opacity="0.5" stroke="#606060" stroke-width="1.0"/>
           <path id="arrow"
             d="M 11.500037,31.436501 C 11.940474,20.09759 22.043105,11.32322 32.158766,21.979434 L 37.068811,17.246167 C 37.068811,17.246167 37.088388,32 37.088388,32 L 22.160133,31.978069 C 22.160133,31.978069 26.997745,27.140456 26.997745,27.140456 C 18.528582,18.264221 13.291696,25.230495 11.500037,31.436501 z"
             style="fill:#404040;"/>
          </a>
         </g>
        </svg>
</svg>
